<svg xmlns="http://www.w3.org/2000/svg" viewBox="0 0 516 314"><defs><style>.cls-1{fill:#e80134;}.cls-10,.cls-14,.cls-15,.cls-17,.cls-2,.cls-4,.cls-5,.cls-6{fill:none;}.cls-17,.cls-2,.cls-5{stroke:#252937;}.cls-14,.cls-2,.cls-6{stroke-linejoin:round;}.cls-3{opacity:0.3;}.cls-4,.cls-6{stroke:#cfd1d9;}.cls-10,.cls-15,.cls-17,.cls-4,.cls-5{stroke-miterlimit:10;}.cls-10,.cls-17,.cls-5{stroke-linecap:round;}.cls-7,.cls-9{opacity:0.05;}.cls-12,.cls-18,.cls-8,.cls-9{fill:#252937;}.cls-10,.cls-14,.cls-15{stroke:#b5b8c4;}.cls-10,.cls-17{stroke-dasharray:1 3;}.cls-11,.cls-12{opacity:0.1;}.cls-13{fill:#ddd;}.cls-16{fill:#fff;}.cls-18{opacity:0.25;}</style></defs><title>Artboard 9 copy 2</title><g id="Artwork"><polygon class="cls-1" points="264.57 296.37 320 264.37 347.49 280.25 292.07 312.25 264.57 296.37"/><polygon class="cls-2" points="264.57 296.37 320 264.37 347.49 280.25 292.07 312.25 264.57 296.37"/><g class="cls-3"><line class="cls-4" x1="209.15" y1="184.87" x2="153.72" y2="216.87"/><line class="cls-4" x1="212.61" y1="186.87" x2="157.19" y2="218.87"/><line class="cls-4" x1="216.08" y1="188.87" x2="160.65" y2="220.87"/><line class="cls-4" x1="219.54" y1="190.87" x2="164.12" y2="222.87"/><line class="cls-4" x1="223.01" y1="192.87" x2="167.58" y2="224.87"/><line class="cls-4" x1="226.47" y1="194.87" x2="171.04" y2="226.87"/><line class="cls-4" x1="229.93" y1="196.87" x2="174.51" y2="228.87"/><line class="cls-4" x1="233.4" y1="198.87" x2="177.97" y2="230.87"/><line class="cls-4" x1="205.69" y1="182.87" x2="150.26" y2="214.87"/><line class="cls-4" x1="202.22" y1="180.87" x2="146.8" y2="212.87"/><line class="cls-4" x1="198.76" y1="178.87" x2="143.33" y2="210.87"/><line class="cls-4" x1="195.29" y1="176.87" x2="139.87" y2="208.87"/><line class="cls-4" x1="191.83" y1="174.87" x2="136.4" y2="206.87"/><line class="cls-4" x1="188.36" y1="172.87" x2="132.94" y2="204.87"/><line class="cls-4" x1="184.9" y1="170.87" x2="129.48" y2="202.87"/><line class="cls-4" x1="209.15" y1="216.87" x2="153.72" y2="184.87"/><line class="cls-4" x1="205.69" y1="218.87" x2="150.26" y2="186.87"/><line class="cls-4" x1="202.22" y1="220.87" x2="146.8" y2="188.87"/><line class="cls-4" x1="198.76" y1="222.87" x2="143.33" y2="190.87"/><line class="cls-4" x1="195.29" y1="224.87" x2="139.87" y2="192.87"/><line class="cls-4" x1="191.83" y1="226.87" x2="136.4" y2="194.87"/><line class="cls-4" x1="188.36" y1="228.87" x2="132.94" y2="196.87"/><line class="cls-4" x1="184.9" y1="230.87" x2="129.48" y2="198.87"/><line class="cls-4" x1="212.61" y1="214.87" x2="157.19" y2="182.87"/><line class="cls-4" x1="216.08" y1="212.87" x2="160.65" y2="180.87"/><line class="cls-4" x1="219.54" y1="210.87" x2="164.12" y2="178.87"/><line class="cls-4" x1="223.01" y1="208.87" x2="167.58" y2="176.87"/><line class="cls-4" x1="226.47" y1="206.87" x2="171.04" y2="174.87"/><line class="cls-4" x1="229.93" y1="204.87" x2="174.51" y2="172.87"/><line class="cls-4" x1="233.4" y1="202.87" x2="177.97" y2="170.87"/><line class="cls-4" x1="292.29" y1="232.87" x2="236.86" y2="264.87"/><line class="cls-4" x1="295.75" y1="234.87" x2="240.33" y2="266.87"/><line class="cls-4" x1="299.22" y1="236.87" x2="243.79" y2="268.87"/><line class="cls-4" x1="302.68" y1="238.87" x2="247.25" y2="270.87"/><line class="cls-4" x1="306.14" y1="240.87" x2="250.72" y2="272.87"/><line class="cls-4" x1="309.61" y1="242.87" x2="254.18" y2="274.87"/><line class="cls-4" x1="313.07" y1="244.87" x2="257.65" y2="276.87"/><line class="cls-4" x1="316.54" y1="246.87" x2="261.11" y2="278.87"/><line class="cls-4" x1="288.82" y1="230.87" x2="233.4" y2="262.87"/><line class="cls-4" x1="285.36" y1="228.87" x2="229.93" y2="260.87"/><line class="cls-4" x1="281.9" y1="226.87" x2="226.47" y2="258.87"/><line class="cls-4" x1="278.43" y1="224.87" x2="223.01" y2="256.87"/><line class="cls-4" x1="274.97" y1="222.87" x2="219.54" y2="254.87"/><line class="cls-4" x1="271.5" y1="220.87" x2="216.08" y2="252.87"/><line class="cls-4" x1="268.04" y1="218.87" x2="212.61" y2="250.87"/><line class="cls-4" x1="292.29" y1="264.87" x2="236.86" y2="232.87"/><line class="cls-4" x1="288.82" y1="266.87" x2="233.4" y2="234.87"/><line class="cls-4" x1="285.36" y1="268.87" x2="229.93" y2="236.87"/><line class="cls-4" x1="281.9" y1="270.87" x2="226.47" y2="238.87"/><line class="cls-4" x1="278.43" y1="272.87" x2="223.01" y2="240.87"/><line class="cls-4" x1="274.97" y1="274.87" x2="219.54" y2="242.87"/><line class="cls-4" x1="271.5" y1="276.87" x2="216.08" y2="244.87"/><line class="cls-4" x1="268.04" y1="278.87" x2="212.61" y2="246.87"/><line class="cls-4" x1="295.75" y1="262.87" x2="240.33" y2="230.87"/><line class="cls-4" x1="299.22" y1="260.87" x2="243.79" y2="228.87"/><line class="cls-4" x1="302.68" y1="258.87" x2="247.25" y2="226.87"/><line class="cls-4" x1="306.14" y1="256.87" x2="250.72" y2="224.87"/><line class="cls-4" x1="309.61" y1="254.87" x2="254.18" y2="222.87"/><line class="cls-4" x1="313.07" y1="252.87" x2="257.65" y2="220.87"/><line class="cls-4" x1="316.54" y1="250.87" x2="261.11" y2="218.87"/><line class="cls-4" x1="126.01" y1="136.87" x2="70.59" y2="168.87"/><line class="cls-4" x1="129.47" y1="138.87" x2="74.05" y2="170.87"/><line class="cls-4" x1="132.94" y1="140.87" x2="77.51" y2="172.87"/><line class="cls-4" x1="136.4" y1="142.87" x2="80.98" y2="174.87"/><line class="cls-4" x1="139.87" y1="144.87" x2="84.44" y2="176.87"/><line class="cls-4" x1="143.33" y1="146.87" x2="87.91" y2="178.87"/><line class="cls-4" x1="146.8" y1="148.87" x2="91.37" y2="180.87"/><line class="cls-4" x1="150.26" y1="150.87" x2="94.83" y2="182.87"/><line class="cls-4" x1="122.55" y1="134.87" x2="67.12" y2="166.87"/><line class="cls-4" x1="119.08" y1="132.87" x2="63.66" y2="164.87"/><line class="cls-4" x1="115.62" y1="130.87" x2="60.19" y2="162.87"/><line class="cls-4" x1="112.15" y1="128.87" x2="56.73" y2="160.87"/><line class="cls-4" x1="108.69" y1="126.87" x2="53.27" y2="158.87"/><line class="cls-4" x1="105.23" y1="124.87" x2="49.8" y2="156.87"/><line class="cls-4" x1="101.76" y1="122.87" x2="46.34" y2="154.87"/><line class="cls-4" x1="126.01" y1="168.87" x2="70.59" y2="136.87"/><line class="cls-4" x1="122.55" y1="170.87" x2="67.12" y2="138.87"/><line class="cls-4" x1="119.08" y1="172.87" x2="63.66" y2="140.87"/><line class="cls-4" x1="115.62" y1="174.87" x2="60.19" y2="142.87"/><line class="cls-4" x1="112.15" y1="176.87" x2="56.73" y2="144.87"/><line class="cls-4" x1="108.69" y1="178.87" x2="53.26" y2="146.87"/><line class="cls-4" x1="105.23" y1="180.87" x2="49.8" y2="148.87"/><line class="cls-4" x1="101.76" y1="182.87" x2="46.34" y2="150.87"/><line class="cls-4" x1="129.48" y1="166.87" x2="74.05" y2="134.87"/><line class="cls-4" x1="132.94" y1="164.87" x2="77.51" y2="132.87"/><line class="cls-4" x1="136.4" y1="162.87" x2="80.98" y2="130.87"/><line class="cls-4" x1="139.87" y1="160.87" x2="84.44" y2="128.87"/><line class="cls-4" x1="143.33" y1="158.87" x2="87.91" y2="126.87"/><line class="cls-4" x1="146.8" y1="156.87" x2="91.37" y2="124.87"/><line class="cls-4" x1="150.26" y1="154.87" x2="94.83" y2="122.87"/><line class="cls-4" x1="292.29" y1="136.88" x2="236.86" y2="168.87"/><line class="cls-4" x1="295.75" y1="138.88" x2="240.33" y2="170.87"/><line class="cls-4" x1="299.22" y1="140.88" x2="243.79" y2="172.87"/><line class="cls-4" x1="302.68" y1="142.88" x2="247.25" y2="174.87"/><line class="cls-4" x1="306.14" y1="144.88" x2="250.72" y2="176.87"/><line class="cls-4" x1="309.61" y1="146.88" x2="254.18" y2="178.87"/><line class="cls-4" x1="313.07" y1="148.88" x2="257.65" y2="180.87"/><line class="cls-4" x1="316.54" y1="150.88" x2="261.11" y2="182.87"/><line class="cls-4" x1="288.82" y1="134.88" x2="233.4" y2="166.87"/><line class="cls-4" x1="285.36" y1="132.88" x2="229.93" y2="164.87"/><line class="cls-4" x1="281.89" y1="130.88" x2="226.47" y2="162.87"/><line class="cls-4" x1="278.43" y1="128.88" x2="223.01" y2="160.87"/><line class="cls-4" x1="274.97" y1="126.88" x2="219.54" y2="158.87"/><line class="cls-4" x1="271.5" y1="124.88" x2="216.08" y2="156.87"/><line class="cls-4" x1="268.04" y1="122.88" x2="212.61" y2="154.87"/><line class="cls-4" x1="292.29" y1="168.87" x2="236.86" y2="136.88"/><line class="cls-4" x1="288.82" y1="170.87" x2="233.4" y2="138.87"/><line class="cls-4" x1="285.36" y1="172.87" x2="229.93" y2="140.87"/><line class="cls-4" x1="281.9" y1="174.87" x2="226.47" y2="142.87"/><line class="cls-4" x1="278.43" y1="176.87" x2="223.01" y2="144.87"/><line class="cls-4" x1="274.97" y1="178.87" x2="219.54" y2="146.87"/><line class="cls-4" x1="271.5" y1="180.87" x2="216.08" y2="148.87"/><line class="cls-4" x1="268.04" y1="182.87" x2="212.61" y2="150.87"/><line class="cls-4" x1="295.75" y1="166.88" x2="240.33" y2="134.88"/><line class="cls-4" x1="299.22" y1="164.88" x2="243.79" y2="132.88"/><line class="cls-4" x1="302.68" y1="162.88" x2="247.25" y2="130.88"/><line class="cls-4" x1="306.14" y1="160.88" x2="250.72" y2="128.88"/><line class="cls-4" x1="309.61" y1="158.88" x2="254.18" y2="126.88"/><line class="cls-4" x1="313.07" y1="156.88" x2="257.65" y2="124.88"/><line class="cls-4" x1="316.54" y1="154.88" x2="261.11" y2="122.88"/><line class="cls-4" x1="375.43" y1="184.88" x2="320" y2="216.87"/><line class="cls-4" x1="378.89" y1="186.88" x2="323.46" y2="218.87"/><line class="cls-4" x1="382.35" y1="188.88" x2="326.93" y2="220.87"/><line class="cls-4" x1="385.82" y1="190.88" x2="330.39" y2="222.87"/><line class="cls-4" x1="389.28" y1="192.88" x2="333.86" y2="224.87"/><line class="cls-4" x1="392.75" y1="194.88" x2="337.32" y2="226.87"/><line class="cls-4" x1="396.21" y1="196.88" x2="340.78" y2="228.87"/><line class="cls-4" x1="399.67" y1="198.88" x2="344.25" y2="230.87"/><line class="cls-4" x1="371.96" y1="182.88" x2="316.54" y2="214.87"/><line class="cls-4" x1="368.5" y1="180.88" x2="313.07" y2="212.87"/><line class="cls-4" x1="365.03" y1="178.88" x2="309.61" y2="210.87"/><line class="cls-4" x1="361.57" y1="176.88" x2="306.14" y2="208.87"/><line class="cls-4" x1="358.11" y1="174.88" x2="302.68" y2="206.87"/><line class="cls-4" x1="354.64" y1="172.88" x2="299.22" y2="204.87"/><line class="cls-4" x1="351.18" y1="170.88" x2="295.75" y2="202.87"/><line class="cls-4" x1="375.43" y1="216.87" x2="320" y2="184.87"/><line class="cls-4" x1="371.96" y1="218.87" x2="316.54" y2="186.87"/><line class="cls-4" x1="368.5" y1="220.87" x2="313.07" y2="188.87"/><line class="cls-4" x1="365.03" y1="222.87" x2="309.61" y2="190.87"/><line class="cls-4" x1="361.57" y1="224.87" x2="306.14" y2="192.87"/><line class="cls-4" x1="358.11" y1="226.87" x2="302.68" y2="194.87"/><line class="cls-4" x1="354.64" y1="228.87" x2="299.22" y2="196.87"/><line class="cls-4" x1="351.18" y1="230.87" x2="295.75" y2="198.87"/><line class="cls-4" x1="378.89" y1="214.88" x2="323.46" y2="182.88"/><line class="cls-4" x1="382.35" y1="212.88" x2="326.93" y2="180.88"/><line class="cls-4" x1="385.82" y1="210.88" x2="330.39" y2="178.88"/><line class="cls-4" x1="389.28" y1="208.88" x2="333.86" y2="176.88"/><line class="cls-4" x1="392.75" y1="206.88" x2="337.32" y2="174.88"/><line class="cls-4" x1="396.21" y1="204.88" x2="340.78" y2="172.88"/><line class="cls-4" x1="399.67" y1="202.88" x2="344.25" y2="170.88"/><line class="cls-4" x1="209.15" y1="88.88" x2="153.72" y2="120.87"/><line class="cls-4" x1="212.61" y1="90.88" x2="157.19" y2="122.87"/><line class="cls-4" x1="216.08" y1="92.88" x2="160.65" y2="124.87"/><line class="cls-4" x1="219.54" y1="94.88" x2="164.12" y2="126.87"/><line class="cls-4" x1="223.01" y1="96.88" x2="167.58" y2="128.87"/><line class="cls-4" x1="226.47" y1="98.88" x2="171.04" y2="130.87"/><line class="cls-4" x1="229.93" y1="100.88" x2="174.51" y2="132.87"/><line class="cls-4" x1="233.4" y1="102.88" x2="177.97" y2="134.87"/><line class="cls-4" x1="205.68" y1="86.88" x2="150.26" y2="118.87"/><line class="cls-4" x1="202.22" y1="84.88" x2="146.8" y2="116.87"/><line class="cls-4" x1="198.76" y1="82.88" x2="143.33" y2="114.87"/><line class="cls-4" x1="195.29" y1="80.88" x2="139.87" y2="112.87"/><line class="cls-4" x1="191.83" y1="78.88" x2="136.4" y2="110.87"/><line class="cls-4" x1="188.36" y1="76.88" x2="132.94" y2="108.87"/><line class="cls-4" x1="184.9" y1="74.88" x2="129.47" y2="106.87"/><line class="cls-4" x1="209.15" y1="120.88" x2="153.72" y2="88.88"/><line class="cls-4" x1="205.68" y1="122.87" x2="150.26" y2="90.87"/><line class="cls-4" x1="202.22" y1="124.87" x2="146.8" y2="92.87"/><line class="cls-4" x1="198.76" y1="126.87" x2="143.33" y2="94.87"/><line class="cls-4" x1="195.29" y1="128.87" x2="139.87" y2="96.87"/><line class="cls-4" x1="191.83" y1="130.87" x2="136.4" y2="98.87"/><line class="cls-4" x1="188.36" y1="132.87" x2="132.94" y2="100.87"/><line class="cls-4" x1="184.9" y1="134.87" x2="129.47" y2="102.87"/><line class="cls-4" x1="212.61" y1="118.88" x2="157.19" y2="86.88"/><line class="cls-4" x1="216.08" y1="116.88" x2="160.65" y2="84.88"/><line class="cls-4" x1="219.54" y1="114.88" x2="164.12" y2="82.88"/><line class="cls-4" x1="223.01" y1="112.88" x2="167.58" y2="80.88"/><line class="cls-4" x1="226.47" y1="110.88" x2="171.04" y2="78.88"/><line class="cls-4" x1="229.93" y1="108.88" x2="174.51" y2="76.88"/><line class="cls-4" x1="233.4" y1="106.88" x2="177.97" y2="74.88"/><line class="cls-4" x1="375.43" y1="88.88" x2="320" y2="120.88"/><line class="cls-4" x1="378.89" y1="90.88" x2="323.46" y2="122.88"/><line class="cls-4" x1="382.35" y1="92.88" x2="326.93" y2="124.88"/><line class="cls-4" x1="385.82" y1="94.88" x2="330.39" y2="126.88"/><line class="cls-4" x1="389.28" y1="96.88" x2="333.86" y2="128.88"/><line class="cls-4" x1="392.75" y1="98.88" x2="337.32" y2="130.88"/><line class="cls-4" x1="396.21" y1="100.88" x2="340.78" y2="132.88"/><line class="cls-4" x1="399.67" y1="102.88" x2="344.25" y2="134.88"/><line class="cls-4" x1="371.96" y1="86.88" x2="316.54" y2="118.88"/><line class="cls-4" x1="368.5" y1="84.88" x2="313.07" y2="116.88"/><line class="cls-4" x1="365.03" y1="82.88" x2="309.61" y2="114.88"/><line class="cls-4" x1="361.57" y1="80.88" x2="306.14" y2="112.88"/><line class="cls-4" x1="358.1" y1="78.88" x2="302.68" y2="110.88"/><line class="cls-4" x1="354.64" y1="76.88" x2="299.22" y2="108.88"/><line class="cls-4" x1="351.18" y1="74.88" x2="295.75" y2="106.88"/><line class="cls-4" x1="375.43" y1="120.88" x2="320" y2="88.88"/><line class="cls-4" x1="371.96" y1="122.88" x2="316.54" y2="90.88"/><line class="cls-4" x1="368.5" y1="124.88" x2="313.07" y2="92.88"/><line class="cls-4" x1="365.03" y1="126.88" x2="309.61" y2="94.88"/><line class="cls-4" x1="361.57" y1="128.88" x2="306.14" y2="96.88"/><line class="cls-4" x1="358.1" y1="130.88" x2="302.68" y2="98.88"/><line class="cls-4" x1="354.64" y1="132.88" x2="299.22" y2="100.88"/><line class="cls-4" x1="351.18" y1="134.88" x2="295.75" y2="102.88"/><line class="cls-4" x1="378.89" y1="118.88" x2="323.46" y2="86.88"/><line class="cls-4" x1="382.35" y1="116.88" x2="326.93" y2="84.88"/><line class="cls-4" x1="385.82" y1="114.88" x2="330.39" y2="82.88"/><line class="cls-4" x1="389.28" y1="112.88" x2="333.86" y2="80.88"/><line class="cls-4" x1="392.75" y1="110.88" x2="337.32" y2="78.88"/><line class="cls-4" x1="396.21" y1="108.88" x2="340.78" y2="76.88"/><line class="cls-4" x1="399.67" y1="106.88" x2="344.25" y2="74.88"/><line class="cls-4" x1="458.56" y1="136.88" x2="403.14" y2="168.88"/><line class="cls-4" x1="462.03" y1="138.88" x2="406.6" y2="170.88"/><line class="cls-4" x1="465.49" y1="140.88" x2="410.07" y2="172.88"/><line class="cls-4" x1="468.96" y1="142.88" x2="413.53" y2="174.88"/><line class="cls-4" x1="472.42" y1="144.88" x2="416.99" y2="176.88"/><line class="cls-4" x1="475.88" y1="146.88" x2="420.46" y2="178.88"/><line class="cls-4" x1="479.35" y1="148.88" x2="423.92" y2="180.88"/><line class="cls-4" x1="482.81" y1="150.88" x2="427.39" y2="182.88"/><line class="cls-4" x1="455.1" y1="134.88" x2="399.67" y2="166.88"/><line class="cls-4" x1="451.64" y1="132.88" x2="396.21" y2="164.88"/><line class="cls-4" x1="448.17" y1="130.88" x2="392.75" y2="162.88"/><line class="cls-4" x1="444.71" y1="128.88" x2="389.28" y2="160.88"/><line class="cls-4" x1="441.24" y1="126.88" x2="385.82" y2="158.88"/><line class="cls-4" x1="437.78" y1="124.88" x2="382.35" y2="156.88"/><line class="cls-4" x1="434.31" y1="122.88" x2="378.89" y2="154.88"/><line class="cls-4" x1="458.56" y1="168.88" x2="403.14" y2="136.88"/><line class="cls-4" x1="455.1" y1="170.88" x2="399.67" y2="138.88"/><line class="cls-4" x1="451.64" y1="172.88" x2="396.21" y2="140.88"/><line class="cls-4" x1="448.17" y1="174.88" x2="392.75" y2="142.88"/><line class="cls-4" x1="444.71" y1="176.88" x2="389.28" y2="144.88"/><line class="cls-4" x1="441.24" y1="178.88" x2="385.82" y2="146.88"/><line class="cls-4" x1="437.78" y1="180.88" x2="382.35" y2="148.88"/><line class="cls-4" x1="434.32" y1="182.88" x2="378.89" y2="150.88"/><line class="cls-4" x1="462.03" y1="166.88" x2="406.6" y2="134.88"/><line class="cls-4" x1="465.49" y1="164.88" x2="410.07" y2="132.88"/><line class="cls-4" x1="468.96" y1="162.88" x2="413.53" y2="130.88"/><line class="cls-4" x1="472.42" y1="160.88" x2="416.99" y2="128.88"/><line class="cls-4" x1="475.88" y1="158.88" x2="420.46" y2="126.88"/><line class="cls-4" x1="479.35" y1="156.88" x2="423.92" y2="124.88"/><line class="cls-4" x1="482.81" y1="154.88" x2="427.39" y2="122.88"/><line class="cls-4" x1="292.29" y1="40.88" x2="236.86" y2="72.88"/><line class="cls-4" x1="295.75" y1="42.88" x2="240.33" y2="74.88"/><line class="cls-4" x1="299.21" y1="44.88" x2="243.79" y2="76.88"/><line class="cls-4" x1="302.68" y1="46.88" x2="247.25" y2="78.88"/><line class="cls-4" x1="306.14" y1="48.88" x2="250.72" y2="80.88"/><line class="cls-4" x1="309.61" y1="50.88" x2="254.18" y2="82.88"/><line class="cls-4" x1="313.07" y1="52.88" x2="257.65" y2="84.88"/><line class="cls-4" x1="316.54" y1="54.88" x2="261.11" y2="86.88"/><line class="cls-4" x1="288.82" y1="38.88" x2="233.4" y2="70.88"/><line class="cls-4" x1="285.36" y1="36.88" x2="229.93" y2="68.88"/><line class="cls-4" x1="281.89" y1="34.88" x2="226.47" y2="66.88"/><line class="cls-4" x1="278.43" y1="32.88" x2="223" y2="64.88"/><line class="cls-4" x1="274.97" y1="30.88" x2="219.54" y2="62.88"/><line class="cls-4" x1="271.5" y1="28.88" x2="216.08" y2="60.88"/><line class="cls-4" x1="268.04" y1="26.88" x2="212.61" y2="58.88"/><line class="cls-4" x1="292.29" y1="72.88" x2="236.86" y2="40.88"/><line class="cls-4" x1="288.82" y1="74.88" x2="233.4" y2="42.88"/><line class="cls-4" x1="285.36" y1="76.88" x2="229.93" y2="44.88"/><line class="cls-4" x1="281.89" y1="78.88" x2="226.47" y2="46.88"/><line class="cls-4" x1="278.43" y1="80.88" x2="223" y2="48.88"/><line class="cls-4" x1="274.97" y1="82.88" x2="219.54" y2="50.88"/><line class="cls-4" x1="271.5" y1="84.88" x2="216.08" y2="52.88"/><line class="cls-4" x1="268.04" y1="86.88" x2="212.61" y2="54.88"/><line class="cls-4" x1="295.75" y1="70.88" x2="240.33" y2="38.88"/><line class="cls-4" x1="299.22" y1="68.88" x2="243.79" y2="36.88"/><line class="cls-4" x1="302.68" y1="66.88" x2="247.25" y2="34.88"/><line class="cls-4" x1="306.14" y1="64.88" x2="250.72" y2="32.88"/><line class="cls-4" x1="309.61" y1="62.88" x2="254.18" y2="30.88"/><line class="cls-4" x1="313.07" y1="60.88" x2="257.65" y2="28.88"/><line class="cls-4" x1="316.54" y1="58.88" x2="261.11" y2="26.88"/></g><line class="cls-5" x1="216.08" y1="84.88" x2="236.86" y2="72.88"/><line class="cls-5" x1="132.94" y1="132.87" x2="153.72" y2="120.87"/><line class="cls-5" x1="299.22" y1="132.87" x2="320" y2="120.87"/><line class="cls-5" x1="216.08" y1="180.87" x2="236.86" y2="168.87"/><line class="cls-5" x1="382.35" y1="180.87" x2="403.14" y2="168.87"/><line class="cls-5" x1="299.22" y1="228.87" x2="320" y2="216.87"/><line class="cls-5" x1="209.15" y1="216.87" x2="229.93" y2="228.87"/><line class="cls-5" x1="126.01" y1="168.87" x2="146.79" y2="180.87"/><line class="cls-5" x1="292.29" y1="168.87" x2="313.07" y2="180.87"/><line class="cls-5" x1="209.15" y1="120.87" x2="229.93" y2="132.87"/><line class="cls-5" x1="375.42" y1="120.87" x2="396.21" y2="132.87"/><line class="cls-5" x1="292.29" y1="72.88" x2="313.07" y2="84.88"/><polygon class="cls-6" points="181.44 232.88 126.01 200.88 181.44 168.88 236.86 200.88 181.44 232.88"/><polygon class="cls-6" points="264.57 280.88 209.15 248.88 264.57 216.88 320 248.88 264.57 280.88"/><polygon class="cls-6" points="98.3 184.88 42.87 152.88 98.3 120.88 153.72 152.88 98.3 184.88"/><polygon class="cls-6" points="264.57 184.88 209.15 152.88 264.57 120.88 320 152.88 264.57 184.88"/><polygon class="cls-6" points="347.71 232.88 292.29 200.88 347.71 168.88 403.14 200.88 347.71 232.88"/><polygon class="cls-6" points="181.44 136.88 126.01 104.88 181.44 72.88 236.86 104.88 181.44 136.88"/><polygon class="cls-6" points="347.71 136.88 292.29 104.88 347.71 72.88 403.14 104.88 347.71 136.88"/><polygon class="cls-6" points="430.85 184.88 375.43 152.88 430.85 120.88 486.28 152.88 430.85 184.88"/><polygon class="cls-6" points="264.57 88.88 209.15 56.88 264.57 24.88 320 56.88 264.57 88.88"/><g class="cls-7"><path class="cls-8" d="M167.59,232.87h0l-55.41-32H126l55.41,32H167.59Z"/></g><polygon class="cls-9" points="112.16 200.88 126.01 200.88 126.01 192.88 112.16 200.88"/><g class="cls-7"><path class="cls-8" d="M250.73,280.87h0l-55.41-32h13.86l55.41,32H250.73Z"/></g><polygon class="cls-9" points="195.29 248.88 209.15 248.88 209.15 240.88 195.29 248.88"/><g class="cls-7"><path class="cls-8" d="M84.45,184.87h0l-55.4-32s0,0,0,0H42.88l55.41,32H84.45Z"/></g><polygon class="cls-9" points="29.02 152.88 42.87 152.88 42.87 144.88 29.02 152.88"/><g class="cls-7"><path class="cls-8" d="M250.73,184.87h0l-55.41-32h13.86l55.41,32H250.73Z"/></g><polygon class="cls-9" points="195.29 152.88 209.15 152.88 209.15 144.88 195.29 152.88"/><g class="cls-7"><path class="cls-8" d="M333.87,232.87h0l-55.41-32H292.3l55.4,32H333.87Z"/></g><polygon class="cls-9" points="278.43 200.88 292.29 200.88 292.29 192.88 278.43 200.88"/><g class="cls-7"><path class="cls-8" d="M167.59,136.87h0l-55.41-32H126l55.41,32H167.59Z"/></g><polygon class="cls-9" points="112.15 104.88 126.01 104.88 126.01 96.88 112.15 104.88"/><g class="cls-7"><path class="cls-8" d="M333.87,136.88h0l-55.41-32H292.3l55.4,32s0,0,0,0Z"/></g><polygon class="cls-9" points="278.43 104.88 292.29 104.88 292.29 96.88 278.43 104.88"/><g class="cls-7"><path class="cls-8" d="M417,184.88h0l-55.41-32h13.85l55.41,32s0,0,0,0Z"/></g><polygon class="cls-9" points="361.57 152.88 375.43 152.88 375.43 144.88 361.57 152.88"/><g class="cls-7"><path class="cls-8" d="M250.73,88.88h0l-55.41-32h13.86l55.41,32H250.73Z"/></g><polygon class="cls-9" points="195.29 56.88 209.15 56.88 209.15 48.88 195.29 56.88"/><polyline class="cls-10" points="126.01 192.88 181.44 224.88 236.86 192.88"/><line class="cls-10" x1="181.44" y1="232.87" x2="181.44" y2="224.87"/><polyline class="cls-10" points="209.15 240.88 264.57 272.88 320 240.88"/><line class="cls-10" x1="264.58" y1="280.87" x2="264.58" y2="272.87"/><polyline class="cls-10" points="42.87 144.88 98.3 176.88 153.72 144.88"/><line class="cls-10" x1="98.3" y1="184.87" x2="98.3" y2="176.87"/><polyline class="cls-10" points="209.15 144.88 264.57 176.88 320 144.88"/><line class="cls-10" x1="264.57" y1="184.87" x2="264.57" y2="176.87"/><polyline class="cls-10" points="292.29 192.88 347.71 224.88 403.14 192.88"/><line class="cls-10" x1="347.71" y1="232.87" x2="347.71" y2="224.87"/><polyline class="cls-10" points="126.01 96.88 181.44 128.88 236.86 96.88"/><line class="cls-10" x1="181.44" y1="136.87" x2="181.44" y2="128.87"/><polyline class="cls-10" points="292.29 96.88 347.71 128.88 403.14 96.88"/><line class="cls-10" x1="347.71" y1="136.88" x2="347.71" y2="128.88"/><polyline class="cls-10" points="375.43 144.88 430.85 176.88 486.28 144.88"/><line class="cls-10" x1="430.85" y1="184.88" x2="430.85" y2="176.88"/><polyline class="cls-10" points="209.15 48.88 264.57 80.88 320 48.88"/><line class="cls-10" x1="264.57" y1="88.88" x2="264.57" y2="80.88"/><g class="cls-11"><path class="cls-8" d="M333.87,216.87h0l-27.7-16H320l27.69,16H333.87Z"/></g><g class="cls-11"><path class="cls-8" d="M333.87,184.87h0l-27.7,16H320l27.69-16s0,0,0,0Z"/></g><g class="cls-11"><path class="cls-8" d="M167.59,216.87h0l-27.69-16s0,0,0,0h13.85l27.7,16H167.59Z"/></g><g class="cls-11"><path class="cls-8" d="M167.59,184.87h0l-27.69,16h13.85l27.7-16H167.59Z"/></g><polygon class="cls-12" points="181.44 160.88 174.51 172.88 181.44 168.88 181.44 160.88"/><g class="cls-11"><path class="cls-8" d="M223,200.87h0l-48.48-28s0,0,0,0l6.91-4h0l55.4,32H223Z"/></g><g class="cls-11"><path class="cls-8" d="M250.73,264.87h0l-27.7-16h13.86l27.7,16H250.73Z"/></g><g class="cls-11"><path class="cls-8" d="M250.73,232.87h0l-27.7,16h13.86l27.7-16H250.73Z"/></g><polygon class="cls-12" points="264.57 208.88 257.65 220.88 264.57 216.88 264.57 208.88"/><g class="cls-11"><path class="cls-8" d="M306.15,248.87h0l-48.48-28s0,0,0,0l6.91-4h0l55.41,32H306.15Z"/></g><g class="cls-11"><path class="cls-8" d="M84.45,168.87h0l-27.69-16s0,0,0,0H70.59l27.7,16H84.45Z"/></g><g class="cls-11"><path class="cls-8" d="M84.45,136.87h0l-27.69,16H70.59l27.7-16H84.45Z"/></g><polygon class="cls-12" points="98.3 112.88 91.37 124.88 98.3 120.88 98.3 112.88"/><g class="cls-11"><path class="cls-8" d="M139.88,152.87h0l-48.48-28s0,0,0,0l6.91-4h0l55.4,32H139.88Z"/></g><g class="cls-11"><path class="cls-8" d="M250.73,168.87h0l-27.7-16h13.86l27.7,16H250.73Z"/></g><g class="cls-11"><path class="cls-8" d="M250.73,136.87h0l-27.7,16h13.86l27.7-16H250.73Z"/></g><polygon class="cls-12" points="264.57 112.88 257.65 124.88 264.57 120.88 264.57 112.88"/><g class="cls-11"><path class="cls-8" d="M306.15,152.88h0l-48.49-28h0l6.92-4h0l55.41,32s0,0,0,0Z"/></g><polygon class="cls-12" points="347.71 160.88 340.79 172.88 347.71 168.88 347.71 160.88"/><g class="cls-11"><path class="cls-8" d="M389.29,200.88h0l-48.48-28h0l6.91-4h0l55.41,32H389.29Z"/></g><g class="cls-11"><path class="cls-8" d="M167.59,120.87h0l-27.69-16s0,0,0,0h13.85l27.7,16H167.59Z"/></g><g class="cls-11"><path class="cls-8" d="M167.59,88.87h0l-27.69,16h13.85l27.7-16H167.59Z"/></g><polygon class="cls-12" points="181.44 64.88 174.51 76.88 181.44 72.88 181.44 64.88"/><g class="cls-11"><path class="cls-8" d="M223,104.88h0l-48.48-28s0,0,0,0l6.91-4h0l55.41,32s0,0,0,0Z"/></g><g class="cls-11"><path class="cls-8" d="M333.87,120.88h0l-27.7-16H320l27.69,16s0,0,0,0Z"/></g><g class="cls-11"><path class="cls-8" d="M333.87,88.88h0l-27.7,16H320l27.69-16H333.87Z"/></g><polygon class="cls-12" points="347.71 64.88 340.78 76.88 347.71 72.88 347.71 64.88"/><g class="cls-11"><path class="cls-8" d="M389.29,104.88h0l-48.48-28h0l6.91-4h0l55.41,32H389.29Z"/></g><g class="cls-11"><path class="cls-8" d="M417,168.88h0l-27.7-16h13.86l27.69,16s0,0,0,0Z"/></g><g class="cls-11"><path class="cls-8" d="M417,136.88h0l-27.7,16h13.86l27.69-16H417Z"/></g><polygon class="cls-12" points="430.85 112.88 423.92 124.88 430.85 120.88 430.85 112.88"/><g class="cls-11"><path class="cls-8" d="M472.43,152.88h0l-48.48-28h0l6.91-4h0l55.41,32H472.43Z"/></g><g class="cls-11"><path class="cls-8" d="M250.73,72.88h0l-27.7-16h13.86l27.7,16H250.73Z"/></g><g class="cls-11"><path class="cls-8" d="M250.73,40.88h0l-27.7,16a0,0,0,0,0,0,0h13.85l27.7-16H250.73Z"/></g><polygon class="cls-12" points="264.57 16.88 257.65 28.88 264.57 24.88 264.57 16.88"/><g class="cls-11"><path class="cls-8" d="M306.15,56.88h0l-48.48-28h0l6.92-4h0l55.41,32s0,0,0,0Z"/></g><polygon class="cls-13" points="181.44 160.88 181.44 168.88 236.86 200.88 236.86 192.88 181.44 160.88"/><polygon class="cls-14" points="181.44 160.88 181.44 168.88 236.86 200.88 236.86 192.88 181.44 160.88"/><path class="cls-13" d="M181.44,216.86h0l-27.7-16v-8h0l27.7,16h0Z"/><path class="cls-15" d="M181.44,216.86h0l-27.7-16v-8h0l27.7,16h0Z"/><polygon class="cls-13" points="264.57 208.88 264.57 216.88 320 248.88 320 240.88 264.57 208.88"/><polygon class="cls-14" points="264.57 208.88 264.57 216.88 320 248.88 320 240.88 264.57 208.88"/><path class="cls-13" d="M264.58,264.86h0l-27.7-16v-8h0l27.7,16h0Z"/><path class="cls-15" d="M264.58,264.86h0l-27.7-16v-8h0l27.7,16h0Z"/><polygon class="cls-13" points="98.3 112.88 98.3 120.88 153.72 152.88 153.72 144.88 98.3 112.88"/><polygon class="cls-14" points="98.3 112.88 98.3 120.88 153.72 152.88 153.72 144.88 98.3 112.88"/><path class="cls-13" d="M98.3,168.86h0l-27.7-16v-8h0l27.7,16h0Z"/><path class="cls-15" d="M98.3,168.86h0l-27.7-16v-8h0l27.7,16h0Z"/><polygon class="cls-13" points="264.57 112.88 264.57 120.88 320 152.88 320 144.88 264.57 112.88"/><polygon class="cls-14" points="264.57 112.88 264.57 120.88 320 152.88 320 144.88 264.57 112.88"/><path class="cls-13" d="M264.57,168.86h0l-27.7-16v-8h0l27.7,16h0Z"/><path class="cls-15" d="M264.57,168.86h0l-27.7-16v-8h0l27.7,16h0Z"/><polygon class="cls-13" points="347.71 160.88 347.71 168.88 403.14 200.88 403.14 192.88 347.71 160.88"/><polygon class="cls-14" points="347.71 160.88 347.71 168.88 403.14 200.88 403.14 192.88 347.71 160.88"/><path class="cls-13" d="M347.71,216.86h0l-27.69-16s0,0,0,0v-8h0l27.69,16h0Z"/><path class="cls-15" d="M347.71,216.86h0l-27.69-16s0,0,0,0v-8h0l27.69,16h0Z"/><polygon class="cls-13" points="181.44 64.88 181.44 72.88 236.86 104.88 236.86 96.88 181.44 64.88"/><polygon class="cls-14" points="181.44 64.88 181.44 72.88 236.86 104.88 236.86 96.88 181.44 64.88"/><path class="cls-13" d="M181.44,120.86a0,0,0,0,1,0,0l-27.7-16a0,0,0,0,1,0,0v-8a0,0,0,0,1,0,0l27.7,16h0Z"/><path class="cls-15" d="M181.44,120.86a0,0,0,0,1,0,0l-27.7-16a0,0,0,0,1,0,0v-8a0,0,0,0,1,0,0l27.7,16h0Z"/><polygon class="cls-13" points="347.71 64.88 347.71 72.88 403.14 104.88 403.14 96.88 347.71 64.88"/><polygon class="cls-14" points="347.71 64.88 347.71 72.88 403.14 104.88 403.14 96.88 347.71 64.88"/><path class="cls-13" d="M347.71,120.87h0l-27.69-16h0v-8s0,0,0,0l27.69,16s0,0,0,0Z"/><path class="cls-15" d="M347.71,120.87h0l-27.69-16h0v-8s0,0,0,0l27.69,16s0,0,0,0Z"/><polygon class="cls-13" points="430.85 112.88 430.85 120.88 486.28 152.88 486.28 144.88 430.85 112.88"/><polygon class="cls-14" points="430.85 112.88 430.85 120.88 486.28 152.88 486.28 144.88 430.85 112.88"/><path class="cls-13" d="M430.85,168.87h0l-27.69-16h0v-8h0l27.69,16s0,0,0,0Z"/><path class="cls-15" d="M430.85,168.87h0l-27.69-16h0v-8h0l27.69,16s0,0,0,0Z"/><polygon class="cls-13" points="264.57 16.88 264.57 24.88 320 56.88 320 48.88 264.57 16.88"/><polygon class="cls-14" points="264.57 16.88 264.57 24.88 320 56.88 320 48.88 264.57 16.88"/><path class="cls-13" d="M264.57,72.87h0l-27.7-16h0v-8h0l27.7,16v8Z"/><path class="cls-15" d="M264.57,72.87h0l-27.7-16h0v-8h0l27.7,16v8Z"/><polygon class="cls-16" points="126.01 200.88 126.01 192.88 181.44 160.88 181.44 168.88 126.01 200.88"/><polygon class="cls-6" points="126.01 200.88 126.01 192.88 181.44 160.88 181.44 168.88 126.01 200.88"/><path class="cls-16" d="M209.15,192.88h0l-27.69,16h0v8h0l27.69-16s0,0,0,0Z"/><path class="cls-14" d="M209.15,192.88h0l-27.69,16h0v8h0l27.69-16s0,0,0,0Z"/><polygon class="cls-16" points="209.15 248.88 209.15 240.88 264.57 208.88 264.57 216.88 209.15 248.88"/><polygon class="cls-6" points="209.15 248.88 209.15 240.88 264.57 208.88 264.57 216.88 209.15 248.88"/><path class="cls-16" d="M292.29,240.88h0l-27.7,16h0v8h0l27.7-16v-8Z"/><path class="cls-14" d="M292.29,240.88h0l-27.7,16h0v8h0l27.7-16v-8Z"/><polygon class="cls-16" points="42.87 152.88 42.87 144.88 98.3 112.88 98.3 120.88 42.87 152.88"/><polygon class="cls-6" points="42.87 152.88 42.87 144.88 98.3 112.88 98.3 120.88 42.87 152.88"/><path class="cls-16" d="M126,144.88h0l-27.69,16h0v8h0l27.69-16s0,0,0,0Z"/><path class="cls-14" d="M126,144.88h0l-27.69,16h0v8h0l27.69-16s0,0,0,0Z"/><polygon class="cls-16" points="209.15 152.88 209.15 144.88 264.57 112.88 264.57 120.88 209.15 152.88"/><polygon class="cls-6" points="209.15 152.88 209.15 144.88 264.57 112.88 264.57 120.88 209.15 152.88"/><path class="cls-16" d="M292.29,144.89h0l-27.7,16h0v8h0l27.7-16v-8Z"/><path class="cls-14" d="M292.29,144.89h0l-27.7,16h0v8h0l27.7-16v-8Z"/><polygon class="cls-16" points="292.29 200.88 292.29 192.88 347.71 160.88 347.71 168.88 292.29 200.88"/><polygon class="cls-6" points="292.29 200.88 292.29 192.88 347.71 160.88 347.71 168.88 292.29 200.88"/><path class="cls-16" d="M375.43,192.88h0l-27.7,16h0v8h0l27.7-16v-8Z"/><path class="cls-14" d="M375.43,192.88h0l-27.7,16h0v8h0l27.7-16v-8Z"/><polygon class="cls-16" points="126.01 104.88 126.01 96.88 181.44 64.88 181.44 72.88 126.01 104.88"/><polygon class="cls-6" points="126.01 104.88 126.01 96.88 181.44 64.88 181.44 72.88 126.01 104.88"/><path class="cls-16" d="M209.15,96.89s0,0,0,0l-27.7,16h0v8h0l27.7-16s0,0,0,0Z"/><path class="cls-14" d="M209.15,96.89s0,0,0,0l-27.7,16h0v8h0l27.7-16s0,0,0,0Z"/><polygon class="cls-16" points="292.29 104.88 292.29 96.88 347.71 64.88 347.71 72.88 292.29 104.88"/><polygon class="cls-6" points="292.29 104.88 292.29 96.88 347.71 64.88 347.71 72.88 292.29 104.88"/><path class="cls-16" d="M375.43,96.89a0,0,0,0,0,0,0l-27.7,16a0,0,0,0,0,0,0v8h0l27.7-16h0Z"/><path class="cls-14" d="M375.43,96.89a0,0,0,0,0,0,0l-27.7,16a0,0,0,0,0,0,0v8h0l27.7-16h0Z"/><polygon class="cls-16" points="375.43 152.88 375.43 144.88 430.85 112.88 430.85 120.88 375.43 152.88"/><polygon class="cls-6" points="375.43 152.88 375.43 144.88 430.85 112.88 430.85 120.88 375.43 152.88"/><path class="cls-16" d="M458.56,144.89h0l-27.7,16s0,0,0,0v8h0l27.7-16h0Z"/><path class="cls-14" d="M458.56,144.89h0l-27.7,16s0,0,0,0v8h0l27.7-16h0Z"/><polygon class="cls-16" points="209.15 56.88 209.15 48.88 264.57 16.88 264.57 24.88 209.15 56.88"/><polygon class="cls-6" points="209.15 56.88 209.15 48.88 264.57 16.88 264.57 24.88 209.15 56.88"/><path class="cls-16" d="M292.29,48.89h0l-27.7,16a0,0,0,0,0,0,0v8h0l27.7-16h0Z"/><path class="cls-14" d="M292.29,48.89h0l-27.7,16a0,0,0,0,0,0,0v8h0l27.7-16h0Z"/><path class="cls-16" d="M181.45,208.87h0l-27.7-16h0l27.7-16h0l27.69,16s0,0,0,0Z"/><path class="cls-2" d="M181.45,208.87h0l-27.7-16h0l27.7-16h0l27.69,16s0,0,0,0Z"/><path class="cls-16" d="M264.58,256.87h0l-27.7-16h0l27.7-16h0l27.7,16h0Z"/><path class="cls-2" d="M264.58,256.87h0l-27.7-16h0l27.7-16h0l27.7,16h0Z"/><path class="cls-16" d="M98.31,160.87h0l-27.7-16h0l27.7-16h0l27.69,16s0,0,0,0Z"/><path class="cls-2" d="M98.31,160.87h0l-27.7-16h0l27.7-16h0l27.69,16s0,0,0,0Z"/><path class="cls-16" d="M264.58,160.87h0l-27.7-16h0l27.7-16h0l27.7,16h0Z"/><path class="cls-2" d="M264.58,160.87h0l-27.7-16h0l27.7-16h0l27.7,16h0Z"/><path class="cls-16" d="M347.72,208.87h0l-27.69-16s0,0,0,0l27.69-16h0l27.7,16h0Z"/><path class="cls-2" d="M347.72,208.87h0l-27.69-16s0,0,0,0l27.69-16h0l27.7,16h0Z"/><path class="cls-16" d="M181.44,112.87h0l-27.7-16h0l27.7-16h0l27.7,16h0Z"/><path class="cls-2" d="M181.44,112.87h0l-27.7-16h0l27.7-16h0l27.7,16h0Z"/><path class="cls-16" d="M347.72,112.87h0L320,96.88s0,0,0,0l27.69-16h0l27.7,16h0Z"/><path class="cls-2" d="M347.72,112.87h0L320,96.88s0,0,0,0l27.69-16h0l27.7,16h0Z"/><path class="cls-16" d="M430.86,160.87h0l-27.69-16s0,0,0,0l27.69-16h0l27.69,16s0,0,0,0Z"/><path class="cls-2" d="M430.86,160.87h0l-27.69-16s0,0,0,0l27.69-16h0l27.69,16s0,0,0,0Z"/><path class="cls-16" d="M264.58,64.87h0l-27.7-16h0l27.7-16h0l27.7,16h0Z"/><path class="cls-2" d="M264.58,64.87h0l-27.7-16h0l27.7-16h0l27.7,16h0Z"/><polygon class="cls-6" points="264.57 296.37 16.15 152.94 264.57 9.51 513 152.94 264.57 296.37"/><g class="cls-7"><path class="cls-8" d="M250.73,296.37h0L2.3,152.94H16.16L264.57,296.36H250.73Z"/></g><polygon class="cls-9" points="2.29 152.94 16.15 152.94 16.15 144.94 2.29 152.94"/><line class="cls-17" x1="264.57" y1="296.37" x2="264.57" y2="288.37"/><polygon class="cls-12" points="264.57 1.51 257.64 13.51 264.57 9.51 264.57 1.51"/><g class="cls-11"><path class="cls-8" d="M499.15,152.94h0L257.65,13.51h0l6.91-4h0L513,152.94H499.15Z"/></g><polygon class="cls-18" points="264.57 1.51 264.57 9.51 513 152.94 513 144.94 264.57 1.51"/><polygon class="cls-2" points="264.57 1.51 264.57 9.51 513 152.94 513 144.94 264.57 1.51"/><polygon class="cls-12" points="16.15 152.94 16.15 144.94 264.57 1.51 264.57 9.51 16.15 152.94"/><polygon class="cls-2" points="16.15 152.94 16.15 144.94 264.57 1.51 264.57 9.51 16.15 152.94"/><polyline class="cls-17" points="16.15 144.94 264.57 288.37 513 144.94"/><polygon class="cls-2" points="264.57 296.37 16.15 152.94 264.57 9.51 513 152.94 264.57 296.37"/><path class="cls-16" d="M292,289.24l12,7a5.24,5.24,0,0,0,4.74,0l12.13-7c1.31-.76,1.32-2,0-2.74l-12.06-7a5.24,5.24,0,0,0-4.74,0l-12.13,7C290.67,287.26,290.66,288.49,292,289.24Zm1.3-2,8-4.63,3.88,2.24-9.1,5.25-2.8-1.62A.66.66,0,0,1,293.27,287.25Zm13.15,2.84-3.87-2.24,9.09-5.25,3.88,2.24Zm-1.3.75-3.89,2.25-3.88-2.24,3.9-2.25Zm2.43-10.6,2.8,1.62-3.89,2.25-3.88-2.24,2.82-1.62A2.36,2.36,0,0,1,307.55,280.24Zm12.05,8.2-2.82,1.63-3.87-2.24,3.9-2.25,2.8,1.62A.65.65,0,0,1,319.6,288.44Zm-14.28,7-2.8-1.62,9.09-5.25,3.87,2.24-8,4.63A2.39,2.39,0,0,1,305.32,295.45Z"/></g></svg>