<?xml version="1.0" encoding="UTF-8"?>
<svg width="3271px" height="552px" viewBox="0 0 3271 552" version="1.1" xmlns="http://www.w3.org/2000/svg" xmlns:xlink="http://www.w3.org/1999/xlink">
    <!-- Generator: Sketch 58 (84663) - https://sketch.com -->
    <title>barclays-logo</title>
    <desc>Created with Sketch.</desc>
    <g id="Page-1" stroke="none" stroke-width="1" fill="none" fill-rule="evenodd">
        <g id="barclays-logo" transform="translate(-0.252926, -0.542636)" fill-rule="nonzero">
            <path d="M3259.40025,159.606444 C3241.90473,127.900208 3204.191,103.852653 3163.2276,103.852653 C3127.20018,103.852653 3095.51151,118.60791 3095.51151,156.866182 C3095.51151,189.081825 3135.4034,210.933657 3176.9289,237.721474 C3222.24862,266.125342 3269.25465,301.063681 3269.25465,361.73589 C3269.25465,440.957564 3192.2287,489.562082 3103.17019,489.562082 C3066.5631,489.562082 3028.33996,482.465506 2985.18083,466.076632 L2992.25984,360.629246 C3013.04016,402.716858 3051.84298,436.02158 3109.16012,436.02158 C3153.42589,436.02158 3186.18607,414.731853 3186.18607,377.562659 C3186.18607,345.87399 3159.39825,326.21788 3126.65564,306.561771 C3057.79778,265.053829 3014.12924,231.696411 3014.12924,171.621438 C3014.12924,81.4562822 3089.50401,51.418796 3167.61904,51.418796 C3212.93876,51.418796 3241.37776,59.6220159 3270.3086,59.6220159 L3259.40025,159.606444 M2877.55529,254.092782 C2867.68332,270.499222 2855.17649,292.860461 2847.48267,309.284467 C2840.9482,340.411032 2837.6634,381.954105 2837.6634,427.81836 C2837.6634,446.947496 2840.9482,472.611102 2849.6784,481.358862 L2735.51838,481.358862 C2755.70147,462.247291 2763.92225,344.820043 2762.85074,307.650849 C2747.55094,254.672453 2726.75306,203.854647 2695.08196,142.110925 C2674.91644,103.343246 2651.39586,66.7010258 2636.6406,59.6220159 C2662.30421,57.4614248 2695.08196,55.8102413 2710.94386,55.8102413 C2739.33016,55.8102413 2747.0064,59.6220159 2764.50192,97.8802878 C2791.76402,159.624009 2811.98223,206.015238 2824.01479,240.461735 C2852.98076,195.106888 2873.18141,163.980323 2899.40712,121.365738 C2905.95916,110.984361 2911.42212,97.8802878 2911.42212,85.3031883 C2911.42212,75.4487849 2909.77094,64.5404347 2905.41462,59.6220159 L3018.50312,59.6220159 C2996.65129,64.5404347 2898.30048,219.154443 2877.55529,254.092782 M2480.39297,158.534931 L2412.67689,305.455127 L2523.00756,305.455127 L2480.39297,158.534931 M2613.15515,485.170636 C2577.07504,485.170636 2574.36991,484.099124 2545.40393,384.676801 L2535.04012,348.069712 C2517.57973,356.255366 2486.40047,360.084707 2436.70688,360.084707 L2386.45118,360.084707 L2377.70342,378.651738 C2365.14388,406.546199 2348.21047,439.271249 2348.21047,462.264857 C2348.21047,467.727815 2348.75501,473.717747 2350.95073,481.376427 L2052.6662,481.376427 C2069.61718,462.264857 2075.08013,400.538701 2083.26579,288.521713 L2084.89941,261.769028 C2089.27329,197.84715 2092.59322,148.680528 2092.01355,114.286728 C2091.46901,85.8828591 2088.72875,67.8428016 2081.08763,59.6571475 L2196.37186,59.6571475 C2179.96542,72.2342469 2173.94035,139.950334 2166.3168,251.967322 L2164.12108,278.720007 C2161.38082,320.245515 2155.93543,362.842534 2155.93543,404.368042 C2155.93543,423.462046 2163.57654,427.835926 2183.26778,427.835926 C2253.16203,427.835926 2270.67511,426.202308 2302.32865,404.895015 C2321.98476,368.832466 2344.41626,323.477618 2366.23296,276.506719 L2395.77861,213.691485 C2423.62037,154.688025 2450.91759,94.5779209 2450.91759,83.1250314 C2450.91759,74.9042457 2448.73944,67.2806966 2445.48977,59.6220159 L2537.25341,59.6220159 C2537.25341,59.6220159 2574.38747,197.302611 2582.59069,226.777992 L2600.59562,293.440132 C2631.72218,405.439554 2651.41342,460.051569 2677.63913,481.358862 C2655.75217,484.099124 2624.62561,485.170636 2613.15515,485.170636 M1869.68345,489.562082 C1760.96883,489.562082 1698.13603,399.976596 1698.13603,299.465195 C1698.13603,159.624009 1774.05534,51.418796 1918.83251,51.418796 C1964.16979,51.418796 1985.49465,59.6220159 2022.06661,59.6220159 L2011.15826,167.247559 C1990.3955,129.551392 1956.51111,103.870219 1911.19139,103.870219 C1821.06137,103.870219 1784.45428,201.131951 1784.45428,284.709939 C1784.45428,375.384502 1835.27209,425.078098 1902.98817,425.078098 C1939.59526,425.078098 1971.81091,415.24126 2025.91351,377.562659 C2004.06168,447.509601 1953.24387,489.562082 1869.68345,489.562082 M1492.75692,110.984361 C1482.37554,110.984361 1469.78087,110.984361 1459.97917,112.073439 C1456.69437,130.095931 1453.9541,161.240061 1450.12476,211.478196 L1447.92904,241.006275 C1453.42713,242.112919 1460.50614,242.675024 1467.07574,242.675024 C1519.49203,242.675024 1555.57215,210.951223 1555.57215,162.908811 C1555.57215,130.095931 1532.63124,110.984361 1492.75692,110.984361 M1645.14007,499.398919 C1614.0135,499.398919 1606.35482,494.462935 1595.99101,480.252217 L1477.98409,316.363477 C1468.69179,303.803943 1461.59522,293.422566 1446.85753,293.422566 L1444.11727,293.422566 L1441.95668,325.111236 C1439.19885,368.270361 1437.56523,402.716858 1437.56523,428.380465 C1438.10977,456.784333 1441.39457,474.24472 1449.05325,481.358862 L1334.87567,481.358862 C1351.24698,466.603605 1357.23691,417.436983 1366.54678,288.504148 L1368.19796,261.751463 C1372.57184,198.391689 1375.85664,149.207501 1375.29454,114.813701 C1374.73243,84.7586491 1371.48276,66.1740524 1363.26197,59.6220159 C1428.27293,59.6220159 1518.9475,59.6220159 1518.9475,59.6220159 C1569.74774,59.6220159 1639.67711,68.3873408 1639.67711,150.858685 C1639.67711,218.574772 1594.32226,255.743965 1538.07663,273.204352 C1543.53959,278.140337 1553.35886,290.69987 1559.38392,298.358551 L1645.14007,411.991591 C1698.68057,482.465506 1703.03688,485.732741 1722.18359,495.569579 C1698.13603,498.292275 1665.92039,499.398919 1645.14007,499.398919 M1113.10768,158.534931 L1044.77679,305.455127 L1155.66957,305.455127 L1113.10768,158.534931 M1245.81716,485.170636 C1209.78974,485.170636 1207.04948,484.099124 1178.10107,384.676801 L1167.7197,348.069712 C1150.20661,356.255366 1119.08005,360.084707 1069.36889,360.084707 L1019.11319,360.084707 L1010.38299,378.651738 C1001.63523,398.342979 980.32794,438.779407 980.872479,462.264857 C980.872479,467.727815 981.417019,473.190773 983.612741,481.376427 L882.556801,481.376427 C911.505209,452.42802 948.112297,385.238906 998.912537,276.524285 L1028.42305,213.70905 C1055.17573,156.901313 1083.59717,92.4348956 1083.59717,83.1425972 C1083.59717,74.9218115 1081.43658,67.2982624 1078.13421,59.6395817 L1169.93298,59.6395817 C1169.93298,59.6395817 1193.92784,150.87625 1215.2527,226.795558 L1233.27519,293.457698 C1264.41932,405.45712 1284.07543,460.069135 1310.30114,481.376427 C1286.81569,484.099124 1257.30518,485.170636 1245.81716,485.170636 M725.74707,110.439821 C717.54385,110.439821 706.6355,110.439821 696.254123,111.546466 C691.880244,141.039413 689.139982,169.443281 686.979391,200.569846 C686.979391,200.569846 685.328207,227.322531 685.328207,226.233453 L696.254123,226.233453 C749.794625,226.233453 798.978813,207.666422 798.978813,158.534931 C798.978813,130.095931 775.475797,110.439821 725.74707,110.439821 M712.116024,277.595797 L682.078538,277.595797 L677.704658,339.866492 C675.526501,367.198848 674.419857,390.122193 673.875318,417.436983 C673.875318,421.283889 685.890312,429.469543 714.276615,429.469543 C773.280075,429.469543 812.082886,399.976596 812.082886,351.336948 C812.082886,297.251907 767.817117,277.595797 712.116024,277.595797 M718.66806,481.358862 L571.168194,481.358862 C589.752791,464.952422 594.67121,401.048109 602.856864,288.504148 L604.490481,262.296002 C608.881927,198.374123 612.149162,149.207501 611.604623,114.813701 C611.060084,85.3031883 607.775282,66.1740524 599.572063,59.6220159 L764.549881,59.6220159 C803.879666,59.6220159 882.556801,61.8177386 882.556801,143.744543 C882.556801,198.374123 831.738995,232.24095 785.312635,244.291076 C850.868131,250.843112 900.034753,282.514216 900.034753,350.247869 C900.017188,423.44448 831.194456,481.358862 718.66806,481.358862" id="path21" fill="#00AEEF"></path>
            <path d="M239.182127,0.577838683 C224.567397,0.577838683 221.546083,3.12487699 216.803322,8.41217719 C214.941349,8.28921672 212.991547,8.25408516 210.953917,8.25408516 C199.711817,8.25408516 185.272744,9.90526861 172.959132,18.1436201 C161.067098,25.9955244 155.410916,39.8900575 161.752163,50.0606449 C161.752163,50.0606449 166.003082,43.8247925 179.985444,43.8247925 C181.952812,43.8247925 184.130969,44.0355819 186.449652,44.2288055 C205.772011,46.5123571 220.070557,56.6829445 218.331545,83.5410243 C216.785756,110.381538 206.720563,140.31363 165.546372,140.664945 C165.546372,140.664945 160.241506,140.664945 154.585324,140.137972 C135.421057,138.047644 129.395994,126.015084 129.395994,126.015084 C129.395994,126.015084 145.960526,121.518244 146.101052,100.492003 C145.960526,86.1934572 133.506387,73.1069501 115.536592,67.8196499 C109.652055,66.0982033 103.187848,65.2550458 96.4601535,65.2550458 C75.2758212,65.2550458 51.4917531,74.1257654 35.4541947,95.0641769 C-0.906972785,143.071457 -3.85802406,213.053531 5.01269555,278.134751 C13.9361125,343.356497 55.3035277,403.765219 56.5155666,405.416403 C57.3938557,406.575744 58.1843159,407.208112 59.0801707,407.208112 C59.536881,407.208112 60.0111571,406.997323 60.502999,406.59331 C78.3673987,389.255884 95.4062067,365.559645 102.696006,349.71531 C110.495213,355.933596 106.419952,369.16063 102.133901,383.283518 C98.0586396,397.72259 88.1515389,416.886858 84.5681195,423.070013 C81.1076606,429.112642 76.4702943,436.138954 82.7061467,439.810203 C83.3385148,440.19665 84.1465408,440.407439 85.1126587,440.407439 C93.1226551,440.407439 111.970739,426.442643 132.996979,398.407656 C156.535126,366.859513 168.479857,338.859657 168.479857,338.859657 C170.201304,339.246104 173.082092,342.162024 172.607816,350.101757 C172.291632,358.164451 164.000583,388.166805 147.85763,416.096398 C131.539019,444.008424 116.467579,461.468811 113.428698,465.438678 C111.54916,467.739795 113.147646,469.180189 114.359685,470.111176 C115.554158,470.919202 144.414737,497.86511 186.344257,520.630363 C236.020287,547.101995 258.047777,551.862322 258.047777,551.862322 C258.047777,551.862322 280.022569,547.224956 329.698599,520.770889 C371.610553,497.970505 400.594093,470.901636 401.665605,469.988215 C402.877644,469.162623 404.423433,467.862756 402.596592,465.333283 C399.733369,461.539074 384.609232,443.990859 368.325752,416.078832 C352.235497,388.342463 343.628264,358.146885 343.505303,350.189586 C343.171553,342.162024 345.876684,339.509591 347.527867,338.842091 C347.527867,338.842091 359.595559,367.017605 383.133706,398.39009 C404.265341,426.460209 422.937767,440.389873 430.982895,440.389873 C432.00171,440.389873 432.809736,440.179084 433.477236,439.792637 C439.519864,436.121389 435.023024,428.989681 431.474736,423.017316 C428.17237,416.869292 418.124743,397.827985 413.856258,383.265952 C409.763431,368.984972 405.512512,355.775504 413.452245,349.697744 C420.75961,365.542079 437.675457,389.361278 455.592554,406.452784 C456.06683,406.944626 456.61137,407.190547 457.138343,407.190547 C457.928803,407.190547 458.771961,406.575744 459.509724,405.504232 C460.827157,403.747653 502.264836,343.444326 511.117989,278.117185 C520.006275,212.895439 517.072789,143.071457 480.67649,95.0466111 C464.744326,74.0555023 440.784601,65.1320853 419.459742,65.1320853 C412.802311,65.1320853 406.443498,65.9928086 400.629224,67.6615579 C382.518904,73.1069501 370.117462,86.3164177 370.222857,100.474438 C370.222857,121.500678 386.875217,125.997518 386.875217,125.997518 C386.875217,125.997518 381.306865,137.73146 361.457532,140.120406 C357.751152,140.577116 354.150167,140.787906 350.707274,140.787906 C335.776359,140.787906 323.19926,136.045145 311.605844,119.673837 C300.363744,103.917331 300.732625,71.4733324 300.082692,60.6528111 C299.573284,49.6741977 297.219469,25.0469722 285.678751,14.9993452 C274.173164,4.68823153 260.15567,1.22777259 242.677718,0.54270712 C241.395416,0.577838683 240.25364,0.577838683 239.182127,0.577838683" id="path4050" fill="#00AFE9"></path>
        </g>
    </g>
</svg>