<?xml version="1.0" encoding="UTF-8"?>
<svg width="498px" height="84px" viewBox="0 0 498 84" version="1.1" xmlns="http://www.w3.org/2000/svg" xmlns:xlink="http://www.w3.org/1999/xlink">
    <!-- Generator: Sketch 58 (84663) - https://sketch.com -->
    <title>barclays-logo-3e6a89496726d78f264a2cb5c31bc173</title>
    <desc>Created with Sketch.</desc>
    <g id="Page-1" preserveAspectRatio="xMinYMin slice" stroke="none" stroke-width="1" fill="none" fill-rule="evenodd">
        <g id="barclays-logo-3e6a89496726d78f264a2cb5c31bc173" fill-rule="nonzero">
            <path d="M496.338978,24.422068 C493.674923,19.6093008 487.932227,15.9590636 481.694701,15.9590636 C476.208781,15.9590636 471.383525,18.1988002 471.383525,24.006117 C471.383525,28.8962083 477.457891,32.2131514 483.781008,36.2793398 C490.681873,40.5908324 497.839514,45.8942085 497.839514,55.1037917 C497.839514,67.1290436 486.110719,74.5068424 472.549717,74.5068424 C466.97553,74.5068424 461.155266,73.4296358 454.583395,70.9419284 L455.661321,54.9358115 C458.825554,61.3243932 464.734087,66.3797985 473.461808,66.3797985 C480.202188,66.3797985 485.190603,63.1481787 485.190603,57.5061757 C485.190603,52.696075 481.111603,49.712426 476.125863,46.728777 C465.640829,40.4281849 458.991389,35.3647807 458.991389,26.2458534 C458.991389,12.5594636 470.468758,8 482.363389,8 C489.264254,8 493.594681,9.24518684 498,9.24518684 L496.338978,24.422068 M438.195178,38.7643807 C436.691967,41.2547544 434.787543,44.6490216 433.616,47.1420617 C432.620991,51.8668393 432.120812,58.1727641 432.120812,65.1346116 C432.120812,68.03827 432.620991,71.9338117 433.950345,73.2616556 L416.567119,73.2616556 C419.640412,70.3606634 420.892196,52.5360938 420.729036,46.8940909 C418.399325,38.8523704 415.232417,31.1386111 410.409837,21.7663804 C407.339219,15.8817394 403.757724,10.3197271 401.51093,9.24518684 C405.418746,8.91722542 410.409837,8.66658824 412.825139,8.66658824 C417.147541,8.66658824 418.316408,9.24518684 420.980463,15.0525036 C425.131682,24.4247343 428.210323,31.4665725 430.042529,36.6952907 C434.453198,29.8107674 437.529165,25.0859899 441.522572,18.6174176 C442.520256,17.041603 443.352104,15.0525036 443.352104,13.1433949 C443.352104,11.6475709 443.100678,9.99176567 442.437338,9.24518684 L459.657403,9.24518684 C456.33001,9.99176567 441.354063,33.4610047 438.195178,38.7643807 M377.718994,24.2594205 L367.407819,46.5607968 L384.207947,46.5607968 L377.718994,24.2594205 M397.934784,73.8402541 C392.44084,73.8402541 392.028928,73.6776066 387.618258,58.5860487 L386.040154,53.0293691 C383.381448,54.2718895 378.63376,54.8531546 371.066882,54.8531546 L363.414412,54.8531546 L362.082384,57.6714897 C360.169934,61.9056582 357.591472,66.8730737 357.591472,70.3633298 C357.591472,71.1925656 357.674389,72.101792 358.008733,73.2643218 L312.588739,73.2643218 C315.169877,70.3633298 316.001724,60.9937654 317.24816,43.9904325 L317.496912,39.9295769 C318.162926,30.2267185 318.668454,22.7635965 318.580188,17.5428774 C318.49727,13.2313845 318.080009,10.49304 316.91649,9.25051955 L334.4709,9.25051955 C331.97268,11.1596283 331.055239,21.438419 329.894395,38.4417519 L329.560052,42.5026075 C329.14279,48.805866 328.313617,55.2717719 328.313617,61.5750304 C328.313617,64.4733561 329.477134,65.137278 332.475533,65.137278 C343.118379,65.137278 345.785108,64.8893072 350.605015,61.655021 C353.598065,56.1809983 357.013725,49.2964749 360.335769,42.1666471 L364.834706,32.6317689 C369.07419,23.6754892 373.230757,14.5512293 373.230757,12.8127671 C373.230757,11.5649139 372.899089,10.4077167 372.404259,9.24518684 L386.377173,9.24518684 C386.377173,9.24518684 392.031602,30.1440616 393.280712,34.6182018 L396.022335,44.7370113 C400.761999,61.7376779 403.760397,70.0273694 407.753805,73.2616556 C404.421062,73.6776066 399.681399,73.8402541 397.934784,73.8402541 M284.725827,74.5068424 C268.171776,74.5068424 258.604182,60.9084421 258.604182,45.6515704 C258.604182,24.4247343 270.164468,8 292.209789,8 C299.113329,8 302.36048,9.24518684 307.929318,9.24518684 L306.268296,25.5819316 C303.106736,19.8599381 297.947136,15.96173 291.046271,15.96173 C277.322109,15.96173 271.747922,30.7253265 271.747922,43.4118339 C271.747922,57.1755479 279.485986,64.7186606 289.797161,64.7186606 C295.371348,64.7186606 300.276847,63.2255028 308.515088,57.5061757 C305.187695,68.1235933 297.449631,74.5068424 284.725827,74.5068424 M227.330961,17.041603 C225.750181,17.041603 223.832382,17.041603 222.33987,17.2069168 C221.839691,19.942595 221.422428,24.6700388 220.839332,32.2958083 L220.504988,36.7779477 C221.342186,36.945928 222.420112,37.0312512 223.420469,37.0312512 C231.401935,37.0312512 236.89588,32.2158178 236.89588,24.9233424 C236.89588,19.942595 233.402651,17.041603 227.330961,17.041603 M250.53445,76 C245.794785,76 244.628593,75.2507549 243.050488,73.0936752 L225.081492,48.216602 C223.666547,46.3101596 222.585947,44.7343449 220.341828,44.7343449 L219.924567,44.7343449 L219.595573,49.5444458 C219.175636,56.095675 218.926883,61.3243932 218.926883,65.2199349 C219.009801,69.5314276 219.50998,72.1817825 220.676172,73.2616556 L203.290272,73.2616556 C205.783143,71.021919 206.695234,63.558797 208.112854,43.9877662 L208.364281,39.9269106 C209.030294,30.3093754 209.530473,22.843587 209.444882,17.6228679 C209.359289,13.060738 208.864459,10.2397365 207.612674,9.24518684 C217.511938,9.24518684 231.319019,9.24518684 231.319019,9.24518684 C239.054407,9.24518684 249.702601,10.575697 249.702601,23.0942243 C249.702601,33.373015 242.796386,39.0150178 234.231825,41.6653727 C235.063673,42.414618 236.558861,44.3210602 237.476301,45.4835902 L250.53445,62.7322276 C258.687099,73.4296358 259.350438,73.9255774 262.26592,75.4187351 C258.604182,75.8320198 253.698684,76 250.53445,76 M169.521505,24.2594205 L159.116713,46.5607968 L176.002434,46.5607968 L169.521505,24.2594205 M189.729271,73.8402541 C184.24335,73.8402541 183.826089,73.6776066 179.418094,58.5860487 L177.837316,53.0293691 C175.170585,54.2718895 170.430922,54.8531546 162.861369,54.8531546 L155.208898,54.8531546 L153.879545,57.6714897 C152.547517,60.6604714 149.303041,66.7984158 149.385958,70.3633298 C149.385958,71.1925656 149.468876,72.0218013 149.80322,73.2643218 L134.415361,73.2643218 C138.823356,68.8701722 144.397543,58.671372 152.132931,42.1693135 L156.626517,32.6344351 C160.700166,24.0114496 165.027919,14.2259342 165.027919,12.8154335 C165.027919,11.5675803 164.698925,10.4103831 164.19607,9.24785319 L178.174333,9.24785319 C178.174333,9.24785319 181.828047,23.0968905 185.075199,34.6208682 L187.819496,44.7396777 C192.561834,61.7403443 195.554884,70.0300358 199.548291,73.2643218 C195.972145,73.6776066 191.478559,73.8402541 189.729271,73.8402541 M110.537834,16.9589459 C109.288724,16.9589459 107.627702,16.9589459 106.046922,17.1269263 C105.380908,21.6037329 104.963647,25.9152256 104.634652,30.6400032 C104.634652,30.6400032 104.383225,34.7008587 104.383225,34.5355449 L106.046922,34.5355449 C114.199572,34.5355449 121.688883,31.7172098 121.688883,24.2594205 C121.688883,19.942595 118.110062,16.9589459 110.537834,16.9589459 M108.462225,42.3319609 L103.888396,42.3319609 L103.222382,51.7841822 C102.890712,55.9330275 102.722203,59.4126181 102.639286,63.558797 C102.639286,64.1427283 104.468817,65.3852488 108.791219,65.3852488 C117.775718,65.3852488 123.684249,60.9084421 123.684249,53.5253108 C123.684249,45.31561 116.943869,42.3319609 108.462225,42.3319609 M109.459908,73.2616556 L87,73.2616556 C89.8298896,70.7712819 90.5788207,61.0710897 91.825256,43.9877662 L92.074008,40.0095675 C92.7426965,30.306709 93.2402007,22.843587 93.1572834,17.6228679 C93.074366,13.1433949 92.5741869,10.2397365 91.325077,9.24518684 L116.446365,9.24518684 C122.435139,9.24518684 134.415361,9.57848096 134.415361,22.0143512 C134.415361,30.306709 126.677298,35.4474376 119.607924,37.2765557 C129.590105,38.2711053 137.076741,43.0785398 137.076741,53.3599968 C137.074067,64.4706897 126.594381,73.2616556 109.459908,73.2616556" id="path21" fill="#00AEEF"></path>
            <path d="M36.5996676,0.00535270506 C34.3557901,0.00535270506 33.8919117,0.39342382 33.1637302,1.19900593 C32.8778516,1.18027146 32.5784881,1.17491875 32.2656399,1.17491875 C30.5395802,1.17491875 28.3226723,1.42649589 26.4320977,2.68170522 C24.6062502,3.8780348 23.7378264,5.99502964 24.7114319,7.54463774 C24.7114319,7.54463774 25.3640982,6.5945326 27.5108849,6.5945326 C27.8129454,6.5945326 28.1473695,6.62664883 28.5033692,6.65608871 C31.4700342,7.00401454 33.6653663,8.55362264 33.3983665,12.6457656 C33.1610332,16.7352322 31.6156704,21.295737 25.2939771,21.349264 C25.2939771,21.349264 24.4794927,21.349264 23.6110688,21.2689734 C20.6686766,20.9504875 19.7436165,19.1171861 19.7436165,19.1171861 C19.7436165,19.1171861 22.2868576,18.4320398 22.3084333,15.2284458 C22.2868576,13.0498949 20.3747071,11.0560122 17.6157086,10.2504301 C16.7122242,9.98814758 15.71974,9.85968266 14.6868011,9.85968266 C11.4342575,9.85968266 7.78256254,11.2112407 5.32023058,14.4014529 C-0.262493578,21.7159242 -0.715584235,32.3785128 0.646384704,42.2943989 C2.01644455,52.2316957 8.36780464,61.4356719 8.55389545,61.6872492 C8.68874386,61.8638883 8.81010743,61.960237 8.9476528,61.960237 C9.01777398,61.960237 9.09059212,61.9281208 9.16610723,61.8665647 C11.9089239,59.2250048 14.524983,55.6146053 15.6442248,53.2005353 C16.8416787,54.147964 16.2159822,56.1632575 15.5579219,58.3150449 C14.9322252,60.5150067 13.4111352,63.4349073 12.8609537,64.3769834 C12.3296509,65.2976487 11.6176513,66.3681896 12.575075,66.9275474 C12.6721659,66.9864271 12.7962264,67.0185433 12.9445597,67.0185433 C14.1743772,67.0185433 17.0682241,64.8908431 20.296495,60.6193845 C23.9104324,55.8126554 25.7443707,51.5465494 25.7443707,51.5465494 C26.0086736,51.6054292 26.4509764,52.0497037 26.3781583,53.259415 C26.3296128,54.4878609 25.0566438,59.0590709 22.5781301,63.3144715 C20.0726466,67.5671955 17.758648,70.22749 17.2920723,70.8323457 C17.0034968,71.1829478 17.2489209,71.4024087 17.4350117,71.5442555 C17.6184056,71.6673677 22.0495243,75.7728924 28.4871874,79.2414453 C36.1142135,83.2747084 39.4962116,84 39.4962116,84 C39.4962116,84 42.8701187,83.293443 50.4971448,79.2628561 C56.9321109,75.7889505 61.3821085,71.6646913 61.5466234,71.5255209 C61.7327143,71.3997323 61.9700475,71.2016824 61.6895628,70.8162875 C61.2499569,70.2381954 58.9278674,67.5645193 56.4277778,63.3117951 C53.9573551,59.0858345 52.6358406,54.4851845 52.6169618,53.2727968 C52.5657194,52.0497037 52.9810526,51.6455745 53.2345675,51.5438731 C53.2345675,51.5438731 55.0873847,55.8367426 58.7013221,60.6167081 C61.9457748,64.8935195 64.812652,67.0158669 66.0478635,67.0158669 C66.2042876,67.0158669 66.3283481,66.9837507 66.430833,66.924871 C67.3585899,66.3655134 66.6681661,65.2789141 66.1233785,64.3689544 C65.6163486,63.4322309 64.0736828,60.5310648 63.4183195,58.3123685 C62.7899259,56.136494 62.1372596,54.1238768 63.3562892,53.1978589 C64.478228,55.6119289 67.0754083,59.2410628 69.8263158,61.845154 C69.8991339,61.9200918 69.9827401,61.9575608 70.063649,61.9575608 C70.1850126,61.9575608 70.3144671,61.8638883 70.4277398,61.7006309 C70.6300124,61.4329956 76.9921604,52.2450775 78.3514323,42.2917225 C79.7160983,32.3544256 79.2657045,21.7159242 73.6775864,14.3987765 C71.2314362,11.2005353 67.5527717,9.84094819 64.2786523,9.84094819 C63.2565014,9.84094819 62.2801989,9.97208947 61.3875023,10.226343 C58.6069282,11.0560122 56.7028686,13.0686293 56.7190505,15.2257695 C56.7190505,18.4293634 59.2757762,19.1145097 59.2757762,19.1145097 C59.2757762,19.1145097 58.4208374,20.9023132 55.3732633,21.2662971 C54.804203,21.3358822 54.2513246,21.3679985 53.7227188,21.3679985 C51.4302957,21.3679985 49.4992666,20.6453833 47.7192675,18.1510228 C45.9932079,15.7503346 46.0498442,10.8071115 45.9500565,9.15847831 C45.8718444,7.48575798 45.5104506,3.73351176 43.7385425,2.20263812 C41.9720283,0.631619193 39.8198477,0.104377747 37.1363644,0 C36.9394857,0.00535270506 36.7641827,0.00535270506 36.5996676,0.00535270506" id="path4050" fill="#00AFE9"></path>
        </g>
    </g>
</svg>