<svg xmlns="http://www.w3.org/2000/svg" xmlns:xlink="http://www.w3.org/1999/xlink" viewBox="0 0 581.68 158.94"><defs><style>.cls-1,.cls-2{fill:#2c2f33;}.cls-1,.cls-3,.cls-4,.cls-5{fill-rule:evenodd;}.cls-3{fill:url(#Sunrise);}.cls-4{fill:url(#Sunrise-2);}.cls-5{fill:url(#Sunrise-3);}</style><linearGradient id="Sunrise" x1="73.6" y1="12.19" x2="619.56" y2="12.19" gradientUnits="userSpaceOnUse"><stop offset="0" stop-color="#f68c21"/><stop offset="1" stop-color="#f16324"/></linearGradient><linearGradient id="Sunrise-2" x1="73.6" y1="146.75" x2="619.56" y2="146.75" xlink:href="#Sunrise"/><linearGradient id="Sunrise-3" x1="73.6" y1="79.22" x2="619.56" y2="79.22" xlink:href="#Sunrise"/></defs><title>18_Criteo_Brand_Logo</title><g id="Layer_2" data-name="Layer 2"><g id="Layer_1-2" data-name="Layer 1"><path class="cls-1" d="M117.52,157.79H101.68V63.42h15.84V75c5.61-8,15-12.6,26-12.6a44.27,44.27,0,0,1,5.65.37l1.16.16V79.82l-1.68-.42a37.23,37.23,0,0,0-8.48-.84c-13.3,0-22.6,9.8-22.6,23.84Z"/><path class="cls-1" d="M301.29,157.63c15.6,0,26.86-4.85,36.52-15.71l.83-.93-10.12-10.43-1,1c-7.16,7.6-13.75,12-26.26,12-17.57,0-29.06-11.3-30.25-29.59h71.25l.09-1.26c.17-2.63.17-5.54.17-5.67,0-12.86-4-24.62-11.22-33.11-7.64-9-18.15-13.73-30.39-13.73-27,0-45.81,20.55-45.81,50v.7C255.13,138.85,273.68,157.63,301.29,157.63ZM272,100c1.58-13.8,14.27-24.79,29-24.79,13.66,0,24.85,11,25.53,24.79Z"/><rect class="cls-2" x="165.7" y="63.42" width="15.84" height="94.38"/><path class="cls-1" d="M235.8,158.94c-4.85,0-12-.5-17.67-4.83-6.18-4.68-9.32-12.89-9.32-24.38V41.5h15.84V63.35h20.6V78.29h-20.6v51.44c0,11.88,4.2,14.26,11,14.26a46.16,46.16,0,0,0,8.07-.52l1.56-.25v14.55l-1,.25A33.15,33.15,0,0,1,235.8,158.94Z"/><path class="cls-1" d="M401,158.94a47.8,47.8,0,0,0,34.12-14,49.55,49.55,0,0,0,14.21-35.39,49.55,49.55,0,0,0-14.21-35.39,48.64,48.64,0,0,0-68.23,0,49.54,49.54,0,0,0-14.2,35.39A49.54,49.54,0,0,0,366.91,145,47.81,47.81,0,0,0,401,158.94Zm0-83.78A31.53,31.53,0,0,1,424.28,85c5.94,6.32,9.22,15.07,9.22,24.62s-3.28,18.29-9.22,24.61a32.49,32.49,0,0,1-46.51,0c-5.94-6.32-9.22-15.06-9.22-24.61s3.28-18.3,9.22-24.62A31.52,31.52,0,0,1,401,75.16Z"/><path class="cls-1" d="M48.65,158.94a48.32,48.32,0,0,1-34.38-14A49.42,49.42,0,0,1,0,109.58,49.4,49.4,0,0,1,14.27,74.19a48.33,48.33,0,0,1,34.38-14c13.8,0,25.77,4.81,34.61,13.92l.85.88L74.42,86.49l-1-1.09C67,78.7,58.47,75.16,48.65,75.16A32,32,0,0,0,25.15,85c-6,6.32-9.31,15.06-9.31,24.61s3.31,18.28,9.31,24.6A32,32,0,0,0,48.65,144c9.82,0,18.37-3.54,24.73-10.23l1-1.1,9.69,11.48-.85.88C74.42,154.13,62.46,158.94,48.65,158.94Z"/><path class="cls-3" d="M173.63,24.37a12.19,12.19,0,1,1,12.1-12.18A12.17,12.17,0,0,1,173.63,24.37Z"/><path class="cls-4" d="M569.58,158.94a12.19,12.19,0,1,1,12.1-12.2A12.17,12.17,0,0,1,569.58,158.94Z"/><path class="cls-5" d="M535.12,141h-32.2a15.08,15.08,0,0,1-15.07-15.08V31.15A24.68,24.68,0,0,0,463.18,6.48H208.29v11H461.81a15.07,15.07,0,0,1,15.07,15.07v94.77A24.68,24.68,0,0,0,501.55,152h33.57Z"/></g></g></svg>