<svg width="177" height="32" viewBox="0 0 177 32" xmlns="http://www.w3.org/2000/svg" fill-rule="evenodd"
  clip-rule="evenodd" stroke-linejoin="round" stroke-miterlimit="2">
  <path
    d="M14.4.7L9.093 8.433 3.788.701H.752v16.35h3.175V6.283l5.167 7.218 5.166-7.218v10.768h3.175V.701h-3.036zm11.599 16.678c3.081 0 4.981-1.822 5.653-3.363l-2.757-.818c-.464.888-1.367 1.565-2.85 1.565-2.132 0-3.198-1.168-3.406-2.686h9.106c.07-.374.07-.724.07-1.098 0-3.387-2.202-6.073-6.048-6.073-3.684 0-6.14 2.71-6.14 6.237 0 3.737 2.618 6.236 6.372 6.236zm-3.36-7.24c.162-1.356 1.32-2.617 3.105-2.617 1.83 0 2.942 1.168 3.081 2.616H22.64zM37.09 6.983V5.232h-3.059v11.82h3.059v-5.14c0-3.176 1.367-4.344 3.87-3.947V5.069c-1.831-.257-3.175.537-3.87 1.915zm10.622 10.394c3.22 0 5.236-2.055 5.7-3.854l-2.85-.794c-.255.98-1.344 1.892-2.873 1.892-1.947 0-3.198-1.659-3.198-3.504 0-1.868 1.251-3.48 3.198-3.48 1.529 0 2.618.981 2.873 1.962l2.85-.818c-.464-1.775-2.48-3.877-5.723-3.877-3.569 0-6.21 2.686-6.21 6.213 0 3.55 2.641 6.26 6.233 6.26zm13.487 0c3.081 0 4.981-1.822 5.653-3.363l-2.757-.818c-.463.888-1.367 1.565-2.85 1.565-2.132 0-3.197-1.168-3.406-2.686h9.106c.07-.374.07-.724.07-1.098 0-3.387-2.202-6.073-6.048-6.073-3.684 0-6.14 2.71-6.14 6.237 0 3.737 2.618 6.236 6.372 6.236zm-3.36-7.24c.162-1.356 1.32-2.617 3.105-2.617 1.83 0 2.942 1.168 3.081 2.616H57.84zM78.085 0v6.657c-.835-1.075-2.132-1.752-3.778-1.752-3.243 0-5.793 2.64-5.793 6.237 0 3.573 2.55 6.236 5.793 6.236 1.646 0 2.943-.7 3.778-1.775v1.448h3.081V0h-3.081zM74.84 14.622c-1.923 0-3.29-1.448-3.29-3.504 0-2.032 1.367-3.457 3.29-3.457 1.852 0 3.336 1.425 3.336 3.457 0 2.056-1.484 3.504-3.336 3.504zm14.887 2.756c3.082 0 4.982-1.822 5.653-3.363l-2.757-.818c-.463.888-1.367 1.565-2.85 1.565-2.131 0-3.197-1.168-3.406-2.686h9.106c.07-.374.07-.724.07-1.098 0-3.387-2.201-6.073-6.048-6.073-3.684 0-6.14 2.71-6.14 6.237 0 3.737 2.618 6.236 6.372 6.236zm-3.36-7.24c.163-1.356 1.321-2.617 3.105-2.617 1.83 0 2.943 1.168 3.082 2.616h-6.187zm16.004 7.24c2.989 0 5.074-1.635 5.074-3.854 0-2.125-1.53-2.85-3.29-3.363l-2.92-.841c-.648-.187-.973-.467-.973-.935 0-.56.719-1.074 1.669-1.074 1.228 0 2.085.63 2.502 1.378l2.71-.794c-.74-1.775-2.664-2.99-5.19-2.99-2.571 0-4.703 1.565-4.703 3.55 0 1.682 1.228 2.663 2.896 3.154l2.99.887c.857.257 1.297.584 1.297 1.168 0 .654-.765 1.215-1.946 1.215-1.553 0-2.665-.841-3.059-1.962l-2.757.817c.58 1.916 2.804 3.644 5.7 3.644zm6.856-6.213h8.457V8.619h-8.457v2.546zm22.344-2.686c1.251-.678 2.016-1.845 2.016-3.41C133.565 2.476 131.41.7 128.236.7h-7.74v16.35h8.18c3.452 0 5.514-1.822 5.514-4.625 0-1.845-1.02-3.223-2.618-3.947zm-3.36-5.022c1.344-.023 2.248.84 2.248 1.985.023 1.121-.857 2.056-2.178 2.056h-4.68V3.457h4.61zm.44 10.815h-5.05V10.02h5.074c1.506 0 2.363.935 2.363 2.103 0 1.19-.88 2.149-2.386 2.149zm13.448 3.106c3.082 0 4.982-1.822 5.654-3.363l-2.758-.818c-.463.888-1.367 1.565-2.85 1.565-2.131 0-3.197-1.168-3.405-2.686h9.105c.07-.374.07-.724.07-1.098 0-3.387-2.201-6.073-6.047-6.073-3.685 0-6.14 2.71-6.14 6.237 0 3.737 2.618 6.236 6.371 6.236zm-3.36-7.24c.163-1.356 1.321-2.617 3.105-2.617 1.83 0 2.943 1.168 3.082 2.616h-6.186zm18.23-5.233c-1.692 0-2.966.77-3.777 1.822V5.232h-3.059v11.82h3.059v-5.84c0-2.08 1.112-3.434 2.826-3.434 1.692 0 2.503 1.145 2.503 2.943v6.33h3.058v-6.914c0-3.153-1.552-5.232-4.61-5.232zm10.803 9.577l6.186-7.288V5.232h-10.125v2.546h6.07l-6.21 7.311v1.962h10.473v-2.57h-6.394zM0 30.262h.667v-2.786h1.56c1.108 0 1.117.637 1.178 1.424.052.76.043 1.048.173 1.353h.754c-.2-.376-.19-.628-.26-1.572-.052-.777-.174-1.293-.814-1.494.528-.165.953-.742.953-1.414 0-.987-.65-1.65-1.776-1.643L0 24.14v6.122zm.667-3.38l.009-2.148h1.663c.753 0 1.222.357 1.222 1.074 0 .663-.529 1.074-1.222 1.074H.667zm6.628 3.468c.997 0 1.716-.63 1.837-1.494h-.624c-.156.585-.693.89-1.196.89-.823 0-1.342-.575-1.342-1.492v-.01H9.2c.035-1.388-.667-2.41-1.915-2.41-1.23 0-2 .935-2 2.27 0 1.372.814 2.246 2.01 2.246zm-1.3-2.69c.078-.726.52-1.232 1.274-1.232.78 0 1.153.506 1.23 1.232H5.996zm5.811 2.69c.961 0 1.628-.568 1.628-1.329 0-.742-.44-1.126-1.654-1.3-.623-.097-.996-.306-.996-.7 0-.383.398-.628.883-.628.546 0 1.006.236 1.05.9h.623c-.017-1.04-.815-1.485-1.699-1.485-.883 0-1.516.55-1.516 1.214 0 .611.399 1.074 1.663 1.283.711.114.98.315.98.7 0 .392-.269.768-.936.768-.615 0-1.109-.306-1.178-.917h-.659c.053.995.884 1.494 1.811 1.494zm4.429 0c.996 0 1.715-.63 1.836-1.494h-.623c-.156.585-.693.89-1.196.89-.823 0-1.343-.575-1.343-1.492v-.01h3.232c.034-1.388-.667-2.41-1.915-2.41-1.23 0-2 .935-2 2.27 0 1.372.813 2.246 2.009 2.246zm-1.3-2.69c.078-.726.52-1.232 1.274-1.232.78 0 1.152.506 1.23 1.232h-2.504zm5.507 2.68c.65 0 1.135-.296 1.438-.698v.611h.667V27.25c0-.856-.59-1.467-1.637-1.467-1.013 0-1.681.594-1.768 1.449l.685-.008c.07-.49.441-.847 1.1-.847.53 0 .953.253.953.699 0 .497-.77.567-1.325.619-.494.044-.884.157-1.17.385-.268.218-.407.568-.407.942 0 .84.693 1.32 1.464 1.32zm.086-.602c-.44-.009-.857-.27-.857-.742 0-.437.33-.708 1.04-.769.606-.053.987-.148 1.17-.315v.585c-.01.892-.78 1.25-1.353 1.241zm3.38.515h.64v-2.436c0-1.057.633-1.354 1.378-1.328l.06-.009v-.655l-.077-.009c-.91-.043-1.265.437-1.36.664v-.594h-.642v4.367zm4.597.061c.97 0 1.725-.646 1.836-1.536h-.657a1.151 1.151 0 01-1.153.934c-.77 0-1.309-.655-1.309-1.651 0-1.022.547-1.677 1.318-1.677.571 0 1.03.402 1.144.926h.657c-.111-.882-.857-1.511-1.8-1.511-1.18 0-2.012.908-2.012 2.27 0 1.337.842 2.245 1.976 2.245zm2.98-.06h.65v-2.35c.008-.952.51-1.546 1.247-1.546.606 0 1.031.515 1.031 1.258v2.637h.684v-2.68c0-1.224-.77-1.8-1.612-1.8-.657 0-1.143.375-1.35.707v-2.34h-.65v6.113zm9.414.121c.711 0 1.317-.296 1.776-.899l.762.777h.91l-1.317-1.319.676-1.187h-.788l-.39.69-1.394-1.398c.674-.297 1.238-.934 1.238-1.616 0-.794-.641-1.388-1.447-1.388-.85 0-1.499.638-1.499 1.441 0 .629.425 1.135.685 1.432-.78.48-1.135 1.065-1.135 1.8 0 .968.849 1.667 1.923 1.667zm-.217-3.807c-.346-.35-.588-.708-.588-1.153 0-.42.372-.778.831-.778.46 0 .806.359.806.786 0 .454-.46.91-1.049 1.145zm.2 3.144c-.684 0-1.247-.437-1.247-1.084 0-.488.31-.908.917-1.248l1.63 1.607c-.355.48-.78.725-1.3.725zm7.324.558l2.296-.017c1.611 0 2.694-1.257 2.694-3.1 0-1.8-1.117-3.04-2.78-3.03l-2.21.017v6.13zm.658-.655v-4.803l1.543-.017c1.265-.018 2.114.943 2.114 2.392 0 1.441-.866 2.402-2.158 2.411l-1.499.017zm7.264.735c.996 0 1.715-.63 1.836-1.494h-.624c-.156.585-.693.89-1.195.89-.823 0-1.343-.575-1.343-1.492v-.01h3.232c.035-1.388-.667-2.41-1.915-2.41-1.23 0-2.001.935-2.001 2.27 0 1.372.814 2.246 2.01 2.246zm-1.3-2.69c.079-.726.52-1.232 1.273-1.232.78 0 1.153.506 1.231 1.232h-2.504zm5.472 2.593h.693l1.707-4.367h-.719l-1.334 3.564-1.334-3.564h-.702l1.69 4.367zm4.902.097c.996 0 1.716-.63 1.838-1.494h-.625c-.155.585-.693.89-1.195.89-.823 0-1.344-.575-1.344-1.492v-.01h3.232c.035-1.388-.667-2.41-1.914-2.41-1.23 0-2.002.935-2.002 2.27 0 1.372.815 2.246 2.01 2.246zm-1.3-2.69c.08-.726.52-1.232 1.275-1.232.78 0 1.151.506 1.23 1.232h-2.504zm4.346 2.593h.676V24.14h-.676v6.113zm3.864.044c1.17 0 2.036-.926 2.036-2.227 0-1.32-.814-2.245-2.036-2.245-1.178 0-2.044.926-2.044 2.245 0 1.3.866 2.227 2.044 2.227zm-.017-.62c-.823 0-1.37-.673-1.37-1.607 0-.944.556-1.625 1.387-1.625.892 0 1.395.69 1.395 1.642 0 .926-.554 1.59-1.412 1.59zM75.285 32h.632v-2.49c.26.438.806.787 1.482.787 1.056 0 1.932-.873 1.932-2.254 0-1.388-.91-2.253-1.959-2.253-.667 0-1.239.385-1.455.795v-.699h-.632V32zm2.018-2.324c-.84 0-1.403-.698-1.403-1.667 0-.926.563-1.59 1.403-1.59.806 0 1.335.69 1.335 1.65 0 .935-.53 1.607-1.335 1.607zm3.166.577h.65v-2.349c.009-.952.529-1.546 1.213-1.546.606 0 1.031.463 1.031 1.258v2.637h.684v-2.349c.01-.952.53-1.546 1.213-1.546.607 0 1.03.463 1.03 1.258v2.637h.686v-2.68c0-1.224-.78-1.8-1.603-1.8-.736 0-1.256.402-1.525.882a1.543 1.543 0 00-1.412-.882 1.55 1.55 0 00-1.317.707v-.594h-.65v4.367zm9.616.097c.996 0 1.715-.63 1.836-1.494h-.623c-.157.585-.694.89-1.196.89-.823 0-1.343-.575-1.343-1.492v-.01h3.232c.035-1.388-.667-2.41-1.914-2.41-1.231 0-2.002.935-2.002 2.27 0 1.372.814 2.246 2.01 2.246zm-1.3-2.69c.079-.726.52-1.232 1.273-1.232.78 0 1.153.506 1.231 1.232h-2.504zm4.346 2.593h.65v-2.349c.009-.952.563-1.546 1.248-1.546.606 0 1.03.463 1.03 1.258v2.637h.684v-2.68c0-1.224-.77-1.8-1.61-1.8-.66 0-1.144.375-1.352.707v-.594h-.65v4.367zm6.116 0h.615v-.611h-.52c-.355 0-.537-.175-.537-.611v-2.56h1.048v-.585h-1.048v-1.283h-.65v1.283h-.658v.585h.658v2.656c0 .699.442 1.126 1.092 1.126zm7.965.01h.84v-6.114h-.65v5.153l-3.231-5.162h-.806v6.113h.65v-5.1l3.197 5.11zm4.11.034c1.169 0 2.035-.926 2.035-2.227 0-1.32-.814-2.245-2.036-2.245-1.178 0-2.045.926-2.045 2.245 0 1.3.867 2.227 2.045 2.227zm-.018-.62c-.823 0-1.369-.673-1.369-1.607 0-.944.554-1.625 1.386-1.625.893 0 1.396.69 1.396 1.642 0 .926-.555 1.59-1.413 1.59zm3.19.576h.641v-2.436c0-1.057.632-1.354 1.378-1.328l.06-.009v-.655l-.078-.009c-.91-.043-1.265.437-1.36.664v-.594h-.641v4.367zm4.28 0h.615v-.611h-.52c-.355 0-.537-.175-.537-.611v-2.56h1.049v-.585h-1.05v-1.283h-.649v1.283h-.659v.585h.66v2.656c0 .699.441 1.126 1.091 1.126zm1.58 0h.65v-2.349c.009-.952.51-1.546 1.247-1.546.606 0 1.031.515 1.031 1.258v2.637h.684v-2.68c0-1.224-.77-1.8-1.61-1.8-.66 0-1.145.375-1.353.707v-2.34h-.65v6.113zm7.755 0l.606-1.65h2.608l.624 1.65h.762l-2.33-6.113h-.719l-2.314 6.104.763.01zm.823-2.305l1.092-3.013 1.09 3.013h-2.182zm4.826 2.305h.65v-2.349c.009-.952.529-1.546 1.213-1.546.606 0 1.031.463 1.031 1.258v2.637h.684v-2.349c.01-.952.53-1.546 1.213-1.546.607 0 1.032.463 1.032 1.258v2.637h.684v-2.68c0-1.224-.78-1.8-1.603-1.8-.736 0-1.256.402-1.525.882a1.543 1.543 0 00-1.412-.882c-.658 0-1.109.375-1.317.707v-.594h-.65v4.367zm9.617.097c.996 0 1.714-.63 1.836-1.494h-.624c-.156.585-.693.89-1.195.89-.823 0-1.343-.575-1.343-1.492v-.01h3.232c.034-1.388-.668-2.41-1.915-2.41-1.23 0-2.002.935-2.002 2.27 0 1.372.815 2.246 2.01 2.246zm-1.3-2.69c.078-.726.52-1.232 1.273-1.232.78 0 1.153.506 1.23 1.232h-2.503zm4.346 2.593h.64v-2.436c0-1.057.633-1.354 1.378-1.328l.061-.009v-.655l-.078-.009c-.91-.043-1.265.437-1.36.664v-.594h-.641v4.367zm2.967-5.284h.753v-.83h-.753v.83zm.043 5.284h.667v-4.367h-.667v4.367zm3.785.061c.97 0 1.724-.646 1.837-1.536h-.659a1.151 1.151 0 01-1.152.934c-.77 0-1.308-.655-1.308-1.651 0-1.022.545-1.677 1.317-1.677.571 0 1.03.402 1.143.926h.66c-.114-.882-.86-1.511-1.803-1.511-1.179 0-2.01.908-2.01 2.27 0 1.337.84 2.245 1.975 2.245zm4.141.027a1.75 1.75 0 001.438-.7v.612h.667V27.25c0-.856-.589-1.467-1.637-1.467-1.014 0-1.68.594-1.767 1.449l.684-.008c.07-.49.442-.847 1.1-.847.529 0 .953.253.953.699 0 .497-.771.567-1.326.619-.494.044-.884.157-1.17.385-.268.218-.407.568-.407.942 0 .84.693 1.32 1.465 1.32zm.087-.603c-.442-.009-.859-.27-.859-.742 0-.437.33-.708 1.04-.769.607-.053.988-.148 1.17-.315v.585c-.008.892-.78 1.25-1.351 1.241zm2.867 1.406c.467 0 .797-.297.797-.89v-.891h-.831v.89h.433c.017.297-.13.471-.4.48v.41zm4.344-.89h.684V24.14h-.684v6.113zm2.253 0h.65v-2.35c.009-.952.563-1.546 1.248-1.546.607 0 1.03.463 1.03 1.258v2.637h.685v-2.68c0-1.224-.77-1.8-1.611-1.8-.659 0-1.143.375-1.352.707v-.594h-.65v4.367zm6.688.06c.97 0 1.724-.646 1.837-1.536h-.66a1.15 1.15 0 01-1.152.934c-.77 0-1.307-.655-1.307-1.651 0-1.022.546-1.677 1.317-1.677.572 0 1.03.402 1.143.926h.659c-.113-.882-.859-1.511-1.802-1.511-1.18 0-2.01.908-2.01 2.27 0 1.337.84 2.245 1.975 2.245zm2.572-.06H177v-.891h-.832v.89z"
    fill="#000" fill-rule="nonzero" /></svg>
