<svg viewBox="0 0 229 48" fill="none" xmlns="http://www.w3.org/2000/svg"><g clip-path="url(#clip0)" fill-rule="evenodd" clip-rule="evenodd" fill="#000"><path d="M23.99 23.377l1.1-.612 13.22 9.058-14.32-8.446zm-.735-.489l-.98-.49 1.102-17.257-.122 17.747zm-1.102 0l-4.406 3.55 5.263-3.06-.857-.49z"/><path d="M23.5 0C10.526 0 0 10.526 0 23.5S10.526 47 23.5 47 47 36.474 47 23.5C47.121 10.526 36.596 0 23.5 0zm-1.96 21.909L23.5 2.325h.122l.245 20.563 3.305-1.959-3.428-18.604c11.628.123 21.052 9.547 21.052 21.175 0 3.794-.979 7.221-2.692 10.28L27.416 21.42l-1.346.734 16.034 11.75c0 .123-.123.123-.123.245L23.99 23.744v3.672l17.87 6.854c-3.672 6.12-10.526 10.282-18.237 10.282-7.71 0-14.442-4.162-18.237-10.282l17.87-6.731v-3.672L5.263 34.148c0-.122-.122-.122-.122-.245l15.91-11.627-1.345-.735-14.688 12.24C3.305 30.72 2.325 27.294 2.325 23.5c0-11.505 9.18-20.93 20.685-21.175l-2.815 18.727 1.346.857zm105.505 3.181c0-4.16-1.835-7.465-5.874-7.465-3.672 0-5.875 3.304-5.875 7.466 0 4.161 1.713 7.466 5.875 7.466 3.916 0 5.14-1.958 5.752-5.14h-1.346c-.123 1.1-.857 3.794-3.795 3.794-3.304.122-3.549-4.162-3.427-6.242v-1.102c0-1.224-.122-5.018 2.938-5.018 2.448 0 2.815 3.182 2.815 5.018h-5.753v1.101h8.69v.123zM58.26 12.484v.98h.857c.611 0 1.468 0 1.468.856l-.245 15.79c0 .611-.244 1.223-1.468 1.223h-.857v.98h5.875v-.98h-.98c-.734 0-1.223-.245-1.223-1.224l.245-15.055 6.242 16.279h.612l6.364-16.4.245 15.298c0 .49-.49 1.224-1.346 1.224h-1.224v.98h7.343v-.98h-.856c-.612 0-1.347-.367-1.347-1.101L77.72 14.81c0-.49.612-1.102 1.102-1.102h1.102v-.979H74.66l-5.508 14.32-5.508-14.565H58.26zM99.14 32.19v-.735h-.612c-.49 0-1.47-.122-1.47-1.224v-7.588c0-2.326 1.225-3.305 2.449-3.305.49 0 .734.245.612 1.102-.123.857.612 1.469 1.224 1.346.612 0 1.468-.122 1.346-1.836-.122-1.59-1.102-2.325-2.693-2.325-1.224 0-2.325.857-2.57 1.224-.367.49-.734.244-.857-.245 0-.49-.245-1.102-.856-.857-1.224.367-2.448.612-3.428.612v.612c2.448-.122 2.204 1.102 2.204 1.714v9.546c0 1.102-.98 1.224-1.47 1.224h-.856v.735h6.977zm12.973-13.586c-.856-.612-1.958-.98-3.304-.98-3.672 0-5.875 3.305-5.875 7.467 0 4.161 1.713 7.466 5.875 7.466 3.549 0 4.528-1.958 5.14-5.14h-1.346c-.122 1.1-.49 3.794-3.182 3.916-3.305.122-3.55-4.161-3.427-6.242 0-1.224.122-6.365 2.937-6.365 2.326 0 3.794 1.714 3.794 3.55h.735V17.38h-.612l-.735 1.224zm84.085 12.729c-3.304.122-3.549-4.161-3.427-6.242h8.69c0-4.162-1.836-7.466-5.875-7.466-3.672 0-5.875 3.304-5.875 7.466 0 4.161 1.714 7.466 5.875 7.466 3.917 0 5.141-1.958 5.753-5.14h-1.347c-.122 1.223-.856 3.916-3.794 3.916zm-.489-12.484c2.448 0 2.815 3.182 2.815 5.018h-5.753c0-1.224-.122-5.018 2.938-5.018zm-47.367 12.484c-3.305.122-3.549-4.161-3.427-6.242h8.69c0-4.162-1.836-7.466-5.875-7.466-3.672 0-5.875 3.304-5.875 7.466 0 4.161 1.714 7.466 5.875 7.466 3.917 0 5.141-1.958 5.753-5.14h-1.347c-.122 1.223-.856 3.916-3.794 3.916zm-.367-12.484c2.448 0 2.815 3.182 2.815 5.018h-5.753c-.122-1.224-.244-5.018 2.938-5.018zm-61.32 12.484c-3.304.122-3.55-4.161-3.427-6.242h8.69c0-4.162-1.836-7.466-5.875-7.466-3.672 0-5.875 3.304-5.875 7.466 0 4.161 1.714 7.466 5.875 7.466 3.917 0 5.14-1.958 5.753-5.14h-1.347c-.122 1.223-.856 3.916-3.794 3.916zm-.367-12.484c2.448 0 2.815 3.182 2.815 5.018h-5.875c0-1.224-.122-5.018 3.06-5.018zm53.364 10.281V12.974c0-.612-.367-1.224-.979-1.102-1.224.367-2.448.612-3.427.612v.612c1.713-.122 1.836.367 1.836.98v5.017c-.735-.734-1.591-1.346-3.182-1.346-1.959 0-5.631 1.591-5.631 7.1 0 7.22 4.284 7.71 5.508 7.71 1.224 0 2.938-1.102 3.305-1.591 0-.123.245-.245.245 0 0 .49.489 1.346.979 1.101 1.224-.367 2.448-.612 3.427-.612v-.612c-2.326.123-2.081-1.101-2.081-1.713zm-2.448-1.714c0 3.183-1.713 4.162-3.182 4.162-3.182 0-2.938-4.774-2.938-6.854 0-2.081.123-5.998 2.938-5.753 2.815.367 3.06 3.427 3.06 5.14v3.305h.122zm36.596-3.549V22.52h-7.711v1.346h7.711zm-18.237 3.427v4.896h.612l.612-1.224c.612.49 1.836 1.346 3.427 1.346s3.795-.857 4.651-2.448c.857-1.59.49-4.284-1.468-5.14-1.714-.735-3.305-1.591-4.407-2.203-.979-.49-1.101-1.347-1.101-1.959.122-.979.979-1.958 2.815-1.958 1.836 0 2.815 1.469 3.06 3.305h.612v-4.651h-.612l-.612 1.101c-1.224-.857-1.714-.979-2.815-.979-1.102 0-2.938.612-4.039 2.203-1.102 1.591-.735 4.162 1.713 5.263a106.934 106.934 0 014.406 2.08c.735.368 1.102 1.714.612 2.571-.489.857-1.346 1.714-2.692 1.714-1.347 0-3.55-.98-4.162-3.917h-.612zm29.13-5.753c1.347-.367 2.815-2.815 2.815-4.528 0-1.714-.612-4.529-4.651-4.529h-8.69v.735c.857 0 2.326.122 2.326 1.59v14.32c0 .858 0 2.204-2.326 2.204v.857h7.099c2.203 0 7.099-.123 7.221-5.875 0-1.959-.979-4.162-3.794-4.774zm-5.752-8.078h2.937c2.203 0 3.06 1.592 3.06 3.55 0 2.448-.734 4.406-3.06 4.406h-2.937v-7.956zm2.937 17.748h-2.937v-8.935h3.304c1.959 0 3.55 1.346 3.55 4.284.122 2.937-1.714 4.65-3.917 4.65zm30.354-9.547v8.567c0 1.102-.979 1.224-1.469 1.224h-.367v.735h6.365v-.735h-.612c-.49 0-1.469-.122-1.469-1.224v-8.567c0-3.917-3.55-4.04-4.774-4.04-1.223 0-2.692.858-2.937 1.225-.367.49-.734.244-.857-.245 0-.49-.245-1.102-.857-.857-1.223.367-2.447.612-3.427.612v.612c2.448-.122 2.204 1.102 2.204 1.714v9.546c0 1.102-.98 1.224-1.469 1.224h-.857v.735h6.854v-.735h-.612c-.489 0-1.469-.122-1.469-1.224v-7.588c0-1.224.49-3.305 2.816-3.427 2.447-.245 2.937 1.346 2.937 2.448zm5.875.245l1.101-3.917h9.914l-8.445 13.463h4.529c1.101 0 1.836-.367 2.937-3.06h.49l-.979 3.917h-10.159l8.445-13.463h-3.794c-.979 0-1.958 0-3.427 3.182h-.612v-.122z"/></g><defs><clipPath id="clip0"><path fill="#000" d="M0 0h229v47.122H0z"/></clipPath></defs></svg>