<svg width="121" height="44" fill="none" xmlns="http://www.w3.org/2000/svg">
  <path fill="#fff" d="M0 0h44v44H0z"/>
  <path d="m12.015 10.66-.159-.152c-1.11-1.066-1.97-2.3-2.488-3.758-.146-.408-.255-.824-.236-1.263.002-.042.002-.084.005-.125.039-.568.418-.854.973-.72.175.045.344.11.504.193.606.305 1.1.754 1.555 1.247a9.902 9.902 0 0 1 1.912 2.942c.01.026.021.051.034.076.006.011.02.018.05.045a15.52 15.52 0 0 1 7.129-2.187c-.015-.078-.025-.136-.04-.194a9.9 9.9 0 0 1-.233-3.252 7.395 7.395 0 0 1 .391-1.915c.104-.326.268-.63.482-.896a1.38 1.38 0 0 1 .279-.248.618.618 0 0 1 .706-.005c.22.15.398.354.514.593.217.405.373.84.463 1.291.205.954.268 1.933.187 2.905a8.41 8.41 0 0 1-.307 1.752c.627.115 1.25.205 1.861.35.61.141 1.21.318 1.799.528.594.218 1.174.47 1.74.754.558.279 1.09.61 1.647.927.018-.038.044-.083.062-.132a9.562 9.562 0 0 1 2.895-4.115c.307-.263.66-.469 1.04-.606.105-.036.214-.061.324-.074.551-.063.783.284.824.698.03.305.007.614-.069.911a7.735 7.735 0 0 1-.944 2.173c-.597.965-1.307 1.835-2.208 2.537-.027.02-.05.046-.095.087a15.648 15.648 0 0 1 2.34 2.718.972.972 0 0 1-.148.026c-.933.001-1.865-.002-2.798.004a.352.352 0 0 1-.279-.149 13.013 13.013 0 0 0-10.424-4.199 12.884 12.884 0 0 0-7.263 2.8c-.536.422-1.036.888-1.494 1.393a.418.418 0 0 1-.34.155c-.89-.006-1.781-.003-2.672-.003h-.19c.055-.212.602-.963 1.222-1.633.462-.5.952-.974 1.45-1.48ZM34.717 30.617a15.543 15.543 0 0 1-2.11 2.39l.164.137a9.53 9.53 0 0 1 2.965 4.237c.154.404.22.837.193 1.269-.008.11-.03.22-.066.325a.634.634 0 0 1-.717.442 1.955 1.955 0 0 1-.596-.177 4.508 4.508 0 0 1-.807-.512 9.468 9.468 0 0 1-2.899-4.11c-.016-.045-.034-.09-.063-.165a17.13 17.13 0 0 1-2.201 1.233c-.76.346-1.545.632-2.349.855-.817.222-1.65.38-2.49.475.014.073.023.132.038.19a9.61 9.61 0 0 1 .261 3.206 7.114 7.114 0 0 1-.389 1.979c-.106.263-.229.52-.366.769a1.176 1.176 0 0 1-.206.261c-.35.362-.769.365-1.11-.006a2.4 2.4 0 0 1-.344-.494c-.27-.509-.41-1.061-.51-1.625a10.29 10.29 0 0 1-.12-2.329 8.32 8.32 0 0 1 .255-1.688c.012-.047.023-.094.032-.142.003-.012-.005-.026-.015-.065a15.498 15.498 0 0 1-7.125-2.2l-.097.216a9.723 9.723 0 0 1-2.72 3.645 3.36 3.36 0 0 1-1.06.612c-.181.073-.38.095-.573.062a.626.626 0 0 1-.475-.395c-.125-.301-.103-.615-.06-.925a4.88 4.88 0 0 1 .379-1.255 9.9 9.9 0 0 1 2.333-3.323c.04-.038.082-.075.121-.114a.329.329 0 0 0 .032-.058 15.744 15.744 0 0 1-2.505-2.756c.087-.007.145-.015.203-.015.925-.001 1.85.002 2.775-.004a.415.415 0 0 1 .326.143 12.934 12.934 0 0 0 3.468 2.542 12.316 12.316 0 0 0 4.374 1.3c4.146.403 7.713-.854 10.7-3.771a.673.673 0 0 1 .528-.215c.862.01 1.725.004 2.588.004h.223l.015.052ZM30.866 17.403c.245 0 .481.017.714-.004.264-.024.452.07.645.247 1.11 1.023 2.23 2.033 3.349 3.048l.185.164c.068-.058.13-.11.19-.164 1.153-1.049 2.304-2.098 3.455-3.15a.48.48 0 0 1 .37-.144c.283.012.567.003.866.003v9.273c-.152.044-2.19.053-2.433.005v-4.696l-.047-.022-2.397 2.186-2.416-2.177-.046.017c-.002.392 0 .784-.001 1.176v3.533h-2.414c-.045-.156-.066-8.77-.02-9.295ZM8.592 17.413h2.399c.048.154.058 9.062.008 9.286H8.598c-.013-.59-.004-1.177-.006-1.765-.002-.583 0-1.166 0-1.764H5.618v3.498c-.18.054-2.229.06-2.433.01v-9.264H5.61v3.273c.173.05 2.721.06 2.98.011l.003-.798v-2.487ZM13.868 26.697V17.44c.142-.046 5.416-.064 5.76-.018v1.973c-.077.005-.157.016-.237.016-.939.001-1.878.002-2.817 0h-.261v1.535h2.934v2.04H16.34c-.049.176-.062 1.393-.022 1.73.074.005.154.015.233.015h3.079v1.965h-5.761ZM22.378 26.7c-.044-.248-.035-9.117.008-9.285h2.39v6.843c.104.005.185.013.265.013H28.136v2.43h-5.758Z" fill="#0036A4"/>
  <path d="M60.235 18.045a.75.75 0 0 1 1.03-1.09l4.5 4.25a.75.75 0 0 1 0 1.09l-4.5 4.25a.75.75 0 0 1-1.03-1.09l3.129-2.955H54.75a.75.75 0 0 1 0-1.5h8.614l-3.129-2.955Z" fill="#BFBFC0"/>
  <path d="m97.028 18.067.278-4.906a9.638 9.638 0 0 0-5.639 2.7l4.024 2.851.008-.004a.824.824 0 0 0 1.31-.631l.019-.01ZM105.255 15.863a9.717 9.717 0 0 0-5.605-2.702l.278 4.898.004.002a.825.825 0 0 0 1.31.63l.015.005 3.998-2.833ZM93.882 20.978l-3.674-3.285a9.627 9.627 0 0 0-1.367 6.096l4.709-1.359.004-.015a.824.824 0 0 0 .324-1.417l.004-.02ZM107.926 20.638a9.745 9.745 0 0 0-1.206-2.943l-3.654 3.269.002.01a.824.824 0 0 0 .324 1.417l.004.02 4.734 1.362c.1-1.02.039-2.077-.204-3.135ZM99.229 21.232h-1.505l-.938 1.166.336 1.46 1.355.65 1.351-.649.336-1.459-.935-1.168ZM102.739 25.246a.822.822 0 0 0-.506.068c-.4.192-.574.665-.4 1.069l-.006.008 1.891 4.565a9.643 9.643 0 0 0 3.9-4.897l-4.871-.823-.008.01ZM95.159 25.893a.825.825 0 0 0-.954-.627l-.007-.01-4.83.819a9.683 9.683 0 0 0 3.888 4.863l1.871-4.52-.014-.017a.817.817 0 0 0 .046-.508ZM98.833 27.314a.818.818 0 0 0-1.084.354h-.003l-2.375 4.291a9.678 9.678 0 0 0 5.279.272c.325-.074.642-.162.951-.266l-2.38-4.3h-.018a.819.819 0 0 0-.37-.351Z" fill="#2265D8"/>
  <path fill-rule="evenodd" clip-rule="evenodd" d="M97.177.492a3.01 3.01 0 0 1 2.595 0l15.631 7.46c.404.194.76.475 1.04.823s.477.754.577 1.188l3.862 16.767a2.954 2.954 0 0 1-.578 2.508L109.49 42.685a2.987 2.987 0 0 1-2.337 1.113l-17.348.004a3.01 3.01 0 0 1-2.336-1.115L76.65 29.242a2.947 2.947 0 0 1-.576-2.508l3.856-16.767c.1-.434.297-.84.577-1.188.28-.348.636-.63 1.04-.823L97.178.492Zm.365 6.455c0-.573.418-1.039.935-1.039.517 0 .935.466.935 1.04l.002.094a3.3 3.3 0 0 1 0 .171c-.008.218-.042.403-.077.59-.017.098-.036.196-.05.3l-.006.049c-.077.63-.14 1.157-.1 1.647.032.217.145.32.254.42l.052.047c.002.068.013.293.022.418a12.262 12.262 0 0 1 7.765 3.75l.356-.254.049.004c.133.01.359.027.519-.066.408-.274.781-.653 1.228-1.107l.033-.033c.07-.075.135-.149.198-.221a4.05 4.05 0 0 1 .419-.433c.042-.035.099-.08.151-.12l.057-.046c.449-.357 1.073-.32 1.396.084.322.404.218 1.021-.23 1.379l-.068.056c-.048.039-.098.08-.138.11-.175.128-.34.216-.508.305a6.747 6.747 0 0 0-.27.148c-.56.346-1.023.632-1.391.977-.15.161-.161.315-.171.462a1.5 1.5 0 0 1-.005.068l-.142.127-.19.17a12.086 12.086 0 0 1 1.753 4.05c.339 1.476.392 2.95.196 4.367l.378.11.027.038c.074.11.204.3.377.367.476.15 1.012.206 1.657.274l.02.002c.105.009.206.013.306.017.19.007.378.014.591.055.049.009.111.024.171.04l.101.024c.552.133.906.64.792 1.139-.114.499-.653.802-1.208.683l-.007-.001-.007-.001c-.006-.002-.011-.005-.018-.006a5.401 5.401 0 0 0-.089-.019c-.054-.01-.109-.021-.152-.033-.211-.056-.383-.13-.558-.207a6.7 6.7 0 0 0-.282-.117l-.028-.01c-.607-.217-1.111-.398-1.603-.47-.219-.017-.345.071-.466.155l-.058.04c-.068-.014-.278-.051-.4-.07a12.17 12.17 0 0 1-5.392 6.781l.05.131c.039.105.081.22.105.247a1.74 1.74 0 0 1-.025.065c-.055.136-.112.277-.047.486.182.47.476.931.83 1.485.059.087.118.168.176.248.113.153.224.304.326.497.025.049.057.116.086.177l.036.075c.24.514.064 1.106-.398 1.329-.466.224-1.044-.013-1.293-.53a3.81 3.81 0 0 1-.116-.24c-.088-.2-.138-.383-.189-.568-.026-.095-.052-.19-.083-.289l-.009-.025c-.208-.611-.381-1.118-.633-1.547-.123-.183-.271-.228-.413-.27a4.033 4.033 0 0 1-.065-.02 46.81 46.81 0 0 1-.199-.36 12.093 12.093 0 0 1-8.633-.022l-.212.384c-.158.042-.31.085-.404.196-.239.286-.377.693-.524 1.125-.062.183-.126.37-.2.555-.032.1-.058.198-.084.294-.05.183-.099.364-.186.563-.02.046-.049.105-.077.16a6.95 6.95 0 0 0-.038.078v.002l-.002.002c-.25.515-.827.751-1.292.528-.462-.223-.638-.815-.398-1.33l.043-.09c.026-.056.054-.116.077-.16a3.93 3.93 0 0 1 .328-.502c.058-.08.116-.16.174-.246.354-.554.665-1.05.847-1.522.046-.156-.022-.37-.083-.528l.17-.408a12.17 12.17 0 0 1-5.395-6.733l-.408.07a4.24 4.24 0 0 1-.041-.024c-.118-.068-.312-.18-.497-.166-.492.07-.997.252-1.604.47l-.027.01a7.322 7.322 0 0 0-.277.114c-.177.076-.35.15-.562.207-.048.013-.11.026-.17.039l-.072.015-.009.003-.01.003-.013.002c-.555.12-1.093-.184-1.208-.683-.114-.5.24-1.006.792-1.14l.014-.003a.07.07 0 0 0 .004-.001l.004-.001.075-.018c.06-.015.125-.03.175-.04.213-.04.4-.048.591-.055.1-.005.2-.008.306-.017l.022-.002c.644-.068 1.18-.124 1.655-.274.135-.055.265-.226.365-.357l.037-.049.392-.113a12.097 12.097 0 0 1 1.909-8.436l-.3-.268a2.164 2.164 0 0 1-.007-.044c-.019-.13-.053-.36-.18-.496-.369-.345-.833-.631-1.392-.977-.091-.053-.18-.1-.267-.147-.168-.09-.334-.177-.509-.306-.04-.03-.09-.071-.138-.11a8.694 8.694 0 0 0-.056-.046l-.006-.005a.089.089 0 0 1-.007-.005c-.45-.358-.552-.975-.23-1.379a.901.901 0 0 1 .745-.33c.224.008.455.09.652.246l.056.044c.053.041.11.086.152.122.166.143.29.285.415.43.064.073.129.148.2.224l.017.016c.454.461.83.844 1.245 1.122.19.111.343.088.489.064l.066-.01c.054.04.235.17.338.24a12.033 12.033 0 0 1 6.113-3.49c.564-.129 1.13-.214 1.69-.26l.023-.396c.124-.12.264-.294.303-.483.04-.5-.024-1.037-.102-1.683l-.002-.014c-.014-.103-.032-.201-.05-.298-.035-.188-.07-.373-.077-.59-.002-.047 0-.106 0-.163l.002-.078-.001-.012a.125.125 0 0 1-.001-.014Z" fill="#2265D8"/>
</svg>