<svg width="124" height="42" fill="none" xmlns="http://www.w3.org/2000/svg">
  <path d="M12.283 17.704c0 .497.053.9.147 1.196.106.296.24.619.427.968a.588.588 0 0 1 .093.31c0 .134-.08.268-.253.402l-.842.565a.637.637 0 0 1-.347.121c-.133 0-.267-.067-.4-.188a4.157 4.157 0 0 1-.48-.632 10.405 10.405 0 0 1-.415-.793c-1.041 1.237-2.35 1.855-3.925 1.855-1.122 0-2.016-.323-2.67-.968-.655-.645-.989-1.505-.989-2.58 0-1.143.401-2.07 1.215-2.77.815-.699 1.896-1.048 3.272-1.048.454 0 .92.04 1.415.107.494.067 1.001.175 1.535.296v-.981c0-1.022-.213-1.734-.627-2.151-.427-.417-1.148-.618-2.177-.618a6.04 6.04 0 0 0-1.442.174c-.494.121-.974.27-1.441.457a3.814 3.814 0 0 1-.468.175.813.813 0 0 1-.213.04c-.187 0-.28-.134-.28-.416v-.659c0-.215.026-.376.093-.47.066-.095.187-.189.373-.283.468-.242 1.029-.443 1.683-.605a8.043 8.043 0 0 1 2.083-.255c1.588 0 2.75.363 3.498 1.089.734.726 1.108 1.828 1.108 3.307v4.355h.027Zm-5.421 2.043c.44 0 .894-.08 1.375-.242.48-.161.908-.457 1.269-.86.213-.256.373-.538.453-.86.08-.323.134-.713.134-1.17v-.564a11.067 11.067 0 0 0-1.228-.229 9.988 9.988 0 0 0-1.255-.08c-.895 0-1.55.174-1.99.537-.44.363-.654.874-.654 1.546 0 .632.16 1.102.494 1.425.32.336.788.497 1.402.497ZM17.583 21.2c-.24 0-.4-.04-.507-.135-.107-.08-.2-.268-.28-.524l-3.138-10.39c-.08-.27-.12-.444-.12-.538 0-.215.107-.336.32-.336h1.309c.253 0 .427.04.52.134.107.08.187.269.267.524l2.243 8.899 2.083-8.899c.067-.269.147-.443.254-.524.107-.08.294-.134.534-.134h1.068c.254 0 .427.04.534.134.107.08.2.269.254.524l2.11 9.007 2.31-9.007c.08-.269.173-.443.266-.524.107-.08.28-.134.521-.134h1.242c.213 0 .333.107.333.336 0 .067-.013.134-.026.215a1.93 1.93 0 0 1-.094.336l-3.217 10.39c-.08.27-.174.444-.28.525-.108.08-.281.134-.508.134h-1.148c-.254 0-.428-.04-.535-.134-.106-.094-.2-.269-.253-.538l-2.07-8.67-2.056 8.657c-.067.268-.147.443-.253.537-.107.095-.294.135-.534.135h-1.149Zm17.157.363c-.694 0-1.389-.08-2.056-.242-.668-.162-1.188-.336-1.536-.538-.213-.12-.36-.255-.413-.376a.954.954 0 0 1-.08-.377v-.685c0-.283.106-.417.306-.417.08 0 .16.014.24.04.08.027.201.081.335.135.454.201.948.363 1.468.47a7.97 7.97 0 0 0 1.59.162c.84 0 1.495-.148 1.948-.444a1.45 1.45 0 0 0 .695-1.277c0-.376-.12-.686-.36-.94-.241-.256-.695-.485-1.35-.7l-1.935-.605c-.975-.309-1.696-.766-2.136-1.37-.441-.592-.668-1.251-.668-1.95 0-.565.12-1.062.36-1.492.24-.43.561-.807.962-1.102.4-.31.854-.538 1.388-.7a5.782 5.782 0 0 1 1.683-.228c.293 0 .6.014.894.054.307.04.588.094.868.148.267.067.52.134.761.215.24.08.427.161.56.242.188.107.321.215.401.336.08.107.12.255.12.443v.632c0 .282-.106.43-.307.43-.106 0-.28-.053-.507-.16-.761-.35-1.615-.525-2.563-.525-.761 0-1.362.12-1.776.376-.414.256-.628.645-.628 1.197 0 .376.134.698.4.954.268.255.762.51 1.47.74l1.895.604c.962.31 1.656.74 2.07 1.29.414.552.614 1.184.614 1.883 0 .578-.12 1.102-.347 1.559-.24.457-.56.86-.975 1.183-.414.336-.908.578-1.482.752a6.31 6.31 0 0 1-1.909.283Z" fill="#252F3E"/>
  <path fill-rule="evenodd" clip-rule="evenodd" d="M37.264 28.095c-4.393 3.266-10.775 5-16.263 5-7.69 0-14.62-2.863-19.853-7.621-.414-.377-.04-.888.453-.592 5.662 3.307 12.644 5.31 19.868 5.31 4.873 0 10.227-1.022 15.154-3.119.734-.336 1.361.484.64 1.022Z" fill="#F90"/>
  <path fill-rule="evenodd" clip-rule="evenodd" d="M39.093 25.998c-.561-.726-3.712-.35-5.14-.175-.428.054-.495-.323-.108-.605 2.51-1.774 6.636-1.264 7.117-.672.48.605-.134 4.759-2.484 6.748-.36.31-.707.148-.547-.256.534-1.33 1.722-4.328 1.162-5.04Z" fill="#F90"/>
  <path d="m112.564 13.028.363-.54.63.378.278.197c.674.513 2.091 1.827 2.398 4.003a9.69 9.69 0 0 1 1.62-.143c1.284 0 2.147.296 2.639.54l.251.137.164.107.46.37-.157.477a4.85 4.85 0 0 1-1.134 1.734c-.696.71-1.921 1.55-3.87 1.658l-.429.012h-.355c-.89 2.325-2.087 4.94-4.096 7.288a16.983 16.983 0 0 1-4.186 3.538 19.254 19.254 0 0 1-6.134 2.3 24.5 24.5 0 0 1-4.7.44c-3.489 0-6.567-.684-8.462-1.882-1.691-1.067-2.99-2.809-3.864-5.175a19.393 19.393 0 0 1-1.111-6.728c.003-.627.455-1.143 1.04-1.226l.163-.012h25.361l.223-.015.358-.039c.617-.08 1.554-.262 2.216-.642-.791-1.29-1.015-2.8-.647-4.408.156-.673.399-1.32.723-1.924l.258-.445Zm-22.742 2.967.095.016c.088.03.158.103.187.195l.014.097v3.125l-.015.097a.303.303 0 0 1-.188.194l-.094.016h-3.398a.298.298 0 0 1-.282-.21l-.015-.097v-3.126l.015-.098c.03-.091.1-.163.188-.194l.094-.015h3.4Zm4.683 0 .095.016c.088.03.158.103.187.195l.014.097v3.125l-.015.097a.303.303 0 0 1-.188.194l-.093.016h-3.399a.3.3 0 0 1-.282-.21l-.016-.097v-3.125c0-.136.085-.252.204-.293l.094-.015h3.4Zm4.755 0 .094.016c.089.03.158.103.187.195l.015.097v3.125l-.015.097a.302.302 0 0 1-.188.194l-.094.016h-3.398a.298.298 0 0 1-.282-.21l-.015-.097v-3.126l.015-.098c.03-.091.1-.163.188-.194l.094-.015h3.399Zm4.697 0 .095.016c.089.03.159.103.188.195l.016.097v3.125a.308.308 0 0 1-.205.291l-.094.016h-3.398a.298.298 0 0 1-.282-.21l-.015-.097v-3.126l.015-.098c.03-.091.1-.163.188-.194l.094-.015h3.398Zm4.74 0 .094.016c.089.03.159.103.189.195l.015.097v3.125a.308.308 0 0 1-.204.291l-.094.016h-3.399a.297.297 0 0 1-.281-.21l-.015-.097v-3.126l.015-.098a.3.3 0 0 1 .188-.194l.093-.015h3.399Zm-14.192-4.497.094.016c.088.03.158.103.187.194l.015.097v3.125c0 .136-.085.25-.202.292l-.094.016h-3.399a.301.301 0 0 1-.282-.21l-.016-.098v-3.125c0-.136.086-.25.204-.291l.094-.016h3.399Zm4.754 0 .094.016c.088.03.158.103.188.194l.015.097v3.125c0 .136-.085.25-.203.292l-.094.016h-3.398a.3.3 0 0 1-.282-.21l-.015-.098v-3.125l.015-.097c.03-.091.1-.164.188-.194l.094-.016h3.398Zm4.698 0a.3.3 0 0 1 .283.21l.016.097v3.125a.31.31 0 0 1-.205.292l-.094.016h-3.398a.3.3 0 0 1-.282-.21l-.015-.098v-3.125l.015-.097c.03-.091.1-.164.188-.194l.094-.016h3.398Zm0-4.498a.3.3 0 0 1 .283.21l.016.096v3.128a.308.308 0 0 1-.205.29l-.094.016h-3.398a.298.298 0 0 1-.282-.21l-.015-.096V7.306l.015-.096c.03-.092.1-.164.188-.194l.094-.016h3.398Z" fill="#2396ED"/>
</svg>