<svg width="492" height="304" viewBox="0 0 492 304" fill="none" xmlns="http://www.w3.org/2000/svg">
<path d="M92.6297 93.3274L269.213 195.491C269.308 195.545 269.387 195.624 269.441 195.719C269.496 195.813 269.525 195.921 269.525 196.03C269.525 196.14 269.496 196.247 269.441 196.342C269.387 196.436 269.308 196.515 269.213 196.569L192.346 240.956C192.094 241.102 191.807 241.178 191.516 241.178C191.225 241.178 190.939 241.102 190.686 240.956L12.4935 137.847C12.3987 137.792 12.3199 137.713 12.2652 137.619C12.2105 137.524 12.1816 137.417 12.1816 137.307C12.1816 137.198 12.2105 137.091 12.2652 136.996C12.3199 136.901 12.3987 136.823 12.4935 136.768L87.7513 93.3274C88.4929 92.8992 89.3342 92.6738 90.1905 92.6738C91.0468 92.6738 91.8881 92.8992 92.6297 93.3274Z" fill="#151515" fill-opacity="0.65"/>
<path d="M396.715 155.277L220.123 257.415C220.029 257.47 219.95 257.549 219.895 257.643C219.84 257.738 219.812 257.845 219.812 257.955C219.812 258.064 219.84 258.171 219.895 258.266C219.95 258.361 220.029 258.439 220.123 258.494L297.007 302.88C297.258 303.031 297.545 303.111 297.837 303.111C298.129 303.111 298.416 303.031 298.667 302.88L476.843 199.771C476.938 199.717 477.017 199.638 477.071 199.543C477.126 199.449 477.155 199.341 477.155 199.232C477.155 199.122 477.126 199.015 477.071 198.92C477.017 198.826 476.938 198.747 476.843 198.693L401.593 155.277C400.853 154.844 400.011 154.617 399.154 154.617C398.297 154.617 397.455 154.844 396.715 155.277Z" fill="#151515" fill-opacity="0.65"/>
<path d="M297.114 98.217L228.169 138.04C228.083 138.091 228.012 138.163 227.962 138.25C227.913 138.336 227.887 138.434 227.887 138.534C227.887 138.634 227.913 138.732 227.962 138.818C228.012 138.905 228.083 138.977 228.169 139.028L298.607 179.681C298.833 179.811 299.089 179.88 299.349 179.88C299.61 179.88 299.866 179.811 300.092 179.681L370.53 139.028C370.616 138.977 370.687 138.905 370.737 138.818C370.786 138.732 370.812 138.634 370.812 138.534C370.812 138.434 370.786 138.336 370.737 138.25C370.687 138.163 370.616 138.091 370.53 138.04L301.585 98.217C300.905 97.8253 300.134 97.6191 299.349 97.6191C298.565 97.6191 297.794 97.8253 297.114 98.217Z" fill="#151515" fill-opacity="0.65"/>
<path d="M189.167 35.488L120.223 75.3113C120.137 75.3619 120.066 75.434 120.016 75.5206C119.966 75.6072 119.94 75.7052 119.94 75.805C119.94 75.9048 119.966 76.0028 120.016 76.0894C120.066 76.176 120.137 76.2481 120.223 76.2986L190.661 116.952C190.886 117.082 191.142 117.151 191.403 117.151C191.664 117.151 191.92 117.082 192.146 116.952L262.583 76.2986C262.669 76.2481 262.741 76.176 262.79 76.0894C262.84 76.0028 262.866 75.9048 262.866 75.805C262.866 75.7052 262.84 75.6072 262.79 75.5206C262.741 75.434 262.669 75.3619 262.583 75.3113L193.639 35.488C192.959 35.0963 192.188 34.8901 191.403 34.8901C190.618 34.8901 189.847 35.0963 189.167 35.488Z" fill="#151515" fill-opacity="0.65"/>
<path d="M405.809 125.836L216.963 234.845C216.767 234.96 216.604 235.126 216.492 235.323C216.379 235.521 216.319 235.745 216.319 235.973C216.319 236.201 216.379 236.424 216.492 236.622C216.604 236.82 216.767 236.985 216.963 237.101L298.037 283.902C298.433 284.131 298.882 284.251 299.339 284.251C299.797 284.251 300.246 284.131 300.642 283.902L489.488 174.877C489.684 174.761 489.846 174.596 489.959 174.398C490.072 174.2 490.131 173.977 490.131 173.749C490.131 173.521 490.072 173.297 489.959 173.099C489.846 172.901 489.684 172.736 489.488 172.621L408.414 125.836C408.018 125.608 407.569 125.487 407.111 125.487C406.654 125.487 406.205 125.608 405.809 125.836Z" fill="url(#paint0_linear)"/>
<path d="M283.179 241.648C282.903 241.825 282.69 242.031 282.554 242.255L276.602 252.032C276.447 252.285 276.394 252.554 276.445 252.82C276.496 253.087 276.65 253.342 276.896 253.569L286.408 262.32C286.627 262.521 286.914 262.696 287.252 262.832C287.59 262.968 287.973 263.064 288.376 263.113C288.475 263.125 288.574 263.135 288.674 263.141L306.486 264.279C306.947 264.308 307.413 264.277 307.852 264.188C308.29 264.099 308.688 263.954 309.017 263.764L321.716 256.43C322.045 256.24 322.295 256.011 322.45 255.758C322.604 255.505 322.658 255.236 322.608 254.97L320.633 244.688C320.583 244.422 320.428 244.166 320.182 243.939C319.936 243.712 319.604 243.521 319.212 243.379L304.049 237.89C303.657 237.748 303.214 237.659 302.753 237.63C302.292 237.6 301.825 237.631 301.386 237.72L284.453 241.159C283.965 241.258 283.526 241.426 283.179 241.648Z" fill="#326CE5"/>
<path d="M287.49 244.006C287.112 244.225 287.147 244.599 287.569 244.843C287.576 244.847 287.583 244.849 287.59 244.853C287.646 244.886 287.713 244.928 287.765 244.956C288.017 245.091 288.256 245.168 288.512 245.279C289.05 245.523 289.496 245.725 289.836 245.956C289.947 246.053 289.972 246.186 289.97 246.289L290.245 246.467C289.868 246.724 289.517 246.999 289.197 247.292C287.825 248.553 287.213 249.968 287.29 251.358C287.162 251.372 286.935 251.393 286.866 251.399C286.76 251.479 286.675 251.572 286.42 251.611C285.906 251.668 285.341 251.664 284.658 251.66C284.339 251.655 284.07 251.629 283.727 251.643C283.649 251.646 283.536 251.655 283.453 251.661C283.194 251.677 282.964 251.74 282.795 251.832C282.577 251.949 282.457 252.114 282.491 252.287C282.553 252.594 283.082 252.813 283.674 252.775C283.68 252.775 283.685 252.774 283.691 252.773C283.773 252.769 283.876 252.764 283.948 252.758C284.288 252.729 284.54 252.668 284.85 252.622C285.513 252.533 286.064 252.458 286.587 252.449C286.805 252.454 287.022 252.558 287.121 252.599L287.538 252.586C288.139 254.29 289.789 255.87 292.346 256.975L292.143 257.189C292.165 257.29 292.213 257.44 292.147 257.531C291.906 257.799 291.55 258.052 291.122 258.357C290.916 258.498 290.711 258.604 290.518 258.767C290.475 258.803 290.421 258.857 290.377 258.898C290.376 258.899 290.375 258.9 290.373 258.902C290.371 258.904 290.368 258.907 290.366 258.909C290.06 259.199 290.173 259.564 290.624 259.728C291.075 259.891 291.693 259.793 292.011 259.508C292.013 259.505 292.017 259.503 292.019 259.501C292.023 259.498 292.025 259.494 292.028 259.491C292.072 259.451 292.129 259.402 292.166 259.366C292.337 259.194 292.414 259.042 292.544 258.874C292.834 258.518 293.073 258.223 293.385 257.981C293.526 257.886 293.793 257.855 293.919 257.834L294.166 257.632C296.992 258.471 300.161 258.638 303.069 258.211L303.245 258.456C303.406 258.498 303.613 258.56 303.694 258.646C303.908 258.922 304.045 259.265 304.194 259.65C304.256 259.831 304.274 259.989 304.376 260.179C304.4 260.225 304.445 260.29 304.473 260.337C304.676 260.657 305.24 260.834 305.742 260.733C306.247 260.631 306.496 260.287 306.299 259.963C306.299 259.963 306.3 259.962 306.299 259.961C306.299 259.961 306.298 259.961 306.298 259.961C306.27 259.914 306.237 259.852 306.208 259.811C306.082 259.626 305.923 259.497 305.775 259.332C305.499 258.964 305.119 258.629 305.069 258.313C305.056 258.226 305.136 258.144 305.22 258.059L305.093 257.807C307.295 257.243 309.239 256.311 310.611 255.051C310.924 254.763 311.196 254.468 311.43 254.167C311.552 254.187 311.782 254.226 311.841 254.235C311.997 254.19 312.145 254.127 312.404 254.156C312.911 254.233 313.418 254.378 314.031 254.553C314.315 254.638 314.54 254.729 314.86 254.802C314.933 254.819 315.042 254.839 315.122 254.855C315.684 254.969 316.282 254.825 316.458 254.533C316.633 254.243 316.326 253.917 315.772 253.801C315.691 253.784 315.576 253.759 315.497 253.745C315.169 253.686 314.896 253.677 314.582 253.641C313.915 253.555 313.361 253.484 312.882 253.361C312.648 253.29 312.602 253.188 312.529 253.096C312.473 253.094 312.249 253.029 312.137 253.002C312.908 251.259 312.512 249.417 311.097 247.842C311.2 247.799 311.381 247.726 311.441 247.703C311.476 247.604 311.482 247.498 311.682 247.399C312.101 247.219 312.613 247.081 313.229 246.914C313.521 246.839 313.785 246.795 314.082 246.696C314.145 246.675 314.228 246.642 314.297 246.616C314.303 246.614 314.309 246.613 314.315 246.611C314.319 246.61 314.323 246.607 314.327 246.606C314.821 246.422 314.992 246.066 314.708 245.805C314.424 245.545 313.792 245.48 313.291 245.656C313.218 245.682 313.112 245.717 313.044 245.744C312.761 245.855 312.578 245.974 312.334 246.093C311.805 246.34 311.368 246.546 310.904 246.685C310.704 246.735 310.43 246.695 310.31 246.683L309.952 246.796C309.054 246.112 307.93 245.508 306.597 245.025C305.251 244.537 303.807 244.214 302.334 244.046C302.34 243.967 302.355 243.821 302.358 243.779C302.246 243.701 302.107 243.632 302.097 243.48C302.113 243.178 302.242 242.86 302.397 242.477C302.477 242.298 302.583 242.152 302.633 241.956C302.644 241.911 302.653 241.846 302.662 241.798C302.727 241.456 302.349 241.151 301.816 241.115C301.283 241.08 300.798 241.328 300.733 241.67C300.723 241.718 300.708 241.783 300.702 241.828C300.677 242.026 300.721 242.182 300.731 242.366C300.738 242.76 300.746 243.087 300.647 243.384C300.591 243.506 300.37 243.602 300.276 243.65L300.203 243.908C297.153 243.863 294.13 244.453 291.758 245.598C291.66 245.549 291.486 245.458 291.435 245.43C291.26 245.432 291.079 245.452 290.867 245.361C290.467 245.164 290.119 244.906 289.696 244.596C289.504 244.448 289.37 244.31 289.136 244.164C289.083 244.131 288.999 244.086 288.939 244.052C288.517 243.808 287.868 243.788 287.49 244.006L287.49 244.006ZM291.968 247.581L295.373 249.782L295.365 249.795C295.675 249.989 295.668 250.291 295.343 250.478C295.21 250.555 295.044 250.601 294.871 250.616L294.868 250.621L289.825 251.111C289.836 250.072 290.333 249.022 291.364 248.076C291.552 247.903 291.754 247.739 291.968 247.581ZM293.684 246.59C295.435 245.802 297.585 245.379 299.775 245.369L298.933 248.262L298.918 248.265C298.849 248.525 298.435 248.709 297.978 248.679C297.79 248.666 297.624 248.62 297.495 248.552L297.49 248.553L293.684 246.59ZM290.104 252.506L295.211 252.348L295.222 252.358C295.677 252.341 296.081 252.532 296.133 252.796C296.155 252.905 296.114 253.009 296.028 253.097L296.036 253.105L293.588 255.673C291.801 254.844 290.612 253.721 290.104 252.506ZM302.196 245.527C303.246 245.672 304.276 245.917 305.244 246.268C306.2 246.614 307.022 247.037 307.699 247.513L303.231 248.935L303.213 248.928C302.818 249.058 302.31 248.985 302.064 248.76C301.964 248.668 301.922 248.564 301.934 248.463L301.925 248.46L302.196 245.527L302.196 245.527ZM298.21 250.832L299.312 250.196L300.857 250.297L301.684 251.058L301.173 251.905L299.701 252.201L298.382 251.724L298.21 250.832ZM304.686 250.491C304.73 250.463 304.781 250.438 304.835 250.417L304.834 250.409L309.006 248.7C309.957 249.852 310.234 251.165 309.753 252.428L305.01 251.289L305.009 251.283C304.585 251.185 304.364 250.91 304.515 250.66C304.554 250.595 304.612 250.539 304.686 250.491L304.686 250.491ZM298.71 253.958C298.986 253.803 299.42 253.772 299.762 253.896C299.922 253.954 300.036 254.037 300.101 254.131L300.125 254.133L302.08 256.843C299.974 257.106 297.718 256.981 295.656 256.421L298.589 254.032L298.602 254.032C298.634 254.005 298.671 253.98 298.71 253.958L298.71 253.958ZM303.154 253.074C303.245 253.018 303.361 252.973 303.497 252.946C303.675 252.91 303.859 252.91 304.026 252.939L304.039 252.932L308.946 253.751C308.796 253.926 308.628 254.098 308.444 254.266C307.415 255.212 305.994 255.926 304.379 256.382L302.961 253.556L302.964 253.554C302.872 253.381 302.953 253.199 303.154 253.074Z" fill="white" stroke="white" stroke-width="0.219373"/>
<path d="M283.179 241.648C282.903 241.825 282.69 242.031 282.554 242.255L276.602 252.032C276.447 252.285 276.394 252.554 276.445 252.82C276.496 253.087 276.65 253.342 276.896 253.569L286.408 262.32C286.627 262.521 286.914 262.696 287.252 262.832C287.59 262.968 287.973 263.064 288.376 263.113C288.475 263.125 288.574 263.135 288.674 263.141L306.486 264.279C306.947 264.308 307.413 264.277 307.852 264.188C308.29 264.099 308.688 263.954 309.017 263.764L321.716 256.43C322.045 256.24 322.295 256.011 322.45 255.758C322.604 255.505 322.658 255.236 322.608 254.97L320.633 244.688C320.583 244.422 320.428 244.166 320.182 243.939C319.936 243.712 319.604 243.521 319.212 243.379L304.049 237.89C303.657 237.748 303.214 237.659 302.753 237.63C302.292 237.6 301.825 237.631 301.386 237.72L284.453 241.159C283.965 241.258 283.526 241.426 283.179 241.648Z" fill="#326CE5"/>
<path d="M287.49 244.006C287.112 244.225 287.147 244.599 287.569 244.843C287.576 244.847 287.583 244.849 287.59 244.853C287.646 244.886 287.713 244.928 287.765 244.956C288.017 245.091 288.256 245.168 288.512 245.279C289.05 245.523 289.496 245.725 289.836 245.956C289.947 246.053 289.972 246.186 289.97 246.289L290.245 246.467C289.868 246.724 289.517 246.999 289.197 247.292C287.825 248.553 287.213 249.968 287.29 251.358C287.162 251.372 286.935 251.393 286.866 251.399C286.76 251.479 286.675 251.572 286.42 251.611C285.906 251.668 285.341 251.664 284.658 251.66C284.339 251.655 284.07 251.629 283.727 251.643C283.649 251.646 283.536 251.655 283.453 251.661C283.194 251.677 282.964 251.74 282.795 251.832C282.577 251.949 282.457 252.114 282.491 252.287C282.553 252.594 283.082 252.813 283.674 252.775C283.68 252.775 283.685 252.774 283.691 252.773C283.773 252.769 283.876 252.764 283.948 252.758C284.288 252.729 284.54 252.668 284.85 252.622C285.513 252.533 286.064 252.458 286.587 252.449C286.805 252.454 287.022 252.558 287.121 252.599L287.538 252.586C288.139 254.29 289.789 255.87 292.346 256.975L292.143 257.189C292.165 257.29 292.213 257.44 292.147 257.531C291.906 257.799 291.55 258.052 291.122 258.357C290.916 258.498 290.711 258.604 290.518 258.767C290.475 258.803 290.421 258.857 290.377 258.898C290.376 258.899 290.375 258.9 290.373 258.902C290.371 258.904 290.368 258.907 290.366 258.909C290.06 259.199 290.173 259.564 290.624 259.728C291.075 259.891 291.693 259.793 292.011 259.508C292.013 259.505 292.017 259.503 292.019 259.501C292.023 259.498 292.025 259.494 292.028 259.491C292.072 259.451 292.129 259.402 292.166 259.366C292.337 259.194 292.414 259.042 292.544 258.874C292.834 258.518 293.073 258.223 293.385 257.981C293.526 257.886 293.793 257.855 293.919 257.834L294.166 257.632C296.992 258.471 300.161 258.638 303.069 258.211L303.245 258.456C303.406 258.498 303.613 258.56 303.694 258.646C303.908 258.922 304.045 259.265 304.194 259.65C304.256 259.831 304.274 259.989 304.376 260.179C304.4 260.225 304.445 260.29 304.473 260.337C304.676 260.657 305.24 260.834 305.742 260.733C306.247 260.631 306.496 260.287 306.299 259.963C306.299 259.963 306.3 259.962 306.299 259.961C306.299 259.961 306.298 259.961 306.298 259.961C306.27 259.914 306.237 259.852 306.208 259.811C306.082 259.626 305.923 259.497 305.775 259.332C305.499 258.964 305.119 258.629 305.069 258.313C305.056 258.226 305.136 258.144 305.22 258.059L305.093 257.807C307.295 257.243 309.239 256.311 310.611 255.051C310.924 254.763 311.196 254.468 311.43 254.167C311.552 254.187 311.782 254.226 311.841 254.235C311.997 254.19 312.145 254.127 312.404 254.156C312.911 254.233 313.418 254.378 314.031 254.553C314.315 254.638 314.54 254.729 314.86 254.802C314.933 254.819 315.042 254.839 315.122 254.855C315.684 254.969 316.282 254.825 316.458 254.533C316.633 254.243 316.326 253.917 315.772 253.801C315.691 253.784 315.576 253.759 315.497 253.745C315.169 253.686 314.896 253.677 314.582 253.641C313.915 253.555 313.361 253.484 312.882 253.361C312.648 253.29 312.602 253.188 312.529 253.096C312.473 253.094 312.249 253.029 312.137 253.002C312.908 251.259 312.512 249.417 311.097 247.842C311.2 247.799 311.381 247.726 311.441 247.703C311.476 247.604 311.482 247.498 311.682 247.399C312.101 247.219 312.613 247.081 313.229 246.914C313.521 246.839 313.785 246.795 314.082 246.696C314.145 246.675 314.228 246.642 314.297 246.616C314.303 246.614 314.309 246.613 314.315 246.611C314.319 246.61 314.323 246.607 314.327 246.606C314.821 246.422 314.992 246.066 314.708 245.805C314.424 245.545 313.792 245.48 313.291 245.656C313.218 245.682 313.112 245.717 313.044 245.744C312.761 245.855 312.578 245.974 312.334 246.093C311.805 246.34 311.368 246.546 310.904 246.685C310.704 246.735 310.43 246.695 310.31 246.683L309.952 246.796C309.054 246.112 307.93 245.508 306.597 245.025C305.251 244.537 303.807 244.214 302.334 244.046C302.34 243.967 302.355 243.821 302.358 243.779C302.246 243.701 302.107 243.632 302.097 243.48C302.113 243.178 302.242 242.86 302.397 242.477C302.477 242.298 302.583 242.152 302.633 241.956C302.644 241.911 302.653 241.846 302.662 241.798C302.727 241.456 302.349 241.151 301.816 241.115C301.283 241.08 300.798 241.328 300.733 241.67C300.723 241.718 300.708 241.783 300.702 241.828C300.677 242.026 300.721 242.182 300.731 242.366C300.738 242.76 300.746 243.087 300.647 243.384C300.591 243.506 300.37 243.602 300.276 243.65L300.203 243.908C297.153 243.863 294.13 244.453 291.758 245.598C291.66 245.549 291.486 245.458 291.435 245.43C291.26 245.432 291.079 245.452 290.867 245.361C290.467 245.164 290.119 244.906 289.696 244.596C289.504 244.448 289.37 244.31 289.136 244.164C289.083 244.131 288.999 244.086 288.939 244.052C288.517 243.808 287.868 243.788 287.49 244.006L287.49 244.006ZM291.968 247.581L295.373 249.782L295.365 249.795C295.675 249.989 295.668 250.291 295.343 250.478C295.21 250.555 295.044 250.601 294.871 250.616L294.868 250.621L289.825 251.111C289.836 250.072 290.333 249.022 291.364 248.076C291.552 247.903 291.754 247.739 291.968 247.581ZM293.684 246.59C295.435 245.802 297.585 245.379 299.775 245.369L298.933 248.262L298.918 248.265C298.849 248.525 298.435 248.709 297.978 248.679C297.79 248.666 297.624 248.62 297.495 248.552L297.49 248.553L293.684 246.59ZM290.104 252.506L295.211 252.348L295.222 252.358C295.677 252.341 296.081 252.532 296.133 252.796C296.155 252.905 296.114 253.009 296.028 253.097L296.036 253.105L293.588 255.673C291.801 254.844 290.612 253.721 290.104 252.506ZM302.196 245.527C303.246 245.672 304.276 245.917 305.244 246.268C306.2 246.614 307.022 247.037 307.699 247.513L303.231 248.935L303.213 248.928C302.818 249.058 302.31 248.985 302.064 248.76C301.964 248.668 301.922 248.564 301.934 248.463L301.925 248.46L302.196 245.527L302.196 245.527ZM298.21 250.832L299.312 250.196L300.857 250.297L301.684 251.058L301.173 251.905L299.701 252.201L298.382 251.724L298.21 250.832ZM304.686 250.491C304.73 250.463 304.781 250.438 304.835 250.417L304.834 250.409L309.006 248.7C309.957 249.852 310.234 251.165 309.753 252.428L305.01 251.289L305.009 251.283C304.585 251.185 304.364 250.91 304.515 250.66C304.554 250.595 304.612 250.539 304.686 250.491L304.686 250.491ZM298.71 253.958C298.986 253.803 299.42 253.772 299.762 253.896C299.922 253.954 300.036 254.037 300.101 254.131L300.125 254.133L302.08 256.843C299.974 257.106 297.718 256.981 295.656 256.421L298.589 254.032L298.602 254.032C298.634 254.005 298.671 253.98 298.71 253.958L298.71 253.958ZM303.154 253.074C303.245 253.018 303.361 252.973 303.497 252.946C303.675 252.91 303.859 252.91 304.026 252.939L304.039 252.932L308.946 253.751C308.796 253.926 308.628 254.098 308.444 254.266C307.415 255.212 305.994 255.926 304.379 256.382L302.961 253.556L302.964 253.554C302.872 253.381 302.953 253.199 303.154 253.074Z" fill="white" stroke="white" stroke-width="0.219373"/>
<path d="M490.134 173.375C490.137 173.604 490.078 173.829 489.964 174.027C489.85 174.225 489.686 174.39 489.487 174.503L300.641 283.528C300.245 283.756 299.796 283.876 299.339 283.877V290.821C299.796 290.82 300.245 290.7 300.641 290.472L489.487 181.448C489.684 181.332 489.847 181.167 489.961 180.969C490.074 180.771 490.134 180.547 490.134 180.319V173.375Z" fill="black"/>
<path d="M298.035 283.528L216.962 236.727C216.763 236.614 216.599 236.449 216.485 236.251C216.371 236.053 216.312 235.828 216.315 235.599V242.543C216.315 242.771 216.375 242.996 216.488 243.193C216.602 243.391 216.765 243.556 216.962 243.672L298.035 290.472C298.431 290.702 298.881 290.822 299.338 290.821V283.877C298.881 283.878 298.431 283.758 298.035 283.528Z" fill="#2A2B2D"/>
<path d="M298.052 63.7756L216.978 110.576C216.78 110.691 216.615 110.855 216.501 111.053C216.386 111.251 216.326 111.476 216.326 111.705C216.326 111.933 216.386 112.158 216.501 112.356C216.615 112.554 216.78 112.719 216.978 112.833L298.052 159.642C298.446 159.87 298.894 159.99 299.35 159.99C299.806 159.99 300.254 159.87 300.649 159.642L381.722 112.833C381.921 112.72 382.085 112.556 382.2 112.359C382.315 112.161 382.375 111.937 382.375 111.709C382.375 111.481 382.315 111.256 382.2 111.059C382.085 110.861 381.921 110.698 381.722 110.585L300.649 63.7756C300.254 63.5477 299.806 63.4277 299.35 63.4277C298.894 63.4277 298.446 63.5477 298.052 63.7756Z" fill="url(#paint1_linear)"/>
<g clip-path="url(#clip0)">
<path d="M283.943 131.048L291.59 126.634L299.236 131.048L291.59 135.463L283.943 131.048Z" fill="#F35325"/>
<path d="M292.354 126.193L300.001 121.779L307.647 126.193L300.001 130.607L292.354 126.193Z" fill="#81BC06"/>
<path d="M292.354 135.904L300.001 131.49L307.647 135.904L300.001 140.318L292.354 135.904Z" fill="#05A6F0"/>
<path d="M300.766 131.048L308.412 126.634L316.058 131.048L308.412 135.463L300.766 131.048Z" fill="#FFBA08"/>
</g>
<path d="M382.353 111.705C382.355 111.933 382.296 112.158 382.182 112.357C382.068 112.555 381.904 112.719 381.705 112.833L300.632 159.642C300.236 159.872 299.786 159.992 299.329 159.99V166.926C299.786 166.928 300.236 166.807 300.632 166.578L381.705 119.777C381.903 119.663 382.067 119.498 382.181 119.3C382.295 119.102 382.354 118.877 382.353 118.649V111.705Z" fill="black"/>
<path d="M298.052 159.642L216.978 112.833C216.78 112.719 216.615 112.555 216.501 112.357C216.388 112.158 216.329 111.933 216.331 111.705V118.649C216.33 118.877 216.389 119.102 216.503 119.3C216.616 119.498 216.78 119.663 216.978 119.777L298.052 166.578C298.445 166.806 298.892 166.927 299.346 166.926V159.99C298.892 159.991 298.445 159.87 298.052 159.642Z" fill="#2A2B2D"/>
<path d="M85.6285 63.7679L273.96 172.61C274.156 172.726 274.318 172.891 274.431 173.089C274.544 173.287 274.603 173.511 274.603 173.738C274.603 173.966 274.544 174.19 274.431 174.388C274.318 174.586 274.156 174.751 273.96 174.867L192.886 221.676C192.49 221.905 192.041 222.025 191.584 222.025C191.126 222.025 190.677 221.905 190.281 221.676L1.94961 112.834C1.75147 112.719 1.58692 112.555 1.4725 112.357C1.35809 112.159 1.29785 111.934 1.29785 111.705C1.29785 111.477 1.35809 111.252 1.4725 111.054C1.58692 110.856 1.75147 110.691 1.94961 110.577L83.0151 63.7679C83.4121 63.5377 83.8629 63.4165 84.3218 63.4165C84.7807 63.4165 85.2315 63.5377 85.6285 63.7679Z" fill="url(#paint2_linear)"/>
<path d="M182.777 189.974C183.143 190.186 183.479 190.334 183.765 190.42C184.062 190.5 184.397 190.581 184.792 190.65C184.921 190.667 185.019 190.701 185.089 190.741C185.188 190.799 185.227 190.89 185.199 191.021L184.995 191.618C184.966 191.703 184.907 191.771 184.829 191.817C184.73 191.873 184.583 191.902 184.395 191.907C184.109 191.901 183.833 191.877 183.577 191.843C183.31 191.802 183.024 191.751 182.688 191.682C182.832 192.65 182.324 193.468 181.165 194.138C180.339 194.614 179.443 194.857 178.487 194.861C177.531 194.865 176.652 194.641 175.86 194.184C175.019 193.699 174.631 193.135 174.716 192.491C174.801 191.848 175.34 191.24 176.352 190.656C176.686 190.463 177.06 190.282 177.473 190.1C177.886 189.919 178.339 189.749 178.821 189.574L178.099 189.157C177.347 188.723 176.665 188.511 176.054 188.51C175.433 188.514 174.754 188.735 173.997 189.172C173.653 189.37 173.339 189.597 173.064 189.858C172.79 190.12 172.545 190.387 172.339 190.665C172.251 190.796 172.173 190.887 172.124 190.938C172.075 190.989 172.036 191.023 171.996 191.046C171.859 191.125 171.691 191.108 171.483 190.988L170.999 190.708C170.84 190.617 170.741 190.537 170.721 190.469C170.701 190.4 170.72 190.309 170.789 190.19C170.954 189.889 171.219 189.565 171.582 189.218C171.934 188.866 172.386 188.537 172.927 188.225C174.096 187.55 175.218 187.21 176.302 187.201C177.377 187.197 178.464 187.507 179.552 188.135L182.757 189.986L182.777 189.974ZM180.291 193.146C180.615 192.958 180.89 192.731 181.125 192.458C181.36 192.186 181.457 191.878 181.425 191.554C181.395 191.355 181.305 191.167 181.126 190.996C180.948 190.824 180.7 190.636 180.364 190.442L179.948 190.202C179.594 190.327 179.23 190.468 178.876 190.627C178.522 190.786 178.198 190.95 177.893 191.126C177.235 191.506 176.882 191.858 176.825 192.2C176.768 192.541 176.986 192.849 177.481 193.134C177.946 193.403 178.41 193.535 178.893 193.53C179.376 193.537 179.839 193.407 180.291 193.146ZM189.25 189.207C189.073 189.309 188.926 189.36 188.778 189.365C188.64 189.377 188.433 189.336 188.186 189.262L178.229 186.18C177.972 186.1 177.814 186.043 177.745 186.003C177.587 185.911 177.576 185.815 177.733 185.724L178.696 185.168C178.883 185.06 179.04 185.003 179.179 185.004C179.317 184.993 179.514 185.038 179.761 185.113L187.961 187.941L182.945 183.275C182.796 183.132 182.726 183.024 182.746 182.944C182.765 182.865 182.863 182.762 183.04 182.66L183.826 182.207C184.013 182.099 184.17 182.042 184.318 182.037C184.456 182.026 184.663 182.066 184.89 182.152L193.072 185.082L188.143 180.274C188.004 180.126 187.944 180.012 187.954 179.938C187.973 179.858 188.061 179.762 188.238 179.659L189.152 179.132C189.309 179.041 189.477 179.036 189.645 179.133C189.694 179.161 189.734 179.196 189.784 179.236C189.833 179.275 189.893 179.332 189.962 179.418L195.241 185.2C195.38 185.348 195.44 185.462 195.421 185.542C195.402 185.622 195.313 185.718 195.146 185.815L194.301 186.303C194.115 186.41 193.957 186.467 193.809 186.472C193.661 186.478 193.464 186.443 193.227 186.352L185.323 183.547L190.181 188.099C190.329 188.241 190.399 188.35 190.39 188.435C190.38 188.52 190.272 188.617 190.095 188.719L189.25 189.207ZM202.145 182.072C201.634 182.367 201.063 182.627 200.453 182.842C199.843 183.057 199.331 183.204 198.928 183.266C198.681 183.306 198.474 183.311 198.346 183.282C198.218 183.254 198.099 183.208 198.01 183.156L197.505 182.865C197.298 182.745 197.277 182.643 197.425 182.558C197.484 182.523 197.552 182.495 197.631 182.473C197.71 182.45 197.838 182.422 197.976 182.388C198.458 182.281 198.941 182.139 199.403 181.964C199.875 181.783 200.298 181.584 200.691 181.357C201.31 181 201.683 180.659 201.799 180.34C201.916 180.022 201.776 179.737 201.37 179.503C201.093 179.343 200.777 179.263 200.413 179.256C200.048 179.25 199.545 179.346 198.906 179.532L197.036 180.098C196.091 180.381 195.224 180.493 194.454 180.423C193.695 180.359 193.043 180.175 192.528 179.878C192.113 179.639 191.835 179.376 191.696 179.091C191.556 178.806 191.515 178.51 191.592 178.214C191.659 177.913 191.825 177.623 192.099 177.327C192.374 177.032 192.737 176.765 193.169 176.516C193.385 176.391 193.621 176.266 193.867 176.158C194.123 176.045 194.369 175.949 194.615 175.852C194.861 175.768 195.097 175.688 195.333 175.62C195.569 175.553 195.766 175.507 195.924 175.485C196.141 175.451 196.318 175.44 196.466 175.458C196.604 175.469 196.743 175.515 196.881 175.595L197.346 175.863C197.554 175.983 197.584 176.092 197.437 176.177C197.358 176.222 197.191 176.273 196.944 176.324C196.127 176.499 195.37 176.787 194.672 177.19C194.112 177.514 193.759 177.82 193.642 178.105C193.525 178.389 193.655 178.645 194.061 178.88C194.338 179.039 194.673 179.12 195.058 179.115C195.442 179.11 195.994 179.009 196.683 178.805L198.523 178.256C199.459 177.979 200.286 177.867 200.996 177.925C201.707 177.984 202.319 178.167 202.833 178.464C203.259 178.71 203.556 178.983 203.726 179.274C203.885 179.57 203.946 179.878 203.879 180.191C203.822 180.509 203.636 180.822 203.342 181.14C203.038 181.476 202.646 181.782 202.145 182.072Z" fill="white"/>
<path fill-rule="evenodd" clip-rule="evenodd" d="M208.81 183.775C207.982 187.029 204.561 190.477 200.522 192.809C194.862 196.077 187.654 197.804 180.3 198.006C179.719 198.022 179.618 197.646 180.199 197.562C186.799 196.562 193.413 194.446 198.729 191.377C202.316 189.306 205.504 186.597 207.587 183.613C207.88 183.158 208.945 183.24 208.81 183.775Z" fill="#FF9900"/>
<path fill-rule="evenodd" clip-rule="evenodd" d="M208.613 182.107C207.666 182.037 205.624 183.535 204.701 184.217C204.426 184.421 204.1 184.289 204.177 184.005C204.718 182.184 208.131 180.649 208.92 180.696C209.719 180.748 212.324 182.774 212.059 184.618C212.021 184.902 211.647 184.981 211.468 184.742C210.881 183.95 209.55 182.171 208.613 182.107Z" fill="#FF9900"/>
<path d="M1.30279 111.705C1.30057 111.935 1.36027 112.161 1.47561 112.359C1.59095 112.558 1.75767 112.722 1.95823 112.833L190.29 221.676C190.686 221.903 191.135 222.024 191.592 222.024V228.96C191.135 228.959 190.686 228.839 190.29 228.612L1.95823 119.778C1.7594 119.664 1.5941 119.5 1.47903 119.301C1.36395 119.103 1.30316 118.878 1.30279 118.649V111.705Z" fill="#2A2B2D"/>
<path d="M192.887 221.676L273.96 174.867C274.159 174.753 274.323 174.589 274.437 174.39C274.551 174.192 274.61 173.967 274.607 173.738V180.682C274.607 180.911 274.547 181.135 274.434 181.333C274.32 181.53 274.157 181.695 273.96 181.811L192.887 228.612C192.491 228.841 192.041 228.961 191.584 228.96V222.024C192.041 222.025 192.491 221.905 192.887 221.676Z" fill="black"/>
<path d="M190.285 0.796151L109.211 47.5969C109.013 47.7112 108.849 47.8756 108.734 48.0737C108.62 48.2718 108.56 48.4965 108.56 48.7252C108.56 48.954 108.62 49.1787 108.734 49.3768C108.849 49.5748 109.013 49.7393 109.211 49.8536L190.277 96.6626C190.673 96.8913 191.122 97.0116 191.579 97.0116C192.037 97.0116 192.486 96.8913 192.882 96.6626L273.956 49.8536C274.152 49.7387 274.315 49.5745 274.428 49.3773C274.541 49.1801 274.6 48.9567 274.6 48.7294C274.6 48.502 274.541 48.2787 274.428 48.0814C274.315 47.8842 274.152 47.72 273.956 47.6052L192.882 0.796151C192.487 0.568233 192.039 0.448242 191.583 0.448242C191.128 0.448242 190.68 0.568233 190.285 0.796151Z" fill="url(#paint3_linear)"/>
<path d="M188.013 82.8129C187.494 82.8192 186.982 82.6906 186.528 82.4395L183.898 80.9213C183.668 80.8204 183.469 80.6592 183.323 80.4548C183.177 80.2503 183.089 80.0102 183.068 79.7598C183.074 79.5504 183.137 79.3465 183.249 79.1698C183.362 78.9931 183.52 78.85 183.707 78.7559L195.604 71.8863C196.027 71.6864 196.492 71.5903 196.96 71.6062C197.427 71.6221 197.884 71.7494 198.293 71.9776L200.922 73.4959C201.153 73.5967 201.351 73.7579 201.497 73.9624C201.643 74.1668 201.731 74.407 201.752 74.6574C201.746 74.8668 201.684 75.0706 201.571 75.2473C201.459 75.4241 201.3 75.5671 201.113 75.6613L189.216 82.5308C188.846 82.7276 188.432 82.8248 188.013 82.8129ZM196.841 72.6662C196.608 72.6575 196.378 72.7059 196.169 72.8073L184.271 79.6768C184.229 79.6989 184.192 79.7301 184.164 79.768C184.229 79.868 184.321 79.9483 184.429 80.0003L187.059 81.5186C187.31 81.6591 187.591 81.7404 187.878 81.7562C188.166 81.772 188.453 81.722 188.718 81.6099L200.616 74.7403C200.658 74.7182 200.695 74.6871 200.723 74.6491C200.657 74.5491 200.566 74.4689 200.458 74.4168L197.828 72.8985C197.525 72.7368 197.184 72.6567 196.841 72.6662Z" fill="white"/>
<path d="M187.109 80.2768C187.591 80.2768 187.981 80.0502 187.981 79.7707C187.981 79.4912 187.591 79.2646 187.109 79.2646C186.628 79.2646 186.238 79.4912 186.238 79.7707C186.238 80.0502 186.628 80.2768 187.109 80.2768Z" fill="white"/>
<path d="M196.675 74.6014L193.788 76.2607C193.658 76.3209 193.516 76.3521 193.373 76.3521C193.23 76.3521 193.088 76.3209 192.958 76.2607C192.709 76.1114 192.676 75.8874 192.9 75.7629L195.787 74.1036C195.916 74.0399 196.058 74.0068 196.202 74.0068C196.346 74.0068 196.488 74.0399 196.617 74.1036C196.866 74.2529 196.899 74.477 196.675 74.6014Z" fill="white"/>
<path d="M190.253 84.5156C190.16 84.5148 190.068 84.49 189.986 84.4435C189.905 84.397 189.837 84.3304 189.789 84.2501C189.753 84.1892 189.73 84.1219 189.721 84.0521C189.712 83.9823 189.717 83.9113 189.736 83.8434C189.754 83.7754 189.786 83.7119 189.829 83.6563C189.873 83.6008 189.927 83.5545 189.988 83.52L196.501 79.7534L194.999 78.9237C194.877 78.8526 194.787 78.7361 194.75 78.5995C194.713 78.4629 194.731 78.3171 194.8 78.1936C194.835 78.1329 194.882 78.0798 194.938 78.0373C194.994 77.9947 195.057 77.9637 195.125 77.946C195.193 77.9282 195.264 77.9241 195.333 77.9339C195.403 77.9436 195.47 77.9671 195.53 78.0028L197.836 79.3303C197.917 79.3766 197.983 79.4431 198.03 79.5231C198.077 79.6031 198.101 79.694 198.102 79.7866C198.1 79.8801 198.075 79.9717 198.029 80.0529C197.982 80.1341 197.916 80.2023 197.836 80.2512L190.519 84.4741C190.436 84.5112 190.344 84.5255 190.253 84.5156Z" fill="white"/>
<path d="M197.563 80.2917C197.448 80.2871 197.337 80.2458 197.247 80.1739C197.157 80.1019 197.093 80.0031 197.063 79.8918C197.033 79.7805 197.04 79.6626 197.082 79.5554C197.125 79.4482 197.2 79.3573 197.297 79.2961L204.615 75.0731C204.675 75.0374 204.742 75.0139 204.812 75.0042C204.881 74.9944 204.952 74.9985 205.02 75.0163C205.088 75.034 205.151 75.0651 205.207 75.1076C205.263 75.1501 205.31 75.2032 205.345 75.264C205.414 75.3874 205.432 75.5332 205.395 75.6698C205.358 75.8064 205.268 75.9229 205.146 75.994L197.837 80.217C197.753 80.2648 197.659 80.2905 197.563 80.2917Z" fill="white"/>
<path d="M180.945 78.7308C180.423 78.7364 179.909 78.6078 179.451 78.3575L176.83 76.8392C176.6 76.7384 176.401 76.5772 176.255 76.3727C176.109 76.1683 176.021 75.9281 176 75.6777C176.006 75.4683 176.069 75.2645 176.181 75.0878C176.294 74.911 176.452 74.768 176.639 74.6738L188.536 67.8043C188.959 67.6043 189.424 67.5083 189.891 67.5242C190.359 67.54 190.816 67.6674 191.224 67.8956L193.854 69.4138C194.085 69.5153 194.285 69.6778 194.431 69.8838C194.577 70.0899 194.664 70.3318 194.684 70.5837C194.676 70.7916 194.613 70.9937 194.501 71.1689C194.388 71.344 194.231 71.4857 194.045 71.5792L182.148 78.4488C181.777 78.6424 181.363 78.7394 180.945 78.7308ZM189.772 68.5842C189.54 68.5755 189.309 68.6239 189.1 68.7252L177.203 75.5948C177.161 75.6169 177.124 75.648 177.095 75.686C177.161 75.786 177.253 75.8663 177.361 75.9183L179.991 77.4366C180.242 77.5771 180.522 77.6584 180.81 77.6742C181.097 77.69 181.385 77.64 181.65 77.5278L193.539 70.6583C193.63 70.6085 193.647 70.5671 193.647 70.5671C193.647 70.5671 193.597 70.4509 193.39 70.3348L190.76 68.8165C190.456 68.6548 190.116 68.5747 189.772 68.5842Z" fill="white"/>
<path d="M180.041 76.1948C180.522 76.1948 180.912 75.9682 180.912 75.6887C180.912 75.4092 180.522 75.1826 180.041 75.1826C179.56 75.1826 179.17 75.4092 179.17 75.6887C179.17 75.9682 179.56 76.1948 180.041 76.1948Z" fill="white"/>
<path d="M189.606 70.5194L186.719 72.1787C186.589 72.2389 186.448 72.2701 186.304 72.2701C186.161 72.2701 186.02 72.2389 185.89 72.1787C185.632 72.0293 185.607 71.8053 185.831 71.6809L188.719 70.0216C188.848 69.9579 188.99 69.9248 189.133 69.9248C189.277 69.9248 189.419 69.9579 189.548 70.0216C189.797 70.1709 189.83 70.3949 189.606 70.5194Z" fill="white"/>
<path d="M274.603 48.7314C274.605 48.9601 274.546 49.1851 274.432 49.3835C274.318 49.5818 274.154 49.7462 273.955 49.8598L192.882 96.6688C192.486 96.8977 192.036 97.0179 191.579 97.0173V103.953C192.036 103.954 192.486 103.834 192.882 103.605L273.955 56.804C274.152 56.6885 274.315 56.5236 274.429 56.3257C274.542 56.1279 274.602 55.9038 274.603 55.6756V48.7314Z" fill="black"/>
<path d="M190.277 96.6688L109.211 49.8598C109.012 49.7466 108.846 49.5825 108.731 49.3843C108.616 49.186 108.555 48.9607 108.556 48.7314V55.6756C108.556 55.9047 108.617 56.1297 108.732 56.3278C108.847 56.5259 109.012 56.6902 109.211 56.804L190.277 103.605C190.673 103.832 191.122 103.953 191.579 103.953V97.0173C191.122 97.0167 190.673 96.8966 190.277 96.6688Z" fill="#2A2B2D"/>
<defs>
<linearGradient id="paint0_linear" x1="21.6616" y1="-18.5701" x2="440.019" y2="270.815" gradientUnits="userSpaceOnUse">
<stop offset="0.314888" stop-color="#020202"/>
<stop offset="0.590338" stop-color="#1C1D1E"/>
<stop offset="1" stop-color="#303233"/>
</linearGradient>
<linearGradient id="paint1_linear" x1="98.2789" y1="-24.19" x2="352.466" y2="151.121" gradientUnits="userSpaceOnUse">
<stop offset="0.314888" stop-color="#020202"/>
<stop offset="0.590338" stop-color="#1C1D1E"/>
<stop offset="1" stop-color="#303233"/>
</linearGradient>
<linearGradient id="paint2_linear" x1="-193" y1="-80.5" x2="224.82" y2="208.261" gradientUnits="userSpaceOnUse">
<stop offset="0.314888" stop-color="#020202"/>
<stop offset="0.590338" stop-color="#1C1D1E"/>
<stop offset="1" stop-color="#303233"/>
</linearGradient>
<linearGradient id="paint3_linear" x1="-9.48174" y1="-87.1705" x2="244.703" y2="88.1282" gradientUnits="userSpaceOnUse">
<stop offset="0.314888" stop-color="#020202"/>
<stop offset="0.590338" stop-color="#1C1D1E"/>
<stop offset="1" stop-color="#303233"/>
</linearGradient>
<clipPath id="clip0">
<rect width="24.7213" height="24.7213" fill="white" transform="matrix(0.866044 -0.499967 0.866044 0.499967 278.591 131.048)"/>
</clipPath>
</defs>
</svg>
