<svg xmlns="http://www.w3.org/2000/svg" width="135" height="40">
    <title>Consul</title>
    <g fill="#FFF" fill-rule="evenodd">
        <path d="M130.367 30.224V8.706l3.827-.534v22.052h-3.827zM118.04 14.948v10.665c0 .815.345 1.224 1.223 1.224.941 0 2.603-.565 3.984-1.287V14.948h3.826v15.276h-2.917l-.376-1.286c-1.914.94-4.329 1.6-6.117 1.6-2.54 0-3.45-1.788-3.45-4.517V14.948h3.827zm-11.855 15.59c-1.632 0-3.859-.377-5.27-.879l.533-2.917a17.1 17.1 0 0 0 4.549.659c1.693 0 1.944-.376 1.944-1.537 0-.941-.188-1.411-2.666-2.008-3.733-.91-4.172-1.85-4.172-4.799 0-3.074 1.349-4.423 5.709-4.423 1.41 0 3.261.188 4.579.533l-.377 3.043c-1.16-.22-3.01-.439-4.202-.439-1.662 0-1.945.376-1.945 1.317 0 1.224.094 1.318 2.164 1.851 4.266 1.13 4.674 1.694 4.674 4.83 0 2.95-.91 4.769-5.52 4.769zm-11.7-.314V19.56c0-.815-.344-1.224-1.222-1.224-.941 0-2.604.565-3.984 1.286v10.603h-3.826V14.948h2.916l.377 1.286c1.913-.941 4.329-1.6 6.116-1.6 2.541 0 3.45 1.788 3.45 4.517v11.073h-3.827zM76.201 17.896c-2.038 0-2.822.91-2.822 2.636v4.109c0 1.725.784 2.634 2.822 2.634 2.04 0 2.824-.91 2.824-2.634v-4.11c0-1.725-.784-2.635-2.824-2.635zm0 12.642c-5.237 0-6.649-2.886-6.649-6.023v-3.858c0-3.137 1.412-6.023 6.65-6.023s6.649 2.886 6.649 6.023v3.858c0 3.137-1.411 6.023-6.65 6.023zM54.624 15.073c0-3.827 2.226-6.054 7.432-6.054 1.946 0 3.953.25 5.678.69l-.44 3.42c-1.693-.314-3.67-.534-5.112-.534-2.729 0-3.607.94-3.607 3.168v8.03c0 2.228.878 3.169 3.607 3.169 1.443 0 3.42-.22 5.113-.534l.439 3.42c-1.725.439-3.732.69-5.678.69-5.206 0-7.432-2.227-7.432-6.054v-9.41zM20.131 35.647c-4.202 0-8.147-1.625-11.102-4.572a15.564 15.564 0 0 1-4.59-11.072c0-4.188 1.628-8.12 4.583-11.068a15.68 15.68 0 0 1 11.11-4.576c3.483 0 6.777 1.11 9.527 3.21l2.399-3.121C28.614 1.818 24.49.426 20.131.426A19.608 19.608 0 0 0 6.236 6.152C2.532 9.845.494 14.764.494 20.003c0 5.223 2.038 10.14 5.742 13.85 3.704 3.693 8.639 5.726 13.895 5.726 4.354 0 8.477-1.39 11.926-4.02l-2.397-3.124a15.58 15.58 0 0 1-9.529 3.212m17.23-23.276a1.95 1.95 0 0 0 .986-1.533 1.81 1.81 0 0 0-.24-1.128 1.978 1.978 0 0 0-2.67-.743 1.966 1.966 0 0 0-.745 2.66 1.978 1.978 0 0 0 2.67.744m-.032 15.236a1.956 1.956 0 0 0-2.669.733 1.943 1.943 0 0 0 .736 2.66c.948.54 2.128.203 2.669-.732.145-.261.232-.52.243-.8a1.95 1.95 0 0 0-.979-1.861m-.143-10.571a1.949 1.949 0 0 0 2.244 1.6 1.936 1.936 0 0 0 1.624-1.735c.02-.174 0-.328-.02-.502a1.948 1.948 0 0 0-2.243-1.6 1.944 1.944 0 0 0-1.605 2.237m2.246 4.23a1.941 1.941 0 0 0-2.263 1.581 1.935 1.935 0 0 0 1.586 2.256 1.94 1.94 0 0 0 2.263-1.58c0-.069.019-.116.038-.175.087-.992-.619-1.908-1.624-2.082m-7.715-4.001c.243 1.06 1.307 1.698 2.351 1.456a1.877 1.877 0 0 0 1.47-1.581c.048-.242.03-.501-.019-.762-.242-1.06-1.306-1.696-2.35-1.455-1.055.24-1.692 1.3-1.452 2.342m3.735 6.473c.02-.059.02-.106.038-.154.174-.993-.455-1.948-1.45-2.209a1.954 1.954 0 0 0-2.37 1.408 1.947 1.947 0 0 0 1.412 2.363 1.954 1.954 0 0 0 2.37-1.408m-9.103-3.783c0 1.08.87 1.947 1.954 1.947a1.945 1.945 0 0 0 1.953-1.947c0-1.08-.87-1.948-1.953-1.948a1.945 1.945 0 0 0-1.954 1.948"/>
        <path d="M15.815 19.963c0 2.34 1.897 4.215 4.244 4.215 2.347-.008 4.245-1.891 4.228-4.231 0-2.34-1.897-4.215-4.244-4.215a4.22 4.22 0 0 0-4.228 4.23"/>
    </g>
</svg>
