<svg xmlns="http://www.w3.org/2000/svg" width="135" height="49">
    <title>Consul Enterprise</title>
    <g fill="#FFF" fill-rule="evenodd">
        <path d="M130.86 31.293V9.347l3.903-.544v22.49h-3.903zm-12.573-15.58v10.878c0 .831.352 1.247 1.248 1.247.96 0 2.655-.576 4.063-1.312V15.713h3.903v15.58h-2.975l-.384-1.311c-1.952.96-4.415 1.631-6.239 1.631-2.59 0-3.519-1.823-3.519-4.606V15.713h3.903zm-12.092 15.9c-1.664 0-3.936-.384-5.375-.896l.544-2.974c1.31.383 3.039.671 4.64.671 1.726 0 1.982-.384 1.982-1.568 0-.96-.192-1.439-2.72-2.047-3.806-.928-4.254-1.887-4.254-4.895 0-3.135 1.375-4.511 5.822-4.511 1.44 0 3.327.192 4.67.544l-.383 3.103c-1.183-.223-3.07-.447-4.287-.447-1.695 0-1.983.383-1.983 1.343 0 1.248.096 1.344 2.207 1.888 4.351 1.152 4.767 1.728 4.767 4.926 0 3.007-.928 4.863-5.63 4.863zm-11.933-.32V20.416c0-.831-.352-1.248-1.247-1.248-.96 0-2.656.576-4.063 1.312v10.813h-3.904v-15.58h2.975l.384 1.312c1.952-.96 4.416-1.632 6.239-1.632 2.592 0 3.52 1.824 3.52 4.607v11.293h-3.904zM75.61 18.721c-2.079 0-2.879.927-2.879 2.687V25.6c0 1.76.8 2.687 2.879 2.687 2.08 0 2.88-.928 2.88-2.687v-4.19c0-1.76-.8-2.688-2.88-2.688zm0 12.892c-5.342 0-6.782-2.943-6.782-6.142v-3.935c0-3.2 1.44-6.143 6.782-6.143 5.343 0 6.782 2.943 6.782 6.143v3.935c0 3.199-1.439 6.142-6.782 6.142zM53.6 15.841c0-3.903 2.271-6.174 7.582-6.174 1.984 0 4.032.256 5.79.703l-.447 3.488c-1.727-.32-3.743-.544-5.214-.544-2.784 0-3.68.96-3.68 3.231v8.19c0 2.272.896 3.231 3.68 3.231 1.47 0 3.487-.223 5.214-.544l.448 3.488c-1.76.447-3.807.703-5.79.703-5.312 0-7.582-2.271-7.582-6.174V15.84zM20.497 36.409c-4.28 0-8.295-1.66-11.304-4.67a15.923 15.923 0 0 1-4.674-11.308c0-4.278 1.658-8.294 4.667-11.304a15.94 15.94 0 0 1 11.31-4.675c3.547 0 6.901 1.134 9.701 3.279l2.443-3.188C29.133 1.857 24.934.436 20.497.436 15.164.436 10.14 2.51 6.35 6.284 2.578 10.056.503 15.08.503 20.43c0 5.334 2.075 10.357 5.847 14.146 3.77 3.772 8.795 5.848 14.147 5.848 4.432 0 8.63-1.42 12.141-4.105l-2.44-3.191a15.83 15.83 0 0 1-9.701 3.28m17.542-23.774a1.993 1.993 0 0 0 1.004-1.565 1.853 1.853 0 0 0-.245-1.152 2.01 2.01 0 0 0-2.718-.759 2.012 2.012 0 0 0-.759 2.717 2.01 2.01 0 0 0 2.718.76m-.031 15.561a1.988 1.988 0 0 0-2.718.748 1.988 1.988 0 0 0 .749 2.718 1.988 1.988 0 0 0 2.718-.748c.147-.267.236-.532.247-.817a1.994 1.994 0 0 0-.996-1.9M37.862 17.4a1.985 1.985 0 0 0 2.284 1.634 1.974 1.974 0 0 0 1.654-1.772c.02-.178 0-.334-.02-.512a1.984 1.984 0 0 0-2.284-1.634 1.984 1.984 0 0 0-1.634 2.284m2.286 4.32a1.977 1.977 0 0 0-2.304 1.616 1.976 1.976 0 0 0 1.615 2.304 1.976 1.976 0 0 0 2.304-1.615c0-.07.02-.118.039-.178a2 2 0 0 0-1.654-2.126m-7.854-4.087a1.989 1.989 0 0 0 2.393 1.487 1.915 1.915 0 0 0 1.497-1.615c.049-.246.03-.512-.02-.778a1.988 1.988 0 0 0-2.393-1.486c-1.073.246-1.722 1.328-1.477 2.392m3.802 6.612c.02-.06.02-.108.04-.158.176-1.014-.464-1.989-1.478-2.255a1.989 1.989 0 0 0-2.413 1.437 1.989 1.989 0 0 0 1.438 2.414 1.989 1.989 0 0 0 2.413-1.438m-9.268-3.865c0 1.103.886 1.99 1.99 1.99a1.983 1.983 0 0 0 1.988-1.99c0-1.103-.886-1.99-1.988-1.99-1.104 0-1.99.887-1.99 1.99M124.663 39.524h5.075v.997h-3.962v2.706h3.677v.996h-3.677v2.927h3.975v.997h-5.088v-8.623zm-5.515 8.752c-.828 0-1.825-.155-2.563-.453l.18-.906c.791.246 1.62.375 2.409.375 1.385 0 1.67-.362 1.67-1.346 0-1.165-.013-1.269-1.787-1.671-2.083-.466-2.33-.866-2.33-2.654 0-1.501.621-2.227 2.758-2.227.751 0 1.644.104 2.33.286l-.09.944a10.566 10.566 0 0 0-2.214-.246c-1.411 0-1.67.285-1.67 1.282 0 1.192 0 1.243 1.709 1.67 2.291.57 2.408.907 2.408 2.59 0 1.501-.44 2.356-2.81 2.356zm-6.382-.13h1.113v-8.622h-1.113v8.623zm-5.76-7.625h-2.136v3.522h2.137c1.06 0 1.423-.299 1.423-1.14V41.66c0-.854-.362-1.139-1.423-1.139zm-.026 4.505h-2.11v3.12h-1.114v-8.622h3.289c1.851 0 2.499.802 2.499 2.123v1.243c0 1.023-.376 1.722-1.373 2.007l2.24 3.25h-1.281l-2.15-3.12zm-8.116-4.505h-1.969v3.547h1.97c1.06 0 1.423-.298 1.423-1.139V41.66c0-.854-.363-1.139-1.424-1.139zm-3.082-.997h3.12c1.852 0 2.5.802 2.5 2.123v1.282c0 1.334-.648 2.136-2.5 2.136h-2.007v3.082h-1.113v-8.623zm-5.695.997H87.95v3.522h2.137c1.06 0 1.424-.299 1.424-1.14V41.66c0-.854-.363-1.139-1.424-1.139zm-.026 4.505h-2.11v3.12h-1.114v-8.622h3.288c1.852 0 2.5.802 2.5 2.123v1.243c0 1.023-.376 1.722-1.374 2.007l2.24 3.25H92.21l-2.15-3.12zm-10.979-5.502h5.076v.997h-3.962v2.706h3.677v.996h-3.677v2.927h3.974v.997h-5.088v-8.623zm-5.812.997h-2.576v-.997h6.266v.997h-2.576v7.626H73.27V40.52zm-9.98.285v7.34h-1.062v-8.622h1.528l3.755 7.38v-7.38h1.061v8.623h-1.528l-3.754-7.341zm-8.817-1.282h5.076v.997h-3.962v2.706h3.678v.996h-3.678v2.927h3.975v.997h-5.089v-8.623z"/>
        <path d="M16.102 20.39a4.303 4.303 0 0 0 4.32 4.305c2.39-.008 4.323-1.932 4.305-4.322 0-2.389-1.93-4.304-4.32-4.304a4.303 4.303 0 0 0-4.305 4.32"/>
    </g>
</svg>
