<svg width="400" height="200" viewBox="0 0 400 200" fill="none" xmlns="http://www.w3.org/2000/svg">
<path d="M27.8556 0C27.8628 0.0142988 27.87 0.0357469 27.8845 0.0428963C29.1079 0.350319 29.7377 1.27974 30.2951 2.29495C34.0521 9.1655 37.8092 16.0361 41.5734 22.9066C45.6128 30.2776 49.6521 37.6486 53.6842 45.0268C53.9955 45.5987 54.2706 46.1921 54.5891 46.8356C54.3937 46.857 54.2706 46.8785 54.1475 46.8785C52.5405 46.8856 50.9262 46.8213 49.3264 46.9071C47.8424 46.9857 46.9592 46.3137 46.2932 45.0768C44.0998 40.9874 41.8485 36.9194 39.6189 32.8442C35.804 25.8736 31.9963 18.903 28.1813 11.9323C27.9207 11.4604 27.6312 11.01 27.3199 10.4953C27.2041 10.6955 27.1172 10.8313 27.0376 10.9743C20.8989 22.1774 14.7675 33.3804 8.62885 44.5764C8.41892 44.9624 8.18004 45.3413 7.9122 45.6917C7.4489 46.2994 6.84083 46.7069 6.08798 46.8999C6.01559 46.9214 5.9432 46.9643 5.87081 47C3.91629 47 1.95452 47 -3.53466e-06 47C0.0868642 46.807 0.152015 46.6068 0.253361 46.4209C3.40955 40.6299 6.55851 34.8318 9.72194 29.0479C14.5865 20.1469 19.4584 11.2603 24.3229 2.35929C24.3809 2.2592 24.4388 2.15911 24.4894 2.05902C24.9962 1.101 25.6549 0.314573 26.7697 0.0214481C27.1244 0 27.4864 0 27.8556 0Z" transform="translate(253.261 76)" fill="white"/>
<path d="M27.9424 46.8999C27.6022 46.8713 27.2547 46.8141 26.9145 46.8141C26.1182 46.8141 25.5029 46.4852 25.0469 45.8632C24.779 45.4915 24.5401 45.0983 24.3157 44.6907C20.0302 36.8407 15.7375 28.9979 11.4448 21.1479C7.95563 14.7706 4.46645 8.39337 0.977269 2.00897C0.694949 1.49422 0.434331 0.958016 0.166489 0.436112C0.108578 0.321722 0.0723968 0.200183 7.06931e-06 3.40909e-09C0.68771 3.40909e-09 1.31026 3.40909e-09 1.93281 3.40909e-09C3.19239 0.00714938 4.45197 0.0428963 5.71155 0.0142988C6.78292 -0.00714938 7.51405 0.464709 8.0063 1.35838C8.67953 2.58092 9.35276 3.80347 10.026 5.02601C17.4821 18.667 24.9383 32.3009 32.3872 45.9419C32.5247 46.1993 32.6695 46.4495 32.8143 46.7069C32.8143 46.7426 32.8143 46.7712 32.8143 46.807C32.5537 46.8141 32.2931 46.8141 32.0325 46.8213C31.533 46.8427 31.0262 46.8713 30.5268 46.8999C29.6726 46.8999 28.8039 46.8999 27.9424 46.8999Z" transform="translate(291.186 76.0858)" fill="white"/>
<path d="M0 20.4846C0.166496 20.4131 0.340232 20.3631 0.49225 20.2773C1.59257 19.6339 2.68566 18.9904 3.77874 18.3398C3.92352 18.254 4.0683 18.1754 4.20584 18.0968C4.98041 19.3193 6.03007 20.2702 7.11591 21.1781C7.41271 21.4284 7.79637 21.5928 8.15832 21.7358C9.7509 22.3792 11.4014 22.5222 13.0881 22.2434C14.0291 22.0861 14.8399 21.65 15.4624 20.9208C16.2008 20.0557 16.3022 19.1406 15.7303 18.1468C15.1439 17.1173 14.2608 16.4095 13.1243 16.0592C12.2049 15.7804 11.2638 15.5945 10.33 15.3657C8.50579 14.9296 6.73948 14.3147 5.06728 13.4711C4.19137 13.0278 3.40232 12.4559 2.73633 11.7338C1.48399 10.3611 1.00622 8.73822 1.22339 6.92227C1.29578 6.29313 1.43332 5.65684 1.63601 5.05629C2.46849 2.6255 4.27099 1.20277 6.68157 0.430642C7.84705 0.0588748 9.04872 -0.012619 10.2649 0.00167979C12.1325 0.0231279 13.9712 0.209011 15.723 0.9025C16.9392 1.38151 18.0323 2.03925 18.9806 2.93292C19.4728 3.39763 19.9651 3.86234 20.4501 4.3342C20.6383 4.51294 20.8048 4.72027 21.0292 4.96335C19.7262 6.0143 18.4449 7.04382 17.1853 8.05188C16.237 7.27974 15.3177 6.50761 14.3694 5.77837C13.1677 4.84896 11.7995 4.3485 10.2576 4.47004C9.22245 4.54868 8.28139 4.8847 7.50681 5.59964C6.67433 6.37177 6.52231 7.26544 7.03628 8.27351C7.53577 9.25297 8.33206 9.91786 9.3238 10.3754C10.4748 10.9116 11.7199 11.1261 12.9578 11.3549C13.8047 11.5122 14.6589 11.648 15.4914 11.8625C17.4025 12.3558 18.9661 13.3925 20.1605 14.9439C22.6146 18.1182 21.8545 21.5999 19.5887 23.9735C18.5535 25.0602 17.2577 25.7537 15.8244 26.1898C13.1387 27.0049 10.4024 27.1336 7.67331 26.4687C4.47369 25.6751 2.06311 23.7662 0.325754 21.0065C0.231647 20.8564 0.108585 20.7206 0 20.5847C0 20.549 0 20.5132 0 20.4846Z" transform="translate(76 86.4793)" fill="white"/>
<path d="M5.66088 16.8944C5.66088 19.9257 5.66088 22.9499 5.66088 26.0098C3.75703 26.0098 1.88937 26.0098 8.83664e-07 26.0098C8.83664e-07 17.3448 8.83664e-07 8.70832 8.83664e-07 0.000375797C0.456056 0.000375797 0.883154 0.000375797 1.31025 0.000375797C3.44575 0.00752517 5.58849 -0.0210719 7.72399 0.0432725C9.9174 0.107617 12.0891 0.372143 14.1739 1.10853C14.6734 1.28726 15.1657 1.48745 15.6362 1.73052C17.9309 2.88872 19.2557 4.73326 19.6466 7.24269C19.8855 8.77266 19.7479 10.2812 19.2484 11.7468C18.4811 14.006 16.932 15.5145 14.6806 16.351C12.8781 17.023 11.0177 17.2375 9.11387 17.166C7.98459 17.116 6.86255 16.9873 5.66088 16.8944ZM5.68983 12.6548C5.76222 12.6762 5.80566 12.7048 5.84909 12.7048C7.49234 12.7048 9.13558 12.7549 10.7716 12.6834C12.0601 12.6262 13.0084 11.947 13.5876 10.7888C13.9712 10.0167 14.0653 9.19447 13.9785 8.3437C13.7685 6.27038 12.3425 4.97634 10.2431 4.96204C8.88222 4.95489 7.52129 4.96204 6.16037 4.96204C6.00111 4.96204 5.84185 4.98349 5.6826 4.99064C5.68983 7.59301 5.68983 10.1239 5.68983 12.6548Z" transform="translate(125.601 86.4877)" fill="white"/>
<path d="M23.2443 25.9951C21.4925 25.9951 19.8203 25.9951 18.1047 25.9951C17.4387 24.2149 16.7799 22.4347 16.1067 20.6259C13.0663 20.6259 10.0187 20.6259 6.94941 20.6259C6.28343 22.4061 5.62468 24.1863 4.95146 25.9808C3.31545 25.9808 1.70116 25.9808 4.41832e-07 25.9808C2.9897 17.3015 5.97215 8.65075 8.95461 4.36363e-07C10.7499 4.36363e-07 12.5017 4.36363e-07 14.297 4.36363e-07C17.2649 8.6436 20.2402 17.2872 23.2443 25.9951ZM11.662 7.74992C11.633 7.74992 11.5968 7.74992 11.5679 7.74992C10.5906 10.7455 9.60612 13.734 8.61438 16.7724C10.5906 16.7724 12.48 16.7724 14.4345 16.7724C13.5079 13.734 12.5813 10.7455 11.662 7.74992Z" transform="translate(99.0633 86.5167)" fill="white"/>
<path d="M23.2371 25.988C21.478 25.988 19.8058 25.988 18.1047 25.988C17.4387 24.2006 16.7727 22.4133 16.0995 20.6117C13.0446 20.6117 10.026 20.6117 6.95666 20.6117C6.29067 22.3918 5.62468 24.1863 4.95145 25.9808C3.30821 25.9808 1.69392 25.9808 3.53466e-06 25.9808C2.99694 17.2872 5.97216 8.65075 8.94737 4.36363e-07C10.7209 4.36363e-07 12.48 4.36363e-07 14.2897 4.36363e-07C17.2577 8.6293 20.2329 17.2657 23.2371 25.988ZM11.6765 7.79997C11.633 7.79997 11.5968 7.79282 11.5534 7.79282C10.5761 10.7741 9.5844 13.7554 8.62162 16.751C10.5979 16.751 12.4872 16.751 14.4273 16.751C13.5079 13.734 12.5886 10.767 11.6765 7.79997Z" transform="translate(156.338 86.5167)" fill="white"/>
<path d="M5.07452 24.4795C5.07452 25.0157 5.07452 25.4661 5.07452 25.9594C3.3806 25.9594 1.70839 25.9594 -3.53465e-06 25.9594C-3.53465e-06 17.3158 -3.53465e-06 8.67934 -3.53465e-06 0C1.66496 0 3.33717 0 5.08176 0C5.08176 3.23152 5.08176 6.45589 5.08176 9.75175C5.18311 9.66596 5.23377 9.64451 5.24825 9.60876C6.01558 8.17889 7.28965 7.4997 8.83879 7.27092C10.5761 7.02069 12.2411 7.32811 13.7975 8.14314C14.6227 8.5721 15.2887 9.1655 15.8244 9.91619C16.7727 11.2603 17.3156 12.7616 17.5762 14.3631C17.8585 16.1147 17.9237 17.8806 17.7065 19.6465C17.5618 20.7761 17.2215 21.8485 16.6569 22.8494C15.5566 24.8083 13.8482 25.9522 11.662 26.4098C9.7871 26.803 7.99906 26.5456 6.36306 25.5233C5.92872 25.2444 5.5523 24.8655 5.07452 24.4795ZM5.08176 13.162C5.08176 13.3908 5.08176 13.5481 5.08176 13.7125C5.08176 15.936 5.09623 18.1594 5.06728 20.39C5.06004 20.8762 5.25549 21.1479 5.63916 21.3766C6.47888 21.8771 7.39823 22.1059 8.37549 22.1774C9.79433 22.2775 10.8005 21.6698 11.4521 20.4472C11.5896 20.1898 11.7127 19.9182 11.8068 19.6393C12.2266 18.4311 12.3352 17.1728 12.2049 15.9145C12.1036 14.9779 11.7923 14.0986 11.2277 13.3264C10.5327 12.3827 9.6206 11.8322 8.41169 11.8394C7.13763 11.8537 6.11693 12.4685 5.08176 13.162Z" transform="translate(209.067 86.5453)" fill="white"/>
<path d="M17.915 18.927C15.9967 18.927 14.1435 18.927 12.2831 18.927C11.8849 18.2121 11.7908 17.4328 11.6895 16.5892C11.5157 16.7393 11.3782 16.8465 11.2479 16.9609C9.97384 18.0619 8.56224 18.9413 6.89004 19.3202C4.66767 19.8207 2.75657 19.2058 1.15676 17.6401C0.230168 16.7321 -0.044906 15.5525 0.00576686 14.2942C0.0419617 13.3362 0.295319 12.4211 0.722418 11.556C1.34497 10.2906 2.27156 9.33254 3.56734 8.71769C4.81968 8.1243 6.12271 7.73108 7.50535 7.57379C8.91695 7.40936 10.3285 7.20917 11.7546 7.03044C12.0876 6.17251 11.7184 5.12156 10.8932 4.62825C10.4733 4.37802 10.01 4.26363 9.52502 4.22789C7.84558 4.0992 6.31091 4.57106 4.87035 5.37179C4.24056 5.72211 3.66145 6.16537 2.99547 6.60148C2.23537 5.66491 1.45357 4.69975 0.6428 3.69168C0.881686 3.43431 1.09161 3.16263 1.34498 2.93385C2.65523 1.71131 4.21884 0.960621 5.93448 0.481613C7.89624 -0.0617399 9.87973 -0.168981 11.8849 0.28143C14.7588 0.917724 16.431 2.68362 16.9956 5.50762C17.249 6.76591 17.3142 8.0385 17.3142 9.31824C17.3142 11.5917 17.3286 13.8724 17.3069 16.1459C17.2997 16.9681 17.4734 17.7331 17.763 18.4909C17.7992 18.6196 17.8426 18.734 17.915 18.927ZM11.8198 9.85444C10.5168 10.0475 9.29337 10.2548 8.13514 10.7195C7.60669 10.934 7.09272 11.2128 6.60771 11.5203C6.05755 11.8777 5.65941 12.3853 5.45672 13.0145C5.22507 13.7366 5.44224 14.3371 6.09375 14.7518C6.56428 15.052 7.08548 15.1807 7.63564 15.2451C9.14858 15.4167 10.3647 14.7446 11.523 13.9224C11.7546 13.758 11.827 13.5221 11.8198 13.2361C11.8053 12.321 11.8125 11.4059 11.8125 10.4907C11.8198 10.2977 11.8198 10.1047 11.8198 9.85444Z" transform="translate(229.786 93.5848)" fill="white"/>
<path d="M3.53465e-06 19.1077C3.53465e-06 12.9736 3.53465e-06 6.86085 3.53465e-06 0.719531C1.92557 0.719531 3.82942 0.719531 5.80566 0.719531C5.83461 1.52026 5.80566 2.32814 5.91424 3.17892C6.03006 3.05738 6.14589 2.92869 6.26171 2.80715C7.14487 1.86343 8.11489 1.02695 9.30932 0.483601C10.2721 0.0474895 11.0756 -0.0883486 11.9081 0.0546389C12.0239 0.39066 12.0529 4.65169 11.9371 5.25938C11.814 5.21649 11.6909 5.18074 11.5751 5.145C10.7933 4.90907 10.0332 4.98771 9.2876 5.27368C7.90496 5.79559 6.81911 6.71786 5.81289 7.80456C5.81289 11.5508 5.81289 15.3114 5.81289 19.1077C3.85837 19.1077 1.94729 19.1077 3.53465e-06 19.1077Z" transform="translate(183.267 93.3898)" fill="white"/>
<path d="M-1.76733e-06 18.3667C-1.76733e-06 12.2397 -1.76733e-06 6.13416 -1.76733e-06 -4.36363e-07C1.81698 -4.36363e-07 3.61224 -4.36363e-07 5.43647 -4.36363e-07C5.43647 6.11987 5.43647 12.2254 5.43647 18.3239C5.09623 18.4382 0.818002 18.474 -1.76733e-06 18.3667Z" transform="translate(198.816 94.1165)" fill="white"/>
<path d="M1.76733e-06 -2.18182e-07C1.80974 -2.18182e-07 3.59777 -2.18182e-07 5.41475 -2.18182e-07C5.41475 1.43702 5.41475 2.84545 5.41475 4.28963C3.61224 4.28963 1.82422 4.28963 1.76733e-06 4.28963C1.76733e-06 2.87405 1.76733e-06 1.46562 1.76733e-06 -2.18182e-07Z" transform="translate(198.838 86.5239)" fill="white"/>
<path d="M11.1335 4.36363e-07C12.3714 2.26635 13.5803 4.48266 14.8037 6.71326C14.7385 6.84195 14.6806 6.97779 14.6155 7.10648C12.3642 11.153 10.1056 15.1924 7.876 19.2533C7.39823 20.1255 6.73948 20.5473 5.71878 20.5259C3.81493 20.4901 1.90384 20.5187 -7.06931e-06 20.5187C0.0506657 20.1469 10.33 1.20824 11.1335 4.36363e-07Z" transform="translate(269.454 102.353)" fill="white"/>
</svg>
