<svg width="144" height="71" viewBox="0 0 144 71" fill="none" xmlns="http://www.w3.org/2000/svg">
<path d="M4.28154e-09 9.33835C4.28154e-09 4.20582 3.66345 0 9.5537 0C15.7313 0 19.1074 4.41968 19.1074 9.55221C19.1074 15.255 14.9411 18.6767 9.62554 18.6767C3.87895 18.6767 4.28154e-09 14.8273 4.28154e-09 9.33835Z" fill="#00BECA"/>
<path d="M0 1.49699C0 0.641565 0.502827 0 1.50848 0H17.5989C18.4609 0 19.0356 0.641565 19.0356 1.49699V25.9478C19.0356 30.0823 21.406 34.9297 28.8048 34.9297C35.988 34.9297 39.7233 30.51 39.7233 21.4568V19.5321L47.3375 33.9317L48.3432 38.8504C48.3432 38.8504 40.8726 46.0502 27.2963 46.0502C20.5441 46.0502 0.0718324 44.9809 0.0718324 22.74V1.49699H0Z" transform="translate(0.0718384 24.9498)" fill="#00BECA"/>
<path d="M-2.19215e-06 25.1637L7.61423 5.63153L10.0565 3.20783V6.62952C10.0565 14.8273 14.0791 21.1717 24.4948 21.1717C33.9767 21.1717 40.6571 15.8253 40.6571 7.55623C40.6571 3.3504 38.574 5.43862e-07 38.574 5.43862e-07L49.3488 5.34639L50.2827 18.3203C50.2827 18.3203 43.0994 32.2922 22.9145 32.2922C7.18323 32.2922 -2.19215e-06 25.1637 -2.19215e-06 25.1637Z" transform="translate(48.3432 38.6365)" fill="#8C7B11"/>
<path d="M8.61988 59.0241C8.61988 59.0241 5.48037e-07 52.4659 5.48037e-07 40.2761V5.2751C5.48037e-07 2.49498 1.79581 -1.35966e-07 9.48187 -1.35966e-07C17.8144 -1.35966e-07 18.7482 3.20783 18.7482 5.63153V20.1737H33.5457C34.6232 20.1737 35.0542 20.8153 35.0542 21.742V30.4388C35.0542 31.2229 34.695 31.9357 33.7612 31.9357H23.8483C21.3342 31.9357 18.6764 30.9377 18.6764 30.9377V36.7831C18.6764 44.1255 16.8088 51.6104 8.61988 59.0241Z" transform="translate(39.7233 4.77609)" fill="black"/>
<path d="M-2.19215e-06 32.6197L2.37047 7.02837L3.44795 2.60869C3.44795 2.60869 8.11706 9.38078 20.0412 31.194C27.5836 17.5073 32.4682 1.18299 32.4682 1.18299C32.8274 0.0424231 33.6894 -0.171432 34.9824 0.113708L43.1713 2.60869C44.1769 2.96511 44.6797 3.32154 44.1769 5.17495C37.3528 24.7784 26.7216 41.0314 26.7216 41.0314C24.6385 44.0253 22.5554 46.5916 15.6595 46.5916C10.0565 46.5916 8.11706 44.7382 6.17759 41.8155L-2.19215e-06 32.6197Z" transform="translate(98.6258 24.3371)" fill="#FFAB00"/>
<path d="M14.0791 32.9337L1.36481 12.9739C0.574659 11.5482 -1.09607e-06 10.6928 -1.09607e-06 8.98193C-1.09607e-06 6.48695 1.29298 4.70482 5.67476 1.99598C6.60858 1.35442 10.0565 5.43862e-07 12.858 5.43862e-07C16.5933 5.43862e-07 19.3947 3.8494 19.3947 11.9046C19.3947 25.0924 14.0791 32.9337 14.0791 32.9337Z" transform="translate(84.5467 24.0231)" fill="#C80063"/>
</svg>
