<svg width="400" height="200" viewBox="0 0 400 200" fill="none" xmlns="http://www.w3.org/2000/svg">
<path d="M0 5.56952C0 2.28493 2.71155 0 5.99395 0C8.99093 0 11.5598 2.28493 11.5598 5.56952C11.5598 8.56849 8.84822 11.139 5.99395 11.139C2.56883 11.2818 0 8.56849 0 5.56952Z" transform="translate(268.158)" fill="white"/>
<path d="M8.71053e-06 17.5654H0.285431C6.27939 9.28253 12.8442 3.71301 18.1246 1.7137C17.8392 0.999657 17.8392 0.71404 17.8392 -1.36192e-07C12.1306 2.71335 5.56583 8.99691 8.71053e-06 17.5654Z" transform="translate(248.321 6.56915)" fill="white"/>
<path d="M43.1936 1.7137C46.1905 8.71129 43.479 23.2777 35.9152 37.8441C25.9252 56.1236 12.0821 67.4054 4.8037 63.4068C0.807726 61.4075 0.807712 54.1243 2.09213 45.8414H1.37857C-0.61942 55.4095 -0.904838 64.1208 3.66199 66.4058C11.2258 70.4044 26.2107 57.8373 36.7715 37.8441C44.7634 22.9921 48.0458 7.99725 45.7624 -1.36192e-07C44.9061 0.71404 44.1926 1.42808 43.1936 1.7137Z" transform="translate(233.527 10.8534)" fill="white"/>
<path d="M16.2693 -1.08954e-06H3.56783C1.42713 -1.08954e-06 2.12659e-09 1.99931 2.12659e-09 3.14178V6.71198C2.12659e-09 8.14006 1.71256 10.5678 3.56783 10.5678H14.1286C15.413 10.5678 15.8412 10.7106 16.1266 10.9962C16.412 11.2818 16.5547 11.7103 16.5547 12.7099V13.2812C16.5547 14.2808 16.412 14.5664 16.2693 14.852C15.9839 15.1377 15.5557 15.4233 14.1286 15.4233H5.85124C4.13868 15.4233 3.85326 15.1377 3.42512 14.7092C3.13969 14.4236 3.13969 13.9952 3.13969 13.1383L2.56884 12.5671H0.570853L2.12659e-09 13.1383V14.852C2.12659e-09 16.5657 1.42713 18.4222 3.56783 18.4222C4.99496 18.4222 6.85024 18.4222 8.70551 18.4222C12.4161 18.4222 16.1266 18.4222 16.1266 18.4222C18.1246 18.4222 19.6944 16.7085 19.6944 14.5664V11.2818C19.6944 9.42534 18.2673 8.14006 16.412 8.14006H5.85124C4.2814 8.14006 3.85326 7.99725 3.42512 7.56883C2.99698 6.9976 2.71155 6.42637 2.71155 5.56952V4.85548C2.71155 4.14144 2.85427 3.71301 3.28241 3.28459C3.85326 2.85616 4.99496 2.71336 5.70853 2.71336H14.1286C15.1276 2.71336 15.6985 2.85616 16.1266 3.28459C16.5547 3.71301 16.5547 3.99863 16.5547 4.85548L17.1256 5.42671H19.1236L19.6944 4.85548V2.99897C19.5517 1.57089 17.9819 -1.08954e-06 16.2693 -1.08954e-06Z" transform="translate(0 32.5602)" fill="white"/>
<path d="M15.8412 -1.08954e-06H0.570853L5.44408e-07 0.571234V17.137L0.570853 17.7082H2.85427L3.42512 17.137V10.9962H15.8412C17.5537 10.8534 18.2673 10.1394 18.9809 9.28253C19.409 8.56849 19.409 7.99725 19.409 5.99794V5.42671C19.409 3.14178 19.409 2.42774 18.8381 1.57089C18.1246 0.571232 17.1256 0.142807 15.8412 -1.08954e-06ZM16.5547 4.28424V6.85479C16.5547 7.28321 16.412 7.42602 16.1266 7.71164C15.6985 7.99725 14.9849 8.28287 14.1286 8.28287H3.42512V2.71336H12.5588C12.9869 2.71336 13.5578 2.71336 14.1286 2.71336C15.413 2.71336 15.6985 2.85616 16.1266 3.28459C16.2693 3.4274 16.5547 3.85582 16.5547 4.28424Z" transform="translate(27.1155 32.5602)" fill="white"/>
<path d="M12.7015 -1.08954e-06H9.7045L9.27636 0.285616L-1.08882e-06 16.8514L0.428138 17.7082H2.71155L3.13969 17.4226L5.28039 13.9952H12.2733L12.8442 13.2812L11.8452 11.2818L11.2743 10.9962H6.99295L11.2743 2.99897L19.409 17.4226L19.9799 17.7082H22.2633L22.6914 16.8514L13.1296 0.285616L12.7015 -1.08954e-06Z" transform="translate(48.808 32.5602)" fill="white"/>
<path d="M4.35526e-06 17.9938H17.9819V14.852H3.42511V10.425H17.2683V7.28321H3.42511V3.14178H17.9819V1.08954e-06H4.35526e-06V17.9938Z" transform="translate(105.18 32.4175)" fill="white"/>
<path d="M4.35526e-06 17.9938H3.42511V10.425H16.412V7.28321H3.42511V3.14178H16.9829V1.08954e-06H4.35526e-06V17.9938Z" transform="translate(131.582 32.4175)" fill="white"/>
<path d="M3.42511 1.08954e-06H4.35526e-06V17.9938H16.6975V14.852H3.42511V1.08954e-06Z" transform="translate(155.129 32.4175)" fill="white"/>
<path d="M0.570851 -1.08954e-06L-4.35526e-06 0.571234V17.137L0.570851 17.7082H2.56884L3.13969 17.137V0.571234L2.56884 -1.08954e-06H0.570851Z" transform="translate(177.821 32.5602)" fill="white"/>
<path d="M17.2683 5.4477e-07H6.85023H6.42211C5.2804 5.4477e-07 3.99597 0 2.71155 0.571232C1.14171 1.28527 0.428149 1.99931 8.71053e-06 3.99863V13.7096C8.71053e-06 14.9949 0.428131 16.2801 1.1417 16.8514C1.56984 17.2798 2.42613 18.1366 3.85326 18.2794C4.70954 18.2794 5.2804 18.2794 5.70854 18.2794C6.27939 18.2794 6.70752 18.2794 6.99295 18.2794C7.42109 18.2794 7.70652 18.2794 8.13466 18.2794H17.5537C19.2663 18.1366 19.9799 17.7082 20.5507 17.137C21.2643 16.4229 21.5497 15.5661 21.5497 14.138V9.13972L20.9789 8.56849H10.7035L10.1326 9.13972V10.8534L10.7035 11.4246H18.41V13.424C18.41 14.2808 18.41 14.5664 17.9819 14.9948C17.5537 15.4233 17.411 15.5661 15.5557 15.5661C13.8432 15.5661 13.2723 15.5661 13.2723 15.5661H5.70854C4.56683 15.4233 3.99598 15.2805 3.56784 14.7092C2.99699 14.138 2.85427 13.424 2.85427 11.8531V6.56917C2.85427 6.28356 2.85427 6.14075 2.85427 5.85513C2.85427 4.99828 2.85427 4.28424 3.1397 3.85582C3.42512 3.42739 3.99598 2.85616 5.70854 2.85616H15.5557C17.5537 2.85616 18.1246 3.42739 18.2673 4.14144C18.41 4.56986 18.41 4.99828 18.41 5.71233C18.41 5.85513 18.41 6.14075 18.41 6.42637L18.9809 6.9976H20.9789L21.5497 6.42637V4.42705C21.5497 3.4274 21.5497 2.42774 20.8361 1.57089C20.2653 0.428425 19.1236 5.4477e-07 17.2683 5.4477e-07Z" transform="translate(189.095 32.2746)" fill="white"/>
<path d="M17.2683 7.28321H3.71054V1.08954e-06H8.71053e-06V17.9938H3.71054V10.425H17.2683V17.9938H20.9789V1.08954e-06H17.2683V7.28321Z" transform="translate(219.065 32.4175)" fill="white"/>
<path d="M-4.35526e-06 1.08954e-06V3.14178H8.27737V17.9938H11.7025V3.14178H19.9799V1.08954e-06H-4.35526e-06Z" transform="translate(244.896 32.4175)" fill="white"/>
<path d="M17.2683 5.4477e-07H6.85024H6.4221C5.28039 5.4477e-07 3.99597 0 2.71155 0.571232C1.14171 1.28527 0.42814 1.99931 0 3.99863V13.7096C0 14.9949 0.428139 16.2801 1.14171 16.8514C1.56984 17.2798 2.42613 18.1366 3.85326 18.2794C4.70954 18.2794 5.28039 18.2794 5.70853 18.2794C6.27938 18.2794 6.70753 18.2794 6.99295 18.2794C7.42109 18.2794 7.70652 18.2794 8.13466 18.2794H17.5537C19.2663 18.1366 19.9799 17.7082 20.5507 17.137C21.2643 16.4229 21.5497 15.5661 21.5497 14.138V11.7103L20.9788 11.139H18.9809L18.5527 11.8531V13.424C18.5527 14.2808 18.5527 14.5664 18.1246 14.9948C17.6964 15.4233 17.5537 15.5661 15.6985 15.5661C13.9859 15.5661 13.415 15.5661 13.415 15.5661H5.85124C4.70954 15.4233 4.13868 15.2805 3.71054 14.7092C3.13969 14.138 2.99698 13.424 2.99698 11.8531V6.56917C2.99698 6.28356 2.99698 6.14075 2.99698 5.85513C2.99698 4.99828 2.99698 4.28424 3.2824 3.85582C3.56783 3.42739 4.13868 2.85616 5.85124 2.85616H15.6985C17.6964 2.85616 18.2673 3.42739 18.41 4.14144C18.5527 4.42705 18.5527 4.85548 18.5527 5.56952C18.5527 5.71232 18.5527 5.99794 18.5527 6.28356L19.1236 6.85479H21.1216L21.6924 6.28356V4.28424C21.6924 3.28459 21.5497 2.28493 20.9788 1.42808C20.2653 0.428425 19.1236 5.4477e-07 17.2683 5.4477e-07Z" transform="translate(75.4954 32.2746)" fill="white"/>
</svg>
