<?xml version="1.0" encoding="UTF-8" standalone="no"?>
<!-- Created with Inkscape (http://www.inkscape.org/) -->

<svg
   width="111.16838mm"
   height="73.190125mm"
   viewBox="0 0 111.16838 73.190125"
   version="1.1"
   id="svg159017"
   inkscape:export-filename="C:\Users\Jared Kirschner\Documents\Diagrams\consistency-modes\consistency-mode-stale.png"
   inkscape:export-xdpi="467.93161"
   inkscape:export-ydpi="467.93161"
   inkscape:version="1.1 (c68e22c387, 2021-05-23)"
   sodipodi:docname="consistency-mode-stale.svg"
   xmlns:inkscape="http://www.inkscape.org/namespaces/inkscape"
   xmlns:sodipodi="http://sodipodi.sourceforge.net/DTD/sodipodi-0.dtd"
   xmlns="http://www.w3.org/2000/svg"
   xmlns:svg="http://www.w3.org/2000/svg">
  <sodipodi:namedview
     id="namedview159019"
     pagecolor="#ffffff"
     bordercolor="#666666"
     borderopacity="1.0"
     inkscape:pageshadow="2"
     inkscape:pageopacity="0.0"
     inkscape:pagecheckerboard="0"
     inkscape:document-units="mm"
     showgrid="false"
     fit-margin-top="0"
     fit-margin-left="0"
     fit-margin-right="0"
     fit-margin-bottom="0"
     inkscape:zoom="1.5999719"
     inkscape:cx="223.44142"
     inkscape:cy="142.81501"
     inkscape:window-width="2560"
     inkscape:window-height="1377"
     inkscape:window-x="1912"
     inkscape:window-y="-8"
     inkscape:window-maximized="1"
     inkscape:current-layer="layer1" />
  <defs
     id="defs159014">
    <marker
       style="overflow:visible"
       id="Arrow1Send"
       refX="0"
       refY="0"
       orient="auto"
       inkscape:stockid="Arrow1Send"
       inkscape:isstock="true">
      <path
         transform="matrix(-0.2,0,0,-0.2,-1.2,0)"
         style="fill:context-stroke;fill-rule:evenodd;stroke:context-stroke;stroke-width:1pt"
         d="M 0,0 5,-5 -12.5,0 5,5 Z"
         id="path539056" />
    </marker>
    <marker
       style="overflow:visible"
       id="marker158842"
       refX="0"
       refY="0"
       orient="auto"
       inkscape:stockid="Arrow1Send"
       inkscape:isstock="true">
      <path
         transform="matrix(-0.2,0,0,-0.2,-1.2,0)"
         style="fill:context-stroke;fill-rule:evenodd;stroke:context-stroke;stroke-width:1pt"
         d="M 0,0 5,-5 -12.5,0 5,5 Z"
         id="path158840" />
    </marker>
    <marker
       style="overflow:visible"
       id="marker158846"
       refX="0"
       refY="0"
       orient="auto"
       inkscape:stockid="Arrow1Send"
       inkscape:isstock="true">
      <path
         transform="matrix(-0.2,0,0,-0.2,-1.2,0)"
         style="fill:context-stroke;fill-rule:evenodd;stroke:context-stroke;stroke-width:1pt"
         d="M 0,0 5,-5 -12.5,0 5,5 Z"
         id="path158844" />
    </marker>
  </defs>
  <g
     inkscape:label="Layer 1"
     inkscape:groupmode="layer"
     id="layer1"
     transform="translate(-32.700359,-42.368038)">
    <rect
       style="fill:#ffffff;fill-opacity:1;stroke:none;stroke-width:2.12949;stroke-linecap:round;paint-order:markers stroke fill"
       id="rect21404"
       width="122.2375"
       height="84.269791"
       x="27.848949"
       y="37.241497" />
    <text
       xml:space="preserve"
       style="font-size:2.51772px;line-height:1.25;font-family:'Open Sans';-inkscape-font-specification:'Open Sans, Normal';font-variant-ligatures:none;stroke-width:0.104905"
       x="35.010433"
       y="51.554611"
       id="text444602-2-4-6-6-7-5-0"
       inkscape:export-filename="C:\Users\Jared Kirschner\Documents\Diagrams\consistency-modes-draft.png"
       inkscape:export-xdpi="488.02902"
       inkscape:export-ydpi="488.02902"><tspan
         sodipodi:role="line"
         style="font-style:normal;font-variant:normal;font-weight:300;font-stretch:normal;font-family:'Open Sans';-inkscape-font-specification:'Open Sans Light';stroke-width:0.104905"
         x="35.010433"
         y="51.554611"
         id="tspan183909-7-6-6-9-8-8">PROCESS</tspan></text>
    <rect
       style="fill:#eeeeee;fill-opacity:1;stroke-width:0.280346;stroke-linecap:round;stroke-opacity:0.121212;paint-order:markers stroke fill"
       id="rect154299-79-2-2-6-2"
       width="10.691654"
       height="4.640625"
       x="33.996166"
       y="42.368038"
       ry="0" />
    <text
       xml:space="preserve"
       style="font-style:normal;font-variant:normal;font-weight:normal;font-stretch:normal;font-size:3.52778px;line-height:1.25;font-family:'Open Sans';-inkscape-font-specification:'Open Sans';font-variant-ligatures:none;fill:#fdb618;fill-opacity:1;stroke-width:0.184208"
       x="35.046947"
       y="45.916187"
       id="text485184-41-0-3-8-2-9"
       inkscape:export-filename="C:\Users\Jared Kirschner\Documents\Diagrams\consistency-modes-draft.png"
       inkscape:export-xdpi="488.02902"
       inkscape:export-ydpi="488.02902"><tspan
         sodipodi:role="line"
         id="tspan485182-78-9-0-1-5-4"
         style="font-style:normal;font-variant:normal;font-weight:bold;font-stretch:normal;font-size:3.52778px;font-family:'Open Sans';-inkscape-font-specification:'Open Sans';fill:#fdb618;fill-opacity:1;stroke-width:0.184208"
         x="35.046947"
         y="45.916187">stale</tspan></text>
    <text
       xml:space="preserve"
       style="font-style:normal;font-variant:normal;font-weight:normal;font-stretch:normal;font-size:3.52778px;line-height:1.25;font-family:'Open Sans';-inkscape-font-specification:'Open Sans';font-variant-ligatures:none;fill:#000000;fill-opacity:0.929412;stroke-width:0.184208"
       x="45.433651"
       y="45.897236"
       id="text485184-41-0-3-8-8-2-3"
       inkscape:export-filename="C:\Users\Jared Kirschner\Documents\Diagrams\consistency-modes-draft.png"
       inkscape:export-xdpi="488.02902"
       inkscape:export-ydpi="488.02902"><tspan
         sodipodi:role="line"
         id="tspan485182-78-9-0-1-1-1-4"
         style="font-style:normal;font-variant:normal;font-weight:bold;font-stretch:normal;font-size:3.52778px;font-family:'Open Sans';-inkscape-font-specification:'Open Sans';fill:#000000;fill-opacity:0.929412;stroke-width:0.184208"
         x="45.433651"
         y="45.897236">read request path</tspan></text>
    <rect
       style="fill:#f0f0f0;fill-opacity:1;stroke-width:1.3323;stroke-linecap:round;stroke-dasharray:2.66459, 2.66459;paint-order:markers stroke fill"
       id="rect40581-7"
       width="111.16838"
       height="19.324635"
       x="32.700359"
       y="96.233528" />
    <g
       id="g95064"
       transform="translate(255.45651,-16.54518)">
      <rect
         style="fill:#ca2171;fill-opacity:1;fill-rule:evenodd;stroke-width:0.0395377"
         id="rect53-2-3-24-4-5-6-0-8-1-7-6-14-4-3-1-0-4-9-3-5-1-2-0"
         width="4.6538572"
         height="4.5403481"
         x="-219.69376"
         y="125.23278"
         rx="0.14188588"
         ry="0.14188588" />
      <g
         id="g51357-6-0-2-3-7-8-2-27-3-8-1-5-1-4-6-5-8-6-1-2-5-0"
         transform="matrix(0.12942633,0,0,0.12942633,-259.66815,122.03606)">
        <g
           id="g10468-1-5-02-2-71-1-3-6-45-1-0-2-0-8-2-7-9-9-62-6-20-5-5"
           transform="translate(255.49561,0.52274421)">
          <path
             opacity="0.7"
             fill-rule="evenodd"
             clip-rule="evenodd"
             d="m 60.894465,32.634214 c -0.210334,7.14e-4 -0.416158,-0.06114 -0.591257,-0.17769 -0.1751,-0.116554 -0.311616,-0.282544 -0.392087,-0.476891 -0.08047,-0.194346 -0.101371,-0.408253 -0.05993,-0.614478 0.0414,-0.206225 0.143215,-0.395481 0.292503,-0.543697 0.149287,-0.148216 0.339302,-0.24865 0.545796,-0.288573 0.206538,-0.03992 0.42031,-0.0175 0.614032,0.0644 0.193766,0.0819 0.358773,0.219623 0.474077,0.395571 0.115259,0.175948 0.175591,0.382218 0.173313,0.592552 5.36e-4,0.13924 -0.02639,0.277185 -0.07922,0.40602 -0.05283,0.128835 -0.130488,0.246014 -0.228599,0.34484 -0.09811,0.09878 -0.21471,0.177332 -0.343143,0.231055 -0.128478,0.05377 -0.266244,0.08168 -0.405484,0.08217"
             fill="#ffffff"
             id="path1013-1-9-2-6-0-8-4-0-3-8-5-5-7-4-7-5-9-9-4-3-64-5-6-3-4"
             style="stroke-width:0.446569" />
          <path
             fill-rule="evenodd"
             clip-rule="evenodd"
             d="m 62.957478,32.063678 c -0.0974,-4.5e-5 -0.192561,-0.02907 -0.27339,-0.08342 -0.08078,-0.05439 -0.143571,-0.131604 -0.180279,-0.221766 -0.03671,-0.09021 -0.04573,-0.189301 -0.02586,-0.284643 0.01983,-0.09534 0.06766,-0.182602 0.13732,-0.250659 0.06967,-0.06801 0.158041,-0.113786 0.25383,-0.131336 0.09579,-0.0176 0.194659,-0.0063 0.283928,0.0326 0.08931,0.03885 0.165007,0.103426 0.217434,0.185505 0.05243,0.08208 0.07922,0.177913 0.07694,0.275265 0,0.129951 -0.05162,0.254544 -0.143482,0.346448 -0.0919,0.09186 -0.216541,0.143482 -0.346448,0.143482"
             fill="#ffffff"
             id="path1015-4-5-7-8-7-5-8-2-0-1-4-8-9-79-7-8-7-33-1-8-1-0-1-4-6"
             style="stroke-width:0.446569" />
          <path
             fill-rule="evenodd"
             clip-rule="evenodd"
             d="m 64.744511,32.523241 c -0.005,0.118028 -0.05604,0.229403 -0.142187,0.310232 -0.08614,0.08083 -0.200509,0.124682 -0.318627,0.122181 -0.118117,-0.0025 -0.230563,-0.05118 -0.313178,-0.135578 -0.08266,-0.0844 -0.128925,-0.19783 -0.128925,-0.315992 0,-0.118118 0.04626,-0.231546 0.128925,-0.315992 0.08261,-0.0844 0.195061,-0.133078 0.313178,-0.135579 0.118118,-0.0025 0.232484,0.04135 0.318627,0.122226 0.08614,0.08083 0.137186,0.192203 0.142187,0.310231 0.0012,0.01273 0.0012,0.02554 0,0.03827 z"
             fill="#ffffff"
             id="path1017-9-5-43-5-5-6-9-6-2-6-5-5-6-23-6-2-2-3-8-4-4-0-9-27-4"
             style="stroke-width:0.446569" />
          <path
             fill-rule="evenodd"
             clip-rule="evenodd"
             d="m 64.40043,31.263918 c -0.09449,0.01867 -0.192381,0.0091 -0.281427,-0.0276 -0.08905,-0.03666 -0.16532,-0.09874 -0.21931,-0.178494 -0.05395,-0.07976 -0.08324,-0.173625 -0.08413,-0.269906 -9.37e-4,-0.09632 0.02657,-0.190729 0.079,-0.271513 0.05247,-0.08074 0.12754,-0.144287 0.215872,-0.182602 0.08833,-0.03836 0.185995,-0.04979 0.280847,-0.03296 0.09481,0.01688 0.182557,0.06131 0.252222,0.127719 0.06971,0.06645 0.118296,0.151967 0.139686,0.24588 0.01143,0.06328 0.01143,0.128076 0,0.191355 -0.01666,0.09543 -0.06234,0.183406 -0.130844,0.251909 -0.0685,0.0685 -0.156478,0.114233 -0.25191,0.13089"
             fill="#ffffff"
             id="path1019-7-1-0-5-6-3-4-9-4-1-6-8-0-9-4-7-2-62-6-6-94-0-1-3-8"
             style="stroke-width:0.446569" />
          <path
             fill-rule="evenodd"
             clip-rule="evenodd"
             d="m 66.138699,32.470278 c -0.02233,0.127406 -0.09436,0.240745 -0.200242,0.31501 -0.105881,0.07431 -0.236949,0.103514 -0.364355,0.08119 -0.127406,-0.02233 -0.240701,-0.09436 -0.31501,-0.200241 -0.07431,-0.105882 -0.103514,-0.23695 -0.08114,-0.364356 0.01192,-0.06243 0.03604,-0.121824 0.071,-0.174876 0.03497,-0.05305 0.08003,-0.09869 0.132676,-0.134239 0.05265,-0.03559 0.111776,-0.06038 0.174072,-0.07301 0.06225,-0.01264 0.126379,-0.01286 0.18872,-6.7e-4 0.12035,0.02063 0.228643,0.08543 0.303667,0.181708 0.07507,0.09633 0.111463,0.217167 0.102085,0.338857 -0.0022,0.01527 -0.0022,0.03072 0,0.04595"
             fill="#ffffff"
             id="path1021-1-7-8-0-3-9-4-0-4-2-2-4-8-6-7-3-4-9-7-6-0-6-7-1-8"
             style="stroke-width:0.446569" />
          <path
             fill-rule="evenodd"
             clip-rule="evenodd"
             d="m 65.744334,31.241232 c -0.09485,0.01916 -0.19323,0.0096 -0.282589,-0.02746 -0.08936,-0.03707 -0.165632,-0.09999 -0.219042,-0.180637 -0.05345,-0.0807 -0.08154,-0.175457 -0.08078,-0.272183 7.59e-4,-0.09677 0.03037,-0.191087 0.08503,-0.270889 0.05466,-0.07985 0.131916,-0.141518 0.221855,-0.177198 0.08994,-0.03568 0.188452,-0.04368 0.282991,-0.02304 0.09449,0.02068 0.180726,0.06908 0.247577,0.138972 0.06685,0.06993 0.11133,0.158264 0.127719,0.253606 0.0039,0.04202 0.0039,0.08427 0,0.12629 -0.01041,0.106774 -0.05587,0.207074 -0.129282,0.285312 -0.07337,0.07824 -0.170589,0.129997 -0.276426,0.147234"
             fill="#ffffff"
             id="path1023-5-7-9-46-55-5-89-9-3-3-3-3-2-0-0-1-8-0-6-7-17-7-8-8-3"
             style="stroke-width:0.446569" />
          <path
             fill-rule="evenodd"
             clip-rule="evenodd"
             d="m 65.399672,34.161657 c -0.05926,0.105301 -0.155406,0.185013 -0.269906,0.223775 -0.1145,0.03872 -0.239271,0.03381 -0.350378,-0.01389 -0.111061,-0.04769 -0.200554,-0.134774 -0.251328,-0.244496 -0.05078,-0.109677 -0.05917,-0.23427 -0.02362,-0.349797 0.03555,-0.115528 0.112535,-0.213862 0.216184,-0.276069 0.103649,-0.06216 0.226634,-0.08387 0.345331,-0.06087 0.118654,0.023 0.224625,0.08904 0.297549,0.18546 0.07292,0.09641 0.107623,0.216362 0.09744,0.336846 -0.0017,0.07069 -0.02286,0.139598 -0.06127,0.199036 z"
             fill="#ffffff"
             id="path1025-5-86-6-8-3-3-8-9-3-3-0-6-2-2-2-03-38-0-1-1-9-3-1-5-1"
             style="stroke-width:0.446569" />
          <path
             fill-rule="evenodd"
             clip-rule="evenodd"
             d="m 65.22301,29.671454 c -0.112804,0.06355 -0.246149,0.07994 -0.37092,0.0455 -0.124816,-0.03443 -0.230876,-0.116822 -0.295137,-0.229223 -0.03166,-0.05609 -0.05198,-0.117805 -0.0598,-0.181709 -0.0078,-0.0639 -0.0029,-0.128701 0.01429,-0.190729 0.01724,-0.06203 0.04653,-0.120038 0.08619,-0.170768 0.03965,-0.05069 0.08891,-0.09311 0.145001,-0.124772 0.05604,-0.03166 0.11776,-0.05198 0.181664,-0.0598 0.0639,-0.0078 0.128701,-0.0029 0.190729,0.01429 0.06203,0.01724 0.120038,0.04653 0.170768,0.08619 0.05069,0.03965 0.09311,0.08891 0.124771,0.144956 0.04966,0.08565 0.07109,0.184745 0.06123,0.283259 -0.0073,0.07922 -0.03376,0.15545 -0.07708,0.222167 -0.04336,0.06667 -0.102309,0.121824 -0.171705,0.160631 z"
             fill="#ffffff"
             id="path1027-5-2-34-5-95-9-3-0-1-0-9-2-7-0-9-2-6-5-6-5-0-5-7-1-8"
             style="stroke-width:0.446569" />
          <path
             d="m 60.913533,36.500917 c -0.782745,0.0037 -1.555041,-0.179565 -2.252626,-0.534632 -0.697585,-0.355022 -1.300274,-0.871523 -1.757917,-1.506543 -0.457644,-0.634976 -0.757023,-1.370118 -0.873176,-2.1442 -0.116152,-0.774037 -0.04577,-1.564642 0.205332,-2.306035 0.251106,-0.741349 0.675614,-1.412006 1.23829,-1.956194 0.562632,-0.544144 1.247088,-0.946056 1.99643,-1.172243 0.749342,-0.226232 1.541868,-0.270174 2.311618,-0.12821 0.76975,0.14192 1.494486,0.465682 2.113833,0.94427 l -0.597107,0.765552 c -0.582326,-0.445765 -1.277723,-0.719734 -2.00755,-0.790962 -0.729871,-0.07127 -1.465147,0.06305 -2.12263,0.3878 -0.657527,0.324745 -1.211094,0.826911 -1.598179,1.449785 -0.387086,0.622829 -0.592195,1.341537 -0.592195,2.074892 0,0.73331 0.205109,1.452062 0.592195,2.074892 0.387085,0.622874 0.940652,1.12504 1.598179,1.449785 0.657483,0.3247 1.392759,0.459028 2.12263,0.3878 0.729827,-0.07123 1.425224,-0.345198 2.00755,-0.790962 l 0.597107,0.784665 c -0.854018,0.658823 -1.903187,1.014381 -2.981784,1.01054 z"
             fill="#ffffff"
             id="path1029-6-6-2-4-4-7-5-5-4-8-0-4-8-7-7-5-0-7-9-9-49-7-7-1-0"
             style="stroke-width:0.446569" />
        </g>
      </g>
      <text
         xml:space="preserve"
         style="font-size:0.790022px;line-height:1.25;font-family:'Open Sans';-inkscape-font-specification:'Open Sans, Normal';font-variant-ligatures:none;fill:#ffffff;fill-opacity:1;stroke-width:0.0329175"
         x="-219.45761"
         y="129.18265"
         id="text409879-6-1-1-6-7"><tspan
           sodipodi:role="line"
           id="tspan409877-2-6-3-8-0"
           style="fill:#ffffff;fill-opacity:1;stroke-width:0.0329175"
           x="-219.45761"
           y="129.18265">FOLLOWER</tspan></text>
    </g>
    <text
       xml:space="preserve"
       style="font-style:normal;font-weight:normal;font-size:2.51772px;line-height:1.25;font-family:sans-serif;fill:#000000;fill-opacity:1;stroke:none;stroke-width:0.178672"
       x="42.022152"
       y="111.89638"
       id="text524715-4-4-4-7-7-5"><tspan
         sodipodi:role="line"
         id="tspan524713-6-3-2-9-2-5"
         style="font-style:normal;font-variant:normal;font-weight:normal;font-stretch:normal;font-size:2.51772px;font-family:'Open Sans';-inkscape-font-specification:'Open Sans';stroke-width:0.178672"
         x="42.022152"
         y="111.89638">Consul Server: Follower</tspan></text>
    <g
       id="g117084"
       transform="translate(255.34393,-17.603513)">
      <rect
         style="fill:#ffffff;fill-opacity:1;fill-rule:evenodd;stroke:#ca2171;stroke-width:0.228363;stroke-miterlimit:4;stroke-dasharray:none;stroke-opacity:1"
         id="rect53-8-1-9-9-7-0-4"
         width="4.4287148"
         height="4.3206978"
         x="-182.88535"
         y="119.93559"
         rx="0.13502181"
         ry="0.13502181" />
      <circle
         style="fill:#ca2171;fill-opacity:1;stroke:none;stroke-width:0.117473;stroke-miterlimit:4;stroke-dasharray:none;stroke-opacity:1"
         id="path1524-2-5-5-0-7-6"
         cx="-181.83546"
         cy="123.0621"
         r="0.36280435" />
    </g>
    <text
       xml:space="preserve"
       style="font-style:normal;font-weight:normal;font-size:2.51772px;line-height:1.25;font-family:sans-serif;fill:#000000;fill-opacity:1;stroke:none;stroke-width:0.178672"
       x="78.6054"
       y="105.14641"
       id="text524715-4-4-4-7-0-3"><tspan
         sodipodi:role="line"
         id="tspan524713-6-3-2-9-1-2"
         style="font-style:normal;font-variant:normal;font-weight:normal;font-stretch:normal;font-size:2.51772px;font-family:'Open Sans';-inkscape-font-specification:'Open Sans';stroke-width:0.178672"
         x="78.6054"
         y="105.14641">Consul Client Agent</tspan></text>
    <path
       style="fill:none;stroke:#648fff;stroke-width:0.75;stroke-linecap:butt;stroke-linejoin:miter;stroke-miterlimit:4;stroke-dasharray:none;stroke-opacity:1"
       d="m 107.53417,102.45126 h 7.68242"
       id="path476170-0-8-0"
       sodipodi:nodetypes="cc" />
    <path
       style="fill:none;stroke:#fe5e00;stroke-width:0.75;stroke-linecap:butt;stroke-linejoin:miter;stroke-miterlimit:4;stroke-dasharray:none;stroke-opacity:0.827451"
       d="m 107.53417,104.03877 h 7.68242"
       id="path476170-0-6-5-0"
       sodipodi:nodetypes="cc" />
    <path
       style="fill:none;stroke:#ffb000;stroke-width:0.75;stroke-linecap:butt;stroke-linejoin:miter;stroke-miterlimit:4;stroke-dasharray:none;stroke-opacity:0.827451"
       d="m 107.53417,105.62628 h 7.68242"
       id="path476170-0-6-2-05-2"
       sodipodi:nodetypes="cc" />
    <text
       xml:space="preserve"
       style="font-style:normal;font-weight:normal;font-size:2.46944px;line-height:1.25;font-family:sans-serif;fill:#000000;fill-opacity:1;stroke:none;stroke-width:0.264583"
       x="107.23091"
       y="99.919258"
       id="text504380-9-3-9"><tspan
         sodipodi:role="line"
         id="tspan504378-1-3-2"
         style="font-style:normal;font-variant:normal;font-weight:bold;font-stretch:normal;font-size:2.46944px;font-family:'Open Sans';-inkscape-font-specification:'Open Sans Bold';stroke-width:0.264583"
         x="107.23091"
         y="99.919258">Communication Paths</tspan></text>
    <text
       xml:space="preserve"
       style="font-style:normal;font-weight:normal;font-size:2.46944px;line-height:1.25;font-family:sans-serif;fill:#000000;fill-opacity:1;stroke:none;stroke-width:0.264583"
       x="35.790417"
       y="99.826477"
       id="text504380-9-7-6-8"><tspan
         sodipodi:role="line"
         id="tspan504378-1-8-1-8"
         style="font-style:normal;font-variant:normal;font-weight:bold;font-stretch:normal;font-size:2.46944px;font-family:'Open Sans';-inkscape-font-specification:'Open Sans Bold';stroke-width:0.264583"
         x="35.790417"
         y="99.826477">System Components</tspan></text>
    <g
       id="g95048"
       transform="translate(255.35915,-16.54518)">
      <rect
         style="fill:#ca2171;fill-opacity:1;fill-rule:evenodd;stroke-width:0.0393065"
         id="rect53-2-3-24-4-5-6-0-8-1-7-6-14-4-3-1-0-4-9-9-1-8"
         width="4.6266427"
         height="4.5137973"
         x="-219.58279"
         y="118.80508"
         rx="0.14105618"
         ry="0.14105618" />
      <g
         id="g51357-6-0-2-3-7-8-2-27-3-8-1-5-1-4-6-5-8-65-9-2"
         transform="matrix(0.12866948,0,0,0.12866948,-259.32343,115.62705)">
        <g
           id="g10468-1-5-02-2-71-1-3-6-45-1-0-2-0-8-2-7-9-9-7-2-7"
           transform="translate(255.49561,0.52274421)">
          <path
             opacity="0.7"
             fill-rule="evenodd"
             clip-rule="evenodd"
             d="m 60.894465,32.634214 c -0.210334,7.14e-4 -0.416158,-0.06114 -0.591257,-0.17769 -0.1751,-0.116554 -0.311616,-0.282544 -0.392087,-0.476891 -0.08047,-0.194346 -0.101371,-0.408253 -0.05993,-0.614478 0.0414,-0.206225 0.143215,-0.395481 0.292503,-0.543697 0.149287,-0.148216 0.339302,-0.24865 0.545796,-0.288573 0.206538,-0.03992 0.42031,-0.0175 0.614032,0.0644 0.193766,0.0819 0.358773,0.219623 0.474077,0.395571 0.115259,0.175948 0.175591,0.382218 0.173313,0.592552 5.36e-4,0.13924 -0.02639,0.277185 -0.07922,0.40602 -0.05283,0.128835 -0.130488,0.246014 -0.228599,0.34484 -0.09811,0.09878 -0.21471,0.177332 -0.343143,0.231055 -0.128478,0.05377 -0.266244,0.08168 -0.405484,0.08217"
             fill="#ffffff"
             id="path1013-1-9-2-6-0-8-4-0-3-8-5-5-7-4-7-5-9-9-4-3-7-8-8"
             style="stroke-width:0.446569" />
          <path
             fill-rule="evenodd"
             clip-rule="evenodd"
             d="m 62.957478,32.063678 c -0.0974,-4.5e-5 -0.192561,-0.02907 -0.27339,-0.08342 -0.08078,-0.05439 -0.143571,-0.131604 -0.180279,-0.221766 -0.03671,-0.09021 -0.04573,-0.189301 -0.02586,-0.284643 0.01983,-0.09534 0.06766,-0.182602 0.13732,-0.250659 0.06967,-0.06801 0.158041,-0.113786 0.25383,-0.131336 0.09579,-0.0176 0.194659,-0.0063 0.283928,0.0326 0.08931,0.03885 0.165007,0.103426 0.217434,0.185505 0.05243,0.08208 0.07922,0.177913 0.07694,0.275265 0,0.129951 -0.05162,0.254544 -0.143482,0.346448 -0.0919,0.09186 -0.216541,0.143482 -0.346448,0.143482"
             fill="#ffffff"
             id="path1015-4-5-7-8-7-5-8-2-0-1-4-8-9-79-7-8-7-33-1-8-7-0-5"
             style="stroke-width:0.446569" />
          <path
             fill-rule="evenodd"
             clip-rule="evenodd"
             d="m 64.744511,32.523241 c -0.005,0.118028 -0.05604,0.229403 -0.142187,0.310232 -0.08614,0.08083 -0.200509,0.124682 -0.318627,0.122181 -0.118117,-0.0025 -0.230563,-0.05118 -0.313178,-0.135578 -0.08266,-0.0844 -0.128925,-0.19783 -0.128925,-0.315992 0,-0.118118 0.04626,-0.231546 0.128925,-0.315992 0.08261,-0.0844 0.195061,-0.133078 0.313178,-0.135579 0.118118,-0.0025 0.232484,0.04135 0.318627,0.122226 0.08614,0.08083 0.137186,0.192203 0.142187,0.310231 0.0012,0.01273 0.0012,0.02554 0,0.03827 z"
             fill="#ffffff"
             id="path1017-9-5-43-5-5-6-9-6-2-6-5-5-6-23-6-2-2-3-8-4-2-4-0"
             style="stroke-width:0.446569" />
          <path
             fill-rule="evenodd"
             clip-rule="evenodd"
             d="m 64.40043,31.263918 c -0.09449,0.01867 -0.192381,0.0091 -0.281427,-0.0276 -0.08905,-0.03666 -0.16532,-0.09874 -0.21931,-0.178494 -0.05395,-0.07976 -0.08324,-0.173625 -0.08413,-0.269906 -9.37e-4,-0.09632 0.02657,-0.190729 0.079,-0.271513 0.05247,-0.08074 0.12754,-0.144287 0.215872,-0.182602 0.08833,-0.03836 0.185995,-0.04979 0.280847,-0.03296 0.09481,0.01688 0.182557,0.06131 0.252222,0.127719 0.06971,0.06645 0.118296,0.151967 0.139686,0.24588 0.01143,0.06328 0.01143,0.128076 0,0.191355 -0.01666,0.09543 -0.06234,0.183406 -0.130844,0.251909 -0.0685,0.0685 -0.156478,0.114233 -0.25191,0.13089"
             fill="#ffffff"
             id="path1019-7-1-0-5-6-3-4-9-4-1-6-8-0-9-4-7-2-62-6-6-1-7-0"
             style="stroke-width:0.446569" />
          <path
             fill-rule="evenodd"
             clip-rule="evenodd"
             d="m 66.138699,32.470278 c -0.02233,0.127406 -0.09436,0.240745 -0.200242,0.31501 -0.105881,0.07431 -0.236949,0.103514 -0.364355,0.08119 -0.127406,-0.02233 -0.240701,-0.09436 -0.31501,-0.200241 -0.07431,-0.105882 -0.103514,-0.23695 -0.08114,-0.364356 0.01192,-0.06243 0.03604,-0.121824 0.071,-0.174876 0.03497,-0.05305 0.08003,-0.09869 0.132676,-0.134239 0.05265,-0.03559 0.111776,-0.06038 0.174072,-0.07301 0.06225,-0.01264 0.126379,-0.01286 0.18872,-6.7e-4 0.12035,0.02063 0.228643,0.08543 0.303667,0.181708 0.07507,0.09633 0.111463,0.217167 0.102085,0.338857 -0.0022,0.01527 -0.0022,0.03072 0,0.04595"
             fill="#ffffff"
             id="path1021-1-7-8-0-3-9-4-0-4-2-2-4-8-6-7-3-4-9-7-6-2-8-7"
             style="stroke-width:0.446569" />
          <path
             fill-rule="evenodd"
             clip-rule="evenodd"
             d="m 65.744334,31.241232 c -0.09485,0.01916 -0.19323,0.0096 -0.282589,-0.02746 -0.08936,-0.03707 -0.165632,-0.09999 -0.219042,-0.180637 -0.05345,-0.0807 -0.08154,-0.175457 -0.08078,-0.272183 7.59e-4,-0.09677 0.03037,-0.191087 0.08503,-0.270889 0.05466,-0.07985 0.131916,-0.141518 0.221855,-0.177198 0.08994,-0.03568 0.188452,-0.04368 0.282991,-0.02304 0.09449,0.02068 0.180726,0.06908 0.247577,0.138972 0.06685,0.06993 0.11133,0.158264 0.127719,0.253606 0.0039,0.04202 0.0039,0.08427 0,0.12629 -0.01041,0.106774 -0.05587,0.207074 -0.129282,0.285312 -0.07337,0.07824 -0.170589,0.129997 -0.276426,0.147234"
             fill="#ffffff"
             id="path1023-5-7-9-46-55-5-89-9-3-3-3-3-2-0-0-1-8-0-6-7-7-6-2"
             style="stroke-width:0.446569" />
          <path
             fill-rule="evenodd"
             clip-rule="evenodd"
             d="m 65.399672,34.161657 c -0.05926,0.105301 -0.155406,0.185013 -0.269906,0.223775 -0.1145,0.03872 -0.239271,0.03381 -0.350378,-0.01389 -0.111061,-0.04769 -0.200554,-0.134774 -0.251328,-0.244496 -0.05078,-0.109677 -0.05917,-0.23427 -0.02362,-0.349797 0.03555,-0.115528 0.112535,-0.213862 0.216184,-0.276069 0.103649,-0.06216 0.226634,-0.08387 0.345331,-0.06087 0.118654,0.023 0.224625,0.08904 0.297549,0.18546 0.07292,0.09641 0.107623,0.216362 0.09744,0.336846 -0.0017,0.07069 -0.02286,0.139598 -0.06127,0.199036 z"
             fill="#ffffff"
             id="path1025-5-86-6-8-3-3-8-9-3-3-0-6-2-2-2-03-38-0-1-1-6-8-6"
             style="stroke-width:0.446569" />
          <path
             fill-rule="evenodd"
             clip-rule="evenodd"
             d="m 65.22301,29.671454 c -0.112804,0.06355 -0.246149,0.07994 -0.37092,0.0455 -0.124816,-0.03443 -0.230876,-0.116822 -0.295137,-0.229223 -0.03166,-0.05609 -0.05198,-0.117805 -0.0598,-0.181709 -0.0078,-0.0639 -0.0029,-0.128701 0.01429,-0.190729 0.01724,-0.06203 0.04653,-0.120038 0.08619,-0.170768 0.03965,-0.05069 0.08891,-0.09311 0.145001,-0.124772 0.05604,-0.03166 0.11776,-0.05198 0.181664,-0.0598 0.0639,-0.0078 0.128701,-0.0029 0.190729,0.01429 0.06203,0.01724 0.120038,0.04653 0.170768,0.08619 0.05069,0.03965 0.09311,0.08891 0.124771,0.144956 0.04966,0.08565 0.07109,0.184745 0.06123,0.283259 -0.0073,0.07922 -0.03376,0.15545 -0.07708,0.222167 -0.04336,0.06667 -0.102309,0.121824 -0.171705,0.160631 z"
             fill="#ffffff"
             id="path1027-5-2-34-5-95-9-3-0-1-0-9-2-7-0-9-2-6-5-6-5-19-8-1"
             style="stroke-width:0.446569" />
          <path
             d="m 60.913533,36.500917 c -0.782745,0.0037 -1.555041,-0.179565 -2.252626,-0.534632 -0.697585,-0.355022 -1.300274,-0.871523 -1.757917,-1.506543 -0.457644,-0.634976 -0.757023,-1.370118 -0.873176,-2.1442 -0.116152,-0.774037 -0.04577,-1.564642 0.205332,-2.306035 0.251106,-0.741349 0.675614,-1.412006 1.23829,-1.956194 0.562632,-0.544144 1.247088,-0.946056 1.99643,-1.172243 0.749342,-0.226232 1.541868,-0.270174 2.311618,-0.12821 0.76975,0.14192 1.494486,0.465682 2.113833,0.94427 l -0.597107,0.765552 c -0.582326,-0.445765 -1.277723,-0.719734 -2.00755,-0.790962 -0.729871,-0.07127 -1.465147,0.06305 -2.12263,0.3878 -0.657527,0.324745 -1.211094,0.826911 -1.598179,1.449785 -0.387086,0.622829 -0.592195,1.341537 -0.592195,2.074892 0,0.73331 0.205109,1.452062 0.592195,2.074892 0.387085,0.622874 0.940652,1.12504 1.598179,1.449785 0.657483,0.3247 1.392759,0.459028 2.12263,0.3878 0.729827,-0.07123 1.425224,-0.345198 2.00755,-0.790962 l 0.597107,0.784665 c -0.854018,0.658823 -1.903187,1.014381 -2.981784,1.01054 z"
             fill="#ffffff"
             id="path1029-6-6-2-4-4-7-5-5-4-8-0-4-8-7-7-5-0-7-9-9-4-2-1"
             style="stroke-width:0.446569" />
        </g>
      </g>
      <g
         style="fill:none;stroke:none;stroke-opacity:1"
         id="g10621-1-7-9-0-0-6-0-5-8-6-0-0-7-8-9-1-7"
         transform="matrix(0.07866793,0,0,0.07866793,-218.05614,120.31063)">
        <path
           fill-rule="evenodd"
           clip-rule="evenodd"
           d="m 9.99992,0.833252 2.83248,5.738338 6.3342,0.92583 -4.5833,4.46418 1.0816,6.3067 -5.66498,-2.9792 -5.665,2.9792 L 5.41659,11.9616 0.833252,7.49742 7.16742,6.57159 Z"
           fill="#ffffff"
           id="path10612-0-9-5-8-4-4-9-1-8-3-3-2-0-0-0-5-1"
           style="stroke:none;stroke-opacity:1" />
      </g>
      <text
         xml:space="preserve"
         style="font-size:0.785402px;line-height:1.25;font-family:'Open Sans';-inkscape-font-specification:'Open Sans, Normal';font-variant-ligatures:none;fill:#ffffff;fill-opacity:1;stroke-width:0.032725"
         x="-218.71947"
         y="122.73184"
         id="text409879-7-4-4"><tspan
           sodipodi:role="line"
           id="tspan409877-28-9-8"
           style="fill:#ffffff;fill-opacity:1;stroke-width:0.032725"
           x="-218.71947"
           y="122.73184">LEADER</tspan></text>
    </g>
    <text
       xml:space="preserve"
       style="font-style:normal;font-weight:normal;font-size:2.51772px;line-height:1.25;font-family:sans-serif;fill:#000000;fill-opacity:1;stroke:none;stroke-width:0.178672"
       x="42.022152"
       y="105.45539"
       id="text524715-4-4-4-1-3-4"><tspan
         sodipodi:role="line"
         id="tspan524713-6-3-2-6-1-1"
         style="font-style:normal;font-variant:normal;font-weight:normal;font-stretch:normal;font-size:2.51772px;font-family:'Open Sans';-inkscape-font-specification:'Open Sans';stroke-width:0.178672"
         x="42.022152"
         y="105.45539">Consul Server: Leader</tspan></text>
    <text
       xml:space="preserve"
       style="font-style:normal;font-variant:normal;font-weight:normal;font-stretch:normal;font-size:2.51772px;line-height:1.25;font-family:'Open Sans';-inkscape-font-specification:'Open Sans';fill:#000000;fill-opacity:1;stroke:none;stroke-width:0.178672"
       x="116.9287"
       y="104.6958"
       id="text524715-4-4-4-1-0-96-2"><tspan
         sodipodi:role="line"
         id="tspan524713-6-3-2-6-2-0-4"
         style="font-style:normal;font-variant:normal;font-weight:normal;font-stretch:normal;font-size:2.51772px;font-family:'Open Sans';-inkscape-font-specification:'Open Sans';stroke-width:0.178672"
         x="116.9287"
         y="104.6958">Control Plane</tspan></text>
    <g
       id="g136920"
       transform="translate(258.90844,-12.744491)">
      <circle
         style="fill:#ffffff;fill-opacity:1;stroke:#ffb000;stroke-width:0.4;stroke-linecap:round;stroke-miterlimit:4;stroke-dasharray:none;stroke-dashoffset:0;stroke-opacity:1;paint-order:normal"
         id="path427028-6-3-0-3-6-0-1"
         cx="-222.01903"
         cy="104.13262"
         r="1.2047776"
         inkscape:export-filename="C:\Users\Jared Kirschner\Documents\Diagrams\consistency-modes-draft.png"
         inkscape:export-xdpi="488.02902"
         inkscape:export-ydpi="488.02902" />
      <text
         xml:space="preserve"
         style="font-size:1.93419px;line-height:1.25;font-family:'Open Sans';-inkscape-font-specification:'Open Sans, Normal';font-variant-ligatures:none;fill:#ffb000;fill-opacity:1;stroke-width:0.0805911"
         x="-222.02515"
         y="104.83293"
         id="text428904-8-7-2-3-28-2-9"
         inkscape:export-filename="C:\Users\Jared Kirschner\Documents\Diagrams\consistency-modes-draft.png"
         inkscape:export-xdpi="488.02902"
         inkscape:export-ydpi="488.02902"><tspan
           sodipodi:role="line"
           id="tspan428902-0-2-1-1-1-4-0"
           style="font-weight:bold;text-align:center;text-anchor:middle;fill:#ffb000;fill-opacity:1;stroke-width:0.0805911"
           x="-222.02515"
           y="104.83293">1</tspan></text>
    </g>
    <text
       xml:space="preserve"
       style="font-size:2.51772px;line-height:1.25;font-family:'Open Sans';-inkscape-font-specification:'Open Sans, Normal';font-variant-ligatures:none;stroke-width:0.104905"
       x="39.165508"
       y="92.144005"
       id="text444602-2-6"
       inkscape:export-filename="C:\Users\Jared Kirschner\Documents\Diagrams\consistency-modes-draft.png"
       inkscape:export-xdpi="488.02902"
       inkscape:export-ydpi="488.02902"><tspan
         sodipodi:role="line"
         style="stroke-width:0.104905"
         x="39.165508"
         y="92.144005"
         id="tspan183909-5">client may contact any server agent</tspan></text>
    <g
       id="g462079-2-7"
       transform="translate(-82.25188,-5.768327)"
       inkscape:export-filename="C:\Users\Jared Kirschner\Documents\Diagrams\consistency-modes-draft.png"
       inkscape:export-xdpi="488.02902"
       inkscape:export-ydpi="488.02902">
      <rect
         style="fill:#ca2171;fill-opacity:1;fill-rule:evenodd;stroke-width:0.0872518"
         id="rect53-2-3-24-4-5-6-0-8-1-7-6-14-4-3-1-0-4-9-3-7-4"
         width="10.270129"
         height="10.019637"
         x="136.94843"
         y="82.452576"
         rx="0.31311369"
         ry="0.31311369" />
      <g
         id="g51357-6-0-2-3-7-8-2-27-3-8-1-5-1-4-6-5-8-6-0-5"
         transform="matrix(0.28561795,0,0,0.28561795,48.73296,75.398057)">
        <g
           id="g10468-1-5-02-2-71-1-3-6-45-1-0-2-0-8-2-7-9-9-62-4-7"
           transform="translate(255.49561,0.52274421)">
          <path
             opacity="0.7"
             fill-rule="evenodd"
             clip-rule="evenodd"
             d="m 60.894465,32.634214 c -0.210334,7.14e-4 -0.416158,-0.06114 -0.591257,-0.17769 -0.1751,-0.116554 -0.311616,-0.282544 -0.392087,-0.476891 -0.08047,-0.194346 -0.101371,-0.408253 -0.05993,-0.614478 0.0414,-0.206225 0.143215,-0.395481 0.292503,-0.543697 0.149287,-0.148216 0.339302,-0.24865 0.545796,-0.288573 0.206538,-0.03992 0.42031,-0.0175 0.614032,0.0644 0.193766,0.0819 0.358773,0.219623 0.474077,0.395571 0.115259,0.175948 0.175591,0.382218 0.173313,0.592552 5.36e-4,0.13924 -0.02639,0.277185 -0.07922,0.40602 -0.05283,0.128835 -0.130488,0.246014 -0.228599,0.34484 -0.09811,0.09878 -0.21471,0.177332 -0.343143,0.231055 -0.128478,0.05377 -0.266244,0.08168 -0.405484,0.08217"
             fill="#ffffff"
             id="path1013-1-9-2-6-0-8-4-0-3-8-5-5-7-4-7-5-9-9-4-3-64-0-7"
             style="stroke-width:0.446569" />
          <path
             fill-rule="evenodd"
             clip-rule="evenodd"
             d="m 62.957478,32.063678 c -0.0974,-4.5e-5 -0.192561,-0.02907 -0.27339,-0.08342 -0.08078,-0.05439 -0.143571,-0.131604 -0.180279,-0.221766 -0.03671,-0.09021 -0.04573,-0.189301 -0.02586,-0.284643 0.01983,-0.09534 0.06766,-0.182602 0.13732,-0.250659 0.06967,-0.06801 0.158041,-0.113786 0.25383,-0.131336 0.09579,-0.0176 0.194659,-0.0063 0.283928,0.0326 0.08931,0.03885 0.165007,0.103426 0.217434,0.185505 0.05243,0.08208 0.07922,0.177913 0.07694,0.275265 0,0.129951 -0.05162,0.254544 -0.143482,0.346448 -0.0919,0.09186 -0.216541,0.143482 -0.346448,0.143482"
             fill="#ffffff"
             id="path1015-4-5-7-8-7-5-8-2-0-1-4-8-9-79-7-8-7-33-1-8-1-6-4"
             style="stroke-width:0.446569" />
          <path
             fill-rule="evenodd"
             clip-rule="evenodd"
             d="m 64.744511,32.523241 c -0.005,0.118028 -0.05604,0.229403 -0.142187,0.310232 -0.08614,0.08083 -0.200509,0.124682 -0.318627,0.122181 -0.118117,-0.0025 -0.230563,-0.05118 -0.313178,-0.135578 -0.08266,-0.0844 -0.128925,-0.19783 -0.128925,-0.315992 0,-0.118118 0.04626,-0.231546 0.128925,-0.315992 0.08261,-0.0844 0.195061,-0.133078 0.313178,-0.135579 0.118118,-0.0025 0.232484,0.04135 0.318627,0.122226 0.08614,0.08083 0.137186,0.192203 0.142187,0.310231 0.0012,0.01273 0.0012,0.02554 0,0.03827 z"
             fill="#ffffff"
             id="path1017-9-5-43-5-5-6-9-6-2-6-5-5-6-23-6-2-2-3-8-4-4-8-5"
             style="stroke-width:0.446569" />
          <path
             fill-rule="evenodd"
             clip-rule="evenodd"
             d="m 64.40043,31.263918 c -0.09449,0.01867 -0.192381,0.0091 -0.281427,-0.0276 -0.08905,-0.03666 -0.16532,-0.09874 -0.21931,-0.178494 -0.05395,-0.07976 -0.08324,-0.173625 -0.08413,-0.269906 -9.37e-4,-0.09632 0.02657,-0.190729 0.079,-0.271513 0.05247,-0.08074 0.12754,-0.144287 0.215872,-0.182602 0.08833,-0.03836 0.185995,-0.04979 0.280847,-0.03296 0.09481,0.01688 0.182557,0.06131 0.252222,0.127719 0.06971,0.06645 0.118296,0.151967 0.139686,0.24588 0.01143,0.06328 0.01143,0.128076 0,0.191355 -0.01666,0.09543 -0.06234,0.183406 -0.130844,0.251909 -0.0685,0.0685 -0.156478,0.114233 -0.25191,0.13089"
             fill="#ffffff"
             id="path1019-7-1-0-5-6-3-4-9-4-1-6-8-0-9-4-7-2-62-6-6-94-4-0"
             style="stroke-width:0.446569" />
          <path
             fill-rule="evenodd"
             clip-rule="evenodd"
             d="m 66.138699,32.470278 c -0.02233,0.127406 -0.09436,0.240745 -0.200242,0.31501 -0.105881,0.07431 -0.236949,0.103514 -0.364355,0.08119 -0.127406,-0.02233 -0.240701,-0.09436 -0.31501,-0.200241 -0.07431,-0.105882 -0.103514,-0.23695 -0.08114,-0.364356 0.01192,-0.06243 0.03604,-0.121824 0.071,-0.174876 0.03497,-0.05305 0.08003,-0.09869 0.132676,-0.134239 0.05265,-0.03559 0.111776,-0.06038 0.174072,-0.07301 0.06225,-0.01264 0.126379,-0.01286 0.18872,-6.7e-4 0.12035,0.02063 0.228643,0.08543 0.303667,0.181708 0.07507,0.09633 0.111463,0.217167 0.102085,0.338857 -0.0022,0.01527 -0.0022,0.03072 0,0.04595"
             fill="#ffffff"
             id="path1021-1-7-8-0-3-9-4-0-4-2-2-4-8-6-7-3-4-9-7-6-0-1-3"
             style="stroke-width:0.446569" />
          <path
             fill-rule="evenodd"
             clip-rule="evenodd"
             d="m 65.744334,31.241232 c -0.09485,0.01916 -0.19323,0.0096 -0.282589,-0.02746 -0.08936,-0.03707 -0.165632,-0.09999 -0.219042,-0.180637 -0.05345,-0.0807 -0.08154,-0.175457 -0.08078,-0.272183 7.59e-4,-0.09677 0.03037,-0.191087 0.08503,-0.270889 0.05466,-0.07985 0.131916,-0.141518 0.221855,-0.177198 0.08994,-0.03568 0.188452,-0.04368 0.282991,-0.02304 0.09449,0.02068 0.180726,0.06908 0.247577,0.138972 0.06685,0.06993 0.11133,0.158264 0.127719,0.253606 0.0039,0.04202 0.0039,0.08427 0,0.12629 -0.01041,0.106774 -0.05587,0.207074 -0.129282,0.285312 -0.07337,0.07824 -0.170589,0.129997 -0.276426,0.147234"
             fill="#ffffff"
             id="path1023-5-7-9-46-55-5-89-9-3-3-3-3-2-0-0-1-8-0-6-7-17-5-5"
             style="stroke-width:0.446569" />
          <path
             fill-rule="evenodd"
             clip-rule="evenodd"
             d="m 65.399672,34.161657 c -0.05926,0.105301 -0.155406,0.185013 -0.269906,0.223775 -0.1145,0.03872 -0.239271,0.03381 -0.350378,-0.01389 -0.111061,-0.04769 -0.200554,-0.134774 -0.251328,-0.244496 -0.05078,-0.109677 -0.05917,-0.23427 -0.02362,-0.349797 0.03555,-0.115528 0.112535,-0.213862 0.216184,-0.276069 0.103649,-0.06216 0.226634,-0.08387 0.345331,-0.06087 0.118654,0.023 0.224625,0.08904 0.297549,0.18546 0.07292,0.09641 0.107623,0.216362 0.09744,0.336846 -0.0017,0.07069 -0.02286,0.139598 -0.06127,0.199036 z"
             fill="#ffffff"
             id="path1025-5-86-6-8-3-3-8-9-3-3-0-6-2-2-2-03-38-0-1-1-9-8-4"
             style="stroke-width:0.446569" />
          <path
             fill-rule="evenodd"
             clip-rule="evenodd"
             d="m 65.22301,29.671454 c -0.112804,0.06355 -0.246149,0.07994 -0.37092,0.0455 -0.124816,-0.03443 -0.230876,-0.116822 -0.295137,-0.229223 -0.03166,-0.05609 -0.05198,-0.117805 -0.0598,-0.181709 -0.0078,-0.0639 -0.0029,-0.128701 0.01429,-0.190729 0.01724,-0.06203 0.04653,-0.120038 0.08619,-0.170768 0.03965,-0.05069 0.08891,-0.09311 0.145001,-0.124772 0.05604,-0.03166 0.11776,-0.05198 0.181664,-0.0598 0.0639,-0.0078 0.128701,-0.0029 0.190729,0.01429 0.06203,0.01724 0.120038,0.04653 0.170768,0.08619 0.05069,0.03965 0.09311,0.08891 0.124771,0.144956 0.04966,0.08565 0.07109,0.184745 0.06123,0.283259 -0.0073,0.07922 -0.03376,0.15545 -0.07708,0.222167 -0.04336,0.06667 -0.102309,0.121824 -0.171705,0.160631 z"
             fill="#ffffff"
             id="path1027-5-2-34-5-95-9-3-0-1-0-9-2-7-0-9-2-6-5-6-5-0-55-7"
             style="stroke-width:0.446569" />
          <path
             d="m 60.913533,36.500917 c -0.782745,0.0037 -1.555041,-0.179565 -2.252626,-0.534632 -0.697585,-0.355022 -1.300274,-0.871523 -1.757917,-1.506543 -0.457644,-0.634976 -0.757023,-1.370118 -0.873176,-2.1442 -0.116152,-0.774037 -0.04577,-1.564642 0.205332,-2.306035 0.251106,-0.741349 0.675614,-1.412006 1.23829,-1.956194 0.562632,-0.544144 1.247088,-0.946056 1.99643,-1.172243 0.749342,-0.226232 1.541868,-0.270174 2.311618,-0.12821 0.76975,0.14192 1.494486,0.465682 2.113833,0.94427 l -0.597107,0.765552 c -0.582326,-0.445765 -1.277723,-0.719734 -2.00755,-0.790962 -0.729871,-0.07127 -1.465147,0.06305 -2.12263,0.3878 -0.657527,0.324745 -1.211094,0.826911 -1.598179,1.449785 -0.387086,0.622829 -0.592195,1.341537 -0.592195,2.074892 0,0.73331 0.205109,1.452062 0.592195,2.074892 0.387085,0.622874 0.940652,1.12504 1.598179,1.449785 0.657483,0.3247 1.392759,0.459028 2.12263,0.3878 0.729827,-0.07123 1.425224,-0.345198 2.00755,-0.790962 l 0.597107,0.784665 c -0.854018,0.658823 -1.903187,1.014381 -2.981784,1.01054 z"
             fill="#ffffff"
             id="path1029-6-6-2-4-4-7-5-5-4-8-0-4-8-7-7-5-0-7-9-9-49-92-2"
             style="stroke-width:0.446569" />
        </g>
      </g>
      <text
         xml:space="preserve"
         style="font-size:1.74342px;line-height:1.25;font-family:'Open Sans';-inkscape-font-specification:'Open Sans, Normal';font-variant-ligatures:none;fill:#ffffff;fill-opacity:1;stroke-width:0.0726423"
         x="137.46956"
         y="91.169144"
         id="text409879-6-0-8"><tspan
           sodipodi:role="line"
           id="tspan409877-2-18-4"
           style="fill:#ffffff;fill-opacity:1;stroke-width:0.0726423"
           x="137.46956"
           y="91.169144">FOLLOWER</tspan></text>
    </g>
    <g
       id="g462079-1-4-9"
       transform="translate(-82.25188,-28.520718)"
       inkscape:export-filename="C:\Users\Jared Kirschner\Documents\Diagrams\consistency-modes-draft.png"
       inkscape:export-xdpi="488.02902"
       inkscape:export-ydpi="488.02902">
      <rect
         style="fill:#ca2171;fill-opacity:1;fill-rule:evenodd;stroke-width:0.0872518"
         id="rect53-2-3-24-4-5-6-0-8-1-7-6-14-4-3-1-0-4-9-3-5-68-3"
         width="10.270129"
         height="10.019637"
         x="136.94843"
         y="82.452576"
         rx="0.31311369"
         ry="0.31311369" />
      <g
         id="g51357-6-0-2-3-7-8-2-27-3-8-1-5-1-4-6-5-8-6-1-9-2"
         transform="matrix(0.28561795,0,0,0.28561795,48.73296,75.398057)">
        <g
           id="g10468-1-5-02-2-71-1-3-6-45-1-0-2-0-8-2-7-9-9-62-6-7-1"
           transform="translate(255.49561,0.52274421)">
          <path
             opacity="0.7"
             fill-rule="evenodd"
             clip-rule="evenodd"
             d="m 60.894465,32.634214 c -0.210334,7.14e-4 -0.416158,-0.06114 -0.591257,-0.17769 -0.1751,-0.116554 -0.311616,-0.282544 -0.392087,-0.476891 -0.08047,-0.194346 -0.101371,-0.408253 -0.05993,-0.614478 0.0414,-0.206225 0.143215,-0.395481 0.292503,-0.543697 0.149287,-0.148216 0.339302,-0.24865 0.545796,-0.288573 0.206538,-0.03992 0.42031,-0.0175 0.614032,0.0644 0.193766,0.0819 0.358773,0.219623 0.474077,0.395571 0.115259,0.175948 0.175591,0.382218 0.173313,0.592552 5.36e-4,0.13924 -0.02639,0.277185 -0.07922,0.40602 -0.05283,0.128835 -0.130488,0.246014 -0.228599,0.34484 -0.09811,0.09878 -0.21471,0.177332 -0.343143,0.231055 -0.128478,0.05377 -0.266244,0.08168 -0.405484,0.08217"
             fill="#ffffff"
             id="path1013-1-9-2-6-0-8-4-0-3-8-5-5-7-4-7-5-9-9-4-3-64-5-84-2"
             style="stroke-width:0.446569" />
          <path
             fill-rule="evenodd"
             clip-rule="evenodd"
             d="m 62.957478,32.063678 c -0.0974,-4.5e-5 -0.192561,-0.02907 -0.27339,-0.08342 -0.08078,-0.05439 -0.143571,-0.131604 -0.180279,-0.221766 -0.03671,-0.09021 -0.04573,-0.189301 -0.02586,-0.284643 0.01983,-0.09534 0.06766,-0.182602 0.13732,-0.250659 0.06967,-0.06801 0.158041,-0.113786 0.25383,-0.131336 0.09579,-0.0176 0.194659,-0.0063 0.283928,0.0326 0.08931,0.03885 0.165007,0.103426 0.217434,0.185505 0.05243,0.08208 0.07922,0.177913 0.07694,0.275265 0,0.129951 -0.05162,0.254544 -0.143482,0.346448 -0.0919,0.09186 -0.216541,0.143482 -0.346448,0.143482"
             fill="#ffffff"
             id="path1015-4-5-7-8-7-5-8-2-0-1-4-8-9-79-7-8-7-33-1-8-1-0-4-7"
             style="stroke-width:0.446569" />
          <path
             fill-rule="evenodd"
             clip-rule="evenodd"
             d="m 64.744511,32.523241 c -0.005,0.118028 -0.05604,0.229403 -0.142187,0.310232 -0.08614,0.08083 -0.200509,0.124682 -0.318627,0.122181 -0.118117,-0.0025 -0.230563,-0.05118 -0.313178,-0.135578 -0.08266,-0.0844 -0.128925,-0.19783 -0.128925,-0.315992 0,-0.118118 0.04626,-0.231546 0.128925,-0.315992 0.08261,-0.0844 0.195061,-0.133078 0.313178,-0.135579 0.118118,-0.0025 0.232484,0.04135 0.318627,0.122226 0.08614,0.08083 0.137186,0.192203 0.142187,0.310231 0.0012,0.01273 0.0012,0.02554 0,0.03827 z"
             fill="#ffffff"
             id="path1017-9-5-43-5-5-6-9-6-2-6-5-5-6-23-6-2-2-3-8-4-4-0-0-4"
             style="stroke-width:0.446569" />
          <path
             fill-rule="evenodd"
             clip-rule="evenodd"
             d="m 64.40043,31.263918 c -0.09449,0.01867 -0.192381,0.0091 -0.281427,-0.0276 -0.08905,-0.03666 -0.16532,-0.09874 -0.21931,-0.178494 -0.05395,-0.07976 -0.08324,-0.173625 -0.08413,-0.269906 -9.37e-4,-0.09632 0.02657,-0.190729 0.079,-0.271513 0.05247,-0.08074 0.12754,-0.144287 0.215872,-0.182602 0.08833,-0.03836 0.185995,-0.04979 0.280847,-0.03296 0.09481,0.01688 0.182557,0.06131 0.252222,0.127719 0.06971,0.06645 0.118296,0.151967 0.139686,0.24588 0.01143,0.06328 0.01143,0.128076 0,0.191355 -0.01666,0.09543 -0.06234,0.183406 -0.130844,0.251909 -0.0685,0.0685 -0.156478,0.114233 -0.25191,0.13089"
             fill="#ffffff"
             id="path1019-7-1-0-5-6-3-4-9-4-1-6-8-0-9-4-7-2-62-6-6-94-0-2-7"
             style="stroke-width:0.446569" />
          <path
             fill-rule="evenodd"
             clip-rule="evenodd"
             d="m 66.138699,32.470278 c -0.02233,0.127406 -0.09436,0.240745 -0.200242,0.31501 -0.105881,0.07431 -0.236949,0.103514 -0.364355,0.08119 -0.127406,-0.02233 -0.240701,-0.09436 -0.31501,-0.200241 -0.07431,-0.105882 -0.103514,-0.23695 -0.08114,-0.364356 0.01192,-0.06243 0.03604,-0.121824 0.071,-0.174876 0.03497,-0.05305 0.08003,-0.09869 0.132676,-0.134239 0.05265,-0.03559 0.111776,-0.06038 0.174072,-0.07301 0.06225,-0.01264 0.126379,-0.01286 0.18872,-6.7e-4 0.12035,0.02063 0.228643,0.08543 0.303667,0.181708 0.07507,0.09633 0.111463,0.217167 0.102085,0.338857 -0.0022,0.01527 -0.0022,0.03072 0,0.04595"
             fill="#ffffff"
             id="path1021-1-7-8-0-3-9-4-0-4-2-2-4-8-6-7-3-4-9-7-6-0-6-3-6"
             style="stroke-width:0.446569" />
          <path
             fill-rule="evenodd"
             clip-rule="evenodd"
             d="m 65.744334,31.241232 c -0.09485,0.01916 -0.19323,0.0096 -0.282589,-0.02746 -0.08936,-0.03707 -0.165632,-0.09999 -0.219042,-0.180637 -0.05345,-0.0807 -0.08154,-0.175457 -0.08078,-0.272183 7.59e-4,-0.09677 0.03037,-0.191087 0.08503,-0.270889 0.05466,-0.07985 0.131916,-0.141518 0.221855,-0.177198 0.08994,-0.03568 0.188452,-0.04368 0.282991,-0.02304 0.09449,0.02068 0.180726,0.06908 0.247577,0.138972 0.06685,0.06993 0.11133,0.158264 0.127719,0.253606 0.0039,0.04202 0.0039,0.08427 0,0.12629 -0.01041,0.106774 -0.05587,0.207074 -0.129282,0.285312 -0.07337,0.07824 -0.170589,0.129997 -0.276426,0.147234"
             fill="#ffffff"
             id="path1023-5-7-9-46-55-5-89-9-3-3-3-3-2-0-0-1-8-0-6-7-17-7-86-1"
             style="stroke-width:0.446569" />
          <path
             fill-rule="evenodd"
             clip-rule="evenodd"
             d="m 65.399672,34.161657 c -0.05926,0.105301 -0.155406,0.185013 -0.269906,0.223775 -0.1145,0.03872 -0.239271,0.03381 -0.350378,-0.01389 -0.111061,-0.04769 -0.200554,-0.134774 -0.251328,-0.244496 -0.05078,-0.109677 -0.05917,-0.23427 -0.02362,-0.349797 0.03555,-0.115528 0.112535,-0.213862 0.216184,-0.276069 0.103649,-0.06216 0.226634,-0.08387 0.345331,-0.06087 0.118654,0.023 0.224625,0.08904 0.297549,0.18546 0.07292,0.09641 0.107623,0.216362 0.09744,0.336846 -0.0017,0.07069 -0.02286,0.139598 -0.06127,0.199036 z"
             fill="#ffffff"
             id="path1025-5-86-6-8-3-3-8-9-3-3-0-6-2-2-2-03-38-0-1-1-9-3-18-5"
             style="stroke-width:0.446569" />
          <path
             fill-rule="evenodd"
             clip-rule="evenodd"
             d="m 65.22301,29.671454 c -0.112804,0.06355 -0.246149,0.07994 -0.37092,0.0455 -0.124816,-0.03443 -0.230876,-0.116822 -0.295137,-0.229223 -0.03166,-0.05609 -0.05198,-0.117805 -0.0598,-0.181709 -0.0078,-0.0639 -0.0029,-0.128701 0.01429,-0.190729 0.01724,-0.06203 0.04653,-0.120038 0.08619,-0.170768 0.03965,-0.05069 0.08891,-0.09311 0.145001,-0.124772 0.05604,-0.03166 0.11776,-0.05198 0.181664,-0.0598 0.0639,-0.0078 0.128701,-0.0029 0.190729,0.01429 0.06203,0.01724 0.120038,0.04653 0.170768,0.08619 0.05069,0.03965 0.09311,0.08891 0.124771,0.144956 0.04966,0.08565 0.07109,0.184745 0.06123,0.283259 -0.0073,0.07922 -0.03376,0.15545 -0.07708,0.222167 -0.04336,0.06667 -0.102309,0.121824 -0.171705,0.160631 z"
             fill="#ffffff"
             id="path1027-5-2-34-5-95-9-3-0-1-0-9-2-7-0-9-2-6-5-6-5-0-5-3-0"
             style="stroke-width:0.446569" />
          <path
             d="m 60.913533,36.500917 c -0.782745,0.0037 -1.555041,-0.179565 -2.252626,-0.534632 -0.697585,-0.355022 -1.300274,-0.871523 -1.757917,-1.506543 -0.457644,-0.634976 -0.757023,-1.370118 -0.873176,-2.1442 -0.116152,-0.774037 -0.04577,-1.564642 0.205332,-2.306035 0.251106,-0.741349 0.675614,-1.412006 1.23829,-1.956194 0.562632,-0.544144 1.247088,-0.946056 1.99643,-1.172243 0.749342,-0.226232 1.541868,-0.270174 2.311618,-0.12821 0.76975,0.14192 1.494486,0.465682 2.113833,0.94427 l -0.597107,0.765552 c -0.582326,-0.445765 -1.277723,-0.719734 -2.00755,-0.790962 -0.729871,-0.07127 -1.465147,0.06305 -2.12263,0.3878 -0.657527,0.324745 -1.211094,0.826911 -1.598179,1.449785 -0.387086,0.622829 -0.592195,1.341537 -0.592195,2.074892 0,0.73331 0.205109,1.452062 0.592195,2.074892 0.387085,0.622874 0.940652,1.12504 1.598179,1.449785 0.657483,0.3247 1.392759,0.459028 2.12263,0.3878 0.729827,-0.07123 1.425224,-0.345198 2.00755,-0.790962 l 0.597107,0.784665 c -0.854018,0.658823 -1.903187,1.014381 -2.981784,1.01054 z"
             fill="#ffffff"
             id="path1029-6-6-2-4-4-7-5-5-4-8-0-4-8-7-7-5-0-7-9-9-49-7-1-7"
             style="stroke-width:0.446569" />
        </g>
      </g>
      <text
         xml:space="preserve"
         style="font-size:1.74342px;line-height:1.25;font-family:'Open Sans';-inkscape-font-specification:'Open Sans, Normal';font-variant-ligatures:none;fill:#ffffff;fill-opacity:1;stroke-width:0.0726423"
         x="137.46956"
         y="91.169144"
         id="text409879-6-1-15-6"><tspan
           sodipodi:role="line"
           id="tspan409877-2-6-9-8"
           style="fill:#ffffff;fill-opacity:1;stroke-width:0.0726423"
           x="137.46956"
           y="91.169144">FOLLOWER</tspan></text>
    </g>
    <g
       id="g411717-0-8"
       transform="translate(-41.00379,-15.176712)"
       inkscape:export-filename="C:\Users\Jared Kirschner\Documents\Diagrams\consistency-modes-draft.png"
       inkscape:export-xdpi="488.02902"
       inkscape:export-ydpi="488.02902">
      <rect
         style="fill:#ca2171;fill-opacity:1;fill-rule:evenodd;stroke-width:0.0872518"
         id="rect53-2-3-24-4-5-6-0-8-1-7-6-14-4-3-1-0-4-9-37-8"
         width="10.270129"
         height="10.019637"
         x="114.98573"
         y="80.484772"
         rx="0.31311369"
         ry="0.31311369" />
      <g
         id="g51357-6-0-2-3-7-8-2-27-3-8-1-5-1-4-6-5-8-7-6"
         transform="matrix(0.28561795,0,0,0.28561795,26.77026,73.430253)">
        <g
           id="g10468-1-5-02-2-71-1-3-6-45-1-0-2-0-8-2-7-9-9-48-0"
           transform="translate(255.49561,0.52274421)">
          <path
             opacity="0.7"
             fill-rule="evenodd"
             clip-rule="evenodd"
             d="m 60.894465,32.634214 c -0.210334,7.14e-4 -0.416158,-0.06114 -0.591257,-0.17769 -0.1751,-0.116554 -0.311616,-0.282544 -0.392087,-0.476891 -0.08047,-0.194346 -0.101371,-0.408253 -0.05993,-0.614478 0.0414,-0.206225 0.143215,-0.395481 0.292503,-0.543697 0.149287,-0.148216 0.339302,-0.24865 0.545796,-0.288573 0.206538,-0.03992 0.42031,-0.0175 0.614032,0.0644 0.193766,0.0819 0.358773,0.219623 0.474077,0.395571 0.115259,0.175948 0.175591,0.382218 0.173313,0.592552 5.36e-4,0.13924 -0.02639,0.277185 -0.07922,0.40602 -0.05283,0.128835 -0.130488,0.246014 -0.228599,0.34484 -0.09811,0.09878 -0.21471,0.177332 -0.343143,0.231055 -0.128478,0.05377 -0.266244,0.08168 -0.405484,0.08217"
             fill="#ffffff"
             id="path1013-1-9-2-6-0-8-4-0-3-8-5-5-7-4-7-5-9-9-4-3-4-9"
             style="stroke-width:0.446569" />
          <path
             fill-rule="evenodd"
             clip-rule="evenodd"
             d="m 62.957478,32.063678 c -0.0974,-4.5e-5 -0.192561,-0.02907 -0.27339,-0.08342 -0.08078,-0.05439 -0.143571,-0.131604 -0.180279,-0.221766 -0.03671,-0.09021 -0.04573,-0.189301 -0.02586,-0.284643 0.01983,-0.09534 0.06766,-0.182602 0.13732,-0.250659 0.06967,-0.06801 0.158041,-0.113786 0.25383,-0.131336 0.09579,-0.0176 0.194659,-0.0063 0.283928,0.0326 0.08931,0.03885 0.165007,0.103426 0.217434,0.185505 0.05243,0.08208 0.07922,0.177913 0.07694,0.275265 0,0.129951 -0.05162,0.254544 -0.143482,0.346448 -0.0919,0.09186 -0.216541,0.143482 -0.346448,0.143482"
             fill="#ffffff"
             id="path1015-4-5-7-8-7-5-8-2-0-1-4-8-9-79-7-8-7-33-1-8-8-3"
             style="stroke-width:0.446569" />
          <path
             fill-rule="evenodd"
             clip-rule="evenodd"
             d="m 64.744511,32.523241 c -0.005,0.118028 -0.05604,0.229403 -0.142187,0.310232 -0.08614,0.08083 -0.200509,0.124682 -0.318627,0.122181 -0.118117,-0.0025 -0.230563,-0.05118 -0.313178,-0.135578 -0.08266,-0.0844 -0.128925,-0.19783 -0.128925,-0.315992 0,-0.118118 0.04626,-0.231546 0.128925,-0.315992 0.08261,-0.0844 0.195061,-0.133078 0.313178,-0.135579 0.118118,-0.0025 0.232484,0.04135 0.318627,0.122226 0.08614,0.08083 0.137186,0.192203 0.142187,0.310231 0.0012,0.01273 0.0012,0.02554 0,0.03827 z"
             fill="#ffffff"
             id="path1017-9-5-43-5-5-6-9-6-2-6-5-5-6-23-6-2-2-3-8-4-1-6"
             style="stroke-width:0.446569" />
          <path
             fill-rule="evenodd"
             clip-rule="evenodd"
             d="m 64.40043,31.263918 c -0.09449,0.01867 -0.192381,0.0091 -0.281427,-0.0276 -0.08905,-0.03666 -0.16532,-0.09874 -0.21931,-0.178494 -0.05395,-0.07976 -0.08324,-0.173625 -0.08413,-0.269906 -9.37e-4,-0.09632 0.02657,-0.190729 0.079,-0.271513 0.05247,-0.08074 0.12754,-0.144287 0.215872,-0.182602 0.08833,-0.03836 0.185995,-0.04979 0.280847,-0.03296 0.09481,0.01688 0.182557,0.06131 0.252222,0.127719 0.06971,0.06645 0.118296,0.151967 0.139686,0.24588 0.01143,0.06328 0.01143,0.128076 0,0.191355 -0.01666,0.09543 -0.06234,0.183406 -0.130844,0.251909 -0.0685,0.0685 -0.156478,0.114233 -0.25191,0.13089"
             fill="#ffffff"
             id="path1019-7-1-0-5-6-3-4-9-4-1-6-8-0-9-4-7-2-62-6-6-83-2"
             style="stroke-width:0.446569" />
          <path
             fill-rule="evenodd"
             clip-rule="evenodd"
             d="m 66.138699,32.470278 c -0.02233,0.127406 -0.09436,0.240745 -0.200242,0.31501 -0.105881,0.07431 -0.236949,0.103514 -0.364355,0.08119 -0.127406,-0.02233 -0.240701,-0.09436 -0.31501,-0.200241 -0.07431,-0.105882 -0.103514,-0.23695 -0.08114,-0.364356 0.01192,-0.06243 0.03604,-0.121824 0.071,-0.174876 0.03497,-0.05305 0.08003,-0.09869 0.132676,-0.134239 0.05265,-0.03559 0.111776,-0.06038 0.174072,-0.07301 0.06225,-0.01264 0.126379,-0.01286 0.18872,-6.7e-4 0.12035,0.02063 0.228643,0.08543 0.303667,0.181708 0.07507,0.09633 0.111463,0.217167 0.102085,0.338857 -0.0022,0.01527 -0.0022,0.03072 0,0.04595"
             fill="#ffffff"
             id="path1021-1-7-8-0-3-9-4-0-4-2-2-4-8-6-7-3-4-9-7-6-05-0"
             style="stroke-width:0.446569" />
          <path
             fill-rule="evenodd"
             clip-rule="evenodd"
             d="m 65.744334,31.241232 c -0.09485,0.01916 -0.19323,0.0096 -0.282589,-0.02746 -0.08936,-0.03707 -0.165632,-0.09999 -0.219042,-0.180637 -0.05345,-0.0807 -0.08154,-0.175457 -0.08078,-0.272183 7.59e-4,-0.09677 0.03037,-0.191087 0.08503,-0.270889 0.05466,-0.07985 0.131916,-0.141518 0.221855,-0.177198 0.08994,-0.03568 0.188452,-0.04368 0.282991,-0.02304 0.09449,0.02068 0.180726,0.06908 0.247577,0.138972 0.06685,0.06993 0.11133,0.158264 0.127719,0.253606 0.0039,0.04202 0.0039,0.08427 0,0.12629 -0.01041,0.106774 -0.05587,0.207074 -0.129282,0.285312 -0.07337,0.07824 -0.170589,0.129997 -0.276426,0.147234"
             fill="#ffffff"
             id="path1023-5-7-9-46-55-5-89-9-3-3-3-3-2-0-0-1-8-0-6-7-16-5"
             style="stroke-width:0.446569" />
          <path
             fill-rule="evenodd"
             clip-rule="evenodd"
             d="m 65.399672,34.161657 c -0.05926,0.105301 -0.155406,0.185013 -0.269906,0.223775 -0.1145,0.03872 -0.239271,0.03381 -0.350378,-0.01389 -0.111061,-0.04769 -0.200554,-0.134774 -0.251328,-0.244496 -0.05078,-0.109677 -0.05917,-0.23427 -0.02362,-0.349797 0.03555,-0.115528 0.112535,-0.213862 0.216184,-0.276069 0.103649,-0.06216 0.226634,-0.08387 0.345331,-0.06087 0.118654,0.023 0.224625,0.08904 0.297549,0.18546 0.07292,0.09641 0.107623,0.216362 0.09744,0.336846 -0.0017,0.07069 -0.02286,0.139598 -0.06127,0.199036 z"
             fill="#ffffff"
             id="path1025-5-86-6-8-3-3-8-9-3-3-0-6-2-2-2-03-38-0-1-1-8-9"
             style="stroke-width:0.446569" />
          <path
             fill-rule="evenodd"
             clip-rule="evenodd"
             d="m 65.22301,29.671454 c -0.112804,0.06355 -0.246149,0.07994 -0.37092,0.0455 -0.124816,-0.03443 -0.230876,-0.116822 -0.295137,-0.229223 -0.03166,-0.05609 -0.05198,-0.117805 -0.0598,-0.181709 -0.0078,-0.0639 -0.0029,-0.128701 0.01429,-0.190729 0.01724,-0.06203 0.04653,-0.120038 0.08619,-0.170768 0.03965,-0.05069 0.08891,-0.09311 0.145001,-0.124772 0.05604,-0.03166 0.11776,-0.05198 0.181664,-0.0598 0.0639,-0.0078 0.128701,-0.0029 0.190729,0.01429 0.06203,0.01724 0.120038,0.04653 0.170768,0.08619 0.05069,0.03965 0.09311,0.08891 0.124771,0.144956 0.04966,0.08565 0.07109,0.184745 0.06123,0.283259 -0.0073,0.07922 -0.03376,0.15545 -0.07708,0.222167 -0.04336,0.06667 -0.102309,0.121824 -0.171705,0.160631 z"
             fill="#ffffff"
             id="path1027-5-2-34-5-95-9-3-0-1-0-9-2-7-0-9-2-6-5-6-5-4-5"
             style="stroke-width:0.446569" />
          <path
             d="m 60.913533,36.500917 c -0.782745,0.0037 -1.555041,-0.179565 -2.252626,-0.534632 -0.697585,-0.355022 -1.300274,-0.871523 -1.757917,-1.506543 -0.457644,-0.634976 -0.757023,-1.370118 -0.873176,-2.1442 -0.116152,-0.774037 -0.04577,-1.564642 0.205332,-2.306035 0.251106,-0.741349 0.675614,-1.412006 1.23829,-1.956194 0.562632,-0.544144 1.247088,-0.946056 1.99643,-1.172243 0.749342,-0.226232 1.541868,-0.270174 2.311618,-0.12821 0.76975,0.14192 1.494486,0.465682 2.113833,0.94427 l -0.597107,0.765552 c -0.582326,-0.445765 -1.277723,-0.719734 -2.00755,-0.790962 -0.729871,-0.07127 -1.465147,0.06305 -2.12263,0.3878 -0.657527,0.324745 -1.211094,0.826911 -1.598179,1.449785 -0.387086,0.622829 -0.592195,1.341537 -0.592195,2.074892 0,0.73331 0.205109,1.452062 0.592195,2.074892 0.387085,0.622874 0.940652,1.12504 1.598179,1.449785 0.657483,0.3247 1.392759,0.459028 2.12263,0.3878 0.729827,-0.07123 1.425224,-0.345198 2.00755,-0.790962 l 0.597107,0.784665 c -0.854018,0.658823 -1.903187,1.014381 -2.981784,1.01054 z"
             fill="#ffffff"
             id="path1029-6-6-2-4-4-7-5-5-4-8-0-4-8-7-7-5-0-7-9-9-3-0"
             style="stroke-width:0.446569" />
        </g>
      </g>
      <g
         style="fill:none;stroke:none;stroke-opacity:1"
         id="g10621-1-7-9-0-0-6-0-5-8-6-0-0-7-8-46-9"
         transform="matrix(0.17462551,0,0,0.17462551,118.37456,83.826781)">
        <path
           fill-rule="evenodd"
           clip-rule="evenodd"
           d="m 9.99992,0.833252 2.83248,5.738338 6.3342,0.92583 -4.5833,4.46418 1.0816,6.3067 -5.66498,-2.9792 -5.665,2.9792 L 5.41659,11.9616 0.833252,7.49742 7.16742,6.57159 Z"
           fill="#ffffff"
           id="path10612-0-9-5-8-4-4-9-1-8-3-3-2-0-0-9-6"
           style="stroke:none;stroke-opacity:1" />
      </g>
      <text
         xml:space="preserve"
         style="font-size:1.74342px;line-height:1.25;font-family:'Open Sans';-inkscape-font-specification:'Open Sans, Normal';font-variant-ligatures:none;fill:#ffffff;fill-opacity:1;stroke-width:0.0726423"
         x="116.90211"
         y="89.20134"
         id="text409879-65-6"><tspan
           sodipodi:role="line"
           id="tspan409877-60-1"
           style="fill:#ffffff;fill-opacity:1;stroke-width:0.0726423"
           x="116.90211"
           y="89.20134">LEADER</tspan></text>
    </g>
    <rect
       style="fill:#eeeeee;fill-opacity:1;stroke-width:0.26121;stroke-linecap:round;stroke-opacity:0.121212;paint-order:markers stroke fill"
       id="rect154299-7-5"
       width="14.358031"
       height="3"
       x="121.46712"
       y="75.729073"
       ry="0" />
    <rect
       style="fill:#eeeeee;fill-opacity:1;stroke-width:0.225778;stroke-linecap:round;stroke-opacity:0.121212;paint-order:markers stroke fill"
       id="rect154299-7-8-4"
       width="10.726982"
       height="3"
       x="121.46712"
       y="63.400314"
       ry="0" />
    <rect
       style="fill:#eeeeee;fill-opacity:1;stroke-width:0.185213;stroke-linecap:round;stroke-opacity:0.121212;paint-order:markers stroke fill"
       id="rect154299-7-8-7-3"
       width="7.2186084"
       height="3"
       x="121.46712"
       y="59.87114"
       ry="0" />
    <text
       xml:space="preserve"
       style="font-size:2.51772px;line-height:1.25;font-family:'Open Sans';-inkscape-font-specification:'Open Sans, Normal';font-variant-ligatures:none;fill:#bacdff;fill-opacity:1;stroke-width:0.132358"
       x="121.96232"
       y="78.064789"
       id="text367293-6-5"
       inkscape:export-filename="C:\Users\Jared Kirschner\Documents\Diagrams\consistency-modes-draft.png"
       inkscape:export-xdpi="488.02902"
       inkscape:export-ydpi="488.02902"><tspan
         sodipodi:role="line"
         id="tspan367291-6-8"
         style="font-style:normal;font-variant:normal;font-weight:normal;font-stretch:normal;font-size:2.51772px;font-family:'Open Sans';-inkscape-font-specification:'Open Sans';fill:#bacdff;fill-opacity:1;stroke-width:0.132358"
         x="121.96232"
         y="78.064789"><tspan
   style="font-style:normal;font-variant:normal;font-weight:bold;font-stretch:normal;font-size:2.51772px;font-family:'Open Sans';-inkscape-font-specification:'Open Sans';font-variant-ligatures:none;font-variant-caps:normal;font-variant-numeric:normal;font-variant-east-asian:normal;fill:#bacdff;fill-opacity:1;stroke-width:0.132358"
   id="tspan520181-2-6">consistent</tspan>  read;</tspan><tspan
         sodipodi:role="line"
         style="font-style:normal;font-variant:normal;font-weight:normal;font-stretch:normal;font-size:2.51772px;font-family:'Open Sans';-inkscape-font-specification:'Open Sans';fill:#bacdff;fill-opacity:1;stroke-width:0.132358"
         x="121.96232"
         y="81.211937"
         id="tspan498314-7-5">any write</tspan></text>
    <circle
       style="fill:#ffb000;fill-opacity:1;stroke:none;stroke-width:0.402812;stroke-linecap:round;stroke-miterlimit:4;stroke-dasharray:none;stroke-opacity:1;paint-order:normal"
       id="path356813-5-3-4"
       cx="100.20789"
       cy="61.750381"
       r="2.7961044" />
    <text
       xml:space="preserve"
       style="font-size:2.51772px;line-height:1.25;font-family:'Open Sans';-inkscape-font-specification:'Open Sans, Normal';font-variant-ligatures:none;fill:#ffb000;fill-opacity:1;stroke-width:0.132358"
       x="122.00672"
       y="62.362289"
       id="text367293-9-0-04-4"><tspan
         sodipodi:role="line"
         id="tspan367291-7-1-76-2"
         style="font-style:normal;font-variant:normal;font-weight:normal;font-stretch:normal;font-size:2.51772px;font-family:'Open Sans';-inkscape-font-specification:'Open Sans';fill:#ffb000;fill-opacity:1;stroke-width:0.132358"
         x="122.00672"
         y="62.362289"><tspan
   style="font-weight:bold"
   id="tspan210084-0">stale </tspan> read</tspan></text>
    <text
       xml:space="preserve"
       style="font-size:2.51772px;line-height:1.25;font-family:'Open Sans';-inkscape-font-specification:'Open Sans, Normal';font-variant-ligatures:none;text-align:center;text-anchor:middle;stroke-width:0.14435"
       x="108.09248"
       y="86.673294"
       id="text349434-0-7"><tspan
         sodipodi:role="line"
         id="tspan349432-8-4"
         style="font-style:normal;font-variant:normal;font-weight:600;font-stretch:normal;font-size:2.51772px;font-family:'Open Sans';-inkscape-font-specification:'Open Sans Semi-Bold';text-align:center;text-anchor:middle;stroke-width:0.14435"
         x="108.09248"
         y="86.673294">Consistency</tspan></text>
    <text
       xml:space="preserve"
       style="font-size:2.51772px;line-height:1.25;font-family:'Open Sans';-inkscape-font-specification:'Open Sans, Normal';font-variant-ligatures:none;text-align:center;text-anchor:middle;stroke-width:0.14435"
       x="-71.028648"
       y="95.03627"
       id="text349434-3-7-8"
       transform="rotate(-90)"><tspan
         sodipodi:role="line"
         id="tspan349432-3-9-9"
         style="font-style:normal;font-variant:normal;font-weight:600;font-stretch:normal;font-size:2.51772px;font-family:'Open Sans';-inkscape-font-specification:'Open Sans Semi-Bold';text-align:center;text-anchor:middle;stroke-width:0.14435"
         x="-71.028648"
         y="95.03627">Performance</tspan></text>
    <path
       style="fill:none;stroke:#cbcbcb;stroke-width:0.132022;stroke-linecap:butt;stroke-linejoin:miter;stroke-miterlimit:4;stroke-dasharray:0.792127, 0.792127;stroke-dashoffset:0;stroke-opacity:1"
       d="M 108.83959,58.812817 V 81.951319"
       id="path370984-7-2" />
    <path
       style="fill:none;stroke:#cbcbcb;stroke-width:0.132022;stroke-linecap:butt;stroke-linejoin:miter;stroke-miterlimit:4;stroke-dasharray:0.792127, 0.792127;stroke-dashoffset:0;stroke-opacity:1"
       d="M 120.34596,76.166695 H 97.207458"
       id="path370984-1-4-6" />
    <path
       style="fill:none;stroke:#cbcbcb;stroke-width:0.132022;stroke-linecap:butt;stroke-linejoin:miter;stroke-miterlimit:4;stroke-dasharray:0.792127, 0.792127;stroke-dashoffset:0;stroke-opacity:1"
       d="M 120.34596,70.382075 H 97.207458"
       id="path370984-1-8-5-9" />
    <path
       style="fill:none;stroke:#cbcbcb;stroke-width:0.132022;stroke-linecap:butt;stroke-linejoin:miter;stroke-miterlimit:4;stroke-dasharray:0.792127, 0.792127;stroke-dashoffset:0;stroke-opacity:1"
       d="M 120.34596,64.597447 H 97.207458"
       id="path370984-1-8-3-9-1-3" />
    <path
       style="fill:none;stroke:#cbcbcb;stroke-width:0.132022;stroke-linecap:butt;stroke-linejoin:miter;stroke-miterlimit:4;stroke-dasharray:0.792127, 0.792127;stroke-dashoffset:0;stroke-opacity:1"
       d="M 103.05496,58.812817 V 81.951319"
       id="path370984-6-94-4" />
    <path
       style="fill:none;stroke:#cbcbcb;stroke-width:0.132022;stroke-linecap:butt;stroke-linejoin:miter;stroke-miterlimit:4;stroke-dasharray:0.792127, 0.792127;stroke-dashoffset:0;stroke-opacity:1"
       d="M 114.62421,58.624197 V 81.762672"
       id="path370984-6-9-7-2" />
    <rect
       style="fill:none;fill-opacity:1;stroke:#000000;stroke-width:0.249098;stroke-linecap:round;stroke-miterlimit:4;stroke-dasharray:none;stroke-opacity:1;paint-order:normal"
       id="rect356214-1-7"
       width="23.138494"
       height="23.138494"
       x="97.270309"
       y="58.812805"
       rx="0"
       ry="0" />
    <text
       xml:space="preserve"
       style="font-size:2.51772px;line-height:1.25;font-family:'Open Sans';-inkscape-font-specification:'Open Sans, Normal';font-variant-ligatures:none;fill:#b1b1b1;fill-opacity:1;stroke:none;stroke-width:0.110328;stroke-opacity:1"
       x="117.04784"
       y="84.80542"
       id="text377627-7-1"><tspan
         sodipodi:role="line"
         id="tspan377625-4-6"
         style="font-size:2.51772px;fill:#525252;fill-opacity:1;stroke:none;stroke-width:0.110328;stroke-opacity:1"
         x="117.04784"
         y="84.80542">more</tspan></text>
    <text
       xml:space="preserve"
       style="font-size:2.51772px;line-height:1.25;font-family:'Open Sans';-inkscape-font-specification:'Open Sans, Normal';font-variant-ligatures:none;fill:#b1b1b1;fill-opacity:1;stroke:none;stroke-width:0.110328;stroke-opacity:1"
       x="93.497513"
       y="57.545921"
       id="text377627-7-1-4"><tspan
         sodipodi:role="line"
         id="tspan377625-4-6-2"
         style="font-size:2.51772px;fill:#525252;fill-opacity:1;stroke:none;stroke-width:0.110328;stroke-opacity:1"
         x="93.497513"
         y="57.545921">more</tspan></text>
    <text
       xml:space="preserve"
       style="font-size:2.51772px;line-height:1.25;font-family:'Open Sans';-inkscape-font-specification:'Open Sans, Normal';font-variant-ligatures:none;fill:#b1b1b1;fill-opacity:1;stroke:none;stroke-width:0.110328;stroke-opacity:1"
       x="94.709061"
       y="84.80542"
       id="text377627-28-6-6"><tspan
         sodipodi:role="line"
         id="tspan377625-3-74-8"
         style="font-size:2.51772px;fill:#525252;fill-opacity:1;stroke:none;stroke-width:0.110328;stroke-opacity:1"
         x="94.709061"
         y="84.80542">less</tspan></text>
    <text
       xml:space="preserve"
       style="font-size:2.51772px;line-height:1.25;font-family:'Open Sans';-inkscape-font-specification:'Open Sans, Normal';font-variant-ligatures:none;fill:#ffcdb0;fill-opacity:1;stroke-width:0.132358"
       x="122.27279"
       y="65.863647"
       id="text367293-9-6-8"
       inkscape:export-filename="C:\Users\Jared Kirschner\Documents\Diagrams\consistency-modes-draft.png"
       inkscape:export-xdpi="488.02902"
       inkscape:export-ydpi="488.02902"><tspan
         sodipodi:role="line"
         id="tspan367291-7-3-0"
         style="font-style:normal;font-variant:normal;font-weight:normal;font-stretch:normal;font-size:2.51772px;font-family:'Open Sans';-inkscape-font-specification:'Open Sans';fill:#ffcdb0;fill-opacity:1;stroke-width:0.132358"
         x="122.27279"
         y="65.863647"><tspan
   style="font-style:normal;font-variant:normal;font-weight:bold;font-stretch:normal;font-size:2.51772px;font-family:'Open Sans';-inkscape-font-specification:'Open Sans';font-variant-ligatures:none;font-variant-caps:normal;font-variant-numeric:normal;font-variant-east-asian:normal;fill:#ffcdb0;fill-opacity:1;stroke-width:0.132358"
   id="tspan522799-9-9">default</tspan>  read</tspan></text>
    <text
       xml:space="preserve"
       style="font-size:2.51772px;line-height:1.25;font-family:'Open Sans';-inkscape-font-specification:'Open Sans, Normal';font-variant-ligatures:none;stroke-width:0.146393"
       x="92.392227"
       y="51.557259"
       id="text453204-9-5-1-0"
       inkscape:export-filename="C:\Users\Jared Kirschner\Documents\Diagrams\consistency-modes-draft.png"
       inkscape:export-xdpi="488.02902"
       inkscape:export-ydpi="488.02902"><tspan
         sodipodi:role="line"
         id="tspan453202-5-7-1-3"
         style="font-style:normal;font-variant:normal;font-weight:300;font-stretch:normal;font-size:2.51772px;font-family:'Open Sans';-inkscape-font-specification:'Open Sans Light';stroke-width:0.146393"
         x="92.392227"
         y="51.557259">TRADE-OFFS</tspan></text>
    <circle
       style="fill:#bacdff;fill-opacity:1;stroke:none;stroke-width:0.402812;stroke-linecap:round;stroke-miterlimit:4;stroke-dasharray:none;stroke-opacity:1;paint-order:normal"
       id="path356813-5-3-2-7"
       cx="117.46526"
       cy="78.995239"
       r="2.7961044" />
    <circle
       style="fill:#ffcdb0;fill-opacity:1;stroke:none;stroke-width:0.402812;stroke-linecap:round;stroke-miterlimit:4;stroke-dasharray:none;stroke-opacity:1;paint-order:normal"
       id="path356813-5-3-2-5-1"
       cx="114.59445"
       cy="64.641113"
       r="2.7961044" />
    <text
       xml:space="preserve"
       style="font-style:normal;font-variant:normal;font-weight:300;font-stretch:normal;font-size:2.51772px;line-height:1.25;font-family:'Open Sans';-inkscape-font-specification:'Open Sans Light';font-variant-ligatures:none;stroke-width:0.143532"
       x="106.50046"
       y="51.350517"
       id="text109028"><tspan
         sodipodi:role="line"
         id="tspan109026"
         style="font-style:normal;font-variant:normal;font-weight:300;font-stretch:normal;font-size:2.51772px;font-family:'Open Sans';-inkscape-font-specification:'Open Sans Light';stroke-width:0.143532"
         x="106.50046"
         y="51.350517"> | performance vs consistency</tspan></text>
    <path
       style="fill:none;stroke:#ffb000;stroke-width:0.4;stroke-linecap:butt;stroke-linejoin:miter;stroke-miterlimit:4;stroke-dasharray:none;stroke-opacity:1;marker-end:url(#Arrow1Send)"
       d="m 45.44895,70.68652 h 2.01933 l 5.31039,9.19788 h 1.62648"
       id="path414383-7-8-8"
       sodipodi:nodetypes="cccc"
       inkscape:export-filename="C:\Users\Jared Kirschner\Documents\Diagrams\consistency-modes-draft.png"
       inkscape:export-xdpi="488.02902"
       inkscape:export-ydpi="488.02902" />
    <circle
       style="fill:#ffffff;fill-opacity:1;stroke:#ffb000;stroke-width:0.4;stroke-linecap:round;stroke-miterlimit:4;stroke-dasharray:none;stroke-dashoffset:0;stroke-opacity:1;paint-order:normal"
       id="path427028-6-3-0-2-5-92-4"
       cx="50.085888"
       cy="75.290939"
       r="1.2047776"
       inkscape:export-filename="C:\Users\Jared Kirschner\Documents\Diagrams\consistency-modes-draft.png"
       inkscape:export-xdpi="488.02902"
       inkscape:export-ydpi="488.02902" />
    <text
       xml:space="preserve"
       style="font-size:1.93419px;line-height:1.25;font-family:'Open Sans';-inkscape-font-specification:'Open Sans, Normal';font-variant-ligatures:none;fill:#ffb000;fill-opacity:1;stroke-width:0.0805911"
       x="50.079769"
       y="75.991203"
       id="text428904-8-7-2-6-0-0-2"
       inkscape:export-filename="C:\Users\Jared Kirschner\Documents\Diagrams\consistency-modes-draft.png"
       inkscape:export-xdpi="488.02902"
       inkscape:export-ydpi="488.02902"><tspan
         sodipodi:role="line"
         id="tspan428902-0-2-1-8-3-9-6"
         style="font-weight:bold;text-align:center;text-anchor:middle;fill:#ffb000;fill-opacity:1;stroke-width:0.0805911"
         x="50.079769"
         y="75.991203">1</tspan></text>
    <path
       style="fill:none;stroke:#ffb000;stroke-width:0.4;stroke-linecap:butt;stroke-linejoin:miter;stroke-miterlimit:4;stroke-dasharray:none;stroke-opacity:1;marker-end:url(#Arrow1Send)"
       d="m 45.44895,69.90955 h 2.01933 l 5.31039,-9.197881 H 54.339"
       id="path414383-00-5"
       sodipodi:nodetypes="cccc"
       inkscape:export-filename="C:\Users\Jared Kirschner\Documents\Diagrams\consistency-modes-draft.png"
       inkscape:export-xdpi="488.02902"
       inkscape:export-ydpi="488.02902" />
    <circle
       style="fill:#ffffff;fill-opacity:1;stroke:#ffb000;stroke-width:0.4;stroke-linecap:round;stroke-miterlimit:4;stroke-dasharray:none;stroke-dashoffset:0;stroke-opacity:1;paint-order:normal"
       id="path427028-6-3-0-3-6-0"
       cx="50.085888"
       cy="65.20649"
       r="1.2047776"
       inkscape:export-filename="C:\Users\Jared Kirschner\Documents\Diagrams\consistency-modes-draft.png"
       inkscape:export-xdpi="488.02902"
       inkscape:export-ydpi="488.02902" />
    <text
       xml:space="preserve"
       style="font-size:1.93419px;line-height:1.25;font-family:'Open Sans';-inkscape-font-specification:'Open Sans, Normal';font-variant-ligatures:none;fill:#ffb000;fill-opacity:1;stroke-width:0.0805911"
       x="50.079769"
       y="65.906799"
       id="text428904-8-7-2-3-28-2"
       inkscape:export-filename="C:\Users\Jared Kirschner\Documents\Diagrams\consistency-modes-draft.png"
       inkscape:export-xdpi="488.02902"
       inkscape:export-ydpi="488.02902"><tspan
         sodipodi:role="line"
         id="tspan428902-0-2-1-1-1-4"
         style="font-weight:bold;text-align:center;text-anchor:middle;fill:#ffb000;fill-opacity:1;stroke-width:0.0805911"
         x="50.079769"
         y="65.906799">1</tspan></text>
    <path
       style="fill:none;stroke:#ffb000;stroke-width:0.4;stroke-linecap:butt;stroke-linejoin:miter;stroke-miterlimit:4;stroke-dasharray:none;stroke-opacity:1;marker-end:url(#Arrow1Send)"
       d="m 45.44895,70.29607 h 28.2476"
       id="path412056-0-7"
       inkscape:export-filename="C:\Users\Jared Kirschner\Documents\Diagrams\consistency-modes-draft.png"
       inkscape:export-xdpi="488.02902"
       inkscape:export-ydpi="488.02902"
       sodipodi:nodetypes="cc" />
    <circle
       style="fill:#ffffff;fill-opacity:1;stroke:#ffb000;stroke-width:0.4;stroke-linecap:round;stroke-miterlimit:4;stroke-dasharray:none;stroke-dashoffset:0;stroke-opacity:1;paint-order:normal"
       id="path427028-6-3-9-1-0"
       cx="60.058773"
       cy="70.345619"
       r="1.2047776"
       inkscape:export-filename="C:\Users\Jared Kirschner\Documents\Diagrams\consistency-modes-draft.png"
       inkscape:export-xdpi="488.02902"
       inkscape:export-ydpi="488.02902" />
    <text
       xml:space="preserve"
       style="font-size:1.93419px;line-height:1.25;font-family:'Open Sans';-inkscape-font-specification:'Open Sans, Normal';font-variant-ligatures:none;fill:#ffb000;fill-opacity:1;stroke-width:0.0805911"
       x="60.052639"
       y="71.045906"
       id="text428904-8-7-7-9-8"
       inkscape:export-filename="C:\Users\Jared Kirschner\Documents\Diagrams\consistency-modes-draft.png"
       inkscape:export-xdpi="488.02902"
       inkscape:export-ydpi="488.02902"><tspan
         sodipodi:role="line"
         id="tspan428902-0-2-7-20-8"
         style="font-weight:bold;text-align:center;text-anchor:middle;fill:#ffb000;fill-opacity:1;stroke-width:0.0805911"
         x="60.052639"
         y="71.045906">1</tspan></text>
    <g
       id="g448238-7-86-3"
       transform="translate(15.58252,-138.43836)"
       inkscape:export-filename="C:\Users\Jared Kirschner\Documents\Diagrams\consistency-modes-draft.png"
       inkscape:export-xdpi="488.02902"
       inkscape:export-ydpi="488.02902">
      <rect
         style="fill:none;fill-opacity:1;fill-rule:evenodd;stroke:#ca2171;stroke-width:0.5;stroke-miterlimit:4;stroke-dasharray:none;stroke-opacity:1"
         id="rect53-8-1-6-5-9"
         width="9.6966677"
         height="9.4601641"
         x="20.152113"
         y="204.02617"
         rx="0.29563013"
         ry="0.29563013" />
      <circle
         style="fill:#ca2171;fill-opacity:1;stroke:none;stroke-width:0.257208;stroke-miterlimit:4;stroke-dasharray:none;stroke-opacity:1"
         id="path1524-2-9-5-6"
         cx="22.45083"
         cy="210.87167"
         r="0.79435986" />
    </g>
  </g>
</svg>
