<svg id="Layer_1" data-name="Layer 1" xmlns="http://www.w3.org/2000/svg" xmlns:xlink="http://www.w3.org/1999/xlink" viewBox="0 0 488 356"><defs><style>.cls-1{fill:url(#linear-gradient);}.cls-2{opacity:0.7;}.cls-3,.cls-4{fill:#fff;}.cls-3{fill-rule:evenodd;}.cls-13,.cls-5{fill:var(--consul, #dc477d);}.cls-15,.cls-16,.cls-6,.cls-7,.cls-9{fill:none;}.cls-15,.cls-16,.cls-6{stroke:var(--consul, #dc477d);stroke-linecap:round;}.cls-6,.cls-9{stroke-miterlimit:10;}.cls-15,.cls-16,.cls-6,.cls-9{stroke-width:1.5px;}.cls-8{fill:var(--gray-5, #dbdbdc);}.cls-9{stroke:var(--gray-4, #bfbfc0);}.cls-10{fill:var(--consul, #dc477d);}.cls-11{fill:var(--consul, #dc477d);}.cls-12{fill:var(--consul, #dc477d);}.cls-13{stroke:#fff;stroke-width:2px;}.cls-14{fill:#9295a0;}.cls-15,.cls-16{stroke-linejoin:round;}.cls-16{stroke-dasharray:0.5 4;}</style><linearGradient id="linear-gradient" y1="28" x2="56" y2="28" gradientUnits="userSpaceOnUse"><stop offset="0" stop-color="#b93570"/><stop offset="1" stop-color="#812249"/></linearGradient><symbol id="consul-agent" data-name="consul-agent" viewBox="0 0 56 56"><rect class="cls-1" width="56" height="56" rx="28"/><g class="cls-2"><path class="cls-3" d="M27.56,30.65A2.68,2.68,0,1,1,30.15,28a2.64,2.64,0,0,1-2.59,2.69"/></g><path class="cls-3" d="M32.62,29.21A1.24,1.24,0,1,1,33.81,28a1.21,1.21,0,0,1-1.19,1.24"/><path class="cls-3" d="M37,30.37h0a1.19,1.19,0,0,1-1.45.9,1.24,1.24,0,0,1-.87-1.5,1.21,1.21,0,0,1,1.46-.9A1.25,1.25,0,0,1,37,30.28a.32.32,0,0,0,0,.09"/><path class="cls-3" d="M36.15,27.18a1.19,1.19,0,0,1-1.44-.92,1.24,1.24,0,0,1,.89-1.49A1.2,1.2,0,0,1,37,25.7a1.3,1.3,0,0,1,0,.48,1.17,1.17,0,0,1-.9,1"/><path class="cls-3" d="M40.42,30.24a1.2,1.2,0,0,1-1.39,1,1.22,1.22,0,0,1-1-1.43,1.19,1.19,0,0,1,1.38-1,1.25,1.25,0,0,1,1,1.33.31.31,0,0,0,0,.11"/><path class="cls-3" d="M39.44,27.13a1.19,1.19,0,0,1-1.37-1,1.23,1.23,0,0,1,1-1.42,1.21,1.21,0,0,1,1.38,1,1.71,1.71,0,0,1,0,.32,1.2,1.2,0,0,1-1,1.1"/><path class="cls-3" d="M38.6,34.53h0A1.17,1.17,0,0,1,37,35a1.25,1.25,0,0,1-.45-1.69,1.17,1.17,0,0,1,1.63-.47,1.26,1.26,0,0,1,.6,1.19,1.11,1.11,0,0,1-.15.51"/><path class="cls-3" d="M38.17,23.15a1.19,1.19,0,0,1-1.63-.47A1.28,1.28,0,0,1,37,21a1.19,1.19,0,0,1,1.64.48,1.21,1.21,0,0,1,.15.71,1.26,1.26,0,0,1-.61,1"/><path class="cls-4" d="M27.6,40.44a11.77,11.77,0,0,1-8.52-3.64,12.76,12.76,0,0,1,0-17.6,11.8,11.8,0,0,1,8.52-3.64,11.68,11.68,0,0,1,7.32,2.55l-1.47,2a9.32,9.32,0,0,0-5.85-2A9.44,9.44,0,0,0,20.79,21a10.22,10.22,0,0,0,0,14.08,9.43,9.43,0,0,0,6.81,2.9,9.32,9.32,0,0,0,5.85-2l1.47,2A11.72,11.72,0,0,1,27.6,40.44Z"/></symbol><symbol id="firewall-light" data-name="firewall-light" viewBox="0 0 40 40"><rect class="cls-4" x="0.75" y="0.75" width="38.5" height="38.5" rx="1.25"/><path class="cls-8" d="M38,1.5a.5.5,0,0,1,.5.5V38a.5.5,0,0,1-.5.5H2a.5.5,0,0,1-.5-.5V2A.5.5,0,0,1,2,1.5H38M38,0H2A2,2,0,0,0,0,2V38a2,2,0,0,0,2,2H38a2,2,0,0,0,2-2V2a2,2,0,0,0-2-2Z"/><rect class="cls-9" x="10" y="11" width="20" height="18" rx="2"/><line class="cls-9" x1="10" y1="17" x2="30" y2="17"/><line class="cls-9" x1="10" y1="23" x2="30" y2="23"/><line class="cls-9" x1="16" y1="23" x2="16" y2="29"/><line class="cls-9" x1="24" y1="17" x2="24" y2="23"/><line class="cls-9" x1="16" y1="11" x2="16" y2="17"/></symbol><symbol id="service" data-name="service" viewBox="0 0 40 40"><rect class="cls-4" x="0.75" y="0.75" width="38.5" height="38.5" rx="1.75"/><path class="cls-5" d="M37.5,1.5a1,1,0,0,1,1,1v35a1,1,0,0,1-1,1H2.5a1,1,0,0,1-1-1V2.5a1,1,0,0,1,1-1h35m0-1.5H2.5A2.5,2.5,0,0,0,0,2.5v35A2.5,2.5,0,0,0,2.5,40h35A2.5,2.5,0,0,0,40,37.5V2.5A2.5,2.5,0,0,0,37.5,0Z"/><circle class="cls-13" cx="32" cy="32" r="4"/></symbol><symbol id="consul-conductor" data-name="consul-conductor" viewBox="0 0 40 40"><rect class="cls-4" x="0.75" y="0.75" width="38.5" height="38.5" rx="1.25"/><path class="cls-5" d="M38,1.5a.5.5,0,0,1,.5.5V38a.5.5,0,0,1-.5.5H2a.5.5,0,0,1-.5-.5V2A.5.5,0,0,1,2,1.5H38M38,0H2A2,2,0,0,0,0,2V38a2,2,0,0,0,2,2H38a2,2,0,0,0,2-2V2a2,2,0,0,0-2-2Z"/><circle class="cls-5" cx="11" cy="28" r="1.5"/><line class="cls-6" x1="19" y1="28" x2="31" y2="28"/><line class="cls-6" x1="19" y1="20" x2="31" y2="20"/><polyline class="cls-6" points="8.6 20 10.2 21.5 13.4 18.5"/><rect class="cls-7" x="7" y="17" width="8" height="6"/><rect class="cls-7" x="17" y="17" width="16" height="6"/><line class="cls-6" x1="19" y1="12" x2="31" y2="12"/><polyline class="cls-6" points="8.6 12 10.2 13.5 13.4 10.5"/><rect class="cls-7" x="7" y="9" width="8" height="6"/><rect class="cls-7" x="17" y="9" width="16" height="6"/><rect class="cls-7" x="7" y="25" width="26" height="6"/></symbol><symbol id="grid" data-name="grid" viewBox="0 0 40 40"><rect class="cls-4" x="0.75" y="0.75" width="38.5" height="38.5" rx="1.75"/><path class="cls-5" d="M37.5,1.5a1,1,0,0,1,1,1v35a1,1,0,0,1-1,1H2.5a1,1,0,0,1-1-1V2.5a1,1,0,0,1,1-1h35m0-1.5H2.5A2.5,2.5,0,0,0,0,2.5v35A2.5,2.5,0,0,0,2.5,40h35A2.5,2.5,0,0,0,40,37.5V2.5A2.5,2.5,0,0,0,37.5,0Z"/><circle class="cls-5" cx="30" cy="30" r="3"/><rect class="cls-5" x="7" y="7" width="6" height="6"/><rect class="cls-10" x="17" y="7" width="6" height="6"/><rect class="cls-11" x="27" y="7" width="6" height="6"/><rect class="cls-12" x="7" y="17" width="6" height="6"/><rect class="cls-12" x="17" y="17" width="6" height="6"/><rect class="cls-11" x="27" y="17" width="6" height="6"/><rect class="cls-10" x="7" y="27" width="6" height="6"/></symbol></defs><rect class="cls-7" x="86.33" y="81.88" width="314" height="192.38"/><path class="cls-8" d="M282.33,91.75a.5.5,0,0,1,.5.5v68a.5.5,0,0,1-.5.5h-88a.5.5,0,0,1-.5-.5v-68a.51.51,0,0,1,.5-.5h88m0-1.5h-88a2,2,0,0,0-2,2v68a2,2,0,0,0,2,2h88a2,2,0,0,0,2-2v-68a2,2,0,0,0-2-2Z"/><rect class="cls-4" x="212.33" y="82.25" width="52" height="16"/><use width="56" height="56" transform="translate(200.33 201.88)" xlink:href="#consul-agent"/><path class="cls-14" d="M92.93,270.25H91.65v-6.39H93l2.79,4.22v-4.22H97v6.39H95.72L92.93,266Z"/><path class="cls-14" d="M103.35,270.25h-4.6v-6.39h4.6v1.21h-3.29v1.34h3.15v1.2h-3.15v1.44h3.29Z"/><path class="cls-14" d="M107.58,270.25h-1.39l-2-6.39h1.48l1.19,4.52h0l1.28-4.52h1.42l1.28,4.52h0l1.19-4.52h1.44l-2,6.39h-1.39l-1.3-4.52h0Z"/><path class="cls-14" d="M120.15,269a.63.63,0,0,0,.3-.55.49.49,0,0,0-.19-.41,1.34,1.34,0,0,0-.49-.26c-.2-.06-.42-.11-.67-.16a6.44,6.44,0,0,1-.72-.2,2.77,2.77,0,0,1-.67-.32,1.32,1.32,0,0,1-.49-.55,1.86,1.86,0,0,1-.19-.87,1.83,1.83,0,0,1,.63-1.41,2.44,2.44,0,0,1,1.7-.56,2.38,2.38,0,0,1,1.72.61,2.13,2.13,0,0,1,.66,1.52h-1.29a1,1,0,0,0-.31-.7,1.14,1.14,0,0,0-.8-.26,1.22,1.22,0,0,0-.74.2.62.62,0,0,0-.27.52.54.54,0,0,0,.18.42,1.38,1.38,0,0,0,.5.25c.2.06.43.12.67.17a6.21,6.21,0,0,1,.74.2,3,3,0,0,1,.68.32,1.42,1.42,0,0,1,.49.56,1.89,1.89,0,0,1,.19.89,1.7,1.7,0,0,1-.69,1.4,2.88,2.88,0,0,1-1.84.55,3,3,0,0,1-1.12-.19,1.87,1.87,0,0,1-.77-.5,2.41,2.41,0,0,1-.42-.68,2.57,2.57,0,0,1-.15-.78h1.29a1,1,0,0,0,.34.7,1.29,1.29,0,0,0,.9.28A1.57,1.57,0,0,0,120.15,269Z"/><path class="cls-14" d="M127.82,270.25h-4.6v-6.39h4.6v1.21h-3.29v1.34h3.16v1.2h-3.16v1.44h3.29Z"/><path class="cls-14" d="M133.08,270.25l-1.2-2.42h-1.26v2.42H129.3v-6.39h2.9a2.14,2.14,0,0,1,1.58.55,2,2,0,0,1,.56,1.45A2,2,0,0,1,134,267a1.68,1.68,0,0,1-.84.71l1.4,2.56Zm-.27-5a.82.82,0,0,0-.61-.21h-1.58v1.55h1.58a.84.84,0,0,0,.62-.2.77.77,0,0,0,.2-.56A.81.81,0,0,0,132.81,265.28Z"/><path class="cls-14" d="M141.19,263.86l-2.43,6.39h-1.35L135,263.86h1.48l1.63,4.65h0l1.63-4.65Z"/><path class="cls-14" d="M143.57,270.25h-1.31v-6.39h1.31Z"/><path class="cls-14" d="M145.89,264.64a3.13,3.13,0,0,1,2.31-.91,3.19,3.19,0,0,1,2.06.67,2.78,2.78,0,0,1,1,1.83h-1.4a1.56,1.56,0,0,0-.59-.92,1.82,1.82,0,0,0-1.1-.33,1.66,1.66,0,0,0-1.35.56,2.62,2.62,0,0,0,0,3,1.69,1.69,0,0,0,1.35.56,1.82,1.82,0,0,0,1.1-.33,1.63,1.63,0,0,0,.59-.92h1.4a2.76,2.76,0,0,1-1,1.82,3.19,3.19,0,0,1-2.06.68,3.14,3.14,0,0,1-2.31-.92,3.28,3.28,0,0,1-.91-2.4A3.32,3.32,0,0,1,145.89,264.64Z"/><path class="cls-14" d="M157.24,270.25h-4.6v-6.39h4.6v1.21H154v1.34h3.15v1.2H154v1.44h3.28Z"/><path class="cls-14" d="M277.86,264.42a2.72,2.72,0,0,1,2-.82,2.88,2.88,0,0,1,1.84.6,2.46,2.46,0,0,1,.91,1.62h-1.24a1.41,1.41,0,0,0-.53-.82,1.65,1.65,0,0,0-1-.29,1.48,1.48,0,0,0-1.19.5,2.3,2.3,0,0,0,0,2.68,1.45,1.45,0,0,0,1.19.5,1.65,1.65,0,0,0,1-.29,1.41,1.41,0,0,0,.53-.82h1.24a2.46,2.46,0,0,1-.91,1.62,2.88,2.88,0,0,1-1.84.6,2.75,2.75,0,0,1-2-.81,2.92,2.92,0,0,1-.81-2.14A2.88,2.88,0,0,1,277.86,264.42Z"/><path class="cls-14" d="M288.57,268.68a3.08,3.08,0,0,1-4.23,0,3,3,0,0,1,2.12-5.08,2.84,2.84,0,0,1,2.11.84,3.1,3.1,0,0,1,0,4.24Zm-.88-3.46a1.6,1.6,0,0,0-1.23-.51,1.62,1.62,0,0,0-1.24.51,2.11,2.11,0,0,0,0,2.68,1.62,1.62,0,0,0,1.24.51,1.6,1.6,0,0,0,1.23-.51,2.11,2.11,0,0,0,0-2.68Z"/><path class="cls-14" d="M291.8,269.4h-1.14v-5.68h1.18l2.48,3.75v-3.75h1.13v5.68h-1.17l-2.48-3.75Z"/><path class="cls-14" d="M299.65,268.3a.57.57,0,0,0,.26-.49.43.43,0,0,0-.17-.36,1.17,1.17,0,0,0-.43-.23l-.59-.15a4.77,4.77,0,0,1-.65-.17,2.68,2.68,0,0,1-.59-.28,1.27,1.27,0,0,1-.44-.5,1.73,1.73,0,0,1,.39-2,2.22,2.22,0,0,1,1.51-.5,2.13,2.13,0,0,1,1.53.54,1.91,1.91,0,0,1,.58,1.36h-1.14a.81.81,0,0,0-.28-.62,1,1,0,0,0-.7-.24,1.12,1.12,0,0,0-.66.18.56.56,0,0,0-.25.46.5.5,0,0,0,.17.38,1.21,1.21,0,0,0,.44.22l.6.15a4,4,0,0,1,.66.18,2.76,2.76,0,0,1,.6.28,1.35,1.35,0,0,1,.44.5,1.73,1.73,0,0,1,.16.78,1.51,1.51,0,0,1-.62,1.26,2.56,2.56,0,0,1-1.62.48,3,3,0,0,1-1-.16,1.62,1.62,0,0,1-.68-.45,1.75,1.75,0,0,1-.37-.61,2,2,0,0,1-.14-.69h1.15a.86.86,0,0,0,.3.62,1.16,1.16,0,0,0,.8.25A1.4,1.4,0,0,0,299.65,268.3Z"/><path class="cls-14" d="M303.05,268.89a2.35,2.35,0,0,1-.69-1.83v-3.34h1.17v3.38a1.44,1.44,0,0,0,.31,1,1.14,1.14,0,0,0,.93.36,1.17,1.17,0,0,0,.93-.36,1.49,1.49,0,0,0,.31-1v-3.38h1.16v3.34a2.38,2.38,0,0,1-.68,1.83,2.66,2.66,0,0,1-3.44,0Z"/><path class="cls-14" d="M312.37,269.4h-3.69v-5.68h1.17v4.61h2.52Z"/><path class="cls-14" d="M316.77,267.05h-4V266h4Z"/><path class="cls-14" d="M320.81,264.82h-1.56v4.58h-1.17v-4.58h-1.56v-1.1h4.29Z"/><path class="cls-14" d="M325.85,269.4h-4.08v-5.68h4.08v1.07h-2.91V266h2.79v1.08h-2.79v1.27h2.91Z"/><path class="cls-14" d="M330.53,269.4l-1.07-2.15h-1.12v2.15h-1.16v-5.68h2.57a1.9,1.9,0,0,1,1.4.49,1.72,1.72,0,0,1,.5,1.29,1.93,1.93,0,0,1-.26,1,1.58,1.58,0,0,1-.75.62l1.24,2.28Zm-.24-4.42a.74.74,0,0,0-.54-.19h-1.41v1.39h1.41a.73.73,0,0,0,.54-.18.65.65,0,0,0,.19-.5A.69.69,0,0,0,330.29,265Z"/><path class="cls-14" d="M336.24,269.4l-1.07-2.15h-1.12v2.15h-1.16v-5.68h2.57a1.9,1.9,0,0,1,1.4.49,1.72,1.72,0,0,1,.5,1.29,1.93,1.93,0,0,1-.26,1,1.58,1.58,0,0,1-.75.62l1.24,2.28ZM336,265a.74.74,0,0,0-.54-.19h-1.41v1.39h1.41A.78.78,0,0,0,336,266a.68.68,0,0,0,.18-.5A.69.69,0,0,0,336,265Z"/><path class="cls-14" d="M338,269.4l2.14-5.68h1.23l2.14,5.68h-1.26l-.34-1h-2.34l-.34,1Zm2.73-4.24-.78,2.21h1.58l-.78-2.21Z"/><path class="cls-14" d="M344.39,269.4v-5.68h3.77v1.07h-2.6V266H348v1.08h-2.48v2.34Z"/><path class="cls-14" d="M354.08,268.68a3.1,3.1,0,0,1-4.24,0,3.12,3.12,0,0,1,0-4.24,3.1,3.1,0,0,1,4.24,0,3.12,3.12,0,0,1,0,4.24Zm-.88-3.46a1.76,1.76,0,0,0-2.48,0,2.11,2.11,0,0,0,0,2.68,1.76,1.76,0,0,0,2.48,0,2.11,2.11,0,0,0,0-2.68Z"/><path class="cls-14" d="M359.52,269.4l-1.06-2.15h-1.12v2.15h-1.17v-5.68h2.57a1.9,1.9,0,0,1,1.4.49,1.72,1.72,0,0,1,.5,1.29,1.93,1.93,0,0,1-.26,1,1.53,1.53,0,0,1-.75.62l1.24,2.28Zm-.24-4.42a.74.74,0,0,0-.54-.19h-1.4v1.39h1.4a.78.78,0,0,0,.55-.18.68.68,0,0,0,.18-.5A.69.69,0,0,0,359.28,265Z"/><path class="cls-14" d="M364.61,265.92l1.67-2.2h1.07v5.68h-1.12v-3.87l-1.6,2.05h0l-1.6-2.05v3.87h-1.12v-5.68H363Z"/><path class="cls-14" d="M372.27,267.05h-4V266h4Z"/><path class="cls-14" d="M375.86,268.3a.56.56,0,0,0,.27-.49.46.46,0,0,0-.17-.36,1.22,1.22,0,0,0-.44-.23l-.59-.15a5.68,5.68,0,0,1-.65-.17,2.91,2.91,0,0,1-.59-.28,1.25,1.25,0,0,1-.43-.5,1.54,1.54,0,0,1-.17-.77,1.64,1.64,0,0,1,.56-1.25,2.2,2.2,0,0,1,1.51-.5,2.09,2.09,0,0,1,1.52.54,1.92,1.92,0,0,1,.59,1.36h-1.14a.84.84,0,0,0-.28-.62,1,1,0,0,0-.71-.24,1.07,1.07,0,0,0-.65.18.53.53,0,0,0-.25.46.5.5,0,0,0,.17.38,1.21,1.21,0,0,0,.44.22l.6.15a3.94,3.94,0,0,1,.65.18,2.76,2.76,0,0,1,.6.28,1.27,1.27,0,0,1,.44.5,1.73,1.73,0,0,1,.17.78,1.54,1.54,0,0,1-.62,1.26,2.57,2.57,0,0,1-1.63.48,3,3,0,0,1-1-.16,1.76,1.76,0,0,1-.68-.45,1.92,1.92,0,0,1-.37-.61,2.23,2.23,0,0,1-.14-.69H374a.87.87,0,0,0,.31.62,1.13,1.13,0,0,0,.8.25A1.36,1.36,0,0,0,375.86,268.3Z"/><path class="cls-14" d="M383.22,263.72l-2.09,3.69v2H380v-2l-2.1-3.69h1.36l1.32,2.5h0l1.32-2.5Z"/><path class="cls-14" d="M385.15,269.4H384v-5.68h1.17l2.48,3.75v-3.75h1.13v5.68h-1.17l-2.48-3.75Z"/><path class="cls-14" d="M390.87,264.42a2.74,2.74,0,0,1,2.05-.82,2.84,2.84,0,0,1,1.83.6,2.47,2.47,0,0,1,.92,1.62h-1.25a1.36,1.36,0,0,0-.53-.82,1.62,1.62,0,0,0-1-.29,1.52,1.52,0,0,0-1.2.5,2.35,2.35,0,0,0,0,2.68,1.49,1.49,0,0,0,1.2.5,1.62,1.62,0,0,0,1-.29,1.36,1.36,0,0,0,.53-.82h1.25a2.47,2.47,0,0,1-.92,1.62,2.84,2.84,0,0,1-1.83.6,2.77,2.77,0,0,1-2.05-.81,2.92,2.92,0,0,1-.81-2.14A2.88,2.88,0,0,1,390.87,264.42Z"/><use width="40" height="40" transform="translate(264.33 106.25)" xlink:href="#firewall-light"/><use width="40" height="40" transform="translate(104.33 209.64)" xlink:href="#service"/><path class="cls-15" d="M336.33,204.25v-74a4,4,0,0,0-4-4H317.71"/><polygon class="cls-5" points="318.81 122.51 312.33 126.25 318.81 129.99 318.81 122.51"/><line class="cls-16" x1="228.33" y1="194.25" x2="228.33" y2="155.64"/><polygon class="cls-5" points="232.07 156.73 228.33 150.25 224.59 156.73 232.07 156.73"/><line class="cls-15" x1="264.33" y1="226.25" x2="298.95" y2="226.25"/><polygon class="cls-5" points="297.86 229.99 304.33 226.25 297.86 222.51 297.86 229.99"/><line class="cls-15" x1="152.33" y1="229.64" x2="186.95" y2="229.64"/><polygon class="cls-5" points="185.86 233.38 192.33 229.64 185.86 225.9 185.86 233.38"/><line class="cls-16" x1="269.71" y1="238.25" x2="304.33" y2="238.25"/><polygon class="cls-5" points="270.81 241.99 264.33 238.25 270.81 234.51 270.81 241.99"/><use width="40" height="40" transform="translate(316.33 212.25)" xlink:href="#consul-conductor"/><use width="40" height="40" transform="translate(208.33 106.25)" xlink:href="#grid"/><path class="cls-14" d="M218,93.25V87.58h3.76v1.07h-2.6v1.19h2.48v1.07h-2.48v2.34Z"/><path class="cls-14" d="M224.06,93.25H222.9V87.58h1.16Z"/><path class="cls-14" d="M228.93,93.25l-1.06-2.15h-1.12v2.15h-1.17V87.58h2.58a1.93,1.93,0,0,1,1.4.48,1.74,1.74,0,0,1,.49,1.29,1.82,1.82,0,0,1-.26,1,1.51,1.51,0,0,1-.74.62l1.23,2.28Zm-.23-4.41a.73.73,0,0,0-.54-.19h-1.41V90h1.41a.73.73,0,0,0,.54-.18.69.69,0,0,0,.19-.5A.73.73,0,0,0,228.7,88.84Z"/><path class="cls-14" d="M235.38,93.25H231.3V87.58h4.08v1.07h-2.92v1.19h2.8v1.07h-2.8v1.27h2.92Z"/><path class="cls-14" d="M239.14,93.25h-1.23l-1.74-5.67h1.31l1.05,4h0l1.14-4H241l1.13,4h0l1.06-4h1.27l-1.74,5.67h-1.23l-1.15-4h0Z"/><path class="cls-14" d="M244.41,93.25l2.13-5.67h1.23l2.14,5.67h-1.26l-.34-1H246l-.34,1ZM247.13,89l-.78,2.21h1.58L247.15,89Z"/><path class="cls-14" d="M254.5,93.25h-3.68V87.58H252v4.6h2.52Z"/><path class="cls-14" d="M259.2,93.25h-3.69V87.58h1.17v4.6h2.52Z"/></svg>