<?xml version="1.0" encoding="UTF-8"?>
<svg width="325px" height="193px" viewBox="0 0 325 193" version="1.1" xmlns="http://www.w3.org/2000/svg" xmlns:xlink="http://www.w3.org/1999/xlink">
    <!-- Generator: Sketch 58 (84663) - https://sketch.com -->
    <title>Group 2</title>
    <desc>Created with Sketch.</desc>
    <g id="Page-1" stroke="none" stroke-width="1" fill="none" fill-rule="evenodd">
        <g id="Group-2">
            <rect id="Rectangle" fill="#FFFFFF" x="0" y="0" width="325" height="193"></rect>
            <g id="Group" transform="translate(84.000000, 48.000000)" fill-rule="nonzero">
                <g id="kube-logo-2" transform="translate(53.000000, 0.000000)" stroke="#FFFFFF">
                    <g id="kube-logo">
                        <path d="M25.8140727,0.00440615808 C25.3544767,0.0273533165 24.9041702,0.140296284 24.4895706,0.336609237 L6.41577966,8.8959934 C5.46817071,9.34453687 4.77989099,10.1928419 4.54575832,11.2007955 L0.0868322925,30.427335 C-0.121187017,31.3223047 0.0480734488,32.2619362 0.556071268,33.0322654 C0.617040199,33.1254762 0.682611709,33.215699 0.752550642,33.30261 L13.262508,48.7191239 C13.9184594,49.527211 14.9130069,49.9975331 15.9646772,49.9975331 L36.0263771,49.9929509 C37.0776541,49.9937103 38.0721314,49.5240615 38.7285464,48.7168328 L51.2338807,33.2980279 C51.8901831,32.4895358 52.1360788,31.4311732 51.9019105,30.4227529 L47.4360499,11.1962133 C47.2019173,10.1882598 46.5136375,9.33995476 45.5660286,8.89141129 L27.4899262,0.336609237 C26.9684222,0.0896631136 26.3921758,-0.0245657472 25.8140727,0.00440615808 Z" id="path3055" fill="#326CE5"></path>
                        <path d="M25.9931628,6.54745015 C25.3957205,6.54745015 24.9112994,7.08087463 24.9113704,7.73879912 C24.9113712,7.74889663 24.9134564,7.75854545 24.9136783,7.76858284 C24.912798,7.85797874 24.9084413,7.96567669 24.9113704,8.04350953 C24.9256183,8.42298167 25.0090757,8.71341349 25.0593079,9.06302933 C25.1503101,9.81131818 25.2265637,10.4316041 25.179507,11.0081356 C25.1337433,11.2255403 24.9721816,11.424368 24.8281556,11.5625711 L24.8027289,12.0162001 C24.1535189,12.0695117 23.4999662,12.1671342 22.8471813,12.3140374 C20.0382485,12.946162 17.6198069,14.3802449 15.7785468,16.3165117 C15.6590711,16.2357251 15.4500496,16.0871026 15.3878959,16.041585 C15.194751,16.067437 14.9995447,16.1265037 14.7452928,15.9797265 C14.2611743,15.6567331 13.8202498,15.21089 13.2867224,14.6738248 C13.0422573,14.4169194 12.865225,14.1722845 12.5747736,13.9246496 C12.5088142,13.8684128 12.4081531,13.7923512 12.3343753,13.7344919 C12.1073002,13.5550513 11.8394729,13.4614699 11.5808191,13.4526921 C11.2482639,13.4414062 10.9281237,13.5702764 10.7186214,13.8307163 C10.3461734,14.2937207 10.4654176,15.0013944 10.9844464,15.4115447 C10.989713,15.4157016 10.9953213,15.4189333 11.0006271,15.423 C11.0719492,15.4803035 11.159287,15.553728 11.2248447,15.6017023 C11.5330627,15.8272559 11.814612,15.9427177 12.1217153,16.121772 C12.7687195,16.5177991 13.305094,16.8461752 13.7305346,17.2420982 C13.8966698,17.4176239 13.9257069,17.7269164 13.9478177,17.8606833 L14.294546,18.1676848 C12.4384182,20.936283 11.5793871,24.3560616 12.0870461,27.840522 L11.6339878,27.9711122 C11.5145801,28.1239428 11.3458494,28.3644216 11.1693682,28.4361965 C10.612744,28.6099655 9.98629494,28.6737764 9.23000117,28.7523622 C8.87492845,28.7816254 8.56855969,28.764162 8.19212777,28.8348402 C8.1092769,28.8503959 7.99383838,28.8802045 7.90318751,28.9012808 C7.90003645,28.9019406 7.89709249,28.9028644 7.89394142,28.9035682 C7.88900032,28.9047045 7.88250882,28.9070799 7.87776077,28.9081503 C7.24014017,29.0608475 6.83053107,29.641728 6.96239804,30.2140521 C7.09429608,30.7865103 7.7171111,31.1346364 8.35855736,30.9975931 C8.3631878,30.9965447 8.36991155,30.9963688 8.37473801,30.9953057 C8.38197955,30.9936635 8.38835491,30.9901811 8.39554171,30.9884362 C8.48495878,30.9689817 8.59701545,30.9473365 8.67523588,30.9265777 C9.04532646,30.8283644 9.31335946,30.6840587 9.64607514,30.5577177 C10.3618659,30.3032625 10.9547095,30.0906928 11.5322771,30.0078644 C11.7735024,29.9891386 12.0276537,30.1553834 12.1540766,30.2255147 L12.6256271,30.1453277 C13.7107613,33.4798453 15.9848537,36.1750213 18.8644251,37.8661855 L18.6679457,38.3335609 C18.7387648,38.5150433 18.816875,38.7605916 18.7641213,38.939816 C18.5541478,39.4794934 18.1944905,40.0491246 17.7849443,40.684184 C17.5866453,40.9775799 17.3836988,41.2052698 17.2047522,41.5410389 C17.1619318,41.6213827 17.1073961,41.7448013 17.0660609,41.8297119 C16.7880244,42.4193277 16.9919709,43.0984216 17.5260538,43.3532639 C18.0634919,43.6097067 18.730595,43.3392361 19.019297,42.7484252 C19.0197409,42.7475894 19.021198,42.7469736 19.0216049,42.7461378 C19.0219007,42.745478 19.021309,42.7444883 19.0216049,42.7438504 C19.0627263,42.6600858 19.120984,42.5499817 19.1556731,42.4712148 C19.3089459,42.1231928 19.3599459,41.8249494 19.4677286,41.4883519 C19.7539594,40.7757317 19.9112206,40.0280125 20.3052452,39.5620975 C20.4131419,39.4345147 20.5890491,39.3854479 20.7714271,39.3370506 L21.0164484,38.8971679 C23.5268161,39.8522119 26.3367703,40.1084919 29.1437599,39.476805 C29.7841048,39.3327016 30.402296,39.1462001 30.9999121,38.9223695 C31.0687755,39.0434348 31.1967525,39.2761598 31.2310643,39.3347595 C31.4163996,39.3945235 31.6186929,39.4253856 31.7835181,39.6669626 C32.0783122,40.1661547 32.2799147,40.7567104 32.5255167,41.4700235 C32.6333172,41.8066151 32.6865924,42.1048717 32.8398837,42.4528864 C32.8748221,42.5322082 32.9327884,42.6438585 32.973952,42.727813 C33.2620467,43.3205433 33.9312638,43.5919384 34.4695067,43.3349428 C35.0035238,43.0799648 35.2076952,42.4009326 34.9294996,41.8113908 C34.8881592,41.7264831 34.8313209,41.6030594 34.7884968,41.5227177 C34.6095324,41.1869582 34.4066185,40.9615389 34.2083047,40.668154 C33.7987245,40.0331158 33.4590254,39.505566 33.2490231,38.9658996 C33.1612141,38.6875587 33.2638375,38.5144523 33.3322379,38.3335682 C33.2912755,38.2870308 33.2036203,38.0241774 33.1519391,37.9005587 C36.1445207,36.1492273 38.3518326,33.3535433 39.3884256,30.1247155 C39.528404,30.1465205 39.7716974,30.1891848 39.85073,30.2049025 C40.0134272,30.0985462 40.1630215,29.9597764 40.4563488,29.9826701 C41.0339201,30.0654685 41.6267468,30.2781048 42.3425508,30.5325235 C42.6752731,30.6588475 42.9432951,30.8054802 43.3133901,30.9036745 C43.3916112,30.9244289 43.5036657,30.9437918 43.5930842,30.9632419 C43.600274,30.9649868 43.6066427,30.9684765 43.6138879,30.9701114 C43.6187181,30.9711818 43.6254382,30.9713504 43.6300686,30.9723988 C44.2715518,31.109272 44.8944778,30.7613497 45.0262279,30.1888578 C45.1579469,29.6165 44.7485272,29.0354846 44.1108652,28.882956 C44.0181136,28.8620521 43.8865736,28.8265499 43.7964982,28.8096422 C43.4200626,28.7389839 43.113699,28.7564091 42.7586248,28.7271642 C42.0023273,28.6486173 41.3758908,28.5847383 40.8192578,28.4109985 C40.5923026,28.3237346 40.4308459,28.0560689 40.3523266,27.9459142 L39.915449,27.8199062 C40.1419604,26.1956818 40.0808837,24.5052918 39.6889198,22.8139494 C39.2933063,21.1068592 38.5941556,19.5455594 37.661715,18.1699795 C37.7737813,18.0690051 37.9854161,17.8832559 38.0454276,17.8286122 C38.06297,17.6362243 38.0478982,17.4345117 38.2488416,17.2214824 C38.6742607,16.8255374 39.2106781,16.497217 39.8576609,16.1011562 C40.1647546,15.9220858 40.4486368,15.8066562 40.756843,15.5810865 C40.82654,15.5300777 40.9217118,15.4492984 40.9949298,15.3909289 C41.5138483,14.9806408 41.6333226,14.2730095 41.2607548,13.8101004 C40.888187,13.3471913 40.166231,13.303588 39.6473124,13.7138761 C39.5734502,13.7718563 39.4732248,13.8474919 39.4069141,13.9040337 C39.116476,14.1516848 38.9371056,14.3962911 38.6926538,14.6532089 C38.1591553,15.1903021 37.7181849,15.6383827 37.2340834,15.9614018 C37.0243074,16.0824472 36.7170451,16.0405645 36.5776074,16.0324245 L36.1661565,16.3233886 C33.8199579,13.8849304 30.6255558,12.3259208 27.1859081,12.0230733 C27.1762878,11.8802053 27.1636842,11.6219611 27.1604814,11.5442427 C27.0196664,11.4106906 26.8495599,11.2966723 26.8068185,11.0081356 C26.7597619,10.4316041 26.838327,9.81131818 26.9293292,9.06302933 C26.9795613,8.71341349 27.0630188,8.42298167 27.0772666,8.04350953 C27.0805064,7.95724633 27.0753064,7.83207185 27.0749588,7.73879912 C27.0748878,7.08087463 26.5906087,6.54745015 25.9931665,6.54745015 L25.9931628,6.54745015 Z M24.6386108,14.8639824 L24.3173093,20.4885242 L24.2941941,20.4999795 C24.272644,21.0031576 23.8548229,21.4049465 23.341847,21.4049465 C23.1317159,21.4049465 22.9377604,21.338063 22.7801471,21.2239531 L22.770901,21.2285352 L18.1178071,17.9591987 C19.5478922,16.5654194 21.3770836,15.5354164 23.4851613,15.0610132 C23.8702417,14.9743541 24.2551504,14.9100528 24.6386108,14.8639824 Z M27.3500262,14.8639824 C29.8112217,15.1640059 32.0873527,16.268588 33.831534,17.9614897 L29.2084899,21.2102067 L29.1923093,21.2033372 C28.7819716,21.500382 28.2038337,21.4266796 27.8839878,21.029217 C27.7529655,20.86639 27.684219,20.6749362 27.6759508,20.4816547 L27.6713278,20.4793673 L27.3500262,14.8639824 Z M16.430396,20.0600968 L20.6789736,23.8265924 L20.6743505,23.8495029 C21.0578317,24.179926 21.1143815,24.7533109 20.7945497,25.1508226 C20.6635363,25.3136562 20.4881654,25.422871 20.299884,25.4738614 L20.2952609,25.4921899 L14.849315,27.0501078 C14.5721335,24.5379985 15.1694922,22.0960286 16.430396,20.0600968 Z M35.5258797,20.0623842 C36.157136,21.0765015 36.6351551,22.2091686 36.9197275,23.4371092 C37.200887,24.6503262 37.2714479,25.8613739 37.1555027,27.0317757 L31.6818185,25.4692757 L31.6771955,25.4463651 C31.1870419,25.3135909 30.8858095,24.8194135 30.9999195,24.3237478 C31.04667,24.1206965 31.155418,23.9489208 31.3027289,23.8220066 L31.3004211,23.8105513 L35.5258834,20.0623842 L35.5258797,20.0623842 Z M25.1217189,24.1175528 L26.8622951,24.1175528 L27.9440874,25.4578204 L27.5557517,27.1302911 L25.9931628,27.8748842 L24.4259508,27.128 L24.0376151,25.4555293 L25.1217189,24.1175528 Z M30.7017332,28.7042463 C30.7756997,28.700544 30.8493436,28.7071496 30.9213278,28.7202837 L30.9305739,28.7088284 L36.5637531,29.6527434 C35.7393349,31.9484252 34.1617814,33.9372141 32.0539736,35.268121 L29.8672737,30.0330587 L29.8742046,30.0238944 C29.6733344,29.5612852 29.8743525,29.0187947 30.336509,28.7981796 C30.454833,28.7416979 30.5784525,28.7104223 30.7017295,28.7042463 L30.7017332,28.7042463 Z M21.2406734,28.7271569 C21.6705603,28.733132 22.0561503,29.0288614 22.1560362,29.4625858 C22.2027984,29.6656342 22.180039,29.8668196 22.1028712,30.0445139 L22.1190518,30.0651334 L19.9554672,35.2475015 C17.9326331,33.9609472 16.3214387,32.034596 15.4595568,29.6710755 L21.0441941,28.7317427 L21.0534401,28.7431979 C21.1159075,28.7318043 21.1792609,28.7263065 21.2406734,28.7271606 L21.2406734,28.7271569 Z M25.9584899,30.9975968 C26.1082359,30.9921422 26.2601824,31.0225953 26.4046137,31.0915301 C26.5939373,31.1818915 26.7401897,31.3241686 26.8322453,31.4947559 L26.853049,31.4947559 L29.6060717,36.4251078 C29.2487814,36.5438196 28.8814676,36.6452749 28.5057872,36.7298182 C26.4003028,37.2036378 24.3015081,37.0600726 22.4010575,36.4182346 L25.1471457,31.4970469 L25.1517687,31.4970469 C25.3165466,31.1917383 25.6290496,31.0095931 25.9584899,30.9975968 Z" id="path3059" stroke-width="0.25" fill="#FFFFFF"></path>
                    </g>
                </g>
                <g id="kube-wordmark-2" transform="translate(0.000000, 57.000000)" fill="#373535">
                    <g id="kube-wordmark">
                        <path d="M4.39228794,12.7682243 C4.82463144,12.303936 5.26680764,11.8202911 5.71881785,11.3172897 C6.19046463,10.8143098 6.64246697,10.3209942 7.07482619,9.83733645 C7.50716707,9.33435869 7.91003868,8.86038673 8.28344232,8.41542056 C8.67647752,7.97048234 9.0105661,7.58356645 9.28570936,7.2546729 L14.5033936,7.2546729 C13.4618065,8.43477925 12.4398881,9.56650822 11.4376356,10.6498598 C10.4550085,11.7138893 9.37413312,12.8165974 8.195007,13.9579907 C8.78456493,14.4803357 9.39378541,15.1090719 10.0226704,15.8442056 C10.6515312,16.5600064 11.2607517,17.3048174 11.8503338,18.0786449 C12.4398881,18.8524809 12.9803257,19.6263106 13.4716482,20.4001402 C13.9629394,21.1739741 14.3756374,21.8800935 14.7097427,22.5185047 L9.66892911,22.5185047 C9.35448104,22.015514 8.9909138,21.4641589 8.57822675,20.8644393 C8.18517059,20.245376 7.76264668,19.6359835 7.31065373,19.0362617 C6.85864199,18.4172006 6.37716121,17.8271538 5.86621006,17.2661215 C5.37489526,16.7050999 4.88358833,16.2311279 4.39228794,15.8442056 L4.39228794,22.5185047 L4.36717622e-08,22.5185047 L4.36717622e-08,0.696448598 L4.39228794,0 L4.39228794,12.7682243" id="path2985"></path>
                        <path d="M29.9901704,21.9961682 C29.2433679,22.208972 28.2804055,22.4024299 27.1012831,22.5765421 C25.9221344,22.77 24.6840399,22.866729 23.3869993,22.866729 C22.0702868,22.866729 20.9697605,22.6926168 20.0854138,22.3443925 C19.2207084,21.9961682 18.5328781,21.5125234 18.021922,20.8934579 C17.5109597,20.2550489 17.1473924,19.5005629 16.9312196,18.63 C16.7150424,17.7594436 16.6069567,16.8018289 16.6069567,15.7571495 L16.6069567,7.2546729 L20.9992455,7.2546729 L20.9992455,15.2348131 C20.9992389,16.6277167 21.1859358,17.6336959 21.5593359,18.252757 C21.9327208,18.8718267 22.6303772,19.1813573 23.6523053,19.1813551 C23.9667311,19.1813573 24.3008201,19.1716822 24.6545723,19.1523364 C25.0083027,19.113647 25.3227394,19.0749554 25.5978825,19.0362617 L25.5978825,7.2546729 L29.9901704,7.2546729 L29.9901704,21.9961682" id="path2987"></path>
                        <path d="M44.0762584,14.770514 C44.0762584,11.9847304 43.0346759,10.5918224 40.9515436,10.5918224 C40.499532,10.5918224 40.0475314,10.6498706 39.5955352,10.7659346 C39.1631782,10.8820201 38.8094369,11.0271136 38.5343113,11.201215 L38.5343113,19.0652804 C38.75048,19.1039741 39.0256121,19.1426657 39.3597077,19.1813551 C39.6937901,19.2007009 40.0573576,19.2103738 40.45041,19.2103738 C41.6491913,19.2103738 42.5531947,18.8041164 43.1624267,17.9915888 C43.7716369,17.1790697 44.0762584,16.1053803 44.0762584,14.770514 M48.5569817,14.8865888 C48.5569817,16.1053803 48.3702696,17.2080884 47.9968913,18.1947196 C47.6431347,19.1813573 47.1223489,20.0228993 46.4345338,20.7193458 C45.7466904,21.4157944 44.9016417,21.9574766 43.8993878,22.3443925 C42.8971098,22.7119626 41.7572789,22.8957477 40.4798885,22.8957477 C39.94927,22.8957477 39.3891796,22.866729 38.7996173,22.8086916 C38.2296942,22.77 37.6597798,22.7119626 37.0898676,22.6345794 C36.539599,22.5571963 36.008987,22.4701402 35.4980317,22.3734112 C34.9870699,22.2573364 34.5350671,22.1412617 34.1420234,22.0251869 L34.1420234,0.696448598 L38.5343113,-5.68434189e-14 L38.5343113,7.6028972 C39.0256121,7.3901085 39.5365718,7.22566925 40.0671903,7.10957944 C40.5977935,6.99351972 41.1677101,6.93548234 41.7769399,6.93546729 C42.8774575,6.93548234 43.8502461,7.12894028 44.6953057,7.51584112 C45.5403413,7.88342626 46.2478239,8.41543346 46.8177536,9.11186916 C47.3876548,9.80833065 47.8200053,10.6498706 48.114805,11.6364953 C48.4095742,12.6037936 48.5569817,13.6871581 48.5569817,14.8865888" id="path2989"></path>
                        <path d="M51.195763,15.0026636 C51.195763,13.6484665 51.4021121,12.4683752 51.8148103,11.4623832 C52.2471586,10.437069 52.807249,9.58585402 53.4950815,8.90873832 C54.1829074,8.23165056 54.9689992,7.71898701 55.8533569,7.37074766 C56.7573559,7.02253841 57.6810137,6.84841121 58.6243304,6.84841121 C60.8253765,6.84841121 62.5646025,7.51585617 63.8420147,8.85070093 C65.1193986,10.1662279 65.7581135,12.110478 65.7581135,14.6834579 C65.7581135,14.9349597 65.7482655,15.2154737 65.728635,15.525 C65.7089609,15.8151934 65.6893152,16.0763616 65.6696781,16.3085047 L55.7059647,16.3085047 C55.8042196,17.1984155 56.2267439,17.904537 56.9735377,18.4268692 C57.7203183,18.9492099 58.7225832,19.210376 59.9803388,19.2103738 C60.786072,19.210376 61.5721637,19.1426657 62.3386142,19.007243 C63.1246929,18.8524809 63.7633924,18.6686959 64.2547129,18.4558879 L64.8442818,21.9671495 C64.6084389,22.0832243 64.2940044,22.1992991 63.9009716,22.3153738 C63.5079126,22.4314486 63.065736,22.5281776 62.5744417,22.6055607 C62.1027757,22.7022897 61.591816,22.7796729 61.0415627,22.8377103 C60.4912875,22.8957477 59.9410255,22.9247664 59.3907699,22.9247664 C57.9954483,22.9247664 56.7770082,22.7216355 55.7354431,22.3153738 C54.7135194,21.9091121 53.8586446,21.357757 53.1708186,20.6613084 C52.5026384,19.9455162 52.0015049,19.1039741 51.6674181,18.1366822 C51.3529813,17.1693968 51.195763,16.1247261 51.195763,15.0026636 M61.5132178,13.3485981 C61.4935655,12.9810366 61.4247715,12.6231394 61.3068687,12.2749065 C61.2085963,11.926693 61.0415518,11.6171603 60.8057352,11.3463084 C60.589549,11.075478 60.3045907,10.8530014 59.9508603,10.6788785 C59.6167626,10.5047771 59.1942383,10.4177103 58.6832873,10.4177103 C58.1919712,10.4177103 57.7694491,10.5047771 57.4157143,10.6788785 C57.0619664,10.8336556 56.767182,11.0464593 56.531361,11.3172897 C56.2955269,11.5881416 56.1088301,11.9073472 55.9712706,12.2749065 C55.8533503,12.6231394 55.7649172,12.9810366 55.7059647,13.3485981 L61.5132178,13.3485981" id="path2991"></path>
                        <path d="M78.4923398,11.0851402 C78.099283,10.988422 77.6374541,10.891693 77.106853,10.7949533 C76.5762323,10.6788893 76.0063158,10.6208519 75.3971034,10.6208411 C75.1219647,10.6208519 74.7878757,10.6498706 74.3948363,10.7078972 C74.0214362,10.7465995 73.7364779,10.794964 73.5399615,10.8529907 L73.5399615,22.5185047 L69.1476736,22.5185047 L69.1476736,8.06719626 C69.9337632,7.79637019 70.8574211,7.54487486 71.9186472,7.31271028 C72.999519,7.06123 74.1983068,6.93546729 75.5150171,6.93546729 C75.7508359,6.93546729 76.0357942,6.95483458 76.369892,6.99350467 C76.7039722,7.01287196 77.0380612,7.0515571 77.372159,7.10957944 C77.7062371,7.14828607 78.0403261,7.20632346 78.374426,7.28369159 C78.7085041,7.34174402 78.9934624,7.4191272 79.2293009,7.51584112 L78.4923398,11.0851402" id="path2993"></path>
                        <path d="M81.5838925,7.77700935 C82.3306754,7.56422065 83.2936378,7.37076271 84.4727799,7.19663551 C85.651911,7.00319262 86.8900034,6.9064486 88.1870636,6.9064486 C89.5037564,6.9064486 90.5944588,7.08057579 91.4591707,7.42878505 C92.3435109,7.7576786 93.0411673,8.23165056 93.5521401,8.85070093 C94.0630845,9.46977925 94.4266519,10.2049194 94.6428425,11.0561215 C94.8590024,11.9073472 94.9671053,12.855289 94.9671053,13.8999533 L94.9671053,22.5185047 L90.5748174,22.5185047 L90.5748174,14.4222897 C90.5748065,13.0294011 90.3881097,12.0427678 90.014727,11.4623832 C89.6413225,10.8820201 88.943666,10.5918332 87.9217576,10.5918224 C87.6073122,10.5918332 87.2732231,10.6111897 86.9194906,10.6498598 C86.5657427,10.6692056 86.251306,10.698235 85.9761804,10.7369159 L85.9761804,22.5185047 L81.5838925,22.5185047 L81.5838925,7.77700935" id="path2995"></path>
                        <path d="M98.234605,15.0026636 C98.234605,13.6484665 98.4409541,12.4683752 98.8536523,11.4623832 C99.2860006,10.437069 99.846091,9.58585402 100.533924,8.90873832 C101.221749,8.23165056 102.007841,7.71898701 102.892199,7.37074766 C103.796198,7.02253841 104.719856,6.84841121 105.663172,6.84841121 C107.864219,6.84841121 109.603447,7.51585617 110.880857,8.85070093 C112.158241,10.1662279 112.796956,12.110478 112.796956,14.6834579 C112.796956,14.9349597 112.787108,15.2154737 112.767477,15.525 C112.747803,15.8151934 112.728157,16.0763616 112.70852,16.3085047 L102.744807,16.3085047 C102.843064,17.1984155 103.265586,17.904537 104.01238,18.4268692 C104.75916,18.9492099 105.761425,19.210376 107.019181,19.2103738 C107.824914,19.210376 108.611006,19.1426657 109.377456,19.007243 C110.163535,18.8524809 110.802234,18.6686959 111.293555,18.4558879 L111.883124,21.9671495 C111.647283,22.0832243 111.332846,22.1992991 110.939814,22.3153738 C110.546755,22.4314486 110.104578,22.5281776 109.613284,22.6055607 C109.141618,22.7022897 108.630658,22.7796729 108.080405,22.8377103 C107.530132,22.8957477 106.979868,22.9247664 106.429612,22.9247664 C105.034293,22.9247664 103.81585,22.7216355 102.774285,22.3153738 C101.752361,21.9091121 100.897489,21.357757 100.209661,20.6613084 C99.5414805,19.9455162 99.0403469,19.1039741 98.7062601,18.1366822 C98.3918234,17.1693968 98.234605,16.1247261 98.234605,15.0026636 M108.55206,13.3485981 C108.532386,12.9810366 108.463614,12.6231394 108.345711,12.2749065 C108.247438,11.926693 108.080394,11.6171603 107.844577,11.3463084 C107.628391,11.075478 107.343435,10.8530014 106.989702,10.6788785 C106.655605,10.5047771 106.23308,10.4177103 105.722129,10.4177103 C105.230815,10.4177103 104.808291,10.5047771 104.454556,10.6788785 C104.100809,10.8336556 103.806024,11.0464593 103.570203,11.3172897 C103.334369,11.5881416 103.147674,11.9073472 103.010113,12.2749065 C102.892195,12.6231394 102.803759,12.9810366 102.744807,13.3485981 L108.55206,13.3485981" id="path2997"></path>
                        <path d="M116.039123,3.4532243 L120.431411,2.7567757 L120.431411,7.2546729 L125.708053,7.2546729 L125.708053,10.8529907 L120.431411,10.8529907 L120.431411,16.2214486 C120.431407,17.1307052 120.588623,17.8561725 120.903066,18.3978505 C121.237149,18.939537 121.895501,19.210376 122.878122,19.2103738 C123.349768,19.210376 123.83125,19.1716844 124.322566,19.0942991 C124.833517,18.9975744 125.295343,18.8718267 125.708053,18.7170561 L126.3271,22.0832243 C125.796477,22.296028 125.206908,22.4798131 124.558393,22.6345794 C123.909859,22.7893458 123.113941,22.866729 122.170639,22.866729 C120.971843,22.866729 119.979404,22.7119626 119.193317,22.4024299 C118.407221,22.0735514 117.778349,21.6285981 117.306696,21.0675701 C116.835039,20.4871984 116.50095,19.7907498 116.304429,18.9782243 C116.127559,18.1657052 116.039123,17.2661258 116.039123,16.279486 L116.039123,3.4532243" id="path2999"></path>
                        <path d="M127.943348,15.0026636 C127.943348,13.6484665 128.149695,12.4683752 128.562395,11.4623832 C128.994744,10.437069 129.554834,9.58585402 130.242667,8.90873832 C130.930493,8.23165056 131.716584,7.71898701 132.600942,7.37074766 C133.504941,7.02253841 134.428599,6.84841121 135.371916,6.84841121 C137.572962,6.84841121 139.312188,7.51585617 140.5896,8.85070093 C141.866984,10.1662279 142.505699,12.110478 142.505699,14.6834579 C142.505699,14.9349597 142.495851,15.2154737 142.47622,15.525 C142.456546,15.8151934 142.4369,16.0763616 142.417263,16.3085047 L132.45355,16.3085047 C132.551805,17.1984155 132.974329,17.904537 133.721123,18.4268692 C134.467904,18.9492099 135.470168,19.210376 136.727924,19.2103738 C137.533657,19.210376 138.319749,19.1426657 139.086199,19.007243 C139.872278,18.8524809 140.510978,18.6686959 141.002298,18.4558879 L141.591867,21.9671495 C141.356024,22.0832243 141.04159,22.1992991 140.648557,22.3153738 C140.255498,22.4314486 139.813321,22.5281776 139.322027,22.6055607 C138.850361,22.7022897 138.339401,22.7796729 137.789148,22.8377103 C137.238873,22.8957477 136.688611,22.9247664 136.138355,22.9247664 C134.743033,22.9247664 133.524593,22.7216355 132.483028,22.3153738 C131.461105,21.9091121 130.60623,21.357757 129.918404,20.6613084 C129.250224,19.9455162 128.74909,19.1039741 128.415003,18.1366822 C128.100564,17.1693968 127.943348,16.1247261 127.943348,15.0026636 M138.260803,13.3485981 C138.241151,12.9810366 138.172357,12.6231394 138.054454,12.2749065 C137.956182,11.926693 137.789137,11.6171603 137.55332,11.3463084 C137.337134,11.075478 137.052176,10.8530014 136.698446,10.6788785 C136.364348,10.5047771 135.941823,10.4177103 135.430873,10.4177103 C134.939556,10.4177103 134.517034,10.5047771 134.1633,10.6788785 C133.809552,10.8336556 133.514767,11.0464593 133.278946,11.3172897 C133.043112,11.5881416 132.856415,11.9073472 132.718856,12.2749065 C132.600936,12.6231394 132.5125,12.9810366 132.45355,13.3485981 L138.260803,13.3485981" id="path3001"></path>
                        <path d="M150.346504,19.4135047 C151.152241,19.4135068 151.722158,19.3361236 152.056253,19.1813551 C152.390334,19.0265931 152.557378,18.7267333 152.557387,18.2817757 C152.557378,17.9335557 152.341203,17.6336959 151.908861,17.3821963 C151.476504,17.1113594 150.818152,16.8115018 149.933805,16.4826168 C149.245971,16.2311279 148.617097,15.9699597 148.047185,15.6991121 C147.496919,15.4282775 147.025264,15.1090719 146.63222,14.7414953 C146.239172,14.354588 145.934561,13.8999619 145.718388,13.3776168 C145.502211,12.855289 145.394123,12.2265528 145.394125,11.4914019 C145.394123,10.059826 145.934561,8.92809701 147.01544,8.09621495 C148.096311,7.26436084 149.58006,6.84841121 151.466684,6.84841121 C152.409986,6.84841121 153.313991,6.93548234 154.178701,7.10957944 C155.043391,7.26436084 155.731221,7.43847299 156.242192,7.63191589 L155.475753,10.9980841 C154.964782,10.8239827 154.404692,10.6692164 153.795481,10.533785 C153.205904,10.3983774 152.537726,10.3306671 151.790947,10.3306542 C150.41528,10.3306671 149.727452,10.7079079 149.727456,11.4623832 C149.727452,11.6365061 149.756928,11.7912724 149.815892,11.9266822 C149.874842,12.0621136 149.992756,12.1975341 150.169633,12.3329439 C150.346497,12.4490294 150.582325,12.58445 150.877116,12.7392056 C151.191546,12.8746348 151.584592,13.0294011 152.056253,13.2035047 C153.019207,13.5517376 153.815125,13.8999619 154.444007,14.2481776 C155.07287,14.5770647 155.564177,14.9446326 155.917929,15.3508879 C156.291312,15.7378102 156.54679,16.1730906 156.684369,16.656729 C156.841574,17.1403781 156.920196,17.7014062 156.920196,18.3398131 C156.920196,19.8487872 156.34044,20.9901891 155.180968,21.7640187 C154.041126,22.5378505 152.419812,22.9247664 150.317025,22.9247664 C148.94136,22.9247664 147.791701,22.8086916 146.868047,22.5765421 C145.96404,22.3443925 145.335168,22.1509346 144.981427,21.9961682 L145.718388,18.4849065 C146.465173,18.7750978 147.231613,19.0072473 148.017707,19.1813551 C148.803794,19.3361236 149.58006,19.4135068 150.346504,19.4135047" id="path3003"></path>
                    </g>
                </g>
            </g>
        </g>
    </g>
</svg>