<svg version="1.1" viewBox="0.0 0.0 960.0 540.0" fill="none" stroke="none" stroke-linecap="square" stroke-miterlimit="10" xmlns:xlink="http://www.w3.org/1999/xlink" xmlns="http://www.w3.org/2000/svg"><clipPath id="g22371b66da5_0_4.0"><path d="m0 0l960.0 0l0 540.0l-960.0 0l0 -540.0z" clip-rule="nonzero"/></clipPath><g clip-path="url(#g22371b66da5_0_4.0)"><path fill="#ffffff" d="m0 0l960.0 0l0 540.0l-960.0 0z" fill-rule="evenodd"/><path fill="#ffffff" d="m561.6897 196.50427l0 0c0 -4.9547577 4.0166016 -8.9713745 8.9713745 -8.9713745l269.04938 0c2.3793335 0 4.661255 0.9451904 6.343689 2.627655c1.6824951 1.6824493 2.6276855 3.9643555 2.6276855 6.3437195l0 324.67145c0 4.954712 -4.0166626 8.9713745 -8.9713745 8.9713745l-269.04938 0l0 0c-4.954773 0 -8.9713745 -4.0166626 -8.9713745 -8.9713745z" fill-rule="evenodd"/><path stroke="#d6d6d6" stroke-width="1.0" stroke-linejoin="round" stroke-linecap="butt" d="m561.6897 196.50427l0 0c0 -4.9547577 4.0166016 -8.9713745 8.9713745 -8.9713745l269.04938 0c2.3793335 0 4.661255 0.9451904 6.343689 2.627655c1.6824951 1.6824493 2.6276855 3.9643555 2.6276855 6.3437195l0 324.67145c0 4.954712 -4.0166626 8.9713745 -8.9713745 8.9713745l-269.04938 0l0 0c-4.954773 0 -8.9713745 -4.0166626 -8.9713745 -8.9713745z" fill-rule="evenodd"/><path fill="#ffffff" d="m116.41083 196.50427l0 0c0 -4.9547577 4.0166245 -8.9713745 8.9713745 -8.9713745l269.04938 0c2.379364 0 4.661255 0.9451904 6.3437195 2.627655c1.6824646 1.6824493 2.627655 3.9643555 2.627655 6.3437195l0 324.67145c0 4.954712 -4.016632 8.9713745 -8.9713745 8.9713745l-269.04938 0l0 0c-4.95475 0 -8.9713745 -4.0166626 -8.9713745 -8.9713745z" fill-rule="evenodd"/><path stroke="#d6d6d6" stroke-width="1.0" stroke-linejoin="round" stroke-linecap="butt" d="m116.41083 196.50427l0 0c0 -4.9547577 4.0166245 -8.9713745 8.9713745 -8.9713745l269.04938 0c2.379364 0 4.661255 0.9451904 6.3437195 2.627655c1.6824646 1.6824493 2.627655 3.9643555 2.627655 6.3437195l0 324.67145c0 4.954712 -4.016632 8.9713745 -8.9713745 8.9713745l-269.04938 0l0 0c-4.95475 0 -8.9713745 -4.0166626 -8.9713745 -8.9713745z" fill-rule="evenodd"/><path fill="#e03875" d="m432.13947 51.027424l0 0c0 -22.740562 18.434845 -41.17543 41.175415 -41.17543l0 0c10.92041 0 21.393555 4.338113 29.115417 12.060004c7.7218933 7.7218914 12.059998 18.195024 12.059998 29.115427l0 0c0 22.740566 -18.434845 41.175434 -41.175415 41.175434l0 0c-22.74057 0 -41.175415 -18.434868 -41.175415 -41.175434z" fill-rule="evenodd"/><path fill="#ffffff" d="m473.4852 67.83086c-9.251129 0.0076828003 -16.756775 -7.509384 -16.764313 -16.789547c-0.0075683594 -9.280228 7.4858704 -16.809406 16.736969 -16.816986c4.208252 -0.0034217834 8.263641 1.5822105 11.359558 4.4416084l0 0l-3.9751587 4.171665l0 0c-4.5107117 -4.0889435 -11.471741 -3.735508 -15.547882 0.7893944c-4.0761414 4.524868 -3.7238464 11.50779 0.78689575 15.596733c4.191437 3.799511 10.56955 3.799511 14.760986 0l0 0l3.9751587 4.171665l0 0c-3.086853 2.85577 -7.133148 4.439457 -11.332214 4.435467z" fill-rule="evenodd"/><path fill="#ffffff" d="m486.96402 59.426167c-0.75827026 0 -1.3729553 -0.61660385 -1.3729553 -1.3772507c0 -0.76068115 0.61468506 -1.3772812 1.3729553 -1.3772812c0.7583313 0 1.3729553 0.61660004 1.3729553 1.3772812c-0.0018310547 0.7599449 -0.61553955 1.3755722 -1.3729553 1.3772507z" fill-rule="evenodd"/><path fill="#ffffff" d="m473.37817 54.66863c-2.0028687 0 -3.6265564 -1.6287727 -3.6265564 -3.6379547c0 -2.009182 1.6236877 -3.6379547 3.6265564 -3.6379547c2.0028992 0 3.6265259 1.6287727 3.6265259 3.6379547c-0.0016479492 2.0084763 -1.6243286 3.6362457 -3.6265259 3.6379547z" fill-rule="evenodd"/><path fill="#ffffff" d="m488.53574 54.720764c-0.7583313 0 -1.3729553 -0.61660385 -1.3729553 -1.3772507c0 -0.76067734 0.614624 -1.3772812 1.3729553 -1.3772812c0.7583313 0 1.3729553 0.61660385 1.3729553 1.3772812c-0.0018310547 0.7599449 -0.61550903 1.3755722 -1.3729553 1.3772507z" fill-rule="evenodd"/><path fill="#ffffff" d="m484.4566 54.56433c-0.75827026 0 -1.3729553 -0.61660385 -1.3729553 -1.3772507c0 -0.76067734 0.61468506 -1.3772812 1.3729553 -1.3772812c0.75827026 0 1.3729553 0.61660385 1.3729553 1.3772812c0 0.7606468 -0.61468506 1.3772507 -1.3729553 1.3772507z" fill-rule="evenodd"/><path fill="#ffffff" d="m488.53574 50.092033c-0.7583313 0 -1.3729553 -0.61660385 -1.3729553 -1.3772507c0 -0.76068115 0.614624 -1.3772812 1.3729553 -1.3772812c0.7583313 0 1.3729553 0.61660004 1.3729553 1.3772812c-0.0018310547 0.7599411 -0.61550903 1.3755722 -1.3729553 1.3772507z" fill-rule="evenodd"/><path fill="#ffffff" d="m484.4566 50.24849c-0.75827026 0 -1.3729553 -0.61663437 -1.3729553 -1.3772469c0 -0.76068115 0.6147156 -1.3772812 1.3729553 -1.3772812c0.75827026 0 1.3729553 0.61663437 1.3729553 1.3772812c0 0.0010070801 0 0.0020446777 0 0.0030517578c-0.0016784668 0.7594719 -0.61587524 1.3741951 -1.3729553 1.3741951z" fill-rule="evenodd"/><path fill="#ffffff" d="m487.0435 45.46026c-0.7582092 0.0017127991 -1.3743286 -0.6135483 -1.3760071 -1.3741951c-0.0016784668 -0.7606125 0.6116333 -1.3786583 1.3699036 -1.380333c0.7583313 -0.0016784668 1.374176 0.6135826 1.3760071 1.3741951c0 0.0010070801 0 0.00207901 0 0.00308609c0 0.75943756 -0.61276245 1.3755722 -1.3699036 1.3772469z" fill-rule="evenodd"/><path fill="#ffffff" d="m619.45374 226.63008l0 0c0 -0.87205505 0.7069092 -1.57901 1.5789795 -1.57901l53.682007 0c0.4187622 0 0.82037354 0.16636658 1.1165161 0.46247864c0.29614258 0.29612732 0.46246338 0.6977539 0.46246338 1.1165314l0 53.68199c0 0.8720398 -0.7069092 1.57901 -1.5789795 1.57901l-53.682007 0c-0.8720703 0 -1.5789795 -0.7069702 -1.5789795 -1.57901z" fill-rule="evenodd"/><path stroke="#e03875" stroke-width="1.0" stroke-miterlimit="400.0" stroke-linecap="butt" d="m619.45374 226.63008l0 0c0 -0.87205505 0.7069092 -1.57901 1.5789795 -1.57901l53.682007 0c0.4187622 0 0.82037354 0.16636658 1.1165161 0.46247864c0.29614258 0.29612732 0.46246338 0.6977539 0.46246338 1.1165314l0 53.68199c0 0.8720398 -0.7069092 1.57901 -1.5789795 1.57901l-53.682007 0c-0.8720703 0 -1.5789795 -0.7069702 -1.5789795 -1.57901z" fill-rule="evenodd"/><path fill="#e03875" d="m661.7447 270.38776l0 0c0 -2.295227 1.8606567 -4.155884 4.155884 -4.155884l0 0c1.1022339 0 2.1593018 0.4378357 2.9387207 1.2172241c0.7793579 0.7793884 1.2172241 1.8364563 1.2172241 2.9386597l0 0c0 2.2952576 -1.8606567 4.1559143 -4.155945 4.1559143l0 0c-2.295227 0 -4.155884 -1.8606567 -4.155884 -4.1559143z" fill-rule="evenodd"/><path fill="#000000" fill-opacity="0.0" d="m659.03894 444.36276l111.62201 0" fill-rule="evenodd"/><path stroke="#e03875" stroke-width="2.0" stroke-miterlimit="400.0" stroke-linecap="butt" d="m659.03894 444.36276l111.62201 0" fill-rule="evenodd"/><path fill="#ffffff" d="m270.33618 226.63008l0 0c0 -0.87205505 0.7069397 -1.57901 1.57901 -1.57901l53.681976 0c0.4187622 0 0.82040405 0.16636658 1.1165161 0.46247864c0.29614258 0.29612732 0.4624939 0.6977539 0.4624939 1.1165314l0 53.68199c0 0.8720398 -0.7069397 1.57901 -1.57901 1.57901l-53.681976 0c-0.8720703 0 -1.57901 -0.7069702 -1.57901 -1.57901z" fill-rule="evenodd"/><path stroke="#e03875" stroke-width="1.0" stroke-miterlimit="400.0" stroke-linecap="butt" d="m270.33618 226.63008l0 0c0 -0.87205505 0.7069397 -1.57901 1.57901 -1.57901l53.681976 0c0.4187622 0 0.82040405 0.16636658 1.1165161 0.46247864c0.29614258 0.29612732 0.4624939 0.6977539 0.4624939 1.1165314l0 53.68199c0 0.8720398 -0.7069397 1.57901 -1.57901 1.57901l-53.681976 0c-0.8720703 0 -1.57901 -0.7069702 -1.57901 -1.57901z" fill-rule="evenodd"/><path fill="#e03875" d="m312.62714 270.38776l0 0c0 -2.295227 1.8606873 -4.155884 4.1559143 -4.155884l0 0c1.1022339 0 2.1593018 0.4378357 2.9386902 1.2172241c0.7793579 0.7793884 1.2172241 1.8364563 1.2172241 2.9386597l0 0c0 2.2952576 -1.8606567 4.1559143 -4.1559143 4.1559143l0 0c-2.295227 0 -4.1559143 -1.8606567 -4.1559143 -4.1559143z" fill-rule="evenodd"/><path fill="#ffffff" d="m603.215 402.8029l0 0c0 -1.5410156 1.2492065 -2.7902527 2.7902222 -2.7902527l83.67932 0c0.74005127 0 1.4497681 0.29397583 1.9730225 0.8172302c0.5233154 0.5232849 0.81726074 1.2330017 0.81726074 1.9730225l0 83.67932c0 1.5410156 -1.2492676 2.7902527 -2.7902832 2.7902527l-83.67932 0l0 0c-1.5410156 0 -2.7902222 -1.2492371 -2.7902222 -2.7902527z" fill-rule="evenodd"/><path stroke="#e03875" stroke-width="1.0" stroke-linejoin="round" stroke-linecap="butt" d="m603.215 402.8029l0 0c0 -1.5410156 1.2492065 -2.7902527 2.7902222 -2.7902527l83.67932 0c0.74005127 0 1.4497681 0.29397583 1.9730225 0.8172302c0.5233154 0.5232849 0.81726074 1.2330017 0.81726074 1.9730225l0 83.67932c0 1.5410156 -1.2492676 2.7902527 -2.7902832 2.7902527l-83.67932 0l0 0c-1.5410156 0 -2.7902222 -1.2492371 -2.7902222 -2.7902527z" fill-rule="evenodd"/><path fill="#000000" fill-opacity="0.0" d="m189.74904 443.592l111.622055 0" fill-rule="evenodd"/><path stroke="#e03875" stroke-width="2.0" stroke-miterlimit="400.0" stroke-linecap="butt" d="m189.74904 443.592l111.622055 0" fill-rule="evenodd"/><path fill="#000000" fill-opacity="0.0" d="m514.45306 50.922737l134.69531 0l0 174.10956" fill-rule="evenodd"/><path stroke="#dc477d" stroke-width="1.0" stroke-linejoin="round" stroke-linecap="butt" stroke-dasharray="4.0,3.0" d="m514.45306 50.922737l134.69531 0l0 174.10956" fill-rule="evenodd"/><path fill="#000000" fill-opacity="0.0" d="m432.104 50.922737l-129.40057 0l0 174.10956" fill-rule="evenodd"/><path stroke="#dc477d" stroke-width="1.0" stroke-linejoin="round" stroke-linecap="butt" stroke-dasharray="4.0,3.0" d="m432.104 50.922737l-129.40057 0l0 174.10956" fill-rule="evenodd"/><path fill="#ffffff" d="m262.94217 105.13187l0 0c0 -0.5111389 0.41436768 -0.92549133 0.9254761 -0.92549133l69.64508 0c0.24545288 0 0.48086548 0.09750366 0.65441895 0.27106476c0.17358398 0.17356873 0.27108765 0.40896606 0.27108765 0.6544266l0 27.75531c0 0.5111389 -0.41436768 0.92549133 -0.9255066 0.92549133l-69.64508 0l0 0c-0.5111084 0 -0.9254761 -0.41435242 -0.9254761 -0.92549133z" fill-rule="evenodd"/><path stroke="#e03875" stroke-width="1.0" stroke-linejoin="round" stroke-linecap="butt" d="m262.94217 105.13187l0 0c0 -0.5111389 0.41436768 -0.92549133 0.9254761 -0.92549133l69.64508 0c0.24545288 0 0.48086548 0.09750366 0.65441895 0.27106476c0.17358398 0.17356873 0.27108765 0.40896606 0.27108765 0.6544266l0 27.75531c0 0.5111389 -0.41436768 0.92549133 -0.9255066 0.92549133l-69.64508 0l0 0c-0.5111084 0 -0.9254761 -0.41435242 -0.9254761 -0.92549133z" fill-rule="evenodd"/><path fill="#ffffff" d="m254.09747 402.8029l0 0c0 -1.5410156 1.2492371 -2.7902527 2.7902527 -2.7902527l83.67932 0c0.74002075 0 1.4497375 0.29397583 1.9730225 0.8172302c0.5232544 0.5232849 0.8172302 1.2330017 0.8172302 1.9730225l0 83.67932c0 1.5410156 -1.2492371 2.7902527 -2.7902527 2.7902527l-83.67932 0l0 0c-1.5410156 0 -2.7902527 -1.2492371 -2.7902527 -2.7902527z" fill-rule="evenodd"/><path stroke="#e03875" stroke-width="1.0" stroke-linejoin="round" stroke-linecap="butt" d="m254.09747 402.8029l0 0c0 -1.5410156 1.2492371 -2.7902527 2.7902527 -2.7902527l83.67932 0c0.74002075 0 1.4497375 0.29397583 1.9730225 0.8172302c0.5232544 0.5232849 0.8172302 1.2330017 0.8172302 1.9730225l0 83.67932c0 1.5410156 -1.2492371 2.7902527 -2.7902527 2.7902527l-83.67932 0l0 0c-1.5410156 0 -2.7902527 -1.2492371 -2.7902527 -2.7902527z" fill-rule="evenodd"/><path fill="#e03875" d="m467.49796 443.853l0 0c0 -14.811676 12.007202 -26.818909 26.818878 -26.818909l0.03149414 0l0 0c7.1128235 0 13.934326 2.8255615 18.963806 7.855072c5.029541 5.029541 7.8551025 11.851013 7.8551025 18.963837l0 0l0 0c0 14.811676 -12.007233 26.818909 -26.818909 26.818909l-0.03149414 0l0 0c-14.811676 0 -26.818878 -12.007233 -26.818878 -26.818909z" fill-rule="evenodd"/><path stroke="#ffffff" stroke-width="3.0" stroke-miterlimit="400.0" stroke-linecap="butt" stroke-opacity="0.4784" d="m467.49796 443.853l0 0c0 -14.811676 12.007202 -26.818909 26.818878 -26.818909l0.03149414 0l0 0c7.1128235 0 13.934326 2.8255615 18.963806 7.855072c5.029541 5.029541 7.8551025 11.851013 7.8551025 18.963837l0 0l0 0c0 14.811676 -12.007233 26.818909 -26.818909 26.818909l-0.03149414 0l0 0c-14.811676 0 -26.818878 -12.007233 -26.818878 -26.818909z" fill-rule="evenodd"/><path fill="#000000" fill-opacity="0.0" d="m417.1976 92.18537l112.1575 0l0 54.92913l-112.1575 0z" fill-rule="evenodd"/><path fill="#dc477d" d="m447.88504 104.54662q1.78125 0 3.03125 1.015625q1.265625 1.0 1.484375 2.75l-2.234375 0q-0.140625 -0.8125 -0.8125 -1.3125q-0.671875 -0.515625 -1.46875 -0.515625q-1.359375 0 -2.109375 0.984375q-0.734375 0.984375 -0.734375 2.609375q0 1.546875 0.734375 2.53125q0.75 0.96875 2.109375 0.96875q1.0 0 1.609375 -0.609375q0.609375 -0.609375 0.765625 -1.734375l2.234375 0q-0.203125 2.0 -1.453125 3.140625q-1.25 1.140625 -3.15625 1.140625q-1.515625 0 -2.6875 -0.6875q-1.171875 -0.6875 -1.8125 -1.953125q-0.640625 -1.265625 -0.640625 -2.796875q0 -2.40625 1.40625 -3.96875q1.40625 -1.5625 3.734375 -1.5625zm10.863373 0q2.328125 0 3.734375 1.578125q1.40625 1.5625 1.40625 3.953125q0 2.34375 -1.421875 3.890625q-1.40625 1.546875 -3.71875 1.546875q-1.515625 0 -2.6875 -0.6875q-1.171875 -0.703125 -1.8125 -1.953125q-0.640625 -1.265625 -0.640625 -2.796875q0 -2.421875 1.40625 -3.96875q1.421875 -1.5625 3.734375 -1.5625zm-2.84375 5.53125q0 1.546875 0.734375 2.53125q0.75 0.96875 2.109375 0.96875q1.359375 0 2.09375 -0.953125q0.75 -0.96875 0.75 -2.546875q0 -1.65625 -0.765625 -2.625q-0.75 -0.96875 -2.09375 -0.96875q-1.34375 0 -2.09375 0.984375q-0.734375 0.984375 -0.734375 2.609375zm11.837585 -5.28125l4.375 7.03125l0.015625 0l0 -7.03125l2.15625 0l0 10.46875l-2.296875 0l-4.359375 -7.0l-0.03125 0l0 7.0l-2.140625 0l0 -10.46875l2.28125 0zm12.175873 -0.25q1.90625 0 3.046875 0.890625q1.140625 0.875 1.140625 2.484375l-2.21875 0q-0.046875 -0.78125 -0.546875 -1.171875q-0.484375 -0.40625 -1.515625 -0.40625q-0.6875 0 -1.140625 0.3125q-0.453125 0.296875 -0.453125 0.875q0 0.390625 0.1875 0.59375q0.1875 0.1875 0.765625 0.40625q0.578125 0.203125 2.515625 0.65625q1.296875 0.3125 2.03125 1.0625q0.734375 0.75 0.734375 1.90625q0 1.515625 -1.140625 2.4375q-1.140625 0.921875 -3.203125 0.921875q-1.984375 0 -3.234375 -0.96875q-1.234375 -0.984375 -1.234375 -2.6875l0 -0.0625l2.21875 0q0.015625 0.96875 0.65625 1.453125q0.640625 0.484375 1.671875 0.484375q0.921875 0 1.46875 -0.34375q0.5625 -0.34375 0.5625 -0.96875q0 -0.5 -0.421875 -0.828125q-0.421875 -0.328125 -1.359375 -0.5625q-1.203125 -0.28125 -2.1875 -0.578125q-0.984375 -0.296875 -1.625 -0.984375q-0.640625 -0.6875 -0.640625 -1.75q0 -1.40625 1.125 -2.28125q1.140625 -0.890625 2.796875 -0.890625zm8.167053 0.25l0 6.578125q0 1.125 0.515625 1.671875q0.53125 0.53125 1.640625 0.53125q1.203125 0 1.6875 -0.515625q0.484375 -0.53125 0.484375 -1.6875l0 -6.578125l2.296875 0l0 6.578125q0 1.953125 -1.140625 3.046875q-1.125 1.09375 -3.328125 1.09375q-2.203125 0 -3.328125 -1.078125q-1.125 -1.078125 -1.125 -3.0625l0 -6.578125l2.296875 0zm10.910248 0l0 8.53125l5.109375 0l0 1.9375l-7.40625 0l0 -10.46875l2.296875 0z" fill-rule="nonzero"/><path fill="#dc477d" d="m448.43365 122.14662q1.90625 0 3.046875 0.890625q1.140625 0.875 1.140625 2.484375l-2.21875 0q-0.046875 -0.78125 -0.546875 -1.171875q-0.484375 -0.40625 -1.515625 -0.40625q-0.6875 0 -1.140625 0.3125q-0.453125 0.296875 -0.453125 0.875q0 0.390625 0.1875 0.59375q0.1875 0.1875 0.765625 0.40625q0.578125 0.203125 2.515625 0.65625q1.296875 0.3125 2.03125 1.0625q0.734375 0.75 0.734375 1.90625q0 1.515625 -1.140625 2.4375q-1.140625 0.921875 -3.203125 0.921875q-1.984375 0 -3.234375 -0.96875q-1.234375 -0.984375 -1.234375 -2.6875l0 -0.0625l2.21875 0q0.015625 0.96875 0.65625 1.453125q0.640625 0.484375 1.671875 0.484375q0.921875 0 1.46875 -0.34375q0.5625 -0.34375 0.5625 -0.96875q0 -0.5 -0.421875 -0.828125q-0.421875 -0.328125 -1.359375 -0.5625q-1.203125 -0.28125 -2.1875 -0.578125q-0.984375 -0.296875 -1.625 -0.984375q-0.640625 -0.6875 -0.640625 -1.75q0 -1.40625 1.125 -2.28125q1.140625 -0.890625 2.796875 -0.890625zm13.745209 0.25l0 1.9375l-5.53125 0l0 2.234375l5.0625 0l0 1.796875l-5.0625 0l0 2.5625l5.640625 0l0 1.9375l-7.9375 0l0 -10.46875l7.828125 0zm7.3714905 0q1.265625 0 2.125 0.828125q0.875 0.8125 0.875 2.0625q0 1.0 -0.421875 1.65625q-0.40625 0.640625 -1.234375 0.96875l0 0.03125q0.734375 0.1875 1.125 0.875q0.390625 0.6875 0.4375 2.109375q0.015625 1.421875 0.40625 1.9375l-2.3125 0q-0.203125 -0.515625 -0.265625 -1.640625q-0.109375 -1.546875 -0.53125 -2.0q-0.40625 -0.453125 -1.25 -0.453125l-2.359375 0l0 4.09375l-2.296875 0l0 -10.46875l5.703125 0zm-0.84375 4.734375q0.734375 0 1.125 -0.34375q0.40625 -0.359375 0.40625 -1.15625q0 -0.734375 -0.390625 -1.078125q-0.375 -0.359375 -1.140625 -0.359375l-2.5625 0l0 2.9375l2.5625 0zm6.9592896 -4.734375l2.34375 7.359375l0.015625 0l2.375 -7.359375l2.375 0l-3.484375 10.46875l-2.59375 0l-3.390625 -10.46875l2.359375 0zm15.82547 0l0 1.9375l-5.53125 0l0 2.234375l5.0625 0l0 1.796875l-5.0625 0l0 2.5625l5.640625 0l0 1.9375l-7.9375 0l0 -10.46875l7.828125 0zm7.3714905 0q1.265625 0 2.125 0.828125q0.875 0.8125 0.875 2.0625q0 1.0 -0.421875 1.65625q-0.40625 0.640625 -1.234375 0.96875l0 0.03125q0.734375 0.1875 1.125 0.875q0.390625 0.6875 0.4375 2.109375q0.015625 1.421875 0.40625 1.9375l-2.3125 0q-0.203125 -0.515625 -0.265625 -1.640625q-0.109375 -1.546875 -0.53125 -2.0q-0.40625 -0.453125 -1.25 -0.453125l-2.359375 0l0 4.09375l-2.296875 0l0 -10.46875l5.703125 0zm-0.84375 4.734375q0.734375 0 1.125 -0.34375q0.40625 -0.359375 0.40625 -1.15625q0 -0.734375 -0.390625 -1.078125q-0.375 -0.359375 -1.140625 -0.359375l-2.5625 0l0 2.9375l2.5625 0z" fill-rule="nonzero"/><path fill="#ffffff" d="m612.1122 105.13187l0 0c0 -0.5111389 0.41436768 -0.92549133 0.9254761 -0.92549133l69.64508 0c0.2454834 0 0.480896 0.09750366 0.65441895 0.27106476c0.17358398 0.17356873 0.27105713 0.40896606 0.27105713 0.6544266l0 27.75531c0 0.5111389 -0.41430664 0.92549133 -0.9254761 0.92549133l-69.64508 0l0 0c-0.5111084 0 -0.9254761 -0.41435242 -0.9254761 -0.92549133z" fill-rule="evenodd"/><path stroke="#e03875" stroke-width="1.0" stroke-linejoin="round" stroke-linecap="butt" d="m612.1122 105.13187l0 0c0 -0.5111389 0.41436768 -0.92549133 0.9254761 -0.92549133l69.64508 0c0.2454834 0 0.480896 0.09750366 0.65441895 0.27106476c0.17358398 0.17356873 0.27105713 0.40896606 0.27105713 0.6544266l0 27.75531c0 0.5111389 -0.41430664 0.92549133 -0.9254761 0.92549133l-69.64508 0l0 0c-0.5111084 0 -0.9254761 -0.41435242 -0.9254761 -0.92549133z" fill-rule="evenodd"/><path fill="#000000" fill-opacity="0.0" d="m666.8694 101.53694l155.40155 0l0 37.16536l-155.40155 0z" fill-rule="evenodd"/><path fill="#4e515d" d="m703.1088 114.14819l0 10.46875l-2.296875 0l0 -10.46875l2.296875 0zm4.3068237 0l4.375 7.03125l0.015625 0l0 -7.03125l2.15625 0l0 10.46875l-2.296875 0l-4.359375 -7.0l-0.03125 0l0 7.0l-2.140625 0l0 -10.46875l2.28125 0zm16.332092 0l0 1.9375l-3.140625 0l0 8.53125l-2.296875 0l0 -8.53125l-3.140625 0l0 -1.9375l8.578125 0zm9.030762 0l0 1.9375l-5.53125 0l0 2.234375l5.0625 0l0 1.796875l-5.0625 0l0 2.5625l5.640625 0l0 1.9375l-7.9375 0l0 -10.46875l7.828125 0zm3.949646 0l4.375 7.03125l0.015625 0l0 -7.03125l2.15625 0l0 10.46875l-2.296875 0l-4.359375 -7.0l-0.03125 0l0 7.0l-2.140625 0l0 -10.46875l2.28125 0zm16.332092 0l0 1.9375l-3.140625 0l0 8.53125l-2.296875 0l0 -8.53125l-3.140625 0l0 -1.9375l8.578125 0zm3.4995117 0l0 10.46875l-2.296875 0l0 -10.46875l2.296875 0zm6.7130737 -0.25q2.328125 0 3.734375 1.578125q1.40625 1.5625 1.40625 3.953125q0 2.34375 -1.421875 3.890625q-1.40625 1.546875 -3.71875 1.546875q-1.515625 0 -2.6875 -0.6875q-1.171875 -0.703125 -1.8125 -1.953125q-0.640625 -1.265625 -0.640625 -2.796875q0 -2.421875 1.40625 -3.96875q1.421875 -1.5625 3.734375 -1.5625zm-2.84375 5.53125q0 1.546875 0.734375 2.53125q0.75 0.96875 2.109375 0.96875q1.359375 0 2.09375 -0.953125q0.75 -0.96875 0.75 -2.546875q0 -1.65625 -0.765625 -2.625q-0.75 -0.96875 -2.09375 -0.96875q-1.34375 0 -2.09375 0.984375q-0.734375 0.984375 -0.734375 2.609375zm11.837585 -5.28125l4.375 7.03125l0.015625 0l0 -7.03125l2.15625 0l0 10.46875l-2.296875 0l-4.359375 -7.0l-0.03125 0l0 7.0l-2.140625 0l0 -10.46875l2.28125 0zm12.175903 -0.25q1.90625 0 3.046875 0.890625q1.140625 0.875 1.140625 2.484375l-2.21875 0q-0.046875 -0.78125 -0.546875 -1.171875q-0.484375 -0.40625 -1.515625 -0.40625q-0.6875 0 -1.140625 0.3125q-0.453125 0.296875 -0.453125 0.875q0 0.390625 0.1875 0.59375q0.1875 0.1875 0.765625 0.40625q0.578125 0.203125 2.515625 0.65625q1.296875 0.3125 2.03125 1.0625q0.734375 0.75 0.734375 1.90625q0 1.515625 -1.140625 2.4375q-1.140625 0.921875 -3.203125 0.921875q-1.984375 0 -3.234375 -0.96875q-1.234375 -0.984375 -1.234375 -2.6875l0 -0.0625l2.21875 0q0.015625 0.96875 0.65625 1.453125q0.640625 0.484375 1.671875 0.484375q0.921875 0 1.46875 -0.34375q0.5625 -0.34375 0.5625 -0.96875q0 -0.5 -0.421875 -0.828125q-0.421875 -0.328125 -1.359375 -0.5625q-1.203125 -0.28125 -2.1875 -0.578125q-0.984375 -0.296875 -1.625 -0.984375q-0.640625 -0.6875 -0.640625 -1.75q0 -1.40625 1.125 -2.28125q1.140625 -0.890625 2.796875 -0.890625z" fill-rule="nonzero"/><path fill="#000000" fill-opacity="0.0" d="m127.416336 101.53694l155.40157 0l0 37.16536l-155.40157 0z" fill-rule="evenodd"/><path fill="#4e515d" d="m163.65578 114.14819l0 10.46875l-2.296875 0l0 -10.46875l2.296875 0zm4.3068237 0l4.375 7.03125l0.015625 0l0 -7.03125l2.15625 0l0 10.46875l-2.296875 0l-4.359375 -7.0l-0.03125 0l0 7.0l-2.140625 0l0 -10.46875l2.28125 0zm16.332123 0l0 1.9375l-3.140625 0l0 8.53125l-2.296875 0l0 -8.53125l-3.140625 0l0 -1.9375l8.578125 0zm9.030746 0l0 1.9375l-5.53125 0l0 2.234375l5.0625 0l0 1.796875l-5.0625 0l0 2.5625l5.640625 0l0 1.9375l-7.9375 0l0 -10.46875l7.828125 0zm3.9496307 0l4.375 7.03125l0.015625 0l0 -7.03125l2.15625 0l0 10.46875l-2.296875 0l-4.359375 -7.0l-0.03125 0l0 7.0l-2.140625 0l0 -10.46875l2.28125 0zm16.332123 0l0 1.9375l-3.140625 0l0 8.53125l-2.296875 0l0 -8.53125l-3.140625 0l0 -1.9375l8.578125 0zm3.4994965 0l0 10.46875l-2.296875 0l0 -10.46875l2.296875 0zm6.7130737 -0.25q2.328125 0 3.734375 1.578125q1.40625 1.5625 1.40625 3.953125q0 2.34375 -1.421875 3.890625q-1.40625 1.546875 -3.71875 1.546875q-1.515625 0 -2.6875 -0.6875q-1.171875 -0.703125 -1.8125 -1.953125q-0.640625 -1.265625 -0.640625 -2.796875q0 -2.421875 1.40625 -3.96875q1.421875 -1.5625 3.734375 -1.5625zm-2.84375 5.53125q0 1.546875 0.734375 2.53125q0.75 0.96875 2.109375 0.96875q1.359375 0 2.09375 -0.953125q0.75 -0.96875 0.75 -2.546875q0 -1.65625 -0.765625 -2.625q-0.75 -0.96875 -2.09375 -0.96875q-1.34375 0 -2.09375 0.984375q-0.734375 0.984375 -0.734375 2.609375zm11.837601 -5.28125l4.375 7.03125l0.015625 0l0 -7.03125l2.15625 0l0 10.46875l-2.296875 0l-4.359375 -7.0l-0.03125 0l0 7.0l-2.140625 0l0 -10.46875l2.28125 0zm12.175873 -0.25q1.90625 0 3.046875 0.890625q1.140625 0.875 1.140625 2.484375l-2.21875 0q-0.046875 -0.78125 -0.546875 -1.171875q-0.484375 -0.40625 -1.515625 -0.40625q-0.6875 0 -1.140625 0.3125q-0.453125 0.296875 -0.453125 0.875q0 0.390625 0.1875 0.59375q0.1875 0.1875 0.765625 0.40625q0.578125 0.203125 2.515625 0.65625q1.296875 0.3125 2.03125 1.0625q0.734375 0.75 0.734375 1.90625q0 1.515625 -1.140625 2.4375q-1.140625 0.921875 -3.203125 0.921875q-1.984375 0 -3.234375 -0.96875q-1.234375 -0.984375 -1.234375 -2.6875l0 -0.0625l2.21875 0q0.015625 0.96875 0.65625 1.453125q0.640625 0.484375 1.671875 0.484375q0.921875 0 1.46875 -0.34375q0.5625 -0.34375 0.5625 -0.96875q0 -0.5 -0.421875 -0.828125q-0.421875 -0.328125 -1.359375 -0.5625q-1.203125 -0.28125 -2.1875 -0.578125q-0.984375 -0.296875 -1.625 -0.984375q-0.640625 -0.6875 -0.640625 -1.75q0 -1.40625 1.125 -2.28125q1.140625 -0.890625 2.796875 -0.890625z" fill-rule="nonzero"/><path fill="#e03875" d="m280.54016 129.08702c-0.460083 0 -0.84906006 -0.37654114 -0.84906006 -0.8500061c0 -0.47346497 0.37643433 -0.8500061 0.84906006 -0.8500061l28.417114 0c0.46011353 0 0.8490906 0.37654114 0.8490906 0.8500061c0 0.47346497 -0.37643433 0.8500061 -0.8490906 0.8500061l-28.417114 0zm0 -9.215828c-0.460083 0 -0.84906006 -0.3765335 -0.84906006 -0.8499985c0 -0.4734726 0.37643433 -0.8500061 0.84906006 -0.8500061l28.417114 0c0.46011353 0 0.8490906 0.3765335 0.8490906 0.8500061c0 0.47346497 -0.37643433 0.8499985 -0.8490906 0.8499985l-28.417114 0zm0 -9.21582c-0.460083 0 -0.84906006 -0.37654114 -0.84906006 -0.8500061c0 -0.47346497 0.37643433 -0.8499985 0.84906006 -0.8499985l28.417114 0c0.46011353 0 0.8490906 0.3765335 0.8490906 0.8499985c0 0.47346497 -0.37643433 0.8500061 -0.8490906 0.8500061l-28.417114 0z" fill-rule="evenodd"/><path fill="#e03875" d="m624.88617 129.08702c-0.46014404 0 -0.8491211 -0.37654114 -0.8491211 -0.8500061c0 -0.47346497 0.37646484 -0.8500061 0.8491211 -0.8500061l28.417053 0c0.46014404 0 0.8491211 0.37654114 0.8491211 0.8500061c0 0.47346497 -0.37646484 0.8500061 -0.8491211 0.8500061l-28.417053 0zm0 -9.215828c-0.46014404 0 -0.8491211 -0.3765335 -0.8491211 -0.8499985c0 -0.4734726 0.37646484 -0.8500061 0.8491211 -0.8500061l28.417053 0c0.46014404 0 0.8491211 0.3765335 0.8491211 0.8500061c0 0.47346497 -0.37646484 0.8499985 -0.8491211 0.8499985l-28.417053 0zm0 -9.21582c-0.46014404 0 -0.8491211 -0.37654114 -0.8491211 -0.8500061c0 -0.47346497 0.37646484 -0.8499985 0.8491211 -0.8499985l28.417053 0c0.46014404 0 0.8491211 0.3765335 0.8491211 0.8499985c0 0.47346497 -0.37646484 0.8500061 -0.8491211 0.8500061l-28.417053 0z" fill-rule="evenodd"/><path fill="#dc477d" d="m659.0366 112.972206l0 0c0 -0.7705078 0.6246338 -1.3951263 1.3951416 -1.3951263l30.690063 0c0.36999512 0 0.7248535 0.14698792 0.9864502 0.40862274c0.2616577 0.26163483 0.40863037 0.6164932 0.40863037 0.9865036l0 30.690056c0 0.7705078 -0.62457275 1.3951263 -1.3950806 1.3951263l-30.690063 0c-0.7705078 0 -1.3951416 -0.62461853 -1.3951416 -1.3951263z" fill-rule="evenodd"/><path fill="#dc477d" d="m315.2149 112.972206l0 0c0 -0.7705078 0.6246338 -1.3951263 1.3951416 -1.3951263l30.690063 0c0.36999512 0 0.7248535 0.14698792 0.9864807 0.40862274c0.2616577 0.26163483 0.40863037 0.6164932 0.40863037 0.9865036l0 30.690056c0 0.7705078 -0.6246033 1.3951263 -1.3951111 1.3951263l-30.690063 0c-0.7705078 0 -1.3951416 -0.62461853 -1.3951416 -1.3951263z" fill-rule="evenodd"/><path fill="#000000" fill-opacity="0.0" d="m228.82674 276.68085l139.84251 0l0 35.55905l-139.84251 0z" fill-rule="evenodd"/><path fill="#dc477d" d="m249.62402 288.73087q1.625 0 2.765625 0.921875q1.140625 0.921875 1.328125 2.515625l-2.015625 0q-0.140625 -0.75 -0.75 -1.203125q-0.59375 -0.46875 -1.328125 -0.46875q-1.234375 0 -1.921875 0.890625q-0.671875 0.890625 -0.671875 2.375q0 1.40625 0.671875 2.296875q0.671875 0.890625 1.921875 0.890625q0.90625 0 1.453125 -0.5625q0.5625 -0.5625 0.703125 -1.5625l2.03125 0q-0.1875 1.8125 -1.328125 2.859375q-1.125 1.03125 -2.859375 1.03125q-1.375 0 -2.453125 -0.625q-1.0625 -0.640625 -1.65625 -1.78125q-0.578125 -1.140625 -0.578125 -2.546875q0 -2.1875 1.28125 -3.609375q1.296875 -1.421875 3.40625 -1.421875zm9.878967 0q2.125 0 3.390625 1.4375q1.28125 1.421875 1.28125 3.59375q0 2.125 -1.28125 3.546875q-1.28125 1.40625 -3.390625 1.40625q-1.375 0 -2.453125 -0.625q-1.0625153 -0.640625 -1.6562653 -1.78125q-0.578125 -1.140625 -0.578125 -2.546875q0 -2.203125 1.2812653 -3.609375q1.296875 -1.421875 3.40625 -1.421875zm-2.59375 5.03125q0 1.40625 0.671875 2.296875q0.671875 0.890625 1.921875 0.890625q1.234375 0 1.90625 -0.875q0.671875 -0.875 0.671875 -2.3125q0 -1.5 -0.6875 -2.375q-0.6875 -0.890625 -1.90625 -0.890625q-1.21875 0 -1.90625 0.890625q-0.671875 0.890625 -0.671875 2.375zm10.773285 -4.796875l3.96875 6.390625l0.03125 0l0 -6.390625l1.953125 0l0 9.515625l-2.09375 0l-3.953125 -6.375l-0.03125 0l0 6.375l-1.953125 0l0 -9.515625l2.078125 0zm11.082092 -0.234375q1.71875 0 2.75 0.8125q1.046875 0.796875 1.046875 2.265625l-2.015625 0q-0.046875 -0.71875 -0.5 -1.078125q-0.4375 -0.359375 -1.375 -0.359375q-0.640625 0 -1.046875 0.28125q-0.40625 0.265625 -0.40625 0.796875q0 0.359375 0.171875 0.53125q0.171875 0.171875 0.6875 0.375q0.53125 0.1875 2.296875 0.59375q1.1875 0.296875 1.84375 0.984375q0.671875 0.671875 0.671875 1.71875q0 1.390625 -1.046875 2.234375q-1.03125 0.828125 -2.90625 0.828125q-1.796875 0 -2.9375 -0.890625q-1.125 -0.890625 -1.125 -2.453125l0 -0.046875l2.03125 0q0 0.890625 0.578125 1.328125q0.578125 0.421875 1.515625 0.421875q0.859375 0 1.359375 -0.296875q0.5 -0.3125 0.5 -0.875q0 -0.46875 -0.390625 -0.765625q-0.375 -0.296875 -1.234375 -0.515625q-1.09375 -0.234375 -1.984375 -0.515625q-0.890625 -0.28125 -1.484375 -0.890625q-0.578125 -0.625 -0.578125 -1.59375q0 -1.28125 1.03125 -2.078125q1.03125 -0.8125 2.546875 -0.8125zm7.4145813 0.234375l0 5.96875q0 1.03125 0.46875 1.53125q0.484375 0.484375 1.5 0.484375q1.09375 0 1.53125 -0.484375q0.4375 -0.484375 0.4375 -1.515625l0 -5.984375l2.09375 0l0 5.984375q0 1.765625 -1.03125 2.765625q-1.03125 1.0 -3.03125 1.0q-2.015625 0 -3.046875 -0.984375q-1.015625 -0.984375 -1.015625 -2.78125l0 -5.984375l2.09375 0zm9.925842 0l0 7.765625l4.640625 0l0 1.75l-6.734375 0l0 -9.515625l2.09375 0zm13.775421 -0.234375q1.625 0 2.765625 0.921875q1.140625 0.921875 1.328125 2.515625l-2.015625 0q-0.140625 -0.75 -0.75 -1.203125q-0.59375 -0.46875 -1.328125 -0.46875q-1.234375 0 -1.921875 0.890625q-0.671875 0.890625 -0.671875 2.375q0 1.40625 0.671875 2.296875q0.671875 0.890625 1.921875 0.890625q0.90625 0 1.453125 -0.5625q0.5625 -0.5625 0.703125 -1.5625l2.03125 0q-0.1875 1.8125 -1.328125 2.859375q-1.125 1.03125 -2.859375 1.03125q-1.375 0 -2.453125 -0.625q-1.0625 -0.640625 -1.65625 -1.78125q-0.578125 -1.140625 -0.578125 -2.546875q0 -2.1875 1.28125 -3.609375q1.296875 -1.421875 3.40625 -1.421875zm7.707062 0.234375l0 7.765625l4.640625 0l0 1.75l-6.734375 0l0 -9.515625l2.09375 0zm7.9005737 0l0 9.515625l-2.09375 0l0 -9.515625l2.09375 0zm8.946381 0l0 1.765625l-5.015625 0l0 2.03125l4.609375 0l0 1.625l-4.609375 0l0 2.34375l5.125 0l0 1.75l-7.21875 0l0 -9.515625l7.109375 0zm3.6047058 0l3.96875 6.390625l0.03125 0l0 -6.390625l1.953125 0l0 9.515625l-2.09375 0l-3.953125 -6.375l-0.03125 0l0 6.375l-1.953125 0l0 -9.515625l2.078125 0zm14.847687 0l0 1.765625l-2.859375 0l0 7.75l-2.078125 0l0 -7.75l-2.859375 0l0 -1.765625l7.796875 0z" fill-rule="nonzero"/><path fill="#000000" fill-opacity="0.0" d="m580.48737 278.31738l134.70868 0l0 35.55905l-134.70868 0z" fill-rule="evenodd"/><path fill="#dc477d" d="m598.7177 290.36737q1.625 0 2.765625 0.921875q1.140625 0.921875 1.328125 2.515625l-2.015625 0q-0.140625 -0.75 -0.75 -1.203125q-0.59375 -0.46875 -1.328125 -0.46875q-1.234375 0 -1.921875 0.890625q-0.671875 0.890625 -0.671875 2.375q0 1.40625 0.671875 2.296875q0.671875 0.890625 1.921875 0.890625q0.90625 0 1.453125 -0.5625q0.5625 -0.5625 0.703125 -1.5625l2.03125 0q-0.1875 1.8125 -1.328125 2.859375q-1.125 1.03125 -2.859375 1.03125q-1.375 0 -2.453125 -0.625q-1.0625 -0.640625 -1.65625 -1.78125q-0.578125 -1.140625 -0.578125 -2.546875q0 -2.1875 1.28125 -3.609375q1.296875 -1.421875 3.40625 -1.421875zm9.878967 0q2.125 0 3.390625 1.4375q1.28125 1.421875 1.28125 3.59375q0 2.125 -1.28125 3.546875q-1.28125 1.40625 -3.390625 1.40625q-1.375 0 -2.453125 -0.625q-1.0625 -0.640625 -1.65625 -1.78125q-0.578125 -1.140625 -0.578125 -2.546875q0 -2.203125 1.28125 -3.609375q1.296875 -1.421875 3.40625 -1.421875zm-2.59375 5.03125q0 1.40625 0.671875 2.296875q0.671875 0.890625 1.921875 0.890625q1.234375 0 1.90625 -0.875q0.671875 -0.875 0.671875 -2.3125q0 -1.5 -0.6875 -2.375q-0.6875 -0.890625 -1.90625 -0.890625q-1.21875 0 -1.90625 0.890625q-0.671875 0.890625 -0.671875 2.375zm10.773315 -4.796875l3.96875 6.390625l0.03125 0l0 -6.390625l1.953125 0l0 9.515625l-2.09375 0l-3.953125 -6.375l-0.03125 0l0 6.375l-1.953125 0l0 -9.515625l2.078125 0zm11.082092 -0.234375q1.71875 0 2.75 0.8125q1.046875 0.796875 1.046875 2.265625l-2.015625 0q-0.046875 -0.71875 -0.5 -1.078125q-0.4375 -0.359375 -1.375 -0.359375q-0.640625 0 -1.046875 0.28125q-0.40625 0.265625 -0.40625 0.796875q0 0.359375 0.171875 0.53125q0.171875 0.171875 0.6875 0.375q0.53125 0.1875 2.296875 0.59375q1.1875 0.296875 1.84375 0.984375q0.671875 0.671875 0.671875 1.71875q0 1.390625 -1.046875 2.234375q-1.03125 0.828125 -2.90625 0.828125q-1.796875 0 -2.9375 -0.890625q-1.125 -0.890625 -1.125 -2.453125l0 -0.046875l2.03125 0q0 0.890625 0.578125 1.328125q0.578125 0.421875 1.515625 0.421875q0.859375 0 1.359375 -0.296875q0.5 -0.3125 0.5 -0.875q0 -0.46875 -0.390625 -0.765625q-0.375 -0.296875 -1.234375 -0.515625q-1.09375 -0.234375 -1.984375 -0.515625q-0.890625 -0.28125 -1.484375 -0.890625q-0.578125 -0.625 -0.578125 -1.59375q0 -1.28125 1.03125 -2.078125q1.03125 -0.8125 2.546875 -0.8125zm7.414551 0.234375l0 5.96875q0 1.03125 0.46875 1.53125q0.484375 0.484375 1.5 0.484375q1.09375 0 1.53125 -0.484375q0.4375 -0.484375 0.4375 -1.515625l0 -5.984375l2.09375 0l0 5.984375q0 1.765625 -1.03125 2.765625q-1.03125 1.0 -3.03125 1.0q-2.015625 0 -3.046875 -0.984375q-1.015625 -0.984375 -1.015625 -2.78125l0 -5.984375l2.09375 0zm9.925842 0l0 7.765625l4.640625 0l0 1.75l-6.734375 0l0 -9.515625l2.09375 0zm13.775452 -0.234375q1.625 0 2.765625 0.921875q1.140625 0.921875 1.328125 2.515625l-2.015625 0q-0.140625 -0.75 -0.75 -1.203125q-0.59375 -0.46875 -1.328125 -0.46875q-1.234375 0 -1.921875 0.890625q-0.671875 0.890625 -0.671875 2.375q0 1.40625 0.671875 2.296875q0.671875 0.890625 1.921875 0.890625q0.90625 0 1.453125 -0.5625q0.5625 -0.5625 0.703125 -1.5625l2.03125 0q-0.1875 1.8125 -1.328125 2.859375q-1.125 1.03125 -2.859375 1.03125q-1.375 0 -2.453125 -0.625q-1.0625 -0.640625 -1.65625 -1.78125q-0.578125 -1.140625 -0.578125 -2.546875q0 -2.1875 1.28125 -3.609375q1.296875 -1.421875 3.40625 -1.421875zm7.7070312 0.234375l0 7.765625l4.640625 0l0 1.75l-6.734375 0l0 -9.515625l2.09375 0zm7.9005737 0l0 9.515625l-2.09375 0l0 -9.515625l2.09375 0zm8.946411 0l0 1.765625l-5.015625 0l0 2.03125l4.609375 0l0 1.625l-4.609375 0l0 2.34375l5.125 0l0 1.75l-7.21875 0l0 -9.515625l7.109375 0zm3.6046753 0l3.96875 6.390625l0.03125 0l0 -6.390625l1.953125 0l0 9.515625l-2.09375 0l-3.953125 -6.375l-0.03125 0l0 6.375l-1.953125 0l0 -9.515625l2.078125 0zm14.847717 0l0 1.765625l-2.859375 0l0 7.75l-2.078125 0l0 -7.75l-2.859375 0l0 -1.765625l7.796875 0z" fill-rule="nonzero"/><path fill="#000000" fill-opacity="0.0" d="m343.3573 444.64255l259.84253 0" fill-rule="evenodd"/><path stroke="#e03875" stroke-width="2.0" stroke-miterlimit="400.0" stroke-linecap="butt" d="m350.9373 444.64255l244.68253 0" fill-rule="evenodd"/><path stroke="#e03875" stroke-width="2.0" stroke-linecap="butt" d="m344.3573 444.64255c0 -1.8170166 1.472992 -3.2900085 3.2900085 -3.2900085c1.8170166 0 3.2900085 1.472992 3.2900085 3.2900085c0 1.8170166 -1.472992 3.2900085 -3.2900085 3.2900085c-1.8170166 0 -3.2900085 -1.472992 -3.2900085 -3.2900085z" fill-rule="nonzero"/><path stroke="#e03875" stroke-width="2.0" stroke-linecap="butt" d="m602.1998 444.64255c0 1.8170166 -1.4729614 3.2900085 -3.289978 3.2900085c-1.8170166 0 -3.289978 -1.472992 -3.289978 -3.2900085c0 -1.8170166 1.4729614 -3.2900085 3.289978 -3.2900085c1.8170166 0 3.289978 1.472992 3.289978 3.2900085z" fill-rule="nonzero"/><path fill="#000000" fill-opacity="0.0" d="m298.748 312.2399l0 73.7323" fill-rule="evenodd"/><path stroke="#e03875" stroke-width="1.0" stroke-miterlimit="400.0" stroke-linecap="butt" d="m298.748 312.2399l0 67.7323" fill-rule="evenodd"/><path fill="#e03875" stroke="#e03875" stroke-width="1.0" stroke-linecap="butt" d="m297.09625 379.9722l1.6517334 4.538086l1.6517334 -4.538086z" fill-rule="evenodd"/><path fill="#000000" fill-opacity="0.0" d="m647.84174 313.87643l0.03149414 72.12598" fill-rule="evenodd"/><path stroke="#e03875" stroke-width="1.0" stroke-miterlimit="400.0" stroke-linecap="butt" d="m647.8417 313.87643l0.028869629 66.12598" fill-rule="evenodd"/><path fill="#e03875" stroke="#e03875" stroke-width="1.0" stroke-linecap="butt" d="m646.2189 380.00314l1.6536865 4.537384l1.6497192 -4.5388184z" fill-rule="evenodd"/><path fill="#000000" fill-opacity="0.0" d="m672.51337 432.07346l-49.35431 0" fill-rule="evenodd"/><path stroke="#e03875" stroke-width="1.0" stroke-miterlimit="400.0" stroke-linecap="butt" d="m672.51337 432.07346l-43.35431 0" fill-rule="evenodd"/><path fill="#e03875" stroke="#e03875" stroke-width="1.0" stroke-linecap="butt" d="m629.15906 430.42172l-4.538147 1.6517334l4.538147 1.6517334z" fill-rule="evenodd"/><path fill="#000000" fill-opacity="0.0" d="m623.1696 457.24615l49.35437 0" fill-rule="evenodd"/><path stroke="#e03875" stroke-width="1.0" stroke-miterlimit="400.0" stroke-linecap="butt" d="m623.1696 457.24615l43.35431 0" fill-rule="evenodd"/><path fill="#e03875" stroke="#e03875" stroke-width="1.0" stroke-linecap="butt" d="m666.5239 458.8979l4.538147 -1.6517334l-4.538147 -1.6517334z" fill-rule="evenodd"/><path fill="#000000" fill-opacity="0.0" d="m238.66493 486.155l112.157486 0l0 35.55905l-112.157486 0z" fill-rule="evenodd"/><path fill="#dc477d" d="m276.83417 498.43936q1.484375 0 2.34375 0.84375q0.875 0.828125 0.875 2.203125q0 1.375 -0.875 2.21875q-0.859375 0.84375 -2.34375 0.84375l-2.265625 0l0 3.40625l-2.09375 0l0 -9.515625l4.359375 0zm-0.578125 4.484375q0.890625 0 1.328125 -0.34375q0.4375 -0.34375 0.4375 -1.09375q0 -0.71875 -0.421875 -1.0625q-0.421875 -0.359375 -1.34375 -0.359375l-1.6875 0l0 2.859375l1.6875 0zm10.2960205 -4.484375q1.140625 0 1.9375 0.75q0.796875 0.734375 0.796875 1.875q0 0.90625 -0.375 1.5q-0.375 0.578125 -1.140625 0.890625l0 0.015625q0.671875 0.1875 1.03125 0.8125q0.359375 0.625 0.390625 1.90625q0.015625 1.296875 0.375 1.765625l-2.109375 0q-0.171875 -0.46875 -0.234375 -1.5q-0.109375 -1.40625 -0.484375 -1.8125q-0.375 -0.40625 -1.140625 -0.40625l-2.140625 0l0 3.71875l-2.09375 0l0 -9.515625l5.1875 0zm-0.765625 4.296875q0.65625 0 1.015625 -0.3125q0.375 -0.3125 0.375 -1.046875q0 -0.671875 -0.359375 -0.984375q-0.34375 -0.328125 -1.03125 -0.328125l-2.328125 0l0 2.671875l2.328125 0zm9.468903 -4.53125q2.125 0 3.390625 1.4375q1.28125 1.421875 1.28125 3.59375q0 2.125 -1.28125 3.546875q-1.28125 1.40625 -3.390625 1.40625q-1.375 0 -2.453125 -0.625q-1.0625 -0.640625 -1.65625 -1.78125q-0.578125 -1.140625 -0.578125 -2.546875q0 -2.203125 1.28125 -3.609375q1.296875 -1.421875 3.40625 -1.421875zm-2.59375 5.03125q0 1.40625 0.671875 2.296875q0.671875 0.890625 1.921875 0.890625q1.234375 0 1.90625 -0.875q0.671875 -0.875 0.671875 -2.3125q0 -1.5 -0.6875 -2.375q-0.6875 -0.890625 -1.90625 -0.890625q-1.21875 0 -1.90625 0.890625q-0.671875 0.890625 -0.671875 2.375zm10.102722 -4.796875l1.875 3.046875l1.921875 -3.046875l2.296875 0l-3.046875 4.546875l3.3125 4.96875l-2.5 0l-2.0625 -3.296875l-2.125 3.296875l-2.359375 0l3.328125 -4.984375l-3.0625 -4.53125l2.421875 0zm8.51474 0l2.234375 3.75l2.203125 -3.75l2.328125 0l-3.515625 5.859375l0 3.65625l-2.09375 0l0 -3.703125l-3.5 -5.8125l2.34375 0z" fill-rule="nonzero"/><path fill="#000000" fill-opacity="0.0" d="m591.7826 486.155l112.15747 0l0 35.55905l-112.15747 0z" fill-rule="evenodd"/><path fill="#dc477d" d="m629.95184 498.43936q1.484375 0 2.34375 0.84375q0.875 0.828125 0.875 2.203125q0 1.375 -0.875 2.21875q-0.859375 0.84375 -2.34375 0.84375l-2.265625 0l0 3.40625l-2.09375 0l0 -9.515625l4.359375 0zm-0.578125 4.484375q0.890625 0 1.328125 -0.34375q0.4375 -0.34375 0.4375 -1.09375q0 -0.71875 -0.421875 -1.0625q-0.421875 -0.359375 -1.34375 -0.359375l-1.6875 0l0 2.859375l1.6875 0zm10.2960205 -4.484375q1.140625 0 1.9375 0.75q0.796875 0.734375 0.796875 1.875q0 0.90625 -0.375 1.5q-0.375 0.578125 -1.140625 0.890625l0 0.015625q0.671875 0.1875 1.03125 0.8125q0.359375 0.625 0.390625 1.90625q0.015625 1.296875 0.375 1.765625l-2.109375 0q-0.171875 -0.46875 -0.234375 -1.5q-0.109375 -1.40625 -0.484375 -1.8125q-0.375 -0.40625 -1.140625 -0.40625l-2.140625 0l0 3.71875l-2.09375 0l0 -9.515625l5.1875 0zm-0.765625 4.296875q0.65625 0 1.015625 -0.3125q0.375 -0.3125 0.375 -1.046875q0 -0.671875 -0.359375 -0.984375q-0.34375 -0.328125 -1.03125 -0.328125l-2.328125 0l0 2.671875l2.328125 0zm9.468872 -4.53125q2.125 0 3.390625 1.4375q1.28125 1.421875 1.28125 3.59375q0 2.125 -1.28125 3.546875q-1.28125 1.40625 -3.390625 1.40625q-1.375 0 -2.453125 -0.625q-1.0625 -0.640625 -1.65625 -1.78125q-0.578125 -1.140625 -0.578125 -2.546875q0 -2.203125 1.28125 -3.609375q1.296875 -1.421875 3.40625 -1.421875zm-2.59375 5.03125q0 1.40625 0.671875 2.296875q0.671875 0.890625 1.921875 0.890625q1.234375 0 1.90625 -0.875q0.671875 -0.875 0.671875 -2.3125q0 -1.5 -0.6875 -2.375q-0.6875 -0.890625 -1.90625 -0.890625q-1.21875 0 -1.90625 0.890625q-0.671875 0.890625 -0.671875 2.375zm10.102722 -4.796875l1.875 3.046875l1.921875 -3.046875l2.296875 0l-3.046875 4.546875l3.3125 4.96875l-2.5 0l-2.0625 -3.296875l-2.125 3.296875l-2.359375 0l3.328125 -4.984375l-3.0625 -4.53125l2.421875 0zm8.5147705 0l2.234375 3.75l2.203125 -3.75l2.328125 0l-3.515625 5.859375l0 3.65625l-2.09375 0l0 -3.703125l-3.5 -5.8125l2.34375 0z" fill-rule="nonzero"/><path fill="#000000" fill-opacity="0.0" d="m401.31567 337.4117l155.40161 0l0 67.87402l-155.40161 0z" fill-rule="evenodd"/><path fill="#4e515d" d="m438.945 349.4617q1.625 0 2.765625 0.921875q1.140625 0.921875 1.328125 2.515625l-2.015625 0q-0.140625 -0.75 -0.75 -1.203125q-0.59375 -0.46875 -1.328125 -0.46875q-1.234375 0 -1.921875 0.890625q-0.671875 0.890625 -0.671875 2.375q0 1.40625 0.671875 2.296875q0.671875 0.890625 1.921875 0.890625q0.90625 0 1.453125 -0.5625q0.5625 -0.5625 0.703125 -1.5625l2.03125 0q-0.1875 1.8125 -1.328125 2.859375q-1.125 1.03125 -2.859375 1.03125q-1.375 0 -2.453125 -0.625q-1.0625 -0.640625 -1.65625 -1.78125q-0.578125 -1.140625 -0.578125 -2.546875q0 -2.1875 1.28125 -3.609375q1.296875 -1.421875 3.40625 -1.421875zm9.878967 0q2.125 0 3.390625 1.4375q1.28125 1.421875 1.28125 3.59375q0 2.125 -1.28125 3.546875q-1.28125 1.40625 -3.390625 1.40625q-1.375 0 -2.453125 -0.625q-1.0625 -0.640625 -1.65625 -1.78125q-0.578125 -1.140625 -0.578125 -2.546875q0 -2.203125 1.28125 -3.609375q1.296875 -1.421875 3.40625 -1.421875zm-2.59375 5.03125q0 1.40625 0.671875 2.296875q0.671875 0.890625 1.921875 0.890625q1.234375 0 1.90625 -0.875q0.671875 -0.875 0.671875 -2.3125q0 -1.5 -0.6875 -2.375q-0.6875 -0.890625 -1.90625 -0.890625q-1.21875 0 -1.90625 0.890625q-0.671875 0.890625 -0.671875 2.375zm10.773285 -4.796875l3.96875 6.390625l0.03125 0l0 -6.390625l1.953125 0l0 9.515625l-2.09375 0l-3.953125 -6.375l-0.03125 0l0 6.375l-1.953125 0l0 -9.515625l2.078125 0zm9.878967 0l3.96875 6.390625l0.03125 0l0 -6.390625l1.953125 0l0 9.515625l-2.09375 0l-3.953125 -6.375l-0.03125 0l0 6.375l-1.953125 0l0 -9.515625l2.078125 0zm14.910187 0l0 1.765625l-5.015625 0l0 2.03125l4.609375 0l0 1.625l-4.609375 0l0 2.34375l5.125 0l0 1.75l-7.21875 0l0 -9.515625l7.109375 0zm5.792206 -0.234375q1.625 0 2.765625 0.921875q1.140625 0.921875 1.328125 2.515625l-2.015625 0q-0.140625 -0.75 -0.75 -1.203125q-0.59375 -0.46875 -1.328125 -0.46875q-1.234375 0 -1.921875 0.890625q-0.671875 0.890625 -0.671875 2.375q0 1.40625 0.671875 2.296875q0.671875 0.890625 1.921875 0.890625q0.90625 0 1.453125 -0.5625q0.5625 -0.5625 0.703125 -1.5625l2.03125 0q-0.1875 1.8125 -1.328125 2.859375q-1.125 1.03125 -2.859375 1.03125q-1.375 0 -2.453125 -0.625q-1.0625 -0.640625 -1.65625 -1.78125q-0.578125 -1.140625 -0.578125 -2.546875q0 -2.1875 1.28125 -3.609375q1.296875 -1.421875 3.40625 -1.421875zm12.341187 0.234375l0 1.765625l-2.859375 0l0 7.75l-2.078125 0l0 -7.75l-2.859375 0l0 -1.765625l7.796875 0zm3.1882324 0l0 9.515625l-2.09375 0l0 -9.515625l2.09375 0zm6.1026306 -0.234375q2.125 0 3.390625 1.4375q1.28125 1.421875 1.28125 3.59375q0 2.125 -1.28125 3.546875q-1.28125 1.40625 -3.390625 1.40625q-1.375 0 -2.453125 -0.625q-1.0625 -0.640625 -1.65625 -1.78125q-0.578125 -1.140625 -0.578125 -2.546875q0 -2.203125 1.28125 -3.609375q1.296875 -1.421875 3.40625 -1.421875zm-2.59375 5.03125q0 1.40625 0.671875 2.296875q0.671875 0.890625 1.921875 0.890625q1.234375 0 1.90625 -0.875q0.671875 -0.875 0.671875 -2.3125q0 -1.5 -0.6875 -2.375q-0.6875 -0.890625 -1.90625 -0.890625q-1.21875 0 -1.90625 0.890625q-0.671875 0.890625 -0.671875 2.375zm10.773315 -4.796875l3.96875 6.390625l0.03125 0l0 -6.390625l1.953125 0l0 9.515625l-2.09375 0l-3.953125 -6.375l-0.03125 0l0 6.375l-1.953125 0l0 -9.515625l2.078125 0z" fill-rule="nonzero"/><path fill="#4e515d" d="m440.7023 365.69608l3.5625 9.515625l-2.171875 0l-0.71875 -2.125l-3.5625 0l-0.734375 2.125l-2.125 0l3.609375 -9.515625l2.140625 0zm-1.09375 2.34375l-1.25 3.5l2.46875 0l-1.1875 -3.5l-0.03125 0zm7.3740234 -2.34375l0 5.96875q0 1.03125 0.46875 1.53125q0.484375 0.484375 1.5 0.484375q1.09375 0 1.53125 -0.484375q0.4375 -0.484375 0.4375 -1.515625l0 -5.984375l2.09375 0l0 5.984375q0 1.765625 -1.03125 2.765625q-1.03125 1.0 -3.03125 1.0q-2.015625 0 -3.046875 -0.984375q-1.015625 -0.984375 -1.015625 -2.78125l0 -5.984375l2.09375 0zm14.878967 0l0 1.765625l-2.859375 0l0 7.75l-2.078125 0l0 -7.75l-2.859375 0l0 -1.765625l7.796875 0zm3.1882324 0l0 3.65625l3.84375 0l0 -3.65625l2.09375 0l0 9.515625l-2.09375 0l0 -4.109375l-3.84375 0l0 4.109375l-2.09375 0l0 -9.515625l2.09375 0zm12.050812 -0.234375q2.125 0 3.390625 1.4375q1.28125 1.421875 1.28125 3.59375q0 2.125 -1.28125 3.546875q-1.28125 1.40625 -3.390625 1.40625q-1.375 0 -2.453125 -0.625q-1.0625 -0.640625 -1.65625 -1.78125q-0.578125 -1.140625 -0.578125 -2.546875q0 -2.203125 1.28125 -3.609375q1.296875 -1.421875 3.40625 -1.421875zm-2.59375 5.03125q0 1.40625 0.671875 2.296875q0.671875 0.890625 1.921875 0.890625q1.234375 0 1.90625 -0.875q0.671875 -0.875 0.671875 -2.3125q0 -1.5 -0.6875 -2.375q-0.6875 -0.890625 -1.90625 -0.890625q-1.21875 0 -1.90625 0.890625q-0.671875 0.890625 -0.671875 2.375zm13.88269 -4.796875q1.140625 0 1.9375 0.75q0.796875 0.734375 0.796875 1.875q0 0.90625 -0.375 1.5q-0.375 0.578125 -1.140625 0.890625l0 0.015625q0.671875 0.1875 1.03125 0.8125q0.359375 0.625 0.390625 1.90625q0.015625 1.296875 0.375 1.765625l-2.109375 0q-0.171875 -0.46875 -0.234375 -1.5q-0.109375 -1.40625 -0.484375 -1.8125q-0.375 -0.40625 -1.140625 -0.40625l-2.140625 0l0 3.71875l-2.09375 0l0 -9.515625l5.1875 0zm-0.765625 4.296875q0.65625 0 1.015625 -0.3125q0.375 -0.3125 0.375 -1.046875q0 -0.671875 -0.359375 -0.984375q-0.34375 -0.328125 -1.03125 -0.328125l-2.328125 0l0 2.671875l2.328125 0zm7.2970276 -4.296875l0 9.515625l-2.09375 0l0 -9.515625l2.09375 0zm9.118256 0l0 1.65625l-5.109375 6.109375l5.234375 0l0 1.75l-8.015625 0l0 -1.65625l5.09375 -6.09375l-4.703125 0l0 -1.765625l7.5 0zm8.46405 0l0 1.765625l-5.0155945 0l0 2.03125l4.6093445 0l0 1.625l-4.6093445 0l0 2.34375l5.1249695 0l0 1.75l-7.2187195 0l0 -9.515625l7.1093445 0zm5.6984863 0q1.890625 0 3.0625 1.25q1.1875 1.234375 1.1875 3.453125q0 2.234375 -1.15625 3.53125q-1.140625 1.28125 -3.09375 1.28125l-4.171875 0l0 -9.515625l4.171875 0zm-0.171875 7.765625q1.0 0 1.65625 -0.71875q0.671875 -0.734375 0.671875 -2.15625q0 -1.640625 -0.6875 -2.375q-0.6875 -0.75 -2.0 -0.75l-1.546875 0l0 6.0l1.90625 0z" fill-rule="nonzero"/><path fill="#4e515d" d="m421.32367 381.69608l1.5 6.46875l0.015625 0l1.65625 -6.46875l1.96875 0l1.625 6.546875l0.015625 0l1.5625 -6.546875l2.0625 0l-2.5625 9.515625l-2.078125 0l-1.609375 -6.46875l-0.03125 0l-1.59375 6.46875l-2.109375 0l-2.53125 -9.515625l2.109375 0zm13.454742 0l0 9.515625l-2.09375 0l0 -9.515625l2.09375 0zm8.883881 0l0 1.765625l-2.859375 0l0 7.75l-2.078125 0l0 -7.75l-2.859375 0l0 -1.765625l7.796875 0zm3.1882324 0l0 3.65625l3.84375 0l0 -3.65625l2.09375 0l0 9.515625l-2.09375 0l0 -4.109375l-3.84375 0l0 4.109375l-2.09375 0l0 -9.515625l2.09375 0zm13.58194 0l0 9.515625l-2.09375 0l0 -9.515625l2.09375 0zm3.9151306 0l3.96875 6.390625l0.03125 0l0 -6.390625l1.953125 0l0 9.515625l-2.09375 0l-3.953125 -6.375l-0.03125 0l0 6.375l-1.953125 0l0 -9.515625l2.078125 0zm14.847687 0l0 1.765625l-2.859375 0l0 7.75l-2.078125 0l0 -7.75l-2.859375 0l0 -1.765625l7.796875 0zm8.203857 0l0 1.765625l-5.015625 0l0 2.03125l4.609375 0l0 1.625l-4.609375 0l0 2.34375l5.125 0l0 1.75l-7.21875 0l0 -9.515625l7.109375 0zm3.6047058 0l3.96875 6.390625l0.03125 0l0 -6.390625l1.953125 0l0 9.515625l-2.09375 0l-3.953125 -6.375l-0.03125 0l0 6.375l-1.953125 0l0 -9.515625l2.078125 0zm14.847717 0l0 1.765625l-2.859375 0l0 7.75l-2.078125 0l0 -7.75l-2.859375 0l0 -1.765625l7.796875 0zm3.1882324 0l0 9.515625l-2.09375 0l0 -9.515625l2.09375 0zm6.1026 -0.234375q2.125 0 3.390625 1.4375q1.28125 1.421875 1.28125 3.59375q0 2.125 -1.28125 3.546875q-1.28125 1.40625 -3.390625 1.40625q-1.375 0 -2.453125 -0.625q-1.0624695 -0.640625 -1.6562195 -1.78125q-0.578125 -1.140625 -0.578125 -2.546875q0 -2.203125 1.28125 -3.609375q1.2968445 -1.421875 3.4062195 -1.421875zm-2.59375 5.03125q0 1.40625 0.671875 2.296875q0.671875 0.890625 1.921875 0.890625q1.234375 0 1.90625 -0.875q0.671875 -0.875 0.671875 -2.3125q0 -1.5 -0.6875 -2.375q-0.6875 -0.890625 -1.90625 -0.890625q-1.21875 0 -1.90625 0.890625q-0.671875 0.890625 -0.671875 2.375zm10.773315 -4.796875l3.96875 6.390625l0.03125 0l0 -6.390625l1.953125 0l0 9.515625l-2.09375 0l-3.953125 -6.375l-0.03125 0l0 6.375l-1.953125 0l0 -9.515625l2.078125 0zm11.082092 -0.234375q1.71875 0 2.75 0.8125q1.046875 0.796875 1.046875 2.265625l-2.015625 0q-0.046875 -0.71875 -0.5 -1.078125q-0.4375 -0.359375 -1.375 -0.359375q-0.640625 0 -1.046875 0.28125q-0.40625 0.265625 -0.40625 0.796875q0 0.359375 0.171875 0.53125q0.171875 0.171875 0.6875 0.375q0.53125 0.1875 2.296875 0.59375q1.1875 0.296875 1.84375 0.984375q0.671875 0.671875 0.671875 1.71875q0 1.390625 -1.046875 2.234375q-1.03125 0.828125 -2.90625 0.828125q-1.796875 0 -2.9375 -0.890625q-1.125 -0.890625 -1.125 -2.453125l0 -0.046875l2.03125 0q0 0.890625 0.578125 1.328125q0.578125 0.421875 1.515625 0.421875q0.859375 0 1.359375 -0.296875q0.5 -0.3125 0.5 -0.875q0 -0.46875 -0.390625 -0.765625q-0.375 -0.296875 -1.234375 -0.515625q-1.09375 -0.234375 -1.984375 -0.515625q-0.890625 -0.28125 -1.484375 -0.890625q-0.578125 -0.625 -0.578125 -1.59375q0 -1.28125 1.03125 -2.078125q1.03125 -0.8125 2.546875 -0.8125z" fill-rule="nonzero"/><path fill="#ffffff" d="m739.0079 410.3251l0 0c0 -1.234314 1.0006714 -2.2349548 2.2349854 -2.2349548l67.02612 0c0.59277344 0 1.1612549 0.23547363 1.5803833 0.65460205c0.41912842 0.41915894 0.65460205 0.98760986 0.65460205 1.5803528l0 67.02615c0 1.234314 -1.0006714 2.2349548 -2.2349854 2.2349548l-67.02612 0l0 0c-1.234314 0 -2.2349854 -1.0006409 -2.2349854 -2.2349548z" fill-rule="evenodd"/><path stroke="#d6d6d6" stroke-width="1.0" stroke-linejoin="round" stroke-linecap="butt" d="m739.0079 410.3251l0 0c0 -1.234314 1.0006714 -2.2349548 2.2349854 -2.2349548l67.02612 0c0.59277344 0 1.1612549 0.23547363 1.5803833 0.65460205c0.41912842 0.41915894 0.65460205 0.98760986 0.65460205 1.5803528l0 67.02615c0 1.234314 -1.0006714 2.2349548 -2.2349854 2.2349548l-67.02612 0l0 0c-1.234314 0 -2.2349854 -1.0006409 -2.2349854 -2.2349548z" fill-rule="evenodd"/><path fill="#9396a2" d="m774.76404 463.16562c-5.0162964 0 -9.7230835 -0.65496826 -13.259888 -1.8378296c-1.8533936 -0.63882446 -3.2398682 -1.3242188 -4.221985 -2.118744c-1.2164917 -0.9645386 -1.8390503 -2.0543518 -1.8390503 -3.2229004l0 -24.466064c0 -1.4476929 1.0125122 -2.50708 1.8533325 -3.1602478c1.0447998 -0.79455566 2.46344 -1.4799194 4.239868 -2.0561523c3.520752 -1.1524353 8.225769 -1.7912903 13.227722 -1.7912903c5.001953 0 9.70697 0.638855 13.229492 1.7912903c1.7746582 0.5601196 3.1932983 1.2454834 4.238098 2.0561523c0.85687256 0.63705444 1.8533325 1.7125549 1.8533325 3.1602478l0 24.466064c0 1.1685486 -0.6225586 2.2422485 -1.8390503 3.2229004c-0.99645996 0.79452515 -2.3685913 1.4960022 -4.221985 2.118744c-3.5368042 1.1828613 -8.243591 1.8378296 -13.259888 1.8378296zm-17.15448 -7.179474c0 0.32748413 0.16992188 0.8714905 1.0125732 1.5264282c0.81036377 0.638855 2.0411987 1.2455139 3.5671997 1.7590942c3.350769 1.105896 7.821411 1.7143555 12.574707 1.7143555c4.751526 0 9.223938 -0.6084595 12.574707 -1.7143555c1.526001 -0.5135803 2.756836 -1.1202393 3.5671997 -1.7590942c0.84265137 -0.6692505 1.0125732 -1.1989441 1.0125732 -1.5264282l0 -9.2034l-0.5921631 0.35787964c-0.90338135 0.54400635 -2.0089722 1.0271912 -3.3024292 1.4477234c-3.5368042 1.1381226 -8.257935 1.775177 -13.259888 1.775177c-5.001953 0 -9.70697 -0.6227417 -13.259888 -1.775177c-1.293457 -0.42053223 -2.3990479 -0.90371704 -3.3024292 -1.4477234l-0.5921631 -0.35787964l0 9.2034zm0 -12.63031c0 0.31137085 0.16992188 0.8106384 0.99645996 1.4494934c0.81036377 0.60665894 2.0411987 1.1989746 3.5689697 1.6964417c3.348999 1.0755005 7.805298 1.6821594 12.58905 1.6821594c4.7836914 0 9.240051 -0.5923462 12.58905 -1.6821594c1.527771 -0.49746704 2.758545 -1.0897827 3.5689697 -1.6964417c0.8408203 -0.65493774 1.0125732 -1.1524353 1.0125732 -1.4656067l0 -8.408844l-0.5921631 0.35787964c-0.9034424 0.5458069 -2.0250854 1.0289612 -3.3346558 1.4494934c-3.520691 1.1524658 -8.227478 1.7895203 -13.227661 1.7895203c-5.002014 0 -9.707031 -0.63705444 -13.229492 -1.7895203c-1.3095093 -0.42053223 -2.4151 -0.9036865 -3.3346558 -1.4494934l-0.5921631 -0.35787964l0 8.408844zm17.15448 -16.647736c-4.753296 0 -9.207886 0.5923462 -12.558594 1.6821289c-1.5582275 0.51361084 -2.7890625 1.1059265 -3.583313 1.7125549c-0.8265381 0.6227722 -1.0125732 1.1220398 -1.0125732 1.4334106c0 0.31137085 0.16992188 0.8088379 1.0125732 1.4315796c0.7942505 0.60842896 2.0250854 1.2150879 3.583313 1.7143555c3.350708 1.0737 7.805298 1.6821289 12.558594 1.6821289c4.751526 0 9.209656 -0.5923157 12.558594 -1.6821289c1.5582275 -0.5135803 2.7890015 -1.1059265 3.583313 -1.7143555c0.8265381 -0.6227417 1.0125732 -1.1202087 1.0125732 -1.4315796c0 -0.31137085 -0.16992188 -0.8106384 -1.0125732 -1.4334106c-0.7943115 -0.6066284 -2.0250854 -1.2150574 -3.583313 -1.7125549c-3.348938 -1.07547 -7.807068 -1.6821289 -12.558594 -1.6821289z" fill-rule="evenodd"/><path fill="#ffffff" d="m149.48859 410.3251l0 0c0 -1.234314 1.0006409 -2.2349548 2.23497 -2.2349548l67.02614 0c0.5927429 0 1.1612091 0.23547363 1.5803528 0.65460205c0.41914368 0.41915894 0.65460205 0.98760986 0.65460205 1.5803528l0 67.02615c0 1.234314 -1.0006256 2.2349548 -2.2349548 2.2349548l-67.02614 0l0 0c-1.2343292 0 -2.23497 -1.0006409 -2.23497 -2.2349548z" fill-rule="evenodd"/><path stroke="#d6d6d6" stroke-width="1.0" stroke-linejoin="round" stroke-linecap="butt" d="m149.48859 410.3251l0 0c0 -1.234314 1.0006409 -2.2349548 2.23497 -2.2349548l67.02614 0c0.5927429 0 1.1612091 0.23547363 1.5803528 0.65460205c0.41914368 0.41915894 0.65460205 0.98760986 0.65460205 1.5803528l0 67.02615c0 1.234314 -1.0006256 2.2349548 -2.2349548 2.2349548l-67.02614 0l0 0c-1.2343292 0 -2.23497 -1.0006409 -2.23497 -2.2349548z" fill-rule="evenodd"/><path fill="#e03875" d="m425.44894 443.853l0 0c0 -14.811676 12.007233 -26.818909 26.818909 -26.818909l0.03149414 0l0 0c7.112793 0 13.934296 2.8255615 18.963806 7.855072c5.029541 5.029541 7.855072 11.851013 7.855072 18.963837l0 0l0 0c0 14.811676 -12.007233 26.818909 -26.818878 26.818909l-0.03149414 0l0 0c-14.811676 0 -26.818909 -12.007233 -26.818909 -26.818909z" fill-rule="evenodd"/><path stroke="#ffffff" stroke-width="2.0" stroke-miterlimit="400.0" stroke-linecap="butt" stroke-opacity="0.4784" d="m425.44894 443.853l0 0c0 -14.811676 12.007233 -26.818909 26.818909 -26.818909l0.03149414 0l0 0c7.112793 0 13.934296 2.8255615 18.963806 7.855072c5.029541 5.029541 7.855072 11.851013 7.855072 18.963837l0 0l0 0c0 14.811676 -12.007233 26.818909 -26.818878 26.818909l-0.03149414 0l0 0c-14.811676 0 -26.818909 -12.007233 -26.818909 -26.818909z" fill-rule="evenodd"/><path fill="#929292" d="m185.24359 463.98264c-10.656921 0 -19.320938 -8.664001 -19.320938 -19.320923c0 -10.656952 8.664017 -19.320953 19.320938 -19.320953c10.656937 0 19.320953 8.664001 19.320953 19.320953c0 10.656921 -8.664017 19.320923 -19.320953 19.320923zm8.113007 -18.444336c-0.2826538 5.6674805 -2.1485596 11.080902 -5.413437 15.646393l-0.5080719 0.7066345l0.86050415 -0.15563965c7.9859924 -1.4132996 13.8520355 -8.055756 14.2760315 -16.168762l0 -0.38284302l-9.200714 0l0 0.3399048zm-25.455338 0.042938232c0.4239807 8.098694 6.290039 14.755463 14.2760315 16.168762l0.86050415 0.15563965l-0.5080719 -0.7066345c-3.2648926 -4.5654907 -5.130783 -9.978912 -5.413452 -15.646393l0 -0.3399048l-9.243637 0l0 0.38104248zm11.2079315 0c0.31129456 5.6531677 2.3882904 11.179321 5.8517456 15.546204l0.2826538 0.35421753l0.28266907 -0.35421753c3.477768 -4.3668823 5.554764 -9.893036 5.8517303 -15.546204l0 -0.38284302l-12.297424 0l0 0.38284302zm8.862595 -17.428223c3.0806122 4.3257446 4.932205 9.4279175 5.356201 14.755493l0.02861023 0.32559204l9.215027 0l-0.042938232 -0.39535522c-0.80503845 -7.6460876 -6.6424713 -13.921814 -14.204468 -15.251038l-0.8622894 -0.15563965l0.5098572 0.7066345zm-2.9822235 0.057250977c-3.3221283 4.182617 -5.329361 9.243652 -5.7944946 14.642761l-0.028625488 0.39538574l12.211548 0l-0.02861023 -0.39538574c-0.4669342 -5.399109 -2.4741669 -10.460144 -5.7944946 -14.642761l-0.28266907 -0.35421753l-0.2826538 0.35421753zm-2.7711182 -0.60824585c-7.5620117 1.3435059 -13.397644 7.60495 -14.204483 15.251007l-0.041137695 0.39538574l9.215012 0l0.028625488 -0.32559204c0.42219543 -5.3275757 2.2737885 -10.444061 5.356201 -14.755493l0.50805664 -0.7066345l-0.86227417 0.15563965z" fill-rule="evenodd"/><path fill="#000000" fill-opacity="0.0" d="m107.53936 484.95804l155.40158 0l0 37.165314l-155.40158 0z" fill-rule="evenodd"/><path fill="#4e515d" d="m170.75928 497.56927l1.65625 7.125l0.03125 0l1.8125 -7.125l2.15625 0l1.796875 7.21875l0.015625 0l1.71875 -7.21875l2.265625 0l-2.8125 10.46875l-2.296875 0l-1.765625 -7.125l-0.03125 0l-1.75 7.125l-2.328125 0l-2.765625 -10.46875l2.296875 0zm20.333267 0l0 1.9375l-5.53125 0l0 2.234375l5.0625 0l0 1.796875l-5.0625 0l0 2.5625l5.640625 0l0 1.9375l-7.9375 0l0 -10.46875l7.828125 0zm6.6683807 0q1.59375 0 2.421875 0.640625q0.84375 0.625 0.84375 1.953125q0 0.796875 -0.375 1.328125q-0.375 0.53125 -1.046875 0.859375q0.953125 0.28125 1.4375 0.96875q0.484375 0.671875 0.484375 1.6875q0 1.4375 -1.046875 2.234375q-1.046875 0.796875 -2.59375 0.796875l-5.125 0l0 -10.46875l5.0 0zm-0.328125 4.25q0.609375 0 0.984375 -0.3125q0.375 -0.328125 0.375 -0.9375q0 -0.625 -0.390625 -0.90625q-0.375 -0.296875 -1.125 -0.296875l-2.21875 0l0 2.453125l2.375 0zm0.140625 4.421875q0.765625 0 1.203125 -0.328125q0.4375 -0.34375 0.4375 -1.03125q0 -0.75 -0.421875 -1.125q-0.40625 -0.375 -1.171875 -0.375l-2.5625 0l0 2.859375l2.515625 0z" fill-rule="nonzero"/><path fill="#000000" fill-opacity="0.0" d="m697.05865 484.95804l155.40161 0l0 37.165314l-155.40161 0z" fill-rule="evenodd"/><path fill="#4e515d" d="m742.21436 497.56927q2.09375 0 3.390625 1.375q1.296875 1.359375 1.296875 3.8125q0 2.4375 -1.265625 3.859375q-1.265625 1.421875 -3.421875 1.421875l-4.578125 0l0 -10.46875l4.578125 0zm-0.171875 8.53125q1.09375 0 1.8125 -0.78125q0.734375 -0.796875 0.734375 -2.359375q0 -1.8125 -0.765625 -2.625q-0.75 -0.828125 -2.1875 -0.828125l-1.703125 0l0 6.59375l2.109375 0zm11.309326 -8.53125l3.921875 10.46875l-2.390625 0l-0.78125 -2.328125l-3.921875 0l-0.828125 2.328125l-2.3125 0l3.96875 -10.46875l2.34375 0zm-1.203125 2.578125l-1.359375 3.84375l2.703125 0l-1.3125 -3.84375l-0.03125 0zm12.472717 -2.578125l0 1.9375l-3.140625 0l0 8.53125l-2.296875 0l0 -8.53125l-3.140625 0l0 -1.9375l8.578125 0zm5.0880127 0l3.921875 10.46875l-2.390625 0l-0.78125 -2.328125l-3.921875 0l-0.828125 2.328125l-2.3125 0l3.96875 -10.46875l2.34375 0zm-1.203125 2.578125l-1.359375 3.84375l2.703125 0l-1.3125 -3.84375l-0.03125 0zm11.040405 -2.578125q1.59375 0 2.421875 0.640625q0.84375 0.625 0.84375 1.953125q0 0.796875 -0.375 1.328125q-0.375 0.53125 -1.046875 0.859375q0.953125 0.28125 1.4375 0.96875q0.484375 0.671875 0.484375 1.6875q0 1.4375 -1.046875 2.234375q-1.046875 0.796875 -2.59375 0.796875l-5.125 0l0 -10.46875l5.0 0zm-0.328125 4.25q0.609375 0 0.984375 -0.3125q0.375 -0.328125 0.375 -0.9375q0 -0.625 -0.390625 -0.90625q-0.375 -0.296875 -1.125 -0.296875l-2.21875 0l0 2.453125l2.375 0zm0.140625 4.421875q0.765625 0 1.203125 -0.328125q0.4375 -0.34375 0.4375 -1.03125q0 -0.75 -0.421875 -1.125q-0.40625 -0.375 -1.171875 -0.375l-2.5625 0l0 2.859375l2.515625 0zm10.710144 -8.671875l3.921875 10.46875l-2.390625 0l-0.78125 -2.328125l-3.921875 0l-0.828125 2.328125l-2.3125 0l3.96875 -10.46875l2.34375 0zm-1.203125 2.578125l-1.359375 3.84375l2.703125 0l-1.3125 -3.84375l-0.03125 0zm9.634094 -2.828125q1.90625 0 3.046875 0.890625q1.140625 0.875 1.140625 2.484375l-2.21875 0q-0.046875 -0.78125 -0.546875 -1.171875q-0.484375 -0.40625 -1.515625 -0.40625q-0.6875 0 -1.140625 0.3125q-0.453125 0.296875 -0.453125 0.875q0 0.390625 0.1875 0.59375q0.1875 0.1875 0.765625 0.40625q0.578125 0.203125 2.515625 0.65625q1.296875 0.3125 2.03125 1.0625q0.734375 0.75 0.734375 1.90625q0 1.515625 -1.140625 2.4375q-1.140625 0.921875 -3.203125 0.921875q-1.984375 0 -3.234375 -0.96875q-1.234375 -0.984375 -1.234375 -2.6875l0 -0.0625l2.21875 0q0.015625 0.96875 0.65625 1.453125q0.640625 0.484375 1.671875 0.484375q0.921875 0 1.46875 -0.34375q0.5625 -0.34375 0.5625 -0.96875q0 -0.5 -0.421875 -0.828125q-0.421875 -0.328125 -1.359375 -0.5625q-1.203125 -0.28125 -2.1875 -0.578125q-0.984375 -0.296875 -1.625 -0.984375q-0.640625 -0.6875 -0.640625 -1.75q0 -1.40625 1.125 -2.28125q1.140625 -0.890625 2.796875 -0.890625zm13.745239 0.25l0 1.9375l-5.53125 0l0 2.234375l5.0625 0l0 1.796875l-5.0625 0l0 2.5625l5.640625 0l0 1.9375l-7.9375 0l0 -10.46875l7.828125 0z" fill-rule="nonzero"/><path fill="#000000" fill-opacity="0.0" d="m323.36685 432.07346l-49.35434 0" fill-rule="evenodd"/><path stroke="#e03875" stroke-width="1.0" stroke-miterlimit="400.0" stroke-linecap="butt" d="m323.36685 432.07346l-43.35434 0" fill-rule="evenodd"/><path fill="#e03875" stroke="#e03875" stroke-width="1.0" stroke-linecap="butt" d="m280.0125 430.42172l-4.5381165 1.6517334l4.5381165 1.6517334z" fill-rule="evenodd"/><path fill="#000000" fill-opacity="0.0" d="m274.0231 457.24615l49.35434 0" fill-rule="evenodd"/><path stroke="#e03875" stroke-width="1.0" stroke-miterlimit="400.0" stroke-linecap="butt" d="m274.0231 457.24615l43.35431 0" fill-rule="evenodd"/><path fill="#e03875" stroke="#e03875" stroke-width="1.0" stroke-linecap="butt" d="m317.3774 458.8979l4.5381165 -1.6517334l-4.5381165 -1.6517334z" fill-rule="evenodd"/><path fill="#ffffff" d="m447.4663 453.8968c-0.1628418 0 -0.3149414 -0.04660034 -0.44415283 -0.12863159c-0.035003662 -0.023284912 -0.082092285 -0.057769775 -0.11709595 -0.09320068l-8.8871765 -8.890533c-0.15209961 -0.15194702 -0.2341919 -0.35046387 -0.2341919 -0.57321167c0 -0.22183228 0.082092285 -0.42034912 0.2341919 -0.57318115c0.15206909 -0.1519165 0.36203003 -0.23394775 0.57336426 -0.23394775c0.20996094 0 0.41992188 0.08203125 0.5720215 0.23394775l8.30304 8.305237l17.927826 -17.932098c0.15206909 -0.1519165 0.36203003 -0.23391724 0.57336426 -0.23391724c0.20996094 0 0.41992188 0.08200073 0.5720215 0.23391724c0.31628418 0.3159485 0.31628418 0.83044434 0 1.1463928l-18.499847 18.50528c-0.15206909 0.15286255 -0.36206055 0.24606323 -0.57336426 0.24606323z" fill-rule="evenodd"/><path fill="#ffffff" d="m487.37338 458.657c-2.1542358 0 -3.9013672 -1.74646 -3.9013672 -3.90036l0 -9.923065c0 -1.6723633 1.0776367 -3.1581726 2.645813 -3.7014465l0 -4.2351074c0 -2.1113586 0.85849 -4.0992737 2.4266663 -5.5946655c1.558136 -1.4734497 3.6088562 -2.2787476 5.78421 -2.2787476c2.175354 0 4.226074 0.80529785 5.78421 2.2787476c1.5681763 1.4953918 2.4266663 3.483307 2.4266663 5.5946655l0 4.2351074c1.5681763 0.5432739 2.645813 2.0290833 2.645813 3.7014465l0 9.923065c0 2.1539001 -1.7471313 3.90036 -3.9013672 3.90036l-13.900604 0zm6.945282 -8.92981c-0.3981018 0 -0.7328491 0.3347473 -0.7328491 0.732605l0 2.64505c0 0.39648438 0.3347473 0.7312317 0.7328491 0.7312317c0.3970642 0 0.7318115 -0.3347473 0.7318115 -0.7312317l0 -2.64505c0 -0.39785767 -0.3347473 -0.732605 -0.7318115 -0.732605zm5.6896973 -8.803589l0 -4.0361633c0 -1.422699 -0.5860596 -2.7616882 -1.6425781 -3.764557c-1.0766296 -1.0151978 -2.5523376 -1.5900574 -4.058197 -1.5900574c-1.5058594 0 -2.9805603 0.5858154 -4.058197 1.5996704c-1.056488 1.004242 -1.6315002 2.3432312 -1.6315002 3.7645264l0 4.036194l11.379425 0z" fill-rule="evenodd"/></g></svg>