<svg version="1.1" viewBox="0.0 0.0 960.0 540.0" fill="none" stroke="none" stroke-linecap="square" stroke-miterlimit="10" xmlns:xlink="http://www.w3.org/1999/xlink" xmlns="http://www.w3.org/2000/svg"><clipPath id="g22371b66da5_0_4.0"><path d="m0 0l960.0 0l0 540.0l-960.0 0l0 -540.0z" clip-rule="nonzero"/></clipPath><g clip-path="url(#g22371b66da5_0_4.0)"><path fill="#ffffff" d="m0 0l960.0 0l0 540.0l-960.0 0z" fill-rule="evenodd"/><path fill="#ffffff" d="m559.922 198.10875l0 0c0 -4.8476257 3.9298096 -8.77742 8.777466 -8.77742l263.23254 0c2.327942 0 4.560486 0.9247589 6.206604 2.5708466c1.6460571 1.6460876 2.5708008 3.878662 2.5708008 6.2065735l0 317.62628c0 4.847595 -3.9297485 8.777405 -8.777405 8.777405l-263.23254 0l0 0c-4.8476562 0 -8.777466 -3.9298096 -8.777466 -8.777405z" fill-rule="evenodd"/><path stroke="#d6d6d6" stroke-width="1.0" stroke-linejoin="round" stroke-linecap="butt" d="m559.922 198.10875l0 0c0 -4.8476257 3.9298096 -8.77742 8.777466 -8.77742l263.23254 0c2.327942 0 4.560486 0.9247589 6.206604 2.5708466c1.6460571 1.6460876 2.5708008 3.878662 2.5708008 6.2065735l0 317.62628c0 4.847595 -3.9297485 8.777405 -8.777405 8.777405l-263.23254 0l0 0c-4.8476562 0 -8.777466 -3.9298096 -8.777466 -8.777405z" fill-rule="evenodd"/><path fill="#ffffff" d="m124.293335 198.10875l0 0c0 -4.8476257 3.929779 -8.77742 8.77742 -8.77742l263.23254 0c2.3279114 0 4.560486 0.9247589 6.2065735 2.5708466c1.6460876 1.6460876 2.5708618 3.878662 2.5708618 6.2065735l0 317.62628c0 4.847595 -3.929779 8.777405 -8.777435 8.777405l-263.23254 0l0 0c-4.847641 0 -8.77742 -3.9298096 -8.77742 -8.777405z" fill-rule="evenodd"/><path stroke="#d6d6d6" stroke-width="1.0" stroke-linejoin="round" stroke-linecap="butt" d="m124.293335 198.10875l0 0c0 -4.8476257 3.929779 -8.77742 8.77742 -8.77742l263.23254 0c2.3279114 0 4.560486 0.9247589 6.2065735 2.5708466c1.6460876 1.6460876 2.5708618 3.878662 2.5708618 6.2065735l0 317.62628c0 4.847595 -3.929779 8.777405 -8.777435 8.777405l-263.23254 0l0 0c-4.847641 0 -8.77742 -3.9298096 -8.77742 -8.777405z" fill-rule="evenodd"/><path fill="#e03875" d="m433.1752 55.78259l0 0c0 -22.247665 18.035278 -40.282963 40.28296 -40.282963l0 0c10.683685 0 20.92981 4.2440853 28.484344 11.798607c7.5545044 7.5545197 11.798584 17.800648 11.798584 28.484356l0 0c0 22.247662 -18.035278 40.282955 -40.28293 40.282955l0 0c-22.24768 0 -40.28296 -18.035294 -40.28296 -40.282955z" fill-rule="evenodd"/><path fill="#ffffff" d="m473.62476 72.22181c-9.050568 0.0075149536 -16.393555 -7.3466263 -16.40094 -16.425636c-0.007385254 -9.0790825 7.3236084 -16.445068 16.374207 -16.452484c4.117035 -0.0033454895 8.084503 1.5479202 11.113342 4.345337l0 0l-3.8890076 4.0812454l0 0c-4.4129333 -4.0003166 -11.2230835 -3.654541 -15.210876 0.77228546c-3.987793 4.426792 -3.6431274 11.258362 0.7698364 15.258675c4.100586 3.7171555 10.340454 3.7171555 14.44104 0l0 0l3.8890076 4.0812454l0 0c-3.019928 2.7938766 -6.978546 4.343239 -11.086609 4.3393326z" fill-rule="evenodd"/><path fill="#ffffff" d="m486.81143 63.999287c-0.7418213 0 -1.3431702 -0.60323715 -1.3431702 -1.3473969c0 -0.74419403 0.6013489 -1.3474312 1.3431702 -1.3474312c0.74191284 0 1.3432007 0.60323715 1.3432007 1.3474312c-0.0018005371 0.74346924 -0.60217285 1.3457565 -1.3432007 1.3473969z" fill-rule="evenodd"/><path fill="#ffffff" d="m473.52005 59.344868c-1.9594421 0 -3.547943 -1.5934677 -3.547943 -3.559101c0 -1.9656334 1.588501 -3.559105 3.547943 -3.559105c1.9595032 0 3.547943 1.5934715 3.547943 3.559105c-0.0016174316 1.9649429 -1.5891418 3.5574303 -3.547943 3.559101z" fill-rule="evenodd"/><path fill="#ffffff" d="m488.3491 59.395874c-0.7418823 0 -1.3432007 -0.60323715 -1.3432007 -1.3473969c0 -0.74419403 0.60131836 -1.3474312 1.3432007 -1.3474312c0.74191284 0 1.3432007 0.60323715 1.3432007 1.3474312c-0.0018005371 0.74346924 -0.60217285 1.3457565 -1.3432007 1.3473969z" fill-rule="evenodd"/><path fill="#ffffff" d="m484.35837 59.242832c-0.7418213 0 -1.3432007 -0.60323715 -1.3432007 -1.3473969c0 -0.74419403 0.6013794 -1.3474312 1.3432007 -1.3474312c0.7418213 0 1.3432007 0.60323715 1.3432007 1.3474312c0 0.7441597 -0.6013794 1.3473969 -1.3432007 1.3473969z" fill-rule="evenodd"/><path fill="#ffffff" d="m488.3491 54.86747c-0.7418823 0 -1.3432007 -0.60323715 -1.3432007 -1.3473969c0 -0.74419403 0.60131836 -1.3474312 1.3432007 -1.3474312c0.74191284 0 1.3432007 0.60323715 1.3432007 1.3474312c-0.0018005371 0.74346924 -0.60217285 1.3457527 -1.3432007 1.3473969z" fill-rule="evenodd"/><path fill="#ffffff" d="m484.35837 55.020535c-0.7418213 0 -1.3432007 -0.60326767 -1.3432007 -1.3473969c0 -0.7441902 0.6014099 -1.3474274 1.3432007 -1.3474274c0.7418213 0 1.3432007 0.60326767 1.3432007 1.3474274c0 9.841919E-4 0 0.002002716 0 0.002986908c-0.0016479492 0.7430115 -0.60250854 1.34441 -1.3432007 1.34441z" fill-rule="evenodd"/><path fill="#ffffff" d="m486.8892 50.33609c-0.7417908 0.0016746521 -1.3445435 -0.60025024 -1.3461609 -1.34441c-0.0016479492 -0.7441292 0.59835815 -1.3487778 1.3401794 -1.3504181c0.74191284 -0.0016403198 1.3443909 0.6002846 1.3461914 1.34441c0 9.841919E-4 0 0.0020370483 0 0.0030212402c0 0.74297714 -0.5994873 1.3457565 -1.34021 1.3473969z" fill-rule="evenodd"/><path fill="#ffffff" d="m616.4303 227.57904l0 0c0 -0.8531647 0.69158936 -1.5447845 1.5447998 -1.5447845l52.51837 0c0.409729 0 0.80267334 0.16275024 1.0923462 0.4524536c0.2897339 0.28970337 0.4524536 0.68263245 0.4524536 1.0923309l0 52.518433c0 0.8531494 -0.69158936 1.5447693 -1.5447998 1.5447693l-52.51837 0c-0.85321045 0 -1.5447998 -0.6916199 -1.5447998 -1.5447693z" fill-rule="evenodd"/><path stroke="#e03875" stroke-width="1.0" stroke-miterlimit="400.0" stroke-linecap="butt" d="m616.4303 227.57904l0 0c0 -0.8531647 0.69158936 -1.5447845 1.5447998 -1.5447845l52.51837 0c0.409729 0 0.80267334 0.16275024 1.0923462 0.4524536c0.2897339 0.28970337 0.4524536 0.68263245 0.4524536 1.0923309l0 52.518433c0 0.8531494 -0.69158936 1.5447693 -1.5447998 1.5447693l-52.51837 0c-0.85321045 0 -1.5447998 -0.6916199 -1.5447998 -1.5447693z" fill-rule="evenodd"/><path fill="#e03875" d="m657.8046 270.38828l0 0c0 -2.2454834 1.8203125 -4.0658264 4.065796 -4.0658264l0 0c1.0783081 0 2.1124878 0.42837524 2.875 1.1908569c0.7624512 0.7624817 1.1908569 1.7966614 1.1908569 2.8749695l0 0c0 2.2454834 -1.8203735 4.0658264 -4.065857 4.0658264l0 0c-2.2454834 0 -4.065796 -1.820343 -4.065796 -4.0658264z" fill-rule="evenodd"/><path fill="#000000" fill-opacity="0.0" d="m655.1615 440.5951l109.19684 0" fill-rule="evenodd"/><path stroke="#e03875" stroke-width="2.0" stroke-miterlimit="400.0" stroke-linecap="butt" d="m655.1615 440.5951l109.19684 0" fill-rule="evenodd"/><path fill="#ffffff" d="m274.87888 227.57904l0 0c0 -0.8531647 0.6916199 -1.5447845 1.5447998 -1.5447845l52.518402 0c0.4096985 0 0.8026428 0.16275024 1.0923462 0.4524536c0.28970337 0.28970337 0.4524536 0.68263245 0.4524536 1.0923309l0 52.518433c0 0.8531494 -0.6916199 1.5447693 -1.5447998 1.5447693l-52.518402 0c-0.85317993 0 -1.5447998 -0.6916199 -1.5447998 -1.5447693z" fill-rule="evenodd"/><path stroke="#e03875" stroke-width="1.0" stroke-miterlimit="400.0" stroke-linecap="butt" d="m274.87888 227.57904l0 0c0 -0.8531647 0.6916199 -1.5447845 1.5447998 -1.5447845l52.518402 0c0.4096985 0 0.8026428 0.16275024 1.0923462 0.4524536c0.28970337 0.28970337 0.4524536 0.68263245 0.4524536 1.0923309l0 52.518433c0 0.8531494 -0.6916199 1.5447693 -1.5447998 1.5447693l-52.518402 0c-0.85317993 0 -1.5447998 -0.6916199 -1.5447998 -1.5447693z" fill-rule="evenodd"/><path fill="#e03875" d="m316.2532 270.38828l0 0c0 -2.2454834 1.8203125 -4.0658264 4.0658264 -4.0658264l0 0c1.0783081 0 2.1124878 0.42837524 2.8749695 1.1908569c0.7624817 0.7624817 1.1908569 1.7966614 1.1908569 2.8749695l0 0c0 2.2454834 -1.820343 4.0658264 -4.0658264 4.0658264l0 0c-2.245514 0 -4.0658264 -1.820343 -4.0658264 -4.0658264z" fill-rule="evenodd"/><path fill="#ffffff" d="m600.5474 399.93634l0 0c0 -1.5078735 1.2223511 -2.7302246 2.7302246 -2.7302246l81.878174 0c0.72406006 0 1.4185181 0.2876587 1.930542 0.7996521c0.5119629 0.5120239 0.7996216 1.2064514 0.7996216 1.9305725l0 81.878174c0 1.507843 -1.2223511 2.730194 -2.7301636 2.730194l-81.878174 0l0 0c-1.5078735 0 -2.7302246 -1.2223511 -2.7302246 -2.730194z" fill-rule="evenodd"/><path stroke="#e03875" stroke-width="1.0" stroke-linejoin="round" stroke-linecap="butt" d="m600.5474 399.93634l0 0c0 -1.5078735 1.2223511 -2.7302246 2.7302246 -2.7302246l81.878174 0c0.72406006 0 1.4185181 0.2876587 1.930542 0.7996521c0.5119629 0.5120239 0.7996216 1.2064514 0.7996216 1.9305725l0 81.878174c0 1.507843 -1.2223511 2.730194 -2.7301636 2.730194l-81.878174 0l0 0c-1.5078735 0 -2.7302246 -1.2223511 -2.7302246 -2.730194z" fill-rule="evenodd"/><path fill="#000000" fill-opacity="0.0" d="m196.04214 439.84106l109.19687 0" fill-rule="evenodd"/><path stroke="#e03875" stroke-width="2.0" stroke-miterlimit="400.0" stroke-linecap="butt" d="m196.04214 439.84106l109.19687 0" fill-rule="evenodd"/><path fill="#000000" fill-opacity="0.0" d="m513.70917 55.681847l131.77435 0l0 170.33939" fill-rule="evenodd"/><path stroke="#dc477d" stroke-width="1.0" stroke-linejoin="round" stroke-linecap="butt" stroke-dasharray="4.0,3.0" d="m513.70917 55.681847l131.77435 0l0 170.33939" fill-rule="evenodd"/><path fill="#000000" fill-opacity="0.0" d="m433.14478 55.681847l-126.60022 0l0 170.33939" fill-rule="evenodd"/><path stroke="#dc477d" stroke-width="1.0" stroke-linejoin="round" stroke-linecap="butt" stroke-dasharray="4.0,3.0" d="m433.14478 55.681847l-126.60022 0l0 170.33939" fill-rule="evenodd"/><path fill="#ffffff" d="m267.64902 108.7165l0 0c0 -0.5002594 0.4055481 -0.90579987 0.90579224 -0.90579987l68.141174 0c0.24023438 0 0.47061157 0.09542847 0.6404724 0.26530457c0.16989136 0.16986847 0.26531982 0.40026093 0.26531982 0.6404953l0 27.164772c0 0.5002594 -0.4055481 0.9058075 -0.90579224 0.9058075l-68.141174 0c-0.50024414 0 -0.90579224 -0.4055481 -0.90579224 -0.9058075z" fill-rule="evenodd"/><path stroke="#e03875" stroke-width="1.0" stroke-linejoin="round" stroke-linecap="butt" d="m267.64902 108.7165l0 0c0 -0.5002594 0.4055481 -0.90579987 0.90579224 -0.90579987l68.141174 0c0.24023438 0 0.47061157 0.09542847 0.6404724 0.26530457c0.16989136 0.16986847 0.26531982 0.40026093 0.26531982 0.6404953l0 27.164772c0 0.5002594 -0.4055481 0.9058075 -0.90579224 0.9058075l-68.141174 0c-0.50024414 0 -0.90579224 -0.4055481 -0.90579224 -0.9058075z" fill-rule="evenodd"/><path fill="#ffffff" d="m258.996 399.93634l0 0c0 -1.5078735 1.2223511 -2.7302246 2.730194 -2.7302246l81.878174 0c0.7241211 0 1.4185486 0.2876587 1.9305725 0.7996521c0.5119934 0.5120239 0.7996521 1.2064514 0.7996521 1.9305725l0 81.878174c0 1.507843 -1.2223511 2.730194 -2.7302246 2.730194l-81.878174 0l0 0c-1.507843 0 -2.730194 -1.2223511 -2.730194 -2.730194z" fill-rule="evenodd"/><path stroke="#e03875" stroke-width="1.0" stroke-linejoin="round" stroke-linecap="butt" d="m258.996 399.93634l0 0c0 -1.5078735 1.2223511 -2.7302246 2.730194 -2.7302246l81.878174 0c0.7241211 0 1.4185486 0.2876587 1.9305725 0.7996521c0.5119934 0.5120239 0.7996521 1.2064514 0.7996521 1.9305725l0 81.878174c0 1.507843 -1.2223511 2.730194 -2.7302246 2.730194l-81.878174 0l0 0c-1.507843 0 -2.730194 -1.2223511 -2.730194 -2.730194z" fill-rule="evenodd"/><path fill="#e03875" d="m467.77164 440.0949l0 0c0 -14.489868 11.746338 -26.236206 26.236206 -26.236206l0.03149414 0l0 0c6.9582825 0 13.631561 2.7641602 18.551788 7.6844177c4.920288 4.920227 7.6844482 11.593506 7.6844482 18.551788l0 0l0 0c0 14.489868 -11.746368 26.236237 -26.236237 26.236237l-0.03149414 0l0 0c-14.489868 0 -26.236206 -11.746368 -26.236206 -26.236237z" fill-rule="evenodd"/><path stroke="#ffffff" stroke-width="3.0" stroke-miterlimit="400.0" stroke-linecap="butt" stroke-opacity="0.4784" d="m467.77164 440.0949l0 0c0 -14.489868 11.746338 -26.236206 26.236206 -26.236206l0.03149414 0l0 0c6.9582825 0 13.631561 2.7641602 18.551788 7.6844177c4.920288 4.920227 7.6844482 11.593506 7.6844482 18.551788l0 0l0 0c0 14.489868 -11.746368 26.236237 -26.236237 26.236237l-0.03149414 0l0 0c-14.489868 0 -26.236206 -11.746368 -26.236206 -26.236237z" fill-rule="evenodd"/><path fill="#000000" fill-opacity="0.0" d="m418.5614 96.050224l109.7323 0l0 48.472435l-109.7323 0z" fill-rule="evenodd"/><path fill="#dc477d" d="m452.64044 107.8046q1.453125 0 2.484375 0.828125q1.03125 0.8125 1.203125 2.25l-1.8125 0q-0.125 -0.671875 -0.671875 -1.078125q-0.546875 -0.421875 -1.203125 -0.421875q-1.109375 0 -1.71875 0.8125q-0.609375 0.796875 -0.609375 2.125q0 1.265625 0.59375 2.0625q0.609375 0.796875 1.734375 0.796875q0.8125 0 1.3125 -0.5q0.515625 -0.5 0.625 -1.40625l1.828125 0q-0.15625 1.625 -1.1875 2.5625q-1.015625 0.9375 -2.578125 0.9375q-1.234375 0 -2.203125 -0.5625q-0.96875 -0.5625 -1.5 -1.59375q-0.515625 -1.03125 -0.515625 -2.296875q0 -1.96875 1.15625 -3.234375q1.15625 -1.28125 3.0625 -1.28125zm8.894531 0q1.90625 0 3.0625 1.28125q1.15625 1.265625 1.15625 3.234375q0 1.921875 -1.171875 3.1875q-1.15625 1.265625 -3.046875 1.265625q-1.234375 0 -2.203125 -0.5625q-0.96875 -0.578125 -1.5 -1.59375q-0.515625 -1.03125 -0.515625 -2.296875q0 -1.984375 1.15625 -3.25q1.15625 -1.265625 3.0625 -1.265625zm-2.328125 4.515625q0 1.265625 0.59375 2.0625q0.609375 0.796875 1.734375 0.796875q1.109375 0 1.71875 -0.78125q0.609375 -0.78125 0.609375 -2.078125q0 -1.359375 -0.625 -2.140625q-0.609375 -0.796875 -1.71875 -0.796875q-1.09375 0 -1.703125 0.8125q-0.609375 0.796875 -0.609375 2.125zm9.693359 -4.3125l3.578125 5.75l0.015625 0l0 -5.75l1.765625 0l0 8.5625l-1.875 0l-3.578125 -5.734375l-0.015625 0l0 5.734375l-1.765625 0l0 -8.5625l1.875 0zm9.972656 -0.203125q1.546875 0 2.484375 0.71875q0.9375 0.71875 0.9375 2.03125l-1.8125 0q-0.046875 -0.640625 -0.453125 -0.96875q-0.390625 -0.328125 -1.234375 -0.328125q-0.578125 0 -0.953125 0.265625q-0.359375 0.25 -0.359375 0.71875q0 0.3125 0.15625 0.46875q0.15625 0.15625 0.625 0.34375q0.46875 0.171875 2.0625 0.546875q1.0625 0.25 1.65625 0.875q0.609375 0.609375 0.609375 1.546875q0 1.25 -0.9375 2.0q-0.9375 0.75 -2.625 0.75q-1.609375 0 -2.640625 -0.796875q-1.015625 -0.796875 -1.015625 -2.203125l0 -0.046875l1.828125 0q0 0.796875 0.515625 1.1875q0.53125 0.390625 1.375 0.390625q0.765625 0 1.21875 -0.265625q0.453125 -0.28125 0.453125 -0.796875q0 -0.421875 -0.359375 -0.6875q-0.34375 -0.265625 -1.109375 -0.453125q-0.984375 -0.21875 -1.78125 -0.46875q-0.796875 -0.25 -1.328125 -0.8125q-0.53125 -0.5625 -0.53125 -1.4375q0 -1.15625 0.921875 -1.859375q0.9375 -0.71875 2.296875 -0.71875zm6.6777344 0.203125l0 5.375q0 0.921875 0.421875 1.359375q0.4375 0.4375 1.34375 0.4375q0.984375 0 1.375 -0.421875q0.40625 -0.4375 0.40625 -1.375l0 -5.375l1.875 0l0 5.375q0 1.59375 -0.9375 2.5q-0.921875 0.890625 -2.71875 0.890625q-1.8125 0 -2.734375 -0.875q-0.90625 -0.890625 -0.90625 -2.515625l0 -5.375l1.875 0zm8.941406 0l0 6.984375l4.171875 0l0 1.578125l-6.0625 0l0 -8.5625l1.890625 0z" fill-rule="nonzero"/><path fill="#dc477d" d="m453.09454 122.204605q1.546875 0 2.484375 0.71875q0.9375 0.71875 0.9375 2.03125l-1.8125 0q-0.046875 -0.640625 -0.453125 -0.96875q-0.390625 -0.328125 -1.234375 -0.328125q-0.578125 0 -0.953125 0.265625q-0.359375 0.25 -0.359375 0.71875q0 0.3125 0.15625 0.46875q0.15625 0.15625 0.625 0.34375q0.46875 0.171875 2.0625 0.546875q1.0625 0.25 1.65625 0.875q0.609375 0.609375 0.609375 1.546875q0 1.25 -0.9375 2.0q-0.9375 0.75 -2.625 0.75q-1.609375 0 -2.640625 -0.796875q-1.015625 -0.796875 -1.015625 -2.203125l0 -0.046875l1.828125 0q0 0.796875 0.515625 1.1875q0.53125 0.390625 1.375 0.390625q0.765625 0 1.21875 -0.265625q0.453125 -0.28125 0.453125 -0.796875q0 -0.421875 -0.359375 -0.6875q-0.34375 -0.265625 -1.109375 -0.453125q-0.984375 -0.21875 -1.78125 -0.46875q-0.796875 -0.25 -1.328125 -0.8125q-0.53125 -0.5625 -0.53125 -1.4375q0 -1.15625 0.921875 -1.859375q0.9375 -0.71875 2.296875 -0.71875zm11.240234 0.203125l0 1.578125l-4.515625 0l0 1.828125l4.140625 0l0 1.46875l-4.140625 0l0 2.109375l4.609375 0l0 1.578125l-6.5 0l0 -8.5625l6.40625 0zm6.0410156 0q1.03125 0 1.734375 0.671875q0.71875 0.65625 0.71875 1.6875q0 0.8125 -0.34375 1.34375q-0.328125 0.53125 -1.015625 0.796875l0 0.03125q0.609375 0.15625 0.921875 0.71875q0.328125 0.5625 0.359375 1.71875q0.03125 1.171875 0.328125 1.59375l-1.875 0q-0.171875 -0.421875 -0.234375 -1.34375q-0.078125 -1.265625 -0.421875 -1.625q-0.328125 -0.375 -1.03125 -0.375l-1.921875 0l0 3.34375l-1.890625 0l0 -8.5625l4.671875 0zm-0.6875 3.875q0.59375 0 0.921875 -0.28125q0.34375 -0.296875 0.34375 -0.953125q0 -0.609375 -0.328125 -0.890625q-0.3125 -0.296875 -0.9375 -0.296875l-2.09375 0l0 2.421875l2.09375 0zm5.6972656 -3.875l1.90625 6.015625l0.03125 0l1.9375 -6.015625l1.9375 0l-2.84375 8.5625l-2.125 0l-2.78125 -8.5625l1.9375 0zm12.949219 0l0 1.578125l-4.515625 0l0 1.828125l4.140625 0l0 1.46875l-4.140625 0l0 2.109375l4.609375 0l0 1.578125l-6.5 0l0 -8.5625l6.40625 0zm6.0410156 0q1.03125 0 1.734375 0.671875q0.71875 0.65625 0.71875 1.6875q0 0.8125 -0.34375 1.34375q-0.328125 0.53125 -1.015625 0.796875l0 0.03125q0.609375 0.15625 0.921875 0.71875q0.328125 0.5625 0.359375 1.71875q0.03125 1.171875 0.328125 1.59375l-1.875 0q-0.171875 -0.421875 -0.234375 -1.34375q-0.078125 -1.265625 -0.421875 -1.625q-0.328125 -0.375 -1.03125 -0.375l-1.921875 0l0 3.34375l-1.890625 0l0 -8.5625l4.671875 0zm-0.6875 3.875q0.59375 0 0.921875 -0.28125q0.34375 -0.296875 0.34375 -0.953125q0 -0.609375 -0.328125 -0.890625q-0.3125 -0.296875 -0.9375 -0.296875l-2.09375 0l0 2.421875l2.09375 0z" fill-rule="nonzero"/><path fill="#ffffff" d="m609.2518 108.7165l0 0c0 -0.5002594 0.40551758 -0.90579987 0.9057617 -0.90579987l68.141174 0c0.24023438 0 0.4706421 0.09542847 0.6405029 0.26530457c0.16986084 0.16986847 0.26531982 0.40026093 0.26531982 0.6404953l0 27.164772c0 0.5002594 -0.4055786 0.9058075 -0.90582275 0.9058075l-68.141174 0c-0.50024414 0 -0.9057617 -0.4055481 -0.9057617 -0.9058075z" fill-rule="evenodd"/><path stroke="#e03875" stroke-width="1.0" stroke-linejoin="round" stroke-linecap="butt" d="m609.2518 108.7165l0 0c0 -0.5002594 0.40551758 -0.90579987 0.9057617 -0.90579987l68.141174 0c0.24023438 0 0.4706421 0.09542847 0.6405029 0.26530457c0.16986084 0.16986847 0.26531982 0.40026093 0.26531982 0.6404953l0 27.164772c0 0.5002594 -0.4055786 0.9058075 -0.90582275 0.9058075l-68.141174 0c-0.50024414 0 -0.9057617 -0.4055481 -0.9057617 -0.9058075z" fill-rule="evenodd"/><path fill="#000000" fill-opacity="0.0" d="m679.20544 96.05214l152.0315 0l0 33.921265l-152.0315 0z" fill-rule="evenodd"/><path fill="#4e515d" d="m721.28076 108.009636l0 8.5625l-1.890625 0l0 -8.5625l1.890625 0zm3.5234375 0l3.578125 5.75l0.015625 0l0 -5.75l1.765625 0l0 8.5625l-1.875 0l-3.578125 -5.734375l-0.015625 0l0 5.734375l-1.765625 0l0 -8.5625l1.875 0zm13.363281 0l0 1.578125l-2.5625 0l0 6.984375l-1.890625 0l0 -6.984375l-2.5625 0l0 -1.578125l7.015625 0zm7.392578 0l0 1.578125l-4.515625 0l0 1.828125l4.140625 0l0 1.46875l-4.140625 0l0 2.109375l4.609375 0l0 1.578125l-6.5 0l0 -8.5625l6.40625 0zm3.2441406 0l3.578125 5.75l0.015625 0l0 -5.75l1.765625 0l0 8.5625l-1.875 0l-3.578125 -5.734375l-0.015625 0l0 5.734375l-1.765625 0l0 -8.5625l1.875 0zm13.363281 0l0 1.578125l-2.5625 0l0 6.984375l-1.890625 0l0 -6.984375l-2.5625 0l0 -1.578125l7.015625 0zm2.8769531 0l0 8.5625l-1.890625 0l0 -8.5625l1.890625 0zm5.4921875 -0.203125q1.90625 0 3.0625 1.28125q1.15625 1.265625 1.15625 3.234375q0 1.921875 -1.171875 3.1875q-1.15625 1.265625 -3.046875 1.265625q-1.234375 0 -2.203125 -0.5625q-0.96875 -0.578125 -1.5 -1.59375q-0.515625 -1.03125 -0.515625 -2.296875q0 -1.984375 1.15625 -3.25q1.15625 -1.265625 3.0625 -1.265625zm-2.328125 4.515625q0 1.265625 0.59375 2.0625q0.609375 0.796875 1.734375 0.796875q1.109375 0 1.71875 -0.78125q0.609375 -0.78125 0.609375 -2.078125q0 -1.359375 -0.625 -2.140625q-0.609375 -0.796875 -1.71875 -0.796875q-1.09375 0 -1.703125 0.8125q-0.609375 0.796875 -0.609375 2.125zm9.693359 -4.3125l3.578125 5.75l0.015625 0l0 -5.75l1.765625 0l0 8.5625l-1.875 0l-3.578125 -5.734375l-0.015625 0l0 5.734375l-1.765625 0l0 -8.5625l1.875 0zm9.972656 -0.203125q1.546875 0 2.484375 0.71875q0.9375 0.71875 0.9375 2.03125l-1.8125 0q-0.046875 -0.640625 -0.453125 -0.96875q-0.390625 -0.328125 -1.234375 -0.328125q-0.578125 0 -0.953125 0.265625q-0.359375 0.25 -0.359375 0.71875q0 0.3125 0.15625 0.46875q0.15625 0.15625 0.625 0.34375q0.46875 0.171875 2.0625 0.546875q1.0625 0.25 1.65625 0.875q0.609375 0.609375 0.609375 1.546875q0 1.25 -0.9375 2.0q-0.9375 0.75 -2.625 0.75q-1.609375 0 -2.640625 -0.796875q-1.015625 -0.796875 -1.015625 -2.203125l0 -0.046875l1.828125 0q0 0.796875 0.515625 1.1875q0.53125 0.390625 1.375 0.390625q0.765625 0 1.21875 -0.265625q0.453125 -0.28125 0.453125 -0.796875q0 -0.421875 -0.359375 -0.6875q-0.34375 -0.265625 -1.109375 -0.453125q-0.984375 -0.21875 -1.78125 -0.46875q-0.796875 -0.25 -1.328125 -0.8125q-0.53125 -0.5625 -0.53125 -1.4375q0 -1.15625 0.921875 -1.859375q0.9375 -0.71875 2.296875 -0.71875z" fill-rule="nonzero"/><path fill="#000000" fill-opacity="0.0" d="m115.614136 96.05214l152.0315 0l0 33.921265l-152.0315 0z" fill-rule="evenodd"/><path fill="#4e515d" d="m157.68945 108.009636l0 8.5625l-1.890625 0l0 -8.5625l1.890625 0zm3.5234375 0l3.578125 5.75l0.015625 0l0 -5.75l1.765625 0l0 8.5625l-1.875 0l-3.578125 -5.734375l-0.015625 0l0 5.734375l-1.765625 0l0 -8.5625l1.875 0zm13.363281 0l0 1.578125l-2.5625 0l0 6.984375l-1.890625 0l0 -6.984375l-2.5625 0l0 -1.578125l7.015625 0zm7.392578 0l0 1.578125l-4.515625 0l0 1.828125l4.140625 0l0 1.46875l-4.140625 0l0 2.109375l4.609375 0l0 1.578125l-6.5 0l0 -8.5625l6.40625 0zm3.2441406 0l3.578125 5.75l0.015625 0l0 -5.75l1.765625 0l0 8.5625l-1.875 0l-3.578125 -5.734375l-0.015625 0l0 5.734375l-1.765625 0l0 -8.5625l1.875 0zm13.363281 0l0 1.578125l-2.5625 0l0 6.984375l-1.890625 0l0 -6.984375l-2.5625 0l0 -1.578125l7.015625 0zm2.8769531 0l0 8.5625l-1.890625 0l0 -8.5625l1.890625 0zm5.4921875 -0.203125q1.90625 0 3.0625 1.28125q1.15625 1.265625 1.15625 3.234375q0 1.921875 -1.171875 3.1875q-1.15625 1.265625 -3.046875 1.265625q-1.234375 0 -2.203125 -0.5625q-0.96875 -0.578125 -1.5 -1.59375q-0.515625 -1.03125 -0.515625 -2.296875q0 -1.984375 1.15625 -3.25q1.15625 -1.265625 3.0625 -1.265625zm-2.328125 4.515625q0 1.265625 0.59375 2.0625q0.609375 0.796875 1.734375 0.796875q1.109375 0 1.71875 -0.78125q0.609375 -0.78125 0.609375 -2.078125q0 -1.359375 -0.625 -2.140625q-0.609375 -0.796875 -1.71875 -0.796875q-1.09375 0 -1.703125 0.8125q-0.609375 0.796875 -0.609375 2.125zm9.693359 -4.3125l3.578125 5.75l0.015625 0l0 -5.75l1.765625 0l0 8.5625l-1.875 0l-3.578125 -5.734375l-0.015625 0l0 5.734375l-1.765625 0l0 -8.5625l1.875 0zm9.972656 -0.203125q1.546875 0 2.484375 0.71875q0.9375 0.71875 0.9375 2.03125l-1.8125 0q-0.046875 -0.640625 -0.453125 -0.96875q-0.390625 -0.328125 -1.234375 -0.328125q-0.578125 0 -0.953125 0.265625q-0.359375 0.25 -0.359375 0.71875q0 0.3125 0.15625 0.46875q0.15625 0.15625 0.625 0.34375q0.46875 0.171875 2.0625 0.546875q1.0625 0.25 1.65625 0.875q0.609375 0.609375 0.609375 1.546875q0 1.25 -0.9375 2.0q-0.9375 0.75 -2.625 0.75q-1.609375 0 -2.640625 -0.796875q-1.015625 -0.796875 -1.015625 -2.203125l0 -0.046875l1.828125 0q0 0.796875 0.515625 1.1875q0.53125 0.390625 1.375 0.390625q0.765625 0 1.21875 -0.265625q0.453125 -0.28125 0.453125 -0.796875q0 -0.421875 -0.359375 -0.6875q-0.34375 -0.265625 -1.109375 -0.453125q-0.984375 -0.21875 -1.78125 -0.46875q-0.796875 -0.25 -1.328125 -0.8125q-0.53125 -0.5625 -0.53125 -1.4375q0 -1.15625 0.921875 -1.859375q0.9375 -0.71875 2.296875 -0.71875z" fill-rule="nonzero"/><path fill="#e03875" d="m284.86566 132.15189c-0.45013428 0 -0.830719 -0.3683777 -0.830719 -0.8315735c0 -0.4631958 0.36831665 -0.8315735 0.830719 -0.8315735l27.80191 0c0.45013428 0 0.8306885 0.3683777 0.8306885 0.8315735c0 0.4631958 -0.36828613 0.8315735 -0.8306885 0.8315735l-27.80191 0zm0 -9.015984c-0.45013428 0 -0.830719 -0.3683777 -0.830719 -0.8315735c0 -0.46320343 0.36831665 -0.8315735 0.830719 -0.8315735l27.80191 0c0.45013428 0 0.8306885 0.36837006 0.8306885 0.8315735c0 0.4631958 -0.36828613 0.8315735 -0.8306885 0.8315735l-27.80191 0zm0 -9.015991c-0.45013428 0 -0.830719 -0.36837006 -0.830719 -0.8315735c0 -0.4631958 0.36831665 -0.83156586 0.830719 -0.83156586l27.80191 0c0.45013428 0 0.8306885 0.36837006 0.8306885 0.83156586c0 0.46320343 -0.36828613 0.8315735 -0.8306885 0.8315735l-27.80191 0z" fill-rule="evenodd"/><path fill="#e03875" d="m621.7489 132.15189c-0.45013428 0 -0.8306885 -0.3683777 -0.8306885 -0.8315735c0 -0.4631958 0.36828613 -0.8315735 0.8306885 -0.8315735l27.80188 0c0.45013428 0 0.8307495 0.3683777 0.8307495 0.8315735c0 0.4631958 -0.36828613 0.8315735 -0.8307495 0.8315735l-27.80188 0zm0 -9.015984c-0.45013428 0 -0.8306885 -0.3683777 -0.8306885 -0.8315735c0 -0.46320343 0.36828613 -0.8315735 0.8306885 -0.8315735l27.80188 0c0.45013428 0 0.8307495 0.36837006 0.8307495 0.8315735c0 0.4631958 -0.36828613 0.8315735 -0.8307495 0.8315735l-27.80188 0zm0 -9.015991c-0.45013428 0 -0.8306885 -0.36837006 -0.8306885 -0.8315735c0 -0.4631958 0.36828613 -0.83156586 0.8306885 -0.83156586l27.80188 0c0.45013428 0 0.8307495 0.36837006 0.8307495 0.83156586c0 0.46320343 -0.36828613 0.8315735 -0.8307495 0.8315735l-27.80188 0z" fill-rule="evenodd"/><path fill="#dc477d" d="m655.15924 116.386604l0 0c0 -0.7538376 0.611084 -1.3649368 1.3649292 -1.3649368l30.026062 0c0.3619995 0 0.7091675 0.14379883 0.9651489 0.39978027c0.25598145 0.25597382 0.39978027 0.6031494 0.39978027 0.96515656l0 30.026024c0 0.75382996 -0.611145 1.3649445 -1.3649292 1.3649445l-30.026062 0c-0.7538452 0 -1.3649292 -0.6111145 -1.3649292 -1.3649445z" fill-rule="evenodd"/><path fill="#dc477d" d="m318.7889 116.386604l0 0c0 -0.7538376 0.611084 -1.3649368 1.3649292 -1.3649368l30.026031 0c0.3619995 0 0.7091675 0.14379883 0.9651489 0.39978027c0.25598145 0.25597382 0.39978027 0.6031494 0.39978027 0.96515656l0 30.026024c0 0.75382996 -0.611084 1.3649445 -1.3649292 1.3649445l-30.026031 0c-0.7538452 0 -1.3649292 -0.6111145 -1.3649292 -1.3649445z" fill-rule="evenodd"/><path fill="#000000" fill-opacity="0.0" d="m247.8098 281.62433l109.732285 0l0 32.314972l-109.732285 0z" fill-rule="evenodd"/><path fill="#dc477d" d="m263.39285 293.06747q1.296875 0 2.203125 0.734375q0.921875 0.734375 1.078125 2.015625l-1.609375 0q-0.109375 -0.609375 -0.59375 -0.96875q-0.484375 -0.375 -1.078125 -0.375q-0.984375 0 -1.53125 0.71875q-0.53125 0.71875 -0.53125 1.90625q0 1.125 0.53125 1.828125q0.546875 0.703125 1.53125 0.703125q0.734375 0 1.171875 -0.4375q0.453125 -0.453125 0.5625 -1.25l1.625 0q-0.15625 1.4375 -1.0625 2.28125q-0.90625 0.828125 -2.296875 0.828125q-1.09375 0 -1.953125 -0.5q-0.84375 -0.515625 -1.3125 -1.421875q-0.46875 -0.921875 -0.46875 -2.03125q0 -1.765625 1.015625 -2.890625q1.03125 -1.140625 2.71875 -1.140625zm7.898529 0q1.703125 0 2.71875 1.140625q1.03125 1.140625 1.03125 2.890625q0 1.6875 -1.03125 2.828125q-1.03125 1.125 -2.71875 1.125q-1.09375 0 -1.953125 -0.5q-0.84375 -0.515625 -1.3125 -1.421875q-0.46875 -0.921875 -0.46875 -2.03125q0 -1.765625 1.03125 -2.890625q1.03125 -1.140625 2.703125 -1.140625zm-2.0625 4.03125q0 1.109375 0.53125 1.828125q0.546875 0.703125 1.53125 0.703125q0.984375 0 1.53125 -0.6875q0.546875 -0.703125 0.546875 -1.84375q0 -1.203125 -0.5625 -1.90625q-0.546875 -0.71875 -1.515625 -0.71875q-0.984375 0 -1.53125 0.71875q-0.53125 0.71875 -0.53125 1.90625zm8.616913 -3.84375l3.171875 5.109375l0.015625 0l0 -5.109375l1.5625 0l0 7.609375l-1.671875 0l-3.15625 -5.09375l-0.03125 0l0 5.09375l-1.5625 0l0 -7.609375l1.671875 0zm8.851654 -0.1875q1.375 0 2.203125 0.640625q0.84375 0.640625 0.84375 1.8125l-1.625 0q-0.03125 -0.5625 -0.390625 -0.84375q-0.359375 -0.296875 -1.109375 -0.296875q-0.5 0 -0.828125 0.21875q-0.328125 0.21875 -0.328125 0.640625q0 0.28125 0.140625 0.421875q0.140625 0.140625 0.546875 0.296875q0.421875 0.15625 1.828125 0.484375q0.953125 0.234375 1.484375 0.78125q0.53125 0.546875 0.53125 1.375q0 1.109375 -0.828125 1.78125q-0.828125 0.671875 -2.328125 0.671875q-1.4375 0 -2.34375 -0.703125q-0.90625 -0.71875 -0.90625 -1.96875l0 -0.046875l1.625 0q0 0.71875 0.453125 1.0625q0.46875 0.34375 1.21875 0.34375q0.6875 0 1.078125 -0.234375q0.40625 -0.25 0.40625 -0.703125q0 -0.375 -0.3125 -0.609375q-0.296875 -0.234375 -0.984375 -0.40625q-0.875 -0.203125 -1.59375 -0.421875q-0.703125 -0.21875 -1.171875 -0.71875q-0.46875 -0.5 -0.46875 -1.265625q0 -1.03125 0.8125 -1.671875q0.828125 -0.640625 2.046875 -0.640625zm5.930725 0.1875l0 4.78125q0 0.8125 0.375 1.203125q0.375 0.390625 1.1875 0.390625q0.875 0 1.21875 -0.375q0.359375 -0.390625 0.359375 -1.21875l0 -4.78125l1.671875 0l0 4.78125q0 1.421875 -0.828125 2.21875q-0.8125 0.796875 -2.421875 0.796875q-1.59375 0 -2.421875 -0.78125q-0.8125 -0.796875 -0.8125 -2.234375l0 -4.78125l1.671875 0zm7.929779 0l0 6.203125l3.71875 0l0 1.40625l-5.390625 0l0 -7.609375l1.671875 0zm11.01178 -0.1875q1.296875 0 2.203125 0.734375q0.921875 0.734375 1.078125 2.015625l-1.609375 0q-0.109375 -0.609375 -0.59375 -0.96875q-0.484375 -0.375 -1.078125 -0.375q-0.984375 0 -1.53125 0.71875q-0.53125 0.71875 -0.53125 1.90625q0 1.125 0.53125 1.828125q0.546875 0.703125 1.53125 0.703125q0.734375 0 1.171875 -0.4375q0.453125 -0.453125 0.5625 -1.25l1.625 0q-0.15625 1.4375 -1.0625 2.28125q-0.90625 0.828125 -2.296875 0.828125q-1.09375 0 -1.953125 -0.5q-0.84375 -0.515625 -1.3125 -1.421875q-0.46875 -0.921875 -0.46875 -2.03125q0 -1.765625 1.015625 -2.890625q1.03125 -1.140625 2.71875 -1.140625zm6.164154 0.1875l0 6.203125l3.71875 0l0 1.40625l-5.390625 0l0 -7.609375l1.671875 0zm6.316742 0l0 7.609375l-1.671875 0l0 -7.609375l1.671875 0zm7.158386 0l0 1.40625l-4.015625 0l0 1.625l3.6875 0l0 1.3125l-3.6875 0l0 1.859375l4.109375 0l0 1.40625l-5.78125 0l0 -7.609375l5.6875 0zm2.8890686 0l3.171875 5.109375l0.015625 0l0 -5.109375l1.5625 0l0 7.609375l-1.671875 0l-3.15625 -5.09375l-0.03125 0l0 5.09375l-1.5625 0l0 -7.609375l1.671875 0zm11.867279 0l0 1.40625l-2.28125 0l0 6.203125l-1.671875 0l0 -6.203125l-2.28125 0l0 -1.40625l6.234375 0z" fill-rule="nonzero"/><path fill="#000000" fill-opacity="0.0" d="m589.3628 281.62433l109.73224 0l0 32.314972l-109.73224 0z" fill-rule="evenodd"/><path fill="#dc477d" d="m604.94586 293.06747q1.296875 0 2.203125 0.734375q0.921875 0.734375 1.078125 2.015625l-1.609375 0q-0.109375 -0.609375 -0.59375 -0.96875q-0.484375 -0.375 -1.078125 -0.375q-0.984375 0 -1.53125 0.71875q-0.53125 0.71875 -0.53125 1.90625q0 1.125 0.53125 1.828125q0.546875 0.703125 1.53125 0.703125q0.734375 0 1.171875 -0.4375q0.453125 -0.453125 0.5625 -1.25l1.625 0q-0.15625 1.4375 -1.0625 2.28125q-0.90625 0.828125 -2.296875 0.828125q-1.09375 0 -1.953125 -0.5q-0.84375 -0.515625 -1.3125 -1.421875q-0.46875 -0.921875 -0.46875 -2.03125q0 -1.765625 1.015625 -2.890625q1.03125 -1.140625 2.71875 -1.140625zm7.8984985 0q1.703125 0 2.71875 1.140625q1.03125 1.140625 1.03125 2.890625q0 1.6875 -1.03125 2.828125q-1.03125 1.125 -2.71875 1.125q-1.09375 0 -1.953125 -0.5q-0.84375 -0.515625 -1.3125 -1.421875q-0.46875 -0.921875 -0.46875 -2.03125q0 -1.765625 1.03125 -2.890625q1.03125 -1.140625 2.703125 -1.140625zm-2.0625 4.03125q0 1.109375 0.53125 1.828125q0.546875 0.703125 1.53125 0.703125q0.984375 0 1.53125 -0.6875q0.546875 -0.703125 0.546875 -1.84375q0 -1.203125 -0.5625 -1.90625q-0.546875 -0.71875 -1.515625 -0.71875q-0.984375 0 -1.53125 0.71875q-0.53125 0.71875 -0.53125 1.90625zm8.616882 -3.84375l3.171875 5.109375l0.015625 0l0 -5.109375l1.5625 0l0 7.609375l-1.671875 0l-3.15625 -5.09375l-0.03125 0l0 5.09375l-1.5625 0l0 -7.609375l1.671875 0zm8.851685 -0.1875q1.375 0 2.203125 0.640625q0.84375 0.640625 0.84375 1.8125l-1.625 0q-0.03125 -0.5625 -0.390625 -0.84375q-0.359375 -0.296875 -1.109375 -0.296875q-0.5 0 -0.828125 0.21875q-0.328125 0.21875 -0.328125 0.640625q0 0.28125 0.140625 0.421875q0.140625 0.140625 0.546875 0.296875q0.421875 0.15625 1.828125 0.484375q0.953125 0.234375 1.484375 0.78125q0.53125 0.546875 0.53125 1.375q0 1.109375 -0.828125 1.78125q-0.828125 0.671875 -2.328125 0.671875q-1.4375 0 -2.34375 -0.703125q-0.90625 -0.71875 -0.90625 -1.96875l0 -0.046875l1.625 0q0 0.71875 0.453125 1.0625q0.46875 0.34375 1.21875 0.34375q0.6875 0 1.078125 -0.234375q0.40625 -0.25 0.40625 -0.703125q0 -0.375 -0.3125 -0.609375q-0.296875 -0.234375 -0.984375 -0.40625q-0.875 -0.203125 -1.59375 -0.421875q-0.703125 -0.21875 -1.171875 -0.71875q-0.46875 -0.5 -0.46875 -1.265625q0 -1.03125 0.8125 -1.671875q0.828125 -0.640625 2.046875 -0.640625zm5.930725 0.1875l0 4.78125q0 0.8125 0.375 1.203125q0.375 0.390625 1.1875 0.390625q0.875 0 1.21875 -0.375q0.359375 -0.390625 0.359375 -1.21875l0 -4.78125l1.671875 0l0 4.78125q0 1.421875 -0.828125 2.21875q-0.8125 0.796875 -2.421875 0.796875q-1.59375 0 -2.421875 -0.78125q-0.8125 -0.796875 -0.8125 -2.234375l0 -4.78125l1.671875 0zm7.9298096 0l0 6.203125l3.71875 0l0 1.40625l-5.390625 0l0 -7.609375l1.671875 0zm11.011719 -0.1875q1.296875 0 2.203125 0.734375q0.921875 0.734375 1.078125 2.015625l-1.609375 0q-0.109375 -0.609375 -0.59375 -0.96875q-0.484375 -0.375 -1.078125 -0.375q-0.984375 0 -1.53125 0.71875q-0.53125 0.71875 -0.53125 1.90625q0 1.125 0.53125 1.828125q0.546875 0.703125 1.53125 0.703125q0.734375 0 1.171875 -0.4375q0.453125 -0.453125 0.5625 -1.25l1.625 0q-0.15625 1.4375 -1.0625 2.28125q-0.90625 0.828125 -2.296875 0.828125q-1.09375 0 -1.953125 -0.5q-0.84375 -0.515625 -1.3125 -1.421875q-0.46875 -0.921875 -0.46875 -2.03125q0 -1.765625 1.015625 -2.890625q1.03125 -1.140625 2.71875 -1.140625zm6.1641846 0.1875l0 6.203125l3.71875 0l0 1.40625l-5.390625 0l0 -7.609375l1.671875 0zm6.3167114 0l0 7.609375l-1.671875 0l0 -7.609375l1.671875 0zm7.158386 0l0 1.40625l-4.015625 0l0 1.625l3.6875 0l0 1.3125l-3.6875 0l0 1.859375l4.109375 0l0 1.40625l-5.78125 0l0 -7.609375l5.6875 0zm2.8890991 0l3.171875 5.109375l0.015625 0l0 -5.109375l1.5625 0l0 7.609375l-1.671875 0l-3.15625 -5.09375l-0.03125 0l0 5.09375l-1.5625 0l0 -7.609375l1.671875 0zm11.86731 0l0 1.40625l-2.28125 0l0 6.203125l-1.671875 0l0 -6.203125l-2.28125 0l0 -1.40625l6.234375 0z" fill-rule="nonzero"/><path fill="#000000" fill-opacity="0.0" d="m346.3346 440.87543l254.20471 0" fill-rule="evenodd"/><path stroke="#e03875" stroke-width="2.0" stroke-miterlimit="400.0" stroke-linecap="butt" d="m353.9146 440.8754l239.04468 0" fill-rule="evenodd"/><path stroke="#e03875" stroke-width="2.0" stroke-linecap="butt" d="m347.3346 440.8754c0 -1.8170166 1.472992 -3.289978 3.2900085 -3.289978c1.8170166 0 3.2900085 1.4729614 3.2900085 3.289978c0 1.8170166 -1.472992 3.2900085 -3.2900085 3.2900085c-1.8170166 0 -3.2900085 -1.472992 -3.2900085 -3.2900085z" fill-rule="nonzero"/><path stroke="#e03875" stroke-width="2.0" stroke-linecap="butt" d="m599.5393 440.8754c0 1.8170166 -1.4729614 3.2900085 -3.289978 3.2900085c-1.8170166 0 -3.289978 -1.472992 -3.289978 -3.2900085c0 -1.8170166 1.4729614 -3.289978 3.289978 -3.289978c1.8170166 0 3.289978 1.4729614 3.289978 3.289978z" fill-rule="nonzero"/><path fill="#000000" fill-opacity="0.0" d="m302.67673 335.96198l0 48.283478" fill-rule="evenodd"/><path stroke="#e03875" stroke-width="1.0" stroke-miterlimit="400.0" stroke-linecap="butt" d="m302.67673 335.96198l0 42.283478" fill-rule="evenodd"/><path fill="#e03875" stroke="#e03875" stroke-width="1.0" stroke-linecap="butt" d="m301.025 378.24545l1.6517334 4.538086l1.6517334 -4.538086z" fill-rule="evenodd"/><path fill="#000000" fill-opacity="0.0" d="m644.22974 335.96198l0 48.283478" fill-rule="evenodd"/><path stroke="#e03875" stroke-width="1.0" stroke-miterlimit="400.0" stroke-linecap="butt" d="m644.22974 335.96198l0 42.283478" fill-rule="evenodd"/><path fill="#e03875" stroke="#e03875" stroke-width="1.0" stroke-linecap="butt" d="m642.578 378.24545l1.6517334 4.538086l1.6517334 -4.538086z" fill-rule="evenodd"/><path fill="#000000" fill-opacity="0.0" d="m668.34393 428.5721l-48.283447 0" fill-rule="evenodd"/><path stroke="#e03875" stroke-width="1.0" stroke-miterlimit="400.0" stroke-linecap="butt" d="m668.34393 428.57214l-42.283447 0" fill-rule="evenodd"/><path fill="#e03875" stroke="#e03875" stroke-width="1.0" stroke-linecap="butt" d="m626.0605 426.9204l-4.538086 1.6517334l4.538086 1.6517334z" fill-rule="evenodd"/><path fill="#000000" fill-opacity="0.0" d="m620.0696 453.19925l48.283447 0" fill-rule="evenodd"/><path stroke="#e03875" stroke-width="1.0" stroke-miterlimit="400.0" stroke-linecap="butt" d="m620.0696 453.19928l42.28351 0" fill-rule="evenodd"/><path fill="#e03875" stroke="#e03875" stroke-width="1.0" stroke-linecap="butt" d="m662.3531 454.851l4.538086 -1.6517334l-4.538086 -1.6517334z" fill-rule="evenodd"/><path fill="#000000" fill-opacity="0.0" d="m243.89793 481.4816l109.732285 0l0 32.314972l-109.732285 0z" fill-rule="evenodd"/><path fill="#dc477d" d="m284.44116 493.1122q1.1875 0 1.875 0.671875q0.703125 0.671875 0.703125 1.765625q0 1.109375 -0.703125 1.78125q-0.6875 0.671875 -1.875 0.671875l-1.8125 0l0 2.71875l-1.671875 0l0 -7.609375l3.484375 0zm-0.46875 3.578125q0.71875 0 1.0625 -0.265625q0.359375 -0.265625 0.359375 -0.875q0 -0.578125 -0.34375 -0.859375q-0.328125 -0.28125 -1.0625 -0.28125l-1.359375 0l0 2.28125l1.34375 0zm8.2326355 -3.578125q0.921875 0 1.546875 0.59375q0.640625 0.59375 0.640625 1.515625q0 0.71875 -0.296875 1.1875q-0.296875 0.46875 -0.90625 0.71875l0 0.015625q0.53125 0.140625 0.8125 0.640625q0.296875 0.5 0.328125 1.53125q0.015625 1.03125 0.296875 1.40625l-1.6875 0q-0.140625 -0.375 -0.1875 -1.203125q-0.078125 -1.125 -0.390625 -1.4375q-0.296875 -0.328125 -0.90625 -0.328125l-1.71875 0l0 2.96875l-1.671875 0l0 -7.609375l4.140625 0zm-0.59375 3.4375q0.515625 0 0.8125 -0.25q0.296875 -0.25 0.296875 -0.828125q0 -0.546875 -0.28125 -0.796875q-0.28125 -0.265625 -0.828125 -0.265625l-1.875 0l0 2.140625l1.875 0zm7.554962 -3.625q1.703125 0 2.71875 1.140625q1.03125 1.140625 1.03125 2.890625q0 1.6875 -1.03125 2.828125q-1.03125 1.125 -2.71875 1.125q-1.09375 0 -1.953125 -0.5q-0.84375 -0.515625 -1.3125 -1.421875q-0.46875 -0.921875 -0.46875 -2.03125q0 -1.765625 1.03125 -2.890625q1.03125 -1.140625 2.703125 -1.140625zm-2.0625 4.03125q0 1.109375 0.53125 1.828125q0.546875 0.703125 1.53125 0.703125q0.984375 0 1.53125 -0.6875q0.546875 -0.703125 0.546875 -1.84375q0 -1.203125 -0.5625 -1.90625q-0.546875 -0.71875 -1.515625 -0.71875q-0.984375 0 -1.53125 0.71875q-0.53125 0.71875 -0.53125 1.90625zm8.080444 -3.84375l1.484375 2.4375l1.546875 -2.4375l1.828125 0l-2.4375 3.640625l2.65625 3.96875l-2.0 0l-1.65625 -2.640625l-1.6875 2.640625l-1.890625 0l2.671875 -3.984375l-2.453125 -3.625l1.9375 0zm6.8107605 0l1.765625 3.0l1.78125 -3.0l1.859375 0l-2.828125 4.6875l0 2.921875l-1.671875 0l0 -2.953125l-2.796875 -4.65625l1.890625 0z" fill-rule="nonzero"/><path fill="#000000" fill-opacity="0.0" d="m589.3628 481.4816l109.73224 0l0 32.314972l-109.73224 0z" fill-rule="evenodd"/><path fill="#dc477d" d="m629.906 493.1122q1.1875 0 1.875 0.671875q0.703125 0.671875 0.703125 1.765625q0 1.109375 -0.703125 1.78125q-0.6875 0.671875 -1.875 0.671875l-1.8125 0l0 2.71875l-1.671875 0l0 -7.609375l3.484375 0zm-0.46875 3.578125q0.71875 0 1.0625 -0.265625q0.359375 -0.265625 0.359375 -0.875q0 -0.578125 -0.34375 -0.859375q-0.328125 -0.28125 -1.0625 -0.28125l-1.359375 0l0 2.28125l1.34375 0zm8.232605 -3.578125q0.921875 0 1.546875 0.59375q0.640625 0.59375 0.640625 1.515625q0 0.71875 -0.296875 1.1875q-0.296875 0.46875 -0.90625 0.71875l0 0.015625q0.53125 0.140625 0.8125 0.640625q0.296875 0.5 0.328125 1.53125q0.015625 1.03125 0.296875 1.40625l-1.6875 0q-0.140625 -0.375 -0.1875 -1.203125q-0.078125 -1.125 -0.390625 -1.4375q-0.296875 -0.328125 -0.90625 -0.328125l-1.71875 0l0 2.96875l-1.671875 0l0 -7.609375l4.140625 0zm-0.59375 3.4375q0.515625 0 0.8125 -0.25q0.296875 -0.25 0.296875 -0.828125q0 -0.546875 -0.28125 -0.796875q-0.28125 -0.265625 -0.828125 -0.265625l-1.875 0l0 2.140625l1.875 0zm7.5549927 -3.625q1.703125 0 2.71875 1.140625q1.03125 1.140625 1.03125 2.890625q0 1.6875 -1.03125 2.828125q-1.03125 1.125 -2.71875 1.125q-1.09375 0 -1.953125 -0.5q-0.84375 -0.515625 -1.3125 -1.421875q-0.46875 -0.921875 -0.46875 -2.03125q0 -1.765625 1.03125 -2.890625q1.03125 -1.140625 2.703125 -1.140625zm-2.0625 4.03125q0 1.109375 0.53125 1.828125q0.546875 0.703125 1.53125 0.703125q0.984375 0 1.53125 -0.6875q0.546875 -0.703125 0.546875 -1.84375q0 -1.203125 -0.5625 -1.90625q-0.546875 -0.71875 -1.515625 -0.71875q-0.984375 0 -1.53125 0.71875q-0.53125 0.71875 -0.53125 1.90625zm8.080444 -3.84375l1.484375 2.4375l1.546875 -2.4375l1.828125 0l-2.4375 3.640625l2.65625 3.96875l-2.0 0l-1.65625 -2.640625l-1.6875 2.640625l-1.890625 0l2.671875 -3.984375l-2.453125 -3.625l1.9375 0zm6.810791 0l1.765625 3.0l1.78125 -3.0l1.859375 0l-2.828125 4.6875l0 2.921875l-1.671875 0l0 -2.953125l-2.796875 -4.65625l1.890625 0z" fill-rule="nonzero"/><path fill="#000000" fill-opacity="0.0" d="m403.02368 335.9619l152.0315 0l0 58.173218l-152.0315 0z" fill-rule="evenodd"/><path fill="#4e515d" d="m446.9942 347.40503q1.296875 0 2.203125 0.734375q0.921875 0.734375 1.078125 2.015625l-1.609375 0q-0.109375 -0.609375 -0.59375 -0.96875q-0.484375 -0.375 -1.078125 -0.375q-0.984375 0 -1.53125 0.71875q-0.53125 0.71875 -0.53125 1.90625q0 1.125 0.53125 1.828125q0.546875 0.703125 1.53125 0.703125q0.734375 0 1.171875 -0.4375q0.453125 -0.453125 0.5625 -1.25l1.625 0q-0.15625 1.4375 -1.0625 2.28125q-0.90625 0.828125 -2.296875 0.828125q-1.09375 0 -1.953125 -0.5q-0.84375 -0.515625 -1.3125 -1.421875q-0.46875 -0.921875 -0.46875 -2.03125q0 -1.765625 1.015625 -2.890625q1.03125 -1.140625 2.71875 -1.140625zm7.898529 0q1.703125 0 2.71875 1.140625q1.03125 1.140625 1.03125 2.890625q0 1.6875 -1.03125 2.828125q-1.03125 1.125 -2.71875 1.125q-1.09375 0 -1.953125 -0.5q-0.84375 -0.515625 -1.3125 -1.421875q-0.46875 -0.921875 -0.46875 -2.03125q0 -1.765625 1.03125 -2.890625q1.03125 -1.140625 2.703125 -1.140625zm-2.0625 4.03125q0 1.109375 0.53125 1.828125q0.546875 0.703125 1.53125 0.703125q0.984375 0 1.53125 -0.6875q0.546875 -0.703125 0.546875 -1.84375q0 -1.203125 -0.5625 -1.90625q-0.546875 -0.71875 -1.515625 -0.71875q-0.984375 0 -1.53125 0.71875q-0.53125 0.71875 -0.53125 1.90625zm8.616882 -3.84375l3.171875 5.109375l0.015625 0l0 -5.109375l1.5625 0l0 7.609375l-1.671875 0l-3.15625 -5.09375l-0.03125 0l0 5.09375l-1.5625 0l0 -7.609375l1.671875 0zm7.898529 0l3.171875 5.109375l0.015625 0l0 -5.109375l1.5625 0l0 7.609375l-1.671875 0l-3.15625 -5.09375l-0.03125 0l0 5.09375l-1.5625 0l0 -7.609375l1.671875 0zm11.914154 0l0 1.40625l-4.015625 0l0 1.625l3.6875 0l0 1.3125l-3.6875 0l0 1.859375l4.109375 0l0 1.40625l-5.78125 0l0 -7.609375l5.6875 0zm4.623474 -0.1875q1.296875 0 2.203125 0.734375q0.921875 0.734375 1.078125 2.015625l-1.609375 0q-0.109375 -0.609375 -0.59375 -0.96875q-0.484375 -0.375 -1.078125 -0.375q-0.984375 0 -1.53125 0.71875q-0.53125 0.71875 -0.53125 1.90625q0 1.125 0.53125 1.828125q0.546875 0.703125 1.53125 0.703125q0.734375 0 1.171875 -0.4375q0.453125 -0.453125 0.5625 -1.25l1.625 0q-0.15625 1.4375 -1.0625 2.28125q-0.90625 0.828125 -2.296875 0.828125q-1.09375 0 -1.953125 -0.5q-0.84375 -0.515625 -1.3125 -1.421875q-0.46875 -0.921875 -0.46875 -2.03125q0 -1.765625 1.015625 -2.890625q1.03125 -1.140625 2.71875 -1.140625zm9.877686 0.1875l0 1.40625l-2.28125 0l0 6.203125l-1.671875 0l0 -6.203125l-2.28125 0l0 -1.40625l6.234375 0zm2.5405273 0l0 7.609375l-1.671875 0l0 -7.609375l1.671875 0zm4.877136 -0.1875q1.703125 0 2.71875 1.140625q1.03125 1.140625 1.03125 2.890625q0 1.6875 -1.03125 2.828125q-1.03125 1.125 -2.71875 1.125q-1.09375 0 -1.953125 -0.5q-0.84375 -0.515625 -1.3125 -1.421875q-0.46875 -0.921875 -0.46875 -2.03125q0 -1.765625 1.03125 -2.890625q1.03125 -1.140625 2.703125 -1.140625zm-2.0625 4.03125q0 1.109375 0.53125 1.828125q0.546875 0.703125 1.53125 0.703125q0.984375 0 1.53125 -0.6875q0.546875 -0.703125 0.546875 -1.84375q0 -1.203125 -0.5625 -1.90625q-0.546875 -0.71875 -1.515625 -0.71875q-0.984375 0 -1.53125 0.71875q-0.53125 0.71875 -0.53125 1.90625zm8.616882 -3.84375l3.1719055 5.109375l0.015625 0l0 -5.109375l1.5625 0l0 7.609375l-1.671875 0l-3.1562805 -5.09375l-0.03125 0l0 5.09375l-1.5625 0l0 -7.609375l1.671875 0z" fill-rule="nonzero"/><path fill="#4e515d" d="m448.415 360.39255l2.84375 7.609375l-1.734375 0l-0.578125 -1.703125l-2.84375 0l-0.59375 1.703125l-1.703125 0l2.890625 -7.609375l1.71875 0zm-0.890625 1.875l-0.984375 2.796875l1.96875 0l-0.953125 -2.796875l-0.03125 0zm5.9043274 -1.875l0 4.78125q0 0.8125 0.375 1.203125q0.375 0.390625 1.1875 0.390625q0.875 0 1.21875 -0.375q0.359375 -0.390625 0.359375 -1.21875l0 -4.78125l1.671875 0l0 4.78125q0 1.421875 -0.828125 2.21875q-0.8125 0.796875 -2.421875 0.796875q-1.59375 0 -2.421875 -0.78125q-0.8125 -0.796875 -0.8125 -2.234375l0 -4.78125l1.671875 0zm11.898529 0l0 1.40625l-2.28125 0l0 6.203125l-1.671875 0l0 -6.203125l-2.28125 0l0 -1.40625l6.234375 0zm2.5404968 0l0 2.921875l3.078125 0l0 -2.921875l1.671875 0l0 7.609375l-1.671875 0l0 -3.28125l-3.078125 0l0 3.28125l-1.671875 0l0 -7.609375l1.671875 0zm9.632904 -0.1875q1.703125 0 2.71875 1.140625q1.03125 1.140625 1.03125 2.890625q0 1.6875 -1.03125 2.828125q-1.03125 1.125 -2.71875 1.125q-1.09375 0 -1.953125 -0.5q-0.84375 -0.515625 -1.3125 -1.421875q-0.46875 -0.921875 -0.46875 -2.03125q0 -1.765625 1.03125 -2.890625q1.03125 -1.140625 2.703125 -1.140625zm-2.0625 4.03125q0 1.109375 0.53125 1.828125q0.546875 0.703125 1.53125 0.703125q0.984375 0 1.53125 -0.6875q0.546875 -0.703125 0.546875 -1.84375q0 -1.203125 -0.5625 -1.90625q-0.546875 -0.71875 -1.515625 -0.71875q-0.984375 0 -1.53125 0.71875q-0.53125 0.71875 -0.53125 1.90625zm11.085663 -3.84375q0.921875 0 1.546875 0.59375q0.640625 0.59375 0.640625 1.515625q0 0.71875 -0.296875 1.1875q-0.296875 0.46875 -0.90625 0.71875l0 0.015625q0.53125 0.140625 0.8125 0.640625q0.296875 0.5 0.328125 1.53125q0.015625 1.03125 0.296875 1.40625l-1.6875 0q-0.140625 -0.375 -0.1875 -1.203125q-0.078125 -1.125 -0.390625 -1.4375q-0.296875 -0.328125 -0.90625 -0.328125l-1.71875 0l0 2.96875l-1.671875 0l0 -7.609375l4.140625 0zm-0.59375 3.4375q0.515625 0 0.8125 -0.25q0.296875 -0.25 0.296875 -0.828125q0 -0.546875 -0.28125 -0.796875q-0.28125 -0.265625 -0.828125 -0.265625l-1.875 0l0 2.140625l1.875 0zm5.820587 -3.4375l0 7.609375l-1.671875 0l0 -7.609375l1.671875 0zm7.299011 0l0 1.328125l-4.09375 4.875l4.1875 0l0 1.40625l-6.40625 0l0 -1.328125l4.078125 -4.875l-3.765625 0l0 -1.40625l6.0 0zm6.764099 0l0 1.40625l-4.015625 0l0 1.625l3.6875 0l0 1.3125l-3.6875 0l0 1.859375l4.109375 0l0 1.40625l-5.78125 0l0 -7.609375l5.6875 0zm4.5453186 0q1.53125 0 2.46875 1.0q0.9375 0.984375 0.9375 2.765625q0 1.78125 -0.921875 2.8125q-0.921875 1.03125 -2.484375 1.03125l-3.328125 0l0 -7.609375l3.328125 0zm-0.125 6.203125q0.796875 0 1.328125 -0.578125q0.53125 -0.578125 0.53125 -1.703125q0 -1.328125 -0.5625 -1.921875q-0.546875 -0.59375 -1.59375 -0.59375l-1.234375 0l0 4.796875l1.53125 0z" fill-rule="nonzero"/><path fill="#4e515d" d="m432.9039 373.19254l1.203125 5.171875l0.015625 0l1.328125 -5.171875l1.5625 0l1.3125 5.234375l0.015625 0l1.25 -5.234375l1.640625 0l-2.046875 7.609375l-1.671875 0l-1.28125 -5.171875l-0.015625 0l-1.28125 5.171875l-1.6875 0l-2.015625 -7.609375l1.671875 0zm10.761017 0l0 7.609375l-1.671875 0l0 -7.609375l1.671875 0zm7.111511 0l0 1.40625l-2.28125 0l0 6.203125l-1.671875 0l0 -6.203125l-2.28125 0l0 -1.40625l6.234375 0zm2.5404968 0l0 2.921875l3.078125 0l0 -2.921875l1.671875 0l0 7.609375l-1.671875 0l0 -3.28125l-3.078125 0l0 3.28125l-1.671875 0l0 -7.609375l1.671875 0zm10.859192 0l0 7.609375l-1.671875 0l0 -7.609375l1.671875 0zm3.1427612 0l3.171875 5.109375l0.015625 0l0 -5.109375l1.5625 0l0 7.609375l-1.671875 0l-3.15625 -5.09375l-0.03125 0l0 5.09375l-1.5625 0l0 -7.609375l1.671875 0zm11.867279 0l0 1.40625l-2.28125 0l0 6.203125l-1.671875 0l0 -6.203125l-2.28125 0l0 -1.40625l6.234375 0zm6.556122 0l0 1.40625l-4.015625 0l0 1.625l3.6875 0l0 1.3125l-3.6875 0l0 1.859375l4.109375 0l0 1.40625l-5.78125 0l0 -7.609375l5.6875 0zm2.8890991 0l3.171875 5.109375l0.015625 0l0 -5.109375l1.5625 0l0 7.609375l-1.671875 0l-3.15625 -5.09375l-0.03125 0l0 5.09375l-1.5625 0l0 -7.609375l1.671875 0zm11.867279 0l0 1.40625l-2.28125 0l0 6.203125l-1.671875 0l0 -6.203125l-2.28125 0l0 -1.40625l6.234375 0zm2.5404968 0l0 7.609375l-1.671875 0l0 -7.609375l1.671875 0zm4.877136 -0.1875q1.703125 0 2.71875 1.140625q1.03125 1.140625 1.03125 2.890625q0 1.6875 -1.03125 2.828125q-1.03125 1.125 -2.71875 1.125q-1.09375 0 -1.953125 -0.5q-0.84375 -0.515625 -1.3125 -1.421875q-0.46875 -0.921875 -0.46875 -2.03125q0 -1.765625 1.03125 -2.890625q1.03125 -1.140625 2.703125 -1.140625zm-2.0625 4.03125q0 1.109375 0.53125 1.828125q0.546875 0.703125 1.53125 0.703125q0.984375 0 1.53125 -0.6875q0.546875 -0.703125 0.546875 -1.84375q0 -1.203125 -0.5625 -1.90625q-0.546875 -0.71875 -1.515625 -0.71875q-0.984375 0 -1.53125 0.71875q-0.53125 0.71875 -0.53125 1.90625zm8.616913 -3.84375l3.171875 5.109375l0.015625 0l0 -5.109375l1.5625 0l0 7.609375l-1.671875 0l-3.15625 -5.09375l-0.03125 0l0 5.09375l-1.5625 0l0 -7.609375l1.671875 0zm8.851624 -0.1875q1.375 0 2.203125 0.640625q0.84375 0.640625 0.84375 1.8125l-1.625 0q-0.03125 -0.5625 -0.390625 -0.84375q-0.359375 -0.296875 -1.109375 -0.296875q-0.5 0 -0.828125 0.21875q-0.328125 0.21875 -0.328125 0.640625q0 0.28125 0.140625 0.421875q0.140625 0.140625 0.546875 0.296875q0.421875 0.15625 1.828125 0.484375q0.953125 0.234375 1.484375 0.78125q0.53125 0.546875 0.53125 1.375q0 1.109375 -0.828125 1.78125q-0.828125 0.671875 -2.328125 0.671875q-1.4375 0 -2.34375 -0.703125q-0.90625 -0.71875 -0.90625 -1.96875l0 -0.046875l1.625 0q0 0.71875 0.453125 1.0625q0.46875 0.34375 1.21875 0.34375q0.6875 0 1.078125 -0.234375q0.40625 -0.25 0.40625 -0.703125q0 -0.375 -0.3125 -0.609375q-0.296875 -0.234375 -0.984375 -0.40625q-0.875 -0.203125 -1.59375 -0.421875q-0.703125 -0.21875 -1.171875 -0.71875q-0.46875 -0.5 -0.46875 -1.265625q0 -1.03125 0.8125 -1.671875q0.828125 -0.640625 2.046875 -0.640625z" fill-rule="nonzero"/><path fill="#ffffff" d="m733.39734 407.29532l0 0c0 -1.2077026 0.97906494 -2.186737 2.1867676 -2.186737l65.579285 0c0.57995605 0 1.1361694 0.2303772 1.5462646 0.6404724c0.4100952 0.4100952 0.6404419 0.9663086 0.6404419 1.5462646l0 65.579315c0 1.2076721 -0.9790039 2.1867065 -2.1867065 2.1867065l-65.579285 0l0 0c-1.2077026 0 -2.1867676 -0.9790344 -2.1867676 -2.1867065z" fill-rule="evenodd"/><path stroke="#d6d6d6" stroke-width="1.0" stroke-linejoin="round" stroke-linecap="butt" d="m733.39734 407.29532l0 0c0 -1.2077026 0.97906494 -2.186737 2.1867676 -2.186737l65.579285 0c0.57995605 0 1.1361694 0.2303772 1.5462646 0.6404724c0.4100952 0.4100952 0.6404419 0.9663086 0.6404419 1.5462646l0 65.579315c0 1.2076721 -0.9790039 2.1867065 -2.1867065 2.1867065l-65.579285 0l0 0c-1.2077026 0 -2.1867676 -0.9790344 -2.1867676 -2.1867065z" fill-rule="evenodd"/><path fill="#9396a2" d="m768.3778 458.9891c-4.9074097 0 -9.511963 -0.6407471 -12.971985 -1.7979431c-1.8131104 -0.6249695 -3.1694946 -1.2954712 -4.13031 -2.0727844c-1.1900635 -0.9436035 -1.7991333 -2.009735 -1.7991333 -3.1529236l0 -23.934967c0 -1.4162903 0.9906006 -2.4526672 1.8131104 -3.0916443c1.0220947 -0.77731323 2.4099731 -1.447815 4.147827 -2.0115051c3.444275 -1.1274414 8.047119 -1.7524109 12.940491 -1.7524109c4.8933716 0 9.496216 0.6249695 12.9422 1.7524109c1.736145 0.5479431 3.1240234 1.2184448 4.146057 2.0115051c0.8383179 0.62323 1.8131714 1.675354 1.8131714 3.0916443l0 23.934967c0 1.1431885 -0.6090698 2.193573 -1.7991333 3.1529236c-0.9748535 0.77731323 -2.3171997 1.463562 -4.13031 2.0727844c-3.460022 1.157196 -8.064636 1.7979431 -12.971985 1.7979431zm-16.782043 -7.023651c0 0.32037354 0.16625977 0.8525696 0.9906006 1.4933167c0.79278564 0.6249695 1.9968872 1.2184448 3.489746 1.7208862c3.2780151 1.0819092 7.6516113 1.677124 12.301697 1.677124c4.6483154 0 9.023682 -0.59521484 12.301636 -1.677124c1.4928589 -0.5024414 2.6969604 -1.0959167 3.4898071 -1.7208862c0.8242798 -0.65475464 0.99053955 -1.1729431 0.99053955 -1.4933167l0 -9.003632l-0.57928467 0.3501587c-0.88378906 0.53219604 -1.9653931 1.0048523 -3.230713 1.4162598c-3.460022 1.1134338 -8.078613 1.7366638 -12.971985 1.7366638c-4.8933716 0 -9.496216 -0.6092224 -12.971985 -1.7366638c-1.2653198 -0.41140747 -2.3469238 -0.8840637 -3.230713 -1.4162598l-0.5793457 -0.3501587l0 9.003632zm0 -12.35614c0 0.30462646 0.16625977 0.7930603 0.9748535 1.4180603c0.79278564 0.5934448 1.9968872 1.1729126 3.491516 1.6596069c3.276245 1.0521545 7.635803 1.6456299 12.315674 1.6456299c4.6798096 0 9.039429 -0.5794678 12.315674 -1.6456299c1.4946289 -0.48669434 2.6986694 -1.0661621 3.491516 -1.6596069c0.8225708 -0.6407471 0.99053955 -1.1274414 0.99053955 -1.4338074l0 -8.226318l-0.57928467 0.35012817c-0.88378906 0.53393555 -1.9811401 1.0066223 -3.262207 1.4180298c-3.444275 1.1274109 -8.048889 1.7506409 -12.940491 1.7506409c-4.8933716 0 -9.496216 -0.62323 -12.9422 -1.7506409c-1.2811279 -0.41140747 -2.362732 -0.88409424 -3.262268 -1.4180298l-0.57928467 -0.35012817l0 8.226318zm16.782043 -16.286346c-4.6500854 0 -9.007935 0.5794678 -12.28595 1.6456299c-1.524353 0.5024414 -2.7284546 1.0819092 -3.5054932 1.6753845c-0.80859375 0.6092224 -0.9906006 1.0976562 -0.9906006 1.4022522c0 0.30462646 0.16625977 0.7913208 0.9906006 1.4005432c0.7770386 0.59521484 1.9811401 1.1886902 3.5054932 1.677124c3.2780151 1.0503845 7.6358643 1.6455994 12.28595 1.6455994c4.6483154 0 9.009644 -0.57943726 12.285889 -1.6455994c1.5244141 -0.5024414 2.7284546 -1.0819092 3.5055542 -1.677124c0.8085327 -0.6092224 0.99053955 -1.0959167 0.99053955 -1.4005432c0 -0.30459595 -0.16625977 -0.7930298 -0.99053955 -1.4022522c-0.7770996 -0.59347534 -1.9811401 -1.1887207 -3.5055542 -1.6753845c-3.276245 -1.0521545 -7.6375732 -1.6456299 -12.285889 -1.6456299z" fill-rule="evenodd"/><path fill="#ffffff" d="m156.65424 407.29532l0 0c0 -1.2077026 0.97901917 -2.186737 2.1867218 -2.186737l65.5793 0c0.57995605 0 1.1361694 0.2303772 1.5462494 0.6404724c0.4100952 0.4100952 0.6404724 0.9663086 0.6404724 1.5462646l0 65.579315c0 1.2076721 -0.97901917 2.1867065 -2.1867218 2.1867065l-65.5793 0l0 0c-1.2077026 0 -2.1867218 -0.9790344 -2.1867218 -2.1867065z" fill-rule="evenodd"/><path stroke="#d6d6d6" stroke-width="1.0" stroke-linejoin="round" stroke-linecap="butt" d="m156.65424 407.29532l0 0c0 -1.2077026 0.97901917 -2.186737 2.1867218 -2.186737l65.5793 0c0.57995605 0 1.1361694 0.2303772 1.5462494 0.6404724c0.4100952 0.4100952 0.6404724 0.9663086 0.6404724 1.5462646l0 65.579315c0 1.2076721 -0.97901917 2.1867065 -2.1867218 2.1867065l-65.5793 0l0 0c-1.2077026 0 -2.1867218 -0.9790344 -2.1867218 -2.1867065z" fill-rule="evenodd"/><path fill="#e03875" d="m426.6339 440.0949l0 0c0 -14.489868 11.746368 -26.236206 26.236237 -26.236206l0.03149414 0l0 0c6.9582825 0 13.631561 2.7641602 18.551819 7.6844177c4.920227 4.920227 7.684387 11.593506 7.684387 18.551788l0 0l0 0c0 14.489868 -11.746338 26.236237 -26.236206 26.236237l-0.03149414 0l0 0c-14.489868 0 -26.236237 -11.746368 -26.236237 -26.236237z" fill-rule="evenodd"/><path stroke="#ffffff" stroke-width="2.0" stroke-miterlimit="400.0" stroke-linecap="butt" stroke-opacity="0.4784" d="m426.6339 440.0949l0 0c0 -14.489868 11.746368 -26.236206 26.236237 -26.236206l0.03149414 0l0 0c6.9582825 0 13.631561 2.7641602 18.551819 7.6844177c4.920227 4.920227 7.684387 11.593506 7.684387 18.551788l0 0l0 0c0 14.489868 -11.746338 26.236237 -26.236206 26.236237l-0.03149414 0l0 0c-14.489868 0 -26.236237 -11.746368 -26.236237 -26.236237z" fill-rule="evenodd"/><path fill="#929292" d="m191.63354 459.78815c-10.425537 0 -18.901413 -8.475861 -18.901413 -18.901398c0 -10.425537 8.475876 -18.901428 18.901413 -18.901428c10.425537 0 18.901413 8.475891 18.901413 18.901428c0 10.425537 -8.475876 18.901398 -18.901413 18.901398zm7.936844 -18.043823c-0.27651978 5.544403 -2.1018982 10.8403015 -5.2958984 15.306641l-0.4970398 0.6912842l0.84181213 -0.1522522c7.8125916 -1.3825989 13.55127 -7.880829 13.966049 -15.817688l0 -0.37451172l-9.000916 0l0 0.33251953zm-24.902618 0.041992188c0.41477966 7.9228516 6.1534576 14.435089 13.966049 15.817688l0.84181213 0.1522522l-0.4970398 -0.6912842c-3.193985 -4.466339 -5.0193787 -9.762238 -5.2958984 -15.306671l0 -0.33251953l-9.042923 0l0 0.37277222zm10.964569 0c0.3045349 5.5303955 2.3364258 10.936554 5.7246857 15.208649l0.27651978 0.3465271l0.27651978 -0.3465271c3.4022522 -4.2720947 5.4341583 -9.678253 5.7246857 -15.208649l0 -0.37454224l-12.030411 0l0 0.37454224zm8.670151 -17.049774c3.013733 4.2318115 4.825119 9.223175 5.2398987 14.435089l0.027999878 0.31851196l9.014923 0l-0.041992188 -0.3867798c-0.78756714 -7.480072 -6.4982452 -13.619537 -13.896042 -14.919861l-0.8435669 -0.15228271l0.4987793 0.6913147zm-2.9174652 0.055999756c-3.2499847 4.091797 -5.2136383 9.042938 -5.6686707 14.324829l-0.027999878 0.3867798l11.946396 0l-0.027999878 -0.3867798c-0.4567871 -5.281891 -2.4204407 -10.233032 -5.668686 -14.324829l-0.27651978 -0.3465271l-0.27651978 0.3465271zm-2.7109528 -0.59506226c-7.3977966 1.3143616 -13.106735 7.4398193 -13.896042 14.919891l-0.040252686 0.3867798l9.014923 0l0.027999878 -0.31854248c0.41304016 -5.2118835 2.2244263 -10.217255 5.2398987 -14.435059l0.4970398 -0.6913147l-0.8435669 0.1522522z" fill-rule="evenodd"/><path fill="#000000" fill-opacity="0.0" d="m115.614136 480.31055l152.0315 0l0 33.921265l-152.0315 0z" fill-rule="evenodd"/><path fill="#4e515d" d="m179.77637 492.26804l1.359375 5.828125l0.015625 0l1.484375 -5.828125l1.765625 0l1.46875 5.890625l0.03125 0l1.40625 -5.890625l1.84375 0l-2.3125 8.5625l-1.875 0l-1.4375 -5.828125l-0.03125 0l-1.421875 5.828125l-1.921875 0l-2.265625 -8.5625l1.890625 0zm16.638672 0l0 1.578125l-4.515625 0l0 1.828125l4.140625 0l0 1.46875l-4.140625 0l0 2.109375l4.609375 0l0 1.578125l-6.5 0l0 -8.5625l6.40625 0zm5.4628906 0q1.3125 0 1.984375 0.515625q0.6875 0.515625 0.6875 1.59375q0 0.65625 -0.3125 1.09375q-0.296875 0.4375 -0.84375 0.703125q0.78125 0.234375 1.171875 0.796875q0.390625 0.546875 0.390625 1.375q0 1.1875 -0.859375 1.84375q-0.84375 0.640625 -2.109375 0.640625l-4.203125 0l0 -8.5625l4.09375 0zm-0.265625 3.46875q0.5 0 0.796875 -0.25q0.3125 -0.265625 0.3125 -0.78125q0 -0.5 -0.3125 -0.734375q-0.3125 -0.25 -0.921875 -0.25l-1.8125 0l0 2.015625l1.9375 0zm0.125 3.625q0.625 0 0.984375 -0.265625q0.359375 -0.28125 0.359375 -0.859375q0 -0.59375 -0.34375 -0.90625q-0.34375 -0.3125 -0.96875 -0.3125l-2.09375 0l0 2.34375l2.0625 0z" fill-rule="nonzero"/><path fill="#000000" fill-opacity="0.0" d="m692.35724 480.31055l152.0315 0l0 33.921265l-152.0315 0z" fill-rule="evenodd"/><path fill="#4e515d" d="m741.7236 492.26804q1.71875 0 2.78125 1.125q1.0625 1.109375 1.0625 3.109375q0 2.0 -1.046875 3.171875q-1.03125 1.15625 -2.796875 1.15625l-3.75 0l0 -8.5625l3.75 0zm-0.140625 6.984375q0.90625 0 1.5 -0.640625q0.59375 -0.65625 0.59375 -1.9375q0 -1.484375 -0.625 -2.15625q-0.625 -0.671875 -1.796875 -0.671875l-1.390625 0l0 5.40625l1.71875 0zm9.263672 -6.984375l3.203125 8.5625l-1.953125 0l-0.640625 -1.90625l-3.203125 0l-0.671875 1.90625l-1.90625 0l3.25 -8.5625l1.921875 0zm-0.984375 2.109375l-1.125 3.140625l2.21875 0l-1.078125 -3.140625l-0.015625 0zm10.205078 -2.109375l0 1.578125l-2.5625 0l0 6.984375l-1.890625 0l0 -6.984375l-2.5625 0l0 -1.578125l7.015625 0zm4.173828 0l3.203125 8.5625l-1.953125 0l-0.640625 -1.90625l-3.203125 0l-0.671875 1.90625l-1.90625 0l3.25 -8.5625l1.921875 0zm-0.984375 2.109375l-1.125 3.140625l2.21875 0l-1.078125 -3.140625l-0.015625 0zm9.033203 -2.109375q1.3125 0 1.984375 0.515625q0.6875 0.515625 0.6875 1.59375q0 0.65625 -0.3125 1.09375q-0.296875 0.4375 -0.84375 0.703125q0.78125 0.234375 1.171875 0.796875q0.390625 0.546875 0.390625 1.375q0 1.1875 -0.859375 1.84375q-0.84375 0.640625 -2.109375 0.640625l-4.203125 0l0 -8.5625l4.09375 0zm-0.265625 3.46875q0.5 0 0.796875 -0.25q0.3125 -0.265625 0.3125 -0.78125q0 -0.5 -0.3125 -0.734375q-0.3125 -0.25 -0.921875 -0.25l-1.8125 0l0 2.015625l1.9375 0zm0.125 3.625q0.625 0 0.984375 -0.265625q0.359375 -0.28125 0.359375 -0.859375q0 -0.59375 -0.34375 -0.90625q-0.34375 -0.3125 -0.96875 -0.3125l-2.09375 0l0 2.34375l2.0625 0zm8.761719 -7.09375l3.203125 8.5625l-1.953125 0l-0.640625 -1.90625l-3.203125 0l-0.671875 1.90625l-1.90625 0l3.25 -8.5625l1.921875 0zm-0.984375 2.109375l-1.125 3.140625l2.21875 0l-1.078125 -3.140625l-0.015625 0zm7.892578 -2.3125q1.546875 0 2.484375 0.71875q0.9375 0.71875 0.9375 2.03125l-1.8125 0q-0.046875 -0.640625 -0.453125 -0.96875q-0.390625 -0.328125 -1.234375 -0.328125q-0.578125 0 -0.953125 0.265625q-0.359375 0.25 -0.359375 0.71875q0 0.3125 0.15625 0.46875q0.15625 0.15625 0.625 0.34375q0.46875 0.171875 2.0625 0.546875q1.0625 0.25 1.65625 0.875q0.609375 0.609375 0.609375 1.546875q0 1.25 -0.9375 2.0q-0.9375 0.75 -2.625 0.75q-1.609375 0 -2.640625 -0.796875q-1.015625 -0.796875 -1.015625 -2.203125l0 -0.046875l1.828125 0q0 0.796875 0.515625 1.1875q0.53125 0.390625 1.375 0.390625q0.765625 0 1.21875 -0.265625q0.453125 -0.28125 0.453125 -0.796875q0 -0.421875 -0.359375 -0.6875q-0.34375 -0.265625 -1.109375 -0.453125q-0.984375 -0.21875 -1.78125 -0.46875q-0.796875 -0.25 -1.328125 -0.8125q-0.53125 -0.5625 -0.53125 -1.4375q0 -1.15625 0.921875 -1.859375q0.9375 -0.71875 2.296875 -0.71875zm11.240234 0.203125l0 1.578125l-4.515625 0l0 1.828125l4.140625 0l0 1.46875l-4.140625 0l0 2.109375l4.609375 0l0 1.578125l-6.5 0l0 -8.5625l6.40625 0z" fill-rule="nonzero"/><path fill="#000000" fill-opacity="0.0" d="m326.76416 428.5721l-48.283447 0" fill-rule="evenodd"/><path stroke="#e03875" stroke-width="1.0" stroke-miterlimit="400.0" stroke-linecap="butt" d="m326.76416 428.57214l-42.283447 0" fill-rule="evenodd"/><path fill="#e03875" stroke="#e03875" stroke-width="1.0" stroke-linecap="butt" d="m284.4807 426.9204l-4.5381165 1.6517334l4.5381165 1.6517334z" fill-rule="evenodd"/><path fill="#000000" fill-opacity="0.0" d="m278.4898 453.19925l48.283447 0" fill-rule="evenodd"/><path stroke="#e03875" stroke-width="1.0" stroke-miterlimit="400.0" stroke-linecap="butt" d="m278.4898 453.19928l42.283478 0" fill-rule="evenodd"/><path fill="#e03875" stroke="#e03875" stroke-width="1.0" stroke-linecap="butt" d="m320.7733 454.851l4.538086 -1.6517334l-4.538086 -1.6517334z" fill-rule="evenodd"/><path fill="#ffffff" d="m448.17438 449.92224c-0.15933228 0 -0.308136 -0.04559326 -0.4345398 -0.12582397c-0.034240723 -0.02279663 -0.080322266 -0.056549072 -0.11456299 -0.09118652l-8.694824 -8.697754c-0.14880371 -0.14865112 -0.22912598 -0.342865 -0.22912598 -0.560791c0 -0.2170105 0.080322266 -0.41122437 0.22912598 -0.5607605c0.14880371 -0.1486206 0.35421753 -0.22885132 0.5609741 -0.22885132c0.20541382 0 0.41082764 0.08023071 0.55963135 0.22885132l8.123322 8.125153l17.539764 -17.543243c0.1487732 -0.1486206 0.35421753 -0.22885132 0.5609436 -0.22885132c0.20541382 0 0.41082764 0.08023071 0.55963135 0.22885132c0.30944824 0.30911255 0.30944824 0.81243896 0 1.121521l-18.099365 18.104034c-0.14880371 0.14953613 -0.35424805 0.24069214 -0.5609741 0.24069214z" fill-rule="evenodd"/><path fill="#ffffff" d="m487.21634 454.58115c-2.1075745 0 -3.8168335 -1.7087097 -3.8168335 -3.81604l0 -9.708557c0 -1.6362 1.0542603 -3.0898743 2.5884705 -3.621399l0 -4.1435547c0 -2.0657349 0.83987427 -4.010681 2.3740845 -5.4737244c1.5243835 -1.4415894 3.5306396 -2.2294922 5.6588745 -2.2294922c2.1282043 0 4.1344604 0.78790283 5.658844 2.2294922c1.5342102 1.4630432 2.3740845 3.4079895 2.3740845 5.4737244l0 4.1435547c1.5342102 0.53152466 2.5884705 1.985199 2.5884705 3.621399l0 9.708557c0 2.1073303 -1.709259 3.81604 -3.8168335 3.81604l-13.599335 0zm6.794739 -8.736755c-0.3894348 0 -0.71694946 0.32748413 -0.71694946 0.71676636l0 2.58786c0 0.38790894 0.32751465 0.7154236 0.71694946 0.7154236c0.38848877 0 0.7159729 -0.32751465 0.7159729 -0.7154236l0 -2.58786c0 -0.38928223 -0.32748413 -0.71676636 -0.7159729 -0.71676636zm5.5664062 -8.613281l0 -3.9489136c0 -1.3919373 -0.57333374 -2.7019653 -1.6069641 -3.6831665c-1.0532837 -0.9932556 -2.4970093 -1.5556641 -3.9702454 -1.5556641c-1.4732361 0 -2.915985 0.57315063 -3.9702454 1.5650635c-1.0336304 0.98254395 -1.5961609 2.292572 -1.5961609 3.6831665l0 3.9489136l11.1328125 0z" fill-rule="evenodd"/></g></svg>