<svg xmlns="http://www.w3.org/2000/svg" viewBox="0 0 1205.5 552"><defs><style>.cls-1{fill:none;stroke:#000;stroke-linecap:round;stroke-linejoin:round;stroke-width:.5px}</style></defs><path d="M20.78 548l6.93-4m221.69-32.01l-3.46-2m0 0L221.7 496m27.7 15.99L270.2 524m-39.84 23l-20.79-12.01 39.83-23M263.27 472l27.7 15.99-41.57 24m-46.76 23l-36.37-21 29.44-17M226.9 549l-24.26-14.01m64.1-64.99l27.7 15.99 36.37-21L351.6 477m-242.49-30.01l-29.45 17 38.11 22-19.05 11m6.93 4l19.05-11 34.64 20 29.44-17M148.95 552l-12.12-7m65.81-10.01L173.18 552m29.46-17.01l43.3-25" class="cls-1"/><path d="M245.94 509.99l38.11-22L259.81 474m95.26 1l-48.5-28m-38.11 99.99l6.92-4M263.27 424l6.93 4m-41.57 24l-6.93-4m0-48l6.93 4m-83.14 48l-6.93-4m-76.21 52l-6.92-4m171.46-69.01l6.92-4m-41.56-24l-6.93 4m83.14 48l6.92-4m-83.14 0l-6.92 4m-34.64-28l-6.93 4m90.06 44l-6.92 4m-83.14 48l48.49-28m-41.56-24l-48.5 28m60.62-277l3.47 2m-3.47-2L138.56 208m27.71 15.99L187.06 236m-20.79-12.01l-39.84 23L147.22 259m32.91-75l27.71 15.99-41.57 24M112.57 209l-29.44 16.99 36.37 21m0 0L143.76 261M0 173.99L25.97 159m-10.39 49.99l19.05-11L0 178m105.64 27L76.2 221.99l-34.64-20-19.05 11M53.69 257l48.5 28m17.31-38.01l-38.1 22L105.65 283" class="cls-1"/><path d="M162.8 221.99l38.11-22L176.67 186m-57.17 60.99l43.3-25m29.44 33l-6.92 4m-34.64 20l-6.93 4M187.06 140l-6.93-4m-34.64 28l-6.93-4m6.93-44l-6.92-4m-76.22 52l-6.92-4m88.32-21.01l6.93-3.99m-41.57-24l-6.93 3.99m90.07 44l-6.93 4M109.11 159l-6.93 3.99M67.54 135l-6.93 3.99m90.07 44l-6.93 4m-83.14 48l48.5-28M67.54 183l-48.5 27.99M360.26 544l-6.92 4m48.49-28l-6.92 4m36.38-5.01l6.92 4m34.65 20l6.92 4m226.9-203l3.47-2m0 0L734.38 328m-27.7 15.99L685.89 356m39.84 23l20.79-12.01-39.84-23m0 0l-41.57-24 27.7-15.99m60.64 62.99l36.37-21-29.44-17M729.19 381l24.26-14.01M604.48 309l20.79-12.01 36.38 21 27.7-15.99m157.63-23.01l29.44 17-38.1 22 19.05 11m-6.93 4l-19.05-11-34.64 20-29.45-17M819.25 377l-48.49 28m-17.31-38.01l-43.3-25M767.29 403l24.26-14.01-38.1-22" class="cls-1"/><path d="M696.28 306l-24.24 13.99 38.1 22M601.02 307l48.49-28m31.19 95.99l6.93 4m41.57 24l-6.93-4M734.38 280l-6.92 4m90.06-4l-6.92 4m90.06 44l-6.93 4m-122.96-97.01l-6.93-4m-76.21 52l-6.93-4m90.07 4l-6.93-4m48.49-20l-6.92-4m-76.21 52l-6.93-4m41.57 24l48.5 28m41.56-24l-48.49-28M900.66 424l-27.7 15.99 81.4 47L933.57 499m3.47 2l24.25-14.01m0 0l36.37-21-29.44-17m96.99 0l-19.05-11 38.11-22-29.45-17m-79.67 46l29.44 17 34.64-20 19.06 11M978.61 525l48.49-28m-51.96 26l24.26-14.01-38.11-22" class="cls-1"/><path d="M961.29 486.99l-81.4-47L904.12 426m26 92.99l6.92 4M900.66 376l-6.93 4m48.5 20l-6.93 4m6.93-52l-6.93 4m90.07 44l-6.93 4m90.06 44l-6.92 4m-171.46-77.01l6.92 4m41.57-24l-6.92-4m-76.22 52l-6.92-4m90.06 4l-6.92-4m48.49-20l-6.93-4m-76.21 52l-6.92-4m41.57 24l48.49 28m-6.93-52l48.5 28M1184.72 476l-6.93-4m-36.38 2.99l6.92-4m41.57 72l-13.85 8-1.74 1.01M358.72 207.11l-33.97 20.35-13.62 8.17M526.54 208l-24.24 13.99m-3.46 2L478.04 236m24.26-14.01l-3.46 2M517.88 259l20.79-12.01-39.83-23M484.97 184l-27.7 15.99 41.57 24m46.76 23l36.37-21L552.53 209m-31.18 52l24.25-14.01M481.5 182l-27.7 15.99-36.37-21L396.64 189m252.88 19.99l-19.05-11 38.11-22L639.13 159m3.47 53.99l-19.06-11-34.64 20L559.46 205m-.01 78l24.26-14.01-38.11-22m0 0l-43.3-25" class="cls-1"/><path d="M488.43 186l-24.24 13.99 38.11 22m-22.52 37l-6.92-4m48.49 28l-6.92-4M526.54 160l-6.93 4m0-48l6.93-4m83.14 48l-6.93 4m90.06 44l-6.92 4m-164.54-73.01l-6.93-3.99m48.5-20.01l-6.93-3.99m0 48l6.93 3.99M597.56 135l6.93 3.99m-90.06 44l6.92 4m124.71 24L597.56 183M502.3 461.99L526.54 448m-27.7 15.99l3.46-2M478.04 476l20.8-12.01M484.97 424l-27.7 15.99 41.57 24M517.88 499l20.79-12.01-39.83-23m46.76 23l36.38-21-29.45-17M521.35 501l24.25-14.01" class="cls-1"/><path d="M488.43 426l-24.24 13.99 38.11 22m43.3 25l-43.3-25M559.45 523l24.26-14.01-38.11-22M348.14 327l90.06 51.99m41.58 120l-6.92-4m41.57 24l6.92 4M609.68 400l-6.93 4m-122.97-1.01l-6.92-4m124.7-24l6.93 4m-83.14 48l-6.92-4M692.81 544l-13.85 8m10.39-10l-17.32 10m-67.55-3l20.8-12.01L651.27 552m45.01-6l-10.39 6m-36.38-33l-48.49 28m91.79-51l-6.92 4m48.49 20l-6.92 4m6.92-52l-6.92 4m90.06 44l-6.92 4m-88.33-29.01l6.93 4m41.57-24l-6.93-4m-83.14 48l6.93 4m76.21-4l6.93 4m41.57-24l-6.93-4m-83.14 48l6.93 4m450.31-146l19.05-11-38.1-22L1189.9 351m-3.46 53.99l19.05-11 .01.01m-62.35 10l-6.93-4m46.76 2.99l22.52-13M102.19 19l20.79-12.01L110.87 0m19.04 6.99L105.66 21m36.37-21l-12.12 6.99M147.23 45l48.49-28m-51.96 26l24.26-14.01-38.11-22M117.8 0l12.11 6.99m-65.81 12l-6.93-4m48.49 28l-6.92-4M60.62 69L39.83 56.99l-36.37 21L0 76m15.59-37l48.5 28m310.02 36.99l-3.46-2m3.46 2l20.8 12.01m-24.26-14.01L346.41 88m27.7 15.99l-39.84 23 20.8 12.01m32.91-75l27.7 15.99-41.57 24M351.6 141l-24.25-14.01m-6.93-38l-29.45 17 36.38 21M476.31 69l-20.79-12.01-36.37 21L391.44 62M233.81 38.99l-29.44 17 38.11 22-19.05 11m90.06-4l-29.44 17-34.64-20-19.06 11" class="cls-1"/><path d="M384.51 66l24.24 13.99-38.1 22m-43.3 25l-38.11 22L313.5 163m57.15-61.01l-43.3 25M431.28 39l48.5 28m-86.61 71.99l6.92-4m-41.57 24l-6.92 4M394.91 20l-6.93-4m-34.64 28l-6.93-4m-76.21 4l-6.93-4m95.25-25l-6.92 3.99m48.49 20l-6.92 4m-83.14 0l6.92-3.99m-41.57-24l-6.92 3.99m90.06 44l-6.92 4M275.38 63l-48.49 27.99M609.68 16l-27.7 15.99 81.4 47L642.59 91m3.47 2l24.25-14.01m0 0l36.37-21-29.44-17M521.35 21l20.79-12.01 36.37 21L606.22 14m168.01 26.99l-19.05-11 38.11-22L779.44 0m-95.27 36.99l29.44 17 34.64-20 19.06 11M687.63 117l48.49-28" class="cls-1"/><path d="M613.14 18l-24.23 13.99 81.4 47M684.16 115l24.26-14.01-38.11-22M517.88 19l32.91-19m95.27 114.99l-6.92-4M817.52 40l-6.92 4M646.06 18.99l-6.92-4m41.57 24l48.49 28m41.57-24l-48.5-28M817.52 136l-27.7 15.99-13.73 8.23-47.47 28.45m149.53 10.32l36.37-21L885.08 161m-6.93 37.99L853.9 213m128.18-52.01l-19.06-11 38.11-22L971.68 111m-79.67 46l29.44 16.99 34.65-20 19.05 11M895.47 237l48.49-28m-65.81-10.01l-81.4-47L820.98 138M892 235l24.26-14.01-38.11-22m-24.25 36l-6.92-4M817.52 88l-6.92 4m48.49 20l-6.93 4m6.93-52l-6.93 4m83.14 48l6.93-4m83.14 48l-6.93 4M853.9 90.99l-6.92-4M888.55 63l6.92 3.99m-83.14 48l-6.92-4m90.06 4l-6.92-3.99m48.49-20.01L930.11 87m-76.21 51.99l-6.92-4m41.57 24l48.49 28m41.57-24L930.12 135m95.25 121l-27.71 15.99 81.41 47-20.79 12.01m-121.25-70l20.8-12.01 36.37 21 27.7-15.99m81.41 103l48.5-28" class="cls-1"/><path d="M1028.83 258l-24.24 13.99 119.51 69-24.25 14.01M982.06 231l-48.49 28m86.61 71.99l-6.93-4m48.5 28l-6.93-4M1025.37 208l-6.93 4m41.57 24l6.92-4m-6.92-44l6.92-4m-5.18 26.99l-6.93-4m48.5-20l-6.93-3.99m-76.21 51.99l-6.93-4m-722.26 113l3.47-2m0 0L318.69 328m-27.7 15.99L270.2 356m20.79-12.01l-41.57-24 27.7-15.99m32.92 75l20.79-12.01-39.84-23m46.77 23L313.5 381m24.26-14.01l36.37-21-29.44-17M273.66 302l-27.7 15.99-36.38-21L188.79 309m148.97 57.99l38.1 22L351.61 403m-13.85-36.01l-43.3-25" class="cls-1"/><path d="M280.59 306l-24.24 13.99 38.1 22M233.82 279l-48.49 28m86.61 71.99l-6.93-4m48.5 28l-6.93-4M277.12 256l-6.92 4m48.49 20l-6.92 4m90.06-4l-6.92 4m-81.4-25.01l-6.93-4m-34.64 28l-6.93-4m83.14 0l6.93 4m41.57-24l-6.93-4m-83.14 48l6.93 4M5.2 414.99L0 418m12.13-41.01l29.45 17-36.38 21m103.93-38l-19.06-11 38.11-22L98.73 327m3.47 53.99l-19.06-11-34.64 20-29.44-17M71.01 425l-48.49 28M5.2 414.99l-5.2-3m5.2 3l38.11 22L19.05 451m50.23-123l-6.93 4m90.07 44l-6.93 4M22.52 330.99l-6.92-4m48.49 76l-48.49-28m90.06 4l-48.49-28M1177.79 184l6.93 4M1108.5 64l-48.49 28m74.49-27l29.44 17-60.63 35m38.11-56l29.45 17 34.63-20m-60.62 83l48.49-28M975.14 43l48.49-28m38.12 99.99l-6.93-3.99m48.5 27.99l-6.93-3.99m88.33-115l6.92-4m-46.75 2.99l-6.93-3.99m0 48l48.5 27.99M1179.53 39l25.97 14.99M27.71 552L0 536m41.57 8l-27.72-16v8l27.72 16m0-8l27.71-16v8l-27.71 16m0-8v8" class="cls-1"/><path d="M41.57 544l27.71-16-27.71-16-27.72 16 27.72 16m69.28 8l-27.71-16-27.72 16m318.7-48l27.71-16v-8l-27.71 16m0 0l-27.71-16v8l27.71 16m0-8v8" class="cls-1"/><path d="M374.12 464l-27.71 16 27.71 16 27.71-16-27.71-16zm-83.14 88l27.71-16v-8l-27.71 16m0 0l-27.71-16v8l27.71 16m0 0v-8" class="cls-1"/><path d="M290.98 544l27.71-16-27.71-16-27.71 16 27.71 16zm-64.08 5l22.51-13 27.72 16h-.01m-50.22-3l-5.2 3m69.28-104l27.71-16v8l-27.71 16m0-8l-27.71-16v8l27.71 16m0-8v8" class="cls-1"/><path d="M270.2 428l-6.93 4 27.71 16 27.71-16-27.71-16-20.78 12m-20.79 44l27.72-16v8l-27.72 16m0-8l-27.71-16v8l27.71 16m0-8v8" class="cls-1"/><path d="M228.63 452l-6.93 4 27.71 16 27.72-16-27.72-16-20.78 12m-20.79 52l27.72-16v-8l-27.72 16m0 0l-27.71-16v8l27.71 16m0 0v-8" class="cls-1"/><path d="M207.84 496l27.72-16-27.72-16-27.71 16 27.71 16zm-83.14 48l27.72-16v8l-27.72 16" class="cls-1"/><path d="M124.7 544l-27.71-16v8l27.71 16m.01-8v8" class="cls-1"/><path d="M124.71 512l-27.72 16 27.71 16 27.72-16-27.71-16zm124.7-88l27.72-16v8l-27.72 16m0-8l-27.71-16v8l27.71 16m0-8v8" class="cls-1"/><path d="M228.63 404l20.78-12 27.72 16-27.72 16" class="cls-1"/><path d="M228.63 404l-6.93 4 27.71 16m-41.57 24l27.72-16v8l-27.72 16m0-8l-27.71-16v8l27.71 16m0-8v8" class="cls-1"/><path d="M207.84 448l27.72-16-27.72-16-27.71 16 27.71 16m-41.56 32l27.71-16v-8l-27.71 16m0 8l-27.72-16v-8l27.72 16m-.01 8v-8" class="cls-1"/><path d="M166.28 472l-27.72-16 6.93-4" class="cls-1"/><path d="M166.28 472l27.71-16-27.71-16-20.79 12m-62.35 68l27.71-16v8l-27.71 16M83.14 520l-27.72-16v8l27.72 16m0-8v8" class="cls-1"/><path d="M83.14 520l-27.72-16 6.93-4" class="cls-1"/><path d="M83.14 520l27.71-16-27.71-16-20.79 12m145.49-100l27.72-16v8l-27.72 16m0-8l-27.71-16v8l27.71 16m0-8v8" class="cls-1"/><path d="M207.84 400l27.72-16-27.72-16-27.71 16 27.71 16m-41.56 32l27.71-16v-8l-27.71 16m-27.72-16v8l27.72 16m-27.72-24l27.71 16m0 8v-8m-27.71-16l27.72 16" class="cls-1"/><path d="M138.56 408l27.72-16 27.71 16-27.71 16m-41.57 32l27.71-16v-8l-27.71 16M124.71 448l-27.72-16v8l27.72 16m0 0v-8m0 0l27.71-16-27.71-16-27.72 16 27.72 16m-83.14 56l27.71-16v-8l-27.71 16m0 0l-27.72-16v8l27.72 16m0 0v-8" class="cls-1"/><path d="M41.57 496l27.71-16-27.71-16-27.72 16 27.72 16m166.27-240l27.72-16v8l-27.72 16m0-8l-27.71-16v8l27.71 16m0-8v8" class="cls-1"/><path d="M207.84 256l27.72-16-27.72-16-27.71 16 27.71 16zm-83.13 56l27.71-16v-8l-27.71 16M124.71 304l-27.72-16v8l27.72 16m0 0v-8m0 0l27.71-16-27.71-16-27.72 16 27.72 16zm41.57-16l27.71-16v-8l-27.71 16m0 0l-27.72-16v8l27.72 16m-.01 0v-8" class="cls-1"/><path d="M166.28 280l27.71-16-27.71-16-27.72 16 27.72 16zm41.56-112l27.72-16v-8l-27.72 16m0 8l-27.71-16v-8l27.71 16m0 8v-8" class="cls-1"/><path d="M187.06 140l-6.93 4 27.71 16 27.72-16-27.72-16-20.78 12m-20.78 44l27.71-16v8l-27.71 16m0-8l-27.72-16v8l27.72 16m0-8v8" class="cls-1"/><path d="M166.28 152l-27.72 16 27.72 16 27.71-16-27.71-16zm-41.57 64l27.71-16v-8l-27.71 16M124.71 216l-27.72-16v-8l27.72 16m0 8v-8" class="cls-1"/><path d="M124.71 176l-27.72 16 27.72 16 27.71-16-27.71-16zm-83.14 88l27.71-16v-8l-27.71 16m0 0l-27.71-16v8l27.71 16m0-8v8" class="cls-1"/><path d="M13.86 240l27.71 16 27.71-16-27.71-16-27.71 16zm152.42-104l27.71-16v8l-27.71 16m0-8l-27.72-16v8l27.72 16m0-8v8" class="cls-1"/><path d="M166.28 136l27.71-16-27.71-16-27.72 16 27.72 16m-41.57 32l27.71-16v-8l-27.71 16M124.71 160l-27.72-16v8l27.72 16m0-8v8m0-8l27.71-16-27.71-16-27.72 16 27.72 16m-41.57 32l27.71-16v-8l-27.71 16" class="cls-1"/><path d="M83.14 184l-27.72-16v8l27.72 16m0-8v8" class="cls-1"/><path d="M83.14 184l27.71-16-27.71-16-27.72 16 27.72 16M0 240l27.71-16v-8L0 232m0 0l27.71-16L0 200m124.71-80l27.71-16v-8l-27.71 16" class="cls-1"/><path d="M124.71 112L96.99 96v8l27.72 16m0-8v8m0-8l27.71-16-27.71-16-27.72 16 27.72 16m-41.57 32l27.71-16v-8l-27.71 16" class="cls-1"/><path d="M83.14 136l-27.72-16v8l27.72 16m0-8v8" class="cls-1"/><path d="M83.14 136l27.71-16-27.71-16-27.72 16 27.72 16m-41.57 32l27.71-16v-8l-27.71 16m0 0l-27.71-16v8l27.71 16m0-8v8" class="cls-1"/><path d="M41.57 160l27.71-16-27.71-16-27.71 16 27.71 16m263.27 392l27.71-16 27.71 16m13.86-8l-27.71-16v8l27.71 16m0 0l27.71-16v-8l-27.71 16m0 0v8" class="cls-1"/><path d="M374.12 544l27.71-16-27.71-16-27.71 16 27.71 16m41.57-24l-27.71-16v8l27.71 16m0-8l27.71-16v8l-27.71 16m0-8v8" class="cls-1"/><path d="M387.98 504l27.71 16 27.71-16-27.71-16-27.71 16zm69.28 40l-27.71-16v8l27.71 16m19.48-19.25L457.26 544m27.71-16l-8.23 4.75m8.23-4.75v8l-27.71 16m0-8v8m27.71-24l-27.71-16-27.71 16 27.71 16 19.48-11.25m0 0l8.23-4.75m41.57 24l-27.71-16-27.71 16m110.85-224l-27.72-16v8l27.72 16m0-8l27.71-16v8l-27.71 16m-.01-8v8" class="cls-1"/><path d="M581.97 328l27.71-16-27.72-16-27.71 16 27.72 16m83.13 48l-27.71-16v8l27.71 16m0-8l27.72-16v8l-27.72 16m0-8v8" class="cls-1"/><path d="M665.1 376l27.72-16-27.72-16-27.71 16 27.71 16m83.14 48l-27.71-16v8l27.71 16m0 0l27.71-16v-8l-27.71 16m0 8v-8" class="cls-1"/><path d="M748.24 424l27.71-16-27.71-16-27.71 16 27.71 16m-41.57-24l-27.71-16v8l27.71 16m0 0l27.71-16v-8l-27.71 16m0 0v8" class="cls-1"/><path d="M706.67 400l27.71-16-27.71-16-27.71 16 27.71 16M665.1 280l-27.71-16v8l27.71 16m0-8l27.72-16v8l-27.72 16m0-8v8" class="cls-1"/><path d="M665.1 280l27.72-16-27.72-16-27.71 16 27.71 16m41.57 24l-27.71-16v8l27.71 16m0 0l27.71-16v-8l-27.71 16m0 8v-8" class="cls-1"/><path d="M687.63 282.99L706.67 272l27.71 16-27.71 16" class="cls-1"/><path d="M687.63 282.99l-8.67 5.01 27.71 16m41.57 24l-27.71-16v8l27.71 16m0 0l27.71-16v-8l-27.71 16m0 8v-8" class="cls-1"/><path d="M748.24 328l27.71-16-27.71-16-19.04 10.99" class="cls-1"/><path d="M729.2 306.99l-8.67 5.01 27.71 16m83.14 48l-27.71-16v8l27.71 16m0-8l27.71-16v8l-27.71 16m0-8v8" class="cls-1"/><path d="M831.38 376l27.71-16-27.71-16-19.04 10.99M831.38 376l-27.71-16 8.67-5.01M748.24 280l-27.71-16v8l27.71 16m0 0l27.71-16v-8l-27.71 16m0 0v8" class="cls-1"/><path d="M775.95 264l-27.71-16-27.71 16 27.71 16 27.71-16zm13.86 40l-27.71-16v8l27.71 16m0-8l27.71-16v8l-27.71 16m0-8v8" class="cls-1"/><path d="M770.77 282.99L762.1 288l27.71 16 27.71-16-27.71-16-19.04 10.99M872.95 352l-27.71-16v8l27.71 16m0-8l27.71-16v8l-27.71 16m0-8v8" class="cls-1"/><path d="M845.24 336l27.71 16 27.71-16-27.71-16-27.71 16zm-97-104l-27.71-16v8l27.71 16m0 0l27.71-16v-8l-27.71 16m0 8v-8" class="cls-1"/><path d="M748.24 232l27.71-16-27.71-16-27.71 16 27.71 16m41.57 24l-27.71-16v8l27.71 16m0 0l27.71-16v-8l-27.71 16m0 0v8" class="cls-1"/><path d="M789.81 256l27.71-16-27.71-16-27.71 16 27.71 16m41.57 24l-27.71-16v8l27.71 16m0-8l27.71-16v8l-27.71 16m0-8v8" class="cls-1"/><path d="M831.38 280l27.71-16-27.71-16-27.71 16 27.71 16m83.14 48l-27.72-16v8l27.72 16m0-8l27.71-16v8l-27.71 16m0-8v8" class="cls-1"/><path d="M914.52 328l27.71-16-27.71-16-27.72 16 27.72 16m41.57 216l-27.71-16v8l27.71 16m0-8l27.71-16v8l-27.71 16m0-8v8" class="cls-1"/><path d="M956.09 544l27.71-16-27.71-16-27.71 16 27.71 16m-41.57-24l-27.71-16v8l27.71 16m0-8l27.71-16v8l-27.71 16m0-8v8" class="cls-1"/><path d="M914.52 520l27.71-16-27.71-16-27.71 16 27.71 16m-41.57-120l-27.71-16v8l27.71 16m0-8l27.71-16v8l-27.71 16m0-8v8" class="cls-1"/><path d="M872.95 400l27.71-16-27.71-16-27.71 16 27.71 16m41.57 24l-27.72-16v8l27.72 16m0 0l27.71-16v-8l-27.71 16m0 0v8" class="cls-1"/><path d="M914.52 424l27.71-16-27.71-16-19.05 10.99M914.52 424l-27.72-16 8.67-5.01M956.09 448l-27.71-16v8l27.71 16m0 0l27.71-16v-8l-27.71 16m0 8v-8" class="cls-1"/><path d="M937.04 426.99l-8.66 5.01 27.71 16m0 0l27.71-16-27.71-16-19.05 10.99M1039.23 496l-27.72-16v8l27.72 16m0-8l27.71-16v8l-27.71 16m0-8v8" class="cls-1"/><path d="M1020.18 474.99l-8.67 5.01 27.72 16m0 0l27.71-16-27.71-16-19.05 10.99M914.52 376l-27.72-16v8l27.72 16m0-8l27.71-16v8l-27.71 16m0-8v8" class="cls-1"/><path d="M886.8 360l27.72 16 27.71-16-27.71-16-27.72 16zm69.29 40l-27.72-16v8l27.72 16m0-8l27.71-16v8l-27.71 16m0-8v8" class="cls-1"/><path d="M956.09 368l-27.72 16 27.72 16 27.71-16-27.71-16zm41.57 56l-27.72-16v8l27.72 16" class="cls-1"/><path d="M997.66 424l27.71-16v8l-27.71 16m0-8v8" class="cls-1"/><path d="M997.66 424l27.71-16-27.71-16-27.72 16 27.72 16zm83.13 48l-27.71-16v8l27.71 16m0-8l27.72-16v8l-27.72 16m0-8v8" class="cls-1"/><path d="M1061.75 450.99l-8.67 5.01 27.71 16 27.72-16-27.72-16-19.04 10.99M956.09 352l-27.72-16v8l27.72 16m0-8l27.71-16v8l-27.71 16m0-8v8" class="cls-1"/><path d="M956.09 352l27.71-16-27.71-16-27.72 16 27.72 16m41.57 24l-27.72-16v8l27.72 16" class="cls-1"/><path d="M997.66 384l27.71-16v-8l-27.71 16m0 8v-8" class="cls-1"/><path d="M997.66 376l27.71-16-27.71-16-27.72 16 27.72 16m41.56 24l-27.71-16v8l27.71 16m0 0l27.72-16v-8l-27.72 16m.01 8v-8" class="cls-1"/><path d="M1020.18 378.99l-8.67 5.01 27.71 16m0 0l27.72-16-27.72-16-19.04 10.99M1122.36 448l-27.71-16v8l27.71 16m0 0l27.72-16v-8l-27.72 16m0 8v-8" class="cls-1"/><path d="M1122.36 448l27.72-16-27.72-16-27.71 16 27.71 16m83.14 96l-27.71-16v8l27.71 16" class="cls-1"/><path d="M1205.5 512l-27.71 16 27.71 16m0-48l-27.71-16v8l27.71 16" class="cls-1"/><path d="M1205.5 464l-27.71 16 27.71 16m-41.57-16l27.71-16v-8l-27.71 16m0 0l-27.71-16v8l27.71 16m0 0v-8" class="cls-1"/><path d="M1163.93 472l27.71-16-27.71-16-27.71 16 27.71 16zm-41.57 24l27.72-16v8l-27.72 16m0-8l-27.71-16v8l27.71 16m0-8v8" class="cls-1"/><path d="M1122.36 496l27.72-16-27.72-16-27.71 16 27.71 16zm-96.99 56l-27.72-16-27.71 16M374.12 208l-27.71-16v8l27.71 16m0 0l27.71-16v-8l-27.71 16m0 8v-8" class="cls-1"/><path d="M374.12 208l27.71-16-27.71-16-27.71 16 27.71 16m83.14 48l-27.71-16v8l27.71 16m0 0l27.71-16v-8l-27.71 16m0 8v-8" class="cls-1"/><path d="M457.26 256l27.71-16-27.71-16-27.71 16 27.71 16m83.14 48l-27.72-16v8l27.72 16m0 0l27.71-16v-8l-27.71 16m0 0v8" class="cls-1"/><path d="M540.4 304l27.71-16-27.71-16-27.72 16 27.72 16m-41.57-24l-27.72-16v8l27.72 16" class="cls-1"/><path d="M498.83 288l27.71-16v-8l-27.71 16m0 0v8" class="cls-1"/><path d="M498.83 280l27.71-16-27.71-16-27.72 16 27.72 16m0-96l-27.72-16v8l27.72 16" class="cls-1"/><path d="M498.83 192l27.71-16v-8m-27.71 16l27.71-16m-27.71 24v-8m0 0l27.71-16m0 0l-27.71-16-27.72 16 27.72 16m41.57 32l-27.72-16v-8l27.72 16m0 8l27.71-16v-8l-27.71 16m0 8v-8" class="cls-1"/><path d="M521.35 186.99L540.4 176l27.71 16-27.71 16" class="cls-1"/><path d="M521.35 186.99l-8.67 5.01 27.72 16m-41.57-72l-27.72-16m0 0v8l27.72 16" class="cls-1"/><path d="M498.83 144l27.71-16v-8l-27.71 16m0 8v-8m0 0l-27.72-16" class="cls-1"/><path d="M498.83 136l27.71-16-27.71-16-27.72 16m41.57 24l27.72 16m-27.72-16v8l27.72 16m0 0l27.71-16v-8l-27.71 16m0 8v-8m-27.72-16l27.72 16" class="cls-1"/><path d="M512.68 144l27.72-16 27.71 16-27.71 16m13.85 8l27.72 16m-27.72-16v8l27.72 16m27.71-24l-27.72 16m.01 8l27.71-16v-8m-27.72 24v-8" class="cls-1"/><path d="M609.68 168l-27.71-16-27.72 16m27.72 16l27.71-16m-55.43 0l27.71 16m83.14 56l-27.71-16v-8m27.71 16l-27.71-16m27.71 24l27.72-16v-8l-27.72 16m0 0v8m-19.04-29.01l-8.67 5.01" class="cls-1"/><path d="M665.1 232l27.72-16-27.72-16-19.04 10.99M665.1 232l-27.71-16M540.4 112l-27.72-16v8l27.72 16m0 0l27.71-16v-8l-27.71 16m0 8v-8" class="cls-1"/><path d="M540.4 112l27.71-16-27.72-16-27.71 16 27.72 16m41.56 32l-27.71-16v-8l27.71 16m0 8l27.72-16v-8l-27.72 16m0 8v-8" class="cls-1"/><path d="M581.96 136l27.72-16-27.72-16-27.71 16 27.71 16m41.57 32l-27.71-16v-8l27.71 16m0 8l27.72-16v-8l-27.72 16m0 8v-8" class="cls-1"/><path d="M604.49 138.99L623.53 128l27.72 16-27.72 16" class="cls-1"/><path d="M604.49 138.99l-8.67 5.01 27.71 16m83.14 56l-27.71-16v-8l27.71 16m0 8l27.71-16v-8m0 0l-27.71 16m0 8v-8m0 0l27.71-16" class="cls-1"/><path d="M734.38 192l-27.71-16-27.71 16 27.71 16M457.26 496l-27.71-16v8l27.71 16m0-8l27.71-16v8l-27.71 16m0-8v8" class="cls-1"/><path d="M457.26 496l27.71-16-27.71-16-27.71 16 27.71 16m83.14 48l-27.72-16v8l27.72 16m0-8l27.71-16v8l-27.71 16m0-8v8" class="cls-1"/><path d="M540.4 544l27.71-16-27.71-16-27.72 16 27.72 16m-41.57-24l-27.71-16v8l27.71 16m0-8l27.71-16v8l-27.71 16m0-8v8" class="cls-1"/><path d="M498.83 520l27.71-16-27.71-16-19.05 10.99" class="cls-1"/><path d="M498.83 520l-27.71-16 8.66-5.01M457.26 400l-27.71-16v8l27.71 16m0 0l27.71-16v-8m0 0l-27.71 16m0 0v8" class="cls-1"/><path d="M484.97 384l-27.71-16-27.71 16 27.71 16m0 0l27.71-16m13.86 40l-27.72-16v8l27.72 16" class="cls-1"/><path d="M498.83 432l27.71-16v-8l-27.71 16m0 8v-8" class="cls-1"/><path d="M498.83 424l27.71-16-27.71-16-27.72 16 27.72 16m41.57 24l-27.72-16v8l27.72 16m0-8l27.71-16v8l-27.71 16m0-8v8" class="cls-1"/><path d="M540.4 448l27.71-16-27.71-16-27.72 16 27.72 16m41.57-24l-27.72-16v8l27.72 16m27.71-24l-8.24 4.75M581.97 424l19.47-11.25" class="cls-1"/><path d="M609.68 408v8l-27.71 16m0 0v-8m27.71-16l-27.71-16-27.72 16 27.72 16 19.48-11.25m8.23-4.75l-8.23 4.75M581.97 376l-27.72-16v8l27.72 16m0-8l27.71-16v8l-27.71 16m-.01-8v8" class="cls-1"/><path d="M581.97 376l27.71-16-27.71-16-27.72 16 27.72 16m41.56 24l-27.71-16v8l27.71 16m0-8l27.72-16v8l-27.72 16m0-8v8" class="cls-1"/><path d="M604.49 378.99l-8.67 5.01 27.71 16" class="cls-1"/><path d="M623.53 400l27.72-16-27.72-16-19.04 10.99M609.68 552l-27.71-16-27.72 16m110.85-32l-27.71-16v8l27.71 16m0-8l27.72-16v8l-27.72 16m0-8v8" class="cls-1"/><path d="M665.1 520l27.72-16-27.72-16-27.71 16 27.71 16m41.57 24l-27.71-16v8l27.71 16m0-8l27.72-16v8l-27.72 16m0-8v8" class="cls-1"/><path d="M706.67 544l27.72-16-27.72-16-27.71 16 27.71 16m69.28 8h.01l-27.72-16-27.71 16m-13.86-56l-27.71-16v8l27.71 16m0-8l27.72-16v8l-27.72 16m0-8v8" class="cls-1"/><path d="M678.96 480l27.71 16 27.72-16-27.72-16-27.71 16zm69.28 40l-27.71-16v8l27.71 16m0-8l27.72-16v8l-27.72 16m0-8v8" class="cls-1"/><path d="M729.2 498.99l-8.67 5.01 27.71 16 27.72-16-27.72-16-19.04 10.99M789.81 544l-27.71-16v8l27.71 16m0-8l27.71-16v8l-27.71 16m0-8v8" class="cls-1"/><path d="M770.77 522.99L762.1 528l27.71 16 27.71-16-27.71-16-19.04 10.99M748.24 472l-27.71-16v8l27.71 16m0 0l27.72-16v-8l-27.72 16m0 8v-8" class="cls-1"/><path d="M748.24 472l27.72-16-27.72-16-27.71 16 27.71 16m41.57 24l-27.71-16v8l27.71 16m0-8l27.71-16v8l-27.71 16m0-8v8" class="cls-1"/><path d="M789.81 496l27.71-16-27.71-16-19.04 10.99" class="cls-1"/><path d="M770.77 474.99L762.1 480l27.71 16m41.57 24l-27.71-16v8l27.71 16m0-8l27.71-16v8l-27.71 16m0-8v8" class="cls-1"/><path d="M812.34 498.99l-8.67 5.01 27.71 16" class="cls-1"/><path d="M831.38 520l27.71-16-27.71-16-19.04 10.99M942.23 552l-27.71-16-27.71 16m318.69-96l-27.71-16v-8l27.71 16" class="cls-1"/><path d="M1205.5 448l-27.71-16 27.71-16m-41.57 16l27.71-16v-8m0 0l-27.71 16m0 8l-27.71-16v-8l27.71 16m0 8v-8" class="cls-1"/><path d="M1191.64 408l-27.71-16-27.71 16 27.71 16m0 0l27.71-16m13.86-56l-27.71-16v8l27.71 16" class="cls-1"/><path d="M1205.5 320l-27.71 16 27.71 16m-83.14 56l27.72-16v-8l-27.72 16m0 0l-27.71-16v8l27.71 16m0 0v-8" class="cls-1"/><path d="M1122.36 400l27.72-16-27.72-16-27.71 16 27.71 16M41.57 16L13.86 0m27.71 24L13.86 8V0m27.71 16L69.28 0M41.57 24L69.28 8V0M41.57 24v-8m0 0L13.86 0m27.71 16L69.28 0m55.43 64L97 48v8l27.71 16" class="cls-1"/><path d="M124.71 72l27.71-16v-8l-27.71 16m0 0v8" class="cls-1"/><path d="M124.71 64l27.71-16-27.71-16L97 48l27.71 16M83.14 40L55.43 24v8l27.71 16m0 0l27.71-16v-8L83.14 40m0 8v-8" class="cls-1"/><path d="M83.14 40l27.71-16L83.14 8 64.1 18.99" class="cls-1"/><path d="M64.1 18.99L55.43 24l27.71 16m124.71-24L180.13 0v8l27.72 16m0 0l27.71-16V0l-27.71 16m0 0v8m0-8l27.71-16m-55.43 0l27.72 16m-97 56L83.14 88m0 8l27.71-16v-8M83.14 88L55.42 72v8l27.72 16m0-8v8" class="cls-1"/><path d="M83.14 88L55.42 72l8.66-5m19.06 21l27.71-16m0 0L83.14 56 64.08 67M0 144l27.71-16v-8m0 0L0 136m0 0l27.71-16m0 0L0 104m27.71-80v8L0 48m27.71-24L0 40m27.71-16L0 40m27.71-16L0 8m526.54 64v8l-27.71 16m27.71-24l-27.71 16m0 0l-27.71-16v8l27.71 16m0-8v8m0-8l27.71-16" class="cls-1"/><path d="M526.54 72l-27.71-16-27.71 16 27.71 16m-55.43 32l-27.71 16m27.71-16v8l-27.71 16m0-8l-27.71-16v8l27.71 16m0-8v8" class="cls-1"/><path d="M443.4 120l-27.71-16-27.71 16 27.71 16m27.71-16l-27.71 16m-83.14 56l27.71-16v-8m0 0l-27.71 16m-27.71-16l27.71 16m0 8l-27.71-16v-8m27.71 24v-8m27.71-16l-27.71-16-27.71 16m55.42 0l-27.71 16m-27.71-16l27.71 16m69.28-40l-27.71 16m27.71-16v8l-27.71 16m0-8l-27.71-16v8l27.71 16m0-8v8" class="cls-1"/><path d="M401.83 144l-27.71-16-27.71 16 27.71 16m0 0l27.71-16m13.86-96l27.71-16v-8m0 0l-27.71 16m0 0l-27.71-16v8l27.71 16m0-8v8m0-8l27.71-16" class="cls-1"/><path d="M443.4 24L415.69 8l-27.71 16 27.71 16m-13.86 8l-27.71 16m0 8l27.71-16v-8m-27.71 16l-27.71-16v8l27.71 16m0-8v8" class="cls-1"/><path d="M401.83 48l-27.71-16-27.71 16 27.71 16m0 0l27.71-16m-41.57 24v8l-27.71 16m27.71-24l-27.71 16m0 0l-27.71-16v8l27.71 16m0-8v8" class="cls-1"/><path d="M360.26 72l-27.71-16-27.71 16 27.71 16m0 0l27.72-16m13.85-48l27.71-16V0l-27.71 16m0 0L346.41 0v8l27.71 16m0-8v8m0-8l27.71-16m-27.71 16L346.41 0m-13.86 48l27.71-16v-8l-27.71 16m0 0l-27.71-16v8l27.71 16m0-8v8" class="cls-1"/><path d="M332.55 40l27.72-16-27.72-16-27.71 16 27.71 16m-41.57 32l27.72-16v-8l-27.72 16m0 0l-27.71-16v8l27.71 16m0-8v8" class="cls-1"/><path d="M290.98 64l27.72-16-27.72-16-27.71 16 27.71 16m-83.14 56l27.72-16v-8l-27.72 16m0 0l-27.71-16v8l27.71 16m0-8v8" class="cls-1"/><path d="M207.84 112l27.72-16-27.72-16-27.71 16 27.71 16m83.14-88L318.7 8V0l-27.72 16m0 0L263.27 0v8l27.71 16m0-8v8" class="cls-1"/><path d="M263.27 0l27.71 16L318.7 0m-69.29 48l27.72-16v-8l-27.72 16m0 8L221.7 32v-8l27.71 16m0 8v-8" class="cls-1"/><path d="M249.41 8L221.7 24l27.71 16 27.72-16-27.72-16zm249.42 32l-27.71-16v8l27.71 16m0 0l27.71-16v-8l-27.71 16m0 0v8" class="cls-1"/><path d="M498.83 40l27.71-16-27.71-16-27.71 16 27.71 16m166.28 96l-27.72-16v8l27.72 16m0 0l27.71-16v-8l-27.71 16m0 0v8" class="cls-1"/><path d="M665.11 136l27.71-16-27.71-16-19.05 10.99m0 0l-8.67 5.01 27.72 16m-41.57-24l-27.71-16v8l27.71 16m0 0l27.71-16v-8l-27.71 16m0 0v8" class="cls-1"/><path d="M623.54 112l27.71-16-27.71-16-27.71 16 27.71 16m0-96L595.83 0m27.71 24L595.83 8V0m55.42 0l-27.71 16m27.71-16v8l-27.71 16m0 0v-8m27.71-16l-27.71 16M595.83 0l27.71 16m13.85 8v8l27.72 16m0 0l27.71-16v-8l-27.71 16m0 8v-8m-19.05-21.01L637.39 24M665.11 40l27.71-16-27.71-16-19.05 10.99M665.11 40l-27.72-16m110.86 64l-27.72-16m0 0v8l27.72 16m0 0l27.71-16v-8l-27.71 16m0 8v-8m0 0l-27.72-16" class="cls-1"/><path d="M748.25 88l27.71-16-27.71-16-27.72 16M678.96 0v8l27.72 16M678.96 0l27.72 16" class="cls-1"/><path d="M706.68 24l27.71-16V0m-27.71 16l27.71-16m-27.71 24v-8m0 0L678.96 0m27.72 16l27.71-16m55.42 64L762.1 48v8l27.71 16" class="cls-1"/><path d="M789.81 72l27.72-16v-8l-27.72 16m0 0v8m0-8L762.1 48l5.21-3.01" class="cls-1"/><path d="M789.81 64l27.72-16-27.72-16-19.04 10.99m-3.46 2l3.46-2M803.67 24l27.71 16m-27.71-16v8l27.71 16m0 0l27.72-16v-8l-27.72 16m0 0v8m-27.71-24l27.71 16" class="cls-1"/><path d="M831.38 40l27.72-16-27.72-16-27.71 16m69.28 232l-27.71-16v8l27.71 16m0-8l27.71-16v8l-27.71 16m0-8v8" class="cls-1"/><path d="M853.9 234.99l-8.66 5.01 27.71 16m0 0l27.71-16-27.71-16-19.05 10.99M831.38 232l-27.71-16v8l27.71 16m0 0l27.71-16v-8l-27.71 16m0 8v-8" class="cls-1"/><path d="M831.38 232l27.71-16-27.71-16-27.71 16 27.71 16m-41.57-120L762.1 96v8l27.71 16" class="cls-1"/><path d="M789.81 120l27.71-16v-8l-27.71 16m0 0v8" class="cls-1"/><path d="M789.81 112l27.71-16-27.71-16-27.71 16 27.71 16m41.57 24l-27.71-16v8l27.71 16m0 0l27.71-16v-8l-27.71 16m0 0v8" class="cls-1"/><path d="M831.38 136l27.71-16-27.71-16-27.71 16 27.71 16m41.57 24l-27.71-16v8l27.71 16m0 0l27.71-16v-8l-27.71 16m0 0v8" class="cls-1"/><path d="M872.95 160l27.71-16-27.71-16-27.72 16 27.72 16m83.14 48l-27.72-16v8l27.72 16m0 0l27.71-16v-8l-27.71 16m0 8v-8" class="cls-1"/><path d="M956.09 208l27.71-16-27.71-16-27.72 16 27.72 16M803.66 72l27.72 16m-27.72-16v8l27.72 16m0 0l27.71-16v-8m0 0l-27.71 16m0 8v-8m27.71-16l-27.71-16-27.72 16m.01 0l27.71 16m0 0l27.71-16m-13.86 24v8l27.72 16m0-8l-27.72-16m27.72 24l27.71-16v-8l-27.71 16m0 0v8" class="cls-1"/><path d="M872.95 112l27.71-16-27.71-16-19.05 10.99m0 0L845.23 96m27.72 16l-27.72-16m41.57 24v8l27.72 16m0-8l-27.72-16m27.72 24l27.71-16v-8l-27.71 16m0 8v-8m0 0l-27.72-16m8.67-5.01L886.8 120M914.52 136l27.71-16-27.71-16-19.05 10.99M997.65 184l-27.71-16m27.71 24l-27.71-16v-8m27.71 24l27.72-16v-8l-27.72 16m0 0v8m-22.5-27.01l-5.21 3.01m27.71 16l-27.71-16" class="cls-1"/><path d="M997.65 184l27.72-16-27.72-16-19.04 10.99m-3.46 2l3.46-2M872.95 64l-27.72-16v8l27.72 16m0 0l27.71-16v-8l-27.71 16m0 8v-8" class="cls-1"/><path d="M872.95 64l27.71-16-27.71-16-27.72 16 27.72 16m41.57 32L886.8 80v-8l27.72 16m0 8l27.71-16v-8m0 0l-27.71 16m0 8v-8" class="cls-1"/><path d="M895.47 66.99L886.8 72l27.72 16m-19.05-21.01L914.52 56l27.71 16m-27.71 16l27.71-16m13.86 40l-27.72-16v8l27.72 16m0 0l27.71-16v-8l-27.71 16m0 8v-8" class="cls-1"/><path d="M937.04 90.99L928.37 96l27.72 16" class="cls-1"/><path d="M937.04 90.99L956.09 80l27.71 16-27.71 16m83.13 48l-27.71-16v8l27.71 16m0 0l27.72-16v-8l-27.72 16m0 8v-8" class="cls-1"/><path d="M1039.22 160l27.72-16-27.72-16-27.71 16 27.71 16m-124.7 120l-27.72-16v8l27.72 16m27.71-24l-27.71 16m0 8l27.71-16v-8m-27.71 16v8m0-8l27.71-16" class="cls-1"/><path d="M942.23 264l-27.71-16-27.72 16 27.72 16m83.14 48l-27.72-16v8l27.72 16" class="cls-1"/><path d="M997.66 328l27.71-16v8l-27.71 16m0-8v8" class="cls-1"/><path d="M997.66 328l27.71-16-27.72-16-27.71 16 27.72 16m83.13 48l-27.71-16v8l27.71 16m0 0l27.72-16v-8l-27.72 16m0 8v-8" class="cls-1"/><path d="M1061.75 354.99l19.04-10.99 27.72 16-27.72 16" class="cls-1"/><path d="M1061.75 354.99l-8.67 5.01 27.71 16m-41.57-24l-27.71-16v8l27.71 16m0-8l27.72-16v8l-27.72 16m0-8v8" class="cls-1"/><path d="M1020.18 330.99l-8.67 5.01 27.71 16m0 0l27.72-16-27.72-16-19.04 10.99M997.65 232l-27.71-16v8l27.71 16" class="cls-1"/><path d="M997.65 232l27.72-16v8l-27.72 16m.01-8v8" class="cls-1"/><path d="M997.65 232l27.72-16-27.72-16-27.71 16 27.71 16m41.57 24l-27.71-16v8l27.71 16m0-8l27.72-16v8l-27.72 16m0-8v8" class="cls-1"/><path d="M1039.22 256l27.72-16-27.72-16-27.71 16 27.71 16m124.71 72l-27.71-16v8l27.71 16m0-8l27.71-16m0 0v8l-27.71 16m0-8v8" class="cls-1"/><path d="M1163.93 328l-27.71-16 27.71-16 27.71 16m-27.71 16l27.71-16m-180.13-120v8l27.71 16m-27.71-24l27.71 16m0 0l27.72-16v8l-27.72 16m0-8v8m-27.71-24l27.71 16" class="cls-1"/><path d="M1039.22 208l27.72-16-27.72-16-27.71 16m41.57 24v8l27.71 16m0 0l27.72-16v-8l-27.72 16m0 8v-8" class="cls-1"/><path d="M1053.08 216l27.71-16 27.72 16-27.72 16m-27.71-16l27.71 16m124.71 72l-27.71-16m0 0v8l27.71 16m-27.71-24l27.71 16m0-32l-27.71 16m-97-104l-27.71-16v8l27.71 16m0 0l27.72-16v-8l-27.72 16m0 0v8" class="cls-1"/><path d="M1080.79 184l27.72-16-27.72-16-27.71 16 27.71 16m41.57 24l-27.71-16v8l27.71 16m0 0l27.72-16v-8l-27.72 16m0 8v-8" class="cls-1"/><path d="M1122.36 208l27.72-16-27.72-16-19.04 10.99" class="cls-1"/><path d="M1103.32 186.99l-8.67 5.01 27.71 16M166.27 336l-27.71-16v-8l27.71 16m0 8l27.72-16v-8l-27.72 16m0 8v-8" class="cls-1"/><path d="M166.27 296l-27.71 16 27.71 16 27.72-16-27.72-16zm83.14 80l-27.71-16v8l27.71 16m0 0l27.72-16v-8l-27.72 16m0 8v-8" class="cls-1"/><path d="M249.41 376l27.72-16-27.72-16-27.71 16 27.71 16zm83.14 48l-27.71-16v8l27.71 16m0 0l27.71-16v-8l-27.71 16m0 8v-8" class="cls-1"/><path d="M360.26 408l-27.71-16-27.71 16 27.71 16 27.71-16zm-69.28-8l-27.71-16v8l27.71 16m0 0l27.71-16v-8l-27.71 16m0 8v-8" class="cls-1"/><path d="M271.94 378.99l-8.67 5.01 27.71 16 27.71-16-27.71-16-19.04 10.99M249.41 288l-27.71-16v-8l27.71 16m0 8l27.72-16v-8l-27.72 16m0 8v-8" class="cls-1"/><path d="M249.41 248l-27.71 16 27.71 16 27.72-16-27.72-16zm41.57 56l-27.71-16v8l27.71 16m0 0l27.71-16v-8l-27.71 16m0 8v-8" class="cls-1"/><path d="M263.27 288l27.71 16 27.71-16-27.71-16-27.71 16zm69.28 40l-27.71-16v8l27.71 16m0-8l27.71-16v8l-27.71 16m0-8v8" class="cls-1"/><path d="M304.84 312l27.71 16 27.71-16-27.71-16-27.71 16zm-13.86-56l-27.71-16v8l27.71 16m0 0l27.71-16v-8l-27.71 16m0 0v8" class="cls-1"/><path d="M290.98 256l27.71-16-27.71-16-27.71 16 27.71 16m41.57 24l-27.71-16v8l27.71 16m0-8l27.71-16v8l-27.71 16m0-8v8" class="cls-1"/><path d="M332.55 280l27.71-16-27.71-16-27.71 16 27.71 16m41.57 24l-27.71-16v8l27.71 16m0-8l27.71-16v8l-27.71 16m0-8v8" class="cls-1"/><path d="M374.12 304l27.71-16-27.71-16-27.71 16 27.71 16m0-48l-27.71-16v8l27.71 16m0 0l27.71-16v-8l-27.71 16m0 8v-8" class="cls-1"/><path d="M374.12 256l27.71-16-27.71-16-27.71 16 27.71 16m41.57 24l-27.71-16v8l27.71 16m0-8l27.71-16v8l-27.71 16m0-8v8" class="cls-1"/><path d="M396.64 258.99l-8.66 5.01 27.71 16m0 0l27.71-16-27.71-16-19.05 10.99M0 480l27.71-16v-8L0 472m0 0l27.71-16L0 440m0-56l27.71-16v-8L0 376m0 0l27.71-16L0 344m55.42 64v8l27.72 16m-27.72-24l27.72 16m27.71-16l-27.71 16m0 8l27.71-16v-8m-27.71 24v-8m-27.72-16l27.72 16m0 0l27.71-16m0 0l-27.71-16-27.72 16M0 336l27.71-16v-8L0 328m0 0l27.71-16L0 296m41.57 56l-27.72-16v8l27.72 16m0-8l27.71-16v8l-27.71 16m0-8v8" class="cls-1"/><path d="M41.57 352l27.71-16-27.71-16-19.05 10.99" class="cls-1"/><path d="M41.57 352l-27.72-16 8.67-5.01M124.7 400l-27.71-16v8l27.71 16" class="cls-1"/><path d="M124.7 408l27.72-16v-8l-27.72 16m.01 0v8m-.01-8l-27.71-16 5.21-3.01M124.7 400l27.72-16-27.72-16-19.04 10.99m-3.46 2l3.46-2M55.42 312v8l27.72 16m-27.72-24l27.72 16" class="cls-1"/><path d="M83.14 328l27.71-16v8l-27.71 16m0-8v8" class="cls-1"/><path d="M83.14 328l27.71-16-27.71-16-27.72 16m0 0l27.72 16m55.42 32v8l27.71 16m-27.71-24l27.71 16m0 8l27.72-16v-8l-27.72 16m0 0v8m-27.71-24l27.71 16" class="cls-1"/><path d="M166.27 376l27.72-16-27.72-16-27.71 16M1205.5 208l-27.71-16v8l27.71 16" class="cls-1"/><path d="M1205.5 208l-27.71-16 27.71-16m-41.57 16l27.71-16v-8l-27.71 16m0 0l-27.71-16v8l27.71 16m0 0v-8" class="cls-1"/><path d="M1136.22 168l27.71 16 27.71-16-27.71-16-27.71 16zM872.95 16L845.23 0v8l27.72 16m0 0l27.71-16V0m-27.71 16l19.48-11.25M900.66 0l-8.23 4.75M872.95 24v-8" class="cls-1"/><path d="M845.24 0h-.01l27.72 16 19.48-11.25m0 0L900.66 0m55.43 64l-27.72-16v8l27.72 16m0 0l27.71-16v-8l-27.71 16m0 8v-8" class="cls-1"/><path d="M956.09 64l27.71-16-27.71-16-27.72 16 27.72 16m83.13 48l-27.71-16v8l27.71 16m0 0l27.72-16v-8l-27.72 16m0 8v-8" class="cls-1"/><path d="M1039.22 112l27.72-16-27.72-16-27.71 16 27.71 16m83.14 48l-27.71-16v8l27.71 16m0 0l27.72-16v-8l-27.72 16m0 8v-8" class="cls-1"/><path d="M1122.36 160l27.72-16-27.72-16-27.71 16 27.71 16m-41.57-24l-27.71-16v8l27.71 16m0 0l27.72-16v-8l-27.72 16m0 0v8" class="cls-1"/><path d="M1080.79 136l27.72-16-27.72-16-27.71 16 27.71 16m-41.57-120l-27.71-16v8l27.71 16m0 0l27.72-16V0l-27.72 16m0 8v-8m-27.71-16l27.71 16m0 0l27.72-16h-.01m55.43 64l-27.71-16v8l27.71 16m0 0l27.71-16v-8l-27.71 16m0 0v8" class="cls-1"/><path d="M1122.36 64l27.71-16-27.71-16-27.71 16 27.71 16m83.14 56l-27.71-16v-8l27.71 16" class="cls-1"/><path d="M1205.5 112l-27.71-16 8.67-5m19.04-11l-19.04 11m-64.1-75l-27.71-16v8l27.71 16m0 0l27.71-16V0l-27.71 16m0 0v8m0-8l27.71-16m-27.71 16l-27.71-16m69.28 40l-27.71-16v8l27.71 16m0 0l27.71-16v-8l-27.71 16m0 8v-8" class="cls-1"/><path d="M1163.93 40l27.71-16-27.71-16-27.71 16 27.71 16m13.86-40v8l27.71 16m-27.71-24l27.71 16m-27.71-16l27.71 16" class="cls-1"/></svg>