<svg width="541" height="348" viewBox="0 0 541 348" fill="none" xmlns="http://www.w3.org/2000/svg">
<path d="M145 51.6627H243C244.795 51.6627 246.25 53.1178 246.25 54.9127V343.544C246.25 345.339 244.795 346.794 243 346.794H145C143.205 346.794 141.75 345.339 141.75 343.544V54.9127C141.75 53.1178 143.205 51.6627 145 51.6627Z" stroke="#D2D4DB" stroke-width="1.5"/>
<path d="M439 51.6627H537C538.795 51.6627 540.25 53.1178 540.25 54.9127V343.544C540.25 345.339 538.795 346.794 537 346.794H439C437.205 346.794 435.75 345.339 435.75 343.544V54.9127C435.75 53.1178 437.205 51.6627 439 51.6627Z" stroke="#D2D4DB" stroke-width="1.5"/>
<rect x="153" y="42.8412" width="42" height="16.1432" fill="white"/>
<rect x="447" y="42.8412" width="42" height="16.1432" fill="white"/>
<path d="M160.497 46.1475C161.51 46.1475 162.249 46.3659 162.715 46.8027C163.18 47.236 163.413 47.834 163.413 48.5967C163.413 48.9404 163.361 49.2699 163.257 49.585C163.153 49.8965 162.983 50.174 162.747 50.4175C162.514 50.661 162.203 50.8543 161.812 50.9976C161.422 51.1372 160.941 51.207 160.368 51.207H159.653V54H157.988V46.1475H160.497ZM160.411 47.5117H159.653V49.8428H160.201C160.513 49.8428 160.783 49.8016 161.012 49.7192C161.241 49.6369 161.419 49.508 161.544 49.3325C161.669 49.1571 161.732 48.9315 161.732 48.6558C161.732 48.269 161.625 47.9826 161.41 47.7964C161.195 47.6066 160.862 47.5117 160.411 47.5117ZM172.023 50.063C172.023 50.6681 171.948 51.2196 171.797 51.7173C171.647 52.2114 171.418 52.6375 171.11 52.9956C170.806 53.3537 170.419 53.6294 169.95 53.8228C169.481 54.0125 168.926 54.1074 168.285 54.1074C167.644 54.1074 167.089 54.0125 166.62 53.8228C166.151 53.6294 165.762 53.3537 165.454 52.9956C165.15 52.6375 164.922 52.2096 164.772 51.7119C164.622 51.2142 164.546 50.661 164.546 50.0522C164.546 49.2394 164.679 48.5322 164.944 47.9307C165.212 47.3255 165.624 46.8564 166.179 46.5234C166.734 46.1904 167.44 46.0239 168.295 46.0239C169.148 46.0239 169.848 46.1904 170.396 46.5234C170.947 46.8564 171.355 47.3255 171.62 47.9307C171.889 48.5358 172.023 49.2466 172.023 50.063ZM166.292 50.063C166.292 50.6108 166.36 51.0835 166.496 51.481C166.636 51.8748 166.852 52.1792 167.146 52.394C167.44 52.6053 167.819 52.7109 168.285 52.7109C168.757 52.7109 169.14 52.6053 169.434 52.394C169.728 52.1792 169.941 51.8748 170.073 51.481C170.209 51.0835 170.277 50.6108 170.277 50.063C170.277 49.2394 170.123 48.5913 169.815 48.1187C169.507 47.646 169.001 47.4097 168.295 47.4097C167.826 47.4097 167.443 47.5171 167.146 47.7319C166.852 47.9432 166.636 48.2476 166.496 48.645C166.36 49.0389 166.292 49.5116 166.292 50.063ZM180.166 49.9985C180.166 50.883 179.995 51.6224 179.655 52.2168C179.319 52.8076 178.83 53.2534 178.189 53.5542C177.548 53.8514 176.776 54 175.874 54H173.65V46.1475H176.116C176.939 46.1475 177.654 46.2943 178.259 46.5879C178.864 46.8779 179.333 47.3094 179.666 47.8823C179.999 48.4517 180.166 49.1571 180.166 49.9985ZM178.436 50.0415C178.436 49.4614 178.35 48.9852 178.178 48.6128C178.01 48.2368 177.759 47.9593 177.426 47.7803C177.097 47.6012 176.689 47.5117 176.202 47.5117H175.315V52.625H176.03C176.843 52.625 177.446 52.4084 177.84 51.9751C178.237 51.5418 178.436 50.8973 178.436 50.0415ZM189.458 54L188.888 52.1309H186.025L185.456 54H183.662L186.434 46.1152H188.469L191.251 54H189.458ZM188.491 50.7344L187.921 48.9082C187.886 48.7865 187.837 48.6307 187.776 48.4409C187.719 48.2476 187.66 48.0524 187.599 47.8555C187.542 47.6549 187.495 47.4813 187.459 47.3345C187.424 47.4813 187.374 47.6639 187.309 47.8823C187.248 48.0972 187.189 48.3013 187.132 48.4946C187.075 48.688 187.033 48.8258 187.008 48.9082L186.444 50.7344H188.491Z" fill="#9194A0"/>
<rect x="153" y="42.8412" width="42" height="16.1432" fill="white"/>
<path d="M160.497 46.1475C161.51 46.1475 162.249 46.3659 162.715 46.8027C163.18 47.236 163.413 47.834 163.413 48.5967C163.413 48.9404 163.361 49.2699 163.257 49.585C163.153 49.8965 162.983 50.174 162.747 50.4175C162.514 50.661 162.203 50.8543 161.812 50.9976C161.422 51.1372 160.941 51.207 160.368 51.207H159.653V54H157.988V46.1475H160.497ZM160.411 47.5117H159.653V49.8428H160.201C160.513 49.8428 160.783 49.8016 161.012 49.7192C161.241 49.6369 161.419 49.508 161.544 49.3325C161.669 49.1571 161.732 48.9315 161.732 48.6558C161.732 48.269 161.625 47.9826 161.41 47.7964C161.195 47.6066 160.862 47.5117 160.411 47.5117ZM172.023 50.063C172.023 50.6681 171.948 51.2196 171.797 51.7173C171.647 52.2114 171.418 52.6375 171.11 52.9956C170.806 53.3537 170.419 53.6294 169.95 53.8228C169.481 54.0125 168.926 54.1074 168.285 54.1074C167.644 54.1074 167.089 54.0125 166.62 53.8228C166.151 53.6294 165.762 53.3537 165.454 52.9956C165.15 52.6375 164.922 52.2096 164.772 51.7119C164.622 51.2142 164.546 50.661 164.546 50.0522C164.546 49.2394 164.679 48.5322 164.944 47.9307C165.212 47.3255 165.624 46.8564 166.179 46.5234C166.734 46.1904 167.44 46.0239 168.295 46.0239C169.148 46.0239 169.848 46.1904 170.396 46.5234C170.947 46.8564 171.355 47.3255 171.62 47.9307C171.889 48.5358 172.023 49.2466 172.023 50.063ZM166.292 50.063C166.292 50.6108 166.36 51.0835 166.496 51.481C166.636 51.8748 166.852 52.1792 167.146 52.394C167.44 52.6053 167.819 52.7109 168.285 52.7109C168.757 52.7109 169.14 52.6053 169.434 52.394C169.728 52.1792 169.941 51.8748 170.073 51.481C170.209 51.0835 170.277 50.6108 170.277 50.063C170.277 49.2394 170.123 48.5913 169.815 48.1187C169.507 47.646 169.001 47.4097 168.295 47.4097C167.826 47.4097 167.443 47.5171 167.146 47.7319C166.852 47.9432 166.636 48.2476 166.496 48.645C166.36 49.0389 166.292 49.5116 166.292 50.063ZM180.166 49.9985C180.166 50.883 179.995 51.6224 179.655 52.2168C179.319 52.8076 178.83 53.2534 178.189 53.5542C177.548 53.8514 176.776 54 175.874 54H173.65V46.1475H176.116C176.939 46.1475 177.654 46.2943 178.259 46.5879C178.864 46.8779 179.333 47.3094 179.666 47.8823C179.999 48.4517 180.166 49.1571 180.166 49.9985ZM178.436 50.0415C178.436 49.4614 178.35 48.9852 178.178 48.6128C178.01 48.2368 177.759 47.9593 177.426 47.7803C177.097 47.6012 176.689 47.5117 176.202 47.5117H175.315V52.625H176.03C176.843 52.625 177.446 52.4084 177.84 51.9751C178.237 51.5418 178.436 50.8973 178.436 50.0415ZM189.458 54L188.888 52.1309H186.025L185.456 54H183.662L186.434 46.1152H188.469L191.251 54H189.458ZM188.491 50.7344L187.921 48.9082C187.886 48.7865 187.837 48.6307 187.776 48.4409C187.719 48.2476 187.66 48.0524 187.599 47.8555C187.542 47.6549 187.495 47.4813 187.459 47.3345C187.424 47.4813 187.374 47.6639 187.309 47.8823C187.248 48.0972 187.189 48.3013 187.132 48.4946C187.075 48.688 187.033 48.8258 187.008 48.9082L186.444 50.7344H188.491Z" fill="#9194A0"/>
<path d="M454.497 46.1475C455.51 46.1475 456.249 46.3659 456.715 46.8027C457.18 47.236 457.413 47.834 457.413 48.5967C457.413 48.9404 457.361 49.2699 457.257 49.585C457.153 49.8965 456.983 50.174 456.747 50.4175C456.514 50.661 456.203 50.8543 455.812 50.9976C455.422 51.1372 454.941 51.207 454.368 51.207H453.653V54H451.988V46.1475H454.497ZM454.411 47.5117H453.653V49.8428H454.201C454.513 49.8428 454.783 49.8016 455.012 49.7192C455.241 49.6369 455.419 49.508 455.544 49.3325C455.669 49.1571 455.732 48.9315 455.732 48.6558C455.732 48.269 455.625 47.9826 455.41 47.7964C455.195 47.6066 454.862 47.5117 454.411 47.5117ZM466.023 50.063C466.023 50.6681 465.948 51.2196 465.797 51.7173C465.647 52.2114 465.418 52.6375 465.11 52.9956C464.806 53.3537 464.419 53.6294 463.95 53.8228C463.481 54.0125 462.926 54.1074 462.285 54.1074C461.644 54.1074 461.089 54.0125 460.62 53.8228C460.151 53.6294 459.762 53.3537 459.454 52.9956C459.15 52.6375 458.922 52.2096 458.772 51.7119C458.622 51.2142 458.546 50.661 458.546 50.0522C458.546 49.2394 458.679 48.5322 458.944 47.9307C459.212 47.3255 459.624 46.8564 460.179 46.5234C460.734 46.1904 461.44 46.0239 462.295 46.0239C463.148 46.0239 463.848 46.1904 464.396 46.5234C464.947 46.8564 465.355 47.3255 465.62 47.9307C465.889 48.5358 466.023 49.2466 466.023 50.063ZM460.292 50.063C460.292 50.6108 460.36 51.0835 460.496 51.481C460.636 51.8748 460.852 52.1792 461.146 52.394C461.44 52.6053 461.819 52.7109 462.285 52.7109C462.757 52.7109 463.14 52.6053 463.434 52.394C463.728 52.1792 463.941 51.8748 464.073 51.481C464.209 51.0835 464.277 50.6108 464.277 50.063C464.277 49.2394 464.123 48.5913 463.815 48.1187C463.507 47.646 463.001 47.4097 462.295 47.4097C461.826 47.4097 461.443 47.5171 461.146 47.7319C460.852 47.9432 460.636 48.2476 460.496 48.645C460.36 49.0389 460.292 49.5116 460.292 50.063ZM474.166 49.9985C474.166 50.883 473.995 51.6224 473.655 52.2168C473.319 52.8076 472.83 53.2534 472.189 53.5542C471.548 53.8514 470.776 54 469.874 54H467.65V46.1475H470.116C470.939 46.1475 471.654 46.2943 472.259 46.5879C472.864 46.8779 473.333 47.3094 473.666 47.8823C473.999 48.4517 474.166 49.1571 474.166 49.9985ZM472.436 50.0415C472.436 49.4614 472.35 48.9852 472.178 48.6128C472.01 48.2368 471.759 47.9593 471.426 47.7803C471.097 47.6012 470.689 47.5117 470.202 47.5117H469.315V52.625H470.03C470.843 52.625 471.446 52.4084 471.84 51.9751C472.237 51.5418 472.436 50.8973 472.436 50.0415ZM478.65 46.1475H481.094C482.14 46.1475 482.931 46.2943 483.468 46.5879C484.005 46.8815 484.274 47.3971 484.274 48.1348C484.274 48.432 484.226 48.7005 484.129 48.9404C484.036 49.1803 483.9 49.3773 483.721 49.5312C483.542 49.6852 483.323 49.7855 483.065 49.832V49.8857C483.327 49.9395 483.563 50.0326 483.774 50.165C483.986 50.2939 484.154 50.4837 484.279 50.7344C484.408 50.9814 484.473 51.3109 484.473 51.7227C484.473 52.1989 484.356 52.6071 484.124 52.9473C483.891 53.2874 483.558 53.5488 483.125 53.7314C482.695 53.9105 482.183 54 481.588 54H478.65V46.1475ZM480.315 49.2573H481.282C481.766 49.2573 482.1 49.1821 482.287 49.0317C482.473 48.8778 482.566 48.6522 482.566 48.355C482.566 48.0542 482.455 47.8394 482.233 47.7104C482.014 47.578 481.667 47.5117 481.191 47.5117H480.315V49.2573ZM480.315 50.5786V52.625H481.4C481.902 52.625 482.251 52.5283 482.448 52.335C482.645 52.1416 482.743 51.882 482.743 51.5562C482.743 51.3628 482.7 51.1927 482.614 51.0459C482.528 50.8991 482.383 50.7845 482.179 50.7021C481.979 50.6198 481.701 50.5786 481.347 50.5786H480.315Z" fill="#9194A0"/>
<path d="M159 84.75H227C227.69 84.75 228.25 85.3096 228.25 86V154C228.25 154.69 227.69 155.25 227 155.25H159C158.31 155.25 157.75 154.69 157.75 154V86C157.75 85.3096 158.31 84.75 159 84.75Z" fill="white" stroke="#D2D4DB" stroke-width="1.5"/>
<rect x="175" y="101" width="36" height="37" rx="1" fill="white" stroke="black" stroke-width="2"/>
<rect x="175" y="101" width="36" height="8" rx="1" fill="white" stroke="black" stroke-width="2"/>
<path d="M189.965 126.766L183.156 123.752V122.591L189.947 119.187V121.188L185.781 123.085L189.947 124.817L189.965 126.766Z" fill="black"/>
<path d="M196.521 118L192.865 128.1H190.535L194.199 118H196.521Z" fill="black"/>
<path d="M197.016 124.791L201.182 123.059L197.016 121.197V119.196L203.807 122.6V123.752L197.016 126.766V124.791Z" fill="black"/>
<path d="M191.046 166.434L188.867 175H186.798L185.638 170.5C185.615 170.414 185.583 170.283 185.544 170.107C185.505 169.932 185.464 169.74 185.421 169.533C185.378 169.322 185.339 169.125 185.304 168.941C185.273 168.754 185.251 168.605 185.24 168.496C185.228 168.605 185.204 168.752 185.169 168.936C185.138 169.119 185.101 169.314 185.058 169.521C185.019 169.729 184.98 169.922 184.941 170.102C184.902 170.281 184.87 170.418 184.847 170.512L183.693 175H181.63L179.445 166.434H181.232L182.327 171.109C182.359 171.25 182.394 171.418 182.433 171.613C182.476 171.809 182.517 172.014 182.556 172.229C182.599 172.439 182.636 172.645 182.667 172.844C182.702 173.039 182.728 173.209 182.744 173.354C182.763 173.205 182.788 173.033 182.82 172.838C182.851 172.639 182.884 172.438 182.919 172.234C182.958 172.027 182.997 171.836 183.036 171.66C183.076 171.484 183.111 171.342 183.142 171.232L184.39 166.434H186.107L187.355 171.232C187.382 171.338 187.413 171.48 187.449 171.66C187.488 171.836 187.527 172.027 187.566 172.234C187.605 172.441 187.64 172.645 187.671 172.844C187.706 173.039 187.732 173.209 187.747 173.354C187.775 173.158 187.812 172.922 187.859 172.645C187.91 172.363 187.962 172.084 188.017 171.807C188.076 171.529 188.126 171.297 188.169 171.109L189.259 166.434H191.046ZM197.298 175H192.364V166.434H197.298V167.922H194.181V169.803H197.081V171.291H194.181V173.5H197.298V175ZM199.331 166.434H201.997C203.138 166.434 204.001 166.594 204.587 166.914C205.173 167.234 205.466 167.797 205.466 168.602C205.466 168.926 205.413 169.219 205.307 169.48C205.206 169.742 205.057 169.957 204.862 170.125C204.667 170.293 204.429 170.402 204.147 170.453V170.512C204.432 170.57 204.69 170.672 204.921 170.816C205.151 170.957 205.335 171.164 205.472 171.438C205.612 171.707 205.682 172.066 205.682 172.516C205.682 173.035 205.556 173.48 205.302 173.852C205.048 174.223 204.684 174.508 204.212 174.707C203.743 174.902 203.184 175 202.536 175H199.331V166.434ZM201.147 169.826H202.202C202.729 169.826 203.095 169.744 203.298 169.58C203.501 169.412 203.602 169.166 203.602 168.842C203.602 168.514 203.481 168.279 203.239 168.139C203.001 167.994 202.622 167.922 202.102 167.922H201.147V169.826ZM201.147 171.268V173.5H202.331C202.878 173.5 203.259 173.395 203.474 173.184C203.688 172.973 203.796 172.689 203.796 172.334C203.796 172.123 203.749 171.938 203.655 171.777C203.561 171.617 203.403 171.492 203.181 171.402C202.962 171.312 202.659 171.268 202.272 171.268H201.147Z" fill="#6A6D7A"/>
<path d="M24.8818 317.434V322.977C24.8818 323.566 24.7509 324.1 24.4892 324.576C24.2314 325.049 23.8388 325.424 23.3115 325.701C22.788 325.979 22.1279 326.117 21.331 326.117C20.1982 326.117 19.3349 325.828 18.7412 325.25C18.1474 324.672 17.8505 323.906 17.8505 322.953V317.434H19.6611V322.678C19.6611 323.385 19.8056 323.881 20.0947 324.166C20.3838 324.451 20.8115 324.594 21.3779 324.594C21.7763 324.594 22.0986 324.525 22.3447 324.389C22.5947 324.252 22.7783 324.041 22.8955 323.756C23.0127 323.471 23.0713 323.107 23.0713 322.666V317.434H24.8818ZM29.9558 317.434C31.0613 317.434 31.8679 317.672 32.3757 318.148C32.8835 318.621 33.1374 319.273 33.1374 320.105C33.1374 320.48 33.0808 320.84 32.9675 321.184C32.8542 321.523 32.6687 321.826 32.4109 322.092C32.157 322.357 31.8171 322.568 31.3913 322.725C30.9655 322.877 30.4402 322.953 29.8152 322.953H29.0359V326H27.2195V317.434H29.9558ZM29.862 318.922H29.0359V321.465H29.6335C29.9734 321.465 30.2683 321.42 30.5183 321.33C30.7683 321.24 30.9616 321.1 31.0984 320.908C31.2351 320.717 31.3034 320.471 31.3034 320.17C31.3034 319.748 31.1863 319.436 30.9519 319.232C30.7175 319.025 30.3542 318.922 29.862 318.922ZM40.0513 323.621C40.0513 324.129 39.9282 324.57 39.6821 324.945C39.436 325.32 39.0766 325.609 38.604 325.812C38.1352 326.016 37.5649 326.117 36.893 326.117C36.5962 326.117 36.3052 326.098 36.02 326.059C35.7388 326.02 35.4673 325.963 35.2055 325.889C34.9477 325.811 34.7016 325.715 34.4673 325.602V323.914C34.8735 324.094 35.2954 324.256 35.7329 324.4C36.1704 324.545 36.604 324.617 37.0337 324.617C37.3305 324.617 37.5688 324.578 37.7485 324.5C37.9321 324.422 38.0649 324.314 38.147 324.178C38.229 324.041 38.27 323.885 38.27 323.709C38.27 323.494 38.1977 323.311 38.0532 323.158C37.9087 323.006 37.7095 322.863 37.4555 322.73C37.2055 322.598 36.9223 322.455 36.6059 322.303C36.4067 322.209 36.1899 322.096 35.9555 321.963C35.7212 321.826 35.4985 321.66 35.2876 321.465C35.0766 321.27 34.9028 321.033 34.7661 320.756C34.6333 320.475 34.5669 320.139 34.5669 319.748C34.5669 319.236 34.6841 318.799 34.9184 318.436C35.1528 318.072 35.4868 317.795 35.9204 317.604C36.3579 317.408 36.8735 317.311 37.4673 317.311C37.9126 317.311 38.3364 317.363 38.7388 317.469C39.145 317.57 39.5688 317.719 40.0102 317.914L39.4243 319.326C39.0298 319.166 38.6763 319.043 38.3638 318.957C38.0513 318.867 37.7329 318.822 37.4087 318.822C37.1821 318.822 36.9888 318.859 36.8286 318.934C36.6684 319.004 36.5473 319.105 36.4653 319.238C36.3833 319.367 36.3423 319.518 36.3423 319.689C36.3423 319.893 36.4009 320.064 36.518 320.205C36.6391 320.342 36.8188 320.475 37.0571 320.604C37.2993 320.732 37.6001 320.883 37.9595 321.055C38.397 321.262 38.77 321.479 39.0786 321.705C39.3911 321.928 39.6313 322.191 39.7993 322.496C39.9673 322.797 40.0513 323.172 40.0513 323.621ZM45.1487 326H43.3323V318.945H41.0061V317.434H47.4748V318.945H45.1487V326ZM51.5293 317.434C52.3066 317.434 52.9473 317.527 53.4512 317.715C53.959 317.902 54.3359 318.186 54.582 318.564C54.8281 318.943 54.9512 319.422 54.9512 320C54.9512 320.391 54.877 320.732 54.7285 321.025C54.5801 321.318 54.3848 321.566 54.1426 321.77C53.9004 321.973 53.6387 322.139 53.3574 322.268L55.877 326H53.8613L51.8164 322.713H50.8496V326H49.0332V317.434H51.5293ZM51.4004 318.922H50.8496V321.236H51.4355C52.0371 321.236 52.4668 321.137 52.7246 320.938C52.9863 320.734 53.1172 320.438 53.1172 320.047C53.1172 319.641 52.9766 319.352 52.6953 319.18C52.418 319.008 51.9863 318.922 51.4004 318.922ZM62.1287 326H57.1951V317.434H62.1287V318.922H59.0115V320.803H61.9119V322.291H59.0115V324.5H62.1287V326ZM69.4058 326L68.7847 323.961H65.6616L65.0405 326H63.0835L66.107 317.398H68.3277L71.3628 326H69.4058ZM68.3511 322.438L67.73 320.445C67.6909 320.312 67.6382 320.143 67.5718 319.936C67.5093 319.725 67.4448 319.512 67.3784 319.297C67.3159 319.078 67.2652 318.889 67.2261 318.729C67.187 318.889 67.1323 319.088 67.062 319.326C66.9956 319.561 66.9312 319.783 66.8687 319.994C66.8062 320.205 66.7612 320.355 66.7339 320.445L66.1187 322.438H68.3511ZM76.3138 326L74.2513 319.279H74.1985C74.2063 319.439 74.218 319.682 74.2337 320.006C74.2532 320.326 74.2708 320.668 74.2864 321.031C74.302 321.395 74.3098 321.723 74.3098 322.016V326H72.6868V317.434H75.1595L77.1868 323.984H77.222L79.3723 317.434H81.845V326H80.1516V321.945C80.1516 321.676 80.1555 321.365 80.1634 321.014C80.1751 320.662 80.1888 320.328 80.2044 320.012C80.22 319.691 80.2317 319.451 80.2395 319.291H80.1868L77.9778 326H76.3138ZM30.8874 333.822C30.5398 333.822 30.2312 333.891 29.9616 334.027C29.696 334.16 29.4714 334.354 29.2878 334.607C29.1081 334.861 28.9714 335.168 28.8777 335.527C28.7839 335.887 28.737 336.291 28.737 336.74C28.737 337.346 28.8113 337.863 28.9597 338.293C29.112 338.719 29.3464 339.045 29.6628 339.271C29.9792 339.494 30.3874 339.605 30.8874 339.605C31.2351 339.605 31.5827 339.566 31.9304 339.488C32.282 339.41 32.6628 339.299 33.073 339.154V340.678C32.6941 340.834 32.321 340.945 31.9538 341.012C31.5866 341.082 31.1745 341.117 30.7175 341.117C29.8347 341.117 29.1081 340.936 28.5378 340.572C27.9714 340.205 27.5515 339.693 27.278 339.037C27.0046 338.377 26.8679 337.607 26.8679 336.729C26.8679 336.08 26.9558 335.486 27.1316 334.947C27.3073 334.408 27.5652 333.941 27.905 333.547C28.2448 333.152 28.6648 332.848 29.1648 332.633C29.6648 332.418 30.239 332.311 30.8874 332.311C31.3132 332.311 31.739 332.365 32.1648 332.475C32.5945 332.58 33.0046 332.727 33.3952 332.914L32.8093 334.391C32.489 334.238 32.1667 334.105 31.8425 333.992C31.5183 333.879 31.1999 333.822 30.8874 333.822ZM42.9165 336.705C42.9165 337.365 42.8345 337.967 42.6704 338.51C42.5063 339.049 42.2563 339.514 41.9204 339.904C41.5884 340.295 41.1665 340.596 40.6548 340.807C40.143 341.014 39.5376 341.117 38.8384 341.117C38.1391 341.117 37.5337 341.014 37.022 340.807C36.5102 340.596 36.0864 340.295 35.7505 339.904C35.4184 339.514 35.1704 339.047 35.0063 338.504C34.8423 337.961 34.7602 337.357 34.7602 336.693C34.7602 335.807 34.9048 335.035 35.1938 334.379C35.4868 333.719 35.936 333.207 36.5415 332.844C37.147 332.48 37.9165 332.299 38.8501 332.299C39.7798 332.299 40.5434 332.48 41.1411 332.844C41.7427 333.207 42.188 333.719 42.477 334.379C42.77 335.039 42.9165 335.814 42.9165 336.705ZM36.6645 336.705C36.6645 337.303 36.7388 337.818 36.8872 338.252C37.0395 338.682 37.2759 339.014 37.5962 339.248C37.9165 339.479 38.3305 339.594 38.8384 339.594C39.354 339.594 39.772 339.479 40.0923 339.248C40.4126 339.014 40.645 338.682 40.7895 338.252C40.938 337.818 41.0122 337.303 41.0122 336.705C41.0122 335.807 40.8442 335.1 40.5083 334.584C40.1723 334.068 39.6196 333.811 38.8501 333.811C38.3384 333.811 37.9204 333.928 37.5962 334.162C37.2759 334.393 37.0395 334.725 36.8872 335.158C36.7388 335.588 36.6645 336.104 36.6645 336.705ZM52.5315 341H50.2229L46.4963 334.52H46.4436C46.4592 334.789 46.4729 335.061 46.4846 335.334C46.4963 335.607 46.508 335.881 46.5198 336.154C46.5315 336.424 46.5432 336.695 46.5549 336.969V341H44.9319V332.434H47.2229L50.9436 338.85H50.9846C50.9768 338.584 50.967 338.32 50.9553 338.059C50.9436 337.797 50.9319 337.535 50.9202 337.273C50.9123 337.012 50.9045 336.75 50.8967 336.488V332.434H52.5315V341ZM56.7207 341H54.9336V332.434H59.8438V333.922H56.7207V336.131H59.627V337.613H56.7207V341ZM61.7595 341V332.434H63.5759V341H61.7595ZM69.2241 336.189H72.6226V340.631C72.1734 340.779 71.7066 340.898 71.2222 340.988C70.7378 341.074 70.189 341.117 69.5757 341.117C68.7241 341.117 68.0015 340.949 67.4077 340.613C66.814 340.277 66.3628 339.781 66.0542 339.125C65.7456 338.469 65.5913 337.662 65.5913 336.705C65.5913 335.807 65.7632 335.029 66.107 334.373C66.4546 333.717 66.9605 333.209 67.6245 332.85C68.2925 332.49 69.107 332.311 70.0679 332.311C70.521 332.311 70.9683 332.359 71.4097 332.457C71.8511 332.555 72.2515 332.682 72.6109 332.838L72.0073 334.291C71.7456 334.158 71.4468 334.047 71.1109 333.957C70.7749 333.867 70.4234 333.822 70.0562 333.822C69.5288 333.822 69.0698 333.943 68.6792 334.186C68.2925 334.428 67.9917 334.768 67.7769 335.205C67.5659 335.639 67.4605 336.15 67.4605 336.74C67.4605 337.299 67.5366 337.795 67.689 338.229C67.8413 338.658 68.0816 338.996 68.4097 339.242C68.7378 339.484 69.1656 339.605 69.6929 339.605C69.9507 339.605 70.1675 339.594 70.3433 339.57C70.523 339.543 70.6909 339.516 70.8472 339.488V337.701H69.2241V336.189Z" fill="#6A6D7A"/>
<path d="M454 84.75L522 84.75C522.69 84.75 523.25 85.3096 523.25 86L523.25 154C523.25 154.69 522.69 155.25 522 155.25L454 155.25C453.31 155.25 452.75 154.69 452.75 154L452.75 86C452.75 85.3096 453.31 84.75 454 84.75Z" fill="white" stroke="#D2D4DB" stroke-width="1.5"/>
<path d="M502.999 109V130.281C502.999 131.913 501.658 133.654 498.873 135.047C496.146 136.41 492.306 137.281 488 137.281C483.694 137.281 479.853 136.41 477.127 135.047C474.342 133.654 473 131.913 473 130.281V109C473 107.368 474.342 105.627 477.127 104.234C479.853 102.871 483.694 102 488 102C492.306 102 496.146 102.871 498.873 104.234C501.658 105.627 502.999 107.368 502.999 109Z" fill="white" stroke="black" stroke-width="2" stroke-miterlimit="10" stroke-linecap="round" stroke-linejoin="round"/>
<mask id="path-19-inside-1_0_1" fill="white">
<path d="M503.999 119.64C503.999 124.067 496.854 127.64 488 127.64C479.145 127.64 472 124.067 472 119.64"/>
</mask>
<path d="M505.999 119.64C505.999 118.535 505.104 117.64 503.999 117.64C502.895 117.64 501.999 118.535 501.999 119.64H505.999ZM474 119.64C474 118.535 473.105 117.64 472 117.64C470.895 117.64 470 118.535 470 119.64H474ZM501.999 119.64C501.999 120.69 501.102 122.173 498.425 123.511C495.865 124.791 492.185 125.64 488 125.64V129.64C492.669 129.64 496.988 128.702 500.214 127.089C503.324 125.534 505.999 123.017 505.999 119.64H501.999ZM488 125.64C483.814 125.64 480.134 124.791 477.574 123.511C474.897 122.173 474 120.69 474 119.64H470C470 123.017 472.676 125.534 475.785 127.089C479.011 128.702 483.331 129.64 488 129.64V125.64Z" fill="black" mask="url(#path-19-inside-1_0_1)"/>
<mask id="path-21-inside-2_0_1" fill="white">
<path d="M503.999 108.763C503.999 113.19 496.854 116.763 488 116.763C479.145 116.763 472 113.19 472 108.763"/>
</mask>
<path d="M505.999 108.763C505.999 107.658 505.104 106.763 503.999 106.763C502.895 106.763 501.999 107.658 501.999 108.763H505.999ZM474 108.763C474 107.658 473.105 106.763 472 106.763C470.895 106.763 470 107.658 470 108.763H474ZM501.999 108.763C501.999 109.813 501.102 111.296 498.425 112.634C495.865 113.914 492.185 114.763 488 114.763V118.763C492.669 118.763 496.988 117.825 500.214 116.212C503.324 114.657 505.999 112.14 505.999 108.763H501.999ZM488 114.763C483.814 114.763 480.134 113.914 477.574 112.634C474.897 111.296 474 109.813 474 108.763H470C470 112.14 472.676 114.657 475.785 116.212C479.011 117.825 483.331 118.763 488 118.763V114.763Z" fill="black" mask="url(#path-21-inside-2_0_1)"/>
<path d="M464.183 170.635C464.183 171.6 463.997 172.406 463.626 173.055C463.259 173.699 462.726 174.186 462.026 174.514C461.327 174.838 460.485 175 459.501 175H457.075V166.434H459.765C460.663 166.434 461.442 166.594 462.103 166.914C462.763 167.23 463.274 167.701 463.638 168.326C464.001 168.947 464.183 169.717 464.183 170.635ZM462.296 170.682C462.296 170.049 462.202 169.529 462.015 169.123C461.831 168.713 461.558 168.41 461.194 168.215C460.835 168.02 460.39 167.922 459.858 167.922H458.892V173.5H459.671C460.558 173.5 461.216 173.264 461.645 172.791C462.079 172.318 462.296 171.615 462.296 170.682ZM471.442 175L470.821 172.961H467.698L467.077 175H465.12L468.143 166.398H470.364L473.399 175H471.442ZM470.387 171.438L469.766 169.445C469.727 169.312 469.675 169.143 469.608 168.936C469.546 168.725 469.481 168.512 469.415 168.297C469.352 168.078 469.301 167.889 469.262 167.729C469.223 167.889 469.169 168.088 469.098 168.326C469.032 168.561 468.968 168.783 468.905 168.994C468.843 169.205 468.798 169.355 468.77 169.445L468.155 171.438H470.387ZM478.028 175H476.211V167.945H473.885V166.434H480.354V167.945H478.028V175ZM487.156 175L486.535 172.961H483.412L482.791 175H480.834L483.858 166.398H486.078L489.114 175H487.156ZM486.102 171.438L485.481 169.445C485.442 169.312 485.389 169.143 485.323 168.936C485.26 168.725 485.196 168.512 485.129 168.297C485.067 168.078 485.016 167.889 484.977 167.729C484.938 167.889 484.883 168.088 484.813 168.326C484.746 168.561 484.682 168.783 484.619 168.994C484.557 169.205 484.512 169.355 484.485 169.445L483.869 171.438H486.102ZM490.438 166.434H493.104C494.244 166.434 495.107 166.594 495.693 166.914C496.279 167.234 496.572 167.797 496.572 168.602C496.572 168.926 496.52 169.219 496.414 169.48C496.312 169.742 496.164 169.957 495.969 170.125C495.773 170.293 495.535 170.402 495.254 170.453V170.512C495.539 170.57 495.797 170.672 496.027 170.816C496.258 170.957 496.441 171.164 496.578 171.438C496.719 171.707 496.789 172.066 496.789 172.516C496.789 173.035 496.662 173.48 496.408 173.852C496.154 174.223 495.791 174.508 495.318 174.707C494.85 174.902 494.291 175 493.643 175H490.438V166.434ZM492.254 169.826H493.309C493.836 169.826 494.201 169.744 494.404 169.58C494.607 169.412 494.709 169.166 494.709 168.842C494.709 168.514 494.588 168.279 494.346 168.139C494.107 167.994 493.729 167.922 493.209 167.922H492.254V169.826ZM492.254 171.268V173.5H493.438C493.984 173.5 494.365 173.395 494.58 173.184C494.795 172.973 494.902 172.689 494.902 172.334C494.902 172.123 494.855 171.938 494.762 171.777C494.668 171.617 494.51 171.492 494.287 171.402C494.068 171.312 493.766 171.268 493.379 171.268H492.254ZM503.984 175L503.363 172.961H500.24L499.619 175H497.662L500.685 166.398H502.906L505.941 175H503.984ZM502.929 171.438L502.308 169.445C502.269 169.312 502.217 169.143 502.15 168.936C502.088 168.725 502.023 168.512 501.957 168.297C501.894 168.078 501.844 167.889 501.804 167.729C501.765 167.889 501.711 168.088 501.64 168.326C501.574 168.561 501.51 168.783 501.447 168.994C501.385 169.205 501.34 169.355 501.312 169.445L500.697 171.438H502.929ZM512.322 172.621C512.322 173.129 512.199 173.57 511.953 173.945C511.707 174.32 511.347 174.609 510.875 174.812C510.406 175.016 509.835 175.117 509.164 175.117C508.867 175.117 508.576 175.098 508.291 175.059C508.009 175.02 507.738 174.963 507.476 174.889C507.218 174.811 506.972 174.715 506.738 174.602V172.914C507.144 173.094 507.566 173.256 508.003 173.4C508.441 173.545 508.875 173.617 509.304 173.617C509.601 173.617 509.839 173.578 510.019 173.5C510.203 173.422 510.335 173.314 510.417 173.178C510.5 173.041 510.541 172.885 510.541 172.709C510.541 172.494 510.468 172.311 510.324 172.158C510.179 172.006 509.98 171.863 509.726 171.73C509.476 171.598 509.193 171.455 508.876 171.303C508.677 171.209 508.46 171.096 508.226 170.963C507.992 170.826 507.769 170.66 507.558 170.465C507.347 170.27 507.173 170.033 507.037 169.756C506.904 169.475 506.837 169.139 506.837 168.748C506.837 168.236 506.955 167.799 507.189 167.436C507.423 167.072 507.757 166.795 508.191 166.604C508.628 166.408 509.144 166.311 509.738 166.311C510.183 166.311 510.607 166.363 511.009 166.469C511.416 166.57 511.839 166.719 512.281 166.914L511.695 168.326C511.3 168.166 510.947 168.043 510.634 167.957C510.322 167.867 510.003 167.822 509.679 167.822C509.453 167.822 509.259 167.859 509.099 167.934C508.939 168.004 508.818 168.105 508.736 168.238C508.654 168.367 508.613 168.518 508.613 168.689C508.613 168.893 508.671 169.064 508.789 169.205C508.91 169.342 509.089 169.475 509.328 169.604C509.57 169.732 509.871 169.883 510.23 170.055C510.667 170.262 511.041 170.479 511.349 170.705C511.662 170.928 511.902 171.191 512.07 171.496C512.238 171.797 512.322 172.172 512.322 172.621ZM519.048 175H514.115V166.434H519.048V167.922H515.931V169.803H518.831V171.291H515.931V173.5H519.048V175Z" fill="#6A6D7A"/>
<path d="M159 235.75H227C227.69 235.75 228.25 236.31 228.25 237V305C228.25 305.69 227.69 306.25 227 306.25H159C158.31 306.25 157.75 305.69 157.75 305V237C157.75 236.31 158.31 235.75 159 235.75Z" fill="white" stroke="#E07EAC" stroke-width="1.5"/>
<path fill-rule="evenodd" clip-rule="evenodd" d="M203 258L209 264L203 270" fill="white"/>
<path d="M203 258L209 264M209 264L203 270M209 264H178" stroke="#CA2171" stroke-width="2" stroke-linecap="round" stroke-linejoin="round"/>
<path fill-rule="evenodd" clip-rule="evenodd" d="M184 272L178 278L184 284" fill="white"/>
<path d="M184 272L178 278M178 278L184 284M178 278H209" stroke="#CA2171" stroke-width="2" stroke-linecap="round" stroke-linejoin="round"/>
<path d="M175.964 317.434C177.07 317.434 177.877 317.672 178.384 318.148C178.892 318.621 179.146 319.273 179.146 320.105C179.146 320.48 179.089 320.84 178.976 321.184C178.863 321.523 178.677 321.826 178.42 322.092C178.166 322.357 177.826 322.568 177.4 322.725C176.974 322.877 176.449 322.953 175.824 322.953H175.045V326H173.228V317.434H175.964ZM175.871 318.922H175.045V321.465H175.642C175.982 321.465 176.277 321.42 176.527 321.33C176.777 321.24 176.97 321.1 177.107 320.908C177.244 320.717 177.312 320.471 177.312 320.17C177.312 319.748 177.195 319.436 176.961 319.232C176.726 319.025 176.363 318.922 175.871 318.922ZM183.499 317.434C184.277 317.434 184.917 317.527 185.421 317.715C185.929 317.902 186.306 318.186 186.552 318.564C186.798 318.943 186.921 319.422 186.921 320C186.921 320.391 186.847 320.732 186.699 321.025C186.55 321.318 186.355 321.566 186.113 321.77C185.87 321.973 185.609 322.139 185.327 322.268L187.847 326H185.831L183.786 322.713H182.82V326H181.003V317.434H183.499ZM183.37 318.922H182.82V321.236H183.406C184.007 321.236 184.437 321.137 184.695 320.938C184.956 320.734 185.087 320.438 185.087 320.047C185.087 319.641 184.947 319.352 184.665 319.18C184.388 319.008 183.956 318.922 183.37 318.922ZM196.941 321.705C196.941 322.365 196.859 322.967 196.694 323.51C196.53 324.049 196.28 324.514 195.944 324.904C195.612 325.295 195.191 325.596 194.679 325.807C194.167 326.014 193.562 326.117 192.862 326.117C192.163 326.117 191.558 326.014 191.046 325.807C190.534 325.596 190.11 325.295 189.775 324.904C189.442 324.514 189.194 324.047 189.03 323.504C188.866 322.961 188.784 322.357 188.784 321.693C188.784 320.807 188.929 320.035 189.218 319.379C189.511 318.719 189.96 318.207 190.566 317.844C191.171 317.48 191.941 317.299 192.874 317.299C193.804 317.299 194.567 317.48 195.165 317.844C195.767 318.207 196.212 318.719 196.501 319.379C196.794 320.039 196.941 320.814 196.941 321.705ZM190.689 321.705C190.689 322.303 190.763 322.818 190.911 323.252C191.064 323.682 191.3 324.014 191.62 324.248C191.941 324.479 192.355 324.594 192.862 324.594C193.378 324.594 193.796 324.479 194.116 324.248C194.437 324.014 194.669 323.682 194.814 323.252C194.962 322.818 195.036 322.303 195.036 321.705C195.036 320.807 194.868 320.1 194.532 319.584C194.196 319.068 193.644 318.811 192.874 318.811C192.362 318.811 191.944 318.928 191.62 319.162C191.3 319.393 191.064 319.725 190.911 320.158C190.763 320.588 190.689 321.104 190.689 321.705ZM205.882 326H203.807L201.815 322.76L199.823 326H197.878L200.72 321.582L198.059 317.434H200.063L201.909 320.516L203.72 317.434H205.677L202.987 321.682L205.882 326ZM209.866 320.961L211.653 317.434H213.61L210.768 322.666V326H208.964V322.725L206.122 317.434H208.09L209.866 320.961Z" fill="#CA2171"/>
<path d="M453 235.75H521C521.69 235.75 522.25 236.31 522.25 237V305C522.25 305.69 521.69 306.25 521 306.25H453C452.31 306.25 451.75 305.69 451.75 305V237C451.75 236.31 452.31 235.75 453 235.75Z" fill="white" stroke="#E07EAC" stroke-width="1.5"/>
<path fill-rule="evenodd" clip-rule="evenodd" d="M497 258L503 264L497 270" fill="white"/>
<path d="M497 258L503 264M503 264L497 270M503 264H472" stroke="#CA2171" stroke-width="2" stroke-linecap="round" stroke-linejoin="round"/>
<path fill-rule="evenodd" clip-rule="evenodd" d="M478 272L472 278L478 284" fill="white"/>
<path d="M478 272L472 278M472 278L478 284M472 278H503" stroke="#CA2171" stroke-width="2" stroke-linecap="round" stroke-linejoin="round"/>
<path d="M469.964 317.434C471.07 317.434 471.877 317.672 472.384 318.148C472.892 318.621 473.146 319.273 473.146 320.105C473.146 320.48 473.089 320.84 472.976 321.184C472.863 321.523 472.677 321.826 472.42 322.092C472.166 322.357 471.826 322.568 471.4 322.725C470.974 322.877 470.449 322.953 469.824 322.953H469.045V326H467.228V317.434H469.964ZM469.871 318.922H469.045V321.465H469.642C469.982 321.465 470.277 321.42 470.527 321.33C470.777 321.24 470.97 321.1 471.107 320.908C471.244 320.717 471.312 320.471 471.312 320.17C471.312 319.748 471.195 319.436 470.961 319.232C470.726 319.025 470.363 318.922 469.871 318.922ZM477.499 317.434C478.277 317.434 478.917 317.527 479.421 317.715C479.929 317.902 480.306 318.186 480.552 318.564C480.798 318.943 480.921 319.422 480.921 320C480.921 320.391 480.847 320.732 480.699 321.025C480.55 321.318 480.355 321.566 480.113 321.77C479.87 321.973 479.609 322.139 479.327 322.268L481.847 326H479.831L477.786 322.713H476.82V326H475.003V317.434H477.499ZM477.37 318.922H476.82V321.236H477.406C478.007 321.236 478.437 321.137 478.695 320.938C478.956 320.734 479.087 320.438 479.087 320.047C479.087 319.641 478.947 319.352 478.665 319.18C478.388 319.008 477.956 318.922 477.37 318.922ZM490.941 321.705C490.941 322.365 490.859 322.967 490.694 323.51C490.53 324.049 490.28 324.514 489.944 324.904C489.612 325.295 489.191 325.596 488.679 325.807C488.167 326.014 487.562 326.117 486.862 326.117C486.163 326.117 485.558 326.014 485.046 325.807C484.534 325.596 484.11 325.295 483.775 324.904C483.442 324.514 483.194 324.047 483.03 323.504C482.866 322.961 482.784 322.357 482.784 321.693C482.784 320.807 482.929 320.035 483.218 319.379C483.511 318.719 483.96 318.207 484.566 317.844C485.171 317.48 485.941 317.299 486.874 317.299C487.804 317.299 488.567 317.48 489.165 317.844C489.767 318.207 490.212 318.719 490.501 319.379C490.794 320.039 490.941 320.814 490.941 321.705ZM484.689 321.705C484.689 322.303 484.763 322.818 484.911 323.252C485.064 323.682 485.3 324.014 485.62 324.248C485.941 324.479 486.355 324.594 486.862 324.594C487.378 324.594 487.796 324.479 488.116 324.248C488.437 324.014 488.669 323.682 488.814 323.252C488.962 322.818 489.036 322.303 489.036 321.705C489.036 320.807 488.868 320.1 488.532 319.584C488.196 319.068 487.644 318.811 486.874 318.811C486.362 318.811 485.944 318.928 485.62 319.162C485.3 319.393 485.064 319.725 484.911 320.158C484.763 320.588 484.689 321.104 484.689 321.705ZM499.882 326H497.807L495.815 322.76L493.823 326H491.878L494.72 321.582L492.059 317.434H494.063L495.909 320.516L497.72 317.434H499.677L496.987 321.682L499.882 326ZM503.866 320.961L505.653 317.434H507.61L504.768 322.666V326H502.964V322.725L500.122 317.434H502.09L503.866 320.961Z" fill="#CA2171"/>
<line x1="1" y1="-1" x2="37" y2="-1" transform="matrix(1.19249e-08 -1 -1 -1.19249e-08 192 223)" stroke="#CA2171" stroke-width="2" stroke-linecap="round" stroke-linejoin="round"/>
<path fill-rule="evenodd" clip-rule="evenodd" d="M193 220.72L188.863 216.5L187.5 217.89L193 223.5L198.5 217.89L197.137 216.5L193 220.72Z" fill="#CA2171"/>
<line x1="1" y1="-1" x2="37" y2="-1" transform="matrix(1.19249e-08 1 1 -1.19249e-08 488 185)" stroke="#CA2171" stroke-width="2" stroke-linecap="round" stroke-linejoin="round"/>
<path fill-rule="evenodd" clip-rule="evenodd" d="M487 187.28L491.137 191.5L492.5 190.11L487 184.5L481.5 190.11L482.863 191.5L487 187.28Z" fill="#CA2171"/>
<path fill-rule="evenodd" clip-rule="evenodd" d="M68 196.678C68 195.751 68.7511 195 69.6776 195H176.322C177.249 195 178 195.751 178 196.678V214.322C178 215.249 177.249 216 176.322 216H69.6776C68.7511 216 68 215.249 68 214.322V196.678Z" fill="#F7F8FA"/>
<path d="M83.8318 207.691C83.8318 208.168 84.1237 208.406 84.7075 208.406C84.9826 208.406 85.2779 208.346 85.5932 208.225L85.8147 208.839C85.4792 209.02 85.0598 209.111 84.5565 209.111C84.08 209.111 83.6975 208.98 83.409 208.718C83.1272 208.456 82.9862 208.101 82.9862 207.651V202.236H81.3556V201.561H83.8318V207.691ZM89.8169 203.585C90.5483 203.585 91.1087 203.833 91.4979 204.33C91.8938 204.819 92.0917 205.49 92.0917 206.343C92.0917 207.175 91.8904 207.846 91.4878 208.356C91.0919 208.859 90.5316 209.111 89.8068 209.111C89.0754 209.111 88.5117 208.866 88.1158 208.376C87.7199 207.879 87.5219 207.205 87.5219 206.353C87.5219 205.514 87.7199 204.843 88.1158 204.34C88.5184 203.836 89.0855 203.585 89.8169 203.585ZM89.8169 204.279C89.3539 204.279 89.0083 204.45 88.7801 204.793C88.552 205.135 88.4379 205.655 88.4379 206.353C88.4379 207.051 88.5486 207.571 88.7701 207.913C88.9982 208.248 89.3438 208.416 89.8068 208.416C90.2699 208.416 90.6121 208.248 90.8335 207.913C91.0617 207.571 91.1758 207.047 91.1758 206.343C91.1758 205.645 91.0617 205.128 90.8335 204.793C90.6121 204.45 90.2732 204.279 89.8169 204.279ZM96.2349 208.386C96.6979 208.386 97.1576 208.232 97.6139 207.923L98.0165 208.477C97.7951 208.671 97.5199 208.826 97.1911 208.94C96.8623 209.054 96.5436 209.111 96.2349 209.111C95.4498 209.111 94.8357 208.866 94.3929 208.376C93.9567 207.879 93.7386 207.212 93.7386 206.373C93.7386 205.843 93.8359 205.366 94.0305 204.944C94.2318 204.521 94.5204 204.189 94.8961 203.947C95.2719 203.705 95.7182 203.585 96.2349 203.585C96.9193 203.585 97.5099 203.793 98.0064 204.209L97.5937 204.762C97.1307 204.454 96.6744 204.299 96.2248 204.299C95.7484 204.299 95.3659 204.477 95.0773 204.833C94.7955 205.182 94.6546 205.695 94.6546 206.373C94.6546 207.051 94.7955 207.557 95.0773 207.893C95.3659 208.222 95.7517 208.386 96.2349 208.386ZM103.669 207.842C103.669 208.05 103.703 208.205 103.77 208.305C103.837 208.399 103.948 208.47 104.102 208.517L103.891 209.121C103.374 209.054 103.052 208.802 102.925 208.366C102.737 208.607 102.499 208.792 102.21 208.919C101.928 209.047 101.613 209.111 101.264 209.111C100.734 209.111 100.314 208.963 100.006 208.668C99.7036 208.373 99.5526 207.977 99.5526 207.48C99.5526 206.937 99.764 206.517 100.187 206.222C100.616 205.927 101.23 205.779 102.029 205.779H102.814V205.346C102.814 204.97 102.707 204.702 102.492 204.541C102.277 204.373 101.965 204.289 101.556 204.289C101.153 204.289 100.693 204.38 100.177 204.561L99.9452 203.917C100.569 203.695 101.15 203.585 101.687 203.585C102.331 203.585 102.821 203.736 103.156 204.038C103.498 204.34 103.669 204.759 103.669 205.296V207.842ZM101.475 208.477C101.737 208.477 101.985 208.409 102.22 208.275C102.462 208.141 102.66 207.957 102.814 207.722V206.363H102.049C101.485 206.363 101.079 206.457 100.831 206.645C100.583 206.833 100.459 207.108 100.459 207.47C100.459 208.141 100.797 208.477 101.475 208.477ZM107.974 207.691C107.974 208.168 108.266 208.406 108.849 208.406C109.125 208.406 109.42 208.346 109.735 208.225L109.957 208.839C109.621 209.02 109.202 209.111 108.698 209.111C108.222 209.111 107.839 208.98 107.551 208.718C107.269 208.456 107.128 208.101 107.128 207.651V202.236H105.498V201.561H107.974V207.691ZM112.781 204.43C112.989 204.162 113.244 203.954 113.546 203.806C113.848 203.658 114.16 203.585 114.482 203.585C115.475 203.585 115.972 204.108 115.972 205.155V209H115.126V205.165C115.126 204.85 115.053 204.621 114.905 204.481C114.757 204.333 114.522 204.259 114.2 204.259C113.925 204.259 113.66 204.346 113.405 204.521C113.15 204.695 112.942 204.9 112.781 205.135V209H111.936V201.572L112.781 201.481V204.43ZM119.994 203.585C120.726 203.585 121.286 203.833 121.675 204.33C122.071 204.819 122.269 205.49 122.269 206.343C122.269 207.175 122.068 207.846 121.665 208.356C121.269 208.859 120.709 209.111 119.984 209.111C119.253 209.111 118.689 208.866 118.293 208.376C117.897 207.879 117.699 207.205 117.699 206.353C117.699 205.514 117.897 204.843 118.293 204.34C118.696 203.836 119.263 203.585 119.994 203.585ZM119.994 204.279C119.531 204.279 119.186 204.45 118.958 204.793C118.729 205.135 118.615 205.655 118.615 206.353C118.615 207.051 118.726 207.571 118.947 207.913C119.176 208.248 119.521 208.416 119.984 208.416C120.447 208.416 120.789 208.248 121.011 207.913C121.239 207.571 121.353 207.047 121.353 206.343C121.353 205.645 121.239 205.128 121.011 204.793C120.789 204.45 120.451 204.279 119.994 204.279ZM125.818 208.416C126.221 208.416 126.54 208.339 126.775 208.185C127.009 208.03 127.127 207.826 127.127 207.571C127.127 207.396 127.097 207.255 127.036 207.148C126.976 207.034 126.855 206.933 126.674 206.846C126.493 206.752 126.218 206.658 125.849 206.564C125.231 206.41 124.775 206.225 124.48 206.01C124.184 205.789 124.037 205.464 124.037 205.034C124.037 204.591 124.221 204.239 124.59 203.977C124.959 203.716 125.446 203.585 126.05 203.585C126.788 203.585 127.432 203.779 127.983 204.168L127.6 204.752C127.379 204.598 127.147 204.481 126.905 204.4C126.664 204.313 126.385 204.269 126.07 204.269C125.305 204.269 124.923 204.501 124.923 204.964C124.923 205.125 124.963 205.256 125.043 205.356C125.131 205.457 125.268 205.547 125.456 205.628C125.651 205.702 125.939 205.792 126.322 205.9C126.899 206.054 127.328 206.252 127.61 206.494C127.899 206.729 128.043 207.074 128.043 207.53C128.043 208.061 127.828 208.456 127.399 208.718C126.969 208.98 126.442 209.111 125.818 209.111C124.986 209.111 124.295 208.873 123.745 208.396L124.218 207.842C124.433 208.017 124.678 208.158 124.953 208.265C125.228 208.366 125.516 208.416 125.818 208.416ZM134.26 208.728C134.078 208.849 133.857 208.943 133.595 209.01C133.34 209.077 133.085 209.111 132.83 209.111C132.273 209.111 131.837 208.966 131.522 208.678C131.206 208.383 131.049 207.997 131.049 207.52V204.36H129.831V203.695H131.049V202.498L131.894 202.397V203.695H133.736L133.625 204.36H131.894V207.51C131.894 207.812 131.975 208.037 132.136 208.185C132.297 208.332 132.555 208.406 132.911 208.406C133.273 208.406 133.612 208.322 133.927 208.154L134.26 208.728ZM137.275 204.662C137.275 204.44 137.353 204.252 137.507 204.098C137.661 203.937 137.852 203.856 138.081 203.856C138.315 203.856 138.51 203.937 138.664 204.098C138.819 204.252 138.896 204.44 138.896 204.662C138.896 204.89 138.819 205.084 138.664 205.245C138.51 205.407 138.315 205.487 138.081 205.487C137.852 205.487 137.661 205.407 137.507 205.245C137.353 205.084 137.275 204.89 137.275 204.662ZM137.275 208.295C137.275 208.074 137.353 207.883 137.507 207.722C137.661 207.561 137.852 207.48 138.081 207.48C138.315 207.48 138.51 207.561 138.664 207.722C138.819 207.876 138.896 208.067 138.896 208.295C138.896 208.53 138.819 208.725 138.664 208.879C138.51 209.034 138.315 209.111 138.081 209.111C137.852 209.111 137.661 209.034 137.507 208.879C137.353 208.725 137.275 208.53 137.275 208.295ZM146.31 208.316V209H142.314V208.316H144.015V202.991L142.435 203.947L142.063 203.353L144.126 202.065H144.871V208.316H146.31ZM149.85 201.954C150.272 201.954 150.641 202.038 150.957 202.206C151.279 202.373 151.524 202.605 151.692 202.9C151.859 203.189 151.943 203.518 151.943 203.887C151.943 204.316 151.843 204.732 151.641 205.135C151.447 205.537 151.131 205.98 150.695 206.463C150.259 206.94 149.642 207.544 148.843 208.275H152.104L152.004 209H147.877V208.316C148.783 207.45 149.454 206.772 149.89 206.282C150.333 205.792 150.638 205.373 150.806 205.024C150.974 204.675 151.057 204.306 151.057 203.917C151.057 203.528 150.947 203.222 150.725 203.001C150.504 202.779 150.199 202.669 149.809 202.669C149.481 202.669 149.205 202.726 148.984 202.84C148.769 202.947 148.548 203.135 148.32 203.403L147.736 202.951C148.011 202.608 148.316 202.357 148.652 202.196C148.994 202.035 149.393 201.954 149.85 201.954ZM155.885 201.954C156.308 201.954 156.68 202.035 157.002 202.196C157.324 202.35 157.573 202.561 157.747 202.83C157.922 203.091 158.009 203.38 158.009 203.695C158.009 204.098 157.878 204.45 157.616 204.752C157.355 205.048 157.036 205.232 156.66 205.306C157.096 205.339 157.465 205.504 157.767 205.799C158.076 206.094 158.23 206.497 158.23 207.007C158.23 207.403 158.13 207.762 157.928 208.084C157.727 208.406 157.442 208.658 157.073 208.839C156.71 209.02 156.294 209.111 155.825 209.111C155.415 209.111 155.019 209.034 154.637 208.879C154.261 208.725 153.949 208.497 153.701 208.195L154.264 207.732C154.452 207.953 154.681 208.124 154.949 208.245C155.224 208.359 155.509 208.416 155.805 208.416C156.288 208.416 156.663 208.292 156.932 208.044C157.207 207.789 157.345 207.443 157.345 207.007C157.345 206.128 156.865 205.688 155.905 205.688H155.331L155.432 205.014H155.845C156.207 205.014 156.516 204.913 156.771 204.712C157.026 204.504 157.153 204.202 157.153 203.806C157.153 203.437 157.029 203.152 156.781 202.951C156.539 202.742 156.227 202.638 155.845 202.638C155.556 202.638 155.298 202.689 155.07 202.789C154.848 202.89 154.617 203.051 154.375 203.273L153.912 202.759C154.476 202.222 155.133 201.954 155.885 201.954ZM164.528 207.319H163.632V209H162.816V207.319H159.938V206.695L161.971 201.954L162.675 202.256L160.833 206.635H162.826L162.897 204.672H163.632V206.635H164.528V207.319Z" fill="#252937"/>
<path fill-rule="evenodd" clip-rule="evenodd" d="M140 1.67761C140 0.751094 140.751 0 141.678 0H335.322C336.249 0 337 0.751093 337 1.67761V18.3224C337 19.2489 336.249 20 335.322 20H141.678C140.751 20 140 19.2489 140 18.3224V1.67761Z" fill="#F7F8FA"/>
<path d="M150.983 6.56146V14H150.238L150.158 13.3055C149.963 13.5739 149.738 13.7752 149.483 13.9094C149.228 14.0436 148.953 14.1107 148.658 14.1107C147.987 14.1107 147.48 13.8658 147.138 13.3759C146.802 12.8861 146.635 12.2117 146.635 11.3527C146.635 10.8226 146.718 10.3495 146.886 9.93346C147.054 9.51071 147.292 9.18189 147.601 8.94703C147.916 8.70545 148.285 8.58466 148.708 8.58466C149.292 8.58466 149.768 8.79604 150.137 9.2188V6.4608L150.983 6.56146ZM148.93 9.26913C148.487 9.26913 148.144 9.4436 147.903 9.79254C147.668 10.1415 147.551 10.6615 147.551 11.3527C147.551 12.0372 147.658 12.5573 147.873 12.9129C148.094 13.2618 148.413 13.4363 148.829 13.4363C149.332 13.4363 149.768 13.1545 150.137 12.5908V9.9536C149.99 9.73215 149.812 9.56439 149.604 9.45031C149.396 9.32952 149.171 9.26913 148.93 9.26913ZM156.797 12.8424C156.797 13.0505 156.831 13.2048 156.898 13.3055C156.965 13.3994 157.075 13.4699 157.23 13.5168L157.018 14.1208C156.502 14.0537 156.18 13.802 156.052 13.3659C155.864 13.6074 155.626 13.792 155.337 13.9195C155.056 14.047 154.74 14.1107 154.391 14.1107C153.861 14.1107 153.442 13.9631 153.133 13.6678C152.831 13.3726 152.68 12.9767 152.68 12.4801C152.68 11.9365 152.891 11.5171 153.314 11.2219C153.744 10.9266 154.358 10.779 155.156 10.779H155.941V10.3462C155.941 9.97037 155.834 9.70195 155.619 9.5409C155.405 9.37314 155.093 9.28926 154.683 9.28926C154.281 9.28926 153.821 9.37985 153.304 9.56103L153.073 8.91683C153.697 8.69538 154.277 8.58466 154.814 8.58466C155.458 8.58466 155.948 8.73565 156.284 9.03762C156.626 9.33959 156.797 9.75899 156.797 10.2958V12.8424ZM154.603 13.4766C154.864 13.4766 155.113 13.4095 155.348 13.2753C155.589 13.1411 155.787 12.9565 155.941 12.7217V11.3628H155.176C154.613 11.3628 154.207 11.4567 153.958 11.6446C153.71 11.8325 153.586 12.1077 153.586 12.47C153.586 13.1411 153.925 13.4766 154.603 13.4766ZM163.245 13.7282C163.064 13.849 162.843 13.943 162.581 14.0101C162.326 14.0772 162.071 14.1107 161.816 14.1107C161.259 14.1107 160.823 13.9664 160.507 13.6779C160.192 13.3826 160.034 12.9968 160.034 12.5203V9.35972H158.816V8.69538H160.034V7.49757L160.88 7.39691V8.69538H162.722L162.611 9.35972H160.88V12.5103C160.88 12.8122 160.96 13.037 161.121 13.1847C161.282 13.3323 161.541 13.4061 161.896 13.4061C162.259 13.4061 162.598 13.3222 162.913 13.1545L163.245 13.7282ZM168.868 12.8424C168.868 13.0505 168.901 13.2048 168.969 13.3055C169.036 13.3994 169.146 13.4699 169.301 13.5168L169.089 14.1208C168.573 14.0537 168.251 13.802 168.123 13.3659C167.935 13.6074 167.697 13.792 167.408 13.9195C167.127 14.047 166.811 14.1107 166.462 14.1107C165.932 14.1107 165.513 13.9631 165.204 13.6678C164.902 13.3726 164.751 12.9767 164.751 12.4801C164.751 11.9365 164.962 11.5171 165.385 11.2219C165.815 10.9266 166.429 10.779 167.227 10.779H168.012V10.3462C168.012 9.97037 167.905 9.70195 167.69 9.5409C167.475 9.37314 167.163 9.28926 166.754 9.28926C166.351 9.28926 165.892 9.37985 165.375 9.56103L165.144 8.91683C165.768 8.69538 166.348 8.58466 166.885 8.58466C167.529 8.58466 168.019 8.73565 168.355 9.03762C168.697 9.33959 168.868 9.75899 168.868 10.2958V12.8424ZM166.674 13.4766C166.935 13.4766 167.184 13.4095 167.418 13.2753C167.66 13.1411 167.858 12.9565 168.012 12.7217V11.3628H167.247C166.684 11.3628 166.278 11.4567 166.029 11.6446C165.781 11.8325 165.657 12.1077 165.657 12.47C165.657 13.1411 165.996 13.4766 166.674 13.4766ZM171.944 9.38992C172.353 8.85308 172.86 8.58466 173.464 8.58466C174.142 8.58466 174.642 8.82624 174.964 9.30939C175.286 9.79254 175.447 10.4703 175.447 11.3427C175.447 12.1748 175.262 12.8458 174.893 13.3558C174.524 13.8591 174.008 14.1107 173.343 14.1107C172.733 14.1107 172.253 13.8893 171.904 13.4464L171.843 14H171.099V6.56146L171.944 6.4608V9.38992ZM173.152 13.4263C173.595 13.4263 173.934 13.2518 174.169 12.9028C174.41 12.5539 174.531 12.0338 174.531 11.3427C174.531 10.6582 174.424 10.1415 174.209 9.79254C174.001 9.4436 173.689 9.26913 173.273 9.26913C173.004 9.26913 172.756 9.34965 172.528 9.51071C172.306 9.67176 172.112 9.87307 171.944 10.1146V12.7418C172.085 12.9565 172.259 13.1243 172.468 13.2451C172.676 13.3659 172.904 13.4263 173.152 13.4263ZM180.939 12.8424C180.939 13.0505 180.972 13.2048 181.04 13.3055C181.107 13.3994 181.217 13.4699 181.372 13.5168L181.16 14.1208C180.644 14.0537 180.322 13.802 180.194 13.3659C180.006 13.6074 179.768 13.792 179.479 13.9195C179.198 14.047 178.882 14.1107 178.533 14.1107C178.003 14.1107 177.584 13.9631 177.275 13.6678C176.973 13.3726 176.822 12.9767 176.822 12.4801C176.822 11.9365 177.033 11.5171 177.456 11.2219C177.886 10.9266 178.5 10.779 179.298 10.779H180.083V10.3462C180.083 9.97037 179.976 9.70195 179.761 9.5409C179.546 9.37314 179.234 9.28926 178.825 9.28926C178.422 9.28926 177.963 9.37985 177.446 9.56103L177.215 8.91683C177.839 8.69538 178.419 8.58466 178.956 8.58466C179.6 8.58466 180.09 8.73565 180.426 9.03762C180.768 9.33959 180.939 9.75899 180.939 10.2958V12.8424ZM178.745 13.4766C179.006 13.4766 179.255 13.4095 179.489 13.2753C179.731 13.1411 179.929 12.9565 180.083 12.7217V11.3628H179.318C178.755 11.3628 178.349 11.4567 178.1 11.6446C177.852 11.8325 177.728 12.1077 177.728 12.47C177.728 13.1411 178.067 13.4766 178.745 13.4766ZM184.981 13.4162C185.384 13.4162 185.703 13.339 185.938 13.1847C186.172 13.0303 186.29 12.8257 186.29 12.5707C186.29 12.3962 186.26 12.2553 186.199 12.1479C186.139 12.0338 186.018 11.9332 185.837 11.8459C185.656 11.752 185.381 11.6581 185.012 11.5641C184.394 11.4098 183.938 11.2252 183.643 11.0105C183.347 10.789 183.2 10.4636 183.2 10.0341C183.2 9.59123 183.384 9.23893 183.753 8.97722C184.122 8.71552 184.609 8.58466 185.213 8.58466C185.951 8.58466 186.595 8.77927 187.145 9.16847L186.763 9.75228C186.542 9.59794 186.31 9.48051 186.068 9.39998C185.827 9.31275 185.548 9.26913 185.233 9.26913C184.468 9.26913 184.086 9.50064 184.086 9.96366C184.086 10.1247 184.126 10.2556 184.206 10.3562C184.294 10.4569 184.431 10.5475 184.619 10.628C184.814 10.7018 185.102 10.7924 185.485 10.8998C186.062 11.0541 186.491 11.2521 186.773 11.4936C187.062 11.7285 187.206 12.0741 187.206 12.5304C187.206 13.0605 186.991 13.4565 186.562 13.7182C186.132 13.9799 185.605 14.1107 184.981 14.1107C184.149 14.1107 183.458 13.8725 182.908 13.3961L183.381 12.8424C183.596 13.0169 183.841 13.1578 184.116 13.2652C184.391 13.3659 184.679 13.4162 184.981 13.4162ZM189.879 11.6446C189.9 12.2284 190.051 12.668 190.332 12.9632C190.621 13.2585 190.983 13.4061 191.419 13.4061C191.681 13.4061 191.919 13.3692 192.134 13.2954C192.356 13.2149 192.59 13.0941 192.839 12.933L193.231 13.4967C192.983 13.6913 192.698 13.8423 192.376 13.9497C192.06 14.057 191.742 14.1107 191.419 14.1107C190.654 14.1107 190.057 13.8624 189.628 13.3659C189.205 12.8626 188.994 12.1915 188.994 11.3527C188.994 10.8226 189.088 10.3495 189.275 9.93346C189.463 9.51071 189.732 9.18189 190.081 8.94703C190.43 8.70545 190.836 8.58466 191.299 8.58466C191.97 8.58466 192.496 8.81953 192.879 9.28926C193.268 9.75228 193.463 10.3864 193.463 11.1917C193.463 11.346 193.456 11.497 193.443 11.6446H189.879ZM191.309 9.27919C190.899 9.27919 190.567 9.42682 190.312 9.72208C190.057 10.0106 189.913 10.4367 189.879 11.0004H192.637C192.631 10.4435 192.51 10.0173 192.275 9.72208C192.04 9.42682 191.718 9.27919 191.309 9.27919ZM196.358 13.2249C196.358 12.9767 196.442 12.7686 196.609 12.6009C196.784 12.4264 196.995 12.3392 197.244 12.3392C197.499 12.3392 197.71 12.4264 197.878 12.6009C198.045 12.7686 198.129 12.9767 198.129 13.2249C198.129 13.4799 198.045 13.6913 197.878 13.8591C197.71 14.0268 197.499 14.1107 197.244 14.1107C196.995 14.1107 196.784 14.0268 196.609 13.8591C196.442 13.6846 196.358 13.4732 196.358 13.2249ZM203.088 13.4162C203.49 13.4162 203.809 13.339 204.044 13.1847C204.279 13.0303 204.396 12.8257 204.396 12.5707C204.396 12.3962 204.366 12.2553 204.306 12.1479C204.245 12.0338 204.125 11.9332 203.943 11.8459C203.762 11.752 203.487 11.6581 203.118 11.5641C202.501 11.4098 202.044 11.2252 201.749 11.0105C201.454 10.789 201.306 10.4636 201.306 10.0341C201.306 9.59123 201.491 9.23893 201.86 8.97722C202.229 8.71552 202.715 8.58466 203.319 8.58466C204.057 8.58466 204.702 8.77927 205.252 9.16847L204.869 9.75228C204.648 9.59794 204.416 9.48051 204.175 9.39998C203.933 9.31275 203.655 9.26913 203.339 9.26913C202.574 9.26913 202.192 9.50064 202.192 9.96366C202.192 10.1247 202.232 10.2556 202.313 10.3562C202.4 10.4569 202.538 10.5475 202.725 10.628C202.92 10.7018 203.209 10.7924 203.591 10.8998C204.168 11.0541 204.598 11.2521 204.879 11.4936C205.168 11.7285 205.312 12.0741 205.312 12.5304C205.312 13.0605 205.098 13.4565 204.668 13.7182C204.239 13.9799 203.712 14.1107 203.088 14.1107C202.256 14.1107 201.565 13.8725 201.014 13.3961L201.487 12.8424C201.702 13.0169 201.947 13.1578 202.222 13.2652C202.497 13.3659 202.786 13.4162 203.088 13.4162ZM209.808 14H208.831L206.909 8.69538H207.815L209.345 13.235L210.855 8.69538H211.74L209.808 14ZM215.753 13.386C216.216 13.386 216.675 13.2317 217.132 12.923L217.534 13.4766C217.313 13.6712 217.038 13.8255 216.709 13.9396C216.38 14.0537 216.061 14.1107 215.753 14.1107C214.967 14.1107 214.353 13.8658 213.911 13.3759C213.474 12.8794 213.256 12.2117 213.256 11.3729C213.256 10.8427 213.354 10.3663 213.548 9.94353C213.75 9.52077 214.038 9.1886 214.414 8.94703C214.79 8.70545 215.236 8.58466 215.753 8.58466C216.437 8.58466 217.028 8.79269 217.524 9.20873L217.111 9.76235C216.648 9.45367 216.192 9.29933 215.743 9.29933C215.266 9.29933 214.884 9.47715 214.595 9.83281C214.313 10.1818 214.172 10.6951 214.172 11.3729C214.172 12.0506 214.313 12.5573 214.595 12.8928C214.884 13.2216 215.269 13.386 215.753 13.386ZM220.5 13.2249C220.5 12.9767 220.584 12.7686 220.751 12.6009C220.926 12.4264 221.137 12.3392 221.385 12.3392C221.64 12.3392 221.852 12.4264 222.02 12.6009C222.187 12.7686 222.271 12.9767 222.271 13.2249C222.271 13.4799 222.187 13.6913 222.02 13.8591C221.852 14.0268 221.64 14.1107 221.385 14.1107C221.137 14.1107 220.926 14.0268 220.751 13.8591C220.584 13.6846 220.5 13.4732 220.5 13.2249ZM227.824 13.386C228.287 13.386 228.746 13.2317 229.203 12.923L229.605 13.4766C229.384 13.6712 229.109 13.8255 228.78 13.9396C228.451 14.0537 228.132 14.1107 227.824 14.1107C227.038 14.1107 226.424 13.8658 225.982 13.3759C225.545 12.8794 225.327 12.2117 225.327 11.3729C225.327 10.8427 225.425 10.3663 225.619 9.94353C225.82 9.52077 226.109 9.1886 226.485 8.94703C226.861 8.70545 227.307 8.58466 227.824 8.58466C228.508 8.58466 229.099 8.79269 229.595 9.20873L229.182 9.76235C228.719 9.45367 228.263 9.29933 227.814 9.29933C227.337 9.29933 226.955 9.47715 226.666 9.83281C226.384 10.1818 226.243 10.6951 226.243 11.3729C226.243 12.0506 226.384 12.5573 226.666 12.8928C226.955 13.2216 227.34 13.386 227.824 13.386ZM233.527 12.6915C233.527 13.1679 233.819 13.4061 234.403 13.4061C234.678 13.4061 234.973 13.3457 235.288 13.2249L235.51 13.8389C235.174 14.0201 234.755 14.1107 234.252 14.1107C233.775 14.1107 233.393 13.9799 233.104 13.7182C232.822 13.4565 232.681 13.1008 232.681 12.6512V7.23586H231.051V6.56146H233.527V12.6915ZM238.334 12.46C238.334 12.8022 238.405 13.0538 238.546 13.2149C238.693 13.3692 238.922 13.4464 239.23 13.4464C239.512 13.4464 239.784 13.3659 240.046 13.2048C240.307 13.0438 240.515 12.8424 240.67 12.6009V8.69538H241.515V14H240.79L240.72 13.2853C240.512 13.547 240.254 13.7517 239.945 13.8993C239.643 14.0403 239.334 14.1107 239.019 14.1107C238.516 14.1107 238.133 13.9765 237.871 13.7081C237.616 13.4397 237.489 13.0538 237.489 12.5505V8.69538H238.334V12.46ZM245.336 13.4162C245.739 13.4162 246.058 13.339 246.292 13.1847C246.527 13.0303 246.645 12.8257 246.645 12.5707C246.645 12.3962 246.614 12.2553 246.554 12.1479C246.494 12.0338 246.373 11.9332 246.192 11.8459C246.011 11.752 245.735 11.6581 245.366 11.5641C244.749 11.4098 244.293 11.2252 243.997 11.0105C243.702 10.789 243.555 10.4636 243.555 10.0341C243.555 9.59123 243.739 9.23893 244.108 8.97722C244.477 8.71552 244.964 8.58466 245.568 8.58466C246.306 8.58466 246.95 8.77927 247.5 9.16847L247.118 9.75228C246.896 9.59794 246.665 9.48051 246.423 9.39998C246.182 9.31275 245.903 9.26913 245.588 9.26913C244.823 9.26913 244.44 9.50064 244.44 9.96366C244.44 10.1247 244.481 10.2556 244.561 10.3562C244.648 10.4569 244.786 10.5475 244.974 10.628C245.168 10.7018 245.457 10.7924 245.839 10.8998C246.417 11.0541 246.846 11.2521 247.128 11.4936C247.416 11.7285 247.561 12.0741 247.561 12.5304C247.561 13.0605 247.346 13.4565 246.916 13.7182C246.487 13.9799 245.96 14.1107 245.336 14.1107C244.504 14.1107 243.813 13.8725 243.263 13.3961L243.736 12.8424C243.95 13.0169 244.195 13.1578 244.47 13.2652C244.746 13.3659 245.034 13.4162 245.336 13.4162ZM253.777 13.7282C253.596 13.849 253.375 13.943 253.113 14.0101C252.858 14.0772 252.603 14.1107 252.348 14.1107C251.791 14.1107 251.355 13.9664 251.039 13.6779C250.724 13.3826 250.566 12.9968 250.566 12.5203V9.35972H249.348V8.69538H250.566V7.49757L251.412 7.39691V8.69538H253.254L253.143 9.35972H251.412V12.5103C251.412 12.8122 251.492 13.037 251.653 13.1847C251.814 13.3323 252.073 13.4061 252.429 13.4061C252.791 13.4061 253.13 13.3222 253.445 13.1545L253.777 13.7282ZM256.27 11.6446C256.29 12.2284 256.441 12.668 256.723 12.9632C257.011 13.2585 257.374 13.4061 257.81 13.4061C258.071 13.4061 258.31 13.3692 258.524 13.2954C258.746 13.2149 258.981 13.0941 259.229 12.933L259.622 13.4967C259.373 13.6913 259.088 13.8423 258.766 13.9497C258.451 14.057 258.132 14.1107 257.81 14.1107C257.045 14.1107 256.447 13.8624 256.018 13.3659C255.595 12.8626 255.384 12.1915 255.384 11.3527C255.384 10.8226 255.478 10.3495 255.666 9.93346C255.854 9.51071 256.122 9.18189 256.471 8.94703C256.82 8.70545 257.226 8.58466 257.689 8.58466C258.36 8.58466 258.887 8.81953 259.269 9.28926C259.658 9.75228 259.853 10.3864 259.853 11.1917C259.853 11.346 259.846 11.497 259.833 11.6446H256.27ZM257.699 9.27919C257.29 9.27919 256.957 9.42682 256.702 9.72208C256.447 10.0106 256.303 10.4367 256.27 11.0004H259.028C259.021 10.4435 258.9 10.0173 258.665 9.72208C258.43 9.42682 258.108 9.27919 257.699 9.27919ZM265.214 8.58466C265.429 8.58466 265.677 8.62157 265.959 8.69538L265.838 10.4971H265.154V9.35972H265.103C264.285 9.35972 263.704 9.94353 263.362 11.1111V13.3457H264.439V14H261.681V13.3457H262.517V9.34965H261.681V8.69538H263.151L263.312 9.9536C263.526 9.49728 263.781 9.15505 264.077 8.9269C264.379 8.69874 264.758 8.58466 265.214 8.58466ZM268.784 13.2249C268.784 12.9767 268.867 12.7686 269.035 12.6009C269.21 12.4264 269.421 12.3392 269.669 12.3392C269.924 12.3392 270.136 12.4264 270.303 12.6009C270.471 12.7686 270.555 12.9767 270.555 13.2249C270.555 13.4799 270.471 13.6913 270.303 13.8591C270.136 14.0268 269.924 14.1107 269.669 14.1107C269.421 14.1107 269.21 14.0268 269.035 13.8591C268.867 13.6846 268.784 13.4732 268.784 13.2249ZM275.775 12.6915C275.775 13.1679 276.067 13.4061 276.651 13.4061C276.926 13.4061 277.221 13.3457 277.537 13.2249L277.758 13.8389C277.423 14.0201 277.003 14.1107 276.5 14.1107C276.024 14.1107 275.641 13.9799 275.352 13.7182C275.071 13.4565 274.93 13.1008 274.93 12.6512V7.23586H273.299V6.56146H275.775V12.6915ZM281.76 8.58466C282.492 8.58466 283.052 8.83295 283.441 9.32952C283.837 9.81939 284.035 10.4904 284.035 11.3427C284.035 12.1748 283.834 12.8458 283.431 13.3558C283.035 13.8591 282.475 14.1107 281.75 14.1107C281.019 14.1107 280.455 13.8658 280.059 13.3759C279.663 12.8794 279.465 12.205 279.465 11.3527C279.465 10.5139 279.663 9.84287 280.059 9.33959C280.462 8.8363 281.029 8.58466 281.76 8.58466ZM281.76 9.27919C281.297 9.27919 280.952 9.45031 280.724 9.79254C280.495 10.1348 280.381 10.6548 280.381 11.3527C280.381 12.0506 280.492 12.5707 280.714 12.9129C280.942 13.2484 281.287 13.4162 281.75 13.4162C282.213 13.4162 282.556 13.2484 282.777 12.9129C283.005 12.5707 283.119 12.0473 283.119 11.3427C283.119 10.6448 283.005 10.1281 282.777 9.79254C282.556 9.45031 282.217 9.27919 281.76 9.27919ZM288.178 13.386C288.641 13.386 289.101 13.2317 289.557 12.923L289.96 13.4766C289.739 13.6712 289.463 13.8255 289.135 13.9396C288.806 14.0537 288.487 14.1107 288.178 14.1107C287.393 14.1107 286.779 13.8658 286.336 13.3759C285.9 12.8794 285.682 12.2117 285.682 11.3729C285.682 10.8427 285.779 10.3663 285.974 9.94353C286.175 9.52077 286.464 9.1886 286.84 8.94703C287.215 8.70545 287.662 8.58466 288.178 8.58466C288.863 8.58466 289.453 8.79269 289.95 9.20873L289.537 9.76235C289.074 9.45367 288.618 9.29933 288.168 9.29933C287.692 9.29933 287.309 9.47715 287.021 9.83281C286.739 10.1818 286.598 10.6951 286.598 11.3729C286.598 12.0506 286.739 12.5573 287.021 12.8928C287.309 13.2216 287.695 13.386 288.178 13.386ZM295.613 12.8424C295.613 13.0505 295.647 13.2048 295.714 13.3055C295.781 13.3994 295.891 13.4699 296.046 13.5168L295.834 14.1208C295.318 14.0537 294.996 13.802 294.868 13.3659C294.68 13.6074 294.442 13.792 294.153 13.9195C293.872 14.047 293.556 14.1107 293.207 14.1107C292.677 14.1107 292.258 13.9631 291.949 13.6678C291.647 13.3726 291.496 12.9767 291.496 12.4801C291.496 11.9365 291.707 11.5171 292.13 11.2219C292.56 10.9266 293.174 10.779 293.972 10.779H294.757V10.3462C294.757 9.97037 294.65 9.70195 294.435 9.5409C294.221 9.37314 293.909 9.28926 293.499 9.28926C293.097 9.28926 292.637 9.37985 292.12 9.56103L291.889 8.91683C292.513 8.69538 293.093 8.58466 293.63 8.58466C294.274 8.58466 294.764 8.73565 295.1 9.03762C295.442 9.33959 295.613 9.75899 295.613 10.2958V12.8424ZM293.419 13.4766C293.68 13.4766 293.929 13.4095 294.163 13.2753C294.405 13.1411 294.603 12.9565 294.757 12.7217V11.3628H293.992C293.429 11.3628 293.023 11.4567 292.774 11.6446C292.526 11.8325 292.402 12.1077 292.402 12.47C292.402 13.1411 292.741 13.4766 293.419 13.4766ZM299.917 12.6915C299.917 13.1679 300.209 13.4061 300.793 13.4061C301.068 13.4061 301.363 13.3457 301.679 13.2249L301.9 13.8389C301.565 14.0201 301.145 14.1107 300.642 14.1107C300.165 14.1107 299.783 13.9799 299.494 13.7182C299.213 13.4565 299.072 13.1008 299.072 12.6512V7.23586H297.441V6.56146H299.917V12.6915ZM305.077 9.66169C305.077 9.44025 305.154 9.25235 305.308 9.09801C305.463 8.93696 305.654 8.85644 305.882 8.85644C306.117 8.85644 306.312 8.93696 306.466 9.09801C306.62 9.25235 306.697 9.44025 306.697 9.66169C306.697 9.88985 306.62 10.0844 306.466 10.2455C306.312 10.4066 306.117 10.4871 305.882 10.4871C305.654 10.4871 305.463 10.4066 305.308 10.2455C305.154 10.0844 305.077 9.88985 305.077 9.66169ZM305.077 13.2954C305.077 13.074 305.154 12.8827 305.308 12.7217C305.463 12.5606 305.654 12.4801 305.882 12.4801C306.117 12.4801 306.312 12.5606 306.466 12.7217C306.62 12.876 306.697 13.0672 306.697 13.2954C306.697 13.5303 306.62 13.7249 306.466 13.8792C306.312 14.0336 306.117 14.1107 305.882 14.1107C305.654 14.1107 305.463 14.0336 305.308 13.8792C305.154 13.7249 305.077 13.5303 305.077 13.2954ZM313.689 7.74921H310.951V9.93346C311.146 9.81939 311.337 9.74222 311.525 9.70195C311.72 9.65498 311.924 9.63149 312.139 9.63149C312.716 9.63149 313.176 9.82274 313.518 10.2052C313.867 10.5877 314.042 11.1212 314.042 11.8057C314.042 12.262 313.944 12.6646 313.75 13.0136C313.562 13.3625 313.29 13.6343 312.934 13.8289C312.579 14.0168 312.166 14.1107 311.696 14.1107C310.924 14.1107 310.253 13.8356 309.683 13.2853L310.206 12.772C310.629 13.2015 311.126 13.4162 311.696 13.4162C312.159 13.4162 312.518 13.2753 312.773 12.9934C313.028 12.7116 313.156 12.3056 313.156 11.7755C313.156 11.2521 313.042 10.8763 312.813 10.6481C312.585 10.4133 312.28 10.2958 311.898 10.2958C311.716 10.2958 311.552 10.3126 311.404 10.3462C311.257 10.3797 311.062 10.4401 310.82 10.5273H310.136V7.06474H313.81L313.689 7.74921ZM320.258 12.319H319.362V14H318.547V12.319H315.668V11.695L317.701 6.95402L318.406 7.25599L316.564 11.6346H318.557L318.628 9.67176H319.362V11.6346H320.258V12.319ZM323.687 6.95402C324.109 6.95402 324.482 7.03455 324.804 7.1956C325.126 7.34994 325.374 7.56132 325.549 7.82974C325.723 8.09144 325.81 8.37999 325.81 8.69538C325.81 9.09801 325.68 9.45031 325.418 9.75228C325.156 10.0475 324.837 10.2321 324.462 10.3059C324.898 10.3394 325.267 10.5039 325.569 10.7991C325.878 11.0944 326.032 11.497 326.032 12.007C326.032 12.4029 325.931 12.7619 325.73 13.084C325.529 13.4061 325.243 13.6578 324.874 13.8389C324.512 14.0201 324.096 14.1107 323.626 14.1107C323.217 14.1107 322.821 14.0336 322.438 13.8792C322.063 13.7249 321.751 13.4967 321.502 13.1947L322.066 12.7317C322.254 12.9532 322.482 13.1243 322.751 13.2451C323.026 13.3592 323.311 13.4162 323.606 13.4162C324.089 13.4162 324.465 13.292 324.733 13.0438C325.009 12.7888 325.146 12.4432 325.146 12.007C325.146 11.1279 324.666 10.6884 323.707 10.6884H323.133L323.234 10.014H323.646C324.009 10.014 324.317 9.91333 324.572 9.71202C324.827 9.50399 324.955 9.20202 324.955 8.80611C324.955 8.43703 324.831 8.15184 324.582 7.95052C324.341 7.7425 324.029 7.63849 323.646 7.63849C323.358 7.63849 323.099 7.68882 322.871 7.78947C322.65 7.89013 322.418 8.05118 322.177 8.27263L321.714 7.75928C322.277 7.22244 322.935 6.95402 323.687 6.95402ZM329.722 6.95402C330.145 6.95402 330.514 7.0379 330.829 7.20566C331.151 7.37342 331.396 7.60494 331.564 7.9002C331.732 8.18875 331.816 8.51756 331.816 8.88663C331.816 9.3161 331.715 9.73215 331.514 10.1348C331.319 10.5374 331.004 10.9803 330.568 11.4634C330.131 11.9399 329.514 12.5438 328.716 13.2753H331.977L331.876 14H327.749V13.3155C328.655 12.4499 329.326 11.7721 329.762 11.2823C330.205 10.7924 330.511 10.373 330.678 10.0241C330.846 9.67511 330.93 9.30604 330.93 8.91683C330.93 8.52762 330.819 8.2223 330.598 8.00085C330.376 7.77941 330.071 7.66869 329.682 7.66869C329.353 7.66869 329.078 7.72572 328.856 7.8398C328.642 7.94717 328.42 8.13506 328.192 8.40348L327.608 7.95052C327.883 7.60829 328.189 7.35665 328.524 7.1956C328.867 7.03455 329.266 6.95402 329.722 6.95402Z" fill="#252937"/>
<line x1="239" y1="272" x2="446" y2="272" stroke="#CA2171" stroke-width="2" stroke-linecap="round" stroke-linejoin="round"/>
<path fill-rule="evenodd" clip-rule="evenodd" d="M444.72 272L440.5 276.137L441.89 277.5L447.5 272L441.89 266.5L440.5 267.863L444.72 272Z" fill="#CA2171"/>
<line x1="1" y1="-1" x2="208" y2="-1" transform="matrix(-1 -8.74228e-08 -8.74228e-08 1 447 121)" stroke="#E5544B" stroke-width="2" stroke-linecap="round" stroke-linejoin="round" stroke-dasharray="1.5 4"/>
<path fill-rule="evenodd" clip-rule="evenodd" d="M444.72 120L440.5 124.137L441.89 125.5L447.5 120L441.89 114.5L440.5 115.863L444.72 120Z" fill="#E5544B"/>
<path d="M324.783 151L322.721 144.279H322.668C322.676 144.439 322.688 144.682 322.703 145.006C322.723 145.326 322.74 145.668 322.756 146.031C322.771 146.395 322.779 146.723 322.779 147.016V151H321.156V142.434H323.629L325.656 148.984H325.691L327.842 142.434H330.314V151H328.621V146.945C328.621 146.676 328.625 146.365 328.633 146.014C328.645 145.662 328.658 145.328 328.674 145.012C328.689 144.691 328.701 144.451 328.709 144.291H328.656L326.447 151H324.783ZM337.41 151H332.477V142.434H337.41V143.922H334.293V145.803H337.193V147.291H334.293V149.5H337.41V151ZM344.26 148.621C344.26 149.129 344.137 149.57 343.891 149.945C343.645 150.32 343.285 150.609 342.812 150.812C342.344 151.016 341.773 151.117 341.102 151.117C340.805 151.117 340.514 151.098 340.229 151.059C339.947 151.02 339.676 150.963 339.414 150.889C339.156 150.811 338.91 150.715 338.676 150.602V148.914C339.082 149.094 339.504 149.256 339.941 149.4C340.379 149.545 340.812 149.617 341.242 149.617C341.539 149.617 341.777 149.578 341.957 149.5C342.141 149.422 342.273 149.314 342.355 149.178C342.438 149.041 342.479 148.885 342.479 148.709C342.479 148.494 342.406 148.311 342.262 148.158C342.117 148.006 341.918 147.863 341.664 147.73C341.414 147.598 341.131 147.455 340.814 147.303C340.615 147.209 340.398 147.096 340.164 146.963C339.93 146.826 339.707 146.66 339.496 146.465C339.285 146.27 339.111 146.033 338.975 145.756C338.842 145.475 338.775 145.139 338.775 144.748C338.775 144.236 338.893 143.799 339.127 143.436C339.361 143.072 339.695 142.795 340.129 142.604C340.566 142.408 341.082 142.311 341.676 142.311C342.121 142.311 342.545 142.363 342.947 142.469C343.354 142.57 343.777 142.719 344.219 142.914L343.633 144.326C343.238 144.166 342.885 144.043 342.572 143.957C342.26 143.867 341.941 143.822 341.617 143.822C341.391 143.822 341.197 143.859 341.037 143.934C340.877 144.004 340.756 144.105 340.674 144.238C340.592 144.367 340.551 144.518 340.551 144.689C340.551 144.893 340.609 145.064 340.727 145.205C340.848 145.342 341.027 145.475 341.266 145.604C341.508 145.732 341.809 145.883 342.168 146.055C342.605 146.262 342.979 146.479 343.287 146.705C343.6 146.928 343.84 147.191 344.008 147.496C344.176 147.797 344.26 148.172 344.26 148.621ZM352.832 151H351.021V147.303H347.629V151H345.812V142.434H347.629V145.791H351.021V142.434H352.832V151ZM307.979 158.434H310.645C311.785 158.434 312.648 158.594 313.234 158.914C313.82 159.234 314.113 159.797 314.113 160.602C314.113 160.926 314.061 161.219 313.955 161.48C313.854 161.742 313.705 161.957 313.51 162.125C313.314 162.293 313.076 162.402 312.795 162.453V162.512C313.08 162.57 313.338 162.672 313.568 162.816C313.799 162.957 313.982 163.164 314.119 163.438C314.26 163.707 314.33 164.066 314.33 164.516C314.33 165.035 314.203 165.48 313.949 165.852C313.695 166.223 313.332 166.508 312.859 166.707C312.391 166.902 311.832 167 311.184 167H307.979V158.434ZM309.795 161.826H310.85C311.377 161.826 311.742 161.744 311.945 161.58C312.148 161.412 312.25 161.166 312.25 160.842C312.25 160.514 312.129 160.279 311.887 160.139C311.648 159.994 311.27 159.922 310.75 159.922H309.795V161.826ZM309.795 163.268V165.5H310.979C311.525 165.5 311.906 165.395 312.121 165.184C312.336 164.973 312.443 164.689 312.443 164.334C312.443 164.123 312.396 163.938 312.303 163.777C312.209 163.617 312.051 163.492 311.828 163.402C311.609 163.312 311.307 163.268 310.92 163.268H309.795ZM318.707 161.961L320.494 158.434H322.451L319.609 163.666V167H317.805V163.725L314.963 158.434H316.932L318.707 161.961ZM326.266 158.434C327.371 158.434 328.178 158.672 328.686 159.148C329.193 159.621 329.447 160.273 329.447 161.105C329.447 161.48 329.391 161.84 329.277 162.184C329.164 162.523 328.979 162.826 328.721 163.092C328.467 163.357 328.127 163.568 327.701 163.725C327.275 163.877 326.75 163.953 326.125 163.953H325.346V167H323.529V158.434H326.266ZM326.172 159.922H325.346V162.465H325.943C326.283 162.465 326.578 162.42 326.828 162.33C327.078 162.24 327.271 162.1 327.408 161.908C327.545 161.717 327.613 161.471 327.613 161.17C327.613 160.748 327.496 160.436 327.262 160.232C327.027 160.025 326.664 159.922 326.172 159.922ZM336.309 167L335.688 164.961H332.564L331.943 167H329.986L333.01 158.398H335.23L338.266 167H336.309ZM335.254 163.438L334.633 161.445C334.594 161.312 334.541 161.143 334.475 160.936C334.412 160.725 334.348 160.512 334.281 160.297C334.219 160.078 334.168 159.889 334.129 159.729C334.09 159.889 334.035 160.088 333.965 160.326C333.898 160.561 333.834 160.783 333.771 160.994C333.709 161.205 333.664 161.355 333.637 161.445L333.021 163.438H335.254ZM344.406 164.621C344.406 165.129 344.283 165.57 344.037 165.945C343.791 166.32 343.432 166.609 342.959 166.812C342.49 167.016 341.92 167.117 341.248 167.117C340.951 167.117 340.66 167.098 340.375 167.059C340.094 167.02 339.822 166.963 339.561 166.889C339.303 166.811 339.057 166.715 338.822 166.602V164.914C339.229 165.094 339.65 165.256 340.088 165.4C340.525 165.545 340.959 165.617 341.389 165.617C341.686 165.617 341.924 165.578 342.104 165.5C342.287 165.422 342.42 165.314 342.502 165.178C342.584 165.041 342.625 164.885 342.625 164.709C342.625 164.494 342.553 164.311 342.408 164.158C342.264 164.006 342.064 163.863 341.811 163.73C341.561 163.598 341.277 163.455 340.961 163.303C340.762 163.209 340.545 163.096 340.311 162.963C340.076 162.826 339.854 162.66 339.643 162.465C339.432 162.27 339.258 162.033 339.121 161.756C338.988 161.475 338.922 161.139 338.922 160.748C338.922 160.236 339.039 159.799 339.273 159.436C339.508 159.072 339.842 158.795 340.275 158.604C340.713 158.408 341.229 158.311 341.822 158.311C342.268 158.311 342.691 158.363 343.094 158.469C343.5 158.57 343.924 158.719 344.365 158.914L343.779 160.326C343.385 160.166 343.031 160.043 342.719 159.957C342.406 159.867 342.088 159.822 341.764 159.822C341.537 159.822 341.344 159.859 341.184 159.934C341.023 160.004 340.902 160.105 340.82 160.238C340.738 160.367 340.697 160.518 340.697 160.689C340.697 160.893 340.756 161.064 340.873 161.205C340.994 161.342 341.174 161.475 341.412 161.604C341.654 161.732 341.955 161.883 342.314 162.055C342.752 162.262 343.125 162.479 343.434 162.705C343.746 162.928 343.986 163.191 344.154 163.496C344.322 163.797 344.406 164.172 344.406 164.621ZM351.016 164.621C351.016 165.129 350.893 165.57 350.646 165.945C350.4 166.32 350.041 166.609 349.568 166.812C349.1 167.016 348.529 167.117 347.857 167.117C347.561 167.117 347.27 167.098 346.984 167.059C346.703 167.02 346.432 166.963 346.17 166.889C345.912 166.811 345.666 166.715 345.432 166.602V164.914C345.838 165.094 346.26 165.256 346.697 165.4C347.135 165.545 347.568 165.617 347.998 165.617C348.295 165.617 348.533 165.578 348.713 165.5C348.896 165.422 349.029 165.314 349.111 165.178C349.193 165.041 349.234 164.885 349.234 164.709C349.234 164.494 349.162 164.311 349.018 164.158C348.873 164.006 348.674 163.863 348.42 163.73C348.17 163.598 347.887 163.455 347.57 163.303C347.371 163.209 347.154 163.096 346.92 162.963C346.686 162.826 346.463 162.66 346.252 162.465C346.041 162.27 345.867 162.033 345.73 161.756C345.598 161.475 345.531 161.139 345.531 160.748C345.531 160.236 345.648 159.799 345.883 159.436C346.117 159.072 346.451 158.795 346.885 158.604C347.322 158.408 347.838 158.311 348.432 158.311C348.877 158.311 349.301 158.363 349.703 158.469C350.109 158.57 350.533 158.719 350.975 158.914L350.389 160.326C349.994 160.166 349.641 160.043 349.328 159.957C349.016 159.867 348.697 159.822 348.373 159.822C348.146 159.822 347.953 159.859 347.793 159.934C347.633 160.004 347.512 160.105 347.43 160.238C347.348 160.367 347.307 160.518 347.307 160.689C347.307 160.893 347.365 161.064 347.482 161.205C347.604 161.342 347.783 161.475 348.021 161.604C348.264 161.732 348.564 161.883 348.924 162.055C349.361 162.262 349.734 162.479 350.043 162.705C350.355 162.928 350.596 163.191 350.764 163.496C350.932 163.797 351.016 164.172 351.016 164.621ZM357.502 167H352.568V158.434H357.502V159.922H354.385V161.803H357.285V163.291H354.385V165.5H357.502V167ZM366.402 162.635C366.402 163.6 366.217 164.406 365.846 165.055C365.479 165.699 364.945 166.186 364.246 166.514C363.547 166.838 362.705 167 361.721 167H359.295V158.434H361.984C362.883 158.434 363.662 158.594 364.322 158.914C364.982 159.23 365.494 159.701 365.857 160.326C366.221 160.947 366.402 161.717 366.402 162.635ZM364.516 162.682C364.516 162.049 364.422 161.529 364.234 161.123C364.051 160.713 363.777 160.41 363.414 160.215C363.055 160.02 362.609 159.922 362.078 159.922H361.111V165.5H361.891C362.777 165.5 363.436 165.264 363.865 164.791C364.299 164.318 364.516 163.615 364.516 162.682Z" fill="#E5544B"/>
<circle cx="338" cy="121" r="13.25" fill="#E5544B" stroke="white" stroke-width="1.5"/>
<path d="M338.701 122.685H337.033L336.684 116.006H339.049L338.701 122.685ZM336.657 125.022C336.657 124.594 336.773 124.293 337.006 124.12C337.242 123.947 337.527 123.86 337.86 123.86C338.184 123.86 338.462 123.947 338.694 124.12C338.931 124.293 339.049 124.594 339.049 125.022C339.049 125.433 338.931 125.729 338.694 125.911C338.462 126.093 338.184 126.185 337.86 126.185C337.527 126.185 337.242 126.093 337.006 125.911C336.773 125.729 336.657 125.433 336.657 125.022Z" fill="white"/>
<line x1="238.5" y1="26.5" x2="238.5" y2="112.5" stroke="#999999" stroke-linecap="round" stroke-linejoin="round"/>
<line x1="179.5" y1="204.5" x2="188.5" y2="204.5" stroke="#999999" stroke-linecap="round" stroke-linejoin="round"/>
<path d="M16 235.75H84C84.6904 235.75 85.25 236.31 85.25 237V305C85.25 305.69 84.6904 306.25 84 306.25H16C15.3096 306.25 14.75 305.69 14.75 305V237C14.75 236.31 15.3096 235.75 16 235.75Z" fill="white" stroke="#D2D4DB" stroke-width="1.5"/>
<mask id="path-54-inside-3_0_1" fill="white">
<rect x="36" y="255" width="28" height="32" rx="1"/>
</mask>
<rect x="36" y="255" width="28" height="32" rx="1" stroke="black" stroke-width="4" mask="url(#path-54-inside-3_0_1)"/>
<rect x="41" y="263" width="18" height="2" rx="1" fill="black"/>
<rect x="41" y="269" width="18" height="2" rx="1" fill="black"/>
<rect x="41" y="275" width="10" height="2" rx="1" fill="black"/>
<mask id="path-58-inside-4_0_1" fill="white">
<path fill-rule="evenodd" clip-rule="evenodd" d="M50 247C47.7909 247 46 248.791 46 251V252H43C41.8954 252 41 252.895 41 254L41 258C41 259.105 41.8954 260 43 260L57 260C58.1046 260 59 259.105 59 258V254C59 252.895 58.1046 252 57 252H54V251C54 248.791 52.2091 247 50 247Z"/>
</mask>
<path fill-rule="evenodd" clip-rule="evenodd" d="M50 247C47.7909 247 46 248.791 46 251V252H43C41.8954 252 41 252.895 41 254L41 258C41 259.105 41.8954 260 43 260L57 260C58.1046 260 59 259.105 59 258V254C59 252.895 58.1046 252 57 252H54V251C54 248.791 52.2091 247 50 247Z" fill="white"/>
<path d="M46 252L46 254C46.5304 254 47.0391 253.789 47.4142 253.414C47.7893 253.039 48 252.53 48 252H46ZM43 252V250V252ZM43 260V258V260ZM57 260L57 262L57 260ZM54 252H52C52 253.105 52.8954 254 54 254L54 252ZM48 251C48 249.895 48.8954 249 50 249V245C46.6863 245 44 247.686 44 251H48ZM48 252V251H44V252H48ZM43 254H46L46 250H43L43 254ZM43 254L43 250C40.7909 250 39 251.791 39 254H43ZM43 258L43 254H39L39 258H43ZM43 258H43H39C39 260.209 40.7909 262 43 262L43 258ZM57 258H43L43 262H57L57 258ZM57 258L57 262C59.2091 262 61 260.209 61 258L57 258ZM57 254V258L61 258V254H57ZM57 254H61C61 251.791 59.2091 250 57 250L57 254ZM54 254H57L57 250H54L54 254ZM52 251V252H56V251H52ZM50 249C51.1046 249 52 249.895 52 251H56C56 247.686 53.3137 245 50 245V249Z" fill="black" mask="url(#path-58-inside-4_0_1)"/>
<circle cx="14" cy="233" r="13.25" fill="#CA2171" stroke="white" stroke-width="1.5"/>
<circle cx="14" cy="233" r="13.25" fill="#CA2171" stroke="white" stroke-width="1.5"/>
<circle cx="210" cy="205" r="13.25" fill="#CA2171" stroke="white" stroke-width="1.5"/>
<circle cx="435" cy="101" r="13.25" fill="#CA2171" stroke="white" stroke-width="1.5"/>
<path d="M15.5757 238H13.5514V232.458L13.571 231.547L13.6038 230.551C13.2675 230.888 13.0338 231.108 12.9028 231.213L11.8022 232.097L10.8261 230.879L13.9117 228.422H15.5757V238Z" fill="white"/>
<path d="M15.5757 238H13.5514V232.458L13.571 231.547L13.6038 230.551C13.2675 230.888 13.0338 231.108 12.9028 231.213L11.8022 232.097L10.8261 230.879L13.9117 228.422H15.5757V238Z" fill="white"/>
<path d="M213.259 210H206.564V208.592L208.968 206.161C209.453 205.663 209.842 205.248 210.134 204.916C210.431 204.58 210.645 204.274 210.776 203.999C210.912 203.724 210.98 203.429 210.98 203.115C210.98 202.735 210.873 202.451 210.659 202.263C210.449 202.071 210.167 201.975 209.813 201.975C209.442 201.975 209.082 202.06 208.732 202.23C208.383 202.401 208.018 202.643 207.638 202.958L206.538 201.654C206.813 201.418 207.103 201.195 207.409 200.986C207.719 200.776 208.077 200.608 208.484 200.481C208.894 200.35 209.385 200.285 209.958 200.285C210.586 200.285 211.126 200.398 211.576 200.625C212.03 200.852 212.379 201.163 212.624 201.556C212.868 201.944 212.991 202.385 212.991 202.879C212.991 203.407 212.886 203.89 212.676 204.327C212.467 204.763 212.161 205.196 211.759 205.624C211.362 206.052 210.881 206.526 210.318 207.045L209.086 208.205V208.297H213.259V210Z" fill="white"/>
<path d="M437.886 98.5645C437.886 99.0056 437.794 99.3877 437.611 99.7109C437.427 100.034 437.178 100.298 436.864 100.504C436.554 100.709 436.204 100.86 435.816 100.956V100.995C436.584 101.091 437.167 101.327 437.565 101.702C437.967 102.078 438.168 102.58 438.168 103.209C438.168 103.768 438.03 104.268 437.755 104.709C437.484 105.151 437.065 105.498 436.497 105.751C435.929 106.004 435.198 106.131 434.302 106.131C433.774 106.131 433.28 106.087 432.822 106C432.368 105.917 431.94 105.788 431.538 105.613V103.891C431.948 104.1 432.379 104.26 432.828 104.369C433.278 104.474 433.698 104.526 434.086 104.526C434.811 104.526 435.318 104.402 435.606 104.153C435.899 103.899 436.045 103.546 436.045 103.091C436.045 102.825 435.977 102.6 435.842 102.417C435.707 102.233 435.471 102.093 435.134 101.997C434.803 101.901 434.337 101.853 433.739 101.853H433.012V100.301H433.752C434.342 100.301 434.789 100.246 435.095 100.137C435.405 100.023 435.615 99.8703 435.724 99.6782C435.838 99.4816 435.894 99.2589 435.894 99.01C435.894 98.6693 435.79 98.4029 435.58 98.2107C435.37 98.0186 435.021 97.9225 434.532 97.9225C434.226 97.9225 433.946 97.9618 433.693 98.0404C433.444 98.1147 433.219 98.2064 433.018 98.3156C432.818 98.4204 432.641 98.523 432.488 98.6235L431.551 97.2281C431.927 96.9573 432.365 96.7324 432.868 96.5533C433.374 96.3742 433.977 96.2847 434.676 96.2847C435.663 96.2847 436.445 96.4834 437.021 96.8809C437.598 97.2783 437.886 97.8395 437.886 98.5645Z" fill="white"/>
<path d="M51 240L51 214C51 209.582 54.5817 206 59 206L72 206" stroke="#9194A0" stroke-width="2" stroke-linecap="round" stroke-linejoin="round" stroke-dasharray="1.5 4"/>
<circle cx="51" cy="236" r="4" transform="rotate(-90 51 236)" fill="white" stroke="#9194A0" stroke-width="2"/>
<circle r="4" transform="matrix(-1 3.17865e-08 3.17865e-08 1 68 206)" fill="white" stroke="#9194A0" stroke-width="2"/>
</svg>
