<svg width="538" height="360" viewBox="0 0 538 360" fill="none" xmlns="http://www.w3.org/2000/svg">
<path d="M432.75 55.3228H534C535.795 55.3228 537.25 56.7778 537.25 58.5728V347.204C537.25 348.998 535.795 350.454 534 350.454H432.75V55.3228Z" stroke="#D2D4DB" stroke-width="1.5"/>
<path d="M434 54.5728H422C419.791 54.5728 418 56.3636 418 58.5728V347.204C418 349.413 419.791 351.204 422 351.204H434V54.5728Z" fill="url(#paint0_linear_0_1)"/>
<path d="M138.75 58.5728C138.75 56.7778 140.205 55.3228 142 55.3228H243.25V350.454H142C140.205 350.454 138.75 348.998 138.75 347.204V58.5728Z" stroke="#D2D4DB" stroke-width="1.5"/>
<rect x="150" y="46.5011" width="42" height="16.1432" fill="white"/>
<rect x="444" y="46.5011" width="42" height="16.1432" fill="white"/>
<path d="M157.497 46.1475C158.51 46.1475 159.249 46.3659 159.715 46.8027C160.18 47.236 160.413 47.834 160.413 48.5967C160.413 48.9404 160.361 49.2699 160.257 49.585C160.153 49.8965 159.983 50.174 159.747 50.4175C159.514 50.661 159.203 50.8543 158.812 50.9976C158.422 51.1372 157.941 51.207 157.368 51.207H156.653V54H154.988V46.1475H157.497ZM157.411 47.5117H156.653V49.8428H157.201C157.513 49.8428 157.783 49.8016 158.012 49.7192C158.241 49.6369 158.419 49.508 158.544 49.3325C158.669 49.1571 158.732 48.9315 158.732 48.6558C158.732 48.269 158.625 47.9826 158.41 47.7964C158.195 47.6066 157.862 47.5117 157.411 47.5117ZM169.023 50.063C169.023 50.6681 168.948 51.2196 168.797 51.7173C168.647 52.2114 168.418 52.6375 168.11 52.9956C167.806 53.3537 167.419 53.6294 166.95 53.8228C166.481 54.0125 165.926 54.1074 165.285 54.1074C164.644 54.1074 164.089 54.0125 163.62 53.8228C163.151 53.6294 162.762 53.3537 162.454 52.9956C162.15 52.6375 161.922 52.2096 161.772 51.7119C161.622 51.2142 161.546 50.661 161.546 50.0522C161.546 49.2394 161.679 48.5322 161.944 47.9307C162.212 47.3255 162.624 46.8564 163.179 46.5234C163.734 46.1904 164.44 46.0239 165.295 46.0239C166.148 46.0239 166.848 46.1904 167.396 46.5234C167.947 46.8564 168.355 47.3255 168.62 47.9307C168.889 48.5358 169.023 49.2466 169.023 50.063ZM163.292 50.063C163.292 50.6108 163.36 51.0835 163.496 51.481C163.636 51.8748 163.852 52.1792 164.146 52.394C164.44 52.6053 164.819 52.7109 165.285 52.7109C165.757 52.7109 166.14 52.6053 166.434 52.394C166.728 52.1792 166.941 51.8748 167.073 51.481C167.209 51.0835 167.277 50.6108 167.277 50.063C167.277 49.2394 167.123 48.5913 166.815 48.1187C166.507 47.646 166.001 47.4097 165.295 47.4097C164.826 47.4097 164.443 47.5171 164.146 47.7319C163.852 47.9432 163.636 48.2476 163.496 48.645C163.36 49.0389 163.292 49.5116 163.292 50.063ZM177.166 49.9985C177.166 50.883 176.995 51.6224 176.655 52.2168C176.319 52.8076 175.83 53.2534 175.189 53.5542C174.548 53.8514 173.776 54 172.874 54H170.65V46.1475H173.116C173.939 46.1475 174.654 46.2943 175.259 46.5879C175.864 46.8779 176.333 47.3094 176.666 47.8823C176.999 48.4517 177.166 49.1571 177.166 49.9985ZM175.436 50.0415C175.436 49.4614 175.35 48.9852 175.178 48.6128C175.01 48.2368 174.759 47.9593 174.426 47.7803C174.097 47.6012 173.689 47.5117 173.202 47.5117H172.315V52.625H173.03C173.843 52.625 174.446 52.4084 174.84 51.9751C175.237 51.5418 175.436 50.8973 175.436 50.0415ZM186.458 54L185.888 52.1309H183.025L182.456 54H180.662L183.434 46.1152H185.469L188.251 54H186.458ZM185.491 50.7344L184.921 48.9082C184.886 48.7865 184.837 48.6307 184.776 48.4409C184.719 48.2476 184.66 48.0524 184.599 47.8555C184.542 47.6549 184.495 47.4813 184.459 47.3345C184.424 47.4813 184.374 47.6639 184.309 47.8823C184.248 48.0972 184.189 48.3013 184.132 48.4946C184.075 48.688 184.033 48.8258 184.008 48.9082L183.444 50.7344H185.491Z" fill="#9194A0"/>
<path d="M451.497 46.1475C452.51 46.1475 453.249 46.3659 453.715 46.8027C454.18 47.236 454.413 47.834 454.413 48.5967C454.413 48.9404 454.361 49.2699 454.257 49.585C454.153 49.8965 453.983 50.174 453.747 50.4175C453.514 50.661 453.203 50.8543 452.812 50.9976C452.422 51.1372 451.941 51.207 451.368 51.207H450.653V54H448.988V46.1475H451.497ZM451.411 47.5117H450.653V49.8428H451.201C451.513 49.8428 451.783 49.8016 452.012 49.7192C452.241 49.6369 452.419 49.508 452.544 49.3325C452.669 49.1571 452.732 48.9315 452.732 48.6558C452.732 48.269 452.625 47.9826 452.41 47.7964C452.195 47.6066 451.862 47.5117 451.411 47.5117ZM463.023 50.063C463.023 50.6681 462.948 51.2196 462.797 51.7173C462.647 52.2114 462.418 52.6375 462.11 52.9956C461.806 53.3537 461.419 53.6294 460.95 53.8228C460.481 54.0125 459.926 54.1074 459.285 54.1074C458.644 54.1074 458.089 54.0125 457.62 53.8228C457.151 53.6294 456.762 53.3537 456.454 52.9956C456.15 52.6375 455.922 52.2096 455.772 51.7119C455.622 51.2142 455.546 50.661 455.546 50.0522C455.546 49.2394 455.679 48.5322 455.944 47.9307C456.212 47.3255 456.624 46.8564 457.179 46.5234C457.734 46.1904 458.44 46.0239 459.295 46.0239C460.148 46.0239 460.848 46.1904 461.396 46.5234C461.947 46.8564 462.355 47.3255 462.62 47.9307C462.889 48.5358 463.023 49.2466 463.023 50.063ZM457.292 50.063C457.292 50.6108 457.36 51.0835 457.496 51.481C457.636 51.8748 457.852 52.1792 458.146 52.394C458.44 52.6053 458.819 52.7109 459.285 52.7109C459.757 52.7109 460.14 52.6053 460.434 52.394C460.728 52.1792 460.941 51.8748 461.073 51.481C461.209 51.0835 461.277 50.6108 461.277 50.063C461.277 49.2394 461.123 48.5913 460.815 48.1187C460.507 47.646 460.001 47.4097 459.295 47.4097C458.826 47.4097 458.443 47.5171 458.146 47.7319C457.852 47.9432 457.636 48.2476 457.496 48.645C457.36 49.0389 457.292 49.5116 457.292 50.063ZM471.166 49.9985C471.166 50.883 470.995 51.6224 470.655 52.2168C470.319 52.8076 469.83 53.2534 469.189 53.5542C468.548 53.8514 467.776 54 466.874 54H464.65V46.1475H467.116C467.939 46.1475 468.654 46.2943 469.259 46.5879C469.864 46.8779 470.333 47.3094 470.666 47.8823C470.999 48.4517 471.166 49.1571 471.166 49.9985ZM469.436 50.0415C469.436 49.4614 469.35 48.9852 469.178 48.6128C469.01 48.2368 468.759 47.9593 468.426 47.7803C468.097 47.6012 467.689 47.5117 467.202 47.5117H466.315V52.625H467.03C467.843 52.625 468.446 52.4084 468.84 51.9751C469.237 51.5418 469.436 50.8973 469.436 50.0415ZM475.65 46.1475H478.094C479.14 46.1475 479.931 46.2943 480.468 46.5879C481.005 46.8815 481.274 47.3971 481.274 48.1348C481.274 48.432 481.226 48.7005 481.129 48.9404C481.036 49.1803 480.9 49.3773 480.721 49.5312C480.542 49.6852 480.323 49.7855 480.065 49.832V49.8857C480.327 49.9395 480.563 50.0326 480.774 50.165C480.986 50.2939 481.154 50.4837 481.279 50.7344C481.408 50.9814 481.473 51.3109 481.473 51.7227C481.473 52.1989 481.356 52.6071 481.124 52.9473C480.891 53.2874 480.558 53.5488 480.125 53.7314C479.695 53.9105 479.183 54 478.588 54H475.65V46.1475ZM477.315 49.2573H478.282C478.766 49.2573 479.1 49.1821 479.287 49.0317C479.473 48.8778 479.566 48.6522 479.566 48.355C479.566 48.0542 479.455 47.8394 479.233 47.7104C479.014 47.578 478.667 47.5117 478.191 47.5117H477.315V49.2573ZM477.315 50.5786V52.625H478.4C478.902 52.625 479.251 52.5283 479.448 52.335C479.645 52.1416 479.743 51.882 479.743 51.5562C479.743 51.3628 479.7 51.1927 479.614 51.0459C479.528 50.8991 479.383 50.7845 479.179 50.7021C478.979 50.6198 478.701 50.5786 478.347 50.5786H477.315Z" fill="#9194A0"/>
<path d="M154.75 86C154.75 85.3096 155.31 84.75 156 84.75H224C224.69 84.75 225.25 85.3096 225.25 86V154C225.25 154.69 224.69 155.25 224 155.25H156C155.31 155.25 154.75 154.69 154.75 154V86Z" fill="white" stroke="#D2D4DB" stroke-width="1.5"/>
<rect x="172" y="101" width="36" height="37" rx="1" fill="white" stroke="black" stroke-width="2"/>
<rect x="172" y="101" width="36" height="8" rx="1" fill="white" stroke="black" stroke-width="2"/>
<path d="M186.965 126.766L180.156 123.752V122.591L186.947 119.187V121.188L182.781 123.085L186.947 124.817L186.965 126.766Z" fill="black"/>
<path d="M193.521 118L189.865 128.1H187.535L191.199 118H193.521Z" fill="black"/>
<path d="M194.016 124.791L198.182 123.059L194.016 121.197V119.196L200.807 122.6V123.752L194.016 126.766V124.791Z" fill="black"/>
<path d="M188.046 166.434L185.867 175H183.798L182.638 170.5C182.615 170.414 182.583 170.283 182.544 170.107C182.505 169.932 182.464 169.74 182.421 169.533C182.378 169.322 182.339 169.125 182.304 168.941C182.273 168.754 182.251 168.605 182.24 168.496C182.228 168.605 182.204 168.752 182.169 168.936C182.138 169.119 182.101 169.314 182.058 169.521C182.019 169.729 181.98 169.922 181.941 170.102C181.902 170.281 181.87 170.418 181.847 170.512L180.693 175H178.63L176.445 166.434H178.232L179.327 171.109C179.359 171.25 179.394 171.418 179.433 171.613C179.476 171.809 179.517 172.014 179.556 172.229C179.599 172.439 179.636 172.645 179.667 172.844C179.702 173.039 179.728 173.209 179.744 173.354C179.763 173.205 179.788 173.033 179.82 172.838C179.851 172.639 179.884 172.438 179.919 172.234C179.958 172.027 179.997 171.836 180.036 171.66C180.076 171.484 180.111 171.342 180.142 171.232L181.39 166.434H183.107L184.355 171.232C184.382 171.338 184.413 171.48 184.449 171.66C184.488 171.836 184.527 172.027 184.566 172.234C184.605 172.441 184.64 172.645 184.671 172.844C184.706 173.039 184.732 173.209 184.747 173.354C184.775 173.158 184.812 172.922 184.859 172.645C184.91 172.363 184.962 172.084 185.017 171.807C185.076 171.529 185.126 171.297 185.169 171.109L186.259 166.434H188.046ZM194.298 175H189.364V166.434H194.298V167.922H191.181V169.803H194.081V171.291H191.181V173.5H194.298V175ZM196.331 166.434H198.997C200.138 166.434 201.001 166.594 201.587 166.914C202.173 167.234 202.466 167.797 202.466 168.602C202.466 168.926 202.413 169.219 202.307 169.48C202.206 169.742 202.057 169.957 201.862 170.125C201.667 170.293 201.429 170.402 201.147 170.453V170.512C201.432 170.57 201.69 170.672 201.921 170.816C202.151 170.957 202.335 171.164 202.472 171.438C202.612 171.707 202.682 172.066 202.682 172.516C202.682 173.035 202.556 173.48 202.302 173.852C202.048 174.223 201.684 174.508 201.212 174.707C200.743 174.902 200.184 175 199.536 175H196.331V166.434ZM198.147 169.826H199.202C199.729 169.826 200.095 169.744 200.298 169.58C200.501 169.412 200.602 169.166 200.602 168.842C200.602 168.514 200.481 168.279 200.239 168.139C200.001 167.994 199.622 167.922 199.102 167.922H198.147V169.826ZM198.147 171.268V173.5H199.331C199.878 173.5 200.259 173.395 200.474 173.184C200.688 172.973 200.796 172.689 200.796 172.334C200.796 172.123 200.749 171.938 200.655 171.777C200.561 171.617 200.403 171.492 200.181 171.402C199.962 171.312 199.659 171.268 199.272 171.268H198.147Z" fill="#6A6D7A"/>
<path d="M449.75 86C449.75 85.3096 450.31 84.75 451 84.75L519 84.75C519.69 84.75 520.25 85.3096 520.25 86L520.25 154C520.25 154.69 519.69 155.25 519 155.25L451 155.25C450.31 155.25 449.75 154.69 449.75 154L449.75 86Z" fill="white" stroke="#D2D4DB" stroke-width="1.5"/>
<path d="M499.999 109V130.281C499.999 131.913 498.658 133.654 495.873 135.047C493.146 136.41 489.306 137.281 485 137.281C480.694 137.281 476.853 136.41 474.127 135.047C471.342 133.654 470 131.913 470 130.281V109C470 107.368 471.342 105.627 474.127 104.234C476.853 102.871 480.694 102 485 102C489.306 102 493.146 102.871 495.873 104.234C498.658 105.627 499.999 107.368 499.999 109Z" fill="white" stroke="black" stroke-width="2" stroke-miterlimit="10" stroke-linecap="round" stroke-linejoin="round"/>
<mask id="path-17-inside-1_0_1" fill="white">
<path d="M500.999 119.64C500.999 124.067 493.854 127.64 485 127.64C476.145 127.64 469 124.067 469 119.64"/>
</mask>
<path d="M502.999 119.64C502.999 118.535 502.104 117.64 500.999 117.64C499.895 117.64 498.999 118.535 498.999 119.64H502.999ZM471 119.64C471 118.535 470.105 117.64 469 117.64C467.895 117.64 467 118.535 467 119.64H471ZM498.999 119.64C498.999 120.69 498.102 122.173 495.425 123.511C492.865 124.791 489.185 125.64 485 125.64V129.64C489.669 129.64 493.988 128.702 497.214 127.089C500.324 125.534 502.999 123.017 502.999 119.64H498.999ZM485 125.64C480.814 125.64 477.134 124.791 474.574 123.511C471.897 122.173 471 120.69 471 119.64H467C467 123.017 469.676 125.534 472.785 127.089C476.011 128.702 480.331 129.64 485 129.64V125.64Z" fill="black" mask="url(#path-17-inside-1_0_1)"/>
<mask id="path-19-inside-2_0_1" fill="white">
<path d="M500.999 108.763C500.999 113.19 493.854 116.763 485 116.763C476.145 116.763 469 113.19 469 108.763"/>
</mask>
<path d="M502.999 108.763C502.999 107.658 502.104 106.763 500.999 106.763C499.895 106.763 498.999 107.658 498.999 108.763H502.999ZM471 108.763C471 107.658 470.105 106.763 469 106.763C467.895 106.763 467 107.658 467 108.763H471ZM498.999 108.763C498.999 109.813 498.102 111.296 495.425 112.634C492.865 113.914 489.185 114.763 485 114.763V118.763C489.669 118.763 493.988 117.825 497.214 116.212C500.324 114.657 502.999 112.14 502.999 108.763H498.999ZM485 114.763C480.814 114.763 477.134 113.914 474.574 112.634C471.897 111.296 471 109.813 471 108.763H467C467 112.14 469.676 114.657 472.785 116.212C476.011 117.825 480.331 118.763 485 118.763V114.763Z" fill="black" mask="url(#path-19-inside-2_0_1)"/>
<path d="M461.183 170.635C461.183 171.6 460.997 172.406 460.626 173.055C460.259 173.699 459.726 174.186 459.026 174.514C458.327 174.838 457.485 175 456.501 175H454.075V166.434H456.765C457.663 166.434 458.442 166.594 459.103 166.914C459.763 167.23 460.274 167.701 460.638 168.326C461.001 168.947 461.183 169.717 461.183 170.635ZM459.296 170.682C459.296 170.049 459.202 169.529 459.015 169.123C458.831 168.713 458.558 168.41 458.194 168.215C457.835 168.02 457.39 167.922 456.858 167.922H455.892V173.5H456.671C457.558 173.5 458.216 173.264 458.645 172.791C459.079 172.318 459.296 171.615 459.296 170.682ZM468.442 175L467.821 172.961H464.698L464.077 175H462.12L465.143 166.398H467.364L470.399 175H468.442ZM467.387 171.438L466.766 169.445C466.727 169.312 466.675 169.143 466.608 168.936C466.546 168.725 466.481 168.512 466.415 168.297C466.352 168.078 466.301 167.889 466.262 167.729C466.223 167.889 466.169 168.088 466.098 168.326C466.032 168.561 465.968 168.783 465.905 168.994C465.843 169.205 465.798 169.355 465.77 169.445L465.155 171.438H467.387ZM475.028 175H473.211V167.945H470.885V166.434H477.354V167.945H475.028V175ZM484.156 175L483.535 172.961H480.412L479.791 175H477.834L480.858 166.398H483.078L486.114 175H484.156ZM483.102 171.438L482.481 169.445C482.442 169.312 482.389 169.143 482.323 168.936C482.26 168.725 482.196 168.512 482.129 168.297C482.067 168.078 482.016 167.889 481.977 167.729C481.938 167.889 481.883 168.088 481.813 168.326C481.746 168.561 481.682 168.783 481.619 168.994C481.557 169.205 481.512 169.355 481.485 169.445L480.869 171.438H483.102ZM487.438 166.434H490.104C491.244 166.434 492.107 166.594 492.693 166.914C493.279 167.234 493.572 167.797 493.572 168.602C493.572 168.926 493.52 169.219 493.414 169.48C493.312 169.742 493.164 169.957 492.969 170.125C492.773 170.293 492.535 170.402 492.254 170.453V170.512C492.539 170.57 492.797 170.672 493.027 170.816C493.258 170.957 493.441 171.164 493.578 171.438C493.719 171.707 493.789 172.066 493.789 172.516C493.789 173.035 493.662 173.48 493.408 173.852C493.154 174.223 492.791 174.508 492.318 174.707C491.85 174.902 491.291 175 490.643 175H487.438V166.434ZM489.254 169.826H490.309C490.836 169.826 491.201 169.744 491.404 169.58C491.607 169.412 491.709 169.166 491.709 168.842C491.709 168.514 491.588 168.279 491.346 168.139C491.107 167.994 490.729 167.922 490.209 167.922H489.254V169.826ZM489.254 171.268V173.5H490.438C490.984 173.5 491.365 173.395 491.58 173.184C491.795 172.973 491.902 172.689 491.902 172.334C491.902 172.123 491.855 171.938 491.762 171.777C491.668 171.617 491.51 171.492 491.287 171.402C491.068 171.312 490.766 171.268 490.379 171.268H489.254ZM500.984 175L500.363 172.961H497.24L496.619 175H494.662L497.685 166.398H499.906L502.941 175H500.984ZM499.929 171.438L499.308 169.445C499.269 169.312 499.217 169.143 499.15 168.936C499.088 168.725 499.023 168.512 498.957 168.297C498.894 168.078 498.844 167.889 498.804 167.729C498.765 167.889 498.711 168.088 498.64 168.326C498.574 168.561 498.51 168.783 498.447 168.994C498.385 169.205 498.34 169.355 498.312 169.445L497.697 171.438H499.929ZM509.322 172.621C509.322 173.129 509.199 173.57 508.953 173.945C508.707 174.32 508.347 174.609 507.875 174.812C507.406 175.016 506.835 175.117 506.164 175.117C505.867 175.117 505.576 175.098 505.291 175.059C505.009 175.02 504.738 174.963 504.476 174.889C504.218 174.811 503.972 174.715 503.738 174.602V172.914C504.144 173.094 504.566 173.256 505.003 173.4C505.441 173.545 505.875 173.617 506.304 173.617C506.601 173.617 506.839 173.578 507.019 173.5C507.203 173.422 507.335 173.314 507.417 173.178C507.5 173.041 507.541 172.885 507.541 172.709C507.541 172.494 507.468 172.311 507.324 172.158C507.179 172.006 506.98 171.863 506.726 171.73C506.476 171.598 506.193 171.455 505.876 171.303C505.677 171.209 505.46 171.096 505.226 170.963C504.992 170.826 504.769 170.66 504.558 170.465C504.347 170.27 504.173 170.033 504.037 169.756C503.904 169.475 503.837 169.139 503.837 168.748C503.837 168.236 503.955 167.799 504.189 167.436C504.423 167.072 504.757 166.795 505.191 166.604C505.628 166.408 506.144 166.311 506.738 166.311C507.183 166.311 507.607 166.363 508.009 166.469C508.416 166.57 508.839 166.719 509.281 166.914L508.695 168.326C508.3 168.166 507.947 168.043 507.634 167.957C507.322 167.867 507.003 167.822 506.679 167.822C506.453 167.822 506.259 167.859 506.099 167.934C505.939 168.004 505.818 168.105 505.736 168.238C505.654 168.367 505.613 168.518 505.613 168.689C505.613 168.893 505.671 169.064 505.789 169.205C505.91 169.342 506.089 169.475 506.328 169.604C506.57 169.732 506.871 169.883 507.23 170.055C507.667 170.262 508.041 170.479 508.349 170.705C508.662 170.928 508.902 171.191 509.07 171.496C509.238 171.797 509.322 172.172 509.322 172.621ZM516.048 175H511.115V166.434H516.048V167.922H512.931V169.803H515.831V171.291H512.931V173.5H516.048V175Z" fill="#6A6D7A"/>
<path d="M154.75 237C154.75 236.31 155.31 235.75 156 235.75H224C224.69 235.75 225.25 236.31 225.25 237V305C225.25 305.69 224.69 306.25 224 306.25H156C155.31 306.25 154.75 305.69 154.75 305V237Z" fill="white" stroke="#E07EAC" stroke-width="1.5"/>
<path fill-rule="evenodd" clip-rule="evenodd" d="M200 258L206 264L200 270" fill="white"/>
<path d="M200 258L206 264M206 264L200 270M206 264H175" stroke="#CA2171" stroke-width="2" stroke-linecap="round" stroke-linejoin="round"/>
<path fill-rule="evenodd" clip-rule="evenodd" d="M181 272L175 278L181 284" fill="white"/>
<path d="M181 272L175 278M175 278L181 284M175 278H206" stroke="#CA2171" stroke-width="2" stroke-linecap="round" stroke-linejoin="round"/>
<path d="M172.964 317.434C174.07 317.434 174.877 317.672 175.384 318.148C175.892 318.621 176.146 319.273 176.146 320.105C176.146 320.48 176.089 320.84 175.976 321.184C175.863 321.523 175.677 321.826 175.42 322.092C175.166 322.357 174.826 322.568 174.4 322.725C173.974 322.877 173.449 322.953 172.824 322.953H172.045V326H170.228V317.434H172.964ZM172.871 318.922H172.045V321.465H172.642C172.982 321.465 173.277 321.42 173.527 321.33C173.777 321.24 173.97 321.1 174.107 320.908C174.244 320.717 174.312 320.471 174.312 320.17C174.312 319.748 174.195 319.436 173.961 319.232C173.726 319.025 173.363 318.922 172.871 318.922ZM180.499 317.434C181.277 317.434 181.917 317.527 182.421 317.715C182.929 317.902 183.306 318.186 183.552 318.564C183.798 318.943 183.921 319.422 183.921 320C183.921 320.391 183.847 320.732 183.699 321.025C183.55 321.318 183.355 321.566 183.113 321.77C182.87 321.973 182.609 322.139 182.327 322.268L184.847 326H182.831L180.786 322.713H179.82V326H178.003V317.434H180.499ZM180.37 318.922H179.82V321.236H180.406C181.007 321.236 181.437 321.137 181.695 320.938C181.956 320.734 182.087 320.438 182.087 320.047C182.087 319.641 181.947 319.352 181.665 319.18C181.388 319.008 180.956 318.922 180.37 318.922ZM193.941 321.705C193.941 322.365 193.859 322.967 193.694 323.51C193.53 324.049 193.28 324.514 192.944 324.904C192.612 325.295 192.191 325.596 191.679 325.807C191.167 326.014 190.562 326.117 189.862 326.117C189.163 326.117 188.558 326.014 188.046 325.807C187.534 325.596 187.11 325.295 186.775 324.904C186.442 324.514 186.194 324.047 186.03 323.504C185.866 322.961 185.784 322.357 185.784 321.693C185.784 320.807 185.929 320.035 186.218 319.379C186.511 318.719 186.96 318.207 187.566 317.844C188.171 317.48 188.941 317.299 189.874 317.299C190.804 317.299 191.567 317.48 192.165 317.844C192.767 318.207 193.212 318.719 193.501 319.379C193.794 320.039 193.941 320.814 193.941 321.705ZM187.689 321.705C187.689 322.303 187.763 322.818 187.911 323.252C188.064 323.682 188.3 324.014 188.62 324.248C188.941 324.479 189.355 324.594 189.862 324.594C190.378 324.594 190.796 324.479 191.116 324.248C191.437 324.014 191.669 323.682 191.814 323.252C191.962 322.818 192.036 322.303 192.036 321.705C192.036 320.807 191.868 320.1 191.532 319.584C191.196 319.068 190.644 318.811 189.874 318.811C189.362 318.811 188.944 318.928 188.62 319.162C188.3 319.393 188.064 319.725 187.911 320.158C187.763 320.588 187.689 321.104 187.689 321.705ZM202.882 326H200.807L198.815 322.76L196.823 326H194.878L197.72 321.582L195.059 317.434H197.063L198.909 320.516L200.72 317.434H202.677L199.987 321.682L202.882 326ZM206.866 320.961L208.653 317.434H210.61L207.768 322.666V326H205.964V322.725L203.122 317.434H205.09L206.866 320.961Z" fill="#CA2171"/>
<path d="M448.75 237C448.75 236.31 449.31 235.75 450 235.75H518C518.69 235.75 519.25 236.31 519.25 237V305C519.25 305.69 518.69 306.25 518 306.25H450C449.31 306.25 448.75 305.69 448.75 305V237Z" fill="white" stroke="#E07EAC" stroke-width="1.5"/>
<path fill-rule="evenodd" clip-rule="evenodd" d="M494 258L500 264L494 270" fill="white"/>
<path d="M494 258L500 264M500 264L494 270M500 264H469" stroke="#CA2171" stroke-width="2" stroke-linecap="round" stroke-linejoin="round"/>
<path fill-rule="evenodd" clip-rule="evenodd" d="M475 272L469 278L475 284" fill="white"/>
<path d="M475 272L469 278M469 278L475 284M469 278H500" stroke="#CA2171" stroke-width="2" stroke-linecap="round" stroke-linejoin="round"/>
<path d="M466.964 317.434C468.07 317.434 468.877 317.672 469.384 318.148C469.892 318.621 470.146 319.273 470.146 320.105C470.146 320.48 470.089 320.84 469.976 321.184C469.863 321.523 469.677 321.826 469.42 322.092C469.166 322.357 468.826 322.568 468.4 322.725C467.974 322.877 467.449 322.953 466.824 322.953H466.045V326H464.228V317.434H466.964ZM466.871 318.922H466.045V321.465H466.642C466.982 321.465 467.277 321.42 467.527 321.33C467.777 321.24 467.97 321.1 468.107 320.908C468.244 320.717 468.312 320.471 468.312 320.17C468.312 319.748 468.195 319.436 467.961 319.232C467.726 319.025 467.363 318.922 466.871 318.922ZM474.499 317.434C475.277 317.434 475.917 317.527 476.421 317.715C476.929 317.902 477.306 318.186 477.552 318.564C477.798 318.943 477.921 319.422 477.921 320C477.921 320.391 477.847 320.732 477.699 321.025C477.55 321.318 477.355 321.566 477.113 321.77C476.87 321.973 476.609 322.139 476.327 322.268L478.847 326H476.831L474.786 322.713H473.82V326H472.003V317.434H474.499ZM474.37 318.922H473.82V321.236H474.406C475.007 321.236 475.437 321.137 475.695 320.938C475.956 320.734 476.087 320.438 476.087 320.047C476.087 319.641 475.947 319.352 475.665 319.18C475.388 319.008 474.956 318.922 474.37 318.922ZM487.941 321.705C487.941 322.365 487.859 322.967 487.694 323.51C487.53 324.049 487.28 324.514 486.944 324.904C486.612 325.295 486.191 325.596 485.679 325.807C485.167 326.014 484.562 326.117 483.862 326.117C483.163 326.117 482.558 326.014 482.046 325.807C481.534 325.596 481.11 325.295 480.775 324.904C480.442 324.514 480.194 324.047 480.03 323.504C479.866 322.961 479.784 322.357 479.784 321.693C479.784 320.807 479.929 320.035 480.218 319.379C480.511 318.719 480.96 318.207 481.566 317.844C482.171 317.48 482.941 317.299 483.874 317.299C484.804 317.299 485.567 317.48 486.165 317.844C486.767 318.207 487.212 318.719 487.501 319.379C487.794 320.039 487.941 320.814 487.941 321.705ZM481.689 321.705C481.689 322.303 481.763 322.818 481.911 323.252C482.064 323.682 482.3 324.014 482.62 324.248C482.941 324.479 483.355 324.594 483.862 324.594C484.378 324.594 484.796 324.479 485.116 324.248C485.437 324.014 485.669 323.682 485.814 323.252C485.962 322.818 486.036 322.303 486.036 321.705C486.036 320.807 485.868 320.1 485.532 319.584C485.196 319.068 484.644 318.811 483.874 318.811C483.362 318.811 482.944 318.928 482.62 319.162C482.3 319.393 482.064 319.725 481.911 320.158C481.763 320.588 481.689 321.104 481.689 321.705ZM496.882 326H494.807L492.815 322.76L490.823 326H488.878L491.72 321.582L489.059 317.434H491.063L492.909 320.516L494.72 317.434H496.677L493.987 321.682L496.882 326ZM500.866 320.961L502.653 317.434H504.61L501.768 322.666V326H499.964V322.725L497.122 317.434H499.09L500.866 320.961Z" fill="#CA2171"/>
<line x1="1" y1="-1" x2="11" y2="-1" transform="matrix(-1 8.74228e-08 8.74228e-08 1 239 124)" stroke="#CA2171" stroke-width="2" stroke-linecap="round" stroke-linejoin="round"/>
<path fill-rule="evenodd" clip-rule="evenodd" d="M236.72 123L232.5 127.137L233.89 128.5L239.5 123L233.89 117.5L232.5 118.863L236.72 123Z" fill="#CA2171"/>
<line x1="1" y1="-1" x2="37" y2="-1" transform="matrix(1.19249e-08 1 1 -1.19249e-08 485 185)" stroke="#CA2171" stroke-width="2" stroke-linecap="round" stroke-linejoin="round"/>
<path fill-rule="evenodd" clip-rule="evenodd" d="M484 187.28L488.137 191.5L489.5 190.11L484 184.5L478.5 190.11L479.863 191.5L484 187.28Z" fill="#CA2171"/>
<line x1="1" y1="-1" x2="74" y2="-1" transform="matrix(-1 -8.74228e-08 -8.74228e-08 1 415 120)" stroke="#E5544B" stroke-width="2" stroke-linecap="round" stroke-linejoin="round" stroke-dasharray="1.5 4"/>
<path fill-rule="evenodd" clip-rule="evenodd" d="M412.72 119L408.5 123.137L409.89 124.5L415.5 119L409.89 113.5L408.5 114.863L412.72 119Z" fill="#E5544B"/>
<path d="M305.93 149L303.867 142.279H303.814C303.822 142.439 303.834 142.682 303.85 143.006C303.869 143.326 303.887 143.668 303.902 144.031C303.918 144.395 303.926 144.723 303.926 145.016V149H302.303V140.434H304.775L306.803 146.984H306.838L308.988 140.434H311.461V149H309.768V144.945C309.768 144.676 309.771 144.365 309.779 144.014C309.791 143.662 309.805 143.328 309.82 143.012C309.836 142.691 309.848 142.451 309.855 142.291H309.803L307.594 149H305.93ZM318.557 149H313.623V140.434H318.557V141.922H315.439V143.803H318.34V145.291H315.439V147.5H318.557V149ZM325.406 146.621C325.406 147.129 325.283 147.57 325.037 147.945C324.791 148.32 324.432 148.609 323.959 148.812C323.49 149.016 322.92 149.117 322.248 149.117C321.951 149.117 321.66 149.098 321.375 149.059C321.094 149.02 320.822 148.963 320.561 148.889C320.303 148.811 320.057 148.715 319.822 148.602V146.914C320.229 147.094 320.65 147.256 321.088 147.4C321.525 147.545 321.959 147.617 322.389 147.617C322.686 147.617 322.924 147.578 323.104 147.5C323.287 147.422 323.42 147.314 323.502 147.178C323.584 147.041 323.625 146.885 323.625 146.709C323.625 146.494 323.553 146.311 323.408 146.158C323.264 146.006 323.064 145.863 322.811 145.73C322.561 145.598 322.277 145.455 321.961 145.303C321.762 145.209 321.545 145.096 321.311 144.963C321.076 144.826 320.854 144.66 320.643 144.465C320.432 144.27 320.258 144.033 320.121 143.756C319.988 143.475 319.922 143.139 319.922 142.748C319.922 142.236 320.039 141.799 320.273 141.436C320.508 141.072 320.842 140.795 321.275 140.604C321.713 140.408 322.229 140.311 322.822 140.311C323.268 140.311 323.691 140.363 324.094 140.469C324.5 140.57 324.924 140.719 325.365 140.914L324.779 142.326C324.385 142.166 324.031 142.043 323.719 141.957C323.406 141.867 323.088 141.822 322.764 141.822C322.537 141.822 322.344 141.859 322.184 141.934C322.023 142.004 321.902 142.105 321.82 142.238C321.738 142.367 321.697 142.518 321.697 142.689C321.697 142.893 321.756 143.064 321.873 143.205C321.994 143.342 322.174 143.475 322.412 143.604C322.654 143.732 322.955 143.883 323.314 144.055C323.752 144.262 324.125 144.479 324.434 144.705C324.746 144.928 324.986 145.191 325.154 145.496C325.322 145.797 325.406 146.172 325.406 146.621ZM333.979 149H332.168V145.303H328.775V149H326.959V140.434H328.775V143.791H332.168V140.434H333.979V149ZM339.264 140.434H341.93C343.07 140.434 343.934 140.594 344.52 140.914C345.105 141.234 345.398 141.797 345.398 142.602C345.398 142.926 345.346 143.219 345.24 143.48C345.139 143.742 344.99 143.957 344.795 144.125C344.6 144.293 344.361 144.402 344.08 144.453V144.512C344.365 144.57 344.623 144.672 344.854 144.816C345.084 144.957 345.268 145.164 345.404 145.438C345.545 145.707 345.615 146.066 345.615 146.516C345.615 147.035 345.488 147.48 345.234 147.852C344.98 148.223 344.617 148.508 344.145 148.707C343.676 148.902 343.117 149 342.469 149H339.264V140.434ZM341.08 143.826H342.135C342.662 143.826 343.027 143.744 343.23 143.58C343.434 143.412 343.535 143.166 343.535 142.842C343.535 142.514 343.414 142.279 343.172 142.139C342.934 141.994 342.555 141.922 342.035 141.922H341.08V143.826ZM341.08 145.268V147.5H342.264C342.811 147.5 343.191 147.395 343.406 147.184C343.621 146.973 343.729 146.689 343.729 146.334C343.729 146.123 343.682 145.938 343.588 145.777C343.494 145.617 343.336 145.492 343.113 145.402C342.895 145.312 342.592 145.268 342.205 145.268H341.08ZM349.992 143.961L351.779 140.434H353.736L350.895 145.666V149H349.09V145.725L346.248 140.434H348.217L349.992 143.961ZM357.551 140.434C358.656 140.434 359.463 140.672 359.971 141.148C360.479 141.621 360.732 142.273 360.732 143.105C360.732 143.48 360.676 143.84 360.562 144.184C360.449 144.523 360.264 144.826 360.006 145.092C359.752 145.357 359.412 145.568 358.986 145.725C358.561 145.877 358.035 145.953 357.41 145.953H356.631V149H354.814V140.434H357.551ZM357.457 141.922H356.631V144.465H357.229C357.568 144.465 357.863 144.42 358.113 144.33C358.363 144.24 358.557 144.1 358.693 143.908C358.83 143.717 358.898 143.471 358.898 143.17C358.898 142.748 358.781 142.436 358.547 142.232C358.312 142.025 357.949 141.922 357.457 141.922ZM367.594 149L366.973 146.961H363.85L363.229 149H361.271L364.295 140.398H366.516L369.551 149H367.594ZM366.539 145.438L365.918 143.445C365.879 143.312 365.826 143.143 365.76 142.936C365.697 142.725 365.633 142.512 365.566 142.297C365.504 142.078 365.453 141.889 365.414 141.729C365.375 141.889 365.32 142.088 365.25 142.326C365.184 142.561 365.119 142.783 365.057 142.994C364.994 143.205 364.949 143.355 364.922 143.445L364.307 145.438H366.539ZM375.691 146.621C375.691 147.129 375.568 147.57 375.322 147.945C375.076 148.32 374.717 148.609 374.244 148.812C373.775 149.016 373.205 149.117 372.533 149.117C372.236 149.117 371.945 149.098 371.66 149.059C371.379 149.02 371.107 148.963 370.846 148.889C370.588 148.811 370.342 148.715 370.107 148.602V146.914C370.514 147.094 370.936 147.256 371.373 147.4C371.811 147.545 372.244 147.617 372.674 147.617C372.971 147.617 373.209 147.578 373.389 147.5C373.572 147.422 373.705 147.314 373.787 147.178C373.869 147.041 373.91 146.885 373.91 146.709C373.91 146.494 373.838 146.311 373.693 146.158C373.549 146.006 373.35 145.863 373.096 145.73C372.846 145.598 372.562 145.455 372.246 145.303C372.047 145.209 371.83 145.096 371.596 144.963C371.361 144.826 371.139 144.66 370.928 144.465C370.717 144.27 370.543 144.033 370.406 143.756C370.273 143.475 370.207 143.139 370.207 142.748C370.207 142.236 370.324 141.799 370.559 141.436C370.793 141.072 371.127 140.795 371.561 140.604C371.998 140.408 372.514 140.311 373.107 140.311C373.553 140.311 373.977 140.363 374.379 140.469C374.785 140.57 375.209 140.719 375.65 140.914L375.064 142.326C374.67 142.166 374.316 142.043 374.004 141.957C373.691 141.867 373.373 141.822 373.049 141.822C372.822 141.822 372.629 141.859 372.469 141.934C372.309 142.004 372.188 142.105 372.105 142.238C372.023 142.367 371.982 142.518 371.982 142.689C371.982 142.893 372.041 143.064 372.158 143.205C372.279 143.342 372.459 143.475 372.697 143.604C372.939 143.732 373.24 143.883 373.6 144.055C374.037 144.262 374.41 144.479 374.719 144.705C375.031 144.928 375.271 145.191 375.439 145.496C375.607 145.797 375.691 146.172 375.691 146.621ZM382.301 146.621C382.301 147.129 382.178 147.57 381.932 147.945C381.686 148.32 381.326 148.609 380.854 148.812C380.385 149.016 379.814 149.117 379.143 149.117C378.846 149.117 378.555 149.098 378.27 149.059C377.988 149.02 377.717 148.963 377.455 148.889C377.197 148.811 376.951 148.715 376.717 148.602V146.914C377.123 147.094 377.545 147.256 377.982 147.4C378.42 147.545 378.854 147.617 379.283 147.617C379.58 147.617 379.818 147.578 379.998 147.5C380.182 147.422 380.314 147.314 380.396 147.178C380.479 147.041 380.52 146.885 380.52 146.709C380.52 146.494 380.447 146.311 380.303 146.158C380.158 146.006 379.959 145.863 379.705 145.73C379.455 145.598 379.172 145.455 378.855 145.303C378.656 145.209 378.439 145.096 378.205 144.963C377.971 144.826 377.748 144.66 377.537 144.465C377.326 144.27 377.152 144.033 377.016 143.756C376.883 143.475 376.816 143.139 376.816 142.748C376.816 142.236 376.934 141.799 377.168 141.436C377.402 141.072 377.736 140.795 378.17 140.604C378.607 140.408 379.123 140.311 379.717 140.311C380.162 140.311 380.586 140.363 380.988 140.469C381.395 140.57 381.818 140.719 382.26 140.914L381.674 142.326C381.279 142.166 380.926 142.043 380.613 141.957C380.301 141.867 379.982 141.822 379.658 141.822C379.432 141.822 379.238 141.859 379.078 141.934C378.918 142.004 378.797 142.105 378.715 142.238C378.633 142.367 378.592 142.518 378.592 142.689C378.592 142.893 378.65 143.064 378.768 143.205C378.889 143.342 379.068 143.475 379.307 143.604C379.549 143.732 379.85 143.883 380.209 144.055C380.646 144.262 381.02 144.479 381.328 144.705C381.641 144.928 381.881 145.191 382.049 145.496C382.217 145.797 382.301 146.172 382.301 146.621ZM309.393 156.434C310.17 156.434 310.811 156.527 311.314 156.715C311.822 156.902 312.199 157.186 312.445 157.564C312.691 157.943 312.814 158.422 312.814 159C312.814 159.391 312.74 159.732 312.592 160.025C312.443 160.318 312.248 160.566 312.006 160.77C311.764 160.973 311.502 161.139 311.221 161.268L313.74 165H311.725L309.68 161.713H308.713V165H306.896V156.434H309.393ZM309.264 157.922H308.713V160.236H309.299C309.9 160.236 310.33 160.137 310.588 159.938C310.85 159.734 310.98 159.438 310.98 159.047C310.98 158.641 310.84 158.352 310.559 158.18C310.281 158.008 309.85 157.922 309.264 157.922ZM319.752 165H314.818V156.434H319.752V157.922H316.635V159.803H319.535V161.291H316.635V163.5H319.752V165ZM328.652 160.635C328.652 161.6 328.467 162.406 328.096 163.055C327.729 163.699 327.195 164.186 326.496 164.514C325.797 164.838 324.955 165 323.971 165H321.545V156.434H324.234C325.133 156.434 325.912 156.594 326.572 156.914C327.232 157.23 327.744 157.701 328.107 158.326C328.471 158.947 328.652 159.717 328.652 160.635ZM326.766 160.682C326.766 160.049 326.672 159.529 326.484 159.123C326.301 158.713 326.027 158.41 325.664 158.215C325.305 158.02 324.859 157.922 324.328 157.922H323.361V163.5H324.141C325.027 163.5 325.686 163.264 326.115 162.791C326.549 162.318 326.766 161.615 326.766 160.682ZM330.428 165V156.434H332.244V165H330.428ZM336.896 156.434C337.674 156.434 338.314 156.527 338.818 156.715C339.326 156.902 339.703 157.186 339.949 157.564C340.195 157.943 340.318 158.422 340.318 159C340.318 159.391 340.244 159.732 340.096 160.025C339.947 160.318 339.752 160.566 339.51 160.77C339.268 160.973 339.006 161.139 338.725 161.268L341.244 165H339.229L337.184 161.713H336.217V165H334.4V156.434H336.896ZM336.768 157.922H336.217V160.236H336.803C337.404 160.236 337.834 160.137 338.092 159.938C338.354 159.734 338.484 159.438 338.484 159.047C338.484 158.641 338.344 158.352 338.062 158.18C337.785 158.008 337.354 157.922 336.768 157.922ZM347.256 165H342.322V156.434H347.256V157.922H344.139V159.803H347.039V161.291H344.139V163.5H347.256V165ZM352.688 157.822C352.34 157.822 352.031 157.891 351.762 158.027C351.496 158.16 351.271 158.354 351.088 158.607C350.908 158.861 350.771 159.168 350.678 159.527C350.584 159.887 350.537 160.291 350.537 160.74C350.537 161.346 350.611 161.863 350.76 162.293C350.912 162.719 351.146 163.045 351.463 163.271C351.779 163.494 352.188 163.605 352.688 163.605C353.035 163.605 353.383 163.566 353.73 163.488C354.082 163.41 354.463 163.299 354.873 163.154V164.678C354.494 164.834 354.121 164.945 353.754 165.012C353.387 165.082 352.975 165.117 352.518 165.117C351.635 165.117 350.908 164.936 350.338 164.572C349.771 164.205 349.352 163.693 349.078 163.037C348.805 162.377 348.668 161.607 348.668 160.729C348.668 160.08 348.756 159.486 348.932 158.947C349.107 158.408 349.365 157.941 349.705 157.547C350.045 157.152 350.465 156.848 350.965 156.633C351.465 156.418 352.039 156.311 352.688 156.311C353.113 156.311 353.539 156.365 353.965 156.475C354.395 156.58 354.805 156.727 355.195 156.914L354.609 158.391C354.289 158.238 353.967 158.105 353.643 157.992C353.318 157.879 353 157.822 352.688 157.822ZM360.006 165H358.189V157.945H355.863V156.434H362.332V157.945H360.006V165ZM368.584 165H363.65V156.434H368.584V157.922H365.467V159.803H368.367V161.291H365.467V163.5H368.584V165ZM377.484 160.635C377.484 161.6 377.299 162.406 376.928 163.055C376.561 163.699 376.027 164.186 375.328 164.514C374.629 164.838 373.787 165 372.803 165H370.377V156.434H373.066C373.965 156.434 374.744 156.594 375.404 156.914C376.064 157.23 376.576 157.701 376.939 158.326C377.303 158.947 377.484 159.717 377.484 160.635ZM375.598 160.682C375.598 160.049 375.504 159.529 375.316 159.123C375.133 158.713 374.859 158.41 374.496 158.215C374.137 158.02 373.691 157.922 373.16 157.922H372.193V163.5H372.973C373.859 163.5 374.518 163.264 374.947 162.791C375.381 162.318 375.598 161.615 375.598 160.682Z" fill="#E5544B"/>
<circle cx="342" cy="119" r="13.25" fill="#E5544B" stroke="white" stroke-width="1.5"/>
<path d="M342.701 120.685H341.033L340.684 114.006H343.049L342.701 120.685ZM340.657 123.022C340.657 122.594 340.773 122.293 341.006 122.12C341.242 121.947 341.527 121.86 341.86 121.86C342.184 121.86 342.462 121.947 342.694 122.12C342.931 122.293 343.049 122.594 343.049 123.022C343.049 123.433 342.931 123.729 342.694 123.911C342.462 124.093 342.184 124.185 341.86 124.185C341.527 124.185 341.242 124.093 341.006 123.911C340.773 123.729 340.657 123.433 340.657 123.022Z" fill="white"/>
<line x1="233.5" y1="25.5" x2="233.5" y2="109.5" stroke="#999999" stroke-linecap="round" stroke-linejoin="round"/>
<path d="M242 54.5728H254C256.209 54.5728 258 56.3636 258 58.5728V347.204C258 349.413 256.209 351.204 254 351.204H242V54.5728Z" fill="url(#paint1_linear_0_1)"/>
<rect x="409" y="270" width="37" height="4" fill="white"/>
<rect x="238" y="270" width="37" height="4" fill="white"/>
<line x1="233" y1="272" x2="443" y2="272" stroke="#CA2171" stroke-width="2" stroke-linecap="round" stroke-linejoin="round"/>
<path fill-rule="evenodd" clip-rule="evenodd" d="M441.72 272L437.5 276.137L438.89 277.5L444.5 272L438.89 266.5L437.5 267.863L441.72 272Z" fill="#CA2171"/>
<path d="M244 123V123C247.314 123 250 125.686 250 129V191" stroke="white" stroke-width="2" stroke-linecap="round" stroke-linejoin="round" stroke-dasharray="1.5 4"/>
<path d="M420 118V118C423.314 118 426 120.686 426 124V186" stroke="white" stroke-width="2" stroke-linecap="round" stroke-linejoin="round" stroke-dasharray="1.5 4"/>
<path d="M244 202V202C247.314 202 250 199.314 250 196L250 175" stroke="white" stroke-width="2" stroke-linecap="round" stroke-linejoin="round" stroke-dasharray="1.5 4"/>
<path d="M432 257V257C428.686 257 426 254.314 426 251L426 185" stroke="white" stroke-width="2" stroke-linecap="round" stroke-linejoin="round" stroke-dasharray="1.5 4"/>
<path d="M193 231L193 210C193 205.582 196.582 202 201 202L238 202" stroke="#CA2171" stroke-width="2" stroke-linecap="round" stroke-linejoin="round"/>
<path fill-rule="evenodd" clip-rule="evenodd" d="M193 229.72L197.137 225.5L198.5 226.89L193 232.5L187.5 226.89L188.863 225.5L193 229.72Z" fill="#CA2171"/>
<g opacity="0.4">
<path d="M46.7815 326H44.4729L40.7463 319.52H40.6936C40.7092 319.789 40.7229 320.061 40.7346 320.334C40.7463 320.607 40.758 320.881 40.7698 321.154C40.7815 321.424 40.7932 321.695 40.8049 321.969V326H39.1819V317.434H41.4729L45.1936 323.85H45.2346C45.2268 323.584 45.217 323.32 45.2053 323.059C45.1936 322.797 45.1819 322.535 45.1702 322.273C45.1623 322.012 45.1545 321.75 45.1467 321.488V317.434H46.7815V326ZM56.959 321.705C56.959 322.365 56.877 322.967 56.7129 323.51C56.5488 324.049 56.2988 324.514 55.9629 324.904C55.6309 325.295 55.209 325.596 54.6973 325.807C54.1855 326.014 53.5801 326.117 52.8809 326.117C52.1816 326.117 51.5762 326.014 51.0645 325.807C50.5527 325.596 50.1289 325.295 49.793 324.904C49.4609 324.514 49.2129 324.047 49.0488 323.504C48.8848 322.961 48.8027 322.357 48.8027 321.693C48.8027 320.807 48.9473 320.035 49.2363 319.379C49.5293 318.719 49.9785 318.207 50.584 317.844C51.1895 317.48 51.959 317.299 52.8926 317.299C53.8223 317.299 54.5859 317.48 55.1836 317.844C55.7852 318.207 56.2305 318.719 56.5195 319.379C56.8125 320.039 56.959 320.814 56.959 321.705ZM50.707 321.705C50.707 322.303 50.7812 322.818 50.9297 323.252C51.082 323.682 51.3184 324.014 51.6387 324.248C51.959 324.479 52.373 324.594 52.8809 324.594C53.3965 324.594 53.8145 324.479 54.1348 324.248C54.4551 324.014 54.6875 323.682 54.832 323.252C54.9805 322.818 55.0547 322.303 55.0547 321.705C55.0547 320.807 54.8867 320.1 54.5508 319.584C54.2148 319.068 53.6621 318.811 52.8926 318.811C52.3809 318.811 51.9629 318.928 51.6387 319.162C51.3184 319.393 51.082 319.725 50.9297 320.158C50.7812 320.588 50.707 321.104 50.707 321.705ZM22.8818 332.434V337.977C22.8818 338.566 22.7509 339.1 22.4892 339.576C22.2314 340.049 21.8388 340.424 21.3115 340.701C20.788 340.979 20.1279 341.117 19.331 341.117C18.1982 341.117 17.3349 340.828 16.7412 340.25C16.1474 339.672 15.8505 338.906 15.8505 337.953V332.434H17.6611V337.678C17.6611 338.385 17.8056 338.881 18.0947 339.166C18.3838 339.451 18.8115 339.594 19.3779 339.594C19.7763 339.594 20.0986 339.525 20.3447 339.389C20.5947 339.252 20.7783 339.041 20.8955 338.756C21.0127 338.471 21.0713 338.107 21.0713 337.666V332.434H22.8818ZM27.9558 332.434C29.0613 332.434 29.8679 332.672 30.3757 333.148C30.8835 333.621 31.1374 334.273 31.1374 335.105C31.1374 335.48 31.0808 335.84 30.9675 336.184C30.8542 336.523 30.6687 336.826 30.4109 337.092C30.157 337.357 29.8171 337.568 29.3913 337.725C28.9655 337.877 28.4402 337.953 27.8152 337.953H27.0359V341H25.2195V332.434H27.9558ZM27.862 333.922H27.0359V336.465H27.6335C27.9734 336.465 28.2683 336.42 28.5183 336.33C28.7683 336.24 28.9616 336.1 29.0984 335.908C29.2351 335.717 29.3034 335.471 29.3034 335.17C29.3034 334.748 29.1863 334.436 28.9519 334.232C28.7175 334.025 28.3542 333.922 27.862 333.922ZM38.0513 338.621C38.0513 339.129 37.9282 339.57 37.6821 339.945C37.436 340.32 37.0766 340.609 36.604 340.812C36.1352 341.016 35.5649 341.117 34.893 341.117C34.5962 341.117 34.3052 341.098 34.02 341.059C33.7388 341.02 33.4673 340.963 33.2055 340.889C32.9477 340.811 32.7016 340.715 32.4673 340.602V338.914C32.8735 339.094 33.2954 339.256 33.7329 339.4C34.1704 339.545 34.604 339.617 35.0337 339.617C35.3305 339.617 35.5688 339.578 35.7485 339.5C35.9321 339.422 36.0649 339.314 36.147 339.178C36.229 339.041 36.27 338.885 36.27 338.709C36.27 338.494 36.1977 338.311 36.0532 338.158C35.9087 338.006 35.7095 337.863 35.4555 337.73C35.2055 337.598 34.9223 337.455 34.6059 337.303C34.4067 337.209 34.1899 337.096 33.9555 336.963C33.7212 336.826 33.4985 336.66 33.2876 336.465C33.0766 336.27 32.9028 336.033 32.7661 335.756C32.6333 335.475 32.5669 335.139 32.5669 334.748C32.5669 334.236 32.6841 333.799 32.9184 333.436C33.1528 333.072 33.4868 332.795 33.9204 332.604C34.3579 332.408 34.8735 332.311 35.4673 332.311C35.9126 332.311 36.3364 332.363 36.7388 332.469C37.145 332.57 37.5688 332.719 38.0102 332.914L37.4243 334.326C37.0298 334.166 36.6763 334.043 36.3638 333.957C36.0513 333.867 35.7329 333.822 35.4087 333.822C35.1821 333.822 34.9888 333.859 34.8286 333.934C34.6684 334.004 34.5473 334.105 34.4653 334.238C34.3833 334.367 34.3423 334.518 34.3423 334.689C34.3423 334.893 34.4009 335.064 34.518 335.205C34.6391 335.342 34.8188 335.475 35.0571 335.604C35.2993 335.732 35.6001 335.883 35.9595 336.055C36.397 336.262 36.77 336.479 37.0786 336.705C37.3911 336.928 37.6313 337.191 37.7993 337.496C37.9673 337.797 38.0513 338.172 38.0513 338.621ZM43.1487 341H41.3323V333.945H39.0061V332.434H45.4748V333.945H43.1487V341ZM49.5293 332.434C50.3066 332.434 50.9473 332.527 51.4512 332.715C51.959 332.902 52.3359 333.186 52.582 333.564C52.8281 333.943 52.9512 334.422 52.9512 335C52.9512 335.391 52.877 335.732 52.7285 336.025C52.5801 336.318 52.3848 336.566 52.1426 336.77C51.9004 336.973 51.6387 337.139 51.3574 337.268L53.877 341H51.8613L49.8164 337.713H48.8496V341H47.0332V332.434H49.5293ZM49.4004 333.922H48.8496V336.236H49.4355C50.0371 336.236 50.4668 336.137 50.7246 335.938C50.9863 335.734 51.1172 335.438 51.1172 335.047C51.1172 334.641 50.9766 334.352 50.6953 334.18C50.418 334.008 49.9863 333.922 49.4004 333.922ZM60.1287 341H55.1951V332.434H60.1287V333.922H57.0115V335.803H59.9119V337.291H57.0115V339.5H60.1287V341ZM67.4058 341L66.7847 338.961H63.6616L63.0405 341H61.0835L64.107 332.398H66.3277L69.3628 341H67.4058ZM66.3511 337.438L65.73 335.445C65.6909 335.312 65.6382 335.143 65.5718 334.936C65.5093 334.725 65.4448 334.512 65.3784 334.297C65.3159 334.078 65.2652 333.889 65.2261 333.729C65.187 333.889 65.1323 334.088 65.062 334.326C64.9956 334.561 64.9312 334.783 64.8687 334.994C64.8062 335.205 64.7612 335.355 64.7339 335.445L64.1187 337.438H66.3511ZM74.3138 341L72.2513 334.279H72.1985C72.2063 334.439 72.218 334.682 72.2337 335.006C72.2532 335.326 72.2708 335.668 72.2864 336.031C72.302 336.395 72.3098 336.723 72.3098 337.016V341H70.6868V332.434H73.1595L75.1868 338.984H75.222L77.3723 332.434H79.845V341H78.1516V336.945C78.1516 336.676 78.1555 336.365 78.1634 336.014C78.1751 335.662 78.1888 335.328 78.2044 335.012C78.22 334.691 78.2317 334.451 78.2395 334.291H78.1868L75.9778 341H74.3138ZM28.8874 349.822C28.5398 349.822 28.2312 349.891 27.9616 350.027C27.696 350.16 27.4714 350.354 27.2878 350.607C27.1081 350.861 26.9714 351.168 26.8777 351.527C26.7839 351.887 26.737 352.291 26.737 352.74C26.737 353.346 26.8113 353.863 26.9597 354.293C27.112 354.719 27.3464 355.045 27.6628 355.271C27.9792 355.494 28.3874 355.605 28.8874 355.605C29.2351 355.605 29.5827 355.566 29.9304 355.488C30.282 355.41 30.6628 355.299 31.073 355.154V356.678C30.6941 356.834 30.321 356.945 29.9538 357.012C29.5866 357.082 29.1745 357.117 28.7175 357.117C27.8347 357.117 27.1081 356.936 26.5378 356.572C25.9714 356.205 25.5515 355.693 25.278 355.037C25.0046 354.377 24.8679 353.607 24.8679 352.729C24.8679 352.08 24.9558 351.486 25.1316 350.947C25.3073 350.408 25.5652 349.941 25.905 349.547C26.2448 349.152 26.6648 348.848 27.1648 348.633C27.6648 348.418 28.239 348.311 28.8874 348.311C29.3132 348.311 29.739 348.365 30.1648 348.475C30.5945 348.58 31.0046 348.727 31.3952 348.914L30.8093 350.391C30.489 350.238 30.1667 350.105 29.8425 349.992C29.5183 349.879 29.1999 349.822 28.8874 349.822ZM40.9165 352.705C40.9165 353.365 40.8345 353.967 40.6704 354.51C40.5063 355.049 40.2563 355.514 39.9204 355.904C39.5884 356.295 39.1665 356.596 38.6548 356.807C38.143 357.014 37.5376 357.117 36.8384 357.117C36.1391 357.117 35.5337 357.014 35.022 356.807C34.5102 356.596 34.0864 356.295 33.7505 355.904C33.4184 355.514 33.1704 355.047 33.0063 354.504C32.8423 353.961 32.7602 353.357 32.7602 352.693C32.7602 351.807 32.9048 351.035 33.1938 350.379C33.4868 349.719 33.936 349.207 34.5415 348.844C35.147 348.48 35.9165 348.299 36.8501 348.299C37.7798 348.299 38.5434 348.48 39.1411 348.844C39.7427 349.207 40.188 349.719 40.477 350.379C40.77 351.039 40.9165 351.814 40.9165 352.705ZM34.6645 352.705C34.6645 353.303 34.7388 353.818 34.8872 354.252C35.0395 354.682 35.2759 355.014 35.5962 355.248C35.9165 355.479 36.3305 355.594 36.8384 355.594C37.354 355.594 37.772 355.479 38.0923 355.248C38.4126 355.014 38.645 354.682 38.7895 354.252C38.938 353.818 39.0122 353.303 39.0122 352.705C39.0122 351.807 38.8442 351.1 38.5083 350.584C38.1723 350.068 37.6196 349.811 36.8501 349.811C36.3384 349.811 35.9204 349.928 35.5962 350.162C35.2759 350.393 35.0395 350.725 34.8872 351.158C34.7388 351.588 34.6645 352.104 34.6645 352.705ZM50.5315 357H48.2229L44.4963 350.52H44.4436C44.4592 350.789 44.4729 351.061 44.4846 351.334C44.4963 351.607 44.508 351.881 44.5198 352.154C44.5315 352.424 44.5432 352.695 44.5549 352.969V357H42.9319V348.434H45.2229L48.9436 354.85H48.9846C48.9768 354.584 48.967 354.32 48.9553 354.059C48.9436 353.797 48.9319 353.535 48.9202 353.273C48.9123 353.012 48.9045 352.75 48.8967 352.488V348.434H50.5315V357ZM54.7207 357H52.9336V348.434H57.8438V349.922H54.7207V352.131H57.627V353.613H54.7207V357ZM59.7595 357V348.434H61.5759V357H59.7595ZM67.2241 352.189H70.6226V356.631C70.1734 356.779 69.7066 356.898 69.2222 356.988C68.7378 357.074 68.189 357.117 67.5757 357.117C66.7241 357.117 66.0015 356.949 65.4077 356.613C64.814 356.277 64.3628 355.781 64.0542 355.125C63.7456 354.469 63.5913 353.662 63.5913 352.705C63.5913 351.807 63.7632 351.029 64.107 350.373C64.4546 349.717 64.9605 349.209 65.6245 348.85C66.2925 348.49 67.107 348.311 68.0679 348.311C68.521 348.311 68.9683 348.359 69.4097 348.457C69.8511 348.555 70.2515 348.682 70.6109 348.838L70.0073 350.291C69.7456 350.158 69.4468 350.047 69.1109 349.957C68.7749 349.867 68.4234 349.822 68.0562 349.822C67.5288 349.822 67.0698 349.943 66.6792 350.186C66.2925 350.428 65.9917 350.768 65.7769 351.205C65.5659 351.639 65.4605 352.15 65.4605 352.74C65.4605 353.299 65.5366 353.795 65.689 354.229C65.8413 354.658 66.0816 354.996 66.4097 355.242C66.7378 355.484 67.1656 355.605 67.6929 355.605C67.9507 355.605 68.1675 355.594 68.3433 355.57C68.523 355.543 68.6909 355.516 68.8472 355.488V353.701H67.2241V352.189Z" fill="#6A6D7A"/>
<path d="M12.75 237C12.75 236.31 13.3096 235.75 14 235.75H82C82.6904 235.75 83.25 236.31 83.25 237V305C83.25 305.69 82.6904 306.25 82 306.25H14C13.3096 306.25 12.75 305.69 12.75 305V237Z" fill="white" stroke="#D2D4DB" stroke-width="1.5"/>
<mask id="path-57-inside-3_0_1" fill="white">
<rect x="34" y="255" width="28" height="32" rx="1"/>
</mask>
<rect x="34" y="255" width="28" height="32" rx="1" stroke="black" stroke-width="4" mask="url(#path-57-inside-3_0_1)"/>
<rect x="39" y="263" width="18" height="2" rx="1" fill="black"/>
<rect x="39" y="269" width="18" height="2" rx="1" fill="black"/>
<rect x="39" y="275" width="10" height="2" rx="1" fill="black"/>
<mask id="path-61-inside-4_0_1" fill="white">
<path fill-rule="evenodd" clip-rule="evenodd" d="M48 247C45.7909 247 44 248.791 44 251V252H41C39.8954 252 39 252.895 39 254L39 258C39 259.105 39.8954 260 41 260H55C56.1046 260 57 259.105 57 258V254C57 252.895 56.1046 252 55 252H52V251C52 248.791 50.2091 247 48 247Z"/>
</mask>
<path fill-rule="evenodd" clip-rule="evenodd" d="M48 247C45.7909 247 44 248.791 44 251V252H41C39.8954 252 39 252.895 39 254L39 258C39 259.105 39.8954 260 41 260H55C56.1046 260 57 259.105 57 258V254C57 252.895 56.1046 252 55 252H52V251C52 248.791 50.2091 247 48 247Z" fill="white"/>
<path d="M44 252L44 254C45.1046 254 46 253.105 46 252H44ZM39 254H41H39ZM39 258H37H39ZM41 260L41 262L41 260ZM55 260L55 258L55 260ZM57 258L55 258L57 258ZM57 254H59H57ZM52 252H50C50 253.105 50.8954 254 52 254L52 252ZM46 251C46 249.895 46.8954 249 48 249V245C44.6863 245 42 247.686 42 251H46ZM46 252V251H42V252H46ZM41 254H44L44 250H41L41 254ZM41 254L41 250C38.7909 250 37 251.791 37 254H41ZM41 258L41 254H37L37 258H41ZM41 258H41H37C37 260.209 38.7909 262 41 262L41 258ZM55 258H41L41 262H55L55 258ZM55 258L55 262C57.2091 262 59 260.209 59 258L55 258ZM55 254V258L59 258V254H55ZM55 254H59C59 251.791 57.2091 250 55 250L55 254ZM52 254H55L55 250H52L52 254ZM50 251V252H54V251H50ZM48 249C49.1046 249 50 249.895 50 251H54C54 247.686 51.3137 245 48 245V249Z" fill="black" mask="url(#path-61-inside-4_0_1)"/>
</g>
<path d="M3.47827 227.478L28.5218 252.522" stroke="#E5544B" stroke-width="6"/>
<path d="M28.5217 227.478L3.47824 252.522" stroke="#E5544B" stroke-width="6"/>
<line x1="1" y1="-1" x2="8" y2="-1" transform="matrix(-1 8.74228e-08 8.74228e-08 1 444 258)" stroke="#CA2171" stroke-width="2" stroke-linecap="round" stroke-linejoin="round"/>
<path fill-rule="evenodd" clip-rule="evenodd" d="M441.72 257L437.5 261.137L438.89 262.5L444.5 257L438.89 251.5L437.5 252.863L441.72 257Z" fill="#CA2171"/>
<circle cx="84" cy="238" r="13.25" fill="#CA2171" stroke="white" stroke-width="1.5"/>
<circle cx="250" cy="103" r="13.25" fill="#CA2171" stroke="white" stroke-width="1.5"/>
<path d="M85.5757 243H83.5514V237.458L83.571 236.547L83.6038 235.551C83.2675 235.888 83.0338 236.108 82.9028 236.213L81.8022 237.097L80.8261 235.879L83.9117 233.422H85.5757V243Z" fill="white"/>
<path d="M253.259 108H246.564V106.592L248.968 104.161C249.453 103.663 249.842 103.248 250.134 102.916C250.431 102.58 250.645 102.274 250.776 101.999C250.912 101.724 250.98 101.429 250.98 101.115C250.98 100.735 250.873 100.451 250.659 100.263C250.449 100.071 250.167 99.9749 249.813 99.9749C249.442 99.9749 249.082 100.06 248.732 100.23C248.383 100.401 248.018 100.643 247.638 100.958L246.538 99.6539C246.813 99.418 247.103 99.1953 247.409 98.9857C247.719 98.776 248.077 98.6079 248.484 98.4812C248.894 98.3502 249.385 98.2847 249.958 98.2847C250.586 98.2847 251.126 98.3983 251.576 98.6254C252.03 98.8525 252.379 99.1626 252.624 99.5556C252.868 99.9443 252.991 100.385 252.991 100.879C252.991 101.407 252.886 101.89 252.676 102.327C252.467 102.763 252.161 103.196 251.759 103.624C251.362 104.052 250.881 104.526 250.318 105.045L249.086 106.205V106.297H253.259V108Z" fill="white"/>
<circle cx="426" cy="186" r="13.25" fill="#CA2171" stroke="white" stroke-width="1.5"/>
<path d="M428.886 183.564C428.886 184.006 428.794 184.388 428.611 184.711C428.427 185.034 428.178 185.298 427.864 185.504C427.554 185.709 427.204 185.86 426.816 185.956V185.995C427.584 186.091 428.167 186.327 428.565 186.702C428.967 187.078 429.168 187.58 429.168 188.209C429.168 188.768 429.03 189.268 428.755 189.709C428.484 190.151 428.065 190.498 427.497 190.751C426.929 191.004 426.198 191.131 425.302 191.131C424.774 191.131 424.28 191.087 423.822 191C423.368 190.917 422.94 190.788 422.538 190.613V188.891C422.948 189.1 423.379 189.26 423.828 189.369C424.278 189.474 424.698 189.526 425.086 189.526C425.811 189.526 426.318 189.402 426.606 189.153C426.899 188.899 427.045 188.546 427.045 188.091C427.045 187.825 426.977 187.6 426.842 187.417C426.707 187.233 426.471 187.093 426.134 186.997C425.803 186.901 425.337 186.853 424.739 186.853H424.012V185.301H424.752C425.342 185.301 425.789 185.246 426.095 185.137C426.405 185.023 426.615 184.87 426.724 184.678C426.838 184.482 426.894 184.259 426.894 184.01C426.894 183.669 426.79 183.403 426.58 183.211C426.37 183.019 426.021 182.922 425.532 182.922C425.226 182.922 424.946 182.962 424.693 183.04C424.444 183.115 424.219 183.206 424.018 183.316C423.818 183.42 423.641 183.523 423.488 183.623L422.551 182.228C422.927 181.957 423.365 181.732 423.868 181.553C424.374 181.374 424.977 181.285 425.676 181.285C426.663 181.285 427.445 181.483 428.021 181.881C428.598 182.278 428.886 182.84 428.886 183.564Z" fill="white"/>
<path fill-rule="evenodd" clip-rule="evenodd" d="M135 1.67761C135 0.751094 135.751 0 136.678 0H330.322C331.249 0 332 0.751093 332 1.67761V18.3224C332 19.2489 331.249 20 330.322 20H136.678C135.751 20 135 19.2489 135 18.3224V1.67761Z" fill="#F7F8FA"/>
<path d="M145.983 6.56146V14H145.238L145.158 13.3055C144.963 13.5739 144.738 13.7752 144.483 13.9094C144.228 14.0436 143.953 14.1107 143.658 14.1107C142.987 14.1107 142.48 13.8658 142.138 13.3759C141.802 12.8861 141.635 12.2117 141.635 11.3527C141.635 10.8226 141.718 10.3495 141.886 9.93346C142.054 9.51071 142.292 9.18189 142.601 8.94703C142.916 8.70545 143.285 8.58466 143.708 8.58466C144.292 8.58466 144.768 8.79604 145.137 9.2188V6.4608L145.983 6.56146ZM143.93 9.26913C143.487 9.26913 143.144 9.4436 142.903 9.79254C142.668 10.1415 142.551 10.6615 142.551 11.3527C142.551 12.0372 142.658 12.5573 142.873 12.9129C143.094 13.2618 143.413 13.4363 143.829 13.4363C144.332 13.4363 144.768 13.1545 145.137 12.5908V9.9536C144.99 9.73215 144.812 9.56439 144.604 9.45031C144.396 9.32952 144.171 9.26913 143.93 9.26913ZM151.797 12.8424C151.797 13.0505 151.831 13.2048 151.898 13.3055C151.965 13.3994 152.075 13.4699 152.23 13.5168L152.018 14.1208C151.502 14.0537 151.18 13.802 151.052 13.3659C150.864 13.6074 150.626 13.792 150.337 13.9195C150.056 14.047 149.74 14.1107 149.391 14.1107C148.861 14.1107 148.442 13.9631 148.133 13.6678C147.831 13.3726 147.68 12.9767 147.68 12.4801C147.68 11.9365 147.891 11.5171 148.314 11.2219C148.744 10.9266 149.358 10.779 150.156 10.779H150.941V10.3462C150.941 9.97037 150.834 9.70195 150.619 9.5409C150.405 9.37314 150.093 9.28926 149.683 9.28926C149.281 9.28926 148.821 9.37985 148.304 9.56103L148.073 8.91683C148.697 8.69538 149.277 8.58466 149.814 8.58466C150.458 8.58466 150.948 8.73565 151.284 9.03762C151.626 9.33959 151.797 9.75899 151.797 10.2958V12.8424ZM149.603 13.4766C149.864 13.4766 150.113 13.4095 150.348 13.2753C150.589 13.1411 150.787 12.9565 150.941 12.7217V11.3628H150.176C149.613 11.3628 149.207 11.4567 148.958 11.6446C148.71 11.8325 148.586 12.1077 148.586 12.47C148.586 13.1411 148.925 13.4766 149.603 13.4766ZM158.245 13.7282C158.064 13.849 157.843 13.943 157.581 14.0101C157.326 14.0772 157.071 14.1107 156.816 14.1107C156.259 14.1107 155.823 13.9664 155.507 13.6779C155.192 13.3826 155.034 12.9968 155.034 12.5203V9.35972H153.816V8.69538H155.034V7.49757L155.88 7.39691V8.69538H157.722L157.611 9.35972H155.88V12.5103C155.88 12.8122 155.96 13.037 156.121 13.1847C156.282 13.3323 156.541 13.4061 156.896 13.4061C157.259 13.4061 157.598 13.3222 157.913 13.1545L158.245 13.7282ZM163.868 12.8424C163.868 13.0505 163.901 13.2048 163.969 13.3055C164.036 13.3994 164.146 13.4699 164.301 13.5168L164.089 14.1208C163.573 14.0537 163.251 13.802 163.123 13.3659C162.935 13.6074 162.697 13.792 162.408 13.9195C162.127 14.047 161.811 14.1107 161.462 14.1107C160.932 14.1107 160.513 13.9631 160.204 13.6678C159.902 13.3726 159.751 12.9767 159.751 12.4801C159.751 11.9365 159.962 11.5171 160.385 11.2219C160.815 10.9266 161.429 10.779 162.227 10.779H163.012V10.3462C163.012 9.97037 162.905 9.70195 162.69 9.5409C162.475 9.37314 162.163 9.28926 161.754 9.28926C161.351 9.28926 160.892 9.37985 160.375 9.56103L160.144 8.91683C160.768 8.69538 161.348 8.58466 161.885 8.58466C162.529 8.58466 163.019 8.73565 163.355 9.03762C163.697 9.33959 163.868 9.75899 163.868 10.2958V12.8424ZM161.674 13.4766C161.935 13.4766 162.184 13.4095 162.418 13.2753C162.66 13.1411 162.858 12.9565 163.012 12.7217V11.3628H162.247C161.684 11.3628 161.278 11.4567 161.029 11.6446C160.781 11.8325 160.657 12.1077 160.657 12.47C160.657 13.1411 160.996 13.4766 161.674 13.4766ZM166.944 9.38992C167.353 8.85308 167.86 8.58466 168.464 8.58466C169.142 8.58466 169.642 8.82624 169.964 9.30939C170.286 9.79254 170.447 10.4703 170.447 11.3427C170.447 12.1748 170.262 12.8458 169.893 13.3558C169.524 13.8591 169.008 14.1107 168.343 14.1107C167.733 14.1107 167.253 13.8893 166.904 13.4464L166.843 14H166.099V6.56146L166.944 6.4608V9.38992ZM168.152 13.4263C168.595 13.4263 168.934 13.2518 169.169 12.9028C169.41 12.5539 169.531 12.0338 169.531 11.3427C169.531 10.6582 169.424 10.1415 169.209 9.79254C169.001 9.4436 168.689 9.26913 168.273 9.26913C168.004 9.26913 167.756 9.34965 167.528 9.51071C167.306 9.67176 167.112 9.87307 166.944 10.1146V12.7418C167.085 12.9565 167.259 13.1243 167.468 13.2451C167.676 13.3659 167.904 13.4263 168.152 13.4263ZM175.939 12.8424C175.939 13.0505 175.972 13.2048 176.04 13.3055C176.107 13.3994 176.217 13.4699 176.372 13.5168L176.16 14.1208C175.644 14.0537 175.322 13.802 175.194 13.3659C175.006 13.6074 174.768 13.792 174.479 13.9195C174.198 14.047 173.882 14.1107 173.533 14.1107C173.003 14.1107 172.584 13.9631 172.275 13.6678C171.973 13.3726 171.822 12.9767 171.822 12.4801C171.822 11.9365 172.033 11.5171 172.456 11.2219C172.886 10.9266 173.5 10.779 174.298 10.779H175.083V10.3462C175.083 9.97037 174.976 9.70195 174.761 9.5409C174.546 9.37314 174.234 9.28926 173.825 9.28926C173.422 9.28926 172.963 9.37985 172.446 9.56103L172.215 8.91683C172.839 8.69538 173.419 8.58466 173.956 8.58466C174.6 8.58466 175.09 8.73565 175.426 9.03762C175.768 9.33959 175.939 9.75899 175.939 10.2958V12.8424ZM173.745 13.4766C174.006 13.4766 174.255 13.4095 174.489 13.2753C174.731 13.1411 174.929 12.9565 175.083 12.7217V11.3628H174.318C173.755 11.3628 173.349 11.4567 173.1 11.6446C172.852 11.8325 172.728 12.1077 172.728 12.47C172.728 13.1411 173.067 13.4766 173.745 13.4766ZM179.981 13.4162C180.384 13.4162 180.703 13.339 180.938 13.1847C181.172 13.0303 181.29 12.8257 181.29 12.5707C181.29 12.3962 181.26 12.2553 181.199 12.1479C181.139 12.0338 181.018 11.9332 180.837 11.8459C180.656 11.752 180.381 11.6581 180.012 11.5641C179.394 11.4098 178.938 11.2252 178.643 11.0105C178.347 10.789 178.2 10.4636 178.2 10.0341C178.2 9.59123 178.384 9.23893 178.753 8.97722C179.122 8.71552 179.609 8.58466 180.213 8.58466C180.951 8.58466 181.595 8.77927 182.145 9.16847L181.763 9.75228C181.542 9.59794 181.31 9.48051 181.068 9.39998C180.827 9.31275 180.548 9.26913 180.233 9.26913C179.468 9.26913 179.086 9.50064 179.086 9.96366C179.086 10.1247 179.126 10.2556 179.206 10.3562C179.294 10.4569 179.431 10.5475 179.619 10.628C179.814 10.7018 180.102 10.7924 180.485 10.8998C181.062 11.0541 181.491 11.2521 181.773 11.4936C182.062 11.7285 182.206 12.0741 182.206 12.5304C182.206 13.0605 181.991 13.4565 181.562 13.7182C181.132 13.9799 180.605 14.1107 179.981 14.1107C179.149 14.1107 178.458 13.8725 177.908 13.3961L178.381 12.8424C178.596 13.0169 178.841 13.1578 179.116 13.2652C179.391 13.3659 179.679 13.4162 179.981 13.4162ZM184.879 11.6446C184.9 12.2284 185.051 12.668 185.332 12.9632C185.621 13.2585 185.983 13.4061 186.419 13.4061C186.681 13.4061 186.919 13.3692 187.134 13.2954C187.356 13.2149 187.59 13.0941 187.839 12.933L188.231 13.4967C187.983 13.6913 187.698 13.8423 187.376 13.9497C187.06 14.057 186.742 14.1107 186.419 14.1107C185.654 14.1107 185.057 13.8624 184.628 13.3659C184.205 12.8626 183.994 12.1915 183.994 11.3527C183.994 10.8226 184.088 10.3495 184.275 9.93346C184.463 9.51071 184.732 9.18189 185.081 8.94703C185.43 8.70545 185.836 8.58466 186.299 8.58466C186.97 8.58466 187.496 8.81953 187.879 9.28926C188.268 9.75228 188.463 10.3864 188.463 11.1917C188.463 11.346 188.456 11.497 188.443 11.6446H184.879ZM186.309 9.27919C185.899 9.27919 185.567 9.42682 185.312 9.72208C185.057 10.0106 184.913 10.4367 184.879 11.0004H187.637C187.631 10.4435 187.51 10.0173 187.275 9.72208C187.04 9.42682 186.718 9.27919 186.309 9.27919ZM191.358 13.2249C191.358 12.9767 191.442 12.7686 191.609 12.6009C191.784 12.4264 191.995 12.3392 192.244 12.3392C192.499 12.3392 192.71 12.4264 192.878 12.6009C193.045 12.7686 193.129 12.9767 193.129 13.2249C193.129 13.4799 193.045 13.6913 192.878 13.8591C192.71 14.0268 192.499 14.1107 192.244 14.1107C191.995 14.1107 191.784 14.0268 191.609 13.8591C191.442 13.6846 191.358 13.4732 191.358 13.2249ZM198.088 13.4162C198.49 13.4162 198.809 13.339 199.044 13.1847C199.279 13.0303 199.396 12.8257 199.396 12.5707C199.396 12.3962 199.366 12.2553 199.306 12.1479C199.245 12.0338 199.125 11.9332 198.943 11.8459C198.762 11.752 198.487 11.6581 198.118 11.5641C197.501 11.4098 197.044 11.2252 196.749 11.0105C196.454 10.789 196.306 10.4636 196.306 10.0341C196.306 9.59123 196.491 9.23893 196.86 8.97722C197.229 8.71552 197.715 8.58466 198.319 8.58466C199.057 8.58466 199.702 8.77927 200.252 9.16847L199.869 9.75228C199.648 9.59794 199.416 9.48051 199.175 9.39998C198.933 9.31275 198.655 9.26913 198.339 9.26913C197.574 9.26913 197.192 9.50064 197.192 9.96366C197.192 10.1247 197.232 10.2556 197.313 10.3562C197.4 10.4569 197.538 10.5475 197.725 10.628C197.92 10.7018 198.209 10.7924 198.591 10.8998C199.168 11.0541 199.598 11.2521 199.879 11.4936C200.168 11.7285 200.312 12.0741 200.312 12.5304C200.312 13.0605 200.098 13.4565 199.668 13.7182C199.239 13.9799 198.712 14.1107 198.088 14.1107C197.256 14.1107 196.565 13.8725 196.014 13.3961L196.487 12.8424C196.702 13.0169 196.947 13.1578 197.222 13.2652C197.497 13.3659 197.786 13.4162 198.088 13.4162ZM204.808 14H203.831L201.909 8.69538H202.815L204.345 13.235L205.855 8.69538H206.74L204.808 14ZM210.753 13.386C211.216 13.386 211.675 13.2317 212.132 12.923L212.534 13.4766C212.313 13.6712 212.038 13.8255 211.709 13.9396C211.38 14.0537 211.061 14.1107 210.753 14.1107C209.967 14.1107 209.353 13.8658 208.911 13.3759C208.474 12.8794 208.256 12.2117 208.256 11.3729C208.256 10.8427 208.354 10.3663 208.548 9.94353C208.75 9.52077 209.038 9.1886 209.414 8.94703C209.79 8.70545 210.236 8.58466 210.753 8.58466C211.437 8.58466 212.028 8.79269 212.524 9.20873L212.111 9.76235C211.648 9.45367 211.192 9.29933 210.743 9.29933C210.266 9.29933 209.884 9.47715 209.595 9.83281C209.313 10.1818 209.172 10.6951 209.172 11.3729C209.172 12.0506 209.313 12.5573 209.595 12.8928C209.884 13.2216 210.269 13.386 210.753 13.386ZM215.5 13.2249C215.5 12.9767 215.584 12.7686 215.751 12.6009C215.926 12.4264 216.137 12.3392 216.385 12.3392C216.64 12.3392 216.852 12.4264 217.02 12.6009C217.187 12.7686 217.271 12.9767 217.271 13.2249C217.271 13.4799 217.187 13.6913 217.02 13.8591C216.852 14.0268 216.64 14.1107 216.385 14.1107C216.137 14.1107 215.926 14.0268 215.751 13.8591C215.584 13.6846 215.5 13.4732 215.5 13.2249ZM222.824 13.386C223.287 13.386 223.746 13.2317 224.203 12.923L224.605 13.4766C224.384 13.6712 224.109 13.8255 223.78 13.9396C223.451 14.0537 223.132 14.1107 222.824 14.1107C222.038 14.1107 221.424 13.8658 220.982 13.3759C220.545 12.8794 220.327 12.2117 220.327 11.3729C220.327 10.8427 220.425 10.3663 220.619 9.94353C220.82 9.52077 221.109 9.1886 221.485 8.94703C221.861 8.70545 222.307 8.58466 222.824 8.58466C223.508 8.58466 224.099 8.79269 224.595 9.20873L224.182 9.76235C223.719 9.45367 223.263 9.29933 222.814 9.29933C222.337 9.29933 221.955 9.47715 221.666 9.83281C221.384 10.1818 221.243 10.6951 221.243 11.3729C221.243 12.0506 221.384 12.5573 221.666 12.8928C221.955 13.2216 222.34 13.386 222.824 13.386ZM228.527 12.6915C228.527 13.1679 228.819 13.4061 229.403 13.4061C229.678 13.4061 229.973 13.3457 230.288 13.2249L230.51 13.8389C230.174 14.0201 229.755 14.1107 229.252 14.1107C228.775 14.1107 228.393 13.9799 228.104 13.7182C227.822 13.4565 227.681 13.1008 227.681 12.6512V7.23586H226.051V6.56146H228.527V12.6915ZM233.334 12.46C233.334 12.8022 233.405 13.0538 233.546 13.2149C233.693 13.3692 233.922 13.4464 234.23 13.4464C234.512 13.4464 234.784 13.3659 235.046 13.2048C235.307 13.0438 235.515 12.8424 235.67 12.6009V8.69538H236.515V14H235.79L235.72 13.2853C235.512 13.547 235.254 13.7517 234.945 13.8993C234.643 14.0403 234.334 14.1107 234.019 14.1107C233.516 14.1107 233.133 13.9765 232.871 13.7081C232.616 13.4397 232.489 13.0538 232.489 12.5505V8.69538H233.334V12.46ZM240.336 13.4162C240.739 13.4162 241.058 13.339 241.292 13.1847C241.527 13.0303 241.645 12.8257 241.645 12.5707C241.645 12.3962 241.614 12.2553 241.554 12.1479C241.494 12.0338 241.373 11.9332 241.192 11.8459C241.011 11.752 240.735 11.6581 240.366 11.5641C239.749 11.4098 239.293 11.2252 238.997 11.0105C238.702 10.789 238.555 10.4636 238.555 10.0341C238.555 9.59123 238.739 9.23893 239.108 8.97722C239.477 8.71552 239.964 8.58466 240.568 8.58466C241.306 8.58466 241.95 8.77927 242.5 9.16847L242.118 9.75228C241.896 9.59794 241.665 9.48051 241.423 9.39998C241.182 9.31275 240.903 9.26913 240.588 9.26913C239.823 9.26913 239.44 9.50064 239.44 9.96366C239.44 10.1247 239.481 10.2556 239.561 10.3562C239.648 10.4569 239.786 10.5475 239.974 10.628C240.168 10.7018 240.457 10.7924 240.839 10.8998C241.417 11.0541 241.846 11.2521 242.128 11.4936C242.416 11.7285 242.561 12.0741 242.561 12.5304C242.561 13.0605 242.346 13.4565 241.916 13.7182C241.487 13.9799 240.96 14.1107 240.336 14.1107C239.504 14.1107 238.813 13.8725 238.263 13.3961L238.736 12.8424C238.95 13.0169 239.195 13.1578 239.47 13.2652C239.746 13.3659 240.034 13.4162 240.336 13.4162ZM248.777 13.7282C248.596 13.849 248.375 13.943 248.113 14.0101C247.858 14.0772 247.603 14.1107 247.348 14.1107C246.791 14.1107 246.355 13.9664 246.039 13.6779C245.724 13.3826 245.566 12.9968 245.566 12.5203V9.35972H244.348V8.69538H245.566V7.49757L246.412 7.39691V8.69538H248.254L248.143 9.35972H246.412V12.5103C246.412 12.8122 246.492 13.037 246.653 13.1847C246.814 13.3323 247.073 13.4061 247.429 13.4061C247.791 13.4061 248.13 13.3222 248.445 13.1545L248.777 13.7282ZM251.27 11.6446C251.29 12.2284 251.441 12.668 251.723 12.9632C252.011 13.2585 252.374 13.4061 252.81 13.4061C253.071 13.4061 253.31 13.3692 253.524 13.2954C253.746 13.2149 253.981 13.0941 254.229 12.933L254.622 13.4967C254.373 13.6913 254.088 13.8423 253.766 13.9497C253.451 14.057 253.132 14.1107 252.81 14.1107C252.045 14.1107 251.447 13.8624 251.018 13.3659C250.595 12.8626 250.384 12.1915 250.384 11.3527C250.384 10.8226 250.478 10.3495 250.666 9.93346C250.854 9.51071 251.122 9.18189 251.471 8.94703C251.82 8.70545 252.226 8.58466 252.689 8.58466C253.36 8.58466 253.887 8.81953 254.269 9.28926C254.658 9.75228 254.853 10.3864 254.853 11.1917C254.853 11.346 254.846 11.497 254.833 11.6446H251.27ZM252.699 9.27919C252.29 9.27919 251.957 9.42682 251.702 9.72208C251.447 10.0106 251.303 10.4367 251.27 11.0004H254.028C254.021 10.4435 253.9 10.0173 253.665 9.72208C253.43 9.42682 253.108 9.27919 252.699 9.27919ZM260.214 8.58466C260.429 8.58466 260.677 8.62157 260.959 8.69538L260.838 10.4971H260.154V9.35972H260.103C259.285 9.35972 258.704 9.94353 258.362 11.1111V13.3457H259.439V14H256.681V13.3457H257.517V9.34965H256.681V8.69538H258.151L258.312 9.9536C258.526 9.49728 258.781 9.15505 259.077 8.9269C259.379 8.69874 259.758 8.58466 260.214 8.58466ZM263.784 13.2249C263.784 12.9767 263.867 12.7686 264.035 12.6009C264.21 12.4264 264.421 12.3392 264.669 12.3392C264.924 12.3392 265.136 12.4264 265.303 12.6009C265.471 12.7686 265.555 12.9767 265.555 13.2249C265.555 13.4799 265.471 13.6913 265.303 13.8591C265.136 14.0268 264.924 14.1107 264.669 14.1107C264.421 14.1107 264.21 14.0268 264.035 13.8591C263.867 13.6846 263.784 13.4732 263.784 13.2249ZM270.775 12.6915C270.775 13.1679 271.067 13.4061 271.651 13.4061C271.926 13.4061 272.221 13.3457 272.537 13.2249L272.758 13.8389C272.423 14.0201 272.003 14.1107 271.5 14.1107C271.024 14.1107 270.641 13.9799 270.352 13.7182C270.071 13.4565 269.93 13.1008 269.93 12.6512V7.23586H268.299V6.56146H270.775V12.6915ZM276.76 8.58466C277.492 8.58466 278.052 8.83295 278.441 9.32952C278.837 9.81939 279.035 10.4904 279.035 11.3427C279.035 12.1748 278.834 12.8458 278.431 13.3558C278.035 13.8591 277.475 14.1107 276.75 14.1107C276.019 14.1107 275.455 13.8658 275.059 13.3759C274.663 12.8794 274.465 12.205 274.465 11.3527C274.465 10.5139 274.663 9.84287 275.059 9.33959C275.462 8.8363 276.029 8.58466 276.76 8.58466ZM276.76 9.27919C276.297 9.27919 275.952 9.45031 275.724 9.79254C275.495 10.1348 275.381 10.6548 275.381 11.3527C275.381 12.0506 275.492 12.5707 275.714 12.9129C275.942 13.2484 276.287 13.4162 276.75 13.4162C277.213 13.4162 277.556 13.2484 277.777 12.9129C278.005 12.5707 278.119 12.0473 278.119 11.3427C278.119 10.6448 278.005 10.1281 277.777 9.79254C277.556 9.45031 277.217 9.27919 276.76 9.27919ZM283.178 13.386C283.641 13.386 284.101 13.2317 284.557 12.923L284.96 13.4766C284.739 13.6712 284.463 13.8255 284.135 13.9396C283.806 14.0537 283.487 14.1107 283.178 14.1107C282.393 14.1107 281.779 13.8658 281.336 13.3759C280.9 12.8794 280.682 12.2117 280.682 11.3729C280.682 10.8427 280.779 10.3663 280.974 9.94353C281.175 9.52077 281.464 9.1886 281.84 8.94703C282.215 8.70545 282.662 8.58466 283.178 8.58466C283.863 8.58466 284.453 8.79269 284.95 9.20873L284.537 9.76235C284.074 9.45367 283.618 9.29933 283.168 9.29933C282.692 9.29933 282.309 9.47715 282.021 9.83281C281.739 10.1818 281.598 10.6951 281.598 11.3729C281.598 12.0506 281.739 12.5573 282.021 12.8928C282.309 13.2216 282.695 13.386 283.178 13.386ZM290.613 12.8424C290.613 13.0505 290.647 13.2048 290.714 13.3055C290.781 13.3994 290.891 13.4699 291.046 13.5168L290.834 14.1208C290.318 14.0537 289.996 13.802 289.868 13.3659C289.68 13.6074 289.442 13.792 289.153 13.9195C288.872 14.047 288.556 14.1107 288.207 14.1107C287.677 14.1107 287.258 13.9631 286.949 13.6678C286.647 13.3726 286.496 12.9767 286.496 12.4801C286.496 11.9365 286.707 11.5171 287.13 11.2219C287.56 10.9266 288.174 10.779 288.972 10.779H289.757V10.3462C289.757 9.97037 289.65 9.70195 289.435 9.5409C289.221 9.37314 288.909 9.28926 288.499 9.28926C288.097 9.28926 287.637 9.37985 287.12 9.56103L286.889 8.91683C287.513 8.69538 288.093 8.58466 288.63 8.58466C289.274 8.58466 289.764 8.73565 290.1 9.03762C290.442 9.33959 290.613 9.75899 290.613 10.2958V12.8424ZM288.419 13.4766C288.68 13.4766 288.929 13.4095 289.163 13.2753C289.405 13.1411 289.603 12.9565 289.757 12.7217V11.3628H288.992C288.429 11.3628 288.023 11.4567 287.774 11.6446C287.526 11.8325 287.402 12.1077 287.402 12.47C287.402 13.1411 287.741 13.4766 288.419 13.4766ZM294.917 12.6915C294.917 13.1679 295.209 13.4061 295.793 13.4061C296.068 13.4061 296.363 13.3457 296.679 13.2249L296.9 13.8389C296.565 14.0201 296.145 14.1107 295.642 14.1107C295.165 14.1107 294.783 13.9799 294.494 13.7182C294.213 13.4565 294.072 13.1008 294.072 12.6512V7.23586H292.441V6.56146H294.917V12.6915ZM300.077 9.66169C300.077 9.44025 300.154 9.25235 300.308 9.09801C300.463 8.93696 300.654 8.85644 300.882 8.85644C301.117 8.85644 301.312 8.93696 301.466 9.09801C301.62 9.25235 301.697 9.44025 301.697 9.66169C301.697 9.88985 301.62 10.0844 301.466 10.2455C301.312 10.4066 301.117 10.4871 300.882 10.4871C300.654 10.4871 300.463 10.4066 300.308 10.2455C300.154 10.0844 300.077 9.88985 300.077 9.66169ZM300.077 13.2954C300.077 13.074 300.154 12.8827 300.308 12.7217C300.463 12.5606 300.654 12.4801 300.882 12.4801C301.117 12.4801 301.312 12.5606 301.466 12.7217C301.62 12.876 301.697 13.0672 301.697 13.2954C301.697 13.5303 301.62 13.7249 301.466 13.8792C301.312 14.0336 301.117 14.1107 300.882 14.1107C300.654 14.1107 300.463 14.0336 300.308 13.8792C300.154 13.7249 300.077 13.5303 300.077 13.2954ZM308.689 7.74921H305.951V9.93346C306.146 9.81939 306.337 9.74222 306.525 9.70195C306.72 9.65498 306.924 9.63149 307.139 9.63149C307.716 9.63149 308.176 9.82274 308.518 10.2052C308.867 10.5877 309.042 11.1212 309.042 11.8057C309.042 12.262 308.944 12.6646 308.75 13.0136C308.562 13.3625 308.29 13.6343 307.934 13.8289C307.579 14.0168 307.166 14.1107 306.696 14.1107C305.924 14.1107 305.253 13.8356 304.683 13.2853L305.206 12.772C305.629 13.2015 306.126 13.4162 306.696 13.4162C307.159 13.4162 307.518 13.2753 307.773 12.9934C308.028 12.7116 308.156 12.3056 308.156 11.7755C308.156 11.2521 308.042 10.8763 307.813 10.6481C307.585 10.4133 307.28 10.2958 306.898 10.2958C306.716 10.2958 306.552 10.3126 306.404 10.3462C306.257 10.3797 306.062 10.4401 305.82 10.5273H305.136V7.06474H308.81L308.689 7.74921ZM315.258 12.319H314.362V14H313.547V12.319H310.668V11.695L312.701 6.95402L313.406 7.25599L311.564 11.6346H313.557L313.628 9.67176H314.362V11.6346H315.258V12.319ZM318.687 6.95402C319.109 6.95402 319.482 7.03455 319.804 7.1956C320.126 7.34994 320.374 7.56132 320.549 7.82974C320.723 8.09144 320.81 8.37999 320.81 8.69538C320.81 9.09801 320.68 9.45031 320.418 9.75228C320.156 10.0475 319.837 10.2321 319.462 10.3059C319.898 10.3394 320.267 10.5039 320.569 10.7991C320.878 11.0944 321.032 11.497 321.032 12.007C321.032 12.4029 320.931 12.7619 320.73 13.084C320.529 13.4061 320.243 13.6578 319.874 13.8389C319.512 14.0201 319.096 14.1107 318.626 14.1107C318.217 14.1107 317.821 14.0336 317.438 13.8792C317.063 13.7249 316.751 13.4967 316.502 13.1947L317.066 12.7317C317.254 12.9532 317.482 13.1243 317.751 13.2451C318.026 13.3592 318.311 13.4162 318.606 13.4162C319.089 13.4162 319.465 13.292 319.733 13.0438C320.009 12.7888 320.146 12.4432 320.146 12.007C320.146 11.1279 319.666 10.6884 318.707 10.6884H318.133L318.234 10.014H318.646C319.009 10.014 319.317 9.91333 319.572 9.71202C319.827 9.50399 319.955 9.20202 319.955 8.80611C319.955 8.43703 319.831 8.15184 319.582 7.95052C319.341 7.7425 319.029 7.63849 318.646 7.63849C318.358 7.63849 318.099 7.68882 317.871 7.78947C317.65 7.89013 317.418 8.05118 317.177 8.27263L316.714 7.75928C317.277 7.22244 317.935 6.95402 318.687 6.95402ZM324.722 6.95402C325.145 6.95402 325.514 7.0379 325.829 7.20566C326.151 7.37342 326.396 7.60494 326.564 7.9002C326.732 8.18875 326.816 8.51756 326.816 8.88663C326.816 9.3161 326.715 9.73215 326.514 10.1348C326.319 10.5374 326.004 10.9803 325.568 11.4634C325.131 11.9399 324.514 12.5438 323.716 13.2753H326.977L326.876 14H322.749V13.3155C323.655 12.4499 324.326 11.7721 324.762 11.2823C325.205 10.7924 325.511 10.373 325.678 10.0241C325.846 9.67511 325.93 9.30604 325.93 8.91683C325.93 8.52762 325.819 8.2223 325.598 8.00085C325.376 7.77941 325.071 7.66869 324.682 7.66869C324.353 7.66869 324.078 7.72572 323.856 7.8398C323.642 7.94717 323.42 8.13506 323.192 8.40348L322.608 7.95052C322.883 7.60829 323.189 7.35665 323.524 7.1956C323.867 7.03455 324.266 6.95402 324.722 6.95402Z" fill="#252937"/>
<defs>
<linearGradient id="paint0_linear_0_1" x1="426.5" y1="54.5728" x2="426.5" y2="351.204" gradientUnits="userSpaceOnUse">
<stop stop-color="#E80134"/>
<stop offset="1" stop-color="#AC0027"/>
</linearGradient>
<linearGradient id="paint1_linear_0_1" x1="249.5" y1="54.5728" x2="249.5" y2="351.204" gradientUnits="userSpaceOnUse">
<stop stop-color="#E80134"/>
<stop offset="1" stop-color="#AC0027"/>
</linearGradient>
</defs>
</svg>
