<svg width="600" height="360" viewBox="0 0 600 360" fill="none" xmlns="http://www.w3.org/2000/svg">
<mask id="mask0" mask-type="alpha" maskUnits="userSpaceOnUse" x="300" y="60" width="300" height="300">
<rect x="300" y="60" width="300" height="300" fill="#FF00FF"/>
</mask>
<g mask="url(#mask0)">
<path opacity="0.1" d="M267.719 689.019H267.619C267.219 688.919 266.919 688.619 267.019 688.119C279.519 604.419 305.419 523.819 344.019 448.419C381.619 374.819 430.419 307.719 489.119 249.019C547.719 190.419 614.719 141.619 688.319 104.019C763.719 65.5194 844.419 39.6194 928.019 27.0194C928.419 26.9194 928.819 27.2194 928.919 27.6194C929.019 28.0194 928.719 28.4194 928.319 28.5194C844.819 41.0194 764.319 66.9194 689.019 105.319C615.519 142.819 548.619 191.619 490.019 250.119C431.419 308.719 382.719 375.619 345.219 449.119C306.819 524.419 280.919 604.919 268.419 688.419C268.319 688.819 268.019 689.019 267.719 689.019Z" fill="var(--gray-4, #bfbfc0)"/>
<path opacity="0.15" d="M283.819 689.019H283.719C283.319 688.919 283.019 688.619 283.119 688.119C295.619 606.619 321.019 528.019 358.719 454.619C395.519 382.919 443.119 317.519 500.319 260.319C557.519 203.119 622.819 155.519 694.619 118.719C768.119 81.0195 846.619 55.6195 928.119 43.1195C928.519 43.0195 928.919 43.3195 929.019 43.7195C929.119 44.1195 928.819 44.5195 928.419 44.6195C847.119 57.0195 768.619 82.4195 695.319 120.019C623.719 156.719 558.519 204.319 501.419 261.419C444.319 318.519 396.719 383.719 360.019 455.319C322.419 528.619 297.019 607.019 284.619 688.419C284.519 688.819 284.219 689.019 283.819 689.019Z" fill="var(--gray-4, #bfbfc0)"/>
<path opacity="0.2" d="M300.019 689.019H299.919C299.519 688.919 299.219 688.619 299.319 688.119C311.719 608.819 336.719 532.319 373.519 460.819C409.419 391.019 455.919 327.319 511.619 271.619C567.319 215.919 631.019 169.419 700.819 133.519C772.319 96.7192 848.819 71.7192 928.119 59.3192C928.519 59.2192 928.919 59.5192 929.019 59.9192C929.119 60.3192 928.819 60.7192 928.419 60.8192C849.219 73.2192 772.919 98.1192 701.619 134.819C631.919 170.719 568.419 217.119 512.819 272.719C457.219 328.319 410.819 391.819 374.919 461.519C338.219 532.819 313.319 609.219 300.919 688.319C300.719 688.819 300.419 689.019 300.019 689.019Z" fill="var(--gray-4, #bfbfc0)"/>
<path opacity="0.25" d="M316.219 689.019H316.119C315.719 688.919 315.419 688.619 315.519 688.119C327.819 610.919 352.319 536.619 388.319 467.019C423.319 399.219 468.619 337.319 522.919 283.019C577.219 228.719 639.119 183.419 707.019 148.319C776.519 112.419 850.919 87.9194 928.119 75.5194C928.519 75.4194 928.919 75.7194 929.019 76.1194C929.119 76.5194 928.819 76.9194 928.419 77.0194C851.419 89.3194 777.119 113.819 707.819 149.619C640.019 184.619 578.219 229.819 524.119 284.019C469.919 338.219 424.719 400.019 389.719 467.719C353.719 537.219 329.219 611.419 316.919 688.419C316.919 688.819 316.619 689.019 316.219 689.019Z" fill="var(--gray-4, #bfbfc0)"/>
<path opacity="0.3" d="M332.419 689.02H332.319C331.919 688.92 331.619 688.52 331.719 688.12C344.019 613.12 368.019 540.82 403.019 473.22C437.319 407.22 481.419 347.02 534.219 294.22C587.019 241.42 647.219 197.32 713.219 163.02C780.819 127.92 853.119 103.92 928.119 91.7196C928.519 91.6196 928.919 91.9196 929.019 92.3196C929.119 92.7196 928.819 93.1196 928.419 93.2196C853.519 105.42 781.419 129.42 714.019 164.42C648.119 198.62 588.019 242.62 535.419 295.32C482.619 348.02 438.519 408.12 404.419 474.02C369.419 541.42 345.519 613.62 333.219 688.42C333.119 688.82 332.819 689.02 332.419 689.02Z" fill="var(--gray-4, #bfbfc0)"/>
<path opacity="0.35" d="M348.619 689.019H348.519C348.119 688.919 347.819 688.519 347.919 688.119C360.119 615.319 383.619 545.119 417.819 479.519C451.219 415.419 494.219 356.919 545.519 305.619C596.819 254.319 655.319 211.319 719.419 177.919C785.019 143.719 855.219 120.219 928.019 108.019C928.419 107.919 928.819 108.219 928.919 108.619C929.019 109.019 928.719 109.419 928.319 109.519C855.619 121.719 785.619 145.119 720.119 179.319C656.119 212.619 597.719 255.519 546.519 306.719C495.319 357.919 452.419 416.319 419.119 480.319C385.019 545.819 361.519 615.819 349.319 688.519C349.319 688.819 349.019 689.019 348.619 689.019Z" fill="var(--gray-4, #bfbfc0)"/>
<path opacity="0.4" d="M364.919 689.02H364.819C364.419 688.92 364.119 688.52 364.219 688.12C376.319 617.42 399.419 549.32 432.719 485.72C465.319 423.52 507.119 366.72 556.919 316.92C606.719 267.12 663.519 225.32 725.719 192.72C789.319 159.42 857.419 136.32 928.119 124.22C928.519 124.12 928.919 124.42 929.019 124.82C929.119 125.22 928.819 125.62 928.419 125.72C857.919 137.82 789.919 160.82 726.419 194.02C664.319 226.62 607.619 268.32 557.919 318.02C508.219 367.72 466.519 424.42 434.019 486.52C400.719 550.02 377.719 617.92 365.719 688.52C365.619 688.82 365.219 689.02 364.919 689.02Z" fill="var(--gray-4, #bfbfc0)"/>
<path opacity="0.45" d="M381.119 689.019H381.019C380.619 688.919 380.319 688.519 380.419 688.119C429.319 409.519 649.419 189.419 928.119 140.419C928.519 140.319 928.919 140.619 929.019 141.019C929.119 141.419 928.819 141.819 928.419 141.919C650.419 190.719 430.819 410.319 381.919 688.419C381.819 688.819 381.519 689.019 381.119 689.019Z" fill="var(--gray-4, #bfbfc0)"/>
<path opacity="0.5" d="M397.419 689.019H397.319C396.919 688.919 396.619 688.519 396.719 688.119C408.719 621.819 430.719 557.819 462.319 498.119C493.219 439.719 532.619 386.319 579.519 339.419C626.419 292.519 679.819 253.119 738.219 222.219C797.919 190.619 861.819 168.519 928.219 156.619C928.619 156.519 929.019 156.819 929.119 157.219C929.219 157.619 928.919 158.019 928.519 158.119C862.319 170.019 798.519 192.019 739.019 223.619C680.719 254.419 627.519 293.819 580.719 340.519C533.919 387.319 494.619 440.519 463.819 498.819C432.319 558.419 410.319 622.119 398.319 688.319C398.019 688.819 397.719 689.019 397.419 689.019Z" fill="var(--gray-4, #bfbfc0)"/>
<path d="M413.619 689.019H413.519C413.119 688.919 412.819 688.519 412.919 688.119C424.819 623.919 446.319 562.119 477.019 504.419C507.019 447.919 545.319 396.219 590.719 350.819C636.119 305.419 687.819 267.119 744.319 237.119C802.019 206.419 863.919 184.819 928.119 172.919C928.519 172.819 928.919 173.119 929.019 173.519C929.119 173.919 928.819 174.319 928.419 174.419C864.419 186.219 802.719 207.819 745.119 238.419C688.719 268.419 637.219 306.519 591.919 351.819C546.619 397.119 508.419 448.619 478.519 505.019C447.919 562.619 426.319 624.319 414.519 688.319C414.319 688.819 414.019 689.019 413.619 689.019Z" fill="url(#paint0_linear)"/>
<path d="M429.919 689.02H429.819C429.419 688.92 429.119 688.52 429.219 688.12C441.019 626.12 462.119 566.42 491.919 510.62C521.119 456.02 558.219 406.12 602.119 362.12C646.019 318.12 696.019 281.12 750.619 251.92C806.419 222.12 866.119 201.02 928.119 189.22C928.519 189.12 928.919 189.42 929.019 189.82C929.119 190.22 928.819 190.62 928.419 190.72C866.519 202.42 807.019 223.52 751.319 253.22C696.819 282.32 647.019 319.32 603.219 363.12C559.419 406.92 522.419 456.82 493.319 511.22C463.519 566.92 442.519 626.42 430.819 688.32C430.619 688.82 430.319 689.02 429.919 689.02Z" fill="url(#paint1_linear)"/>
<path d="M446.219 689.019H446.119C445.719 688.919 445.419 688.519 445.519 688.119C468.819 568.819 526.819 460.019 613.419 373.419C700.019 286.819 808.819 228.819 928.119 205.519C928.519 205.419 928.919 205.719 929.019 206.119C929.119 206.519 928.819 206.919 928.419 207.019C809.419 230.219 700.819 288.119 614.519 374.519C528.019 460.919 470.119 569.419 446.919 688.419C446.919 688.819 446.519 689.019 446.219 689.019Z" fill="url(#paint2_linear)"/>
<path d="M462.519 689.019H462.419C462.019 688.919 461.719 688.519 461.819 688.119C484.819 573.119 541.219 468.219 624.719 384.719C708.219 301.219 813.119 244.919 928.119 221.819C928.519 221.719 928.919 222.019 929.019 222.419C929.119 222.819 928.819 223.219 928.419 223.319C813.719 246.319 709.119 302.519 625.819 385.819C542.519 469.119 486.319 573.719 463.319 688.419C463.219 688.819 462.919 689.019 462.519 689.019Z" fill="url(#paint3_linear)"/>
<path d="M478.919 689.019C478.819 689.019 478.819 689.019 478.719 689.019C478.319 688.919 478.019 688.519 478.119 688.119C500.919 577.519 555.519 476.519 636.019 396.019C716.519 315.519 817.519 261.019 928.119 238.119C928.519 238.019 928.919 238.319 929.019 238.719C929.119 239.119 928.819 239.519 928.419 239.619C818.119 262.419 717.319 316.819 637.119 397.019C556.919 477.219 502.419 578.019 479.719 688.319C479.519 688.819 479.219 689.019 478.919 689.019Z" fill="url(#paint4_linear)"/>
<path d="M495.219 689.019C495.119 689.019 495.119 689.019 495.019 689.019C494.619 688.919 494.319 688.519 494.419 688.119C517.019 581.819 569.819 484.719 647.219 407.419C724.619 330.019 821.719 277.219 927.919 254.619C928.319 254.519 928.719 254.819 928.819 255.219C928.919 255.619 928.619 256.019 928.219 256.119C822.219 278.619 725.419 331.319 648.219 408.519C571.019 485.719 518.319 582.519 495.819 688.519C495.819 688.819 495.519 689.019 495.219 689.019Z" fill="url(#paint5_linear)"/>
<path opacity="0.3" d="M511.619 689.019C511.519 689.019 511.519 689.019 511.419 689.019C511.019 688.919 510.719 688.519 510.819 688.119C556.319 480.219 720.119 316.419 928.019 270.919C928.419 270.819 928.819 271.119 928.919 271.519C929.019 271.919 928.719 272.319 928.319 272.419C721.019 317.819 557.719 481.119 512.219 688.519C512.219 688.819 511.919 689.019 511.619 689.019Z" fill="var(--gray-4, #bfbfc0)"/>
<path opacity="0.75" d="M528.019 689.019C527.919 689.019 527.919 689.019 527.819 689.019C527.419 688.919 527.119 688.519 527.219 688.119C549.319 590.519 598.619 501.319 669.919 430.019C741.219 358.719 830.419 309.419 928.019 287.319C928.419 287.219 928.819 287.519 928.919 287.919C929.019 288.319 928.719 288.719 928.319 288.819C831.019 310.819 742.019 360.019 670.919 431.119C599.919 502.119 550.719 591.119 528.719 688.519C528.619 688.819 528.319 689.019 528.019 689.019Z" fill="var(--gray-4, #bfbfc0)"/>
<path opacity="0.75" d="M544.419 689.02C544.319 689.02 544.319 689.02 544.219 689.02C543.819 688.92 543.519 688.52 543.619 688.12C565.419 594.82 612.919 509.52 681.119 441.32C749.319 373.12 834.719 325.52 927.919 303.72C928.319 303.62 928.719 303.92 928.819 304.32C928.919 304.72 928.619 305.12 928.219 305.22C835.219 326.92 750.119 374.32 682.119 442.42C614.119 510.42 566.719 595.52 545.019 688.52C545.019 688.82 544.719 689.02 544.419 689.02Z" fill="var(--gray-4, #bfbfc0)"/>
<path opacity="0.75" d="M560.819 689.02C560.719 689.02 560.719 689.02 560.619 689.02C560.219 688.92 559.919 688.52 560.019 688.12C581.519 599.22 627.319 517.82 692.419 452.62C757.519 387.42 839.019 341.72 927.919 320.22C928.319 320.12 928.719 320.42 928.819 320.82C928.919 321.22 928.619 321.62 928.219 321.72C839.619 343.12 758.419 388.82 693.419 453.72C628.419 518.72 582.819 599.82 561.419 688.52C561.519 688.82 561.219 689.02 560.819 689.02Z" fill="var(--gray-4, #bfbfc0)"/>
<path opacity="0.75" d="M577.319 689.019C577.219 689.019 577.219 689.019 577.119 689.019C576.719 688.919 576.519 688.519 576.619 688.119C597.719 603.519 641.719 526.019 703.819 463.919C765.919 401.819 843.419 357.819 928.019 336.719C928.419 336.619 928.819 336.819 928.919 337.219C929.019 337.619 928.819 338.019 928.419 338.119C844.119 359.219 766.819 403.119 704.919 464.919C643.019 526.819 599.119 604.119 578.119 688.419C578.019 688.819 577.619 689.019 577.319 689.019Z" fill="var(--gray-4, #bfbfc0)"/>
<path opacity="0.75" d="M593.819 689.019C593.719 689.019 593.719 689.019 593.619 689.019C593.219 688.919 593.019 688.519 593.119 688.119C613.919 607.919 656.119 534.319 715.219 475.219C774.219 416.219 847.819 374.019 928.119 353.119C928.519 353.019 928.919 353.219 929.019 353.619C929.119 354.019 928.919 354.419 928.519 354.519C848.519 375.319 775.219 417.319 716.319 476.219C657.419 535.119 615.319 608.519 594.519 688.519C594.419 688.819 594.119 689.019 593.819 689.019Z" fill="var(--gray-4, #bfbfc0)"/>
</g>
<mask id="mask1" mask-type="alpha" maskUnits="userSpaceOnUse" x="0" y="0" width="300" height="300">
<rect width="300" height="300" fill="#FF00FF"/>
</mask>
<g mask="url(#mask1)">
<path opacity="0.3" d="M-273.1 478.574C-273.2 478.574 -273.2 478.574 -273.3 478.574C-273.7 478.474 -273.9 478.074 -273.8 477.674C-211.1 273.674 -118.3 80.7745 2.00003 -95.5255C2.20003 -95.8255 2.70003 -95.9255 3.00003 -95.7255C3.30003 -95.5255 3.40004 -95.0255 3.20004 -94.7255C-117.1 81.4745 -209.8 274.174 -272.4 478.074C-272.5 478.374 -272.8 478.574 -273.1 478.574Z" fill="var(--gray-4, #bfbfc0)"/>
<path opacity="0.3" d="M-273.1 535.474C-273.2 535.474 -273.2 535.474 -273.3 535.474C-273.7 535.374 -273.9 534.974 -273.8 534.574C-210.9 309.074 -111.6 97.0744 21.3 -95.6256C21.5 -95.9256 22 -96.0256 22.3 -95.8256C22.6 -95.6256 22.7 -95.1256 22.5 -94.8256C-110.3 97.7744 -209.5 309.574 -272.4 534.874C-272.5 535.274 -272.8 535.474 -273.1 535.474Z" fill="var(--gray-4, #bfbfc0)"/>
<path d="M-273.1 598.374C-273.2 598.374 -273.2 598.374 -273.3 598.374C-273.7 598.274 -273.9 597.874 -273.8 597.474C-243.2 473.874 -200.9 352.474 -148.3 236.474C-95.7 120.574 -32.1 8.77437 40.8 -95.6256C41 -95.9256 41.5 -96.0256 41.8 -95.8256C42.1 -95.6256 42.2 -95.1256 42 -94.8256C-30.8 9.47437 -94.4 121.174 -147 236.974C-199.6 352.974 -241.8 474.274 -272.4 597.774C-272.5 598.174 -272.8 598.374 -273.1 598.374Z" fill="url(#paint6_linear)"/>
<path d="M-273.1 669.774C-273.2 669.774 -273.2 669.774 -273.3 669.774C-273.7 669.674 -274 669.274 -273.9 668.874C-244.6 531.074 -201 395.674 -144.3 266.574C-88.6 139.774 -19.8 17.9744 60.3 -95.6256C60.5 -95.9256 61 -96.0256 61.3 -95.8256C61.6 -95.6256 61.6999 -95.1256 61.4999 -94.8256C-18.5001 18.6744 -87.3001 140.374 -142.9 267.074C-199.6 396.074 -243.2 531.374 -272.4 669.074C-272.5 669.474 -272.8 669.774 -273.1 669.774Z" fill="url(#paint7_linear)"/>
<path opacity="0.9" d="M-264.1 705.574H-264.2C-264.6 705.474 -264.9 705.074 -264.8 704.674C-236.5 559.974 -192.4 417.974 -133.8 282.574C-76.2999 149.874 -4.39998 22.5744 79.9 -95.6256C80.1 -95.9256 80.6 -96.0256 80.9 -95.8256C81.2 -95.6256 81.3 -95.1256 81.1 -94.8256C-3.09996 23.2744 -75 150.474 -132.5 283.074C-191.1 418.474 -235.1 560.374 -263.4 704.974C-263.4 705.374 -263.8 705.574 -264.1 705.574Z" fill="url(#paint8_linear)"/>
<path opacity="0.8" d="M-247.8 705.574H-247.9C-248.3 705.474 -248.6 705.074 -248.5 704.674C-220 559.774 -175.4 417.674 -116.2 282.274C-58.1 149.474 14.5 22.3744 99.6 -95.6256C99.8 -95.9256 100.3 -96.0256 100.6 -95.8256C100.9 -95.6256 101 -95.1256 100.8 -94.8256C15.8 23.1744 -56.8 150.174 -114.9 282.874C-174.1 418.174 -218.6 560.174 -247.1 704.974C-247.1 705.374 -247.5 705.574 -247.8 705.574Z" fill="url(#paint9_linear)"/>
<path opacity="0.7" d="M-231.5 705.574H-231.6C-232 705.474 -232.3 705.074 -232.2 704.674C-203.4 559.574 -158.4 417.274 -98.6 281.874C-39.9 149.074 33.4 22.0744 119.4 -95.6256C119.6 -95.9256 120.1 -96.0256 120.4 -95.8256C120.7 -95.6256 120.8 -95.1256 120.6 -94.8256C34.7 22.7744 -38.6 149.674 -97.2 282.374C-157 417.874 -202 559.974 -230.8 704.974C-230.8 705.374 -231.2 705.574 -231.5 705.574Z" fill="url(#paint10_linear)"/>
<path opacity="0.6" d="M-215.2 705.574H-215.3C-215.7 705.474 -216 705.074 -215.9 704.674C-186.8 559.374 -141.4 416.974 -80.9001 281.474C-21.6001 148.674 52.5 21.7744 139.2 -95.6256C139.4 -95.9256 139.9 -96.0256 140.2 -95.8256C140.5 -95.6256 140.6 -95.1256 140.4 -94.8256C53.6999 22.4744 -20.4001 149.274 -79.6001 282.074C-140 417.474 -185.4 559.774 -214.5 704.974C-214.5 705.374 -214.8 705.574 -215.2 705.574Z" fill="url(#paint11_linear)"/>
<path opacity="0.5" d="M-198.9 705.574H-199C-199.4 705.474 -199.7 705.074 -199.6 704.674C-170.2 559.174 -124.3 416.674 -63.2 281.174C-3.30001 148.274 71.5 21.4744 159.1 -95.6256C159.3 -95.9256 159.8 -96.0256 160.1 -95.8256C160.4 -95.6256 160.5 -95.1256 160.3 -94.8256C72.7 22.1744 -2.00001 148.874 -61.9 281.674C-122.9 417.174 -168.8 559.574 -198.1 704.974C-198.2 705.374 -198.5 705.574 -198.9 705.574Z" fill="url(#paint12_linear)"/>
<path opacity="0.4" d="M-182.5 705.574C-182.5 705.574 -182.6 705.574 -182.7 705.574C-183.1 705.474 -183.4 705.074 -183.3 704.674C-153.6 558.874 -107.3 416.274 -45.5 280.774C15.1 147.874 90.7 21.2744 179.2 -95.6256C179.5 -95.9256 179.9 -96.0256 180.3 -95.7256C180.6 -95.5256 180.7 -95.0256 180.4 -94.6256C92 22.1744 16.4001 148.674 -44.0999 281.474C-105.8 416.874 -152.1 559.374 -181.8 705.074C-181.9 705.374 -182.2 705.574 -182.5 705.574Z" fill="url(#paint13_linear)"/>
<path opacity="0.3" d="M-166.2 705.574C-166.2 705.574 -166.3 705.574 -166.4 705.574C-166.8 705.474 -167.1 705.074 -167 704.674C-137 558.674 -90.2 415.874 -27.8 280.274C33.4 147.374 109.7 20.8744 199.2 -95.6256C199.5 -95.9256 199.9 -96.0256 200.3 -95.7256C200.6 -95.4256 200.7 -95.0256 200.4 -94.6256C111.1 21.6744 34.8 148.074 -26.3 280.974C-88.7 416.474 -135.5 559.074 -165.4 704.974C-165.5 705.374 -165.9 705.574 -166.2 705.574Z" fill="url(#paint14_linear)"/>
<path opacity="0.2" d="M-149.9 705.574C-150 705.574 -150 705.574 -150.1 705.574C-150.5 705.474 -150.8 705.074 -150.7 704.674C-120.4 558.474 -73.1 415.474 -9.99998 279.874C51.9 146.874 129 20.5744 219.4 -95.6256C219.7 -95.9256 220.1 -96.0256 220.5 -95.7256C220.9 -95.4256 220.9 -95.0256 220.6 -94.6256C130.3 21.4744 53.2 147.774 -8.59999 280.674C-71.6 416.074 -118.9 558.874 -149.1 704.974C-149.2 705.374 -149.5 705.574 -149.9 705.574Z" fill="url(#paint15_linear)"/>
<path opacity="0.1" d="M-133.5 705.574C-133.6 705.574 -133.6 705.574 -133.7 705.574C-134.1 705.474 -134.4 705.074 -134.3 704.674C-103.7 558.174 -55.8 415.074 8.00003 279.474C70.5 146.474 148.5 20.2744 239.8 -95.6256C240.1 -95.9256 240.5 -96.0256 240.9 -95.7256C241.2 -95.4256 241.3 -95.0256 241 -94.6256C149.8 21.0744 71.9 147.174 9.40002 280.074C-54.3 415.574 -102.2 558.574 -132.7 704.974C-132.9 705.374 -133.2 705.574 -133.5 705.574Z" fill="url(#paint16_linear)"/>
</g>
<defs>
<linearGradient id="paint0_linear" x1="412.91" y1="431.035" x2="928.96" y2="431.035" gradientUnits="userSpaceOnUse">
<stop stop-color="var(--gray-4, #bfbfc0)"/>
<stop offset="1" stop-color="var(--gray-4, #bfbfc0)" stop-opacity="0"/>
</linearGradient>
<linearGradient id="paint1_linear" x1="429.179" y1="439.17" x2="928.96" y2="439.17" gradientUnits="userSpaceOnUse">
<stop stop-color="var(--gray-4, #bfbfc0)"/>
<stop offset="1" stop-color="var(--gray-4, #bfbfc0)" stop-opacity="0"/>
</linearGradient>
<linearGradient id="paint2_linear" x1="445.459" y1="447.31" x2="928.96" y2="447.31" gradientUnits="userSpaceOnUse">
<stop stop-color="var(--gray-4, #bfbfc0)"/>
<stop offset="1" stop-color="var(--gray-4, #bfbfc0)" stop-opacity="0"/>
</linearGradient>
<linearGradient id="paint3_linear" x1="461.79" y1="455.474" x2="928.96" y2="455.474" gradientUnits="userSpaceOnUse">
<stop stop-color="var(--gray-4, #bfbfc0)"/>
<stop offset="1" stop-color="var(--gray-4, #bfbfc0)" stop-opacity="0"/>
</linearGradient>
<linearGradient id="paint4_linear" x1="478.12" y1="463.64" x2="928.96" y2="463.64" gradientUnits="userSpaceOnUse">
<stop stop-color="var(--gray-4, #bfbfc0)"/>
<stop offset="1" stop-color="var(--gray-4, #bfbfc0)" stop-opacity="0"/>
</linearGradient>
<linearGradient id="paint5_linear" x1="494.46" y1="471.81" x2="928.96" y2="471.81" gradientUnits="userSpaceOnUse">
<stop stop-color="var(--gray-4, #bfbfc0)"/>
<stop offset="1" stop-color="var(--gray-4, #bfbfc0)" stop-opacity="0"/>
</linearGradient>
<linearGradient id="paint6_linear" x1="-273.9" y1="251.215" x2="42.1405" y2="251.215" gradientUnits="userSpaceOnUse">
<stop stop-color="var(--gray-4, #bfbfc0)" stop-opacity="0.2"/>
<stop offset="1" stop-color="var(--gray-4, #bfbfc0)"/>
</linearGradient>
<linearGradient id="paint7_linear" x1="-273.9" y1="286.915" x2="61.67" y2="286.915" gradientUnits="userSpaceOnUse">
<stop stop-color="var(--gray-4, #bfbfc0)" stop-opacity="0.2"/>
<stop offset="1" stop-color="var(--gray-4, #bfbfc0)"/>
</linearGradient>
<linearGradient id="paint8_linear" x1="-264.864" y1="304.825" x2="81.2705" y2="304.825" gradientUnits="userSpaceOnUse">
<stop stop-color="var(--gray-4, #bfbfc0)" stop-opacity="0.2"/>
<stop offset="1" stop-color="var(--gray-4, #bfbfc0)"/>
</linearGradient>
<linearGradient id="paint9_linear" x1="-248.562" y1="304.825" x2="100.96" y2="304.825" gradientUnits="userSpaceOnUse">
<stop stop-color="var(--gray-4, #bfbfc0)" stop-opacity="0.2"/>
<stop offset="1" stop-color="var(--gray-4, #bfbfc0)"/>
</linearGradient>
<linearGradient id="paint10_linear" x1="-232.253" y1="304.825" x2="120.721" y2="304.825" gradientUnits="userSpaceOnUse">
<stop stop-color="var(--gray-4, #bfbfc0)" stop-opacity="0.2"/>
<stop offset="1" stop-color="var(--gray-4, #bfbfc0)"/>
</linearGradient>
<linearGradient id="paint11_linear" x1="-215.941" y1="304.825" x2="140.6" y2="304.825" gradientUnits="userSpaceOnUse">
<stop stop-color="var(--gray-4, #bfbfc0)" stop-opacity="0.2"/>
<stop offset="1" stop-color="var(--gray-4, #bfbfc0)"/>
</linearGradient>
<linearGradient id="paint12_linear" x1="-199.611" y1="304.825" x2="160.491" y2="304.825" gradientUnits="userSpaceOnUse">
<stop stop-color="var(--gray-4, #bfbfc0)" stop-opacity="0.2"/>
<stop offset="1" stop-color="var(--gray-4, #bfbfc0)"/>
</linearGradient>
<linearGradient id="paint13_linear" x1="-183.279" y1="304.825" x2="180.511" y2="304.825" gradientUnits="userSpaceOnUse">
<stop stop-color="var(--gray-4, #bfbfc0)" stop-opacity="0.2"/>
<stop offset="1" stop-color="var(--gray-4, #bfbfc0)"/>
</linearGradient>
<linearGradient id="paint14_linear" x1="-166.955" y1="304.825" x2="200.6" y2="304.825" gradientUnits="userSpaceOnUse">
<stop stop-color="var(--gray-4, #bfbfc0)" stop-opacity="0.2"/>
<stop offset="1" stop-color="var(--gray-4, #bfbfc0)"/>
</linearGradient>
<linearGradient id="paint15_linear" x1="-150.628" y1="304.825" x2="220.83" y2="304.825" gradientUnits="userSpaceOnUse">
<stop stop-color="var(--gray-4, #bfbfc0)" stop-opacity="0.2"/>
<stop offset="1" stop-color="var(--gray-4, #bfbfc0)"/>
</linearGradient>
<linearGradient id="paint16_linear" x1="-134.262" y1="304.825" x2="241.141" y2="304.825" gradientUnits="userSpaceOnUse">
<stop stop-color="var(--gray-4, #bfbfc0)" stop-opacity="0.2"/>
<stop offset="1" stop-color="var(--gray-4, #bfbfc0)"/>
</linearGradient>
</defs>
</svg>
