<svg width="677" height="414" viewBox="0 0 677 414" fill="none" xmlns="http://www.w3.org/2000/svg">
<rect width="477.789" height="368.91" rx="2" fill="#1D1E23"/>
<rect y="42.271" width="477.789" height="326.639" rx="2" fill="url(#paint0_radial)"/>
<rect opacity="0.8" y="42.271" width="147.308" height="326.639" fill="black"/>
<path d="M0 2C0 0.895433 0.895431 0 2 0H475.789C476.894 0 477.789 0.895431 477.789 2V42.2709H0V2Z" fill="black"/>
<circle cx="30.5256" cy="21.0386" r="6.18775" fill="#1D1E23"/>
<circle cx="48.9788" cy="21.0386" r="6.18775" fill="#1D1E23"/>
<circle cx="66.9124" cy="21.0386" r="6.18775" fill="#1D1E23"/>
<rect x="24.3379" y="114.003" width="81.9799" height="11.5284" rx="5.76421" fill="#1D1E23"/>
<rect x="24.3379" y="138.341" width="66.6087" height="8.96656" rx="4.48328" fill="#1D1E23"/>
<rect x="178.05" y="114.003" width="66.6087" height="11.5284" rx="5.76421" fill="#1D1E23"/>
<path d="M32.5942 54.8359L25.8271 58.7391V58.7421V68.1163L28.369 69.5839V60.2067L32.5942 57.7682V54.8359Z" fill="#4C4C53"/>
<path d="M35.2955 54.8359V62.3034H32.5941V59.5169L30.0508 60.9846V70.5517L32.5941 72.0224V64.5763H35.2955V67.3445L37.8373 65.8768V56.3036L35.2955 54.8359Z" fill="#4C4C53"/>
<path d="M35.2954 72.0253L42.0624 68.1222V68.1192V58.745L39.5191 57.2773V66.6546L35.2954 69.0931V72.0253Z" fill="#4C4C53"/>
<rect x="56.3613" y="324.077" width="65.3278" height="5.12375" rx="2.56187" fill="#1D1E23"/>
<circle cx="33.945" cy="327.279" r="13.4498" fill="#1D1E23"/>
<rect x="170.365" y="67.8896" width="176.769" height="98.6321" fill="url(#paint1_linear)"/>
<rect x="170.365" y="67.8896" width="176.769" height="98.6321" fill="url(#paint2_radial)"/>
<g opacity="0.4" clip-path="url(#clip0)">
<path d="M344.647 67.8896H344.189C344.189 70.2089 346.083 72.1141 348.435 72.1141V71.6585C346.333 71.6378 344.647 69.9604 344.647 67.8896ZM340.63 67.8896H340.172C340.172 72.4247 343.877 76.09 348.414 76.09V75.6344C344.127 75.6344 340.63 72.1555 340.63 67.8896ZM336.633 67.8896H336.175C336.175 74.6197 341.67 80.0867 348.435 80.0867V79.6311C341.92 79.6104 336.633 74.3505 336.633 67.8896ZM332.616 67.8896H332.158C332.158 76.8148 339.443 84.0626 348.414 84.0626V83.607C339.714 83.607 332.616 76.5456 332.616 67.8896ZM328.619 67.8896H328.161C328.161 79.0098 337.258 88.0592 348.435 88.0592V87.6036C337.507 87.5829 328.619 78.7406 328.619 67.8896ZM324.602 67.8896H324.144C324.144 81.2049 335.03 92.0352 348.414 92.0352V91.5796C335.301 91.5796 324.602 80.9357 324.602 67.8896ZM320.605 67.8896H320.147C320.147 83.3999 332.824 96.0111 348.414 96.0111V95.5555C333.074 95.5555 320.605 83.1514 320.605 67.8896ZM316.609 67.8896H316.151C316.151 85.595 330.638 100.008 348.435 100.008V99.5522C330.867 99.5314 316.609 85.3465 316.609 67.8896Z" fill="#DC477D"/>
<path d="M308.595 67.8896H308.137C308.137 89.9851 326.205 107.98 348.435 107.98V107.525C326.455 107.504 308.595 89.7366 308.595 67.8896ZM304.578 67.8896H304.12C304.12 92.2008 323.998 111.956 348.415 111.956V111.501C324.248 111.501 304.578 91.9316 304.578 67.8896ZM314.59 101.54C305.556 92.5529 300.581 80.6043 300.581 67.8896H300.123C300.123 80.7286 305.14 92.8013 314.278 101.871C323.416 110.942 335.53 115.953 348.435 115.953V115.497C335.634 115.477 323.624 110.527 314.59 101.54ZM314.59 101.54C305.556 92.5529 300.581 80.6043 300.581 67.8896H300.123C300.123 80.7286 305.14 92.8013 314.278 101.871C323.416 110.942 335.53 115.953 348.435 115.953V115.497C335.634 115.477 323.624 110.527 314.59 101.54ZM311.759 104.356C301.955 94.6029 296.564 81.6605 296.564 67.8896H296.106C296.106 81.7847 301.539 94.8514 311.426 104.688C321.313 114.524 334.448 119.929 348.415 119.929V119.473C334.573 119.473 321.542 114.11 311.759 104.356ZM308.928 107.173C298.375 96.6737 292.567 82.7373 292.567 67.8896H292.109C292.109 82.8615 297.959 96.9222 308.595 107.504C319.232 118.086 333.365 123.905 348.415 123.905V123.449C333.49 123.449 319.481 117.672 308.928 107.173ZM306.097 109.989C294.795 98.7445 288.571 83.7934 288.571 67.8896H288.113C288.113 83.9176 294.378 98.993 305.785 110.32C317.171 121.648 332.324 127.901 348.435 127.901V127.446C332.429 127.425 317.4 121.233 306.097 109.989ZM303.266 112.805C291.194 100.815 284.554 84.8702 284.554 67.8896H284.096C284.096 84.9737 290.777 101.064 302.933 113.137C315.089 125.23 331.242 131.877 348.415 131.877V131.422C331.346 131.422 315.318 124.816 303.266 112.805ZM300.436 115.622C287.613 102.886 280.557 85.9263 280.557 67.8896H280.099C280.099 86.0505 287.197 103.114 300.103 115.953C313.008 128.792 330.181 135.853 348.415 135.853V135.398C330.285 135.398 313.237 128.378 300.436 115.622Z" fill="#DC477D"/>
</g>
<path d="M207.036 128.454C204.261 128.456 201.527 127.781 199.071 126.487C196.616 125.193 194.513 123.319 192.946 121.029C191.379 118.738 190.394 116.099 190.078 113.342C189.762 110.584 190.124 107.791 191.132 105.205C192.14 102.619 193.764 100.318 195.862 98.5018C197.961 96.6857 200.472 95.4092 203.176 94.7832C205.88 94.1572 208.696 94.2006 211.379 94.9096C214.063 95.6187 216.533 96.9719 218.575 98.8519L214.527 103.086C212.918 101.633 210.922 100.677 208.781 100.335C206.639 99.9937 204.445 100.28 202.464 101.161C200.482 102.041 198.798 103.477 197.617 105.295C196.435 107.113 195.806 109.235 195.806 111.404C195.806 113.572 196.435 115.694 197.617 117.512C198.798 119.33 200.482 120.766 202.464 121.646C204.445 122.527 206.639 122.813 208.781 122.472C210.922 122.13 212.918 121.174 214.527 119.721L218.575 123.955C215.43 126.851 211.311 128.458 207.036 128.454Z" fill="#E03875"/>
<path d="M220.76 119.924C220.483 119.924 220.213 119.842 219.983 119.688C219.753 119.534 219.574 119.316 219.468 119.061C219.362 118.805 219.335 118.524 219.389 118.253C219.443 117.982 219.576 117.733 219.771 117.537C219.967 117.342 220.216 117.208 220.487 117.155C220.758 117.101 221.039 117.128 221.295 117.234C221.55 117.34 221.768 117.519 221.922 117.749C222.076 117.979 222.158 118.249 222.158 118.526C222.157 118.896 222.009 119.251 221.747 119.513C221.485 119.775 221.13 119.923 220.76 119.924Z" fill="#E03875"/>
<path d="M206.927 115.095C206.196 115.098 205.48 114.883 204.87 114.479C204.26 114.075 203.784 113.498 203.502 112.823C203.22 112.148 203.145 111.404 203.286 110.686C203.427 109.968 203.778 109.308 204.294 108.79C204.811 108.272 205.47 107.919 206.187 107.775C206.905 107.632 207.649 107.704 208.325 107.984C209.001 108.264 209.579 108.738 209.985 109.346C210.391 109.955 210.608 110.67 210.607 111.402C210.606 112.379 210.218 113.315 209.529 114.007C208.839 114.699 207.904 115.09 206.927 115.095Z" fill="#E03875"/>
<path d="M222.363 115.16C222.087 115.16 221.816 115.078 221.587 114.924C221.357 114.771 221.178 114.552 221.072 114.297C220.966 114.041 220.938 113.76 220.992 113.489C221.046 113.218 221.179 112.969 221.375 112.773C221.57 112.578 221.819 112.445 222.091 112.391C222.362 112.337 222.643 112.365 222.898 112.47C223.154 112.576 223.372 112.755 223.526 112.985C223.679 113.215 223.761 113.485 223.761 113.762C223.76 114.132 223.613 114.488 223.351 114.749C223.089 115.011 222.734 115.159 222.363 115.16Z" fill="#E03875"/>
<path d="M218.207 114.985C217.93 114.985 217.659 114.903 217.429 114.749C217.198 114.594 217.019 114.375 216.914 114.119C216.809 113.862 216.782 113.58 216.837 113.309C216.892 113.037 217.027 112.788 217.224 112.593C217.421 112.399 217.672 112.267 217.944 112.214C218.216 112.162 218.498 112.192 218.753 112.3C219.008 112.409 219.225 112.59 219.377 112.822C219.529 113.054 219.608 113.326 219.605 113.603C219.601 113.971 219.452 114.323 219.19 114.581C218.928 114.84 218.575 114.985 218.207 114.985Z" fill="#E03875"/>
<path d="M222.363 110.449C222.087 110.449 221.816 110.367 221.587 110.214C221.357 110.06 221.178 109.842 221.072 109.586C220.966 109.331 220.938 109.05 220.992 108.779C221.046 108.508 221.179 108.259 221.375 108.063C221.57 107.868 221.819 107.734 222.091 107.68C222.362 107.626 222.643 107.654 222.898 107.76C223.154 107.866 223.372 108.045 223.526 108.275C223.679 108.505 223.761 108.775 223.761 109.051C223.76 109.422 223.613 109.777 223.351 110.039C223.089 110.301 222.734 110.449 222.363 110.449Z" fill="#E03875"/>
<path d="M218.207 110.608C217.931 110.608 217.66 110.526 217.43 110.373C217.2 110.219 217.021 110.001 216.915 109.745C216.81 109.49 216.782 109.209 216.836 108.938C216.89 108.667 217.023 108.417 217.219 108.222C217.414 108.026 217.663 107.893 217.934 107.839C218.205 107.785 218.487 107.813 218.742 107.919C218.997 108.025 219.216 108.204 219.369 108.434C219.523 108.664 219.605 108.934 219.605 109.21C219.605 109.581 219.458 109.937 219.195 110.199C218.933 110.461 218.578 110.608 218.207 110.608Z" fill="#E03875"/>
<path d="M220.84 105.748C220.564 105.748 220.293 105.667 220.063 105.514C219.833 105.36 219.653 105.142 219.547 104.887C219.44 104.632 219.412 104.35 219.466 104.079C219.52 103.808 219.652 103.558 219.848 103.362C220.043 103.167 220.292 103.033 220.564 102.979C220.835 102.925 221.116 102.952 221.372 103.058C221.627 103.164 221.846 103.343 221.999 103.573C222.153 103.803 222.235 104.073 222.235 104.35C222.235 104.72 222.088 105.075 221.827 105.337C221.565 105.599 221.211 105.747 220.84 105.748Z" fill="#E03875"/>
<g opacity="0.15" filter="url(#filter0_f)">
<rect x="296" y="114" width="325" height="244" fill="black"/>
</g>
<path d="M284 123C284 121.895 284.895 121 286 121H603C604.105 121 605 121.895 605 123V348C605 349.105 604.105 350 603 350H286C284.895 350 284 349.105 284 348V123Z" fill="black"/>
<rect x="307.425" y="135.779" width="84.5418" height="84.5418" rx="2" fill="black"/>
<rect x="307" y="261" width="60" height="60" rx="2" fill="#1D1E23"/>
<circle cx="307.955" cy="261.952" r="5.76421" fill="#00BC7F"/>
<g clip-path="url(#clip1)">
<path d="M328.251 300.246L325.278 300.923V281.709L328.251 282.387V300.246Z" fill="#76767D"/>
<path d="M331.96 301.38L328.251 302.432V280.226L331.96 281.277V301.38ZM336.718 302.546L331.96 304.284V278.375L336.718 280.112V302.546ZM349.439 300.304L336.718 306.653V276L349.439 282.349V300.304Z" fill="#76767D"/>
<path d="M334.183 277.266L336.719 276V306.653L334.183 305.388V277.266ZM329.998 279.354L331.961 278.374V304.279L329.998 303.299V279.354ZM326.689 281.006L328.252 280.225V302.427L326.689 301.647V281.006ZM325.28 281.709L324.004 282.345V300.308L325.28 300.944V281.709Z" fill="#545459"/>
</g>
<rect x="379" y="261" width="60" height="60" rx="2" fill="#1D1E23"/>
<circle cx="379.935" cy="261.952" r="5.76421" fill="#00BC7F"/>
<path d="M408.578 288.576L408.784 285.089C408.538 285.118 408.291 285.158 408.045 285.211C406.694 285.505 405.522 286.144 404.606 287.008L407.587 289.034L407.593 289.032C407.694 289.102 407.818 289.144 407.953 289.144C408.281 289.144 408.549 288.895 408.563 288.583L408.578 288.576Z" fill="#76767D"/>
<path d="M414.673 287.009C413.555 285.96 412.097 285.275 410.521 285.089L410.726 288.57L410.729 288.571C410.735 288.691 410.779 288.81 410.863 288.911C411.067 289.157 411.438 289.203 411.701 289.019L411.711 289.023L414.673 287.009Z" fill="#76767D"/>
<path d="M406.247 290.645L403.525 288.31C402.718 289.572 402.335 291.086 402.512 292.643L406.001 291.677L406.004 291.666C406.125 291.634 406.237 291.567 406.321 291.466C406.526 291.219 406.49 290.864 406.244 290.659L406.247 290.645Z" fill="#76767D"/>
<path d="M416.651 290.403C416.469 289.642 416.162 288.94 415.758 288.312L413.051 290.635L413.053 290.642C412.958 290.721 412.889 290.827 412.859 290.953C412.786 291.26 412.979 291.566 413.293 291.649L413.295 291.663L416.802 292.632C416.876 291.906 416.831 291.155 416.651 290.403Z" fill="#76767D"/>
<path d="M410.208 290.825H409.093L408.399 291.654L408.647 292.691L409.651 293.154L410.652 292.693L410.901 291.656L410.208 290.825Z" fill="#76767D"/>
<path d="M412.808 293.678C412.762 293.67 412.715 293.666 412.668 293.668C412.589 293.672 412.509 293.691 412.434 293.726C412.138 293.863 412.009 294.199 412.138 294.486L412.133 294.492L413.534 297.737C414.884 296.912 415.895 295.679 416.423 294.256L412.814 293.671L412.808 293.678Z" fill="#76767D"/>
<path d="M407.193 294.138C407.129 293.869 406.882 293.686 406.607 293.682C406.567 293.682 406.527 293.685 406.487 293.692L406.481 293.685L402.903 294.267C403.455 295.733 404.488 296.927 405.783 297.724L407.17 294.512L407.159 294.499C407.209 294.389 407.223 294.264 407.193 294.138Z" fill="#76767D"/>
<path d="M409.915 295.148C409.822 295.105 409.725 295.086 409.629 295.09C409.418 295.097 409.218 295.21 409.112 295.399H409.109L407.35 298.45C408.568 298.848 409.912 298.937 411.261 298.643C411.502 298.59 411.737 298.528 411.966 298.454L410.202 295.398H410.189C410.13 295.292 410.036 295.204 409.915 295.148Z" fill="#76767D"/>
<path fill-rule="evenodd" clip-rule="evenodd" d="M408.688 276.084C408.954 275.963 409.242 275.893 409.537 275.878C409.907 275.861 410.276 275.931 410.61 276.084L422.19 281.387C422.49 281.524 422.753 281.724 422.96 281.971C423.168 282.219 423.314 282.507 423.388 282.816L426.249 294.733C426.323 295.042 426.323 295.362 426.249 295.671C426.175 295.979 426.028 296.268 425.821 296.516L417.81 306.073C417.602 306.32 417.339 306.519 417.039 306.656C416.74 306.793 416.411 306.864 416.079 306.864L403.227 306.867C402.895 306.867 402.566 306.796 402.267 306.658C401.967 306.521 401.704 306.322 401.496 306.074L393.482 296.518C393.437 296.465 393.395 296.409 393.356 296.351C393.195 296.115 393.086 295.85 393.034 295.572C392.982 295.295 392.99 295.011 393.056 294.736L395.912 282.819C395.986 282.51 396.132 282.222 396.34 281.974C396.547 281.727 396.81 281.527 397.11 281.39L408.688 276.084ZM408.958 280.673C408.958 280.265 409.269 279.934 409.651 279.934C410.034 279.934 410.344 280.265 410.344 280.673C410.344 280.693 410.345 280.716 410.345 280.74C410.346 280.783 410.347 280.827 410.346 280.862C410.34 281.017 410.314 281.148 410.289 281.281C410.275 281.35 410.262 281.42 410.251 281.494L410.247 281.529C410.19 281.977 410.143 282.351 410.173 282.699C410.196 282.854 410.281 282.927 410.361 282.998C410.374 283.009 410.387 283.02 410.399 283.032C410.401 283.08 410.409 283.24 410.415 283.328C412.619 283.516 414.665 284.482 416.168 285.994L416.432 285.814C416.442 285.814 416.455 285.815 416.468 285.816C416.567 285.823 416.734 285.836 416.852 285.77C417.155 285.574 417.431 285.305 417.762 284.983L417.787 284.959C417.839 284.906 417.887 284.853 417.934 284.801C418.028 284.698 418.12 284.597 418.244 284.494C418.275 284.469 418.317 284.437 418.356 284.408C418.371 284.397 418.385 284.386 418.398 284.376C418.731 284.122 419.193 284.149 419.432 284.436C419.671 284.723 419.594 285.162 419.262 285.416C419.246 285.428 419.229 285.442 419.211 285.455C419.176 285.483 419.139 285.513 419.109 285.534C418.98 285.625 418.857 285.688 418.733 285.751C418.667 285.784 418.601 285.818 418.533 285.856L418.533 285.856C418.118 286.102 417.775 286.305 417.502 286.551C417.391 286.665 417.383 286.774 417.376 286.879C417.375 286.895 417.374 286.911 417.372 286.927C417.354 286.943 417.313 286.978 417.267 287.017C417.218 287.059 417.163 287.106 417.126 287.139C417.724 287.991 418.171 288.959 418.425 290.017C418.676 291.065 418.715 292.113 418.57 293.12L418.85 293.198C418.856 293.206 418.862 293.215 418.87 293.226C418.925 293.304 419.021 293.439 419.149 293.486C419.502 293.593 419.899 293.633 420.377 293.681L420.391 293.682C420.47 293.689 420.544 293.691 420.618 293.694C420.759 293.7 420.898 293.705 421.056 293.734C421.092 293.74 421.139 293.751 421.183 293.762C421.209 293.768 421.235 293.774 421.258 293.779C421.666 293.874 421.928 294.234 421.844 294.588C421.76 294.943 421.361 295.159 420.95 295.074C420.948 295.074 420.946 295.074 420.945 295.073C420.943 295.073 420.941 295.073 420.939 295.073C420.935 295.072 420.931 295.07 420.926 295.068C420.905 295.064 420.883 295.06 420.86 295.055C420.82 295.048 420.779 295.04 420.747 295.032C420.591 294.991 420.463 294.939 420.334 294.885C420.266 294.857 420.198 294.828 420.125 294.801L420.104 294.794C419.655 294.64 419.281 294.511 418.917 294.461C418.754 294.448 418.661 294.511 418.571 294.57C418.557 294.58 418.543 294.589 418.529 294.598C418.478 294.589 418.322 294.562 418.232 294.549C417.568 296.55 416.154 298.283 414.237 299.369C414.248 299.393 414.261 299.427 414.275 299.462C414.303 299.536 414.335 299.617 414.353 299.637C414.347 299.652 414.34 299.668 414.334 299.683C414.293 299.78 414.251 299.88 414.299 300.029C414.434 300.363 414.652 300.69 414.914 301.084C414.957 301.146 415.001 301.204 415.045 301.26C415.128 301.369 415.21 301.477 415.286 301.614C415.305 301.648 415.328 301.696 415.35 301.739C415.359 301.758 415.368 301.777 415.376 301.793C415.554 302.158 415.423 302.579 415.081 302.737C414.737 302.896 414.308 302.728 414.123 302.361C414.115 302.345 414.106 302.328 414.097 302.31C414.076 302.269 414.053 302.225 414.037 302.19C413.972 302.047 413.935 301.918 413.898 301.786C413.879 301.719 413.859 301.651 413.836 301.581L413.83 301.563C413.675 301.129 413.547 300.769 413.361 300.463C413.269 300.334 413.159 300.302 413.055 300.272C413.038 300.267 413.022 300.262 413.007 300.258C412.995 300.239 412.968 300.191 412.938 300.139C412.91 300.09 412.88 300.038 412.859 300.002C412.476 300.141 412.08 300.256 411.67 300.346C409.871 300.737 408.071 300.578 406.463 299.986L406.306 300.259C406.189 300.289 406.077 300.319 406.008 300.398C405.83 300.601 405.728 300.891 405.619 301.198C405.573 301.328 405.526 301.461 405.471 301.592C405.447 301.664 405.428 301.733 405.409 301.801C405.372 301.932 405.336 302.06 405.271 302.202C405.256 302.234 405.235 302.276 405.214 302.315C405.204 302.335 405.194 302.354 405.185 302.371V302.372C405.185 302.373 405.184 302.373 405.184 302.374C404.999 302.74 404.571 302.907 404.227 302.748C403.885 302.59 403.754 302.17 403.933 301.804C403.942 301.785 403.953 301.763 403.964 301.74C403.983 301.699 404.004 301.657 404.021 301.625C404.097 301.487 404.18 301.379 404.264 301.269C404.307 301.212 404.35 301.156 404.393 301.094C404.655 300.7 404.886 300.347 405.02 300.013C405.054 299.902 405.004 299.749 404.959 299.637L405.085 299.347C403.24 298.299 401.783 296.628 401.088 294.561L400.786 294.611C400.777 294.606 400.766 294.601 400.755 294.594C400.668 294.546 400.525 294.466 400.388 294.476C400.023 294.527 399.649 294.656 399.199 294.81L399.179 294.817C399.107 294.843 399.04 294.871 398.974 294.899C398.843 294.952 398.714 295.005 398.557 295.046C398.522 295.055 398.475 295.064 398.431 295.073C398.413 295.077 398.395 295.081 398.378 295.084C398.376 295.085 398.374 295.085 398.372 295.086C398.369 295.087 398.367 295.088 398.365 295.088C398.362 295.089 398.357 295.089 398.354 295.09C397.943 295.175 397.545 294.959 397.46 294.604C397.376 294.249 397.638 293.889 398.046 293.795C398.049 293.794 398.054 293.792 398.057 293.792C398.058 293.792 398.059 293.791 398.059 293.791C398.061 293.791 398.062 293.791 398.063 293.79C398.08 293.786 398.099 293.782 398.118 293.777C398.163 293.767 398.211 293.756 398.248 293.749C398.406 293.72 398.545 293.715 398.686 293.71C398.76 293.707 398.834 293.704 398.913 293.698L398.928 293.696C399.406 293.648 399.802 293.609 400.155 293.502C400.255 293.463 400.351 293.342 400.425 293.249C400.435 293.236 400.444 293.225 400.453 293.214L400.743 293.133C400.418 290.973 400.968 288.853 402.157 287.137L401.935 286.947C401.933 286.938 401.932 286.927 401.93 286.916C401.916 286.823 401.891 286.66 401.796 286.563C401.523 286.318 401.18 286.114 400.765 285.869C400.698 285.831 400.632 285.797 400.567 285.764C400.443 285.701 400.32 285.638 400.191 285.547C400.161 285.525 400.123 285.496 400.088 285.468C400.074 285.457 400.06 285.446 400.047 285.436C400.045 285.435 400.044 285.434 400.042 285.432C400.04 285.431 400.038 285.43 400.037 285.429C399.704 285.174 399.628 284.736 399.866 284.449C400 284.287 400.206 284.207 400.419 284.214C400.584 284.22 400.756 284.278 400.901 284.389C400.914 284.399 400.928 284.409 400.943 284.42C400.982 284.45 401.025 284.482 401.055 284.507C401.178 284.609 401.27 284.709 401.363 284.812C401.41 284.864 401.458 284.918 401.511 284.971L401.524 284.983C401.86 285.311 402.139 285.583 402.446 285.781C402.587 285.86 402.7 285.843 402.808 285.826C402.825 285.824 402.841 285.821 402.857 285.819C402.897 285.847 403.031 285.94 403.108 285.99C404.287 284.789 405.837 283.901 407.636 283.509C408.054 283.418 408.473 283.357 408.889 283.324L408.905 283.043C408.997 282.957 409.101 282.834 409.13 282.699C409.16 282.344 409.112 281.963 409.054 281.503L409.053 281.494C409.042 281.42 409.029 281.35 409.015 281.281C408.99 281.148 408.964 281.017 408.958 280.862C408.957 280.829 408.958 280.787 408.959 280.746C408.959 280.727 408.96 280.709 408.96 280.691C408.96 280.688 408.959 280.685 408.959 280.682C408.959 280.679 408.958 280.676 408.958 280.673Z" fill="#76767D"/>
<rect x="451" y="261" width="60" height="60" rx="2" fill="#1D1E23"/>
<g clip-path="url(#clip2)">
<path d="M491.484 297.273V299.897C491.484 301.951 486.515 303.619 480.809 303.619C475.105 303.619 470.135 301.951 470.135 299.897V297.273C472.716 299.128 477.612 299.681 480.809 299.681C484.018 299.681 488.909 299.123 491.484 297.273ZM480.809 293.634C477.6 293.634 472.709 293.076 470.135 291.226V293.824C470.135 295.88 475.105 297.546 480.809 297.546C486.515 297.546 491.484 295.879 491.484 293.824V291.226C488.903 293.081 484.006 293.634 480.809 293.634ZM480.809 278C475.105 278 470.135 279.667 470.135 281.723C470.135 283.779 475.105 285.445 480.809 285.445C486.515 285.445 491.484 283.778 491.484 281.723C491.484 279.667 486.515 278 480.809 278V278ZM480.809 287.58C477.6 287.58 472.709 287.022 470.135 285.172V287.777C470.135 289.833 475.105 291.499 480.809 291.499C486.515 291.499 491.484 289.832 491.484 287.777V285.172C488.903 287.027 484.006 287.58 480.809 287.58Z" fill="#76767D"/>
</g>
<rect x="523" y="261" width="59" height="60" rx="2" fill="#1D1E23"/>
<path fill-rule="evenodd" clip-rule="evenodd" d="M551.809 292.944C552.988 292.944 553.944 291.989 553.944 290.809C553.944 289.63 552.988 288.675 551.809 288.675C550.63 288.675 549.674 289.63 549.674 290.809C549.674 291.989 550.63 292.944 551.809 292.944Z" fill="#76767D"/>
<path fill-rule="evenodd" clip-rule="evenodd" d="M560.349 292.944C561.528 292.944 562.484 291.989 562.484 290.809C562.484 289.63 561.528 288.675 560.349 288.675C559.17 288.675 558.214 289.63 558.214 290.809C558.214 291.989 559.17 292.944 560.349 292.944Z" fill="#76767D"/>
<path fill-rule="evenodd" clip-rule="evenodd" d="M543.27 292.944C544.449 292.944 545.405 291.989 545.405 290.809C545.405 289.63 544.449 288.675 543.27 288.675C542.091 288.675 541.135 289.63 541.135 290.809C541.135 291.989 542.091 292.944 543.27 292.944Z" fill="#76767D"/>
<path d="M418.056 175H419.412L416.088 166.6H414.42L411.096 175H412.452L413.256 172.96H417.252L418.056 175ZM413.7 171.808L415.26 167.836L416.808 171.808H413.7ZM430.012 166.6L428.068 173.176L426.124 166.6H424.948L423.004 173.188L421.06 166.6H419.692L422.284 175H423.652L425.536 168.76L427.408 175H428.776L431.38 166.6H430.012ZM436.151 175.156C438.119 175.156 439.439 174.016 439.439 172.612C439.439 171.316 438.539 170.776 437.243 170.368L435.179 169.708C434.423 169.48 434.111 169.192 434.111 168.712C434.111 168.112 434.759 167.596 435.707 167.596C436.799 167.596 437.639 168.124 438.023 168.892L439.235 168.532C438.755 167.392 437.495 166.444 435.707 166.444C434.015 166.444 432.803 167.5 432.803 168.748C432.803 169.804 433.571 170.452 434.687 170.8L436.799 171.472C437.783 171.784 438.131 172.144 438.131 172.696C438.131 173.356 437.387 174.004 436.223 174.004C434.903 174.004 433.967 173.224 433.607 172.252L432.371 172.624C432.815 173.944 434.171 175.156 436.151 175.156ZM445.223 176.5H446.351V165.34H445.223V176.5ZM458.405 166.6L455.777 173.38L453.149 166.6H451.721L455.069 175H456.473L459.821 166.6H458.405ZM465.321 166.6H461.505V175H462.801V172.228H465.261C467.145 172.228 468.165 170.776 468.165 169.42C468.165 168.064 467.145 166.6 465.321 166.6ZM465.237 171.052H462.801V167.776H465.297C466.257 167.776 466.905 168.568 466.905 169.42C466.905 170.26 466.281 171.052 465.237 171.052ZM474.038 175.156C476.138 175.156 477.566 173.92 478.01 172.552L476.75 172.228C476.414 173.176 475.406 173.932 474.026 173.932C472.178 173.932 470.978 172.48 470.978 170.776C470.978 169.084 472.178 167.656 474.026 167.656C475.418 167.656 476.414 168.448 476.762 169.384L478.022 169.072C477.578 167.692 476.15 166.444 474.026 166.444C471.53 166.444 469.658 168.316 469.658 170.788C469.658 173.272 471.53 175.156 474.038 175.156Z" fill="white"/>
<path d="M186.08 269.7H183.128V276H184.352V274.074H186.026C187.475 274.074 188.267 272.949 188.267 271.887C188.267 270.843 187.466 269.7 186.08 269.7ZM185.99 272.976H184.352V270.816H186.044C186.647 270.816 187.07 271.338 187.07 271.896C187.07 272.445 186.656 272.976 185.99 272.976ZM194.219 270.816V269.7H189.575V276H194.21V274.884H190.781V273.336H193.76V272.256H190.781V270.816H194.219ZM200.392 270.816V269.7H195.748V276H200.383V274.884H196.954V273.336H199.933V272.256H196.954V270.816H200.392ZM205.918 276H207.34L205.774 273.669C206.665 273.363 207.151 272.58 207.151 271.752C207.151 270.753 206.359 269.7 204.991 269.7H201.922V276H203.146V273.795H204.487L205.918 276ZM203.146 270.807H204.955C205.54 270.807 205.954 271.248 205.954 271.752C205.954 272.274 205.549 272.715 204.91 272.715H203.146V270.807ZM208.72 276H209.971V269.7H208.72V276ZM215.862 269.7V273.786L212.694 269.7H211.677V276H212.91V271.905L216.078 276H217.095V269.7H215.862ZM225.091 272.499H221.878V273.561H223.813C223.705 274.344 223.057 274.974 221.995 274.974C220.582 274.974 219.799 273.966 219.799 272.832C219.799 271.698 220.627 270.735 221.86 270.735C222.832 270.735 223.417 271.176 223.732 271.824L224.875 271.5C224.479 270.447 223.408 269.574 221.851 269.574C219.979 269.574 218.548 270.987 218.548 272.841C218.548 274.704 219.97 276.126 221.905 276.126C223.795 276.126 225.091 274.911 225.091 273.129V272.499Z" fill="white"/>
<rect x="409" y="186" width="81.9799" height="8.96656" rx="4.48328" fill="#2A2B30"/>
<circle cx="452.196" cy="261.952" r="5.76421" fill="#00BC7F"/>
<circle cx="524.176" cy="261.952" r="5.76421" fill="#00BC7F"/>
<path d="M332.657 172.792C332.657 173.351 332.717 173.805 332.822 174.138C332.942 174.471 333.091 174.833 333.301 175.227C333.376 175.348 333.406 175.469 333.406 175.574C333.406 175.726 333.316 175.877 333.121 176.028L332.178 176.663C332.043 176.754 331.908 176.799 331.788 176.799C331.639 176.799 331.489 176.724 331.339 176.588C331.129 176.361 330.95 176.119 330.8 175.877C330.65 175.62 330.5 175.332 330.335 174.985C329.167 176.376 327.699 177.072 325.932 177.072C324.674 177.072 323.67 176.709 322.936 175.983C322.203 175.257 321.828 174.289 321.828 173.079C321.828 171.794 322.277 170.75 323.191 169.964C324.105 169.178 325.318 168.784 326.861 168.784C327.37 168.784 327.894 168.83 328.448 168.905C329.002 168.981 329.572 169.102 330.171 169.238V168.134C330.171 166.985 329.931 166.183 329.467 165.715C328.987 165.246 328.179 165.019 327.025 165.019C326.501 165.019 325.962 165.079 325.408 165.216C324.854 165.352 324.314 165.518 323.79 165.73C323.551 165.836 323.371 165.896 323.266 165.926C323.161 165.957 323.086 165.972 323.026 165.972C322.817 165.972 322.712 165.82 322.712 165.503V164.762C322.712 164.52 322.742 164.338 322.817 164.233C322.892 164.127 323.026 164.021 323.236 163.915C323.76 163.643 324.389 163.416 325.123 163.235C325.857 163.038 326.636 162.947 327.46 162.947C329.242 162.947 330.545 163.356 331.384 164.172C332.208 164.989 332.627 166.229 332.627 167.892V172.792H332.657ZM326.576 175.091C327.07 175.091 327.58 175 328.119 174.818C328.658 174.637 329.137 174.304 329.542 173.85C329.781 173.563 329.961 173.246 330.051 172.883C330.141 172.52 330.201 172.081 330.201 171.567V170.932C329.766 170.826 329.302 170.735 328.823 170.675C328.343 170.614 327.879 170.584 327.415 170.584C326.411 170.584 325.677 170.781 325.183 171.189C324.689 171.597 324.449 172.172 324.449 172.928C324.449 173.639 324.629 174.168 325.003 174.531C325.363 174.909 325.887 175.091 326.576 175.091ZM338.603 176.724C338.334 176.724 338.154 176.678 338.034 176.573C337.914 176.482 337.809 176.27 337.72 175.983L334.2 164.293C334.11 163.991 334.065 163.794 334.065 163.688C334.065 163.446 334.185 163.31 334.424 163.31H335.892C336.177 163.31 336.372 163.356 336.476 163.461C336.596 163.552 336.686 163.764 336.776 164.051L339.292 174.062L341.629 164.051C341.704 163.749 341.793 163.552 341.913 163.461C342.033 163.371 342.243 163.31 342.512 163.31H343.711C343.995 163.31 344.19 163.356 344.31 163.461C344.43 163.552 344.534 163.764 344.594 164.051L346.961 174.183L349.552 164.051C349.642 163.749 349.747 163.552 349.851 163.461C349.971 163.371 350.166 163.31 350.436 163.31H351.829C352.068 163.31 352.203 163.431 352.203 163.688C352.203 163.764 352.188 163.839 352.173 163.93C352.158 164.021 352.128 164.142 352.068 164.308L348.459 175.998C348.369 176.3 348.264 176.497 348.144 176.588C348.024 176.678 347.829 176.739 347.575 176.739H346.287C346.002 176.739 345.807 176.694 345.688 176.588C345.568 176.482 345.463 176.285 345.403 175.983L343.082 166.229L340.775 175.968C340.7 176.27 340.61 176.467 340.49 176.573C340.371 176.678 340.161 176.724 339.891 176.724H338.603ZM357.85 177.132C357.071 177.132 356.292 177.041 355.543 176.86C354.794 176.678 354.21 176.482 353.821 176.255C353.581 176.119 353.416 175.968 353.356 175.832C353.296 175.695 353.266 175.544 353.266 175.408V174.637C353.266 174.319 353.386 174.168 353.611 174.168C353.701 174.168 353.791 174.183 353.88 174.213C353.97 174.244 354.105 174.304 354.255 174.365C354.764 174.591 355.318 174.773 355.902 174.894C356.502 175.015 357.086 175.075 357.685 175.075C358.628 175.075 359.362 174.909 359.872 174.576C360.381 174.244 360.65 173.76 360.65 173.14C360.65 172.716 360.516 172.368 360.246 172.081C359.976 171.794 359.467 171.537 358.733 171.295L356.561 170.614C355.468 170.266 354.659 169.752 354.165 169.072C353.671 168.406 353.416 167.665 353.416 166.879C353.416 166.244 353.551 165.684 353.821 165.2C354.09 164.717 354.45 164.293 354.899 163.96C355.348 163.613 355.858 163.356 356.457 163.174C357.056 162.993 357.685 162.917 358.344 162.917C358.673 162.917 359.018 162.932 359.347 162.977C359.692 163.023 360.006 163.083 360.321 163.144C360.62 163.219 360.905 163.295 361.175 163.386C361.444 163.477 361.654 163.567 361.804 163.658C362.013 163.779 362.163 163.9 362.253 164.036C362.343 164.157 362.388 164.323 362.388 164.535V165.246C362.388 165.563 362.268 165.73 362.043 165.73C361.924 165.73 361.729 165.669 361.474 165.548C360.62 165.155 359.662 164.959 358.598 164.959C357.745 164.959 357.071 165.095 356.606 165.382C356.142 165.669 355.902 166.108 355.902 166.728C355.902 167.151 356.052 167.514 356.352 167.802C356.651 168.089 357.206 168.376 357.999 168.633L360.126 169.314C361.205 169.662 361.983 170.146 362.448 170.766C362.912 171.386 363.137 172.096 363.137 172.883C363.137 173.533 363.002 174.123 362.747 174.637C362.478 175.151 362.118 175.605 361.654 175.968C361.19 176.346 360.635 176.618 359.991 176.814C359.317 177.026 358.613 177.132 357.85 177.132Z" fill="white"/>
<path fill-rule="evenodd" clip-rule="evenodd" d="M360.68 184.482C355.752 188.156 348.593 190.107 342.437 190.107C333.81 190.107 326.037 186.886 320.165 181.533C319.701 181.109 320.12 180.535 320.675 180.867C327.025 184.588 334.858 186.841 342.961 186.841C348.428 186.841 354.434 185.691 359.961 183.332C360.785 182.954 361.489 183.877 360.68 184.482Z" fill="#FF9900"/>
<path fill-rule="evenodd" clip-rule="evenodd" d="M362.732 182.122C362.103 181.306 358.569 181.729 356.966 181.926C356.487 181.986 356.412 181.563 356.846 181.245C359.662 179.249 364.29 179.824 364.829 180.489C365.368 181.17 364.68 185.842 362.043 188.081C361.639 188.428 361.25 188.247 361.429 187.793C362.028 186.296 363.361 182.924 362.732 182.122Z" fill="#FF9900"/>
<line x1="307" y1="240.5" x2="582" y2="240.5" stroke="#323339"/>
<path d="M203.028 176.769V250.423C203.028 250.423 224.711 250.423 270.277 250.423" stroke="#CA2171" stroke-linecap="round" stroke-linejoin="round" stroke-dasharray="2 3"/>
<circle cx="203.028" cy="165.881" r="4.48328" fill="#CA2171"/>
<rect x="189" y="230" width="28.7492" height="28.7492" rx="1" fill="black"/>
<path fill-rule="evenodd" clip-rule="evenodd" d="M197.385 244.709C197.385 244.157 197.833 243.709 198.385 243.709H208.364C208.916 243.709 209.364 244.157 209.364 244.709V250.029C209.364 250.582 208.916 251.029 208.364 251.029H198.385C197.833 251.029 197.385 250.582 197.385 250.029V244.709Z" stroke="white" stroke-width="0.8" stroke-linecap="round" stroke-linejoin="round"/>
<path d="M200.047 243.709V241.047C200.047 239.209 201.537 237.72 203.374 237.72C205.212 237.72 206.702 239.209 206.702 241.047V243.709" stroke="white" stroke-width="0.8" stroke-linecap="round" stroke-linejoin="round"/>
<path d="M367.909 63.7L365.848 66.679L363.787 63.7H362.608V70H363.841V65.851L365.848 68.632L367.855 65.851V70H369.088V63.7H367.909ZM373.846 70.126C375.745 70.126 377.149 68.704 377.149 66.841C377.149 64.987 375.745 63.574 373.846 63.574C371.938 63.574 370.534 64.987 370.534 66.841C370.534 68.704 371.938 70.126 373.846 70.126ZM373.846 68.983C372.595 68.983 371.785 68.047 371.785 66.841C371.785 65.662 372.595 64.717 373.846 64.717C375.088 64.717 375.907 65.662 375.907 66.841C375.907 68.047 375.088 68.983 373.846 68.983ZM382.78 63.7V67.786L379.612 63.7H378.595V70H379.828V65.905L382.996 70H384.013V63.7H382.78ZM385.726 70H386.977V63.7H385.726V70ZM393.696 63.7H388.233V64.816H390.348V70H391.581V64.816H393.696V63.7ZM397.557 70.126C399.456 70.126 400.86 68.704 400.86 66.841C400.86 64.987 399.456 63.574 397.557 63.574C395.649 63.574 394.245 64.987 394.245 66.841C394.245 68.704 395.649 70.126 397.557 70.126ZM397.557 68.983C396.306 68.983 395.496 68.047 395.496 66.841C395.496 65.662 396.306 64.717 397.557 64.717C398.799 64.717 399.618 65.662 399.618 66.841C399.618 68.047 398.799 68.983 397.557 68.983ZM406.301 70H407.723L406.157 67.669C407.048 67.363 407.534 66.58 407.534 65.752C407.534 64.753 406.742 63.7 405.374 63.7H402.305V70H403.529V67.795H404.87L406.301 70ZM403.529 64.807H405.338C405.923 64.807 406.337 65.248 406.337 65.752C406.337 66.274 405.932 66.715 405.293 66.715H403.529V64.807ZM413.747 64.816V63.7H409.103V70H413.738V68.884H410.309V67.336H413.288V66.256H410.309V64.816H413.747ZM418.013 63.7H415.277V70H418.013C419.867 70 421.028 68.668 421.028 66.85C421.028 64.996 419.849 63.7 418.013 63.7ZM417.986 68.884H416.501V64.807H417.986C419.066 64.807 419.786 65.626 419.786 66.823C419.786 68.038 419.066 68.884 417.986 68.884ZM431.057 70L429.761 68.614C430.094 68.11 430.31 67.57 430.4 67.12L429.356 66.823C429.284 67.147 429.158 67.48 428.987 67.786L427.412 66.103C427.232 65.914 426.989 65.653 426.989 65.338C426.989 64.924 427.313 64.627 427.772 64.627C428.222 64.627 428.519 64.915 428.627 65.356L429.689 65.05C429.563 64.276 428.843 63.574 427.799 63.574C426.638 63.574 425.819 64.204 425.819 65.32C425.819 65.77 426.017 66.121 426.305 66.463C425.522 66.922 425.144 67.597 425.144 68.281C425.144 69.406 426.08 70.126 427.169 70.126C427.916 70.126 428.555 69.838 429.05 69.406L429.608 70H431.057ZM427.295 69.046C426.701 69.046 426.332 68.641 426.332 68.191C426.332 67.804 426.539 67.498 426.989 67.219L428.321 68.632C428.015 68.884 427.664 69.046 427.295 69.046ZM367.909 74.7L365.848 77.679L363.787 74.7H362.608V81H363.841V76.851L365.848 79.632L367.855 76.851V81H369.088V74.7H367.909ZM375.394 81H376.681L374.26 74.7H372.658L370.246 81H371.524L372.046 79.632H374.881L375.394 81ZM372.451 78.543L373.459 75.879L374.467 78.543H372.451ZM377.83 81H379.081V74.7H377.83V81ZM384.972 74.7V78.786L381.804 74.7H380.787V81H382.02V76.905L385.188 81H386.205V74.7H384.972ZM392.932 74.7H387.469V75.816H389.584V81H390.817V75.816H392.932V74.7ZM398.112 81H399.399L396.978 74.7H395.376L392.964 81H394.242L394.764 79.632H397.599L398.112 81ZM395.169 78.543L396.177 75.879L397.185 78.543H395.169ZM400.548 81H401.799V74.7H400.548V81ZM407.69 74.7V78.786L404.522 74.7H403.505V81H404.738V76.905L407.906 81H408.923V74.7H407.69ZM415.28 75.816V74.7H410.636V81H415.271V79.884H411.842V78.336H414.821V77.256H411.842V75.816H415.28ZM419.546 74.7H416.81V81H419.546C421.4 81 422.561 79.668 422.561 77.85C422.561 75.996 421.382 74.7 419.546 74.7ZM419.519 79.884H418.034V75.807H419.519C420.599 75.807 421.319 76.626 421.319 77.823C421.319 79.038 420.599 79.884 419.519 79.884Z" fill="white"/>
<g filter="url(#filter1_d)">
<rect x="318.763" y="57.6421" width="33.3043" height="33.3043" fill="white"/>
</g>
<path d="M333.974 65.1526L326.756 69.3159V69.3192V79.3183L329.467 80.8838V70.8814L333.974 68.2804V65.1526Z" fill="black"/>
<path d="M336.856 65.1526V73.1179H333.974V70.1457L331.261 71.7112V81.9161L333.974 83.4849V75.5423H336.856V78.495L339.567 76.9295V66.7181L336.856 65.1526Z" fill="black"/>
<path d="M336.855 83.488L344.074 79.3247V79.3215V69.3223L341.361 67.7568V77.7592L336.855 80.3603V83.488Z" fill="black"/>
<defs>
<filter id="filter0_f" x="240" y="58" width="437" height="356" filterUnits="userSpaceOnUse" color-interpolation-filters="sRGB">
<feFlood flood-opacity="0" result="BackgroundImageFix"/>
<feBlend mode="normal" in="SourceGraphic" in2="BackgroundImageFix" result="shape"/>
<feGaussianBlur stdDeviation="28" result="effect1_foregroundBlur"/>
</filter>
<filter id="filter1_d" x="303.763" y="46.6421" width="63.3043" height="63.3043" filterUnits="userSpaceOnUse" color-interpolation-filters="sRGB">
<feFlood flood-opacity="0" result="BackgroundImageFix"/>
<feColorMatrix in="SourceAlpha" type="matrix" values="0 0 0 0 0 0 0 0 0 0 0 0 0 0 0 0 0 0 127 0"/>
<feOffset dy="4"/>
<feGaussianBlur stdDeviation="7.5"/>
<feColorMatrix type="matrix" values="0 0 0 0 0 0 0 0 0 0 0 0 0 0 0 0 0 0 0.15 0"/>
<feBlend mode="normal" in2="BackgroundImageFix" result="effect1_dropShadow"/>
<feBlend mode="normal" in="SourceGraphic" in2="effect1_dropShadow" result="shape"/>
</filter>
<radialGradient id="paint0_radial" cx="0" cy="0" r="1" gradientUnits="userSpaceOnUse" gradientTransform="translate(410 298) rotate(-140.921) scale(363.27 531.371)">
<stop stop-color="#2A2B30"/>
<stop offset="1" stop-color="#1D1E23" stop-opacity="0"/>
</radialGradient>
<linearGradient id="paint1_linear" x1="258.749" y1="145.945" x2="258.749" y2="67.8896" gradientUnits="userSpaceOnUse">
<stop/>
<stop offset="1" stop-opacity="0"/>
</linearGradient>
<radialGradient id="paint2_radial" cx="0" cy="0" r="1" gradientUnits="userSpaceOnUse" gradientTransform="translate(361.512 52.2338) rotate(163.397) scale(238.738 144.838)">
<stop stop-color="#CA2171" stop-opacity="0.52"/>
<stop offset="1" stop-color="#18191B" stop-opacity="0"/>
</radialGradient>
<clipPath id="clip0">
<rect width="83.2609" height="71.7324" fill="white" transform="translate(265.154 67.8896)"/>
</clipPath>
<clipPath id="clip1">
<rect width="25.442" height="30.7425" fill="white" transform="translate(324 276)"/>
</clipPath>
<clipPath id="clip2">
<rect width="25.6187" height="25.6187" fill="white" transform="translate(468 278)"/>
</clipPath>
</defs>
</svg>
