<svg fill="none" height="345" viewBox="0 0 592 345" width="592" xmlns="http://www.w3.org/2000/svg" xmlns:xlink="http://www.w3.org/1999/xlink"><clipPath id="a"><path d="m0 0h592v345h-592z"/></clipPath><clipPath id="b"><path d="m128 134h24v24h-24z"/></clipPath><clipPath id="c"><path d="m419 129h36v36.365h-36z"/></clipPath><g clip-path="url(#a)"><path d="m0-1h38" stroke="#dc477d" stroke-width="2" transform="matrix(1 -.00000001 .00000001 -1 174 146)"/><path d="m250 27h-30c-4.418 0-8 3.5817-8 8v112" stroke="#dc477d" stroke-linejoin="round" stroke-width="2"/><path d="m250 267h-30c-4.418 0-8-3.582-8-8v-112" stroke="#dc477d" stroke-linejoin="round" stroke-width="2"/><path d="m172.3 147 8.7-5.1v10.2z" fill="#dc477d"/><path d="m251.7 267-8.7-5.1v10.2z" fill="#dc477d"/><path d="m251.7 27.0004-8.7-5.1v10.2z" fill="#dc477d"/><g stroke-width="2"><path d="m328 27h20c4.418 0 8 3.5817 8 8v112" stroke="#343536" stroke-dasharray="4 2" stroke-linejoin="round"/><path d="m328 267h20c4.418 0 8-3.582 8-8v-112" stroke="#343536" stroke-dasharray="4 2" stroke-linejoin="round"/><path d="m328 267c0 1.657 1.343 3 3 3s3-1.343 3-3-1.343-3-3-3-3 1.343-3 3z" fill="#fff" stroke="#343536" stroke-linecap="round" stroke-linejoin="round"/><path d="m328 27c0 1.6569 1.343 3 3 3s3-1.3431 3-3-1.343-3-3-3-3 1.3431-3 3z" fill="#fff" stroke="#343536" stroke-linecap="round" stroke-linejoin="round"/><path d="m140 180v155c0 4.418 3.582 8 8 8h138" stroke="#343536" stroke-dasharray="4 2" stroke-linejoin="round"/><path d="m0-1h4" stroke="#343536" transform="matrix(1 -.00000007 -.00000009 -1 284 342)"/><path d="m140 180c-1.657 0-3 1.343-3 3s1.343 3 3 3 3-1.343 3-3-1.343-3-3-3z" fill="#fff" stroke="#343536" stroke-linecap="round" stroke-linejoin="round"/><path d="m437 197v138c0 4.418-3.582 8-8 8h-143" stroke="#343536" stroke-dasharray="4 2" stroke-linejoin="round"/><path d="m288 343h-4" stroke="#343536"/><path d="m437 197c1.657 0 3 1.343 3 3s-1.343 3-3 3-3-1.343-3-3 1.343-3 3-3z" fill="#fff" stroke="#343536" stroke-linecap="round" stroke-linejoin="round"/><path d="m0-1h35" stroke="#dc477d" transform="matrix(1 -.00000001 0 -1 215 146)"/><path d="m0-1h4" stroke="#dc477d" transform="matrix(-1 .00000009 .00000008 1 217 148)"/></g><path d="m251.7 147-8.7 5.1v-10.2z" fill="#dc477d"/><path d="m0-1 26 2" stroke="#343536" stroke-dasharray="4 2" stroke-linejoin="round" stroke-width="2" transform="matrix(-1 .00000011 .00000007 1 352 148)"/><path d="m0-1h4" stroke="#343536" stroke-width="2" transform="matrix(1 -.0000002 -.00000016 -1 350 146)"/><path d="m326 147c0 1.657 1.343 3 3 3s3-1.343 3-3-1.343-3-3-3-3 1.343-3 3z" fill="#fff" stroke="#343536" stroke-linecap="round" stroke-linejoin="round" stroke-width="2"/><path d="m0-1 26 2" stroke="#343536" stroke-dasharray="4 2" stroke-linejoin="round" stroke-width="2" transform="matrix(-1 .00000011 .00000007 1 387 148)"/><path d="m387 147c0-1.657-1.343-3-3-3s-3 1.343-3 3 1.343 3 3 3 3-1.343 3-3z" fill="#fff" stroke="#343536" stroke-linecap="round" stroke-linejoin="round" stroke-width="2"/><path d="m0-1h4" stroke="#343536" stroke-width="2" transform="matrix(-1 .0000002 .00000016 1 363 148)"/><path d="m0-1h44" stroke="#343536" stroke-width="2" transform="matrix(-.00000004 1 1 .00000008 143 68)"/><path d="m142 66.3 5.1 8.7h-10.2z" fill="#343536"/><path d="m142 113.7-5.1-8.7h10.2z" fill="#343536"/><path d="m251.445 74 .975-2.58h4.005l.99 2.58h1.875l-4.02-10.5h-1.68l-4.02 10.485zm1.425-4.08 1.56-4.365 1.545 4.365zm7.889 7.08h1.515v-4.065c.405.555 1.17 1.14 2.43 1.14 1.665 0 3.39-1.32 3.39-3.87 0-2.595-1.86-3.87-3.435-3.87-1.32 0-2.175.795-2.385 1.2v-1.035h-1.515zm3.6-4.38c-1.215 0-2.07-1.02-2.07-2.46 0-1.365.855-2.34 2.07-2.34 1.2 0 2.04 1.035 2.04 2.49 0 1.35-.84 2.31-2.04 2.31zm5.347 4.38h1.515v-4.065c.405.555 1.17 1.14 2.43 1.14 1.665 0 3.39-1.32 3.39-3.87 0-2.595-1.86-3.87-3.435-3.87-1.32 0-2.175.795-2.385 1.2v-1.035h-1.515zm3.6-4.38c-1.215 0-2.07-1.02-2.07-2.46 0-1.365.855-2.34 2.07-2.34 1.2 0 2.04 1.035 2.04 2.49 0 1.35-.84 2.31-2.04 2.31zm5.348 1.38h1.68v-10.5h-1.68zm3.745-8.58h1.785v-1.92h-1.785zm.06 8.58h1.68v-7.5h-1.68zm6.866.105c1.755 0 3.15-1.125 3.36-2.73h-1.68c-.135.675-.69 1.32-1.65 1.32-1.08 0-1.935-.945-1.935-2.55 0-1.53.855-2.43 1.905-2.43.945 0 1.515.645 1.68 1.32h1.68c-.195-1.575-1.56-2.685-3.3-2.685-2.145 0-3.66 1.62-3.66 3.9 0 2.265 1.485 3.855 3.6 3.855zm7.004.045c.795 0 1.68-.345 2.22-1.035v.885h1.665v-5.07c0-1.485-1.065-2.61-2.97-2.61-1.83 0-3.045 1.185-3.18 2.685l1.68-.015c.075-.555.525-1.215 1.575-1.215.765 0 1.23.42 1.23.9 0 .78-1.065.84-2.025.93-.855.075-1.575.285-2.07.675-.465.375-.66.96-.66 1.605 0 1.44 1.2 2.265 2.535 2.265zm.27-1.38c-.69-.045-1.08-.465-1.08-.99 0-.585.48-.9 1.305-.975.735-.06 1.41-.165 1.74-.345l-.015.675c-.03 1.185-1.125 1.68-1.95 1.635zm7.698 1.23h1.425l.015-1.41h-1.02c-.72 0-.915-.24-.915-.99v-3.75h1.92v-1.35h-1.92v-2.4h-1.56v2.4h-1.17v1.35h1.17v4.155c0 1.17.855 1.995 2.055 1.995zm2.67-8.58h1.785v-1.92h-1.785zm.06 8.58h1.68v-7.5h-1.68zm6.897.075c2.025 0 3.615-1.59 3.615-3.825 0-2.265-1.59-3.855-3.615-3.855-2.04 0-3.63 1.59-3.63 3.855 0 2.235 1.59 3.825 3.63 3.825zm-.015-1.485c-1.29 0-2.01-1.02-2.01-2.34 0-1.35.735-2.355 2.025-2.355 1.305 0 2.04 1.02 2.04 2.37 0 1.32-.735 2.325-2.055 2.325zm5.242 1.41h1.59v-3.78c0-1.545.885-2.49 1.875-2.49.84 0 1.485.525 1.485 1.845v4.425h1.725v-4.605c0-2.535-1.8-3.09-2.835-3.09-1.215 0-1.965.735-2.25 1.14v-.945h-1.59z" fill="#000"/><path d="m251.445 194 .975-2.58h4.005l.99 2.58h1.875l-4.02-10.5h-1.68l-4.02 10.485zm1.425-4.08 1.56-4.365 1.545 4.365zm7.889 7.08h1.515v-4.065c.405.555 1.17 1.14 2.43 1.14 1.665 0 3.39-1.32 3.39-3.87 0-2.595-1.86-3.87-3.435-3.87-1.32 0-2.175.795-2.385 1.2v-1.035h-1.515zm3.6-4.38c-1.215 0-2.07-1.02-2.07-2.46 0-1.365.855-2.34 2.07-2.34 1.2 0 2.04 1.035 2.04 2.49 0 1.35-.84 2.31-2.04 2.31zm5.347 4.38h1.515v-4.065c.405.555 1.17 1.14 2.43 1.14 1.665 0 3.39-1.32 3.39-3.87 0-2.595-1.86-3.87-3.435-3.87-1.32 0-2.175.795-2.385 1.2v-1.035h-1.515zm3.6-4.38c-1.215 0-2.07-1.02-2.07-2.46 0-1.365.855-2.34 2.07-2.34 1.2 0 2.04 1.035 2.04 2.49 0 1.35-.84 2.31-2.04 2.31zm5.348 1.38h1.68v-10.5h-1.68zm3.745-8.58h1.785v-1.92h-1.785zm.06 8.58h1.68v-7.5h-1.68zm6.866.105c1.755 0 3.15-1.125 3.36-2.73h-1.68c-.135.675-.69 1.32-1.65 1.32-1.08 0-1.935-.945-1.935-2.55 0-1.53.855-2.43 1.905-2.43.945 0 1.515.645 1.68 1.32h1.68c-.195-1.575-1.56-2.685-3.3-2.685-2.145 0-3.66 1.62-3.66 3.9 0 2.265 1.485 3.855 3.6 3.855zm7.004.045c.795 0 1.68-.345 2.22-1.035v.885h1.665v-5.07c0-1.485-1.065-2.61-2.97-2.61-1.83 0-3.045 1.185-3.18 2.685l1.68-.015c.075-.555.525-1.215 1.575-1.215.765 0 1.23.42 1.23.9 0 .78-1.065.84-2.025.93-.855.075-1.575.285-2.07.675-.465.375-.66.96-.66 1.605 0 1.44 1.2 2.265 2.535 2.265zm.27-1.38c-.69-.045-1.08-.465-1.08-.99 0-.585.48-.9 1.305-.975.735-.06 1.41-.165 1.74-.345l-.015.675c-.03 1.185-1.125 1.68-1.95 1.635zm7.698 1.23h1.425l.015-1.41h-1.02c-.72 0-.915-.24-.915-.99v-3.75h1.92v-1.35h-1.92v-2.4h-1.56v2.4h-1.17v1.35h1.17v4.155c0 1.17.855 1.995 2.055 1.995zm2.67-8.58h1.785v-1.92h-1.785zm.06 8.58h1.68v-7.5h-1.68zm6.897.075c2.025 0 3.615-1.59 3.615-3.825 0-2.265-1.59-3.855-3.615-3.855-2.04 0-3.63 1.59-3.63 3.855 0 2.235 1.59 3.825 3.63 3.825zm-.015-1.485c-1.29 0-2.01-1.02-2.01-2.34 0-1.35.735-2.355 2.025-2.355 1.305 0 2.04 1.02 2.04 2.37 0 1.32-.735 2.325-2.055 2.325zm5.242 1.41h1.59v-3.78c0-1.545.885-2.49 1.875-2.49.84 0 1.485.525 1.485 1.845v4.425h1.725v-4.605c0-2.535-1.8-3.09-2.835-3.09-1.215 0-1.965.735-2.25 1.14v-.945h-1.59z" fill="#000"/><path d="m251.445 314 .975-2.58h4.005l.99 2.58h1.875l-4.02-10.5h-1.68l-4.02 10.485zm1.425-4.08 1.56-4.365 1.545 4.365zm7.889 7.08h1.515v-4.065c.405.555 1.17 1.14 2.43 1.14 1.665 0 3.39-1.32 3.39-3.87 0-2.595-1.86-3.87-3.435-3.87-1.32 0-2.175.795-2.385 1.2v-1.035h-1.515zm3.6-4.38c-1.215 0-2.07-1.02-2.07-2.46 0-1.365.855-2.34 2.07-2.34 1.2 0 2.04 1.035 2.04 2.49 0 1.35-.84 2.31-2.04 2.31zm5.347 4.38h1.515v-4.065c.405.555 1.17 1.14 2.43 1.14 1.665 0 3.39-1.32 3.39-3.87 0-2.595-1.86-3.87-3.435-3.87-1.32 0-2.175.795-2.385 1.2v-1.035h-1.515zm3.6-4.38c-1.215 0-2.07-1.02-2.07-2.46 0-1.365.855-2.34 2.07-2.34 1.2 0 2.04 1.035 2.04 2.49 0 1.35-.84 2.31-2.04 2.31zm5.348 1.38h1.68v-10.5h-1.68zm3.745-8.58h1.785v-1.92h-1.785zm.06 8.58h1.68v-7.5h-1.68zm6.866.105c1.755 0 3.15-1.125 3.36-2.73h-1.68c-.135.675-.69 1.32-1.65 1.32-1.08 0-1.935-.945-1.935-2.55 0-1.53.855-2.43 1.905-2.43.945 0 1.515.645 1.68 1.32h1.68c-.195-1.575-1.56-2.685-3.3-2.685-2.145 0-3.66 1.62-3.66 3.9 0 2.265 1.485 3.855 3.6 3.855zm7.004.045c.795 0 1.68-.345 2.22-1.035v.885h1.665v-5.07c0-1.485-1.065-2.61-2.97-2.61-1.83 0-3.045 1.185-3.18 2.685l1.68-.015c.075-.555.525-1.215 1.575-1.215.765 0 1.23.42 1.23.9 0 .78-1.065.84-2.025.93-.855.075-1.575.285-2.07.675-.465.375-.66.96-.66 1.605 0 1.44 1.2 2.265 2.535 2.265zm.27-1.38c-.69-.045-1.08-.465-1.08-.99 0-.585.48-.9 1.305-.975.735-.06 1.41-.165 1.74-.345l-.015.675c-.03 1.185-1.125 1.68-1.95 1.635zm7.698 1.23h1.425l.015-1.41h-1.02c-.72 0-.915-.24-.915-.99v-3.75h1.92v-1.35h-1.92v-2.4h-1.56v2.4h-1.17v1.35h1.17v4.155c0 1.17.855 1.995 2.055 1.995zm2.67-8.58h1.785v-1.92h-1.785zm.06 8.58h1.68v-7.5h-1.68zm6.897.075c2.025 0 3.615-1.59 3.615-3.825 0-2.265-1.59-3.855-3.615-3.855-2.04 0-3.63 1.59-3.63 3.855 0 2.235 1.59 3.825 3.63 3.825zm-.015-1.485c-1.29 0-2.01-1.02-2.01-2.34 0-1.35.735-2.355 2.025-2.355 1.305 0 2.04 1.02 2.04 2.37 0 1.32-.735 2.325-2.055 2.325zm5.242 1.41h1.59v-3.78c0-1.545.885-2.49 1.875-2.49.84 0 1.485.525 1.485 1.845v4.425h1.725v-4.605c0-2.535-1.8-3.09-2.835-3.09-1.215 0-1.965.735-2.25 1.14v-.945h-1.59z" fill="#000"/><rect fill="#fff" height="46" rx="2" transform="matrix(-1 0 0 1 311 3)" width="46"/><rect height="47.5" rx="2.75" stroke="#000" stroke-opacity=".16" stroke-width="1.5" transform="matrix(-1 0 0 1 312.5 3)" width="47.5" x=".75" y="-.75"/><rect fill="#000" height="48" rx="2" transform="matrix(-1 0 0 1 164 122)" width="48"/><rect fill="#fff" height="46" rx="2" transform="matrix(-1 0 0 1 311 123)" width="46"/><rect height="47.5" rx="2.75" stroke="#000" stroke-opacity=".16" stroke-width="1.5" transform="matrix(-1 0 0 1 312.5 123)" width="47.5" x=".75" y="-.75"/><rect fill="#fff" height="46" rx="2" transform="matrix(-1 0 0 1 311 243)" width="46"/><rect height="47.5" rx="2.75" stroke="#000" stroke-opacity=".16" stroke-width="1.5" transform="matrix(-1 0 0 1 312.5 243)" width="47.5" x=".75" y="-.75"/><path d="m288.89 15.4492 8 4c.68.3377 1.11 1.031 1.11 1.79v9.53c0 .7589-.43 1.4522-1.11 1.79l-8 4c-.563.2819-1.227.2819-1.79 0l-8-4c-.679-.3422-1.105-1.0397-1.1-1.8v-9.52c0-.759.43-1.4523 1.11-1.79l8-4c.561-.2786 1.219-.2786 1.78 0z" style="fill-rule:evenodd;clip-rule:evenodd;stroke:#000;stroke-width:1.5;stroke-linecap:round;stroke-linejoin:round"/><path d="m278.32 20.1602 9.68 4.84 9.68-4.84" stroke="#000" stroke-linecap="round" stroke-linejoin="round" stroke-width="1.5"/><path d="m288 36.76v-11.76" stroke="#000" stroke-linecap="round" stroke-linejoin="round" stroke-width="1.5"/><g clip-path="url(#b)"><g stroke="#f2f2f3" stroke-linecap="round" stroke-linejoin="round" stroke-width="1.5"><path d="m147.5 148.25 3-2.75-3-2.75"/><path d="m137.25 153.5 2.75 3 2.75-3"/><path d="m132.5 142.75-3 2.75 3 2.75"/></g><path d="m140.75 136c0-.414-.336-.75-.75-.75s-.75.336-.75.75zm-10.75 10.25h10v-1.5h-10zm10 0h10v-1.5h-10zm-.75-.75v10.5h1.5v-10.5zm1.5 0v-9.5h-1.5v9.5z" fill="#f2f2f3"/></g><path d="m288.89 135.449 8 4c.68.338 1.11 1.031 1.11 1.79v9.53c0 .759-.43 1.452-1.11 1.79l-8 4c-.563.282-1.227.282-1.79 0l-8-4c-.679-.342-1.105-1.04-1.1-1.8v-9.52c0-.759.43-1.452 1.11-1.79l8-4c.561-.278 1.219-.278 1.78 0z" style="fill-rule:evenodd;clip-rule:evenodd;stroke:#000;stroke-width:1.5;stroke-linecap:round;stroke-linejoin:round"/><path d="m278.32 140.16 9.68 4.84 9.68-4.84" stroke="#000" stroke-linecap="round" stroke-linejoin="round" stroke-width="1.5"/><path d="m288 156.76v-11.76" stroke="#000" stroke-linecap="round" stroke-linejoin="round" stroke-width="1.5"/><path d="m288.89 255.449 8 4c.68.338 1.11 1.031 1.11 1.79v9.53c0 .759-.43 1.452-1.11 1.79l-8 4c-.563.282-1.227.282-1.79 0l-8-4c-.679-.342-1.105-1.04-1.1-1.8v-9.52c0-.759.43-1.452 1.11-1.79l8-4c.561-.278 1.219-.278 1.78 0z" style="fill-rule:evenodd;clip-rule:evenodd;stroke:#000;stroke-width:1.5;stroke-linecap:round;stroke-linejoin:round"/><path d="m278.32 260.16 9.68 4.84 9.68-4.84" stroke="#000" stroke-linecap="round" stroke-linejoin="round" stroke-width="1.5"/><path d="m288 276.76v-11.76" stroke="#000" stroke-linecap="round" stroke-linejoin="round" stroke-width="1.5"/><circle cx="310" cy="48" fill="#dc477d" r="6"/><circle cx="310" cy="168" fill="#dc477d" r="6"/><circle cx="310" cy="288" fill="#dc477d" r="6"/><circle cx="437" cy="147" fill="#dc477d" r="40"/><g clip-path="url(#c)" fill="#fff"><path d="m437.182 165.365c-10.02 0-18.182-8.162-18.182-18.183 0-10.02 8.162-18.182 18.182-18.182 4.579 0 8.926 1.692 12.31 4.811l-4.313 4.513c-2.19-1.991-5.044-3.086-7.997-3.086-6.569 0-11.944 5.342-11.944 11.944 0 6.603 5.342 11.945 11.944 11.945 2.953 0 5.807-1.095 7.997-3.086l4.313 4.513c-3.384 3.086-7.764 4.811-12.31 4.811z"/><path d="m451.815 156.273c-.829 0-1.493-.663-1.493-1.493 0-.829.664-1.493 1.493-1.493.83 0 1.493.664 1.493 1.493 0 .83-.696 1.493-1.493 1.493z"/><path d="m437.05 151.098c-2.157 0-3.948-1.759-3.948-3.948 0-2.157 1.758-3.949 3.948-3.949s3.948 1.759 3.948 3.949c0 2.189-1.758 3.948-3.948 3.948z"/><path d="m453.507 151.164c-.83 0-1.493-.664-1.493-1.493 0-.83.663-1.493 1.493-1.493.829 0 1.493.663 1.493 1.493 0 .829-.664 1.493-1.493 1.493z"/><path d="m449.095 150.998c-.83 0-1.493-.664-1.493-1.493 0-.83.663-1.493 1.493-1.493.829 0 1.493.663 1.493 1.493 0 .829-.697 1.493-1.493 1.493z"/><path d="m453.507 146.154c-.83 0-1.493-.663-1.493-1.493 0-.829.663-1.493 1.493-1.493.829 0 1.493.664 1.493 1.493 0 .83-.664 1.493-1.493 1.493z"/><path d="m449.095 146.32c-.83 0-1.493-.663-1.493-1.493 0-.829.663-1.493 1.493-1.493.829 0 1.493.664 1.493 1.493 0 .83-.697 1.493-1.493 1.493z"/><path d="m451.882 141.144c-.83 0-1.493-.663-1.493-1.493 0-.829.663-1.493 1.493-1.493.829 0 1.493.664 1.493 1.493 0 .83-.664 1.493-1.493 1.493z"/></g><rect fill="#dc477d" height="32" rx="2" transform="matrix(-1 0 0 1 157 271)" width="32"/><path d="m144 281h1.5c.828 0 1.5.672 1.5 1.5v10.5c0 .828-.672 1.5-1.5 1.5h-9c-.828 0-1.5-.672-1.5-1.5v-10.5c0-.828.672-1.5 1.5-1.5h1.5" stroke="#fff" stroke-linecap="round" stroke-linejoin="round" stroke-width="1.5"/><path d="m138 280.5c0-.552.448-1 1-1h4c.552 0 1 .448 1 1v1c0 .552-.448 1-1 1h-4c-.552 0-1-.448-1-1z" style="fill-rule:evenodd;clip-rule:evenodd;stroke:#fff;stroke-width:1.5;stroke-linecap:round;stroke-linejoin:round"/><path d="m141.999 55.3327c7.364 0 13.334-5.9696 13.334-13.3334 0-7.3637-5.97-13.3333-13.334-13.3333-7.363 0-13.333 5.9696-13.333 13.3333 0 7.3638 5.97 13.3334 13.333 13.3334z" style="fill-rule:evenodd;clip-rule:evenodd;stroke:#000;stroke-width:1.7872;stroke-linecap:round;stroke-linejoin:round"/><path d="m128.666 42h26.667" stroke="#000" stroke-linecap="round" stroke-linejoin="round" stroke-width="1.7872"/><path d="m141.999 28.666c3.335 3.6512 5.231 8.3894 5.334 13.3333-.103 4.944-1.999 9.6822-5.334 13.3334-3.335-3.6512-5.23-8.3894-5.333-13.3334.103-4.9439 1.998-9.6821 5.333-13.3333z" style="fill-rule:evenodd;clip-rule:evenodd;stroke:#000;stroke-width:1.7872;stroke-linecap:round;stroke-linejoin:round"/></g></svg>