<svg fill="none" height="237" viewBox="0 0 592 237" width="592" xmlns="http://www.w3.org/2000/svg"><path d="m0 0h592v237h-592z" fill="#fff"/><rect fill="#fff" height="91.5" rx="1.75" stroke="#343536" stroke-width="1.5" width="107.5" x="242.25" y="10.25"/><rect fill="#fff" height="19" rx="3" width="78" x="257"/><path d="m270.38 7.1v-1.5h-6.108v8.4h1.644v-3.336h3.852v-1.476h-3.852v-2.088zm1.69 6.9h1.668v-8.4h-1.668zm9.271 0h1.896l-2.088-3.108c1.188-.408 1.836-1.452 1.836-2.556 0-1.332-1.056-2.736-2.88-2.736h-4.092v8.4h1.632v-2.94h1.788zm-3.696-6.924h2.412c.78 0 1.332.588 1.332 1.26 0 .696-.54 1.284-1.392 1.284h-2.352zm13.623.012v-1.488h-6.192v8.4h6.18v-1.488h-4.572v-2.064h3.972v-1.44h-3.972v-1.92zm11.484-1.488-1.728 6.084-1.752-6.084h-1.476l-1.752 6.084-1.728-6.084h-1.728l2.556 8.4h1.74l1.656-5.64 1.656 5.64h1.74l2.544-8.4zm8.787 8.4h1.716l-3.228-8.4h-2.136l-3.216 8.4h1.704l.696-1.824h3.78zm-3.924-3.276 1.344-3.552 1.344 3.552zm8.816 1.764v-6.888h-1.644v8.4h5.832v-1.512zm7.611 0v-6.888h-1.644v8.4h5.832v-1.512z" fill="#000"/><rect fill="#fff" height="46" rx="2" width="46" x="273" y="31"/><rect height="47.5" rx="2.75" stroke="#000" stroke-opacity=".16" stroke-width="1.5" width="47.5" x="272.25" y="30.25"/><path d="m280 38h8v8h-8z" fill="#343536" opacity=".9"/><path d="m280 50h8v8h-8z" fill="#1d1e1f"/><path d="m280 62h8v8h-8z" fill="#727274"/><path d="m292 38h8v8h-8z" fill="#727274"/><path d="m292 50h8v8h-8z" fill="#343536" opacity=".9"/><path d="m292 62h8v8h-8z" fill="#1d1e1f"/><path d="m304 38h8v8h-8z" fill="#1d1e1f"/><path d="m349 39h2v30h-2z" fill="#fff"/><path d="m304 50h8v8h-8z" fill="#727274"/><circle cx="318" cy="76" fill="#dc477d" r="6"/><rect height="20.5" rx="2.25" stroke="#343536" stroke-width="1.5" width="20.5" x="339.75" y="43.75"/><path d="m339 50h22" stroke="#343536" stroke-width="1.5"/><path d="m339 58h22" stroke="#343536" stroke-width="1.5"/><path d="m353 58v-8" stroke="#343536" stroke-width="1.5"/><path d="m346 50v-7" stroke="#343536" stroke-width="1.5"/><path d="m346 65v-7" stroke="#343536" stroke-width="1.5"/><circle cx="296" cy="182" fill="#dc477d" r="40"/><g fill="#fff"><path d="m296.162 199.324c-2.724.003-5.407-.66-7.817-1.93s-4.473-3.109-6.011-5.357c-1.539-2.248-2.505-4.838-2.815-7.544-.31-2.707.045-5.448 1.034-7.986s2.583-4.796 4.643-6.578c2.06-1.783 4.524-3.036 7.177-3.65 2.654-.614 5.418-.572 8.051.124 2.634.696 5.058 2.024 7.062 3.869l-3.972 4.156c-1.579-1.427-3.538-2.365-5.64-2.7-2.101-.335-4.255-.054-6.2.81-1.944.864-3.597 2.274-4.757 4.058-1.159 1.784-1.777 3.867-1.777 5.995s.618 4.21 1.777 5.994c1.16 1.785 2.813 3.194 4.757 4.058 1.945.864 4.099 1.145 6.2.81 2.102-.335 4.061-1.273 5.64-2.7l3.972 4.156c-3.086 2.843-7.128 4.419-11.324 4.415z"/><path d="m309.63 190.953c-.272 0-.537-.081-.762-.231-.226-.151-.402-.365-.506-.616s-.131-.527-.078-.793.184-.51.376-.702.436-.323.702-.376.542-.025.793.078c.25.104.465.28.615.506.151.225.232.491.232.762-.001.364-.146.712-.403.969s-.606.402-.969.403z"/><path d="m296.054 186.213c-.718.003-1.421-.207-2.019-.604-.599-.397-1.066-.963-1.343-1.625-.276-.663-.35-1.393-.212-2.097.139-.705.483-1.353.99-1.861.507-.509 1.154-.856 1.858-.997.704-.14 1.434-.069 2.098.205.663.275 1.23.74 1.629 1.338.399.597.612 1.299.611 2.017-.002.958-.382 1.877-1.059 2.556-.676.679-1.594 1.063-2.553 1.068z"/><path d="m311.204 186.277c-.271 0-.537-.08-.762-.231-.226-.151-.402-.365-.506-.616-.103-.251-.131-.526-.078-.793.053-.266.184-.51.376-.702s.436-.322.702-.375.542-.026.793.078c.251.103.465.279.616.505.15.226.231.491.231.762-.001.364-.146.712-.403.969s-.605.402-.969.403z"/><path d="m307.126 186.105c-.272 0-.538-.081-.764-.232-.226-.152-.402-.367-.505-.618-.104-.252-.13-.529-.076-.795.055-.267.187-.511.38-.702.194-.192.439-.321.707-.372.267-.051.543-.022.793.084.251.106.464.285.613.512.149.228.227.495.224.767-.004.361-.151.706-.407.96-.257.254-.604.396-.965.396z"/><path d="m311.204 181.654c-.271 0-.537-.08-.762-.231-.226-.151-.402-.365-.506-.616-.103-.251-.131-.526-.078-.793.053-.266.184-.51.376-.702s.436-.323.702-.375c.266-.053.542-.026.793.078.251.103.465.279.616.505.15.226.231.491.231.762-.001.364-.146.712-.403.969s-.605.402-.969.403z"/><path d="m307.126 181.81c-.271 0-.537-.08-.762-.231-.226-.151-.402-.365-.506-.616-.103-.25-.131-.526-.078-.792s.184-.511.376-.703.436-.322.702-.375.542-.026.793.078.465.28.616.505c.15.226.231.491.231.762 0 .364-.145.713-.402.97-.257.258-.606.402-.97.402z"/><path d="m309.709 177.041c-.271 0-.537-.08-.763-.23s-.402-.364-.507-.615c-.104-.251-.132-.527-.079-.793s.183-.511.375-.703c.191-.192.436-.323.702-.377.266-.053.542-.026.793.078s.466.28.616.505c.151.226.232.491.232.763 0 .363-.144.712-.401.969s-.605.402-.968.403z"/><path d="m292 100h8v4h-8z"/></g><path d="m296 88-2 44" stroke="#343536" stroke-dasharray="4 2" stroke-linejoin="round" stroke-width="2"/><path d="m296 86.3-5.1 8.7h10.2z" fill="#343536"/><path d="m296 132c-1.657 0-3-1.343-3-3s1.343-3 3-3 3 1.343 3 3-1.343 3-3 3z" fill="#fff" stroke="#343536" stroke-linecap="round" stroke-linejoin="round" stroke-width="2"/><path d="m372 54h52c4.418 0 8 3.5817 8 8v86" stroke="#343536" stroke-dasharray="4 2" stroke-linejoin="round" stroke-width="2"/><path d="m432 148c-1.657 0-3-1.343-3-3s1.343-3 3-3 3 1.343 3 3-1.343 3-3 3z" fill="#fff" stroke="#343536" stroke-linecap="round" stroke-linejoin="round" stroke-width="2"/><path d="m370.3 53.9996 8.7 5.1v-10.2z" fill="#343536"/><path d="m246 182h-52" stroke="#343536" stroke-width="2"/><path d="m247.7 182-8.7-5.1v10.2z" fill="#343536"/><path d="m194 182c0-1.657 1.343-3 3-3s3 1.343 3 3-1.343 3-3 3-3-1.343-3-3z" fill="#fff" stroke="#343536" stroke-linecap="round" stroke-linejoin="round" stroke-width="2"/><path d="m398 174h-52" stroke="#343536" stroke-width="2"/><path d="m399.7 174-8.7-5.1v10.2z" fill="#343536"/><path d="m346 174c0-1.657 1.343-3 3-3s3 1.343 3 3-1.343 3-3 3-3-1.343-3-3z" fill="#fff" stroke="#343536" stroke-linecap="round" stroke-linejoin="round" stroke-width="2"/><path d="m398 190-52-2" stroke="#343536" stroke-dasharray="4 2" stroke-linejoin="round" stroke-width="2"/><path d="m398 190c0 1.657-1.343 3-3 3s-3-1.343-3-3 1.343-3 3-3 3 1.343 3 3z" fill="#fff" stroke="#343536" stroke-linecap="round" stroke-linejoin="round" stroke-width="2"/><path d="m344.3 190 8.7 5.1v-10.2z" fill="#343536"/><rect fill="#fff" height="46" rx="2" width="46" x="137" y="159"/><rect height="47.5" rx="2.75" stroke="#000" stroke-opacity=".16" stroke-width="1.5" width="47.5" x="136.25" y="158.25"/><rect fill="#d1ebff" height="48" rx="2" width="48" x="408" y="158"/><path d="m125.12 230 2.175.015v-10.515h-1.575v8.28l-4.875-8.28h-2.025v10.5h1.575v-8.025zm7.55.165c1.8 0 3-1.065 3.225-2.535h-1.5c-.345.99-1.245 1.155-1.725 1.155-1.185 0-1.965-.75-1.965-1.98v-.015h5.31c.18-2.475-1.08-4.38-3.39-4.38-2.13 0-3.57 1.575-3.57 3.9 0 2.415 1.425 3.855 3.615 3.855zm-1.92-4.77c.06-.945.825-1.605 1.83-1.605s1.71.66 1.755 1.605zm8.474 4.605h1.575l1.395-4.635 1.38 4.635h1.575l2.49-7.5h-1.74l-1.53 5.28-1.56-5.28h-1.26l-1.53 5.28-1.56-5.28h-1.71zm17.611.105c2.25 0 3.885-1.2 3.885-3.12 0-1.515-.885-2.745-3.9-3.09-1.29-.15-2.13-.645-2.13-1.47 0-.66.63-1.395 1.86-1.395 1.14 0 2.1.615 2.175 1.71h1.77c-.09-2.07-1.56-3.33-3.93-3.33-2.175 0-3.75 1.38-3.75 3.075 0 1.41 1.035 2.685 4.11 3.015 1.425.15 1.92.675 1.92 1.47 0 .75-.705 1.575-2.01 1.575-1.365 0-2.19-.675-2.445-1.785h-1.86c.165 2.25 2.22 3.345 4.305 3.345zm8.666.06c1.8 0 3-1.065 3.225-2.535h-1.5c-.345.99-1.245 1.155-1.725 1.155-1.185 0-1.965-.75-1.965-1.98v-.015h5.31c.18-2.475-1.08-4.38-3.39-4.38-2.13 0-3.57 1.575-3.57 3.9 0 2.415 1.425 3.855 3.615 3.855zm-1.92-4.77c.06-.945.825-1.605 1.83-1.605s1.71.66 1.755 1.605zm6.898 4.605h1.545v-3.795c0-1.845 1.17-2.175 2.19-2.16h.255v-1.665h-.345c-1.425 0-1.95.75-2.1 1.035v-.915h-1.545zm7.546 0h1.275l3.09-7.5h-1.74l-1.98 5.28-2.01-5.28h-1.71zm5.454-8.58h1.785v-1.92h-1.785zm.06 8.58h1.68v-7.5h-1.68zm6.866.105c1.755 0 3.15-1.125 3.36-2.73h-1.68c-.135.675-.69 1.32-1.65 1.32-1.08 0-1.935-.945-1.935-2.55 0-1.53.855-2.43 1.905-2.43.945 0 1.515.645 1.68 1.32h1.68c-.195-1.575-1.56-2.685-3.3-2.685-2.145 0-3.66 1.62-3.66 3.9 0 2.265 1.485 3.855 3.6 3.855zm8.084.06c1.8 0 3-1.065 3.225-2.535h-1.5c-.345.99-1.245 1.155-1.725 1.155-1.185 0-1.965-.75-1.965-1.98v-.015h5.31c.18-2.475-1.08-4.38-3.39-4.38-2.13 0-3.57 1.575-3.57 3.9 0 2.415 1.425 3.855 3.615 3.855zm-1.92-4.77c.06-.945.825-1.605 1.83-1.605s1.71.66 1.755 1.605z" fill="#000"/><path d="m356.697 230.075c2.7 0 4.335-1.77 4.68-3.84h-1.89c-.21 1.065-1.2 2.22-2.82 2.22-1.845 0-3.03-1.62-3.03-3.645 0-2.07 1.185-3.78 3.09-3.78 1.545 0 2.55 1.05 2.76 2.175h1.89c-.315-2.13-1.965-3.81-4.575-3.81-2.94 0-4.995 2.31-5.01 5.4-.015 3.045 2.175 5.28 4.905 5.28zm9.47 0c2.025 0 3.615-1.59 3.615-3.825 0-2.265-1.59-3.855-3.615-3.855-2.04 0-3.63 1.59-3.63 3.855 0 2.235 1.59 3.825 3.63 3.825zm-.015-1.485c-1.29 0-2.01-1.02-2.01-2.34 0-1.35.735-2.355 2.025-2.355 1.305 0 2.04 1.02 2.04 2.37 0 1.32-.735 2.325-2.055 2.325zm5.242 1.41h1.59v-3.78c0-1.545.885-2.49 1.875-2.49.84 0 1.485.525 1.485 1.845v4.425h1.725v-4.605c0-2.535-1.8-3.09-2.835-3.09-1.215 0-1.965.735-2.25 1.14v-.945h-1.59zm11.368.165c1.395 0 2.925-.87 2.925-2.43 0-1.155-.69-1.995-3.03-2.28-.93-.12-1.275-.495-1.275-.9 0-.555.63-.795 1.215-.795.42 0 1.275.135 1.44 1.155h1.485c-.15-1.86-1.59-2.55-2.955-2.55-1.725 0-2.805 1.035-2.805 2.175 0 .75.27 1.86 2.88 2.235 1.14.165 1.38.555 1.38.96 0 .615-.525 1.08-1.32 1.08s-1.47-.435-1.635-1.215h-1.53c.09 1.71 1.53 2.565 3.225 2.565zm7.222.03c1.215 0 1.965-.735 2.25-1.14v.945h1.59v-7.5h-1.59v3.78c0 1.545-.885 2.49-1.875 2.49-.84 0-1.485-.525-1.485-1.845v-4.425h-1.725v4.605c0 2.535 1.8 3.09 2.835 3.09zm5.982-.195h1.68v-10.5h-1.68zm4.255-4.245h5.25v-1.23h-5.25zm10.464 4.245h1.605l.015-8.97 3.615.015-.015-1.545h-8.85l.015 1.545h3.63zm8.738.165c1.8 0 3-1.065 3.225-2.535h-1.5c-.345.99-1.245 1.155-1.725 1.155-1.185 0-1.965-.75-1.965-1.98v-.015h5.31c.18-2.475-1.08-4.38-3.39-4.38-2.13 0-3.57 1.575-3.57 3.9 0 2.415 1.425 3.855 3.615 3.855zm-1.92-4.77c.06-.945.825-1.605 1.83-1.605s1.71.66 1.755 1.605zm6.898 4.605h1.545v-3.795c0-1.845 1.17-2.175 2.19-2.16h.255v-1.665h-.345c-1.425 0-1.95.75-2.1 1.035v-.915h-1.545zm5.154 0h1.545v-3.795c0-1.845 1.17-2.175 2.19-2.16h.255v-1.665h-.345c-1.425 0-1.95.75-2.1 1.035v-.915h-1.545zm7.163.15c.795 0 1.68-.345 2.22-1.035v.885h1.665v-5.07c0-1.485-1.065-2.61-2.97-2.61-1.83 0-3.045 1.185-3.18 2.685l1.68-.015c.075-.555.525-1.215 1.575-1.215.765 0 1.23.42 1.23.9 0 .78-1.065.84-2.025.93-.855.075-1.575.285-2.07.675-.465.375-.66.96-.66 1.605 0 1.44 1.2 2.265 2.535 2.265zm.27-1.38c-.69-.045-1.08-.465-1.08-.99 0-.585.48-.9 1.305-.975.735-.06 1.41-.165 1.74-.345l-.015.675c-.03 1.185-1.125 1.68-1.95 1.635zm5.793 1.23h1.56v-6.15h1.92v-1.35h-1.92v-.6c0-.75.195-.99.915-.99h1.02l-.015-1.41h-1.425c-1.2 0-2.055.825-2.055 1.995v1.005h-1.17v1.35h1.17zm7.609.075c2.025 0 3.615-1.59 3.615-3.825 0-2.265-1.59-3.855-3.615-3.855-2.04 0-3.63 1.59-3.63 3.855 0 2.235 1.59 3.825 3.63 3.825zm-.015-1.485c-1.29 0-2.01-1.02-2.01-2.34 0-1.35.735-2.355 2.025-2.355 1.305 0 2.04 1.02 2.04 2.37 0 1.32-.735 2.325-2.055 2.325zm5.242 1.41h1.545v-3.795c0-1.845 1.17-2.175 2.19-2.16h.255v-1.665h-.345c-1.425 0-1.95.75-2.1 1.035v-.915h-1.545zm5.153 0h1.59v-3.78c0-1.545.735-2.49 1.725-2.49.84 0 1.485.525 1.485 1.845v4.425h1.725v-3.78c0-1.545.735-2.49 1.725-2.49.84 0 1.485.525 1.485 1.845v4.425h1.725v-4.605c0-2.535-1.845-3.09-2.88-3.09-1.14 0-1.98.585-2.475 1.425-.87-1.515-2.25-1.425-2.415-1.425-1.215 0-1.815.735-2.1 1.14v-.945h-1.59zm13.953-4.245h5.25v-1.23h-5.25zm10.434 4.41c1.395 0 2.925-.87 2.925-2.43 0-1.155-.69-1.995-3.03-2.28-.93-.12-1.275-.495-1.275-.9 0-.555.63-.795 1.215-.795.42 0 1.275.135 1.44 1.155h1.485c-.15-1.86-1.59-2.55-2.955-2.55-1.725 0-2.805 1.035-2.805 2.175 0 .75.27 1.86 2.88 2.235 1.14.165 1.38.555 1.38.96 0 .615-.525 1.08-1.32 1.08s-1.47-.435-1.635-1.215h-1.53c.09 1.71 1.53 2.565 3.225 2.565zm4.027 2.835h.885c1.275 0 2.13-.69 2.685-2.085l3.24-8.415h-1.725l-1.875 5.13-2.025-5.13h-1.725l2.925 7.035-.345.96c-.27.705-.705 1.05-1.32 1.05h-.735zm7.976-3h1.59v-3.78c0-1.545.885-2.49 1.875-2.49.84 0 1.485.525 1.485 1.845v4.425h1.725v-4.605c0-2.535-1.8-3.09-2.835-3.09-1.215 0-1.965.735-2.25 1.14v-.945h-1.59zm11.817.105c1.755 0 3.15-1.125 3.36-2.73h-1.68c-.135.675-.69 1.32-1.65 1.32-1.08 0-1.935-.945-1.935-2.55 0-1.53.855-2.43 1.905-2.43.945 0 1.515.645 1.68 1.32h1.68c-.195-1.575-1.56-2.685-3.3-2.685-2.145 0-3.66 1.62-3.66 3.9 0 2.265 1.485 3.855 3.6 3.855z" fill="#000"/><path d="m160.89 171.449 8 4c.68.338 1.11 1.031 1.11 1.79v9.53c0 .759-.43 1.452-1.11 1.79l-8 4c-.563.282-1.227.282-1.79 0l-8-4c-.679-.342-1.105-1.04-1.1-1.8v-9.52c0-.759.43-1.452 1.11-1.79l8-4c.561-.278 1.219-.278 1.78 0z" style="fill-rule:evenodd;clip-rule:evenodd;stroke:#000;stroke-width:1.5;stroke-linecap:round;stroke-linejoin:round"/><path d="m150.32 176.16 9.68 4.84 9.68-4.84" stroke="#000" stroke-linecap="round" stroke-linejoin="round" stroke-width="1.5"/><path d="m160 192.76v-11.76" stroke="#000" stroke-linecap="round" stroke-linejoin="round" stroke-width="1.5"/><circle cx="182" cy="204" fill="#dc477d" r="6"/><path d="m425.333 169.916-4.584 4.583-2.083-2.083" stroke="#000" stroke-linecap="round" stroke-linejoin="round" stroke-width="1.5"/><path d="m425.333 179.916-4.584 4.583-2.083-2.083" stroke="#000" stroke-linecap="round" stroke-linejoin="round" stroke-width="1.5"/><path d="m431.75 173.25h13.5" stroke="#000" stroke-linecap="round" stroke-linejoin="round" stroke-width="1.5"/><path d="m431.75 183.25h13.5" stroke="#000" stroke-linecap="round" stroke-linejoin="round" stroke-width="1.5"/><path d="m431.75 193.25h13.5" stroke="#000" stroke-linecap="round" stroke-linejoin="round" stroke-width="1.5"/><circle cx="421" cy="193" fill="#000" r="2"/></svg>