<svg fill="none" height="240" viewBox="0 0 592 240" width="592" xmlns="http://www.w3.org/2000/svg"><path d="m0 0h592v240h-592z" fill="#fff"/><rect fill="#fff" height="212" rx="1" width="142" x="41" y="18"/><rect height="213.5" rx="1.75" stroke="#000" stroke-opacity=".16" stroke-width="1.5" width="143.5" x="40.25" y="17.25"/><rect fill="#fff" height="19" rx="3" width="41" x="91.5" y="221"/><path d="m102.223 226.6h-3.648v8.4h3.648c2.472 0 4.02-1.776 4.02-4.2 0-2.472-1.572-4.2-4.02-4.2zm-.036 6.912h-1.98v-5.436h1.98c1.44 0 2.4 1.092 2.4 2.688 0 1.62-.96 2.748-2.4 2.748zm10.059 1.656c2.22 0 3.636-1.356 4.02-2.7l-1.596-.408c-.276.828-1.176 1.56-2.448 1.56-1.656 0-2.712-1.332-2.712-2.844s1.056-2.796 2.712-2.796c1.272 0 2.172.756 2.448 1.572l1.608-.396c-.384-1.332-1.8-2.724-4.068-2.724-2.496 0-4.38 1.884-4.38 4.356 0 2.484 1.884 4.38 4.416 4.38zm11.61-8.568-2.544 1.308.396 1.404 1.884-.876v6.564h1.668v-8.4z" fill="#000"/><rect fill="#fff" height="212" rx="1" width="142" x="209" y="18"/><rect height="213.5" rx="1.75" stroke="#000" stroke-opacity=".16" stroke-width="1.5" width="143.5" x="208.25" y="17.25"/><rect fill="#fff" height="19" rx="3" width="41" x="259.5" y="221"/><path d="m270.223 226.6h-3.648v8.4h3.648c2.472 0 4.02-1.776 4.02-4.2 0-2.472-1.572-4.2-4.02-4.2zm-.036 6.912h-1.98v-5.436h1.98c1.44 0 2.4 1.092 2.4 2.688 0 1.62-.96 2.748-2.4 2.748zm10.059 1.656c2.22 0 3.636-1.356 4.02-2.7l-1.596-.408c-.276.828-1.176 1.56-2.448 1.56-1.656 0-2.712-1.332-2.712-2.844s1.056-2.796 2.712-2.796c1.272 0 2.172.756 2.448 1.572l1.608-.396c-.384-1.332-1.8-2.724-4.068-2.724-2.496 0-4.38 1.884-4.38 4.356 0 2.484 1.884 4.38 4.416 4.38zm11.61-8.568-2.544 1.308.396 1.404 1.884-.876v6.564h1.668v-8.4z" fill="#000"/><rect fill="#fff" height="212" rx="1" width="142" x="377" y="18"/><rect height="213.5" rx="1.75" stroke="#000" stroke-opacity=".16" stroke-width="1.5" width="143.5" x="376.25" y="17.25"/><rect fill="#fff" height="19" rx="3" width="41" x="427.5" y="221"/><path d="m438.223 226.6h-3.648v8.4h3.648c2.472 0 4.02-1.776 4.02-4.2 0-2.472-1.572-4.2-4.02-4.2zm-.036 6.912h-1.98v-5.436h1.98c1.44 0 2.4 1.092 2.4 2.688 0 1.62-.96 2.748-2.4 2.748zm10.059 1.656c2.22 0 3.636-1.356 4.02-2.7l-1.596-.408c-.276.828-1.176 1.56-2.448 1.56-1.656 0-2.712-1.332-2.712-2.844s1.056-2.796 2.712-2.796c1.272 0 2.172.756 2.448 1.572l1.608-.396c-.384-1.332-1.8-2.724-4.068-2.724-2.496 0-4.38 1.884-4.38 4.356 0 2.484 1.884 4.38 4.416 4.38zm11.61-8.568-2.544 1.308.396 1.404 1.884-.876v6.564h1.668v-8.4z" fill="#000"/><rect fill="#fff" height="46" rx="2" width="46" x="57" y="158"/><rect height="47.5" rx="2.75" stroke="#000" stroke-opacity=".16" stroke-width="1.5" width="47.5" x="56.25" y="157.25"/><path d="m80.89 170.449 8 4c.6797.338 1.1096 1.031 1.11 1.79v9.53c-.0004.759-.4303 1.452-1.11 1.79l-8 4c-.5633.282-1.2266.282-1.79 0l-8-4c-.679-.342-1.1052-1.04-1.1-1.8v-9.52c.0005-.759.4304-1.452 1.11-1.79l8-4c.5607-.278 1.2194-.278 1.78 0z" style="fill-rule:evenodd;clip-rule:evenodd;stroke:#000;stroke-width:1.5;stroke-linecap:round;stroke-linejoin:round"/><path d="m70.3203 175.16 9.68 4.84 9.68-4.84" stroke="#000" stroke-linecap="round" stroke-linejoin="round" stroke-width="1.5"/><path d="m80 191.76v-11.76" stroke="#000" stroke-linecap="round" stroke-linejoin="round" stroke-width="1.5"/><rect fill="#fff" height="47.5" rx="2.75" stroke="#f25054" stroke-width="1.5" width="47.5" x="224.25" y="157.25"/><path d="m248.89 170.449 8 4c.68.338 1.11 1.031 1.11 1.79v9.53c0 .759-.43 1.452-1.11 1.79l-8 4c-.563.282-1.227.282-1.79 0l-8-4c-.679-.342-1.105-1.04-1.1-1.8v-9.52c0-.759.43-1.452 1.11-1.79l8-4c.561-.278 1.219-.278 1.78 0z" style="fill-rule:evenodd;clip-rule:evenodd;stroke:#000;stroke-width:1.5;stroke-linecap:round;stroke-linejoin:round"/><path d="m238.32 175.16 9.68 4.84 9.68-4.84" stroke="#000" stroke-linecap="round" stroke-linejoin="round" stroke-width="1.5"/><path d="m248 191.76v-11.76" stroke="#000" stroke-linecap="round" stroke-linejoin="round" stroke-width="1.5"/><rect fill="#fff" height="46" rx="2" width="46" x="393" y="158"/><rect height="47.5" rx="2.75" stroke="#000" stroke-opacity=".16" stroke-width="1.5" width="47.5" x="392.25" y="157.25"/><path d="m416.89 170.449 8 4c.68.338 1.11 1.031 1.11 1.79v9.53c0 .759-.43 1.452-1.11 1.79l-8 4c-.563.282-1.227.282-1.79 0l-8-4c-.679-.342-1.105-1.04-1.1-1.8v-9.52c0-.759.43-1.452 1.11-1.79l8-4c.561-.278 1.219-.278 1.78 0z" style="fill-rule:evenodd;clip-rule:evenodd;stroke:#000;stroke-width:1.5;stroke-linecap:round;stroke-linejoin:round"/><path d="m406.32 175.16 9.68 4.84 9.68-4.84" stroke="#000" stroke-linecap="round" stroke-linejoin="round" stroke-width="1.5"/><path d="m416 191.76v-11.76" stroke="#000" stroke-linecap="round" stroke-linejoin="round" stroke-width="1.5"/><rect fill="#fff" height="46" rx="2" width="46" x="57" y="94"/><rect height="47.5" rx="2.75" stroke="#000" stroke-opacity=".16" stroke-width="1.5" width="47.5" x="56.25" y="93.25"/><path d="m80.89 106.449 8 4c.6797.338 1.1096 1.031 1.11 1.79v9.53c-.0004.759-.4303 1.452-1.11 1.79l-8 4c-.5633.282-1.2266.282-1.79 0l-8-4c-.679-.342-1.1052-1.04-1.1-1.8v-9.52c.0005-.759.4304-1.452 1.11-1.79l8-4c.5607-.278 1.2194-.278 1.78 0z" style="fill-rule:evenodd;clip-rule:evenodd;stroke:#000;stroke-width:1.5;stroke-linecap:round;stroke-linejoin:round"/><path d="m70.3203 111.16 9.68 4.84 9.68-4.84" stroke="#000" stroke-linecap="round" stroke-linejoin="round" stroke-width="1.5"/><path d="m80 127.76v-11.76" stroke="#000" stroke-linecap="round" stroke-linejoin="round" stroke-width="1.5"/><rect fill="#fff" height="46" rx="2" width="46" x="225" y="94"/><rect height="47.5" rx="2.75" stroke="#000" stroke-opacity=".16" stroke-width="1.5" width="47.5" x="224.25" y="93.25"/><path d="m248.89 106.449 8 4c.68.338 1.11 1.031 1.11 1.79v9.53c0 .759-.43 1.452-1.11 1.79l-8 4c-.563.282-1.227.282-1.79 0l-8-4c-.679-.342-1.105-1.04-1.1-1.8v-9.52c0-.759.43-1.452 1.11-1.79l8-4c.561-.278 1.219-.278 1.78 0z" style="fill-rule:evenodd;clip-rule:evenodd;stroke:#000;stroke-width:1.5;stroke-linecap:round;stroke-linejoin:round"/><path d="m238.32 111.16 9.68 4.84 9.68-4.84" stroke="#000" stroke-linecap="round" stroke-linejoin="round" stroke-width="1.5"/><path d="m248 127.76v-11.76" stroke="#000" stroke-linecap="round" stroke-linejoin="round" stroke-width="1.5"/><rect fill="#fff" height="46" rx="2" width="46" x="393" y="94"/><rect height="47.5" rx="2.75" stroke="#000" stroke-opacity=".16" stroke-width="1.5" width="47.5" x="392.25" y="93.25"/><path d="m416.89 106.449 8 4c.68.338 1.11 1.031 1.11 1.79v9.53c0 .759-.43 1.452-1.11 1.79l-8 4c-.563.282-1.227.282-1.79 0l-8-4c-.679-.342-1.105-1.04-1.1-1.8v-9.52c0-.759.43-1.452 1.11-1.79l8-4c.561-.278 1.219-.278 1.78 0z" style="fill-rule:evenodd;clip-rule:evenodd;stroke:#000;stroke-width:1.5;stroke-linecap:round;stroke-linejoin:round"/><path d="m406.32 111.16 9.68 4.84 9.68-4.84" stroke="#000" stroke-linecap="round" stroke-linejoin="round" stroke-width="1.5"/><path d="m416 127.76v-11.76" stroke="#000" stroke-linecap="round" stroke-linejoin="round" stroke-width="1.5"/><rect fill="#fff" height="47.5" rx="2.75" stroke="#f25054" stroke-width="1.5" width="47.5" x="120.25" y="157.25"/><path d="m144.89 170.449 8 4c.68.338 1.11 1.031 1.11 1.79v9.53c0 .759-.43 1.452-1.11 1.79l-8 4c-.563.282-1.227.282-1.79 0l-8-4c-.679-.342-1.105-1.04-1.1-1.8v-9.52c0-.759.43-1.452 1.11-1.79l8-4c.561-.278 1.219-.278 1.78 0z" style="fill-rule:evenodd;clip-rule:evenodd;stroke:#000;stroke-width:1.5;stroke-linecap:round;stroke-linejoin:round"/><path d="m134.32 175.16 9.68 4.84 9.68-4.84" stroke="#000" stroke-linecap="round" stroke-linejoin="round" stroke-width="1.5"/><path d="m144 191.76v-11.76" stroke="#000" stroke-linecap="round" stroke-linejoin="round" stroke-width="1.5"/><rect fill="#fff" height="46" rx="2" width="46" x="289" y="158"/><rect height="47.5" rx="2.75" stroke="#000" stroke-opacity=".16" stroke-width="1.5" width="47.5" x="288.25" y="157.25"/><path d="m312.89 170.449 8 4c.68.338 1.11 1.031 1.11 1.79v9.53c0 .759-.43 1.452-1.11 1.79l-8 4c-.563.282-1.227.282-1.79 0l-8-4c-.679-.342-1.105-1.04-1.1-1.8v-9.52c0-.759.43-1.452 1.11-1.79l8-4c.561-.278 1.219-.278 1.78 0z" style="fill-rule:evenodd;clip-rule:evenodd;stroke:#000;stroke-width:1.5;stroke-linecap:round;stroke-linejoin:round"/><path d="m302.32 175.16 9.68 4.84 9.68-4.84" stroke="#000" stroke-linecap="round" stroke-linejoin="round" stroke-width="1.5"/><path d="m312 191.76v-11.76" stroke="#000" stroke-linecap="round" stroke-linejoin="round" stroke-width="1.5"/><rect fill="#fff" height="47.5" rx="2.75" stroke="#f25054" stroke-width="1.5" width="47.5" x="456.25" y="157.25"/><path d="m480.89 170.449 8 4c.68.338 1.11 1.031 1.11 1.79v9.53c0 .759-.43 1.452-1.11 1.79l-8 4c-.563.282-1.227.282-1.79 0l-8-4c-.679-.342-1.105-1.04-1.1-1.8v-9.52c0-.759.43-1.452 1.11-1.79l8-4c.561-.278 1.219-.278 1.78 0z" style="fill-rule:evenodd;clip-rule:evenodd;stroke:#000;stroke-width:1.5;stroke-linecap:round;stroke-linejoin:round"/><path d="m470.32 175.16 9.68 4.84 9.68-4.84" stroke="#000" stroke-linecap="round" stroke-linejoin="round" stroke-width="1.5"/><path d="m480 191.76v-11.76" stroke="#000" stroke-linecap="round" stroke-linejoin="round" stroke-width="1.5"/><rect fill="#fff" height="46" rx="2" width="46" x="121" y="94"/><rect height="47.5" rx="2.75" stroke="#000" stroke-opacity=".16" stroke-width="1.5" width="47.5" x="120.25" y="93.25"/><path d="m144.89 106.449 8 4c.68.338 1.11 1.031 1.11 1.79v9.53c0 .759-.43 1.452-1.11 1.79l-8 4c-.563.282-1.227.282-1.79 0l-8-4c-.679-.342-1.105-1.04-1.1-1.8v-9.52c0-.759.43-1.452 1.11-1.79l8-4c.561-.278 1.219-.278 1.78 0z" style="fill-rule:evenodd;clip-rule:evenodd;stroke:#000;stroke-width:1.5;stroke-linecap:round;stroke-linejoin:round"/><path d="m134.32 111.16 9.68 4.84 9.68-4.84" stroke="#000" stroke-linecap="round" stroke-linejoin="round" stroke-width="1.5"/><path d="m144 127.76v-11.76" stroke="#000" stroke-linecap="round" stroke-linejoin="round" stroke-width="1.5"/><rect fill="#fff" height="46" rx="2" width="46" x="289" y="94"/><rect height="47.5" rx="2.75" stroke="#000" stroke-opacity=".16" stroke-width="1.5" width="47.5" x="288.25" y="93.25"/><path d="m312.89 106.449 8 4c.68.338 1.11 1.031 1.11 1.79v9.53c0 .759-.43 1.452-1.11 1.79l-8 4c-.563.282-1.227.282-1.79 0l-8-4c-.679-.342-1.105-1.04-1.1-1.8v-9.52c0-.759.43-1.452 1.11-1.79l8-4c.561-.278 1.219-.278 1.78 0z" style="fill-rule:evenodd;clip-rule:evenodd;stroke:#000;stroke-width:1.5;stroke-linecap:round;stroke-linejoin:round"/><path d="m302.32 111.16 9.68 4.84 9.68-4.84" stroke="#000" stroke-linecap="round" stroke-linejoin="round" stroke-width="1.5"/><path d="m312 127.76v-11.76" stroke="#000" stroke-linecap="round" stroke-linejoin="round" stroke-width="1.5"/><rect fill="#fff" height="47.5" rx="2.75" stroke="#f25054" stroke-width="1.5" width="47.5" x="456.25" y="93.25"/><path d="m480.89 106.449 8 4c.68.338 1.11 1.031 1.11 1.79v9.53c0 .759-.43 1.452-1.11 1.79l-8 4c-.563.282-1.227.282-1.79 0l-8-4c-.679-.342-1.105-1.04-1.1-1.8v-9.52c0-.759.43-1.452 1.11-1.79l8-4c.561-.278 1.219-.278 1.78 0z" style="fill-rule:evenodd;clip-rule:evenodd;stroke:#000;stroke-width:1.5;stroke-linecap:round;stroke-linejoin:round"/><path d="m470.32 111.16 9.68 4.84 9.68-4.84" stroke="#000" stroke-linecap="round" stroke-linejoin="round" stroke-width="1.5"/><path d="m480 127.76v-11.76" stroke="#000" stroke-linecap="round" stroke-linejoin="round" stroke-width="1.5"/><rect fill="#dc477d" height="48" rx="2" width="48" x="88" y="1"/><path d="m112.117 37.6006c-1.981.0016-3.933-.4803-5.685-1.4039-1.753-.9236-3.254-2.261-4.372-3.8961-1.119-1.6351-1.822-3.5185-2.047-5.4867-.2258-1.9682.032-3.9618.752-5.8076.719-1.8458 1.878-3.4882 3.376-4.7845s3.29-2.2074 5.22-2.6542c1.93-.4469 3.94-.4159 5.856.0902 1.915.5061 3.678 1.472 5.135 2.8139l-2.888 3.0222c-1.149-1.0374-2.574-1.7194-4.102-1.9633-1.528-.244-3.095-.0393-4.509.589-1.414.6284-2.616 1.6535-3.46 2.9512-.843 1.2977-1.292 2.8121-1.292 4.3598 0 1.5476.449 3.0621 1.292 4.3597.844 1.2977 2.046 2.3228 3.46 2.9512s2.981.833 4.509.5891 2.953-.9259 4.102-1.9634l2.888 3.0223c-2.244 2.0672-5.184 3.2137-8.235 3.2111z" fill="#fff"/><path d="m121.912 31.5112c-.198 0-.39-.0585-.554-.1682-.165-.1096-.292-.2654-.368-.4478-.076-.1823-.095-.3829-.057-.5765.039-.1935.134-.3713.273-.5108.14-.1396.318-.2346.511-.2731.194-.0385.394-.0187.577.0568.182.0755.338.2034.447.3675.11.1641.169.357.169.5543-.001.2644-.106.5179-.293.7049s-.441.2923-.705.2929z" fill="#fff"/><path d="m112.04 28.0646c-.523.0022-1.034-.1507-1.469-.4393s-.775-.6999-.977-1.1818c-.201-.482-.255-1.0128-.154-1.5253.101-.5124.351-.9835.72-1.3534s.839-.6221 1.351-.7245 1.043-.0505 1.526.1491c.482.1997.895.5381 1.185.9724s.445.945.444 1.4672c-.001.6971-.278 1.3655-.77 1.8592-.492.4938-1.159.7729-1.856.7764z" fill="#fff"/><path d="m123.056 28.1127c-.197 0-.39-.0585-.554-.1681-.164-.1097-.292-.2655-.367-.4478-.076-.1823-.096-.3829-.057-.5765.038-.1935.133-.3713.273-.5109.139-.1395.317-.2345.511-.273.193-.0385.394-.0188.576.0567.183.0756.338.2034.448.3675s.168.357.168.5544c0 .2644-.106.5179-.293.7048-.187.187-.44.2924-.705.2929z" fill="#fff"/><path d="m120.09 27.9877c-.198 0-.392-.0588-.556-.1689-.164-.1102-.292-.2666-.367-.4496-.076-.183-.095-.3842-.055-.578.039-.1939.135-.3716.276-.5107s.319-.2332.514-.2705c.194-.0372.395-.0159.577.0614.182.0772.337.2068.446.3723.108.1656.164.3596.162.5574-.003.2627-.109.5136-.296.6983-.187.1848-.439.2884-.701.2883z" fill="#fff"/><path d="m123.056 24.7495c-.197 0-.39-.0586-.554-.1682s-.292-.2655-.367-.4478c-.076-.1823-.096-.3829-.057-.5765.038-.1935.133-.3713.273-.5108.139-.1396.317-.2346.511-.2731.193-.0385.394-.0188.576.0568.183.0755.338.2034.448.3674.11.1641.168.357.168.5544 0 .2644-.106.5179-.293.7049s-.44.2923-.705.2929z" fill="#fff"/><path d="m120.09 24.8627c-.198 0-.391-.0585-.555-.1681-.164-.1097-.292-.2655-.367-.4478-.076-.1823-.096-.3829-.057-.5765.038-.1935.133-.3713.273-.5109.14-.1395.317-.2345.511-.273.193-.0385.394-.0188.576.0567.183.0756.339.2034.448.3675.11.1641.168.357.168.5544 0 .2646-.105.5184-.292.7055s-.441.2922-.705.2922z" fill="#fff"/><path d="m121.969 21.394c-.198.0004-.391-.0577-.555-.1671-.165-.1094-.293-.265-.369-.4473s-.096-.383-.057-.5767c.038-.1937.133-.3717.272-.5114.14-.1398.317-.235.511-.2737s.394-.0191.577.0564c.182.0754.338.2033.448.3674.11.1642.168.3572.168.5546 0 .2643-.105.5177-.291.7048-.187.187-.44.2924-.704.293z" fill="#fff"/><rect fill="#dc477d" height="48" rx="2" width="48" x="256" y="1"/><path d="m280.117 37.6006c-1.981.0016-3.933-.4803-5.685-1.4039-1.753-.9236-3.254-2.261-4.372-3.8961-1.119-1.6351-1.822-3.5185-2.047-5.4867-.226-1.9682.032-3.9618.752-5.8076.719-1.8458 1.878-3.4882 3.376-4.7845s3.29-2.2074 5.22-2.6542c1.93-.4469 3.94-.4159 5.856.0902 1.915.5061 3.678 1.472 5.135 2.8139l-2.888 3.0222c-1.149-1.0374-2.574-1.7194-4.102-1.9633-1.528-.244-3.095-.0393-4.509.589-1.414.6284-2.616 1.6535-3.46 2.9512-.843 1.2977-1.292 2.8121-1.292 4.3598 0 1.5476.449 3.0621 1.292 4.3597.844 1.2977 2.046 2.3228 3.46 2.9512s2.981.833 4.509.5891 2.953-.9259 4.102-1.9634l2.888 3.0223c-2.244 2.0672-5.184 3.2137-8.235 3.2111z" fill="#fff"/><path d="m289.912 31.5112c-.198 0-.39-.0585-.554-.1682-.165-.1096-.292-.2654-.368-.4478-.076-.1823-.095-.3829-.057-.5765.039-.1935.134-.3713.273-.5108.14-.1396.318-.2346.511-.2731.194-.0385.394-.0187.577.0568.182.0755.338.2034.447.3675.11.1641.169.357.169.5543-.001.2644-.106.5179-.293.7049s-.441.2923-.705.2929z" fill="#fff"/><path d="m280.04 28.0646c-.523.0022-1.034-.1507-1.469-.4393s-.775-.6999-.977-1.1818c-.201-.482-.255-1.0128-.154-1.5253.101-.5124.351-.9835.72-1.3534s.839-.6221 1.351-.7245 1.043-.0505 1.526.1491c.482.1997.895.5381 1.185.9724s.445.945.444 1.4672c-.001.6971-.278 1.3655-.77 1.8592-.492.4938-1.159.7729-1.856.7764z" fill="#fff"/><path d="m291.056 28.1127c-.197 0-.39-.0585-.554-.1681-.164-.1097-.292-.2655-.367-.4478-.076-.1823-.096-.3829-.057-.5765.038-.1935.133-.3713.273-.5109.139-.1395.317-.2345.511-.273.193-.0385.394-.0188.576.0567.183.0756.338.2034.448.3675s.168.357.168.5544c0 .2644-.106.5179-.293.7048-.187.187-.44.2924-.705.2929z" fill="#fff"/><path d="m288.09 27.9877c-.198 0-.392-.0588-.556-.1689-.164-.1102-.292-.2666-.367-.4496-.076-.183-.095-.3842-.055-.578.039-.1939.135-.3716.276-.5107s.319-.2332.514-.2705c.194-.0372.395-.0159.577.0614.182.0772.337.2068.446.3723.108.1656.164.3596.162.5574-.003.2627-.109.5136-.296.6983-.187.1848-.439.2884-.701.2883z" fill="#fff"/><path d="m291.056 24.7495c-.197 0-.39-.0586-.554-.1682s-.292-.2655-.367-.4478c-.076-.1823-.096-.3829-.057-.5765.038-.1935.133-.3713.273-.5108.139-.1396.317-.2346.511-.2731.193-.0385.394-.0188.576.0568.183.0755.338.2034.448.3674.11.1641.168.357.168.5544 0 .2644-.106.5179-.293.7049s-.44.2923-.705.2929z" fill="#fff"/><path d="m288.09 24.8627c-.198 0-.391-.0585-.555-.1681-.164-.1097-.292-.2655-.367-.4478-.076-.1823-.096-.3829-.057-.5765.038-.1935.133-.3713.273-.5109.14-.1395.317-.2345.511-.273.193-.0385.394-.0188.576.0567.183.0756.339.2034.448.3675.11.1641.168.357.168.5544 0 .2646-.105.5184-.292.7055s-.441.2922-.705.2922z" fill="#fff"/><path d="m289.969 21.394c-.198.0004-.391-.0577-.555-.1671-.165-.1094-.293-.265-.369-.4473s-.096-.383-.057-.5767c.038-.1937.133-.3717.272-.5114.14-.1398.317-.235.511-.2737s.394-.0191.577.0564c.182.0754.338.2033.448.3674.11.1642.168.3572.168.5546 0 .2643-.105.5177-.291.7048-.187.187-.44.2924-.704.293z" fill="#fff"/><rect fill="#dc477d" height="48" rx="2" width="48" x="424" y="1"/><path d="m448.117 37.6006c-1.981.0016-3.933-.4803-5.685-1.4039-1.753-.9236-3.254-2.261-4.372-3.8961-1.119-1.6351-1.822-3.5185-2.047-5.4867-.226-1.9682.032-3.9618.752-5.8076.719-1.8458 1.878-3.4882 3.376-4.7845s3.29-2.2074 5.22-2.6542c1.93-.4469 3.94-.4159 5.856.0902 1.915.5061 3.678 1.472 5.135 2.8139l-2.888 3.0222c-1.149-1.0374-2.574-1.7194-4.102-1.9633-1.528-.244-3.095-.0393-4.509.589-1.414.6284-2.616 1.6535-3.46 2.9512-.843 1.2977-1.292 2.8121-1.292 4.3598 0 1.5476.449 3.0621 1.292 4.3597.844 1.2977 2.046 2.3228 3.46 2.9512s2.981.833 4.509.5891 2.953-.9259 4.102-1.9634l2.888 3.0223c-2.244 2.0672-5.184 3.2137-8.235 3.2111z" fill="#fff"/><path d="m457.912 31.5112c-.198 0-.39-.0585-.554-.1682-.165-.1096-.292-.2654-.368-.4478-.076-.1823-.095-.3829-.057-.5765.039-.1935.134-.3713.273-.5108.14-.1396.318-.2346.511-.2731.194-.0385.394-.0187.577.0568.182.0755.338.2034.447.3675.11.1641.169.357.169.5543-.001.2644-.106.5179-.293.7049s-.441.2923-.705.2929z" fill="#fff"/><path d="m448.04 28.0646c-.523.0022-1.034-.1507-1.469-.4393s-.775-.6999-.977-1.1818c-.201-.482-.255-1.0128-.154-1.5253.101-.5124.351-.9835.72-1.3534s.839-.6221 1.351-.7245 1.043-.0505 1.526.1491c.482.1997.895.5381 1.185.9724s.445.945.444 1.4672c-.001.6971-.278 1.3655-.77 1.8592-.492.4938-1.159.7729-1.856.7764z" fill="#fff"/><path d="m459.056 28.1127c-.197 0-.39-.0585-.554-.1681-.164-.1097-.292-.2655-.367-.4478-.076-.1823-.096-.3829-.057-.5765.038-.1935.133-.3713.273-.5109.139-.1395.317-.2345.511-.273.193-.0385.394-.0188.576.0567.183.0756.338.2034.448.3675s.168.357.168.5544c0 .2644-.106.5179-.293.7048-.187.187-.44.2924-.705.2929z" fill="#fff"/><path d="m456.09 27.9877c-.198 0-.392-.0588-.556-.1689-.164-.1102-.292-.2666-.367-.4496-.076-.183-.095-.3842-.055-.578.039-.1939.135-.3716.276-.5107s.319-.2332.514-.2705c.194-.0372.395-.0159.577.0614.182.0772.337.2068.446.3723.108.1656.164.3596.162.5574-.003.2627-.109.5136-.296.6983-.187.1848-.439.2884-.701.2883z" fill="#fff"/><path d="m459.056 24.7495c-.197 0-.39-.0586-.554-.1682s-.292-.2655-.367-.4478c-.076-.1823-.096-.3829-.057-.5765.038-.1935.133-.3713.273-.5108.139-.1396.317-.2346.511-.2731.193-.0385.394-.0188.576.0568.183.0755.338.2034.448.3674.11.1641.168.357.168.5544 0 .2644-.106.5179-.293.7049s-.44.2923-.705.2929z" fill="#fff"/><path d="m456.09 24.8627c-.198 0-.391-.0585-.555-.1681-.164-.1097-.292-.2655-.367-.4478-.076-.1823-.096-.3829-.057-.5765.038-.1935.133-.3713.273-.5109.14-.1395.317-.2345.511-.273.193-.0385.394-.0188.576.0567.183.0756.339.2034.448.3675.11.1641.168.357.168.5544 0 .2646-.105.5184-.292.7055s-.441.2922-.705.2922z" fill="#fff"/><path d="m457.969 21.394c-.198.0004-.391-.0577-.555-.1671-.165-.1094-.293-.265-.369-.4473s-.096-.383-.057-.5767c.038-.1937.133-.3717.272-.5114.14-.1398.317-.235.511-.2737s.394-.0191.577.0564c.182.0754.338.2033.448.3674.11.1642.168.3572.168.5546 0 .2643-.105.5177-.291.7048-.187.187-.44.2924-.704.293z" fill="#fff"/><g stroke-width="2"><path d="m80 91v-12c0-4.4183 3.5817-8 8-8h8" stroke="#343536" stroke-linejoin="round"/><path d="m112 51v12c0 4.4183-3.582 8-8 8h-8" stroke="#343536" stroke-linejoin="round"/><path d="m112 53v-4" stroke="#343536"/><path d="m0-1h4" stroke="#343536" transform="matrix(-.00000004 1 1 .00000004 81 89)"/><path d="m248 91v-12c0-4.4183 3.582-8 8-8h8" stroke="#343536" stroke-linejoin="round"/><path d="m280 51v12c0 4.4183-3.582 8-8 8h-8" stroke="#343536" stroke-linejoin="round"/><path d="m280 53v-4" stroke="#343536"/><path d="m0-1h4" stroke="#343536" transform="matrix(-.00000004 1 1 .00000004 249 89)"/><path d="m416 91v-12c0-4.4183 3.582-8 8-8h8" stroke="#343536" stroke-linejoin="round"/><path d="m448 51v12c0 4.4183-3.582 8-8 8h-8" stroke="#343536" stroke-linejoin="round"/><path d="m448 53v-4" stroke="#343536"/><path d="m0-1h4" stroke="#343536" transform="matrix(-.00000004 1 1 .00000004 417 89)"/><path d="m80 143v12" stroke="#343536"/><path d="m80 145v-4" stroke="#343536"/><path d="m80 153v4" stroke="#343536"/><path d="m248 143-2 12" stroke="#000" stroke-dasharray="4 2" stroke-linejoin="round"/><path d="m248 145v-4" stroke="#000"/><path d="m248 153v4" stroke="#000"/><path d="m416 143v12" stroke="#343536"/><path d="m416 145v-4" stroke="#343536"/><path d="m416 153v4" stroke="#343536"/><path d="m144 143-2 12" stroke="#000" stroke-dasharray="4 2" stroke-linejoin="round"/><path d="m144 145v-4" stroke="#000"/><path d="m144 153v4" stroke="#000"/><path d="m312 143v12" stroke="#343536"/><path d="m312 145v-4" stroke="#343536"/><path d="m312 153v4" stroke="#343536"/><path d="m480 143-2 12" stroke="#000" stroke-dasharray="4 2" stroke-linejoin="round"/><path d="m480 145v-4" stroke="#000"/><path d="m480 153v4" stroke="#000"/><path d="m144 91v-12c0-4.4183-3.582-8-8-8h-8" stroke="#343536" stroke-linejoin="round"/><path d="m112 51v12c0 4.4183 3.582 8 8 8h8" stroke="#343536" stroke-linejoin="round"/><path d="m0-1h4" stroke="#343536" transform="matrix(-.00000013 -1 -1 .00000013 111 53)"/><path d="m144 89v4" stroke="#343536"/><path d="m312 91v-12c0-4.4183-3.582-8-8-8h-8" stroke="#343536" stroke-linejoin="round"/><path d="m280 51v12c0 4.4183 3.582 8 8 8h8" stroke="#343536" stroke-linejoin="round"/><path d="m0-1h4" stroke="#343536" transform="matrix(-.00000013 -1 -1 .00000013 279 53)"/><path d="m312 89v4" stroke="#343536"/><path d="m480 91v-12c0-4.4183-3.582-8-8-8h-8" stroke="#000" stroke-dasharray="4 2" stroke-linejoin="round"/><path d="m448 51v12c0 4.4183 3.582 8 8 8h8" stroke="#000" stroke-dasharray="4 2" stroke-linejoin="round"/><path d="m0-1h4" stroke="#000" transform="matrix(-.00000013 -1 -1 .00000013 447 53)"/><path d="m480 89v4" stroke="#000"/></g><path d="m99.3327 130.916-4.5834 4.583-2.0833-2.083" stroke="#00bc7f" stroke-linecap="round" stroke-linejoin="round" stroke-width="1.5"/><path d="m267.333 130.916-4.584 4.583-2.083-2.083" stroke="#00bc7f" stroke-linecap="round" stroke-linejoin="round" stroke-width="1.5"/><path d="m435.333 130.916-4.584 4.583-2.083-2.083" stroke="#00bc7f" stroke-linecap="round" stroke-linejoin="round" stroke-width="1.5"/><path d="m99.3327 194.916-4.5834 4.583-2.0833-2.083" stroke="#00bc7f" stroke-linecap="round" stroke-linejoin="round" stroke-width="1.5"/><path d="m331.333 194.916-4.584 4.583-2.083-2.083" stroke="#00bc7f" stroke-linecap="round" stroke-linejoin="round" stroke-width="1.5"/><path d="m435.333 194.916-4.584 4.583-2.083-2.083" stroke="#00bc7f" stroke-linecap="round" stroke-linejoin="round" stroke-width="1.5"/><path d="m163.333 130.916-4.584 4.583-2.083-2.083" stroke="#00bc7f" stroke-linecap="round" stroke-linejoin="round" stroke-width="1.5"/><path d="m331.333 130.916-4.584 4.583-2.083-2.083" stroke="#00bc7f" stroke-linecap="round" stroke-linejoin="round" stroke-width="1.5"/></svg>