<?xml version="1.0" encoding="utf-8"?>
<!-- Generator: Adobe Illustrator 16.0.4, SVG Export Plug-In . SVG Version: 6.00 Build 0)  -->
<!DOCTYPE svg PUBLIC "-//W3C//DTD SVG 1.1//EN" "http://www.w3.org/Graphics/SVG/1.1/DTD/svg11.dtd">
<svg version="1.1" id="Layer_1" xmlns="http://www.w3.org/2000/svg" xmlns:xlink="http://www.w3.org/1999/xlink" x="0px" y="0px"
	 width="612px" height="792px" viewBox="0 0 612 792" enable-background="new 0 0 612 792" xml:space="preserve">
<g>
	<g>
		<path d="M154.052,76.241c10.681-8.782,3.588-20.696-12.337-26.869c-15.309-5.933-37.532-7.387-56.044-4.262
			c-18.796,3.172-32.162,11.686-32.666,21.118c-0.229,4.29,1.896,8.042,7.671,11.352c5.697,3.265,12.161,6.792,2.758,10.097
			c-8.105,2.85-18.778-7.402-21.136-10.002c-4.056-4.473-5.488-9.398-3.993-14.213c2.806-9.027,15.201-16.963,31.182-21.916
			c34.946-10.833,85.57-4.717,100.078,14.564c6.556,8.711,4.88,19.903-7.062,27.454c-5.614,3.551-11.549,5.773-16.888,0.982
			C140.617,80.059,149.731,79.796,154.052,76.241C155.643,74.934,150.942,78.8,154.052,76.241z"/>
	</g>
	<g>
		<path d="M69.803,53.415c9.383-1.565,22.669-0.927,23.936,11.051c1.421,13.428-9.656,17.551-20.973,16.882
			c-3.458-0.205-2.963-0.236-2.963-3.303c0-3.191,0-6.385,0-9.578C69.803,63.45,69.803,58.433,69.803,53.415z M74.936,77.243
			c16.341,2.88,18.328-21.835,1.408-20.322C73.292,57.193,74.936,73.821,74.936,77.243z"/>
		<path d="M98.309,81.165c0-9.286,0-18.574,0-27.86c0-0.599,4.236-0.265,4.929-0.265c1.763,0,2.513,2.658,3.353,4.054
			c3.453,5.732,6.742,11.513,9.703,17.437c-0.455-5.115-0.459-10.242-0.459-15.373c0-4.701-1.362-6.118,3.523-6.118
			c2.199,0,1.234,2.711,1.234,4.623c0,4.144,0,8.289,0,12.433c0,3.351,0,6.702,0,10.052c0,1.737-4.01,1.705-5.3,1.018
			c-1.832-0.974-3.821-6.426-4.876-8.2c-2.689-4.522-5.418-9.038-7.518-13.874c-0.348,5.26,0.126,11.02,0.126,16.468
			C103.025,81.025,103.875,81.165,98.309,81.165z"/>
		<path d="M126.397,75.574c2.999,1.725,13.575,3.604,11.812-3.04c-1.281-4.829-9.801-4.044-11.945-9.107
			c-2.32-5.475,2.493-10.124,7.638-10.743c2.814-0.339,5.972,0.005,8.519,1.315c0.313,0.586-1.037,3.421-1.252,4.132
			c-2.699-1.464-13.736-1.668-9.705,3.885c3.197,4.405,10.883,3.004,11.973,9.691c0.906,5.572-3.522,9.24-8.687,9.779
			c-3.075,0.322-6.767-0.044-9.479-1.656C124.935,79.145,126.185,76.374,126.397,75.574z"/>
	</g>
</g>
</svg>
