<svg width="400" height="200" viewBox="0 0 400 200" fill="none" xmlns="http://www.w3.org/2000/svg">
<path d="M12.0308 35.5085H7.98244e-07C1.55679 34.0765 1.98206 28.9217 2.54759 19.6154L2.68875 17.4675C3.11357 12.3128 3.25517 8.16122 3.25517 5.29711C3.25517 2.8632 2.97196 1.28789 2.26437 0.715345H15.7103C18.966 0.715345 25.3352 0.858138 25.3352 7.58776C25.3352 12.1695 21.2304 14.8899 17.4092 15.8922C22.7876 16.3215 26.7508 19.0419 26.7508 24.6264C26.8924 30.6403 21.2308 35.5085 12.0308 35.5085ZM11.606 18.6126H9.2L8.77562 23.7674C8.63402 26.058 8.49241 27.9199 8.49241 30.2105C8.49241 30.497 9.48321 31.2128 11.748 31.2128C16.5604 31.2128 19.674 28.7785 19.674 24.7692C19.8152 20.3312 15.994 18.6126 11.606 18.6126ZM12.5972 4.86734C11.8896 4.86734 11.0404 4.86735 10.1908 5.01015C9.76643 7.44451 9.62482 9.73516 9.48367 12.4556C9.48367 12.4556 9.34206 14.6034 9.34206 14.4602H10.1913C14.5788 14.4602 18.5425 12.8853 18.5425 8.87611C18.6832 6.58545 16.7016 4.86734 12.5972 4.86734ZM55.0584 35.7946C52.0864 35.7946 51.8032 35.6513 49.5388 27.4901L48.6892 24.4832C47.274 25.199 44.7264 25.485 40.7632 25.485H36.6584L35.9508 27.0599C35.2432 28.6352 33.5448 31.9286 33.5448 33.9328C33.5448 34.3621 33.5448 34.7918 33.686 35.5076H25.4768C27.7412 33.217 30.8556 27.6324 34.96 18.7554L37.366 13.6007C39.4892 8.87564 41.8952 3.57763 41.8952 2.86229C41.8952 2.14649 41.754 1.57349 41.4708 0.85723H48.9724C48.9724 0.85723 50.954 8.30265 52.6524 14.603L54.068 20.0438C56.6156 29.3506 58.314 33.7891 60.2956 35.5076C58.314 35.6513 55.908 35.7946 55.0584 35.7946ZM44.3016 8.87657L38.64 21.0474H47.6984L44.3016 8.87657ZM87.6124 36.9401C85.0648 36.9401 84.4988 36.5108 83.6497 35.3653L73.8837 21.906C73.1761 20.7605 72.468 20.0447 71.3361 20.0447H71.1949L71.0533 22.7651C70.9122 26.345 70.6289 29.2082 70.6289 31.3561C70.6289 33.6467 70.9122 35.0788 71.6198 35.6513H62.2781C63.6938 34.5058 64.1181 30.497 64.9673 19.7582L65.1085 17.6103C65.5329 12.456 65.6749 8.30401 65.6749 5.43989C65.6749 3.00599 65.3917 1.43114 64.6841 0.858135H77.2814C81.5273 0.858135 87.0473 1.57394 87.0473 8.30356C87.0473 13.8876 83.3673 16.8945 78.8381 18.3261C79.2625 18.7559 80.1117 19.7582 80.5365 20.3312L87.4722 29.6375C91.8597 35.5081 92.1425 35.7946 93.7002 36.5104C91.8588 36.7969 89.3108 36.9401 87.6124 36.9401ZM75.1568 5.01061C74.3076 5.01061 73.3168 5.0106 72.4676 5.15386C72.1844 6.58546 72.0432 9.16261 71.76 13.3151L71.6188 15.7494C72.0432 15.8922 72.7513 15.8922 73.1756 15.8922C77.4216 15.8922 80.394 13.1718 80.394 9.30585C80.2524 6.58545 78.4124 5.01061 75.1568 5.01061ZM105.871 36.2243C96.954 36.2243 91.8588 28.7789 91.8588 20.6172C91.8588 9.16306 98.0864 0.142335 109.834 0.142335C113.514 0.142335 115.212 0.858135 118.326 0.858135L117.477 9.73562C115.778 6.58546 112.948 4.58085 109.268 4.58085C101.908 4.58085 98.9356 12.5988 98.9356 19.4717C98.9356 26.9171 103.182 31.0696 108.56 31.0696C111.532 31.0696 114.222 30.3538 118.609 27.2036C116.769 32.6444 112.664 36.2243 105.871 36.2243ZM166.449 35.7946C163.477 35.7946 163.336 35.6513 160.929 27.4901L160.08 24.4832C158.664 25.199 156.117 25.485 152.154 25.485H147.908L147.2 27.0599C146.068 29.351 144.794 32.0714 144.794 33.9328C144.794 34.3621 144.936 34.9351 144.936 35.5076H120.591C122.006 33.9328 122.431 28.778 123.138 19.6145L123.28 17.4666C123.704 12.1691 123.846 8.1603 123.846 5.29619C123.846 3.00553 123.563 1.43023 122.997 0.714426H132.48C131.064 1.71627 130.64 7.3008 130.074 16.6076L129.932 18.7554C129.791 22.1916 129.225 25.7711 129.225 29.0645C129.225 30.6393 129.791 31.0691 131.489 31.0691C137.292 31.0691 138.566 30.9263 141.255 29.2078C142.954 26.2008 144.652 22.4781 146.492 18.6122L148.898 13.4579C151.162 8.5896 153.427 3.57809 153.427 2.71904C153.427 2.00324 153.286 1.43068 153.003 0.714426H160.504C160.504 0.714426 163.477 12.0258 164.184 14.4597L165.6 19.901C168.148 29.2073 169.705 33.6463 171.969 35.3648C169.988 35.6513 167.298 35.7946 166.449 35.7946ZM155.692 8.87657L150.172 21.0474H159.089L155.692 8.87657ZM187.963 16.7513C187.256 18.1833 186.123 19.9014 185.557 21.333C184.991 23.9102 184.849 27.3469 184.849 31.0696C184.849 32.6444 185.132 34.7923 185.84 35.5081H176.498C178.197 33.9332 178.763 24.3399 178.763 21.1898C177.489 16.8945 175.79 12.5988 173.243 7.44451C171.544 4.29435 169.704 1.28743 168.43 0.714886C170.554 0.571635 173.243 0.428388 174.517 0.428388C176.781 0.428388 177.489 0.714882 178.904 3.86459C181.169 9.01935 182.726 12.8849 183.717 15.6053C185.981 11.8826 187.68 9.30541 189.803 5.72595C190.228 4.8669 190.794 3.72134 190.794 2.71904C190.794 2.00324 190.652 1.00093 190.369 0.714426H199.569C197.588 1.14464 189.662 13.8881 187.963 16.7513ZM219.102 8.87657C217.686 6.29987 214.572 4.29481 211.176 4.29481C208.203 4.29481 205.656 5.44035 205.656 8.59051C205.656 11.3109 208.911 13.029 212.308 15.3197C215.988 17.6103 219.81 20.4744 219.81 25.4855C219.81 31.9291 213.582 36.0815 206.222 36.0815C203.249 36.0815 200.136 35.5085 196.597 34.2202L197.163 25.6292C198.862 29.0654 201.976 31.7858 206.646 31.7858C210.185 31.7858 213.016 30.0673 213.016 26.9176C213.016 24.3404 210.892 22.6223 208.203 21.0474C202.542 17.6112 199.003 14.8904 199.003 9.87932C199.003 2.43391 205.089 4.45522e-06 211.6 4.45522e-06C215.28 4.45522e-06 217.686 0.715805 219.951 0.715805L219.102 8.87657Z" transform="translate(55.9075 4.45742)" fill="white"/>
<path d="M41.8608 10.1663C41.436 9.16398 40.7284 8.01843 39.4544 7.15937C38.8884 6.73008 38.1808 6.30032 37.4727 6.01381C36.9063 5.87102 36.3403 5.72731 35.6328 5.72731H35.4911C34.6419 5.72731 33.0852 5.87057 32.236 7.15937C31.8116 7.58867 31.6695 8.44817 31.8116 9.16397C31.9528 9.73698 32.3776 10.3095 32.944 10.4528C32.944 10.4528 33.0852 10.5956 33.3684 10.5956C33.3684 10.7388 33.2268 11.0249 33.2268 11.0249C32.8024 11.4542 32.0944 12.1704 29.9716 12.1704H29.83C28.6976 12.0276 27.8484 11.7411 26.5748 10.4523C25.8672 9.59327 25.4424 8.01797 25.4424 5.58407C25.4424 4.29572 25.3008 3.29342 25.0176 2.43437C24.8764 1.86136 24.3104 1.28881 23.8852 1.00231C23.4608 0.715803 23.178 0.573008 22.47 0.286505C21.6203 0.14371 20.7711 6.90559e-06 20.0636 6.90559e-06C19.2144 6.90559e-06 18.6479 0.14325 18.3652 0.573004H17.516C17.0916 0.573004 16.5256 0.715793 16.1008 0.715793C15.2511 0.858588 14.6852 1.28881 14.1187 1.71811C13.9776 1.8609 13.4111 2.43391 13.2695 3.00646C13.2695 3.43576 13.4107 3.8655 13.4107 4.00876L13.5523 4.15155C13.8355 3.86504 14.4015 3.72226 15.1091 3.72226C16.0999 3.72226 17.5151 4.15155 17.7983 4.86781C18.5059 6.01336 18.2227 6.87241 18.2227 7.87472C17.7983 10.5951 16.8075 11.8839 14.6843 12.17C14.2599 12.3132 13.8351 12.3132 13.5518 12.3132C11.9951 12.3132 10.8627 11.8839 10.2962 10.8812V10.5947C10.2962 10.5947 10.4378 10.5947 10.5794 10.4519C11.1454 10.1654 11.5702 9.73607 11.7118 9.16307C11.853 8.44772 11.7118 7.73146 11.2875 7.15846C10.4383 6.2994 9.30542 5.7264 8.03185 5.7264C7.18265 5.7264 6.61622 5.86966 6.05024 6.01291C4.3514 6.44221 2.79461 7.87426 1.66265 10.1654C0.813456 11.8839 0.247025 13.8881 0.105868 16.1792C-0.0352892 18.4703 -0.0352892 20.3316 0.105868 22.0497C0.247025 24.9129 0.813456 26.6315 1.5215 28.4929C2.22908 30.3538 3.07828 32.0723 4.06863 33.6472C4.35185 34.0765 4.49346 34.5062 4.77622 34.7927L4.91783 34.6499C5.05899 34.5067 5.20104 34.3634 5.3422 34.0769C5.90818 33.6476 6.89899 32.2156 7.1822 31.7863C7.46542 31.357 7.88979 30.6407 8.17255 29.9249L8.31416 29.6389L8.59738 29.7817C8.88014 30.0682 9.02175 30.4975 9.02175 30.9272C9.02175 31.357 8.88014 31.7863 8.59738 32.6458C8.31416 33.6476 7.74773 34.7932 7.18175 35.9387C7.32291 36.082 7.32291 36.3685 7.18175 36.3685C6.75738 37.0838 6.75738 37.3703 6.75738 37.6568H6.89853C7.03969 37.6568 7.60612 37.514 8.03095 37.0838C8.45532 36.7978 9.58773 35.7955 11.0034 33.7909C12.1358 32.3588 12.8434 30.784 13.6926 29.0659L13.8342 28.7794L14.1169 28.9226C14.2585 29.0654 14.4001 29.0654 14.5413 29.2087C14.6829 29.4952 14.6829 29.9245 14.6829 30.3542C14.5413 31.4998 13.8337 33.0751 13.4089 34.2206C12.5597 36.2252 11.0029 38.3731 9.87049 39.948C9.87049 40.0907 9.58728 40.3772 9.44612 40.3772C9.58728 40.5205 9.72934 40.6637 10.0121 40.8065L10.4369 41.2358C11.9937 42.5247 13.4089 43.527 15.2489 44.5293C16.6645 45.3883 19.4953 46.8199 21.4769 47.3929C23.4585 46.9636 26.2893 45.3878 27.705 44.5293C29.545 43.5274 30.9601 42.5247 32.5174 41.2358L32.9417 40.8065C33.2245 40.6637 33.3661 40.3772 33.5077 40.3772C33.6493 40.0907 33.6493 39.948 33.6493 39.8047L33.5077 39.6614C32.3753 38.2294 30.8185 35.9387 29.9693 33.9341C29.545 32.7886 28.8369 31.2137 28.6953 30.0682C28.5542 29.6389 28.6953 29.2087 28.8369 28.9226L29.1197 28.6361C29.2613 28.4933 29.5445 28.4933 29.5445 28.4933L29.6857 28.7794C30.5349 30.4979 31.3845 32.0728 32.3749 33.5044C33.7905 35.509 34.9225 36.5113 35.3473 36.7978C35.7717 37.2271 36.1965 37.3703 36.4797 37.3703H36.6213C36.7625 37.2275 36.6213 36.941 36.1965 36.2248C36.0553 36.082 36.0553 35.9383 36.0553 35.7955C35.4893 34.6499 34.9229 33.5048 34.6397 32.5021C34.3565 31.643 34.2153 31.07 34.2153 30.784C34.2153 30.3542 34.3565 29.9245 34.6397 29.6384L34.9229 29.4952L35.0641 29.7817C35.3473 30.4975 35.9137 31.3565 36.1965 31.7863C36.4797 32.2156 37.6121 33.5048 37.8953 33.9341C38.1785 34.2206 38.3197 34.3634 38.3197 34.5067L38.4608 34.6499C38.6025 34.5067 38.7441 34.2206 39.0273 33.6476L39.1684 33.5048C40.0181 32.0728 40.8673 30.2114 41.5749 28.3501C42.2825 26.632 42.7073 24.7706 42.9905 21.907C43.1316 20.1888 43.2733 18.3275 42.9905 16.0368C43.1344 13.889 42.5679 11.7411 41.8608 10.1663Z" transform="translate(0.317993 0.017519)" fill="white"/>
</svg>
