<svg width="110" height="76" viewBox="0 0 110 76" fill="none" xmlns="http://www.w3.org/2000/svg">
<path fill-rule="evenodd" clip-rule="evenodd" d="M109.219 27.1574C109.954 27.5264 109.954 28.5759 109.219 28.9449L92.4109 37.3797C92.1303 37.5629 91.9578 37.8769 91.9578 38.217V55.4843C91.9578 55.8631 91.7438 56.2093 91.405 56.3787L55.5494 74.3065C55.2679 74.4473 54.9365 74.4473 54.655 74.3065L24.942 59.45C24.6032 59.2806 24.3892 58.9343 24.3892 58.5556V40.7458L24.3893 40.7459L30.6969 37.4965C30.9794 37.351 31.3143 37.3484 31.599 37.4895L54.6563 48.9196C54.9372 49.0589 55.2672 49.0583 55.5476 48.9181L96.387 28.4984C96.7556 28.3141 96.7556 27.7882 96.387 27.6039L55.5477 7.18425C55.2672 7.04401 54.9372 7.04346 54.6562 7.18276L5.96154 31.3272L0.864731 28.9287C0.109161 28.5731 0.0964234 27.5029 0.843316 27.1295L54.6543 0.223981C54.9363 0.0829866 55.2682 0.0832301 55.55 0.224637L109.219 27.1574Z" fill="var(--gray-2, #343536)"/>
<path opacity="0.5" d="M5.96143 31.3271L54.6561 7.18261C54.937 7.04331 55.2671 7.04386 55.5475 7.1841L96.3869 27.6038C96.7555 27.7881 96.7555 28.314 96.3869 28.4982L55.5475 48.9179C55.267 49.0582 54.9371 49.0587 54.6561 48.9195L31.1461 37.2649L24.3892 40.7457L5.96143 31.3271Z" fill="white"/>
<path d="M38.781 22.3855C38.4888 22.2158 38.1307 22.2052 37.829 22.3572L12.044 35.3481C11.7046 35.5191 11.4915 35.8676 11.4939 36.2476L11.715 70.9796C11.7172 71.3225 11.8949 71.6403 12.1858 71.8218L17.4823 75.1248C17.8153 75.3325 18.2468 75.0931 18.2468 74.7006V39.416C18.2468 39.2272 18.3532 39.0544 18.5219 38.9695L43.8356 26.2145C44.1902 26.0358 44.2051 25.5349 43.8617 25.3356L38.781 22.3855Z" fill="var(--consul, #dc477d)"/>
</svg>
