<?xml version="1.0" encoding="UTF-8"?>
<svg viewBox="0 0 22 20" version="1.1" xmlns="http://www.w3.org/2000/svg" xmlns:xlink="http://www.w3.org/1999/xlink">
    <title>Kubernetes</title>
    <g id="Page-1" stroke="none" stroke-width="1" fill="none" fill-rule="evenodd">
        <path d="M1,9 L3.05,9.1 C3.29494666,6.88707306 4.45549438,4.87787483 6.25,3.56 L5.13,1.84 C4.86,1.36 5,0.75 5.5,0.47 C6,0.2 6.59,0.36 6.87,0.84 L7.8,2.66 C9.84293475,1.78170549 12.1570653,1.78170549 14.2,2.66 L15.13,0.84 C15.41,0.36 16,0.2 16.5,0.47 C17,0.75 17.14,1.36 16.87,1.84 L15.75,3.56 C17.5445056,4.87787483 18.7050533,6.88707306 18.95,9.1 L21,9 C21.5522847,9 22,9.44771525 22,10 C22,10.5522847 21.5522847,11 21,11 L18.95,10.9 C18.7050533,13.1129269 17.5445056,15.1221252 15.75,16.44 L16.87,18.16 C17.14,18.64 17,19.25 16.5,19.53 C16,19.8 15.41,19.64 15.13,19.16 L14.2,17.34 C12.1570653,18.2182945 9.84293475,18.2182945 7.8,17.34 L6.87,19.16 C6.59,19.64 6,19.8 5.5,19.53 C5,19.25 4.86,18.64 5.13,18.16 L6.25,16.44 C4.45549438,15.1221252 3.29494666,13.1129269 3.05,10.9 L1,11 C0.44771525,11 0,10.5522847 0,10 C0,9.44771525 0.44771525,9 1,9 M8.07,9.35 C8.2,8.74 8.53,8.2 9,7.79 L7.34,5.25 C6.08536596,6.21292056 5.2622262,7.63274679 5.05,9.2 L8.07,9.35 M11,7 C11.32,7 11.62,7.05 11.9,7.14 L13.28,4.45 C12.58,4.16 11.81,4 11,4 C10.19,4 9.42,4.16 8.72,4.45 L10.1,7.14 C10.38,7.05 10.68,7 11,7 M13.93,9.35 L16.95,9.2 C16.7377738,7.63274679 15.914634,6.21292056 14.66,5.25 L13,7.79 C13.47,8.2 13.8,8.74 13.93,9.35 M13.93,10.65 C13.8,11.26 13.47,11.8 13,12.21 L14.66,14.75 C15.914634,13.7870794 16.7377738,12.3672532 16.95,10.8 L13.93,10.65 M11,13 C10.68,13 10.38,12.95 10.09,12.86 L8.72,15.55 C9.42,15.84 10.19,16 11,16 C11.81,16 12.58,15.84 13.28,15.55 L11.91,12.86 C11.62,12.95 11.32,13 11,13 M8.07,10.65 L5.05,10.8 C5.27,12.4 6.11,13.81 7.34,14.75 L9,12.21 C8.53,11.8 8.2,11.26 8.07,10.65 L8.07,10.65 Z" id="Shape" fill="#C72C71"></path>
    </g>
</svg>