<svg width="96" height="96" viewBox="0 0 96 96" fill="none" xmlns="http://www.w3.org/2000/svg">
<style>@media (prefers-color-scheme: dark) { .h { fill: white } }</style>
<path d="M43.1368 4.7489L21 17.5819V48.274L29.2345 53.0864V22.3942L43.1368 14.3736V4.7489Z" fill="black" class="h"/>
<path d="M52.013 4.7489V29.2384H43.1368V20.0415L34.7954 24.8539V56.1876L43.1368 61V36.6174H52.013V45.7074L60.2474 40.895V9.56126L52.013 4.7489Z" fill="black" class="h"/>
<path d="M52.013 61L74.1498 48.274V17.5818L65.8084 12.7695V43.4616L52.013 51.4822V61Z" fill="black" class="h"/>
<path d="M0 55C0 51.134 3.13401 48 7 48H89C92.866 48 96 51.134 96 55V89C96 92.866 92.866 96 89 96H7C3.13401 96 0 92.866 0 89V55Z" fill="white"/>
<path d="M66.667 87.7273V55H88.7196V60.7049H73.5864V68.5032H87.585V74.2081H73.5864V82.0224H88.7835V87.7273H66.667Z" fill="#FF0000"/>
<path d="M37.1357 87.7273V55H50.0477C52.5193 55 54.6286 55.4421 56.3758 56.3264C58.1336 57.1999 59.4706 58.4411 60.3868 60.0497C61.3137 61.6477 61.7771 63.5281 61.7771 65.6907C61.7771 67.864 61.3083 69.7337 60.3708 71.2997C59.4333 72.8551 58.075 74.0483 56.2959 74.8793C54.5274 75.7102 52.3861 76.1257 49.8719 76.1257H41.2267V70.5646H48.7533C50.0743 70.5646 51.1716 70.3835 52.0452 70.0213C52.9188 69.6591 53.5686 69.1158 53.9948 68.3913C54.4316 67.6669 54.6499 66.7667 54.6499 65.6907C54.6499 64.604 54.4316 63.6879 53.9948 62.9421C53.5686 62.1964 52.9134 61.6317 52.0292 61.2482C51.1556 60.854 50.053 60.657 48.7213 60.657H44.0551V87.7273H37.1357ZM54.8097 72.8338L62.9436 87.7273H55.3051L47.347 72.8338H54.8097Z" fill="#FF0000"/>
<path d="M8 87.7273V55H20.9119C23.3942 55 25.5089 55.4741 27.256 56.4222C29.0032 57.3597 30.3349 58.6648 31.2511 60.3374C32.1779 61.9993 32.6413 63.9169 32.6413 66.0902C32.6413 68.2635 32.1726 70.1811 31.2351 71.843C30.2976 73.505 28.9393 74.7994 27.1602 75.7262C25.3917 76.6531 23.2504 77.1165 20.7362 77.1165H12.5064V71.5714H19.6175C20.9492 71.5714 22.0465 71.3423 22.9094 70.8842C23.783 70.4155 24.4329 69.771 24.859 68.9506C25.2958 68.1197 25.5142 67.1662 25.5142 66.0902C25.5142 65.0036 25.2958 64.0554 24.859 63.2457C24.4329 62.4254 23.783 61.7915 22.9094 61.3441C22.0359 60.886 20.9279 60.657 19.5856 60.657H14.9194V87.7273H8Z" fill="#FF0000"/>
</svg>
