<svg width="600" height="360" viewBox="0 0 600 360" fill="none" xmlns="http://www.w3.org/2000/svg">
<g opacity="0.5">
<mask id="mask0" mask-type="alpha" maskUnits="userSpaceOnUse" x="0" y="0" width="600" height="360">
<rect width="600" height="360" fill="#00BC7F"/>
</mask>
<g mask="url(#mask0)">
<path opacity="0.8" d="M417.339 324.572C417.099 324.572 416.938 324.492 416.858 324.251C416.698 323.93 416.778 323.61 417.099 323.449L435.776 312.626C436.096 312.465 436.417 312.546 436.577 312.866C436.737 313.187 436.657 313.508 436.337 313.668L417.66 324.492C417.58 324.572 417.5 324.572 417.339 324.572Z" fill="url(#paint0_linear)"/>
<path opacity="0.9" d="M436.096 313.828C435.856 313.828 435.695 313.748 435.615 313.508C435.455 313.187 435.535 312.866 435.856 312.706L454.532 301.883C454.853 301.722 455.173 301.802 455.334 302.123C455.494 302.444 455.414 302.765 455.093 302.925L436.417 313.748C436.256 313.748 436.176 313.828 436.096 313.828Z" fill="url(#paint1_linear)"/>
<path opacity="0.6" d="M454.773 324.572C454.532 324.572 454.372 324.492 454.292 324.251C454.132 323.93 454.212 323.61 454.532 323.449L473.209 312.626C473.529 312.465 473.85 312.546 474.01 312.866C474.171 313.187 474.091 313.508 473.77 313.668L455.094 324.492C454.933 324.572 454.853 324.572 454.773 324.572Z" fill="url(#paint2_linear)"/>
<path opacity="0.6" d="M454.773 303.005C454.532 303.005 454.372 302.925 454.292 302.684C454.132 302.364 454.212 302.043 454.532 301.883L473.209 291.059C473.529 290.899 473.85 290.979 474.01 291.3C474.171 291.621 474.091 291.941 473.77 292.102L455.094 302.925C454.933 303.005 454.853 303.005 454.773 303.005Z" fill="url(#paint3_linear)"/>
<path opacity="0.4" d="M342.633 367.785C342.392 367.785 342.232 367.705 342.152 367.464C341.991 367.144 342.071 366.823 342.392 366.663L361.069 355.839C361.389 355.679 361.71 355.759 361.87 356.08C362.031 356.4 361.951 356.721 361.63 356.881L342.953 367.705C342.793 367.705 342.713 367.785 342.633 367.785Z" fill="url(#paint4_linear)"/>
<path opacity="0.5" d="M361.309 356.962C361.069 356.962 360.908 356.881 360.828 356.641C360.668 356.32 360.748 355.999 361.069 355.839L379.745 345.016C380.066 344.855 380.387 344.936 380.547 345.256C380.707 345.577 380.627 345.898 380.307 346.058L361.63 356.881C361.55 356.962 361.389 356.962 361.309 356.962Z" fill="url(#paint5_linear)"/>
<path opacity="0.6" d="M379.986 367.785C379.745 367.785 379.585 367.705 379.505 367.464C379.345 367.144 379.425 366.823 379.745 366.663L398.422 355.839C398.743 355.679 399.063 355.759 399.224 356.08C399.384 356.4 399.304 356.721 398.983 356.881L380.307 367.705C380.226 367.705 380.066 367.785 379.986 367.785Z" fill="url(#paint6_linear)"/>
<path opacity="0.6" d="M379.986 346.138C379.745 346.138 379.585 346.058 379.505 345.818C379.345 345.497 379.425 345.176 379.745 345.016L398.422 334.192C398.743 334.032 399.063 334.112 399.224 334.433C399.384 334.754 399.304 335.074 398.983 335.235L380.307 346.058C380.226 346.138 380.066 346.138 379.986 346.138Z" fill="url(#paint7_linear)"/>
<path opacity="0.7" d="M398.663 356.962C398.422 356.962 398.262 356.881 398.182 356.641C398.021 356.32 398.101 355.999 398.422 355.839L417.099 345.016C417.419 344.855 417.74 344.936 417.9 345.256C418.061 345.577 417.98 345.898 417.66 346.058L398.983 356.881C398.903 356.962 398.823 356.962 398.663 356.962Z" fill="url(#paint8_linear)"/>
<path opacity="0.8" d="M417.339 367.785C417.099 367.785 416.938 367.705 416.858 367.464C416.698 367.144 416.778 366.823 417.099 366.663L435.776 355.839C436.096 355.679 436.417 355.759 436.577 356.08C436.737 356.4 436.657 356.721 436.337 356.881L417.66 367.705C417.58 367.705 417.5 367.785 417.339 367.785Z" fill="url(#paint9_linear)"/>
<path opacity="0.7" d="M398.663 335.395C398.422 335.395 398.262 335.315 398.182 335.074C398.021 334.754 398.101 334.433 398.422 334.273L417.099 323.449C417.419 323.289 417.74 323.369 417.9 323.69C418.061 324.011 417.98 324.331 417.66 324.492L398.983 335.315C398.903 335.315 398.823 335.395 398.663 335.395Z" fill="url(#paint10_linear)"/>
<path opacity="0.8" d="M417.339 346.138C417.099 346.138 416.938 346.058 416.858 345.818C416.698 345.497 416.778 345.176 417.099 345.016L435.776 334.192C436.096 334.032 436.417 334.112 436.577 334.433C436.737 334.754 436.657 335.074 436.337 335.235L417.66 346.058C417.58 346.138 417.5 346.138 417.339 346.138Z" fill="url(#paint11_linear)"/>
<path opacity="0.9" d="M436.096 356.962C435.856 356.962 435.695 356.881 435.615 356.641C435.455 356.32 435.535 355.999 435.856 355.839L454.532 345.016C454.853 344.855 455.173 344.936 455.334 345.256C455.494 345.577 455.414 345.898 455.093 346.058L436.417 356.881C436.256 356.962 436.176 356.962 436.096 356.962Z" fill="url(#paint12_linear)"/>
<path opacity="0.6" d="M454.773 367.785C454.532 367.785 454.372 367.705 454.292 367.464C454.132 367.144 454.212 366.823 454.532 366.663L473.209 355.839C473.529 355.679 473.85 355.759 474.01 356.08C474.171 356.4 474.091 356.721 473.77 356.881L455.094 367.705C454.933 367.705 454.853 367.785 454.773 367.785Z" fill="url(#paint13_linear)"/>
<path opacity="0.9" d="M436.096 335.395C435.856 335.395 435.695 335.315 435.615 335.074C435.455 334.754 435.535 334.433 435.856 334.273L454.532 323.449C454.853 323.289 455.173 323.369 455.334 323.69C455.494 324.011 455.414 324.331 455.093 324.492L436.417 335.315C436.256 335.315 436.176 335.395 436.096 335.395Z" fill="url(#paint14_linear)"/>
<path opacity="0.6" d="M454.773 346.138C454.532 346.138 454.372 346.058 454.292 345.818C454.132 345.497 454.212 345.176 454.532 345.016L473.209 334.192C473.529 334.032 473.85 334.112 474.01 334.433C474.171 334.754 474.091 335.074 473.77 335.235L455.094 346.058C454.933 346.138 454.853 346.138 454.773 346.138Z" fill="url(#paint15_linear)"/>
<path opacity="0.8" d="M641.62 389.351C641.379 389.351 641.219 389.271 641.139 389.031C640.978 388.71 641.059 388.389 641.379 388.229L660.056 377.406C660.377 377.245 660.697 377.325 660.858 377.646C661.018 377.967 660.938 378.288 660.617 378.448L641.94 389.271C641.86 389.271 641.78 389.351 641.62 389.351ZM622.943 378.528C622.703 378.528 622.542 378.448 622.462 378.207C622.302 377.887 622.382 377.566 622.703 377.406L660.056 355.839C660.377 355.679 660.697 355.759 660.858 356.08C661.018 356.4 660.938 356.721 660.617 356.881L623.264 378.448C623.184 378.528 623.023 378.528 622.943 378.528ZM604.266 367.785C604.026 367.785 603.866 367.705 603.786 367.464C603.625 367.143 603.705 366.823 604.026 366.662L660.056 334.273C660.377 334.112 660.697 334.192 660.858 334.513C661.018 334.834 660.938 335.154 660.617 335.315L604.587 367.705C604.507 367.705 604.347 367.785 604.266 367.785ZM585.59 356.962C585.349 356.962 585.189 356.881 585.109 356.641C584.949 356.32 585.029 355.999 585.349 355.839L660.136 312.706C660.457 312.546 660.777 312.626 660.938 312.947C661.098 313.267 661.018 313.588 660.697 313.748L585.91 356.881C585.75 356.962 585.67 356.962 585.59 356.962ZM566.913 346.138C566.673 346.138 566.512 346.058 566.432 345.817C566.272 345.497 566.352 345.176 566.673 345.016L660.136 291.059C660.457 290.899 660.777 290.979 660.938 291.3C661.098 291.621 661.018 291.941 660.697 292.102L567.234 346.058C567.073 346.138 566.993 346.138 566.913 346.138ZM548.236 335.395C547.996 335.395 547.836 335.315 547.755 335.074C547.595 334.754 547.675 334.433 547.996 334.273L660.136 269.493C660.457 269.332 660.777 269.413 660.938 269.733C661.098 270.054 661.018 270.375 660.697 270.535L548.557 335.315C548.397 335.315 548.317 335.395 548.236 335.395ZM529.48 324.572C529.239 324.572 529.079 324.492 528.999 324.251C528.838 323.93 528.919 323.61 529.239 323.449L660.056 247.926C660.377 247.766 660.697 247.846 660.858 248.167C661.018 248.488 660.938 248.808 660.617 248.969L529.8 324.491C529.72 324.572 529.64 324.572 529.48 324.572ZM510.803 313.828C510.563 313.828 510.402 313.748 510.322 313.508C510.162 313.187 510.242 312.866 510.562 312.706L660.056 226.36C660.377 226.199 660.697 226.28 660.858 226.6C661.018 226.921 660.938 227.242 660.617 227.402L511.124 313.748C511.043 313.748 510.883 313.828 510.803 313.828ZM492.126 303.005C491.886 303.005 491.725 302.925 491.645 302.684C491.485 302.364 491.565 302.043 491.886 301.883L660.056 204.793C660.377 204.633 660.697 204.713 660.858 205.034C661.018 205.354 660.938 205.675 660.617 205.836L492.447 302.925C492.367 303.005 492.206 303.005 492.126 303.005ZM473.45 292.182C473.209 292.182 473.049 292.102 472.969 291.861C472.808 291.54 472.888 291.22 473.209 291.059L660.136 183.147C660.457 182.986 660.777 183.066 660.938 183.387C661.098 183.708 661.018 184.028 660.697 184.189L473.77 292.102C473.61 292.182 473.53 292.182 473.45 292.182Z" fill="#BDBEC2"/>
<path opacity="0.6" d="M660.297 680.7C660.216 680.7 660.056 680.7 659.976 680.62L473.049 572.707C472.728 572.547 472.648 572.146 472.808 571.905C472.969 571.585 473.37 571.504 473.61 571.665L660.537 679.578C660.858 679.738 660.938 680.139 660.777 680.379C660.777 680.62 660.537 680.7 660.297 680.7ZM660.297 659.133C660.216 659.133 660.056 659.133 659.976 659.053L473.049 551.141C472.728 550.98 472.648 550.579 472.808 550.339C472.969 550.018 473.37 549.938 473.61 550.098L660.537 658.011C660.858 658.171 660.938 658.572 660.777 658.813C660.777 659.053 660.537 659.133 660.297 659.133ZM660.297 637.567C660.216 637.567 660.056 637.567 659.976 637.487L473.129 529.574C472.809 529.414 472.728 529.013 472.889 528.772C473.049 528.452 473.45 528.371 473.69 528.532L660.617 636.445C660.938 636.605 661.018 637.006 660.858 637.246C660.778 637.407 660.537 637.567 660.297 637.567ZM660.297 616C660.216 616 660.056 616 659.976 615.92L473.129 507.927C472.809 507.767 472.728 507.366 472.889 507.126C473.049 506.805 473.45 506.725 473.69 506.885L660.617 614.798C660.938 614.958 661.018 615.359 660.858 615.6C660.778 615.84 660.537 616 660.297 616ZM660.297 594.354C660.216 594.354 660.056 594.354 659.976 594.274L473.049 486.361C472.728 486.2 472.648 485.8 472.808 485.559C472.969 485.238 473.37 485.158 473.61 485.318L660.537 593.231C660.858 593.392 660.938 593.793 660.777 594.033C660.777 594.274 660.537 594.354 660.297 594.354ZM660.297 572.787C660.216 572.787 660.056 572.787 659.976 572.707L473.049 464.794C472.728 464.634 472.648 464.233 472.808 463.993C472.969 463.672 473.37 463.592 473.61 463.752L660.537 571.665C660.858 571.825 660.938 572.226 660.777 572.467C660.777 572.707 660.537 572.787 660.297 572.787ZM660.297 551.221C660.216 551.221 660.056 551.221 659.976 551.141L473.049 443.228C472.728 443.067 472.648 442.666 472.808 442.426C472.969 442.105 473.37 442.025 473.61 442.185L660.537 550.098C660.858 550.259 660.938 550.659 660.777 550.9C660.777 551.141 660.537 551.221 660.297 551.221ZM660.297 529.654C660.216 529.654 660.056 529.654 659.976 529.574L473.049 421.661C472.728 421.501 472.648 421.1 472.808 420.859C472.969 420.539 473.37 420.459 473.61 420.619L660.537 528.532C660.858 528.692 660.938 529.093 660.777 529.333C660.777 529.494 660.537 529.654 660.297 529.654ZM660.297 508.088C660.216 508.088 660.056 508.088 659.976 508.007L473.049 400.095C472.728 399.934 472.648 399.533 472.808 399.293C472.969 398.972 473.37 398.892 473.61 399.052L660.537 506.965C660.858 507.126 660.938 507.526 660.777 507.767C660.777 507.927 660.537 508.088 660.297 508.088ZM660.297 486.441C660.216 486.441 660.056 486.441 659.976 486.361L473.049 378.448C472.728 378.288 472.648 377.887 472.808 377.646C472.969 377.326 473.37 377.245 473.61 377.406L660.537 485.318C660.858 485.479 660.938 485.88 660.777 486.12C660.777 486.361 660.537 486.441 660.297 486.441ZM660.297 464.874C660.216 464.874 660.056 464.874 659.976 464.794L473.049 356.881C472.728 356.721 472.648 356.32 472.808 356.08C472.969 355.759 473.37 355.679 473.61 355.839L660.537 463.752C660.858 463.912 660.938 464.313 660.777 464.554C660.777 464.794 660.537 464.874 660.297 464.874ZM660.297 443.308C660.216 443.308 660.056 443.308 659.976 443.228L473.049 335.315C472.728 335.155 472.648 334.754 472.808 334.513C472.969 334.192 473.37 334.112 473.61 334.273L660.617 442.185C660.938 442.346 661.018 442.747 660.858 442.987C660.778 443.228 660.537 443.308 660.297 443.308ZM660.297 421.741C660.216 421.741 660.056 421.741 659.976 421.661L473.049 313.748C472.728 313.588 472.648 313.187 472.808 312.947C472.969 312.626 473.37 312.546 473.61 312.706L660.537 420.619C660.858 420.779 660.938 421.18 660.777 421.421C660.777 421.581 660.537 421.741 660.297 421.741ZM660.297 400.095C660.216 400.095 660.056 400.095 659.976 400.015L473.049 292.102C472.728 291.941 472.648 291.54 472.808 291.3C472.969 290.979 473.37 290.899 473.61 291.059L660.537 398.972C660.858 399.133 660.938 399.533 660.777 399.774C660.777 400.014 660.537 400.095 660.297 400.095Z" fill="url(#paint16_linear)"/>
<g opacity="0.75">
<path d="M128.311 94.3417C128.551 94.3417 128.712 94.4218 128.792 94.6623C128.952 94.983 128.872 95.3037 128.551 95.4641L109.875 106.287C109.554 106.448 109.233 106.368 109.073 106.047C108.913 105.726 108.993 105.406 109.313 105.245L127.99 94.4218C128.07 94.3417 128.15 94.3417 128.311 94.3417Z" fill="url(#paint17_linear)"/>
<path d="M109.554 105.085C109.794 105.085 109.955 105.165 110.035 105.406C110.195 105.726 110.115 106.047 109.794 106.207L91.1179 117.031C90.7972 117.191 90.4766 117.111 90.3163 116.79C90.156 116.469 90.236 116.149 90.5566 115.988L109.233 105.165C109.394 105.165 109.474 105.085 109.554 105.085Z" fill="url(#paint18_linear)"/>
<path d="M90.8772 94.3417C91.1177 94.3417 91.2779 94.4218 91.358 94.6623C91.5183 94.983 91.4383 95.3037 91.1177 95.4641L72.4412 106.287C72.1205 106.448 71.7999 106.368 71.6396 106.047C71.4793 105.726 71.5595 105.406 71.8801 105.245L90.5565 94.4218C90.7168 94.3417 90.7971 94.3417 90.8772 94.3417Z" fill="url(#paint19_linear)"/>
<path d="M90.8772 115.908C91.1177 115.908 91.2779 115.988 91.358 116.229C91.5183 116.55 91.4383 116.87 91.1177 117.031L72.4412 127.854C72.1205 128.014 71.7999 127.934 71.6396 127.613C71.4793 127.293 71.5595 126.972 71.8801 126.812L90.5565 115.988C90.7168 115.908 90.7971 115.908 90.8772 115.908Z" fill="url(#paint20_linear)"/>
<path d="M203.017 51.1284C203.258 51.1284 203.418 51.2085 203.498 51.4491C203.659 51.7698 203.579 52.0905 203.258 52.2508L184.581 63.0741C184.261 63.2345 183.94 63.1543 183.78 62.8336C183.619 62.5129 183.699 62.1922 184.02 62.0319L202.697 51.2086C202.857 51.2086 202.937 51.1284 203.017 51.1284Z" fill="url(#paint21_linear)"/>
<path d="M184.341 61.9517C184.581 61.9517 184.742 62.0319 184.822 62.2724C184.982 62.5931 184.902 62.9137 184.581 63.0741L165.905 73.8974C165.584 74.0577 165.263 73.9775 165.103 73.6569C164.943 73.3362 165.023 73.0155 165.343 72.8551L184.02 62.0319C184.1 61.9517 184.261 61.9517 184.341 61.9517Z" fill="url(#paint22_linear)"/>
<path d="M165.664 51.1284C165.905 51.1284 166.065 51.2085 166.145 51.4491C166.305 51.7698 166.225 52.0905 165.905 52.2508L147.228 63.0741C146.907 63.2345 146.587 63.1543 146.426 62.8336C146.266 62.5129 146.346 62.1922 146.667 62.0319L165.343 51.2086C165.424 51.2086 165.584 51.1284 165.664 51.1284Z" fill="url(#paint23_linear)"/>
<path d="M165.664 72.775C165.905 72.775 166.065 72.8552 166.145 73.0957C166.305 73.4164 166.225 73.7371 165.905 73.8975L147.228 84.7208C146.907 84.8812 146.587 84.801 146.426 84.4803C146.266 84.1596 146.346 83.839 146.667 83.6786L165.343 72.8552C165.424 72.7751 165.584 72.775 165.664 72.775Z" fill="url(#paint24_linear)"/>
<path d="M146.987 61.9517C147.228 61.9517 147.388 62.0319 147.468 62.2724C147.629 62.5931 147.549 62.9137 147.228 63.0741L128.551 73.8974C128.231 74.0577 127.91 73.9775 127.75 73.6569C127.589 73.3362 127.67 73.0155 127.99 72.8551L146.667 62.0319C146.747 61.9517 146.827 61.9517 146.987 61.9517Z" fill="url(#paint25_linear)"/>
<path d="M128.311 51.1284C128.551 51.1284 128.712 51.2085 128.792 51.4491C128.952 51.7698 128.872 52.0905 128.551 52.2508L109.875 63.0741C109.554 63.2345 109.233 63.1543 109.073 62.8336C108.913 62.5129 108.993 62.1922 109.313 62.0319L127.99 51.2086C128.07 51.2086 128.15 51.1284 128.311 51.1284Z" fill="url(#paint26_linear)"/>
<path d="M146.987 83.5182C147.228 83.5182 147.388 83.5984 147.468 83.8389C147.629 84.1596 147.549 84.4803 147.228 84.6406L128.551 95.464C128.231 95.6244 127.91 95.5442 127.75 95.2235C127.589 94.9028 127.67 94.5821 127.99 94.4218L146.667 83.5984C146.747 83.5984 146.827 83.5182 146.987 83.5182Z" fill="url(#paint27_linear)"/>
<path d="M128.311 72.775C128.551 72.775 128.712 72.8552 128.792 73.0957C128.952 73.4164 128.872 73.7371 128.551 73.8975L109.875 84.7208C109.554 84.8812 109.233 84.801 109.073 84.4803C108.913 84.1596 108.993 83.839 109.313 83.6786L127.99 72.8552C128.07 72.7751 128.15 72.775 128.311 72.775Z" fill="url(#paint28_linear)"/>
<path d="M109.554 61.9517C109.794 61.9517 109.955 62.0319 110.035 62.2724C110.195 62.5931 110.115 62.9137 109.794 63.0741L91.1179 73.8974C90.7972 74.0577 90.4766 73.9775 90.3163 73.6569C90.156 73.3362 90.236 73.0155 90.5566 72.8551L109.233 62.0319C109.394 61.9517 109.474 61.9517 109.554 61.9517Z" fill="url(#paint29_linear)"/>
<path d="M90.8772 51.1284C91.1177 51.1284 91.2779 51.2085 91.358 51.4491C91.5183 51.7698 91.4383 52.0905 91.1177 52.2508L72.4412 63.0741C72.1205 63.2345 71.7999 63.1543 71.6396 62.8336C71.4793 62.5129 71.5595 62.1922 71.8801 62.0319L90.5565 51.2086C90.7168 51.2086 90.7971 51.1284 90.8772 51.1284Z" fill="url(#paint30_linear)"/>
<path d="M109.554 83.5182C109.794 83.5182 109.955 83.5984 110.035 83.8389C110.195 84.1596 110.115 84.4803 109.794 84.6406L91.1179 95.464C90.7972 95.6244 90.4766 95.5442 90.3163 95.2235C90.156 94.9028 90.236 94.5821 90.5566 94.4218L109.233 83.5984C109.394 83.5984 109.474 83.5182 109.554 83.5182Z" fill="url(#paint31_linear)"/>
<path d="M90.8772 72.775C91.1177 72.775 91.2779 72.8552 91.358 73.0957C91.5183 73.4164 91.4383 73.7371 91.1177 73.8975L72.4412 84.7208C72.1205 84.8812 71.7999 84.801 71.6396 84.4803C71.4793 84.1596 71.5595 83.839 71.8801 83.6786L90.5565 72.8552C90.7168 72.7751 90.7971 72.775 90.8772 72.775Z" fill="url(#paint32_linear)"/>
<path d="M277.804 7.9953C278.045 7.9953 278.205 8.07549 278.285 8.31601C278.446 8.6367 278.366 8.95739 278.045 9.11774L259.368 19.9411C259.048 20.1014 258.727 20.0212 258.567 19.7005C258.406 19.3798 258.486 19.0591 258.807 18.8988L277.484 8.07545C277.564 7.99528 277.644 7.9953 277.804 7.9953Z" fill="url(#paint33_linear)"/>
<path d="M259.128 18.8187C259.368 18.8187 259.528 18.8989 259.609 19.1394C259.769 19.4601 259.689 19.7808 259.368 19.9412L240.691 30.7646C240.371 30.9249 240.05 30.8447 239.89 30.524C239.729 30.2033 239.81 29.8826 240.13 29.7223L258.807 18.8989C258.887 18.8187 258.967 18.8187 259.128 18.8187Z" fill="url(#paint34_linear)"/>
<path d="M240.371 7.9953C240.611 7.9953 240.772 8.07549 240.852 8.31601C241.012 8.6367 240.932 8.95739 240.611 9.11774L221.935 19.9411C221.614 20.1014 221.293 20.0212 221.133 19.7005C220.973 19.3798 221.053 19.0591 221.374 18.8988L240.05 8.07545C240.21 7.99528 240.291 7.9953 240.371 7.9953Z" fill="url(#paint35_linear)"/>
<path d="M240.371 29.562C240.611 29.562 240.772 29.6422 240.852 29.8827C241.012 30.2034 240.932 30.5241 240.611 30.6844L221.935 41.5077C221.614 41.6681 221.293 41.5879 221.133 41.2672C220.973 40.9465 221.053 40.6258 221.374 40.4655L240.05 29.6422C240.21 29.6422 240.291 29.562 240.371 29.562Z" fill="url(#paint36_linear)"/>
<path d="M221.694 18.8187C221.935 18.8187 222.095 18.8989 222.175 19.1394C222.336 19.4601 222.255 19.7808 221.935 19.9412L203.258 30.7646C202.937 30.9249 202.617 30.8447 202.456 30.524C202.296 30.2033 202.376 29.8826 202.697 29.7223L221.374 18.8989C221.534 18.8187 221.614 18.8187 221.694 18.8187Z" fill="url(#paint37_linear)"/>
<path d="M203.017 7.9953C203.258 7.9953 203.418 8.07549 203.498 8.31601C203.659 8.6367 203.579 8.95739 203.258 9.11774L184.581 19.9411C184.261 20.1014 183.94 20.0212 183.78 19.7005C183.619 19.3798 183.699 19.0591 184.02 18.8988L202.697 8.07545C202.857 7.99528 202.937 7.9953 203.017 7.9953Z" fill="url(#paint38_linear)"/>
<path d="M221.694 40.3853C221.935 40.3853 222.095 40.4654 222.175 40.7059C222.336 41.0266 222.255 41.3473 221.935 41.5076L203.258 52.331C202.937 52.4913 202.617 52.4111 202.456 52.0904C202.296 51.7698 202.376 51.4491 202.697 51.2887L221.374 40.4654C221.534 40.3852 221.614 40.3853 221.694 40.3853Z" fill="url(#paint39_linear)"/>
<path d="M203.017 29.562C203.258 29.562 203.418 29.6422 203.498 29.8827C203.659 30.2034 203.579 30.5241 203.258 30.6844L184.581 41.5077C184.261 41.6681 183.94 41.5879 183.78 41.2672C183.619 40.9465 183.699 40.6258 184.02 40.4655L202.697 29.6422C202.857 29.6422 202.937 29.562 203.017 29.562Z" fill="url(#paint40_linear)"/>
<path d="M184.341 18.8187C184.581 18.8187 184.742 18.8989 184.822 19.1394C184.982 19.4601 184.902 19.7808 184.581 19.9412L165.905 30.7646C165.584 30.9249 165.263 30.8447 165.103 30.524C164.943 30.2033 165.023 29.8826 165.343 29.7223L184.02 18.8989C184.1 18.8187 184.261 18.8187 184.341 18.8187Z" fill="url(#paint41_linear)"/>
<path d="M165.664 7.9953C165.905 7.9953 166.065 8.07549 166.145 8.31601C166.305 8.6367 166.225 8.95739 165.905 9.11774L147.228 19.9411C146.907 20.1014 146.587 20.0212 146.426 19.7005C146.266 19.3798 146.346 19.0591 146.667 18.8988L165.343 8.07545C165.424 7.99528 165.584 7.9953 165.664 7.9953Z" fill="url(#paint42_linear)"/>
<path d="M184.341 40.3853C184.581 40.3853 184.742 40.4654 184.822 40.7059C184.982 41.0266 184.902 41.3473 184.581 41.5076L165.905 52.331C165.584 52.4913 165.263 52.4111 165.103 52.0904C164.943 51.7698 165.023 51.4491 165.343 51.2887L184.02 40.4654C184.1 40.3852 184.261 40.3853 184.341 40.3853Z" fill="url(#paint43_linear)"/>
<path d="M165.664 29.562C165.905 29.562 166.065 29.6422 166.145 29.8827C166.305 30.2034 166.225 30.5241 165.905 30.6844L147.228 41.5077C146.907 41.6681 146.587 41.5879 146.426 41.2672C146.266 40.9465 146.346 40.6258 146.667 40.4655L165.343 29.6422C165.424 29.6422 165.584 29.562 165.664 29.562Z" fill="url(#paint44_linear)"/>
<path d="M146.987 18.8187C147.228 18.8187 147.388 18.8989 147.468 19.1394C147.629 19.4601 147.549 19.7808 147.228 19.9412L128.551 30.7646C128.231 30.9249 127.91 30.8447 127.75 30.524C127.589 30.2033 127.67 29.8826 127.99 29.7223L146.667 18.8989C146.747 18.8187 146.827 18.8187 146.987 18.8187Z" fill="url(#paint45_linear)"/>
<path d="M128.311 7.9953C128.551 7.9953 128.712 8.07549 128.792 8.31601C128.952 8.6367 128.872 8.95739 128.551 9.11774L109.875 19.9411C109.554 20.1014 109.233 20.0212 109.073 19.7005C108.913 19.3798 108.993 19.0591 109.313 18.8988L127.99 8.07545C128.07 7.99528 128.15 7.9953 128.311 7.9953Z" fill="url(#paint46_linear)"/>
<path d="M146.987 40.3853C147.228 40.3853 147.388 40.4654 147.468 40.7059C147.629 41.0266 147.549 41.3473 147.228 41.5076L128.551 52.331C128.231 52.4913 127.91 52.4111 127.75 52.0904C127.589 51.7698 127.67 51.4491 127.99 51.2887L146.667 40.4654C146.747 40.3852 146.827 40.3853 146.987 40.3853Z" fill="url(#paint47_linear)"/>
<path d="M128.311 29.562C128.551 29.562 128.712 29.6422 128.792 29.8827C128.952 30.2034 128.872 30.5241 128.551 30.6844L109.875 41.5077C109.554 41.6681 109.233 41.5879 109.073 41.2672C108.913 40.9465 108.993 40.6258 109.313 40.4655L127.99 29.6422C128.07 29.6422 128.15 29.562 128.311 29.562Z" fill="url(#paint48_linear)"/>
<path d="M109.554 18.8187C109.794 18.8187 109.955 18.8989 110.035 19.1394C110.195 19.4601 110.115 19.7808 109.794 19.9412L91.1179 30.7646C90.7972 30.9249 90.4766 30.8447 90.3163 30.524C90.156 30.2033 90.236 29.8826 90.5566 29.7223L109.233 18.8989C109.394 18.8187 109.474 18.8187 109.554 18.8187Z" fill="url(#paint49_linear)"/>
<path d="M90.8772 7.9953C91.1177 7.9953 91.2779 8.07549 91.358 8.31601C91.5183 8.6367 91.4383 8.95739 91.1177 9.11774L72.4412 19.9411C72.1205 20.1014 71.7999 20.0212 71.6396 19.7005C71.4793 19.3798 71.5595 19.0591 71.8801 18.8988L90.5565 8.07545C90.7168 7.99528 90.7971 7.9953 90.8772 7.9953Z" fill="url(#paint50_linear)"/>
<path d="M109.554 40.3853C109.794 40.3853 109.955 40.4654 110.035 40.7059C110.195 41.0266 110.115 41.3473 109.794 41.5076L91.1179 52.331C90.7972 52.4913 90.4766 52.4111 90.3163 52.0904C90.156 51.7698 90.236 51.4491 90.5566 51.2887L109.233 40.4654C109.394 40.3852 109.474 40.3853 109.554 40.3853Z" fill="url(#paint51_linear)"/>
<path d="M90.8772 29.562C91.1177 29.562 91.2779 29.6422 91.358 29.8827C91.5183 30.2034 91.4383 30.5241 91.1177 30.6844L72.4412 41.5077C72.1205 41.6681 71.7999 41.5879 71.6396 41.2672C71.4793 40.9465 71.5595 40.6258 71.8801 40.4655L90.5565 29.6422C90.7168 29.6422 90.7971 29.562 90.8772 29.562Z" fill="url(#paint52_linear)"/>
<path d="M296.481 -2.82794C296.721 -2.82794 296.882 -2.74775 296.962 -2.50723C297.122 -2.18654 297.042 -1.86585 296.721 -1.7055L278.045 9.11784C277.724 9.27818 277.404 9.19797 277.243 8.87728C277.083 8.55659 277.163 8.23589 277.484 8.07555L296.16 -2.74779C296.24 -2.74779 296.401 -2.82794 296.481 -2.82794Z" fill="url(#paint53_linear)"/>
<path d="M259.128 -2.82794C259.368 -2.82794 259.528 -2.74775 259.609 -2.50723C259.769 -2.18654 259.689 -1.86585 259.368 -1.7055L240.691 9.11784C240.371 9.27818 240.05 9.19797 239.89 8.87728C239.729 8.55659 239.81 8.23589 240.13 8.07555L258.807 -2.74779C258.887 -2.74779 258.967 -2.82794 259.128 -2.82794Z" fill="url(#paint54_linear)"/>
<path d="M221.694 -2.82794C221.935 -2.82794 222.095 -2.74775 222.175 -2.50723C222.336 -2.18654 222.255 -1.86585 221.935 -1.7055L203.258 9.11784C202.937 9.27818 202.617 9.19797 202.456 8.87728C202.296 8.55659 202.376 8.23589 202.697 8.07555L221.374 -2.74779C221.534 -2.74779 221.614 -2.82794 221.694 -2.82794Z" fill="url(#paint55_linear)"/>
<path d="M184.341 -2.82794C184.581 -2.82794 184.742 -2.74775 184.822 -2.50723C184.982 -2.18654 184.902 -1.86585 184.581 -1.7055L165.905 9.11784C165.584 9.27818 165.263 9.19797 165.103 8.87728C164.943 8.55659 165.023 8.23589 165.343 8.07555L184.02 -2.74779C184.1 -2.74779 184.261 -2.82794 184.341 -2.82794Z" fill="url(#paint56_linear)"/>
<path d="M146.987 -2.82794C147.228 -2.82794 147.388 -2.74775 147.468 -2.50723C147.629 -2.18654 147.549 -1.86585 147.228 -1.7055L128.551 9.11784C128.231 9.27818 127.91 9.19797 127.75 8.87728C127.589 8.55659 127.67 8.23589 127.99 8.07555L146.667 -2.74779C146.747 -2.74779 146.827 -2.82794 146.987 -2.82794Z" fill="url(#paint57_linear)"/>
<path d="M109.554 -2.82794C109.794 -2.82794 109.955 -2.74775 110.035 -2.50723C110.195 -2.18654 110.115 -1.86585 109.794 -1.7055L91.1179 9.11784C90.7972 9.27818 90.4766 9.19797 90.3163 8.87728C90.156 8.55659 90.236 8.23589 90.5566 8.07555L109.233 -2.74779C109.394 -2.74779 109.474 -2.82794 109.554 -2.82794Z" fill="url(#paint58_linear)"/>
</g>
<path opacity="0.8" d="M-95.9698 29.5618C-95.7293 29.5618 -95.5689 29.642 -95.4888 29.8825C-95.3285 30.2032 -95.4086 30.5239 -95.7293 30.6842L-114.406 41.5076C-114.727 41.6679 -115.047 41.5878 -115.208 41.2671C-115.368 40.9464 -115.288 40.6257 -114.967 40.4653L-96.2903 29.642C-96.2102 29.642 -96.1301 29.5618 -95.9698 29.5618ZM-77.2931 40.3852C-77.0526 40.3852 -76.8922 40.4653 -76.8121 40.7058C-76.6517 41.0265 -76.7319 41.3472 -77.0526 41.5076L-114.406 63.0741C-114.727 63.2345 -115.047 63.1543 -115.208 62.8336C-115.368 62.5129 -115.288 62.1922 -114.967 62.0319L-77.6136 40.4653C-77.5335 40.3852 -77.3732 40.3852 -77.2931 40.3852ZM-58.6164 51.1283C-58.3759 51.1283 -58.2157 51.2085 -58.1355 51.449C-57.9752 51.7697 -58.0552 52.0904 -58.3759 52.2508L-114.406 84.6406C-114.727 84.801 -115.047 84.7208 -115.208 84.4001C-115.368 84.0794 -115.288 83.7587 -114.967 83.5984L-58.9371 51.2085C-58.857 51.2085 -58.6965 51.1283 -58.6164 51.1283ZM-39.9397 61.9517C-39.6992 61.9517 -39.539 62.0319 -39.4588 62.2724C-39.2985 62.5931 -39.3787 62.9138 -39.6994 63.0741L-114.486 106.207C-114.807 106.367 -115.127 106.287 -115.288 105.967C-115.448 105.646 -115.368 105.325 -115.047 105.165L-40.2604 62.0319C-40.1001 61.9517 -40.0198 61.9517 -39.9397 61.9517ZM-21.2632 72.775C-21.0227 72.775 -20.8623 72.8552 -20.7821 73.0957C-20.6218 73.4164 -20.702 73.7371 -21.0226 73.8975L-114.486 127.854C-114.807 128.014 -115.127 127.934 -115.288 127.613C-115.448 127.293 -115.368 126.972 -115.047 126.812L-21.5837 72.8552C-21.4234 72.7751 -21.3433 72.775 -21.2632 72.775ZM-2.58645 83.5182C-2.34597 83.5182 -2.18558 83.5984 -2.10542 83.8389C-1.94511 84.1596 -2.02531 84.4803 -2.34593 84.6406L-114.486 149.42C-114.807 149.581 -115.127 149.501 -115.288 149.18C-115.448 148.859 -115.368 148.538 -115.047 148.378L-2.907 83.5984C-2.74668 83.5984 -2.6666 83.5182 -2.58645 83.5182ZM16.1705 94.3416C16.411 94.3416 16.5712 94.4217 16.6513 94.6622C16.8116 94.9829 16.7314 95.3036 16.4108 95.464L-114.406 170.987C-114.727 171.147 -115.047 171.067 -115.208 170.746C-115.368 170.426 -115.288 170.105 -114.967 169.945L15.8498 94.4217C15.9299 94.3415 16.0102 94.3416 16.1705 94.3416ZM34.847 105.085C35.0875 105.085 35.2479 105.165 35.328 105.405C35.4883 105.726 35.4082 106.047 35.0875 106.207L-114.406 192.553C-114.727 192.714 -115.047 192.634 -115.208 192.313C-115.368 191.992 -115.288 191.672 -114.967 191.511L34.5265 105.165C34.6066 105.165 34.7669 105.085 34.847 105.085ZM53.5237 115.908C53.7642 115.908 53.9246 115.988 54.0047 116.229C54.1651 116.549 54.0849 116.87 53.7642 117.031L-114.406 214.12C-114.727 214.28 -115.047 214.2 -115.208 213.879C-115.368 213.559 -115.288 213.238 -114.967 213.078L53.2032 115.988C53.2833 115.908 53.4436 115.908 53.5237 115.908ZM72.2004 126.731C72.4409 126.731 72.6013 126.812 72.6814 127.052C72.8418 127.373 72.7616 127.694 72.4409 127.854L-114.486 235.767C-114.807 235.927 -115.127 235.847 -115.288 235.526C-115.448 235.205 -115.368 234.885 -115.047 234.724L71.8799 126.812C72.0402 126.731 72.1203 126.731 72.2004 126.731Z" fill="url(#paint59_linear)"/>
<path d="M-114.647 -261.787C-114.566 -261.787 -114.406 -261.787 -114.326 -261.707L72.6011 -153.794C72.9217 -153.633 73.0019 -153.232 72.8416 -152.992C72.6813 -152.671 72.2805 -152.591 72.04 -152.751L-114.887 -260.664C-115.208 -260.825 -115.288 -261.225 -115.127 -261.466C-115.127 -261.706 -114.887 -261.787 -114.647 -261.787ZM-114.647 -240.22C-114.566 -240.22 -114.406 -240.22 -114.326 -240.14L72.6011 -132.227C72.9217 -132.067 73.0019 -131.666 72.8416 -131.425C72.6813 -131.105 72.2805 -131.025 72.04 -131.185L-114.887 -239.098C-115.208 -239.258 -115.288 -239.659 -115.127 -239.899C-115.127 -240.14 -114.887 -240.22 -114.647 -240.22ZM-114.647 -218.654C-114.566 -218.654 -114.406 -218.654 -114.326 -218.573L72.5209 -110.661C72.8415 -110.5 72.9217 -110.099 72.7614 -109.859C72.6011 -109.538 72.2003 -109.458 71.9598 -109.618L-114.967 -217.531C-115.288 -217.692 -115.368 -218.092 -115.208 -218.333C-115.128 -218.493 -114.887 -218.654 -114.647 -218.654ZM-114.647 -197.087C-114.566 -197.087 -114.406 -197.087 -114.326 -197.007L72.5209 -89.014C72.8415 -88.8536 72.9217 -88.4527 72.7614 -88.2122C72.6011 -87.8915 72.2003 -87.8114 71.9598 -87.9717L-114.967 -195.885C-115.288 -196.045 -115.368 -196.446 -115.208 -196.686C-115.128 -196.927 -114.887 -197.087 -114.647 -197.087ZM-114.647 -175.44C-114.566 -175.44 -114.406 -175.44 -114.326 -175.36L72.6011 -67.4474C72.9217 -67.2871 73.0019 -66.8862 72.8416 -66.6457C72.6813 -66.325 72.2805 -66.2448 72.04 -66.4052L-114.887 -174.318C-115.208 -174.478 -115.288 -174.879 -115.127 -175.12C-115.127 -175.36 -114.887 -175.44 -114.647 -175.44ZM-114.647 -153.874C-114.566 -153.874 -114.406 -153.874 -114.326 -153.794L72.6011 -45.8809C72.9217 -45.7206 73.0019 -45.3197 72.8416 -45.0792C72.6813 -44.7585 72.2805 -44.6783 72.04 -44.8387L-114.887 -152.751C-115.208 -152.912 -115.288 -153.313 -115.127 -153.553C-115.127 -153.794 -114.887 -153.874 -114.647 -153.874ZM-114.647 -132.307C-114.566 -132.307 -114.406 -132.307 -114.326 -132.227L72.6011 -24.3144C72.9217 -24.154 73.0019 -23.7532 72.8416 -23.5126C72.6813 -23.1919 72.2805 -23.1118 72.04 -23.2721L-114.887 -131.185C-115.208 -131.345 -115.288 -131.746 -115.127 -131.987C-115.127 -132.227 -114.887 -132.307 -114.647 -132.307ZM-114.647 -110.741C-114.566 -110.741 -114.406 -110.741 -114.326 -110.661L72.6011 -2.74787C72.9217 -2.58752 73.0019 -2.18666 72.8416 -1.94614C72.6813 -1.62545 72.2805 -1.54524 72.04 -1.70558L-114.887 -109.618C-115.208 -109.779 -115.288 -110.18 -115.127 -110.42C-115.127 -110.58 -114.887 -110.741 -114.647 -110.741ZM-114.647 -89.1743C-114.566 -89.1743 -114.406 -89.1743 -114.326 -89.0941L72.6011 18.8187C72.9217 18.979 73.0019 19.3799 72.8416 19.6204C72.6813 19.9411 72.2805 20.0213 72.04 19.8609L-114.887 -88.0519C-115.208 -88.2122 -115.288 -88.6131 -115.127 -88.8536C-115.127 -89.0139 -114.887 -89.1743 -114.647 -89.1743ZM-114.647 -67.5276C-114.566 -67.5276 -114.406 -67.5276 -114.326 -67.4474L72.6011 40.4654C72.9217 40.6257 73.0019 41.0266 72.8416 41.2671C72.6813 41.5878 72.2805 41.668 72.04 41.5076L-114.887 -66.4052C-115.208 -66.5655 -115.288 -66.9664 -115.127 -67.2069C-115.127 -67.4474 -114.887 -67.5276 -114.647 -67.5276ZM-114.647 -45.9611C-114.566 -45.9611 -114.406 -45.9611 -114.326 -45.8809L72.6011 62.0319C72.9217 62.1923 73.0019 62.5931 72.8416 62.8337C72.6813 63.1543 72.2805 63.2345 72.04 63.0742L-114.887 -44.8387C-115.208 -44.999 -115.288 -45.3999 -115.127 -45.6404C-115.127 -45.8809 -114.887 -45.9611 -114.647 -45.9611ZM-114.647 -24.3946C-114.566 -24.3946 -114.406 -24.3945 -114.326 -24.3144L72.6011 83.5984C72.9217 83.7588 73.0019 84.1596 72.8416 84.4002C72.6813 84.7208 72.2805 84.801 72.04 84.6407L-114.967 -23.2721C-115.288 -23.4325 -115.368 -23.8333 -115.208 -24.0739C-115.128 -24.3144 -114.887 -24.3946 -114.647 -24.3946ZM-114.647 -2.82802C-114.566 -2.82802 -114.406 -2.82804 -114.326 -2.74787L72.6011 105.165C72.9217 105.325 73.0019 105.726 72.8416 105.967C72.6813 106.287 72.2805 106.368 72.04 106.207L-114.887 -1.70558C-115.208 -1.86593 -115.288 -2.26679 -115.127 -2.50731C-115.127 -2.66766 -114.887 -2.82802 -114.647 -2.82802ZM-114.647 18.8187C-114.566 18.8187 -114.406 18.8187 -114.326 18.8988L72.6011 126.812C72.9217 126.972 73.0019 127.373 72.8416 127.613C72.6813 127.934 72.2805 128.014 72.04 127.854L-114.887 19.9411C-115.208 19.7808 -115.288 19.3799 -115.127 19.1394C-115.127 18.8989 -114.887 18.8187 -114.647 18.8187Z" fill="url(#paint60_linear)"/>
</g>
</g>
<defs>
<linearGradient id="paint0_linear" x1="421.748" y1="327.201" x2="431.696" y2="309.973" gradientUnits="userSpaceOnUse">
<stop offset="0.3023" stop-color="#BDBEC2" stop-opacity="0"/>
<stop offset="0.8247" stop-color="#BDBEC2"/>
</linearGradient>
<linearGradient id="paint1_linear" x1="440.505" y1="316.458" x2="450.453" y2="299.23" gradientUnits="userSpaceOnUse">
<stop offset="0.3023" stop-color="#BDBEC2" stop-opacity="0"/>
<stop offset="0.8247" stop-color="#BDBEC2"/>
</linearGradient>
<linearGradient id="paint2_linear" x1="459.181" y1="327.201" x2="469.13" y2="309.973" gradientUnits="userSpaceOnUse">
<stop offset="0.3023" stop-color="#BDBEC2" stop-opacity="0"/>
<stop offset="0.8247" stop-color="#BDBEC2"/>
</linearGradient>
<linearGradient id="paint3_linear" x1="459.181" y1="305.634" x2="469.13" y2="288.407" gradientUnits="userSpaceOnUse">
<stop offset="0.3023" stop-color="#BDBEC2" stop-opacity="0"/>
<stop offset="0.8247" stop-color="#BDBEC2"/>
</linearGradient>
<linearGradient id="paint4_linear" x1="347.041" y1="370.414" x2="356.99" y2="353.186" gradientUnits="userSpaceOnUse">
<stop offset="0.3023" stop-color="#BDBEC2" stop-opacity="0"/>
<stop offset="0.8247" stop-color="#BDBEC2"/>
</linearGradient>
<linearGradient id="paint5_linear" x1="365.718" y1="359.591" x2="375.666" y2="342.363" gradientUnits="userSpaceOnUse">
<stop offset="0.3023" stop-color="#BDBEC2" stop-opacity="0"/>
<stop offset="0.8247" stop-color="#BDBEC2"/>
</linearGradient>
<linearGradient id="paint6_linear" x1="384.395" y1="370.414" x2="394.343" y2="353.186" gradientUnits="userSpaceOnUse">
<stop offset="0.3023" stop-color="#BDBEC2" stop-opacity="0"/>
<stop offset="0.8247" stop-color="#BDBEC2"/>
</linearGradient>
<linearGradient id="paint7_linear" x1="384.395" y1="348.768" x2="394.343" y2="331.54" gradientUnits="userSpaceOnUse">
<stop offset="0.3023" stop-color="#BDBEC2" stop-opacity="0"/>
<stop offset="0.8247" stop-color="#BDBEC2"/>
</linearGradient>
<linearGradient id="paint8_linear" x1="403.071" y1="359.591" x2="413.02" y2="342.363" gradientUnits="userSpaceOnUse">
<stop offset="0.3023" stop-color="#BDBEC2" stop-opacity="0"/>
<stop offset="0.8247" stop-color="#BDBEC2"/>
</linearGradient>
<linearGradient id="paint9_linear" x1="421.748" y1="370.414" x2="431.696" y2="353.186" gradientUnits="userSpaceOnUse">
<stop offset="0.3023" stop-color="#BDBEC2" stop-opacity="0"/>
<stop offset="0.8247" stop-color="#BDBEC2"/>
</linearGradient>
<linearGradient id="paint10_linear" x1="403.071" y1="338.024" x2="413.02" y2="320.797" gradientUnits="userSpaceOnUse">
<stop offset="0.3023" stop-color="#BDBEC2" stop-opacity="0"/>
<stop offset="0.8247" stop-color="#BDBEC2"/>
</linearGradient>
<linearGradient id="paint11_linear" x1="421.748" y1="348.768" x2="431.696" y2="331.54" gradientUnits="userSpaceOnUse">
<stop offset="0.3023" stop-color="#BDBEC2" stop-opacity="0"/>
<stop offset="0.8247" stop-color="#BDBEC2"/>
</linearGradient>
<linearGradient id="paint12_linear" x1="440.505" y1="359.591" x2="450.453" y2="342.363" gradientUnits="userSpaceOnUse">
<stop offset="0.3023" stop-color="#BDBEC2" stop-opacity="0"/>
<stop offset="0.8247" stop-color="#BDBEC2"/>
</linearGradient>
<linearGradient id="paint13_linear" x1="459.181" y1="370.414" x2="469.13" y2="353.186" gradientUnits="userSpaceOnUse">
<stop offset="0.3023" stop-color="#BDBEC2" stop-opacity="0"/>
<stop offset="0.8247" stop-color="#BDBEC2"/>
</linearGradient>
<linearGradient id="paint14_linear" x1="440.505" y1="338.024" x2="450.453" y2="320.797" gradientUnits="userSpaceOnUse">
<stop offset="0.3023" stop-color="#BDBEC2" stop-opacity="0"/>
<stop offset="0.8247" stop-color="#BDBEC2"/>
</linearGradient>
<linearGradient id="paint15_linear" x1="459.181" y1="348.768" x2="469.13" y2="331.54" gradientUnits="userSpaceOnUse">
<stop offset="0.3023" stop-color="#BDBEC2" stop-opacity="0"/>
<stop offset="0.8247" stop-color="#BDBEC2"/>
</linearGradient>
<linearGradient id="paint16_linear" x1="566.886" y1="680.721" x2="566.886" y2="291.005" gradientUnits="userSpaceOnUse">
<stop stop-color="#BDBEC2" stop-opacity="0.5"/>
<stop offset="0.9995" stop-color="#BDBEC2"/>
</linearGradient>
<linearGradient id="paint17_linear" x1="123.902" y1="91.7124" x2="113.954" y2="108.94" gradientUnits="userSpaceOnUse">
<stop offset="0.3023" stop-color="#BDBEC2" stop-opacity="0"/>
<stop offset="0.8247" stop-color="#BDBEC2"/>
</linearGradient>
<linearGradient id="paint18_linear" x1="105.145" y1="102.456" x2="95.1966" y2="119.683" gradientUnits="userSpaceOnUse">
<stop offset="0.3023" stop-color="#BDBEC2" stop-opacity="0"/>
<stop offset="0.8247" stop-color="#BDBEC2"/>
</linearGradient>
<linearGradient id="paint19_linear" x1="86.4685" y1="91.7124" x2="76.5198" y2="108.94" gradientUnits="userSpaceOnUse">
<stop offset="0.3023" stop-color="#BDBEC2" stop-opacity="0"/>
<stop offset="0.8247" stop-color="#BDBEC2"/>
</linearGradient>
<linearGradient id="paint20_linear" x1="86.4685" y1="113.279" x2="76.5199" y2="130.507" gradientUnits="userSpaceOnUse">
<stop offset="0.3023" stop-color="#BDBEC2" stop-opacity="0"/>
<stop offset="0.8247" stop-color="#BDBEC2"/>
</linearGradient>
<linearGradient id="paint21_linear" x1="198.609" y1="48.4991" x2="188.66" y2="65.727" gradientUnits="userSpaceOnUse">
<stop offset="0.3023" stop-color="#BDBEC2" stop-opacity="0"/>
<stop offset="0.8247" stop-color="#BDBEC2"/>
</linearGradient>
<linearGradient id="paint22_linear" x1="179.932" y1="59.3224" x2="169.984" y2="76.5502" gradientUnits="userSpaceOnUse">
<stop offset="0.3023" stop-color="#BDBEC2" stop-opacity="0"/>
<stop offset="0.8247" stop-color="#BDBEC2"/>
</linearGradient>
<linearGradient id="paint23_linear" x1="161.255" y1="48.4991" x2="151.307" y2="65.727" gradientUnits="userSpaceOnUse">
<stop offset="0.3023" stop-color="#BDBEC2" stop-opacity="0"/>
<stop offset="0.8247" stop-color="#BDBEC2"/>
</linearGradient>
<linearGradient id="paint24_linear" x1="161.255" y1="70.1457" x2="151.307" y2="87.3737" gradientUnits="userSpaceOnUse">
<stop offset="0.3023" stop-color="#BDBEC2" stop-opacity="0"/>
<stop offset="0.8247" stop-color="#BDBEC2"/>
</linearGradient>
<linearGradient id="paint25_linear" x1="142.579" y1="59.3224" x2="132.63" y2="76.5502" gradientUnits="userSpaceOnUse">
<stop offset="0.3023" stop-color="#BDBEC2" stop-opacity="0"/>
<stop offset="0.8247" stop-color="#BDBEC2"/>
</linearGradient>
<linearGradient id="paint26_linear" x1="123.902" y1="48.4991" x2="113.954" y2="65.727" gradientUnits="userSpaceOnUse">
<stop offset="0.3023" stop-color="#BDBEC2" stop-opacity="0"/>
<stop offset="0.8247" stop-color="#BDBEC2"/>
</linearGradient>
<linearGradient id="paint27_linear" x1="142.579" y1="80.889" x2="132.63" y2="98.1168" gradientUnits="userSpaceOnUse">
<stop offset="0.3023" stop-color="#BDBEC2" stop-opacity="0"/>
<stop offset="0.8247" stop-color="#BDBEC2"/>
</linearGradient>
<linearGradient id="paint28_linear" x1="123.902" y1="70.1457" x2="113.954" y2="87.3737" gradientUnits="userSpaceOnUse">
<stop offset="0.3023" stop-color="#BDBEC2" stop-opacity="0"/>
<stop offset="0.8247" stop-color="#BDBEC2"/>
</linearGradient>
<linearGradient id="paint29_linear" x1="105.145" y1="59.3224" x2="95.1967" y2="76.5502" gradientUnits="userSpaceOnUse">
<stop offset="0.3023" stop-color="#BDBEC2" stop-opacity="0"/>
<stop offset="0.8247" stop-color="#BDBEC2"/>
</linearGradient>
<linearGradient id="paint30_linear" x1="86.4685" y1="48.4991" x2="76.5199" y2="65.7269" gradientUnits="userSpaceOnUse">
<stop offset="0.3023" stop-color="#BDBEC2" stop-opacity="0"/>
<stop offset="0.8247" stop-color="#BDBEC2"/>
</linearGradient>
<linearGradient id="paint31_linear" x1="105.145" y1="80.889" x2="95.1967" y2="98.1168" gradientUnits="userSpaceOnUse">
<stop offset="0.3023" stop-color="#BDBEC2" stop-opacity="0"/>
<stop offset="0.8247" stop-color="#BDBEC2"/>
</linearGradient>
<linearGradient id="paint32_linear" x1="86.4685" y1="70.1457" x2="76.5198" y2="87.3736" gradientUnits="userSpaceOnUse">
<stop offset="0.3023" stop-color="#BDBEC2" stop-opacity="0"/>
<stop offset="0.8247" stop-color="#BDBEC2"/>
</linearGradient>
<linearGradient id="paint33_linear" x1="273.396" y1="5.36603" x2="263.447" y2="22.5939" gradientUnits="userSpaceOnUse">
<stop offset="0.3023" stop-color="#BDBEC2" stop-opacity="0"/>
<stop offset="0.8247" stop-color="#BDBEC2"/>
</linearGradient>
<linearGradient id="paint34_linear" x1="254.719" y1="16.1894" x2="244.77" y2="33.4174" gradientUnits="userSpaceOnUse">
<stop offset="0.3023" stop-color="#BDBEC2" stop-opacity="0"/>
<stop offset="0.8247" stop-color="#BDBEC2"/>
</linearGradient>
<linearGradient id="paint35_linear" x1="235.962" y1="5.36603" x2="226.014" y2="22.5939" gradientUnits="userSpaceOnUse">
<stop offset="0.3023" stop-color="#BDBEC2" stop-opacity="0"/>
<stop offset="0.8247" stop-color="#BDBEC2"/>
</linearGradient>
<linearGradient id="paint36_linear" x1="235.962" y1="26.9328" x2="226.014" y2="44.1605" gradientUnits="userSpaceOnUse">
<stop offset="0.3023" stop-color="#BDBEC2" stop-opacity="0"/>
<stop offset="0.8247" stop-color="#BDBEC2"/>
</linearGradient>
<linearGradient id="paint37_linear" x1="217.286" y1="16.1894" x2="207.337" y2="33.4174" gradientUnits="userSpaceOnUse">
<stop offset="0.3023" stop-color="#BDBEC2" stop-opacity="0"/>
<stop offset="0.8247" stop-color="#BDBEC2"/>
</linearGradient>
<linearGradient id="paint38_linear" x1="198.609" y1="5.36603" x2="188.66" y2="22.594" gradientUnits="userSpaceOnUse">
<stop offset="0.3023" stop-color="#BDBEC2" stop-opacity="0"/>
<stop offset="0.8247" stop-color="#BDBEC2"/>
</linearGradient>
<linearGradient id="paint39_linear" x1="217.286" y1="37.756" x2="207.337" y2="54.9839" gradientUnits="userSpaceOnUse">
<stop offset="0.3023" stop-color="#BDBEC2" stop-opacity="0"/>
<stop offset="0.8247" stop-color="#BDBEC2"/>
</linearGradient>
<linearGradient id="paint40_linear" x1="198.609" y1="26.9328" x2="188.66" y2="44.1607" gradientUnits="userSpaceOnUse">
<stop offset="0.3023" stop-color="#BDBEC2" stop-opacity="0"/>
<stop offset="0.8247" stop-color="#BDBEC2"/>
</linearGradient>
<linearGradient id="paint41_linear" x1="179.932" y1="16.1894" x2="169.983" y2="33.4174" gradientUnits="userSpaceOnUse">
<stop offset="0.3023" stop-color="#BDBEC2" stop-opacity="0"/>
<stop offset="0.8247" stop-color="#BDBEC2"/>
</linearGradient>
<linearGradient id="paint42_linear" x1="161.255" y1="5.36603" x2="151.307" y2="22.594" gradientUnits="userSpaceOnUse">
<stop offset="0.3023" stop-color="#BDBEC2" stop-opacity="0"/>
<stop offset="0.8247" stop-color="#BDBEC2"/>
</linearGradient>
<linearGradient id="paint43_linear" x1="179.932" y1="37.756" x2="169.984" y2="54.9838" gradientUnits="userSpaceOnUse">
<stop offset="0.3023" stop-color="#BDBEC2" stop-opacity="0"/>
<stop offset="0.8247" stop-color="#BDBEC2"/>
</linearGradient>
<linearGradient id="paint44_linear" x1="161.255" y1="26.9328" x2="151.307" y2="44.1607" gradientUnits="userSpaceOnUse">
<stop offset="0.3023" stop-color="#BDBEC2" stop-opacity="0"/>
<stop offset="0.8247" stop-color="#BDBEC2"/>
</linearGradient>
<linearGradient id="paint45_linear" x1="142.579" y1="16.1894" x2="132.63" y2="33.4173" gradientUnits="userSpaceOnUse">
<stop offset="0.3023" stop-color="#BDBEC2" stop-opacity="0"/>
<stop offset="0.8247" stop-color="#BDBEC2"/>
</linearGradient>
<linearGradient id="paint46_linear" x1="123.902" y1="5.36603" x2="113.954" y2="22.594" gradientUnits="userSpaceOnUse">
<stop offset="0.3023" stop-color="#BDBEC2" stop-opacity="0"/>
<stop offset="0.8247" stop-color="#BDBEC2"/>
</linearGradient>
<linearGradient id="paint47_linear" x1="142.579" y1="37.756" x2="132.63" y2="54.9838" gradientUnits="userSpaceOnUse">
<stop offset="0.3023" stop-color="#BDBEC2" stop-opacity="0"/>
<stop offset="0.8247" stop-color="#BDBEC2"/>
</linearGradient>
<linearGradient id="paint48_linear" x1="123.902" y1="26.9328" x2="113.954" y2="44.1607" gradientUnits="userSpaceOnUse">
<stop offset="0.3023" stop-color="#BDBEC2" stop-opacity="0"/>
<stop offset="0.8247" stop-color="#BDBEC2"/>
</linearGradient>
<linearGradient id="paint49_linear" x1="105.145" y1="16.1894" x2="95.1966" y2="33.4173" gradientUnits="userSpaceOnUse">
<stop offset="0.3023" stop-color="#BDBEC2" stop-opacity="0"/>
<stop offset="0.8247" stop-color="#BDBEC2"/>
</linearGradient>
<linearGradient id="paint50_linear" x1="86.4685" y1="5.36603" x2="76.5199" y2="22.5938" gradientUnits="userSpaceOnUse">
<stop offset="0.3023" stop-color="#BDBEC2" stop-opacity="0"/>
<stop offset="0.8247" stop-color="#BDBEC2"/>
</linearGradient>
<linearGradient id="paint51_linear" x1="105.145" y1="37.756" x2="95.1967" y2="54.9838" gradientUnits="userSpaceOnUse">
<stop offset="0.3023" stop-color="#BDBEC2" stop-opacity="0"/>
<stop offset="0.8247" stop-color="#BDBEC2"/>
</linearGradient>
<linearGradient id="paint52_linear" x1="86.4685" y1="26.9328" x2="76.52" y2="44.1605" gradientUnits="userSpaceOnUse">
<stop offset="0.3023" stop-color="#BDBEC2" stop-opacity="0"/>
<stop offset="0.8247" stop-color="#BDBEC2"/>
</linearGradient>
<linearGradient id="paint53_linear" x1="292.072" y1="-5.45721" x2="282.124" y2="11.7706" gradientUnits="userSpaceOnUse">
<stop offset="0.3023" stop-color="#BDBEC2" stop-opacity="0"/>
<stop offset="0.8247" stop-color="#BDBEC2"/>
</linearGradient>
<linearGradient id="paint54_linear" x1="254.719" y1="-5.45721" x2="244.77" y2="11.7707" gradientUnits="userSpaceOnUse">
<stop offset="0.3023" stop-color="#BDBEC2" stop-opacity="0"/>
<stop offset="0.8247" stop-color="#BDBEC2"/>
</linearGradient>
<linearGradient id="paint55_linear" x1="217.286" y1="-5.45721" x2="207.337" y2="11.7707" gradientUnits="userSpaceOnUse">
<stop offset="0.3023" stop-color="#BDBEC2" stop-opacity="0"/>
<stop offset="0.8247" stop-color="#BDBEC2"/>
</linearGradient>
<linearGradient id="paint56_linear" x1="179.932" y1="-5.45721" x2="169.984" y2="11.7707" gradientUnits="userSpaceOnUse">
<stop offset="0.3023" stop-color="#BDBEC2" stop-opacity="0"/>
<stop offset="0.8247" stop-color="#BDBEC2"/>
</linearGradient>
<linearGradient id="paint57_linear" x1="142.579" y1="-5.45721" x2="132.63" y2="11.7706" gradientUnits="userSpaceOnUse">
<stop offset="0.3023" stop-color="#BDBEC2" stop-opacity="0"/>
<stop offset="0.8247" stop-color="#BDBEC2"/>
</linearGradient>
<linearGradient id="paint58_linear" x1="105.145" y1="-5.45721" x2="95.1967" y2="11.7706" gradientUnits="userSpaceOnUse">
<stop offset="0.3023" stop-color="#BDBEC2" stop-opacity="0"/>
<stop offset="0.8247" stop-color="#BDBEC2"/>
</linearGradient>
<linearGradient id="paint59_linear" x1="65.0706" y1="202.35" x2="-0.0518233" y2="145.203" gradientUnits="userSpaceOnUse">
<stop offset="0.00045606" stop-color="#BDBEC2" stop-opacity="0"/>
<stop offset="1" stop-color="#BDBEC2" stop-opacity="0.8"/>
</linearGradient>
<linearGradient id="paint60_linear" x1="72.8051" y1="-66.3266" x2="-115.887" y2="-66.3266" gradientUnits="userSpaceOnUse">
<stop offset="0.00045606" stop-color="#BDBEC2" stop-opacity="0.9"/>
<stop offset="1" stop-color="#BDBEC2" stop-opacity="0"/>
</linearGradient>
</defs>
</svg>
