<svg width="688" height="124" viewBox="0 0 688 124" fill="none" xmlns="http://www.w3.org/2000/svg">
<rect width="688" height="124" fill="white"/>
<g filter="url(#filter0_d)">
<rect x="4" width="160" height="116" fill="#D6A5E7"/>
<rect x="4.5" y="0.5" width="159" height="115" stroke="black"/>
</g>
<path d="M51.5684 61.0625V67H49.9082V52.7227H53.8242C55.5755 52.7227 56.8678 53.0579 57.7012 53.7285C58.541 54.3991 58.9609 55.4082 58.9609 56.7559C58.9609 58.6439 58.0039 59.9199 56.0898 60.584L59.9668 67H58.0039L54.5469 61.0625H51.5684ZM51.5684 59.6367H53.8438C55.0156 59.6367 55.875 59.4056 56.4219 58.9434C56.9688 58.4746 57.2422 57.7747 57.2422 56.8438C57.2422 55.8997 56.9622 55.2194 56.4023 54.8027C55.849 54.3861 54.957 54.1777 53.7266 54.1777H51.5684V59.6367ZM71.2656 61.6387C71.2656 63.3835 70.8262 64.7474 69.9473 65.7305C69.0684 66.707 67.8542 67.1953 66.3047 67.1953C65.3477 67.1953 64.498 66.9707 63.7559 66.5215C63.0137 66.0723 62.4408 65.4277 62.0371 64.5879C61.6335 63.748 61.4316 62.765 61.4316 61.6387C61.4316 59.8939 61.8678 58.5365 62.7402 57.5664C63.6126 56.5898 64.8236 56.1016 66.373 56.1016C67.8704 56.1016 69.0586 56.5996 69.9375 57.5957C70.8229 58.5918 71.2656 59.9395 71.2656 61.6387ZM63.1113 61.6387C63.1113 63.0059 63.3848 64.0475 63.9316 64.7637C64.4785 65.4798 65.2826 65.8379 66.3438 65.8379C67.4049 65.8379 68.209 65.4831 68.7559 64.7734C69.3092 64.0573 69.5859 63.0124 69.5859 61.6387C69.5859 60.278 69.3092 59.2461 68.7559 58.543C68.209 57.8333 67.3984 57.4785 66.3242 57.4785C65.263 57.4785 64.4622 57.8268 63.9219 58.5234C63.3815 59.2201 63.1113 60.2585 63.1113 61.6387ZM75.6406 56.2969V63.2402C75.6406 64.1126 75.8392 64.7637 76.2363 65.1934C76.6335 65.623 77.2552 65.8379 78.1016 65.8379C79.2214 65.8379 80.0384 65.5319 80.5527 64.9199C81.0736 64.3079 81.334 63.3086 81.334 61.9219V56.2969H82.9551V67H81.6172L81.3828 65.5645H81.2949C80.9629 66.0918 80.5007 66.4954 79.9082 66.7754C79.3223 67.0553 78.6517 67.1953 77.8965 67.1953C76.5944 67.1953 75.6178 66.8861 74.9668 66.2676C74.3223 65.6491 74 64.6595 74 63.2988V56.2969H75.6406ZM89.8594 65.8574C90.1458 65.8574 90.4225 65.8379 90.6895 65.7988C90.9564 65.7533 91.168 65.7077 91.3242 65.6621V66.9023C91.1484 66.987 90.888 67.0553 90.543 67.1074C90.2044 67.166 89.8984 67.1953 89.625 67.1953C87.5547 67.1953 86.5195 66.1048 86.5195 63.9238V57.5566H84.9863V56.7754L86.5195 56.1016L87.2031 53.8164H88.1406V56.2969H91.2461V57.5566H88.1406V63.8555C88.1406 64.5 88.2936 64.9948 88.5996 65.3398C88.9056 65.6849 89.3255 65.8574 89.8594 65.8574ZM95.0938 67H93.4727V56.2969H95.0938V67ZM93.3359 53.3965C93.3359 53.0254 93.4271 52.7552 93.6094 52.5859C93.7917 52.4102 94.0195 52.3223 94.293 52.3223C94.5534 52.3223 94.778 52.4102 94.9668 52.5859C95.1556 52.7617 95.25 53.0319 95.25 53.3965C95.25 53.7611 95.1556 54.0345 94.9668 54.2168C94.778 54.3926 94.5534 54.4805 94.293 54.4805C94.0195 54.4805 93.7917 54.3926 93.6094 54.2168C93.4271 54.0345 93.3359 53.7611 93.3359 53.3965ZM105.855 67V60.0762C105.855 59.2038 105.657 58.5527 105.26 58.123C104.863 57.6934 104.241 57.4785 103.395 57.4785C102.275 57.4785 101.454 57.7812 100.934 58.3867C100.413 58.9922 100.152 59.9915 100.152 61.3848V67H98.5312V56.2969H99.8496L100.113 57.7617H100.191C100.523 57.2344 100.989 56.8275 101.588 56.541C102.187 56.248 102.854 56.1016 103.59 56.1016C104.879 56.1016 105.849 56.4141 106.5 57.0391C107.151 57.6576 107.477 58.6504 107.477 60.0176V67H105.855ZM119.576 56.2969V57.3223L117.594 57.5566C117.776 57.7845 117.939 58.084 118.082 58.4551C118.225 58.8197 118.297 59.2331 118.297 59.6953C118.297 60.7435 117.939 61.5801 117.223 62.2051C116.507 62.8301 115.523 63.1426 114.273 63.1426C113.954 63.1426 113.655 63.1165 113.375 63.0645C112.685 63.429 112.34 63.888 112.34 64.4414C112.34 64.7344 112.46 64.9525 112.701 65.0957C112.942 65.2324 113.355 65.3008 113.941 65.3008H115.836C116.995 65.3008 117.883 65.5449 118.502 66.0332C119.127 66.5215 119.439 67.2311 119.439 68.1621C119.439 69.347 118.964 70.2487 118.014 70.8672C117.063 71.4922 115.676 71.8047 113.854 71.8047C112.454 71.8047 111.373 71.5443 110.611 71.0234C109.856 70.5026 109.479 69.7669 109.479 68.8164C109.479 68.1654 109.687 67.6022 110.104 67.127C110.52 66.6517 111.106 66.3294 111.861 66.1602C111.588 66.0365 111.357 65.8444 111.168 65.584C110.986 65.3236 110.895 65.0208 110.895 64.6758C110.895 64.2852 110.999 63.9434 111.207 63.6504C111.415 63.3574 111.744 63.0742 112.193 62.8008C111.64 62.5729 111.188 62.1855 110.836 61.6387C110.491 61.0918 110.318 60.4668 110.318 59.7637C110.318 58.5918 110.67 57.6901 111.373 57.0586C112.076 56.4206 113.072 56.1016 114.361 56.1016C114.921 56.1016 115.426 56.1667 115.875 56.2969H119.576ZM111.041 68.7969C111.041 69.3763 111.285 69.8158 111.773 70.1152C112.262 70.4147 112.962 70.5645 113.873 70.5645C115.234 70.5645 116.24 70.3594 116.891 69.9492C117.548 69.5456 117.877 68.9954 117.877 68.2988C117.877 67.7194 117.698 67.3158 117.34 67.0879C116.982 66.8665 116.308 66.7559 115.318 66.7559H113.375C112.639 66.7559 112.066 66.9316 111.656 67.2832C111.246 67.6348 111.041 68.1393 111.041 68.7969ZM111.92 59.7246C111.92 60.4733 112.132 61.0397 112.555 61.4238C112.978 61.8079 113.567 62 114.322 62C115.904 62 116.695 61.2318 116.695 59.6953C116.695 58.0872 115.895 57.2832 114.293 57.2832C113.531 57.2832 112.945 57.4883 112.535 57.8984C112.125 58.3086 111.92 58.9173 111.92 59.7246Z" fill="black"/>
<g filter="url(#filter1_d)">
<rect x="524" width="160" height="116" fill="#89D888"/>
<rect x="524.5" y="0.5" width="159" height="115" stroke="black"/>
</g>
<path d="M558.082 60.0625V66H556.422V51.7227H560.338C562.089 51.7227 563.382 52.0579 564.215 52.7285C565.055 53.3991 565.475 54.4082 565.475 55.7559C565.475 57.6439 564.518 58.9199 562.604 59.584L566.48 66H564.518L561.061 60.0625H558.082ZM558.082 58.6367H560.357C561.529 58.6367 562.389 58.4056 562.936 57.9434C563.482 57.4746 563.756 56.7747 563.756 55.8438C563.756 54.8997 563.476 54.2194 562.916 53.8027C562.363 53.3861 561.471 53.1777 560.24 53.1777H558.082V58.6367ZM573.062 66.1953C571.48 66.1953 570.23 65.7135 569.312 64.75C568.401 63.7865 567.945 62.4486 567.945 60.7363C567.945 59.0111 568.368 57.6406 569.215 56.625C570.068 55.6094 571.21 55.1016 572.643 55.1016C573.984 55.1016 575.045 55.5443 575.826 56.4297C576.607 57.3086 576.998 58.4707 576.998 59.916V60.9414H569.625C569.658 62.1979 569.973 63.1517 570.572 63.8027C571.178 64.4538 572.027 64.7793 573.121 64.7793C574.273 64.7793 575.413 64.5384 576.539 64.0566V65.502C575.966 65.7493 575.423 65.9251 574.908 66.0293C574.4 66.14 573.785 66.1953 573.062 66.1953ZM572.623 56.459C571.764 56.459 571.077 56.7389 570.562 57.2988C570.055 57.8587 569.755 58.6335 569.664 59.623H575.26C575.26 58.6009 575.032 57.8197 574.576 57.2793C574.12 56.7324 573.469 56.459 572.623 56.459ZM586.676 63.0801C586.676 64.0762 586.305 64.8444 585.562 65.3848C584.82 65.9251 583.779 66.1953 582.438 66.1953C581.018 66.1953 579.911 65.9707 579.117 65.5215V64.0176C579.632 64.278 580.182 64.4831 580.768 64.6328C581.36 64.7826 581.93 64.8574 582.477 64.8574C583.323 64.8574 583.974 64.724 584.43 64.457C584.885 64.1836 585.113 63.7702 585.113 63.2168C585.113 62.8001 584.931 62.4453 584.566 62.1523C584.208 61.8529 583.505 61.5013 582.457 61.0977C581.461 60.7266 580.751 60.4043 580.328 60.1309C579.911 59.8509 579.599 59.5352 579.391 59.1836C579.189 58.832 579.088 58.4121 579.088 57.9238C579.088 57.0514 579.443 56.3646 580.152 55.8633C580.862 55.3555 581.835 55.1016 583.072 55.1016C584.225 55.1016 585.351 55.3359 586.451 55.8047L585.875 57.123C584.801 56.6803 583.827 56.459 582.955 56.459C582.187 56.459 581.607 56.5794 581.217 56.8203C580.826 57.0612 580.631 57.3932 580.631 57.8164C580.631 58.1029 580.702 58.347 580.846 58.5488C580.995 58.7507 581.233 58.9427 581.559 59.125C581.884 59.3073 582.509 59.571 583.434 59.916C584.703 60.3783 585.559 60.8438 586.002 61.3125C586.451 61.7812 586.676 62.3704 586.676 63.0801ZM598.561 60.6387C598.561 62.3835 598.121 63.7474 597.242 64.7305C596.363 65.707 595.149 66.1953 593.6 66.1953C592.643 66.1953 591.793 65.9707 591.051 65.5215C590.309 65.0723 589.736 64.4277 589.332 63.5879C588.928 62.748 588.727 61.765 588.727 60.6387C588.727 58.8939 589.163 57.5365 590.035 56.5664C590.908 55.5898 592.118 55.1016 593.668 55.1016C595.165 55.1016 596.354 55.5996 597.232 56.5957C598.118 57.5918 598.561 58.9395 598.561 60.6387ZM590.406 60.6387C590.406 62.0059 590.68 63.0475 591.227 63.7637C591.773 64.4798 592.577 64.8379 593.639 64.8379C594.7 64.8379 595.504 64.4831 596.051 63.7734C596.604 63.0573 596.881 62.0124 596.881 60.6387C596.881 59.278 596.604 58.2461 596.051 57.543C595.504 56.8333 594.693 56.4785 593.619 56.4785C592.558 56.4785 591.757 56.8268 591.217 57.5234C590.676 58.2201 590.406 59.2585 590.406 60.6387ZM603.033 66H601.412V50.8047H603.033V66ZM607.994 55.2969V62.2402C607.994 63.1126 608.193 63.7637 608.59 64.1934C608.987 64.623 609.609 64.8379 610.455 64.8379C611.575 64.8379 612.392 64.5319 612.906 63.9199C613.427 63.3079 613.688 62.3086 613.688 60.9219V55.2969H615.309V66H613.971L613.736 64.5645H613.648C613.316 65.0918 612.854 65.4954 612.262 65.7754C611.676 66.0553 611.005 66.1953 610.25 66.1953C608.948 66.1953 607.971 65.8861 607.32 65.2676C606.676 64.6491 606.354 63.6595 606.354 62.2988V55.2969H607.994ZM622.213 64.8574C622.499 64.8574 622.776 64.8379 623.043 64.7988C623.31 64.7533 623.521 64.7077 623.678 64.6621V65.9023C623.502 65.987 623.242 66.0553 622.896 66.1074C622.558 66.166 622.252 66.1953 621.979 66.1953C619.908 66.1953 618.873 65.1048 618.873 62.9238V56.5566H617.34V55.7754L618.873 55.1016L619.557 52.8164H620.494V55.2969H623.6V56.5566H620.494V62.8555C620.494 63.5 620.647 63.9948 620.953 64.3398C621.259 64.6849 621.679 64.8574 622.213 64.8574ZM627.447 66H625.826V55.2969H627.447V66ZM625.689 52.3965C625.689 52.0254 625.781 51.7552 625.963 51.5859C626.145 51.4102 626.373 51.3223 626.646 51.3223C626.907 51.3223 627.132 51.4102 627.32 51.5859C627.509 51.7617 627.604 52.0319 627.604 52.3965C627.604 52.7611 627.509 53.0345 627.32 53.2168C627.132 53.3926 626.907 53.4805 626.646 53.4805C626.373 53.4805 626.145 53.3926 625.963 53.2168C625.781 53.0345 625.689 52.7611 625.689 52.3965ZM640.123 60.6387C640.123 62.3835 639.684 63.7474 638.805 64.7305C637.926 65.707 636.712 66.1953 635.162 66.1953C634.205 66.1953 633.355 65.9707 632.613 65.5215C631.871 65.0723 631.298 64.4277 630.895 63.5879C630.491 62.748 630.289 61.765 630.289 60.6387C630.289 58.8939 630.725 57.5365 631.598 56.5664C632.47 55.5898 633.681 55.1016 635.23 55.1016C636.728 55.1016 637.916 55.5996 638.795 56.5957C639.68 57.5918 640.123 58.9395 640.123 60.6387ZM631.969 60.6387C631.969 62.0059 632.242 63.0475 632.789 63.7637C633.336 64.4798 634.14 64.8379 635.201 64.8379C636.262 64.8379 637.066 64.4831 637.613 63.7734C638.167 63.0573 638.443 62.0124 638.443 60.6387C638.443 59.278 638.167 58.2461 637.613 57.543C637.066 56.8333 636.256 56.4785 635.182 56.4785C634.12 56.4785 633.32 56.8268 632.779 57.5234C632.239 58.2201 631.969 59.2585 631.969 60.6387ZM650.299 66V59.0762C650.299 58.2038 650.1 57.5527 649.703 57.123C649.306 56.6934 648.684 56.4785 647.838 56.4785C646.718 56.4785 645.898 56.7812 645.377 57.3867C644.856 57.9922 644.596 58.9915 644.596 60.3848V66H642.975V55.2969H644.293L644.557 56.7617H644.635C644.967 56.2344 645.432 55.8275 646.031 55.541C646.63 55.248 647.298 55.1016 648.033 55.1016C649.322 55.1016 650.292 55.4141 650.943 56.0391C651.594 56.6576 651.92 57.6504 651.92 59.0176V66H650.299Z" fill="black"/>
<g filter="url(#filter2_d)">
<rect x="264" width="160" height="116" fill="#DFE093"/>
<rect x="264.5" y="0.5" width="159" height="115" stroke="black"/>
</g>
<path d="M316.119 62.2012C316.119 63.4577 315.663 64.4375 314.752 65.1406C313.84 65.8438 312.604 66.1953 311.041 66.1953C309.348 66.1953 308.046 65.9772 307.135 65.541V63.9395C307.721 64.1868 308.359 64.3822 309.049 64.5254C309.739 64.6686 310.423 64.7402 311.1 64.7402C312.206 64.7402 313.04 64.5319 313.6 64.1152C314.16 63.6921 314.439 63.1061 314.439 62.3574C314.439 61.8626 314.339 61.459 314.137 61.1465C313.941 60.8275 313.609 60.5345 313.141 60.2676C312.678 60.0007 311.972 59.6979 311.021 59.3594C309.693 58.8841 308.743 58.321 308.17 57.6699C307.604 57.0189 307.32 56.1693 307.32 55.1211C307.32 54.0208 307.734 53.1452 308.561 52.4941C309.387 51.8431 310.481 51.5176 311.842 51.5176C313.261 51.5176 314.566 51.778 315.758 52.2988L315.24 53.7441C314.062 53.2493 312.916 53.002 311.803 53.002C310.924 53.002 310.237 53.1908 309.742 53.5684C309.247 53.946 309 54.4701 309 55.1406C309 55.6354 309.091 56.0423 309.273 56.3613C309.456 56.6738 309.762 56.9635 310.191 57.2305C310.628 57.4909 311.292 57.7806 312.184 58.0996C313.681 58.6335 314.71 59.2064 315.27 59.8184C315.836 60.4303 316.119 61.2246 316.119 62.2012ZM323.775 66.1953C323.079 66.1953 322.441 66.0684 321.861 65.8145C321.288 65.554 320.807 65.1569 320.416 64.623H320.299C320.377 65.248 320.416 65.8405 320.416 66.4004V70.8047H318.795V55.2969H320.113L320.338 56.7617H320.416C320.833 56.1758 321.318 55.7526 321.871 55.4922C322.424 55.2318 323.059 55.1016 323.775 55.1016C325.195 55.1016 326.288 55.5866 327.057 56.5566C327.831 57.5267 328.219 58.8874 328.219 60.6387C328.219 62.3965 327.825 63.7637 327.037 64.7402C326.256 65.7103 325.169 66.1953 323.775 66.1953ZM323.541 56.4785C322.447 56.4785 321.656 56.7812 321.168 57.3867C320.68 57.9922 320.429 58.9557 320.416 60.2773V60.6387C320.416 62.1426 320.667 63.2201 321.168 63.8711C321.669 64.5156 322.473 64.8379 323.58 64.8379C324.505 64.8379 325.227 64.4635 325.748 63.7148C326.275 62.9661 326.539 61.9342 326.539 60.6191C326.539 59.2845 326.275 58.2624 325.748 57.5527C325.227 56.8366 324.492 56.4785 323.541 56.4785ZM332.682 66H331.061V50.8047H332.682V66ZM337.74 66H336.119V55.2969H337.74V66ZM335.982 52.3965C335.982 52.0254 336.074 51.7552 336.256 51.5859C336.438 51.4102 336.666 51.3223 336.939 51.3223C337.2 51.3223 337.424 51.4102 337.613 51.5859C337.802 51.7617 337.896 52.0319 337.896 52.3965C337.896 52.7611 337.802 53.0345 337.613 53.2168C337.424 53.3926 337.2 53.4805 336.939 53.4805C336.666 53.4805 336.438 53.3926 336.256 53.2168C336.074 53.0345 335.982 52.7611 335.982 52.3965ZM344.635 64.8574C344.921 64.8574 345.198 64.8379 345.465 64.7988C345.732 64.7533 345.943 64.7077 346.1 64.6621V65.9023C345.924 65.987 345.663 66.0553 345.318 66.1074C344.98 66.166 344.674 66.1953 344.4 66.1953C342.33 66.1953 341.295 65.1048 341.295 62.9238V56.5566H339.762V55.7754L341.295 55.1016L341.979 52.8164H342.916V55.2969H346.021V56.5566H342.916V62.8555C342.916 63.5 343.069 63.9948 343.375 64.3398C343.681 64.6849 344.101 64.8574 344.635 64.8574ZM351.705 64.8574C351.992 64.8574 352.268 64.8379 352.535 64.7988C352.802 64.7533 353.014 64.7077 353.17 64.6621V65.9023C352.994 65.987 352.734 66.0553 352.389 66.1074C352.05 66.166 351.744 66.1953 351.471 66.1953C349.4 66.1953 348.365 65.1048 348.365 62.9238V56.5566H346.832V55.7754L348.365 55.1016L349.049 52.8164H349.986V55.2969H353.092V56.5566H349.986V62.8555C349.986 63.5 350.139 63.9948 350.445 64.3398C350.751 64.6849 351.171 64.8574 351.705 64.8574ZM356.939 66H355.318V55.2969H356.939V66ZM355.182 52.3965C355.182 52.0254 355.273 51.7552 355.455 51.5859C355.637 51.4102 355.865 51.3223 356.139 51.3223C356.399 51.3223 356.624 51.4102 356.812 51.5859C357.001 51.7617 357.096 52.0319 357.096 52.3965C357.096 52.7611 357.001 53.0345 356.812 53.2168C356.624 53.3926 356.399 53.4805 356.139 53.4805C355.865 53.4805 355.637 53.3926 355.455 53.2168C355.273 53.0345 355.182 52.7611 355.182 52.3965ZM367.701 66V59.0762C367.701 58.2038 367.503 57.5527 367.105 57.123C366.708 56.6934 366.087 56.4785 365.24 56.4785C364.12 56.4785 363.3 56.7812 362.779 57.3867C362.258 57.9922 361.998 58.9915 361.998 60.3848V66H360.377V55.2969H361.695L361.959 56.7617H362.037C362.369 56.2344 362.835 55.8275 363.434 55.541C364.033 55.248 364.7 55.1016 365.436 55.1016C366.725 55.1016 367.695 55.4141 368.346 56.0391C368.997 56.6576 369.322 57.6504 369.322 59.0176V66H367.701ZM381.422 55.2969V56.3223L379.439 56.5566C379.622 56.7845 379.785 57.084 379.928 57.4551C380.071 57.8197 380.143 58.2331 380.143 58.6953C380.143 59.7435 379.785 60.5801 379.068 61.2051C378.352 61.8301 377.369 62.1426 376.119 62.1426C375.8 62.1426 375.501 62.1165 375.221 62.0645C374.531 62.429 374.186 62.888 374.186 63.4414C374.186 63.7344 374.306 63.9525 374.547 64.0957C374.788 64.2324 375.201 64.3008 375.787 64.3008H377.682C378.84 64.3008 379.729 64.5449 380.348 65.0332C380.973 65.5215 381.285 66.2311 381.285 67.1621C381.285 68.347 380.81 69.2487 379.859 69.8672C378.909 70.4922 377.522 70.8047 375.699 70.8047C374.299 70.8047 373.219 70.5443 372.457 70.0234C371.702 69.5026 371.324 68.7669 371.324 67.8164C371.324 67.1654 371.533 66.6022 371.949 66.127C372.366 65.6517 372.952 65.3294 373.707 65.1602C373.434 65.0365 373.202 64.8444 373.014 64.584C372.831 64.3236 372.74 64.0208 372.74 63.6758C372.74 63.2852 372.844 62.9434 373.053 62.6504C373.261 62.3574 373.59 62.0742 374.039 61.8008C373.486 61.5729 373.033 61.1855 372.682 60.6387C372.337 60.0918 372.164 59.4668 372.164 58.7637C372.164 57.5918 372.516 56.6901 373.219 56.0586C373.922 55.4206 374.918 55.1016 376.207 55.1016C376.767 55.1016 377.271 55.1667 377.721 55.2969H381.422ZM372.887 67.7969C372.887 68.3763 373.131 68.8158 373.619 69.1152C374.107 69.4147 374.807 69.5645 375.719 69.5645C377.079 69.5645 378.085 69.3594 378.736 68.9492C379.394 68.5456 379.723 67.9954 379.723 67.2988C379.723 66.7194 379.544 66.3158 379.186 66.0879C378.827 65.8665 378.154 65.7559 377.164 65.7559H375.221C374.485 65.7559 373.912 65.9316 373.502 66.2832C373.092 66.6348 372.887 67.1393 372.887 67.7969ZM373.766 58.7246C373.766 59.4733 373.977 60.0397 374.4 60.4238C374.824 60.8079 375.413 61 376.168 61C377.75 61 378.541 60.2318 378.541 58.6953C378.541 57.0872 377.74 56.2832 376.139 56.2832C375.377 56.2832 374.791 56.4883 374.381 56.8984C373.971 57.3086 373.766 57.9173 373.766 58.7246Z" fill="black"/>
<path d="M264 58L249 49.3397V66.6603L264 58ZM164 59.5L250.5 59.5V56.5L164 56.5V59.5Z" fill="black"/>
<path d="M524 58L509 49.3397V66.6603L524 58ZM424 59.5L510.5 59.5V56.5L424 56.5V59.5Z" fill="black"/>
<defs>
<filter id="filter0_d" x="0" y="0" width="168" height="124" filterUnits="userSpaceOnUse" color-interpolation-filters="sRGB">
<feFlood flood-opacity="0" result="BackgroundImageFix"/>
<feColorMatrix in="SourceAlpha" type="matrix" values="0 0 0 0 0 0 0 0 0 0 0 0 0 0 0 0 0 0 127 0"/>
<feOffset dy="4"/>
<feGaussianBlur stdDeviation="2"/>
<feColorMatrix type="matrix" values="0 0 0 0 0 0 0 0 0 0 0 0 0 0 0 0 0 0 0.25 0"/>
<feBlend mode="normal" in2="BackgroundImageFix" result="effect1_dropShadow"/>
<feBlend mode="normal" in="SourceGraphic" in2="effect1_dropShadow" result="shape"/>
</filter>
<filter id="filter1_d" x="520" y="0" width="168" height="124" filterUnits="userSpaceOnUse" color-interpolation-filters="sRGB">
<feFlood flood-opacity="0" result="BackgroundImageFix"/>
<feColorMatrix in="SourceAlpha" type="matrix" values="0 0 0 0 0 0 0 0 0 0 0 0 0 0 0 0 0 0 127 0"/>
<feOffset dy="4"/>
<feGaussianBlur stdDeviation="2"/>
<feColorMatrix type="matrix" values="0 0 0 0 0 0 0 0 0 0 0 0 0 0 0 0 0 0 0.25 0"/>
<feBlend mode="normal" in2="BackgroundImageFix" result="effect1_dropShadow"/>
<feBlend mode="normal" in="SourceGraphic" in2="effect1_dropShadow" result="shape"/>
</filter>
<filter id="filter2_d" x="260" y="0" width="168" height="124" filterUnits="userSpaceOnUse" color-interpolation-filters="sRGB">
<feFlood flood-opacity="0" result="BackgroundImageFix"/>
<feColorMatrix in="SourceAlpha" type="matrix" values="0 0 0 0 0 0 0 0 0 0 0 0 0 0 0 0 0 0 127 0"/>
<feOffset dy="4"/>
<feGaussianBlur stdDeviation="2"/>
<feColorMatrix type="matrix" values="0 0 0 0 0 0 0 0 0 0 0 0 0 0 0 0 0 0 0.25 0"/>
<feBlend mode="normal" in2="BackgroundImageFix" result="effect1_dropShadow"/>
<feBlend mode="normal" in="SourceGraphic" in2="effect1_dropShadow" result="shape"/>
</filter>
</defs>
</svg>
