<?xml version="1.0" encoding="UTF-8" standalone="no"?>
<svg
   id="LOGOS"
   viewBox="0 0 240.94762 75.590019"
   version="1.1"
   sodipodi:docname="logo-hashicorp.svg"
   width="240.94762"
   height="75.590019"
   inkscape:version="1.1 (c68e22c387, 2021-05-23)"
   xmlns:inkscape="http://www.inkscape.org/namespaces/inkscape"
   xmlns:sodipodi="http://sodipodi.sourceforge.net/DTD/sodipodi-0.dtd"
   xmlns="http://www.w3.org/2000/svg"
   xmlns:svg="http://www.w3.org/2000/svg">
  <sodipodi:namedview
     id="namedview37"
     pagecolor="#ffffff"
     bordercolor="#666666"
     borderopacity="1.0"
     inkscape:pageshadow="2"
     inkscape:pageopacity="0.0"
     inkscape:pagecheckerboard="0"
     showgrid="false"
     fit-margin-top="0"
     fit-margin-left="0"
     fit-margin-right="0"
     fit-margin-bottom="0"
     inkscape:zoom="3.5149502"
     inkscape:cx="120.76985"
     inkscape:cy="37.980624"
     inkscape:window-width="2560"
     inkscape:window-height="1377"
     inkscape:window-x="1912"
     inkscape:window-y="-8"
     inkscape:window-maximized="1"
     inkscape:current-layer="LOGOS" />
  <defs
     id="defs4">
    <style
       id="style2">.cls-1{fill:#e03875;}</style>
  </defs>
  <path
     d="m 87.467615,34.75 c 0,-7.38 4.3,-11.68 14.340005,-11.68 a 46,46 0 0 1 11,1.33 l -0.85,6.6 a 59,59 0 0 0 -9.86,-1 c -5.270005,0 -7.000005,1.81 -7.000005,6.11 v 15.46 c 0,4.29 1.69,6.11 7.000005,6.11 a 59,59 0 0 0 9.86,-1 l 0.85,6.6 a 46,46 0 0 1 -11,1.33 c -10.000005,0 -14.340005,-4.3 -14.340005,-11.68 z"
     id="path6" />
  <path
     d="m 129.09762,64.58 c -10.11,0 -12.82,-5.58 -12.82,-11.58 v -7.48 c 0,-6 2.72,-11.62 12.83,-11.62 10.11,0 12.82,5.57 12.82,11.62 V 53 c -0.01,6 -2.73,11.58 -12.83,11.58 z m 0,-24.39 c -3.94,0 -5.45,1.76 -5.45,5.09 v 7.92 c 0,3.33 1.51,5.08 5.45,5.08 3.94,0 5.44,-1.75 5.44,-5.08 v -7.92 c 0,-3.28 -1.51,-5.09 -5.44,-5.09 z"
     id="path8" />
  <path
     d="M 164.36762,64 V 43.4 c 0,-1.57 -0.67,-2.36 -2.36,-2.36 -1.69,0 -5,1.09 -7.69,2.48 V 64 h -7.38 V 34.51 h 5.63 l 0.71,2.49 a 29.49,29.49 0 0 1 11.8,-3.09 c 4.9,0 6.66,3.45 6.66,8.71 V 64 Z"
     id="path10" />
  <path
     d="m 186.92762,64.58 a 34.66,34.66 0 0 1 -10.16,-1.7 l 1,-5.62 a 33.18,33.18 0 0 0 8.77,1.27 c 3.27,0 3.75,-0.73 3.75,-3 0,-1.81 -0.36,-2.72 -5.14,-3.87 -7.2,-1.75 -8.05,-3.57 -8.05,-9.26 0,-5.93 2.6,-8.53 11,-8.53 a 38.51,38.51 0 0 1 8.83,1 l -0.65,5.93 a 52.36,52.36 0 0 0 -8.11,-0.85 c -3.21,0 -3.75,0.73 -3.75,2.54 0,2.36 0.18,2.54 4.18,3.57 8.22,2.18 9,3.27 9,9.32 -0.02,5.69 -1.77,9.2 -10.67,9.2 z"
     id="path12" />
  <path
     d="m 209.79762,34.51 v 20.57 c 0,1.57 0.66,2.36 2.36,2.36 1.7,0 5,-1.09 7.68,-2.48 V 34.51 h 7.38 V 64 h -5.62 l -0.73,-2.48 a 29.44,29.44 0 0 1 -11.8,3.09 c -4.9,0 -6.65,-3.45 -6.65,-8.72 V 34.51 Z"
     id="path14" />
  <path
     d="M 233.56762,64 V 22.47 l 7.38,-1 V 64 Z"
     id="path16" />
  <path
     class="cls-1"
     d="m 31.777615,75.59 a 31.76,31.76 0 1 1 21.5,-55.12 v 0 l -7.51,7.88 v 0 a 20.87,20.87 0 1 0 0,31 v 0 l 7.51,7.85 v 0 a 31.66,31.66 0 0 1 -21.5,8.39 z"
     id="path18" />
  <path
     class="cls-1"
     d="m 57.337615,59.7 a 2.6,2.6 0 1 1 2.6,-2.6 2.6,2.6 0 0 1 -2.6,2.6 z"
     id="path20" />
  <path
     class="cls-1"
     d="m 31.577615,50.71 a 6.88,6.88 0 1 1 6.88,-6.88 6.88,6.88 0 0 1 -6.88,6.88 z"
     id="path22" />
  <path
     class="cls-1"
     d="m 60.327615,50.81 a 2.6,2.6 0 1 1 2.6,-2.6 2.61,2.61 0 0 1 -2.6,2.6 z"
     id="path24" />
  <path
     class="cls-1"
     d="m 52.587615,50.51 a 2.6,2.6 0 1 1 2.6,-2.6 2.6,2.6 0 0 1 -2.6,2.6 z"
     id="path26" />
  <path
     class="cls-1"
     d="m 60.327615,42.06 a 2.6,2.6 0 1 1 2.6,-2.6 2.61,2.61 0 0 1 -2.6,2.6 z"
     id="path28" />
  <path
     class="cls-1"
     d="m 52.587615,42.36 a 2.6,2.6 0 1 1 2.6,-2.6 2.6,2.6 0 0 1 -2.6,2.6 z"
     id="path30" />
  <path
     class="cls-1"
     d="m 57.487615,33.31 a 2.6,2.6 0 1 1 2.6,-2.6 2.6,2.6 0 0 1 -2.6,2.6 z"
     id="path32" />
  <path
     d="M 95.717615,13.74 V 8.09 h -5.17 v 5.65 h -2.64 V 0.16 h 2.64 v 5.7 h 5.17 v -5.7 h 2.64 v 13.58 z m 12.330005,0 h -2.1 l -0.19,-0.66 a 5.78,5.78 0 0 1 -3,0.87 c -1.86,0 -2.66,-1.23 -2.66,-2.92 0,-2 0.9,-2.76 3,-2.76 h 2.45 v -1 c 0,-1.08 -0.31,-1.46 -2,-1.46 a 14.94,14.94 0 0 0 -2.83,0.3 l -0.31,-1.87 a 13.46,13.46 0 0 1 3.5,-0.47 c 3.2,0 4.15,1.09 4.15,3.54 z m -2.56,-3.74 h -1.89 c -0.83,0 -1.06,0.22 -1.06,1 0,0.78 0.23,1 1,1 a 4.15,4.15 0 0 0 1.93,-0.5 z m 7.91,4 a 12.59,12.59 0 0 1 -3.52,-0.57 l 0.36,-1.87 a 11.94,11.94 0 0 0 3,0.42 c 1.13,0 1.3,-0.24 1.3,-1 0,-0.76 -0.13,-0.91 -1.78,-1.29 -2.5,-0.58 -2.79,-1.19 -2.79,-3.08 0,-1.89 0.9,-2.84 3.81,-2.84 a 14,14 0 0 1 3.06,0.34 l -0.25,2 a 18.84,18.84 0 0 0 -2.81,-0.28 c -1.11,0 -1.3,0.24 -1.3,0.84 0,0.79 0.07,0.85 1.45,1.19 2.85,0.72 3.12,1.08 3.12,3.1 0,2.02 -0.57,3.04 -3.65,3.04 z m 11.71,-0.21 V 6.9 c 0,-0.52 -0.23,-0.78 -0.82,-0.78 a 7.27,7.27 0 0 0 -2.66,0.82 v 6.8 h -2.56 V 0 l 2.56,0.38 v 4.34 a 9.36,9.36 0 0 1 3.73,-0.95 c 1.7,0 2.3,1.15 2.3,2.9 v 7.1 z m 4.7,-11.18 v -2.4 h 2.56 v 2.4 z m 0,11.18 v -9.8 h 2.56 v 9.8 z m 4.6,-9.72 c 0,-2.45 1.49,-3.88 5,-3.88 a 16.47,16.47 0 0 1 3.79,0.44 l -0.29,2.2 a 21.57,21.57 0 0 0 -3.42,-0.35 c -1.82,0 -2.41,0.61 -2.41,2 v 5.15 c 0,1.43 0.59,2 2.41,2 a 21.49,21.49 0 0 0 3.42,-0.34 l 0.29,2.19 a 16.47,16.47 0 0 1 -3.79,0.45 c -3.48,0 -5,-1.43 -5,-3.89 z m 14.41,9.93 c -3.5,0 -4.44,-1.86 -4.44,-3.87 V 7.61 c 0,-2 0.94,-3.87 4.44,-3.87 3.5,0 4.46,1.85 4.46,3.87 v 2.47 c 0,2.01 -1,3.92 -4.46,3.92 z m 0,-8.11 c -1.36,0 -1.89,0.58 -1.89,1.69 v 2.63 c 0,1.11 0.53,1.69 1.89,1.69 1.36,0 1.89,-0.58 1.89,-1.69 V 7.53 c 0,-1.11 -0.53,-1.69 -1.89,-1.69 z m 11.64,0.16 a 19.4,19.4 0 0 0 -2.7,1.43 v 6.31 h -2.56 v -9.8 h 2.16 l 0.17,1.09 a 11.54,11.54 0 0 1 2.68,-1.29 z m 10.22,4.48 c 0,2.18 -1,3.47 -3.37,3.47 a 14.83,14.83 0 0 1 -2.73,-0.29 v 4 l -2.55,0.38 V 3.94 h 2 l 0.25,0.83 a 5.55,5.55 0 0 1 3.23,-1 c 2.05,0 3.14,1.17 3.14,3.4 z m -6.1,1.11 a 12,12 0 0 0 2.27,0.26 c 0.92,0 1.28,-0.42 1.28,-1.31 V 7.08 c 0,-0.8 -0.32,-1.24 -1.26,-1.24 a 3.73,3.73 0 0 0 -2.29,0.88 z"
     id="path34" />
</svg>
