<svg width="456" height="588" fill="none" xmlns="http://www.w3.org/2000/svg"><g opacity=".9"><g clip-path="url(#clip0_3_82)" fill="#DC477D"><path d="M0 11.688V10.09a187.263 187.263 0 0 1 71.712 14.057 186.151 186.151 0 0 1 60.723 40.392 184.623 184.623 0 0 1 40.691 60.277A183.537 183.537 0 0 1 187.289 196h-1.61a181.947 181.947 0 0 0-14.039-70.572 183.024 183.024 0 0 0-40.342-59.759 184.555 184.555 0 0 0-60.201-40.045A185.655 185.655 0 0 0 0 11.688Zm123.541 61.681a172.196 172.196 0 0 1 37.961 56.227A171.162 171.162 0 0 1 174.712 196h1.61a172.742 172.742 0 0 0-13.333-67.015 173.82 173.82 0 0 0-38.311-56.745 175.257 175.257 0 0 0-57.166-38.028A176.3 176.3 0 0 0 .001 20.976H0v1.598a174.687 174.687 0 0 1 66.896 13.114 173.658 173.658 0 0 1 56.645 37.681Zm-7.758 7.701a161.405 161.405 0 0 1 35.576 52.697A160.452 160.452 0 0 1 163.74 196h1.61a162.007 162.007 0 0 0-12.502-62.846 162.968 162.968 0 0 0-35.927-53.214 164.333 164.333 0 0 0-53.609-35.662A165.31 165.31 0 0 0 .001 31.868H0v1.597a163.716 163.716 0 0 1 62.695 12.29 162.755 162.755 0 0 1 53.088 35.315ZM119.861 196h1.61c-.036-31.968-12.846-62.616-35.618-85.221C63.081 88.175 32.206 75.459.001 75.423H0v1.598c31.779.036 62.245 12.583 84.715 34.888 22.471 22.305 35.111 52.547 35.146 84.091Zm-10.967 0h1.61c-.033-29.082-11.686-56.963-32.402-77.526C57.386 97.91 29.298 86.342.001 86.309H0v1.598c28.871.032 56.55 11.431 76.965 31.696 20.414 20.264 31.897 47.739 31.929 76.397Zm-8.627-99.535a139.786 139.786 0 0 1 30.811 45.638A138.95 138.95 0 0 1 141.801 196h1.61a140.549 140.549 0 0 0-10.844-54.507 141.388 141.388 0 0 0-31.156-46.157A142.571 142.571 0 0 0 54.912 64.41 143.412 143.412 0 0 0 .001 53.645H0v1.598a141.776 141.776 0 0 1 54.293 10.642 140.939 140.939 0 0 1 45.974 30.58Zm7.757-7.694a150.556 150.556 0 0 1 33.197 49.165A149.658 149.658 0 0 1 152.773 196h1.61a151.246 151.246 0 0 0-11.674-58.676 152.181 152.181 0 0 0-33.546-49.683 153.436 153.436 0 0 0-50.051-33.299A154.341 154.341 0 0 0 0 42.753H0v1.599a152.725 152.725 0 0 1 58.495 11.467 151.816 151.816 0 0 1 49.529 32.952Zm-15.509 15.395a128.995 128.995 0 0 1 28.425 42.108A128.204 128.204 0 0 1 130.833 196h1.61a129.772 129.772 0 0 0-10.014-50.338 130.56 130.56 0 0 0-28.776-42.625 131.643 131.643 0 0 0-42.94-28.564A132.423 132.423 0 0 0 0 64.532H0v1.597a130.836 130.836 0 0 1 50.096 9.822 130.064 130.064 0 0 1 42.42 28.215Z"/><path d="M0 185.91v-1.598a11.835 11.835 0 0 1 8.323 3.427A11.658 11.658 0 0 1 11.775 196h-1.61a10.062 10.062 0 0 0-2.98-7.131A10.213 10.213 0 0 0 0 185.91ZM21.139 196h1.609a22.522 22.522 0 0 0-6.67-15.959A22.86 22.86 0 0 0 .001 173.42H0v1.598a21.242 21.242 0 0 1 14.94 6.153A20.926 20.926 0 0 1 21.138 196Zm65.817 0h1.61c-.026-23.308-9.365-45.653-25.969-62.135-16.603-16.481-39.115-25.752-62.595-25.778H0v1.598c23.054.026 45.157 9.129 61.458 25.31C77.76 151.177 86.93 173.116 86.955 196Zm-10.972 0h1.61c-.024-20.42-8.206-39.997-22.752-54.436-14.547-14.44-34.269-22.562-54.84-22.585H0v1.598c20.145.023 39.459 7.976 53.703 22.116S75.96 176.004 75.983 196Zm-43.879 0h1.61a33.378 33.378 0 0 0-9.885-23.652A33.878 33.878 0 0 0 0 162.535H0v1.597a32.26 32.26 0 0 1 22.69 9.345A31.783 31.783 0 0 1 32.105 196Zm10.973 0h1.609c-.013-11.76-4.725-23.035-13.103-31.35-8.377-8.316-19.735-12.994-31.582-13.007H0v1.598c11.421.013 22.37 4.522 30.446 12.538S43.064 184.663 43.077 196Zm10.966 0h1.61c-.016-14.646-5.885-28.688-16.318-39.044C28.9 146.599 14.755 140.773 0 140.757H0v1.597c14.329.017 28.065 5.674 38.197 15.731 10.131 10.057 15.83 23.692 15.846 37.915Zm10.973 0h1.61c-.02-17.534-7.046-34.344-19.536-46.743C34.6 136.859 17.665 129.884 0 129.864v1.599c17.238.019 33.763 6.825 45.952 18.924S64.997 178.89 65.016 196Z"/></g><g clip-path="url(#clip1_3_82)"><path d="M227.999 305.686H228v-1.599h-.001c-23.48.027-45.992 9.298-62.595 25.779s-25.943 38.827-25.969 62.135h1.61c.026-22.885 9.195-44.824 25.497-61.005 16.301-16.182 38.404-25.284 61.457-25.31Zm-65.015 86.315h-1.61c.02-17.534 7.046-34.345 19.536-46.743 12.49-12.399 29.425-19.373 47.089-19.393H228v1.598h-.001c-17.237.02-33.762 6.826-45.951 18.924-12.188 12.099-19.045 28.503-19.064 45.614Zm-10.966 0h-1.61c.023-20.42 8.205-39.998 22.751-54.437 14.547-14.439 34.269-22.561 54.84-22.584H228v1.598h-.001c-20.144.022-39.457 7.976-53.702 22.116-14.244 14.139-22.257 33.31-22.279 53.307Zm21.939 0h-1.61c.016-14.647 5.885-28.688 16.318-39.045 10.434-10.356 24.58-16.182 39.334-16.199H228v1.598h-.001c-14.328.016-28.064 5.673-38.196 15.73-10.131 10.057-15.83 23.693-15.846 37.916Zm43.878 0h-1.61a11.653 11.653 0 0 1 3.453-8.261 11.829 11.829 0 0 1 8.321-3.427H228v1.598h-.001a10.218 10.218 0 0 0-7.184 2.958 10.068 10.068 0 0 0-2.98 7.132Zm-32.912 0h-1.609c.013-11.761 4.725-23.035 13.103-31.351 8.377-8.316 19.735-12.993 31.582-13.007H228v1.598h-.001c-11.42.013-22.369 4.522-30.445 12.538-8.076 8.017-12.618 18.885-12.631 30.222Zm10.973 0h-1.61a33.38 33.38 0 0 1 9.885-23.653 33.88 33.88 0 0 1 23.828-9.813H228v1.597h-.001a32.266 32.266 0 0 0-22.69 9.345 31.786 31.786 0 0 0-9.413 22.524Zm10.966 0h-1.609a22.52 22.52 0 0 1 6.67-15.959 22.858 22.858 0 0 1 16.076-6.621H228v1.598h-.001a21.241 21.241 0 0 0-14.939 6.152 20.93 20.93 0 0 0-6.198 14.83Z" fill="#000"/><path d="M227.999 283.907H228v-1.597h-.001c-29.297.033-57.385 11.6-78.101 32.164s-32.369 48.445-32.402 77.527h1.61c.032-28.658 11.515-56.133 31.93-76.398 20.414-20.264 48.093-31.663 76.963-31.696Zm-100.266 8.559a139.769 139.769 0 0 0-30.81 45.637 138.951 138.951 0 0 0-10.724 53.898h-1.61a140.546 140.546 0 0 1 10.844-54.508 141.396 141.396 0 0 1 31.156-46.156 142.57 142.57 0 0 1 46.499-30.927A143.416 143.416 0 0 1 228 249.646v1.597h-.001a141.77 141.77 0 0 0-54.292 10.642 140.939 140.939 0 0 0-45.974 30.581Zm-19.594 99.535h-1.61c.037-31.968 12.846-62.616 35.618-85.22 22.772-22.605 53.648-35.32 85.852-35.356H228v1.596h-.001c-31.778.036-62.244 12.583-84.714 34.888-22.471 22.306-35.11 52.547-35.146 84.092Zm27.346-91.834a128.992 128.992 0 0 0-28.425 42.107 128.22 128.22 0 0 0-9.893 49.727h-1.61a129.777 129.777 0 0 1 10.014-50.339 130.564 130.564 0 0 1 28.777-42.624 131.636 131.636 0 0 1 42.94-28.565 132.439 132.439 0 0 1 50.711-9.941H228v1.599h-.001a130.828 130.828 0 0 0-50.094 9.821 130.046 130.046 0 0 0-42.42 28.215Zm-15.509-15.395a150.561 150.561 0 0 0-33.197 49.164 149.667 149.667 0 0 0-11.552 58.065h-1.61a151.253 151.253 0 0 1 11.674-58.677 152.157 152.157 0 0 1 33.547-49.682 153.42 153.42 0 0 1 50.05-33.299 154.351 154.351 0 0 1 59.111-11.589H228v1.598h-.001a152.717 152.717 0 0 0-58.494 11.468 151.813 151.813 0 0 0-49.529 32.952Zm-15.517-15.402a172.202 172.202 0 0 0-37.961 56.227 171.173 171.173 0 0 0-13.21 66.404h-1.61a172.76 172.76 0 0 1 13.333-67.015 173.793 173.793 0 0 1 38.311-56.745 175.26 175.26 0 0 1 57.166-38.029 176.315 176.315 0 0 1 67.511-13.236H228v1.599h-.001a174.689 174.689 0 0 0-66.895 13.114 173.65 173.65 0 0 0-56.645 37.681Zm7.758 7.701a161.405 161.405 0 0 0-35.576 52.696 160.445 160.445 0 0 0-12.38 62.234h-1.61a161.996 161.996 0 0 1 12.501-62.846 162.972 162.972 0 0 1 35.927-53.214 164.328 164.328 0 0 1 53.609-35.663 165.32 165.32 0 0 1 63.311-12.409H228v1.598h-.001a163.692 163.692 0 0 0-62.694 12.29 162.752 162.752 0 0 0-53.088 35.314ZM96.702 261.67a183.033 183.033 0 0 0-40.342 59.758 181.932 181.932 0 0 0-14.039 70.573h-1.61a183.531 183.531 0 0 1 14.163-71.184 184.632 184.632 0 0 1 40.69-60.277 186.166 186.166 0 0 1 60.724-40.393 187.267 187.267 0 0 1 71.711-14.057H228v1.599h-.001a185.663 185.663 0 0 0-71.095 13.935 184.54 184.54 0 0 0-60.202 40.046ZM0 271.425v1.596c20.571-.023 40.292-8.146 54.838-22.585 14.545-14.439 22.726-34.016 22.749-54.435h-1.61c-.022 19.995-8.034 39.166-22.277 53.306S20.144 271.401 0 271.425Zm54.038-75.424h1.61c-.016 14.645-5.884 28.686-16.316 39.043C28.899 245.4 14.755 251.227 0 251.244v-1.598c14.328-.017 28.064-5.674 38.194-15.731 10.13-10.057 15.828-23.693 15.844-37.914Zm10.972 0h1.61c-.02 17.532-7.045 34.341-19.534 46.738C34.596 255.137 17.663 262.111 0 262.131v-1.599c17.236-.019 33.76-6.824 45.948-18.922 12.188-12.098 19.043-28.501 19.062-45.609Zm21.94 0h1.61c-.027 23.306-9.366 45.65-25.968 62.13C45.99 274.612 23.48 283.882 0 283.908v-1.598c23.053-.026 45.154-9.128 61.454-25.308 16.3-16.181 25.47-38.119 25.495-61.001Zm-43.879 0h1.61c-.013 11.758-4.725 23.031-13.101 31.346-8.377 8.315-19.734 12.992-31.58 13.005v-1.598c11.42-.013 22.367-4.521 30.442-12.536 8.074-8.015 12.616-18.882 12.63-30.217Zm-10.972 0h1.61a33.377 33.377 0 0 1-9.883 23.651A33.872 33.872 0 0 1 0 229.466v-1.597a32.263 32.263 0 0 0 22.688-9.346 31.781 31.781 0 0 0 9.41-22.522Zm-21.94 0h1.61a11.655 11.655 0 0 1-3.45 8.259A11.828 11.828 0 0 1 0 207.688v-1.598a10.214 10.214 0 0 0 7.182-2.959 10.062 10.062 0 0 0 2.977-7.13Zm10.972 0h1.61a22.516 22.516 0 0 1-6.668 15.954A22.854 22.854 0 0 1 0 218.575v-1.599a21.234 21.234 0 0 0 14.935-6.15 20.923 20.923 0 0 0 6.196-14.825Z" fill="#DC477D"/></g><g clip-path="url(#clip2_3_82)" fill="#DC477D"><path d="M227.999 576.313H228v1.598h-.001a187.267 187.267 0 0 1-71.711-14.057 186.15 186.15 0 0 1-60.723-40.393 184.632 184.632 0 0 1-40.691-60.277 183.526 183.526 0 0 1-14.163-71.183h1.61a181.93 181.93 0 0 0 14.04 70.572 183.023 183.023 0 0 0 40.341 59.758 184.54 184.54 0 0 0 60.202 40.046 185.664 185.664 0 0 0 71.095 13.936Zm-123.54-61.682a172.2 172.2 0 0 1-37.961-56.227 171.17 171.17 0 0 1-13.21-66.403h-1.61a172.77 172.77 0 0 0 13.333 67.015 173.814 173.814 0 0 0 38.311 56.745 175.256 175.256 0 0 0 57.166 38.028 176.297 176.297 0 0 0 67.511 13.236H228v-1.599h-.001a174.67 174.67 0 0 1-66.895-13.114 173.65 173.65 0 0 1-56.645-37.681Zm7.758-7.701a161.405 161.405 0 0 1-35.576-52.696 160.438 160.438 0 0 1-12.38-62.233h-1.61a161.995 161.995 0 0 0 12.501 62.845 162.972 162.972 0 0 0 35.927 53.214 164.328 164.328 0 0 0 53.609 35.663 165.302 165.302 0 0 0 63.311 12.409H228v-1.597h-.001a163.71 163.71 0 0 1-62.694-12.29 162.74 162.74 0 0 1-53.088-35.315Zm-4.078-114.929h-1.61c.036 31.967 12.846 62.615 35.618 85.22 22.772 22.605 53.648 35.32 85.852 35.357H228v-1.598h-.001c-31.778-.036-62.244-12.583-84.714-34.888-22.471-22.305-35.11-52.547-35.146-84.091Zm10.967 0h-1.61c.033 29.081 11.686 56.962 32.402 77.526 20.716 20.564 48.804 32.131 78.101 32.164H228v-1.597h-.001c-28.87-.033-56.549-11.432-76.963-31.696-20.415-20.264-31.898-47.739-31.93-76.397Zm8.627 99.535a139.783 139.783 0 0 1-30.81-45.638 138.948 138.948 0 0 1-10.724-53.897h-1.61a140.54 140.54 0 0 0 10.844 54.507 141.385 141.385 0 0 0 31.156 46.156 142.554 142.554 0 0 0 46.499 30.927 143.396 143.396 0 0 0 54.911 10.764H228v-1.597h-.001a141.77 141.77 0 0 1-54.292-10.642 140.952 140.952 0 0 1-45.974-30.58Zm-7.757 7.693a150.561 150.561 0 0 1-33.197-49.164 149.666 149.666 0 0 1-11.552-58.064h-1.61a151.252 151.252 0 0 0 11.674 58.676 152.157 152.157 0 0 0 33.547 49.682 153.42 153.42 0 0 0 50.05 33.299A154.334 154.334 0 0 0 228 545.247v-1.598h-.001a152.735 152.735 0 0 1-58.494-11.467 151.816 151.816 0 0 1-49.529-32.953Zm15.509-15.395a128.976 128.976 0 0 1-28.425-42.107 128.218 128.218 0 0 1-9.893-49.726h-1.61a129.776 129.776 0 0 0 10.014 50.338 130.538 130.538 0 0 0 28.777 42.624 131.636 131.636 0 0 0 42.94 28.565 132.439 132.439 0 0 0 50.711 9.941H228v-1.598h-.001a130.833 130.833 0 0 1-50.095-9.821 130.045 130.045 0 0 1-42.419-28.216Z"/><path d="M227.999 402.09H228v1.599h-.001a11.834 11.834 0 0 1-8.321-3.428 11.653 11.653 0 0 1-3.453-8.26h1.61a10.066 10.066 0 0 0 2.98 7.131 10.218 10.218 0 0 0 7.184 2.958Zm-21.137-10.089h-1.609a22.519 22.519 0 0 0 6.67 15.958 22.858 22.858 0 0 0 16.076 6.621H228v-1.598h-.001a21.241 21.241 0 0 1-14.939-6.152 20.93 20.93 0 0 1-6.198-14.829Zm-65.817 0h-1.61c.026 23.307 9.366 45.653 25.969 62.134s39.115 25.752 62.595 25.779H228v-1.599h-.001c-23.053-.026-45.156-9.128-61.457-25.31-16.302-16.181-25.471-38.12-25.497-61.004Zm10.972 0h-1.61c.024 20.42 8.206 39.997 22.752 54.436 14.547 14.439 34.269 22.561 54.84 22.584H228v-1.597h-.001c-20.144-.023-39.457-7.977-53.702-22.116-14.244-14.14-22.257-33.311-22.279-53.307h-.001Zm43.879 0h-1.61a33.38 33.38 0 0 0 9.885 23.652 33.88 33.88 0 0 0 23.828 9.813H228v-1.597h-.001a32.266 32.266 0 0 1-22.69-9.345 31.785 31.785 0 0 1-9.413-22.523Zm-10.973 0h-1.609c.013 11.76 4.725 23.034 13.103 31.35 8.377 8.316 19.735 12.993 31.582 13.007H228v-1.598h-.001c-11.42-.013-22.369-4.522-30.445-12.538a42.648 42.648 0 0 1-12.631-30.221Zm-10.966 0h-1.61c.016 14.646 5.885 28.687 16.318 39.044 10.434 10.357 24.58 16.182 39.334 16.199H228v-1.598h-.001c-14.328-.016-28.064-5.673-38.196-15.73-10.131-10.057-15.83-23.693-15.846-37.915Zm-10.973 0h-1.61c.02 17.534 7.046 34.344 19.536 46.742 12.49 12.399 29.425 19.373 47.089 19.393H228v-1.598h-.001c-17.237-.02-33.762-6.825-45.951-18.924-12.188-12.099-19.045-28.503-19.064-45.613Z"/></g><g clip-path="url(#clip3_3_82)" fill="#DC477D"><path d="M228 403.688v-1.598a10.21 10.21 0 0 0 7.181-2.96 10.056 10.056 0 0 0 2.977-7.13h1.611a11.658 11.658 0 0 1-3.45 8.26 11.828 11.828 0 0 1-8.319 3.428ZM272.681 392h-1.61c-.013 11.335-4.555 22.202-12.629 30.217-8.075 8.015-19.023 12.524-30.442 12.537v1.598c11.846-.013 23.203-4.69 31.58-13.005 8.376-8.315 13.088-19.588 13.101-31.347Zm-10.973 0h-1.609a31.789 31.789 0 0 1-9.411 22.523A32.26 32.26 0 0 1 228 423.868v1.598a33.879 33.879 0 0 0 23.826-9.814A33.376 33.376 0 0 0 261.708 392Zm-10.967 0h-1.609a20.926 20.926 0 0 1-6.196 14.825A21.233 21.233 0 0 1 228 412.976v1.599a22.852 22.852 0 0 0 16.073-6.62A22.518 22.518 0 0 0 250.741 392ZM228 512.577v-1.598c20.571.024 40.292 8.147 54.838 22.586 14.545 14.439 22.726 34.016 22.748 54.435h-1.609c-.022-19.995-8.034-39.166-22.277-53.306-14.243-14.139-33.556-22.093-53.7-22.117ZM293.01 588h1.61c-.02-17.532-7.045-34.341-19.534-46.738-12.49-12.398-29.423-19.371-47.086-19.391v1.597c17.236.02 33.76 6.825 45.948 18.923 12.187 12.098 19.043 28.5 19.062 45.609Zm21.939 0h1.61c-.026-23.306-9.365-45.65-25.967-62.131-16.602-16.48-39.112-25.75-62.592-25.777v1.599c23.053.026 45.153 9.127 61.454 25.308 16.3 16.181 25.469 38.119 25.495 61.001Zm-32.911 0h1.609c-.016-14.645-5.883-28.686-16.315-39.043-10.433-10.357-24.577-16.183-39.332-16.2v1.598c14.328.017 28.064 5.674 38.194 15.731 10.131 10.057 15.828 23.692 15.844 37.914Zm-32.906 0h1.609a22.52 22.52 0 0 0-6.668-15.955A22.852 22.852 0 0 0 228 565.426v1.598a21.238 21.238 0 0 1 14.935 6.151A20.922 20.922 0 0 1 249.132 588Zm-10.974 0h1.611a11.656 11.656 0 0 0-3.45-8.259 11.833 11.833 0 0 0-8.319-3.429v1.599a10.209 10.209 0 0 1 7.181 2.959 10.058 10.058 0 0 1 2.977 7.13Zm21.941 0h1.609a33.374 33.374 0 0 0-9.882-23.651A33.879 33.879 0 0 0 228 554.535v1.597a32.26 32.26 0 0 1 22.688 9.346A31.785 31.785 0 0 1 260.099 588Zm10.972 0h1.61c-.013-11.758-4.725-23.032-13.101-31.346-8.377-8.315-19.734-12.992-31.58-13.006v1.599c11.419.013 22.367 4.521 30.442 12.536 8.074 8.015 12.616 18.882 12.629 30.217Z"/></g></g><defs><clipPath id="clip0_3_82"><path fill="#fff" transform="rotate(-180 114 98)" d="M0 0h228v196H0z"/></clipPath><clipPath id="clip1_3_82"><path fill="#fff" transform="rotate(-180 114 196)" d="M0 0h228v196H0z"/></clipPath><clipPath id="clip2_3_82"><path fill="#fff" transform="translate(0 392.001)" d="M0 0h228v196H0z"/></clipPath><clipPath id="clip3_3_82"><path fill="#fff" transform="rotate(-180 228 294)" d="M0 0h228v196H0z"/></clipPath></defs></svg>