<svg version="1.1" xmlns="http://www.w3.org/2000/svg" viewBox="0 0 900 280" width="1800" height="560">
  <!-- svg-source:excalidraw -->
  
  <defs>
    <style>
      @font-face {
        font-family: "Virgil";
        src: url("https://excalidraw.com/Virgil.woff2");
      }
      @font-face {
        font-family: "Cascadia";
        src: url("https://excalidraw.com/Cascadia.woff2");
      }
    </style>
  </defs>
  <rect x="0" y="0" width="900" height="280" fill="#ffffff"></rect><g stroke-linecap="round" transform="translate(350 30) rotate(0 90 40)"><path d="M0 0 C70.2 0, 140.4 0, 180 0 M0 0 C36.45 0, 72.91 0, 180 0 M180 0 C180 20.64, 180 41.27, 180 80 M180 0 C180 18.95, 180 37.9, 180 80 M180 80 C120.1 80, 60.2 80, 0 80 M180 80 C122.36 80, 64.72 80, 0 80 M0 80 C0 57.38, 0 34.75, 0 0 M0 80 C0 55.34, 0 30.69, 0 0" stroke="#000000" stroke-width="1" fill="none"></path></g><g transform="translate(355 53) rotate(0 85 17)"><text x="85" y="13" font-family="Helvetica, Segoe UI Emoji" font-size="16px" fill="#000000" text-anchor="middle" style="white-space: pre;" direction="ltr">Terminating</text><text x="85" y="30" font-family="Helvetica, Segoe UI Emoji" font-size="16px" fill="#000000" text-anchor="middle" style="white-space: pre;" direction="ltr">Gateway</text></g><g stroke-linecap="round" transform="translate(690 30) rotate(0 90 40)"><path d="M0 0 C42.64 0, 85.28 0, 180 0 M0 0 C43.33 0, 86.66 0, 180 0 M180 0 C180 29.12, 180 58.23, 180 80 M180 0 C180 29.64, 180 59.27, 180 80 M180 80 C134.85 80, 89.71 80, 0 80 M180 80 C112.6 80, 45.21 80, 0 80 M0 80 C0 48.06, 0 16.12, 0 0 M0 80 C0 63.39, 0 46.78, 0 0" stroke="#000000" stroke-width="1" fill="none"></path></g><g transform="translate(695 61.5) rotate(0 85 8.5)"><text x="85" y="13" font-family="Helvetica, Segoe UI Emoji" font-size="16px" fill="#000000" text-anchor="middle" style="white-space: pre;" direction="ltr">Mesh Sidecar Proxy</text></g><g stroke-linecap="round" transform="translate(690 170) rotate(0 90 40)"><path d="M0 0 C44.43 0, 88.86 0, 180 0 M0 0 C56.71 0, 113.43 0, 180 0 M180 0 C180 30.87, 180 61.75, 180 80 M180 0 C180 27.24, 180 54.49, 180 80 M180 80 C143.88 80, 107.76 80, 0 80 M180 80 C125.82 80, 71.65 80, 0 80 M0 80 C0 51.64, 0 23.27, 0 0 M0 80 C0 58.2, 0 36.39, 0 0" stroke="#000000" stroke-width="1" fill="none"></path></g><g transform="translate(695 201.5) rotate(0 85 8.5)"><text x="85" y="13" font-family="Helvetica, Segoe UI Emoji" font-size="16px" fill="#000000" text-anchor="middle" style="white-space: pre;" direction="ltr">Service</text></g><g stroke-linecap="round" transform="translate(670 10) rotate(0 110 130)"><path d="M0 0 C68.4 0, 136.81 0, 220 0 M0 0 C55.12 0, 110.24 0, 220 0 M220 0 C220 75.75, 220 151.5, 220 260 M220 0 C220 75.67, 220 151.33, 220 260 M220 260 C173.64 260, 127.27 260, 0 260 M220 260 C169.79 260, 119.58 260, 0 260 M0 260 C0 176.21, 0 92.43, 0 0 M0 260 C0 160.84, 0 61.67, 0 0" stroke="#000000" stroke-width="1" fill="none"></path></g><g stroke-linecap="round"><g transform="translate(790 170) rotate(0 0 -30)"><path d="M0 0 C0 -10, 0 -50, 0 -60 M0 0 C0 -10, 0 -50, 0 -60" stroke="#000000" stroke-width="1" fill="none"></path></g><g transform="translate(790 170) rotate(0 0 -30)"><path d="M10.26 -31.81 C7.58 -39.17, 4.9 -46.53, 0 -60 M10.26 -31.81 C6.23 -42.87, 2.21 -53.94, 0 -60" stroke="#000000" stroke-width="1" fill="none"></path></g><g transform="translate(790 170) rotate(0 0 -30)"><path d="M-10.26 -31.81 C-7.58 -39.17, -4.9 -46.53, 0 -60 M-10.26 -31.81 C-6.23 -42.87, -2.21 -53.94, 0 -60" stroke="#000000" stroke-width="1" fill="none"></path></g></g><g stroke-linecap="round"><g transform="translate(690 70) rotate(0 -80 0)"><path d="M0 0 C-49.94 0, -99.88 0, -160 0 M0 0 C-42.59 0, -85.18 0, -160 0" stroke="#000000" stroke-width="1" fill="none"></path></g><g transform="translate(690 70) rotate(0 -80 0)"><path d="M-131.81 -10.26 C-140.61 -7.06, -149.41 -3.86, -160 0 M-131.81 -10.26 C-139.31 -7.53, -146.82 -4.8, -160 0" stroke="#000000" stroke-width="1" fill="none"></path></g><g transform="translate(690 70) rotate(0 -80 0)"><path d="M-131.81 10.26 C-140.61 7.06, -149.41 3.86, -160 0 M-131.81 10.26 C-139.31 7.53, -146.82 4.8, -160 0" stroke="#000000" stroke-width="1" fill="none"></path></g></g><g transform="translate(812.8076349537894 133.68057374010277) rotate(0 5 8.5)"><text x="0" y="13" font-family="Helvetica, Segoe UI Emoji" font-size="16px" fill="#000000" text-anchor="start" style="white-space: pre;" direction="ltr">1</text></g><g transform="translate(610 50) rotate(0 5 8.5)"><text x="0" y="13" font-family="Helvetica, Segoe UI Emoji" font-size="16px" fill="#000000" text-anchor="start" style="white-space: pre;" direction="ltr">2</text></g><g stroke-linecap="round"><g transform="translate(350 70) rotate(0 -80 0)"><path d="M0 0 C-41.37 0, -82.74 0, -160 0 M0 0 C-48.4 0, -96.8 0, -160 0" stroke="#000000" stroke-width="1" fill="none"></path></g><g transform="translate(350 70) rotate(0 -80 0)"><path d="M-131.81 -10.26 C-139.1 -7.61, -146.39 -4.95, -160 0 M-131.81 -10.26 C-140.34 -7.16, -148.86 -4.05, -160 0" stroke="#000000" stroke-width="1" fill="none"></path></g><g transform="translate(350 70) rotate(0 -80 0)"><path d="M-131.81 10.26 C-139.1 7.61, -146.39 4.95, -160 0 M-131.81 10.26 C-140.34 7.16, -148.86 4.05, -160 0" stroke="#000000" stroke-width="1" fill="none"></path></g></g><g stroke-linecap="round" transform="translate(10 30) rotate(0 90 40)"><path d="M0 0 C67.4 0, 134.79 0, 180 0 M0 0 C71.87 0, 143.74 0, 180 0 M180 0 C180 16.61, 180 33.22, 180 80 M180 0 C180 26.86, 180 53.73, 180 80 M180 80 C114.97 80, 49.94 80, 0 80 M180 80 C141.35 80, 102.7 80, 0 80 M0 80 C0 63.22, 0 46.44, 0 0 M0 80 C0 54.29, 0 28.59, 0 0" stroke="#000000" stroke-width="1" fill="none"></path></g><g transform="translate(15 61.5) rotate(0 85 8.5)"><text x="85" y="13" font-family="Helvetica, Segoe UI Emoji" font-size="16px" fill="#000000" text-anchor="middle" style="white-space: pre;" direction="ltr">Lambda</text></g><g transform="translate(270 50) rotate(0 5 8.5)"><text x="0" y="13" font-family="Helvetica, Segoe UI Emoji" font-size="16px" fill="#000000" text-anchor="start" style="white-space: pre;" direction="ltr">3</text></g></svg>