<svg width="296" height="342" viewBox="0 0 296 342" fill="none" xmlns="http://www.w3.org/2000/svg"><g clip-path="url(#clip0_2_36)"><path d="m243.21 170.938.035.062h-1.394L148 8.338V5.923l95.21 165.015Zm-41.074.062h-1.394L148 79.59v-2.415l54.101 93.763.035.062Zm24.665 0h-1.394L148 36.84v-2.415l78.765 136.513.036.062Zm8.224 0h-1.394L148 22.59v-2.414l86.989 150.762.036.062Zm-16.444 0h-1.394L148 51.092v-2.414l70.545 122.26.036.062Zm-8.225 0h-1.394L148 65.34v-2.414l62.321 108.012.035.062Z" fill="url(#paint0_linear_2_36)"/><path d="M151.413 171 148 165.081v-2.415l4.807 8.334h-1.394Zm42.508 0h-1.395L148 93.825v-2.406l45.885 79.519.036.062Zm-8.225 0h-1.394L148 108.074v-2.411l37.66 65.275.036.062Zm-8.22 0h-1.394L148 122.327v-2.411l29.441 51.022.035.062Zm-17.838 0L148 150.824v-2.406L161.031 171h-1.393Zm8.22 0L148 136.575v-2.411L169.252 171h-1.394Z" fill="url(#paint1_linear_2_36)"/><path d="M271.856 50.178a.607.607 0 0 1-1.054-.014L241.864 0h1.394l28.078 48.665L296 5.919v2.419l-24.127 41.806-.017.034Zm-.52 69.738L296 77.171v2.418l-24.127 41.807-.017.033a.595.595 0 0 1-.221.219.594.594 0 0 1-.299.081.617.617 0 0 1-.308-.082.634.634 0 0 1-.226-.231L200.786.062 200.751 0h1.394l69.191 119.916Zm.52-12.739a.603.603 0 0 1-.52.3.639.639 0 0 1-.308-.082.636.636 0 0 1-.226-.232L208.974 0h1.394l60.968 105.664L296 62.918v2.419l-24.127 41.806-.017.034Zm-.52-13.945a.621.621 0 0 1-.305-.08.552.552 0 0 1-.201-.202L217.235.062 217.199 0h1.394l52.743 91.415L296 48.669v2.415l-24.144 41.848a.6.6 0 0 1-.52.3Zm0-14.253a.62.62 0 0 1-.305-.08.539.539 0 0 1-.199-.2L225.459.062 225.424 0h1.394l44.518 77.166L296 34.421v2.414l-24.144 41.844a.6.6 0 0 1-.52.3Zm.501-14.527a.312.312 0 0 1-.073.089.665.665 0 0 1-.128.101.244.244 0 0 1-.073.035.379.379 0 0 1-.145.04.563.563 0 0 1-.382-.068l-.057-.035-.002-.003a.282.282 0 0 1-.064-.06.388.388 0 0 1-.033-.037.127.127 0 0 1-.043-.053.384.384 0 0 1-.039-.06L233.644 0h1.394l36.298 62.918L296 20.168v2.418l-24.151 41.85-.012.016Zm-.295.099h-.001l.002.003-.001-.004Zm.048-.026h-.001l.002.002-.001-.002Z" fill="url(#paint2_linear_2_36)"/></g><g clip-path="url(#clip1_2_36)"><path d="M148 262.417v2.415L192.526 342h1.393l-45.812-79.399-.107-.184Zm0 71.25 4.809 8.333h-1.394L148 336.082v-2.415Zm.107-56.816L185.697 342h-1.393L148 279.082v-2.415l.107.184Zm0 14.25L177.476 342h-1.394L148 293.332v-2.415l.107.184Zm0 28.5L161.031 342h-1.394L148 321.832v-2.415l.107.184Zm0-14.25L169.253 342h-1.393L148 307.582v-2.415l.107.184Z" fill="url(#paint3_linear_2_36)"/><path d="M296 321.833v-2.416L210.363 171h-1.393l86.923 150.648.107.185Zm-.107 14.065L200.748 171h1.393L296 333.667v2.415l-.107-.184Zm0-42.75L225.414 171h1.393L296 290.918v2.414l-.107-.184Zm0 14.25L217.191 171h1.394L296 305.168v2.414l-.107-.184Zm0-28.5L233.636 171h1.393L296 276.667v2.415l-.107-.184Zm0-14.249L241.858 171h1.393L296 262.418v2.415l-.107-.184Z" fill="url(#paint4_linear_2_36)"/><path d="M259.662 341.939 161.03 171h-1.393l.036.062L258.303 342h1.394l-.035-.061Zm8.257.061h-1.394l-98.631-170.938-.035-.062h1.393l98.631 170.939.036.061Zm-16.444 0h-1.394L151.45 171.062l-.035-.062h1.392l98.632 170.939.036.061Zm24.666 0h-1.393l-98.632-170.938-.035-.062h1.393l98.632 170.939.035.061Zm8.222 0h-1.393l-98.631-170.938-.036-.062h1.394l98.631 170.939.035.061Zm8.223 0h-1.394l-98.631-170.938-.036-.062h1.394l98.631 170.939.036.061Z" fill="url(#paint5_linear_2_36)"/></g><path d="M24.665 236.336 0 279.082v-2.418l24.17-41.879a.37.37 0 0 1 .074-.083.445.445 0 0 1 .053-.047.312.312 0 0 1 .084-.055.869.869 0 0 1 .13-.052l.018-.006.017.001a.318.318 0 0 1 .119-.02.567.567 0 0 1 .307.083l.034.022a.34.34 0 0 1 .09.082l.048.062.003-.002c.017.019.032.04.045.063L87.02 342h-1.394L24.665 236.336Zm.413-1.454Zm-.413-12.798L0 264.829v-2.419l24.144-41.839a.616.616 0 0 1 .823-.221.64.64 0 0 1 .232.236L95.249 342h-1.394l-69.19-119.916Zm0 28.501L0 293.331v-2.415l24.144-41.848a.621.621 0 0 1 .824-.22c.087.051.16.124.209.212l.03.047L78.8 342h-1.395l-52.742-91.415Zm0 42.75L0 336.081v-2.419l24.144-41.84a.62.62 0 0 1 .824-.22.637.637 0 0 1 .231.236L54.136 342h-1.394l-28.077-48.665Zm0-28.501L0 307.579v-2.414l24.144-41.844a.62.62 0 0 1 .823-.221c.088.051.16.125.21.214l.03.046L70.577 342h-1.395l-44.517-77.166Zm0 14.248L0 321.833v-2.419l24.17-41.879a.37.37 0 0 1 .074-.083.445.445 0 0 1 .053-.047.317.317 0 0 1 .067-.047.25.25 0 0 1 .073-.035.37.37 0 0 1 .145-.04.286.286 0 0 1 .082-.01.575.575 0 0 1 .308.083l.034.022a.34.34 0 0 1 .09.082l.048.062.003-.002c.017.019.032.04.045.063L62.356 342h-1.394l-36.298-62.918Zm.413-1.45Z" fill="url(#paint6_linear_2_36)"/><path d="M78.814 171 148 290.908v2.414l-.106-.184L77.419 171h1.395Zm16.444 0L148 262.411v2.414l-.106-.184L93.864 171h1.394Zm-24.664 0L148 305.161v2.414l-.106-.184L69.199 171h1.395Zm16.444 0L148 276.659v2.415l-.106-.184L85.644 171h1.394Zm-24.669 0L148 319.409v2.415l-.106-.184L60.975 171h1.394Zm-8.22 0L148 333.662v2.415l-.106-.184L52.754 171h1.395Z" fill="url(#paint7_linear_2_36)"/><defs><linearGradient id="paint0_linear_2_36" x1="148" y1="5.923" x2="290.914" y2="88.381" gradientUnits="userSpaceOnUse"><stop stop-color="#FEEC7B"/><stop offset="1" stop-color="#FFE543"/></linearGradient><linearGradient id="paint1_linear_2_36" x1="148" y1="91.419" x2="216.9" y2="131.176" gradientUnits="userSpaceOnUse"><stop stop-color="#FEEC7B"/><stop offset="1" stop-color="#FFE543"/></linearGradient><linearGradient id="paint2_linear_2_36" x1="200.751" y1="0" x2="318.907" y2="92.454" gradientUnits="userSpaceOnUse"><stop stop-color="#FEEC7B"/><stop offset="1" stop-color="#FFE543"/></linearGradient><linearGradient id="paint3_linear_2_36" x1="148" y1="262.417" x2="216.9" y2="302.173" gradientUnits="userSpaceOnUse"><stop stop-color="#FEEC7B"/><stop offset="1" stop-color="#FFE543"/></linearGradient><linearGradient id="paint4_linear_2_36" x1="200.748" y1="171" x2="343.67" y2="253.466" gradientUnits="userSpaceOnUse"><stop stop-color="#FEEC7B"/><stop offset="1" stop-color="#FFE543"/></linearGradient><linearGradient id="paint5_linear_2_36" x1="151.415" y1="171" x2="319.32" y2="309.616" gradientUnits="userSpaceOnUse"><stop stop-color="#FEEC7B"/><stop offset="1" stop-color="#FFE543"/></linearGradient><linearGradient id="paint6_linear_2_36" x1="0" y1="220.275" x2="118.153" y2="312.729" gradientUnits="userSpaceOnUse"><stop stop-color="#FEEC7B"/><stop offset="1" stop-color="#FFE543"/></linearGradient><linearGradient id="paint7_linear_2_36" x1="52.755" y1="171" x2="195.669" y2="253.458" gradientUnits="userSpaceOnUse"><stop stop-color="#FEEC7B"/><stop offset="1" stop-color="#FFE543"/></linearGradient><clipPath id="clip0_2_36"><path fill="#fff" transform="translate(148)" d="M0 0h148v171H0z"/></clipPath><clipPath id="clip1_2_36"><path fill="#fff" transform="translate(148 171)" d="M0 0h148v171H0z"/></clipPath></defs></svg>