<svg width="482" height="701" viewBox="0 0 482 701" fill="none" xmlns="http://www.w3.org/2000/svg"><path d="M453.449 66.27a.74.74 0 0 0-.883-.724.737.737 0 0 0-.539 1.007.742.742 0 0 0 .683.456.737.737 0 0 0 .739-.738Zm0 60.25a.736.736 0 0 0-.456-.683.743.743 0 0 0-.806.161.744.744 0 0 0-.16.805.743.743 0 0 0 1.366 0 .744.744 0 0 0 .056-.283Zm0-70.291a.74.74 0 0 0-.883-.725.737.737 0 0 0-.539 1.007.742.742 0 0 0 .683.457.737.737 0 0 0 .739-.74Zm0-10.042a.736.736 0 0 0-1.262-.522.745.745 0 0 0-.16.805.742.742 0 0 0 .966.4.74.74 0 0 0 .456-.683Zm0 30.125a.74.74 0 0 0-.883-.725.738.738 0 1 0 .883.725Zm0 10.042a.736.736 0 0 0-1.262-.522.745.745 0 0 0-.16.805.742.742 0 0 0 .966.4.739.739 0 0 0 .456-.683Zm0 10.041a.736.736 0 0 0-1.262-.522.744.744 0 0 0-.16.805.742.742 0 0 0 .966.4.739.739 0 0 0 .456-.683Zm0 20.084a.743.743 0 0 0-.456-.683.735.735 0 0 0-.805.16.738.738 0 1 0 1.044 1.045.736.736 0 0 0 .217-.522Zm0-10.042a.743.743 0 0 0-.456-.683.735.735 0 0 0-.805.16.738.738 0 1 0 1.044 1.045.736.736 0 0 0 .217-.522Zm0 70.291a.73.73 0 0 0-.125-.41.736.736 0 0 0-1.137-.112.744.744 0 0 0-.16.805.743.743 0 0 0 1.366 0 .744.744 0 0 0 .056-.283Zm0-170.707a.736.736 0 0 0-1.262-.522.745.745 0 0 0-.16.805.742.742 0 0 0 .966.4.74.74 0 0 0 .456-.683Zm0 10.042a.74.74 0 1 0-1.48-.001.74.74 0 0 0 1.48 0Zm0 140.582a.743.743 0 0 0-.456-.683.743.743 0 0 0-.805.16.74.74 0 0 0 .111 1.137.736.736 0 0 0 .933-.092.736.736 0 0 0 .217-.522Zm0 10.042a.743.743 0 0 0-.456-.683.735.735 0 0 0-.805.16.738.738 0 1 0 1.044 1.045.736.736 0 0 0 .217-.522Zm0-20.084a.737.737 0 0 0-1.261-.523.74.74 0 0 0 .111 1.138.743.743 0 0 0 .933-.092.74.74 0 0 0 .217-.523Zm0-120.499a.74.74 0 1 0-1.48 0 .74.74 0 0 0 1.48 0Zm0 10.041a.737.737 0 0 0-1.262-.522.745.745 0 0 0-.16.806.742.742 0 0 0 .966.4.74.74 0 0 0 .456-.684Zm0 100.417a.734.734 0 0 0-.456-.683.743.743 0 0 0-.806.16.747.747 0 0 0-.16.806.74.74 0 0 0 1.422-.283Zm-208.71 0a.734.734 0 0 0-.456-.683.743.743 0 0 0-.806.16.747.747 0 0 0-.16.806.74.74 0 0 0 1.422-.283Zm0-20.083a.743.743 0 0 0-.456-.683.735.735 0 0 0-.805.16.738.738 0 1 0 1.044 1.045.736.736 0 0 0 .217-.522Zm0-10.042a.743.743 0 0 0-.456-.683.735.735 0 0 0-.805.16.738.738 0 1 0 1.044 1.045.736.736 0 0 0 .217-.522Zm0 20.083a.736.736 0 0 0-.456-.683.743.743 0 0 0-.806.161.744.744 0 0 0-.16.805.743.743 0 0 0 1.366 0 .744.744 0 0 0 .056-.283Zm0 30.125a.743.743 0 0 0-.456-.683.743.743 0 0 0-.805.16.74.74 0 0 0 .111 1.137.736.736 0 0 0 .933-.092.736.736 0 0 0 .217-.522Zm0-10.042a.737.737 0 0 0-1.261-.523.74.74 0 0 0 .111 1.138.743.743 0 0 0 .933-.092.74.74 0 0 0 .217-.523Zm0-120.499a.74.74 0 1 0-1.48 0 .74.74 0 0 0 1.48 0Zm0 140.583a.743.743 0 0 0-.456-.683.735.735 0 0 0-.805.16.738.738 0 1 0 1.044 1.045.736.736 0 0 0 .217-.522Zm0-130.542a.736.736 0 0 0-1.262-.522.745.745 0 0 0-.16.806.742.742 0 0 0 .966.4.74.74 0 0 0 .456-.684Zm0-30.124a.736.736 0 0 0-1.262-.522.745.745 0 0 0-.16.805.742.742 0 0 0 .966.4.74.74 0 0 0 .456-.683Zm0 40.166a.737.737 0 0 0-1.262-.522.745.745 0 0 0-.16.805.742.742 0 0 0 .966.4.74.74 0 0 0 .456-.683Zm0-30.124a.74.74 0 1 0-1.48-.001.74.74 0 0 0 1.48 0Zm0 70.29a.736.736 0 0 0-1.262-.522.745.745 0 0 0-.16.806.742.742 0 0 0 .966.4.74.74 0 0 0 .456-.683Zm0 10.042a.736.736 0 0 0-1.262-.522.745.745 0 0 0-.16.805.742.742 0 0 0 .966.4.739.739 0 0 0 .456-.683Zm0 80.333a.738.738 0 1 0-1.477.002.738.738 0 0 0 1.477-.002Zm0-110.457a.74.74 0 0 0-.883-.725.737.737 0 0 0-.539 1.007.742.742 0 0 0 .683.456.737.737 0 0 0 .739-.738Zm0-10.042a.74.74 0 0 0-.883-.725.737.737 0 0 0-.539 1.007.742.742 0 0 0 .683.457.737.737 0 0 0 .739-.74Zm0 20.083a.74.74 0 0 0-.883-.725.738.738 0 1 0 .883.725ZM443.275 181.75a.743.743 0 0 0 .456.683.734.734 0 0 0 .805-.16.737.737 0 0 0-.112-1.137.74.74 0 0 0-1.149.614Zm-85.485 0a.736.736 0 0 0-.456-.683.743.743 0 0 0-.805.161.738.738 0 1 0 1.205.805.744.744 0 0 0 .056-.283Zm-52.177 0a.744.744 0 0 0-.457-.683.742.742 0 0 0-.805.161.736.736 0 0 0-.16.805.74.74 0 0 0 1.422-.283Zm-52.178 0a.736.736 0 0 0-.456-.683.743.743 0 0 0-.805.161.738.738 0 1 0 1.205.805.744.744 0 0 0 .056-.283Zm86.963 0a.744.744 0 0 0-.457-.683.74.74 0 1 0 .457.683Zm52.177 0a.736.736 0 0 0-.456-.683.743.743 0 0 0-.806.161.744.744 0 0 0-.16.805.743.743 0 0 0 .683.456.744.744 0 0 0 .523-.216.744.744 0 0 0 .216-.523Zm-69.57 0a.743.743 0 0 0-.456-.683.743.743 0 0 0-.805.161.738.738 0 1 0 1.205.805.744.744 0 0 0 .056-.283Zm-52.177 0a.744.744 0 0 0-.457-.683.742.742 0 0 0-.805.161.736.736 0 0 0-.16.805.743.743 0 0 0 1.366 0 .744.744 0 0 0 .056-.283Zm156.532 0a.744.744 0 0 0-.456-.683.744.744 0 0 0-.806.161.744.744 0 0 0-.16.805.738.738 0 0 0 1.422-.283Zm-17.392 0a.744.744 0 0 0-.457-.683.742.742 0 0 0-.805.161.736.736 0 0 0-.16.805.74.74 0 0 0 1.422-.283Zm-34.785 0a.744.744 0 0 0-.457-.683.742.742 0 0 0-.805.161.736.736 0 0 0-.16.805.743.743 0 0 0 1.366 0 .744.744 0 0 0 .056-.283Zm-86.963 0a.743.743 0 0 0-.456-.683.743.743 0 0 0-.805.161.735.735 0 0 0 .112 1.136.73.73 0 0 0 .693.069.748.748 0 0 0 .4-.4.744.744 0 0 0 .056-.283Zm95.659-125.52a.737.737 0 0 0-1.464-.145.743.743 0 0 0 .314.76.742.742 0 0 0 .933-.093.737.737 0 0 0 .217-.522Zm-113.051 5.02a.741.741 0 0 0-1.262-.522.737.737 0 0 0 .112 1.137.742.742 0 0 0 .933-.092.737.737 0 0 0 .217-.522Zm17.392 0a.74.74 0 0 0-1.261-.522.737.737 0 0 0 .112 1.137.736.736 0 0 0 .933-.092.74.74 0 0 0 .216-.522Zm-34.785 0a.74.74 0 1 0-1.48 0 .74.74 0 0 0 1.48 0Zm182.621-5.02a.74.74 0 0 0-.883-.725.737.737 0 0 0-.538 1.007.736.736 0 0 0 .682.457.742.742 0 0 0 .739-.74Zm-34.785 120.499a.743.743 0 0 0-.456-.683.743.743 0 0 0-1.008.539.743.743 0 0 0 .725.883.736.736 0 0 0 .739-.739Zm17.393-120.5a.736.736 0 0 0-1.262-.523.745.745 0 0 0-.16.806.742.742 0 0 0 .683.457.737.737 0 0 0 .739-.74Zm-17.393 0a.74.74 0 0 0-.883-.724.737.737 0 0 0-.266 1.34.736.736 0 0 0 .933-.093.74.74 0 0 0 .216-.522ZM279.524 66.272a.736.736 0 0 0-1.262-.523.745.745 0 0 0-.16.805.742.742 0 0 0 .683.456.737.737 0 0 0 .739-.738Zm104.355 110.457a.738.738 0 1 0-1.477.002.738.738 0 0 0 1.477-.002ZM409.968 61.25a.741.741 0 0 0-1.262-.523.737.737 0 0 0 .112 1.137.74.74 0 0 0 1.15-.614Zm17.392 0a.736.736 0 0 0-1.262-.523.745.745 0 0 0-.16.805.738.738 0 0 0 1.422-.282Zm17.393 0a.737.737 0 0 0-1.464-.145.735.735 0 0 0 .314.759.737.737 0 0 0 .933-.092.737.737 0 0 0 .217-.522Zm-78.267-5.021a.74.74 0 0 0-.883-.725.737.737 0 0 0-.538 1.007.736.736 0 0 0 1.205.24.74.74 0 0 0 .216-.522ZM262.132 66.27a.74.74 0 0 0-1.262-.523.737.737 0 0 0 .112 1.137.737.737 0 0 0 1.15-.614Zm130.443-5.021a.74.74 0 1 0-1.48-.001.74.74 0 0 0 1.48 0Zm-52.177 0a.737.737 0 0 0-1.262-.523.745.745 0 0 0-.16.805.742.742 0 0 0 .683.457.738.738 0 0 0 .739-.74Zm-17.393 0a.74.74 0 1 0-1.48-.001.74.74 0 0 0 1.48 0Zm52.178 0a.741.741 0 0 0-1.262-.523.737.737 0 0 0 .112 1.137.742.742 0 0 0 .933-.092.737.737 0 0 0 .217-.522Zm-69.57 0a.741.741 0 0 0-1.262-.523.737.737 0 0 0 .112 1.137.74.74 0 0 0 1.15-.614Zm52.177 0a.74.74 0 1 0-1.48-.001.74.74 0 0 0 1.48 0ZM253.435 51.208a.736.736 0 0 0-1.261-.522.739.739 0 1 0 1.261.522Zm182.621 125.52a.737.737 0 0 0-1.463-.144.735.735 0 0 0 .314.759.737.737 0 0 0 1.149-.615Zm-95.658-125.52a.74.74 0 0 0-1.262-.522.745.745 0 0 0-.16.805.742.742 0 0 0 .683.456.733.733 0 0 0 .522-.216.75.75 0 0 0 .217-.523Zm-52.178 0a.74.74 0 1 0-1.48-.001.74.74 0 0 0 1.48.001Zm-17.392 0a.74.74 0 0 0-1.262-.522.737.737 0 0 0 .112 1.137.742.742 0 0 0 1.094-.332.742.742 0 0 0 .056-.283Zm34.785 0a.74.74 0 0 0-1.262-.522.737.737 0 0 0 .112 1.137.74.74 0 0 0 1.15-.615Zm17.392 0a.74.74 0 1 0-1.48-.001.74.74 0 0 0 1.48.001Zm-26.089 15.063a.74.74 0 0 0-.883-.725.737.737 0 0 0-.538 1.007.736.736 0 0 0 .682.456.742.742 0 0 0 .739-.738Zm69.57-20.084a.74.74 0 0 0-.883-.724.737.737 0 0 0-.266 1.339.736.736 0 0 0 1.093-.332.742.742 0 0 0 .056-.283Zm-52.177 40.167a.736.736 0 0 0-1.262-.522.745.745 0 0 0-.16.804.742.742 0 0 0 .966.4.751.751 0 0 0 .4-.4.742.742 0 0 0 .056-.282Zm121.747-40.167a.74.74 0 0 0-.883-.724.738.738 0 1 0 .883.724Zm-17.392 0a.74.74 0 0 0-1.262-.522.737.737 0 0 0 .523 1.261.74.74 0 0 0 .739-.739Zm-17.393 0a.74.74 0 1 0-1.48 0 .74.74 0 0 0 1.48 0Zm26.089 5.021a.736.736 0 0 0-1.262-.522.744.744 0 0 0-.16.805.738.738 0 0 0 1.206.24.748.748 0 0 0 .216-.523Zm-8.696 125.52a.738.738 0 1 0-1.477.002.738.738 0 0 0 1.477-.002Zm-156.532-120.5a.741.741 0 0 0-.883-.724.74.74 0 0 0 .143 1.464.742.742 0 0 0 .74-.74Zm34.784 0a.74.74 0 0 0-.883-.724.737.737 0 0 0-.538 1.007.736.736 0 0 0 .682.457.741.741 0 0 0 .739-.74Zm-17.392 0a.737.737 0 0 0-1.464-.145.743.743 0 0 0 .314.76.742.742 0 0 0 .933-.092.737.737 0 0 0 .217-.522Zm34.785 0a.74.74 0 0 0-.883-.724.737.737 0 0 0-.539 1.007.743.743 0 0 0 .683.457.737.737 0 0 0 .739-.74Zm17.392 0a.74.74 0 0 0-.883-.724.737.737 0 0 0-.538 1.007.736.736 0 0 0 .682.457.742.742 0 0 0 .739-.74Zm26.089-5.02a.736.736 0 0 0-1.261-.522.739.739 0 1 0 1.261.522Zm17.393 0a.74.74 0 0 0-1.262-.522.737.737 0 0 0 .112 1.137.742.742 0 0 0 1.094-.332.742.742 0 0 0 .056-.283Zm17.392 0a.736.736 0 0 0-1.262-.522.745.745 0 0 0-.16.805.738.738 0 0 0 1.422-.283Zm52.178 0a.741.741 0 0 0-1.262-.522.737.737 0 0 0 .112 1.137.74.74 0 0 0 1.15-.615Zm-95.659 5.02a.74.74 0 0 0-.883-.724.737.737 0 0 0-.539 1.007.742.742 0 0 0 .683.457.737.737 0 0 0 .739-.74Zm0-10.04a.736.736 0 0 0-1.262-.522.745.745 0 0 0-.16.804.742.742 0 0 0 .966.4.74.74 0 0 0 .456-.683Zm60.874 5.02a.74.74 0 0 0-1.262-.522.737.737 0 0 0 .112 1.137.74.74 0 0 0 1.15-.615Zm-95.659 25.104a.74.74 0 1 0-1.48 0 .74.74 0 0 0 1.48 0Zm17.392 100.416a.737.737 0 0 0-1.463-.144.735.735 0 0 0 .314.759.737.737 0 0 0 1.149-.615ZM436.056 76.312a.74.74 0 0 0-.883-.725.738.738 0 1 0 .883.725Zm-182.621 5.02a.736.736 0 0 0-1.261-.522.74.74 0 1 0 1.261.523Zm17.393 0a.74.74 0 0 0-1.262-.521.737.737 0 0 0 .523 1.26.738.738 0 0 0 .739-.738Zm17.392 0a.74.74 0 1 0-1.479 0 .74.74 0 0 0 1.479 0Zm78.266-5.02a.74.74 0 0 0-.883-.725.738.738 0 1 0 .883.725Zm-34.785 0a.74.74 0 0 0-.883-.725.738.738 0 1 0 .883.725Zm17.393 0a.74.74 0 0 0-.883-.725.738.738 0 1 0 .883.725Zm34.785 0a.736.736 0 0 0-1.262-.523.745.745 0 0 0-.16.806.742.742 0 0 0 .683.456.737.737 0 0 0 .739-.739Zm17.392 0a.74.74 0 0 0-.883-.725.737.737 0 0 0-.266 1.34.736.736 0 0 0 .933-.092.74.74 0 0 0 .216-.523Zm-95.658 5.02a.74.74 0 0 0-1.262-.521.737.737 0 0 0 .523 1.26.73.73 0 0 0 .522-.215.731.731 0 0 0 .217-.523Zm113.051-5.02a.736.736 0 0 0-1.262-.523.745.745 0 0 0-.16.806.742.742 0 0 0 .683.456.737.737 0 0 0 .739-.739ZM314.309 176.728a.73.73 0 0 0-.125-.41.736.736 0 0 0-1.137-.112.744.744 0 0 0-.16.805.743.743 0 0 0 1.366 0 .744.744 0 0 0 .056-.283ZM427.36 81.333a.74.74 0 0 0-1.262-.522.745.745 0 0 0-.16.805.737.737 0 0 0 .966.4.739.739 0 0 0 .456-.683Zm17.393 0a.74.74 0 0 0-1.262-.523.737.737 0 0 0 .112 1.137.74.74 0 0 0 1.15-.614Zm-182.621 5.02a.739.739 0 1 0-1.478 0 .739.739 0 0 0 1.478 0Zm17.392 0a.74.74 0 0 0-1.262-.522.745.745 0 0 0-.16.806.742.742 0 0 0 .966.4.751.751 0 0 0 .4-.4.742.742 0 0 0 .056-.283Zm17.392 0a.74.74 0 1 0-1.48 0 .74.74 0 0 0 1.48 0Zm43.482-5.02a.74.74 0 0 0-1.464-.144.735.735 0 0 0 .314.758.74.74 0 0 0 1.15-.614Zm69.57 0a.74.74 0 0 0-1.262-.522.737.737 0 0 0 .523 1.26.738.738 0 0 0 .739-.738Zm-52.178 0a.736.736 0 0 0-1.261-.522.74.74 0 1 0 1.261.522Zm-34.785 0a.74.74 0 0 0-.883-.725.737.737 0 0 0-.266 1.34.736.736 0 0 0 1.093-.332.742.742 0 0 0 .056-.283Zm69.57 0a.736.736 0 0 0-1.262-.522.745.745 0 0 0-.16.805.738.738 0 0 0 1.422-.283Zm-17.392 0a.74.74 0 0 0-1.262-.522.737.737 0 0 0 .523 1.26.738.738 0 0 0 .739-.738Zm-78.267-5.02a.74.74 0 0 0-.883-.726.738.738 0 1 0 .883.725Zm69.57 100.415a.737.737 0 0 0-1.261-.522.738.738 0 1 0 1.205.805.744.744 0 0 0 .056-.283Zm52.178-110.457a.736.736 0 0 0-1.262-.523.745.745 0 0 0-.16.805.742.742 0 0 0 .683.456.737.737 0 0 0 .739-.738Zm-165.229 5.02a.74.74 0 1 0-1.48 0 .74.74 0 0 0 1.48 0Zm182.621-5.02a.74.74 0 0 0-.883-.725.737.737 0 0 0-.538 1.007.736.736 0 0 0 .682.456.742.742 0 0 0 .739-.738Zm-165.228 5.02a.741.741 0 0 0-1.262-.522.737.737 0 0 0 .112 1.137.742.742 0 0 0 .933-.092.737.737 0 0 0 .217-.522Zm17.392 0a.74.74 0 0 0-.883-.725.738.738 0 1 0 .883.725Zm95.659-5.02a.736.736 0 0 0-1.262-.523.745.745 0 0 0-.16.805.742.742 0 0 0 .683.456.737.737 0 0 0 .739-.738Zm-34.785 0a.74.74 0 0 0-.883-.725.737.737 0 0 0-.539 1.007.742.742 0 0 0 .683.456.737.737 0 0 0 .739-.738Zm-17.393 0a.74.74 0 0 0-.883-.725.737.737 0 0 0-.538 1.007.736.736 0 0 0 .682.456.742.742 0 0 0 .739-.738Zm69.57 0a.74.74 0 0 0-.883-.725.738.738 0 1 0 .883.725Zm-34.785 0a.74.74 0 0 0-.883-.725.737.737 0 0 0-.538 1.007.736.736 0 0 0 1.205.24.74.74 0 0 0 .216-.522Zm-60.873 5.02a.741.741 0 0 0-1.262-.522.737.737 0 0 0 .112 1.137.74.74 0 0 0 1.15-.615Zm-43.481 5.021a.741.741 0 0 0-1.262-.523.737.737 0 0 0 .112 1.137.737.737 0 0 0 1.15-.614Zm182.621-5.02a.737.737 0 0 0-1.464-.145.735.735 0 0 0 .314.759.737.737 0 0 0 .933-.092.737.737 0 0 0 .217-.522Zm-17.393 0a.736.736 0 0 0-1.262-.523.745.745 0 0 0-.16.805.738.738 0 0 0 1.422-.282Zm-78.266 105.436a.736.736 0 0 0-.456-.683.74.74 0 0 0-.694 1.298.743.743 0 0 0 1.094-.332.744.744 0 0 0 .056-.283ZM323.005 71.291a.74.74 0 1 0-1.48 0 .74.74 0 0 0 1.48 0Zm-8.696-5.02a.74.74 0 1 0-1.48-.001.74.74 0 0 0 1.48 0Zm-34.785 10.041a.736.736 0 0 0-1.262-.523.745.745 0 0 0-.16.806.742.742 0 0 0 .683.456.737.737 0 0 0 .739-.739Zm60.874-5.02a.737.737 0 0 0-1.464-.145.734.734 0 0 0 .314.758.739.739 0 0 0 1.15-.614Zm17.392 0a.74.74 0 1 0-1.48-.002.74.74 0 0 0 1.48.001Zm17.393 0a.741.741 0 0 0-1.262-.523.737.737 0 0 0 .112 1.137.742.742 0 0 0 .933-.092.737.737 0 0 0 .217-.522Zm34.785 0a.741.741 0 0 0-1.262-.523.737.737 0 0 0 .112 1.137.74.74 0 0 0 1.15-.615Zm-17.393 0a.74.74 0 1 0-1.48-.002.74.74 0 0 0 1.48.001Zm-8.696-25.105a.74.74 0 0 0-1.262-.522.745.745 0 0 0-.16.805.742.742 0 0 0 .966.4.751.751 0 0 0 .4-.4.742.742 0 0 0 .056-.283Zm17.392-30.124a.74.74 0 0 0-.883-.725.738.738 0 1 0 .883.725Zm17.393 0a.736.736 0 0 0-1.262-.523.745.745 0 0 0-.16.805.743.743 0 0 0 .683.456.737.737 0 0 0 .739-.738Zm-147.836 5.02a.741.741 0 0 0-.883-.725.74.74 0 1 0 .883.725Zm95.658-5.02a.74.74 0 0 0-1.261-.523.735.735 0 0 0 .112 1.137.736.736 0 0 0 .933-.092.74.74 0 0 0 .216-.522Zm69.57 0a.74.74 0 0 0-1.261-.523.737.737 0 0 0 .112 1.137.736.736 0 0 0 .933-.092.74.74 0 0 0 .216-.522Zm-182.621 5.02a.74.74 0 0 0-.883-.725.737.737 0 0 0-.539 1.008.738.738 0 0 0 1.206.24.74.74 0 0 0 .216-.523Zm130.444-5.02a.736.736 0 0 0-1.262-.523.745.745 0 0 0-.16.805.742.742 0 0 0 .683.456.737.737 0 0 0 .739-.738Zm-34.785 0a.74.74 0 1 0-1.48-.001.74.74 0 0 0 1.48 0Zm-52.178 0a.74.74 0 0 0-1.261-.523.737.737 0 0 0 .112 1.137.736.736 0 0 0 .933-.092.74.74 0 0 0 .216-.522Zm-17.392 0a.736.736 0 0 0-1.262-.523.744.744 0 0 0-.16.805.742.742 0 0 0 .683.456.737.737 0 0 0 .739-.738Zm52.177 0a.74.74 0 0 0-1.261-.523.737.737 0 0 0 .112 1.137.736.736 0 0 0 .933-.092.74.74 0 0 0 .216-.522Zm-17.392 0a.74.74 0 1 0-1.48-.001.74.74 0 0 0 1.48 0Zm60.874 5.02a.741.741 0 0 0-.883-.725.74.74 0 0 0-.539 1.008.742.742 0 0 0 .683.456.737.737 0 0 0 .739-.739Zm52.177 0a.74.74 0 0 0-1.262-.522.745.745 0 0 0-.16.805.738.738 0 0 0 1.422-.283Zm-17.392 0a.741.741 0 0 0-.883-.725.74.74 0 0 0-.539 1.008.742.742 0 0 0 .683.456.74.74 0 0 0 .739-.739Zm-17.393 0a.74.74 0 0 0-.883-.725.738.738 0 1 0 .883.725Zm52.178 0a.737.737 0 0 0-1.464-.145.734.734 0 0 0 .314.76.737.737 0 0 0 1.15-.615Zm-156.533 0a.74.74 0 0 0-.883-.725.737.737 0 0 0-.539 1.008.739.739 0 0 0 1.422-.283Zm-26.088 5.021a.741.741 0 0 0-1.262-.523.737.737 0 0 0 .112 1.137.736.736 0 0 0 .933-.091.746.746 0 0 0 .217-.523Zm0-10.041a.741.741 0 0 0-1.262-.523.737.737 0 0 0 .112 1.137.736.736 0 0 0 .933-.092.746.746 0 0 0 .217-.522Zm60.873 5.02a.74.74 0 0 0-.883-.725.738.738 0 1 0 .883.725Zm-17.392 0a.741.741 0 0 0-.883-.725.74.74 0 0 0-.539 1.008.742.742 0 0 0 .683.456.739.739 0 0 0 .739-.739Zm34.785 0a.737.737 0 0 0-1.464-.145.735.735 0 0 0 .314.76.74.74 0 0 0 1.15-.615Zm-60.874 5.021a.736.736 0 0 0-1.262-.523.744.744 0 0 0-.16.806.743.743 0 0 0 .683.456.737.737 0 0 0 .739-.739Zm78.266-5.02a.74.74 0 0 0-.883-.726.738.738 0 1 0 .883.725Zm8.696-15.063a.74.74 0 0 0-1.261-.522.734.734 0 0 0 .112 1.137.736.736 0 0 0 1.093-.332.742.742 0 0 0 .056-.283Zm-17.392 0a.736.736 0 0 0-1.262-.522.745.745 0 0 0-.16.805.742.742 0 0 0 .966.4.74.74 0 0 0 .456-.683Zm34.785 0a.74.74 0 0 0-1.262-.522.745.745 0 0 0-.16.805.742.742 0 0 0 .966.4.751.751 0 0 0 .4-.4.742.742 0 0 0 .056-.283Zm52.177 0a.74.74 0 0 0-1.261-.522.734.734 0 0 0 .112 1.137.736.736 0 0 0 1.093-.332.742.742 0 0 0 .056-.283Zm-34.785 0a.74.74 0 1 0-1.48-.001.74.74 0 0 0 1.48 0Zm17.393 0a.74.74 0 0 0-1.262-.522.737.737 0 0 0 .112 1.137.742.742 0 0 0 1.094-.332.742.742 0 0 0 .056-.283Zm-86.963 40.166a.74.74 0 0 0-.883-.724.737.737 0 0 0-.266 1.339.736.736 0 0 0 1.093-.332.742.742 0 0 0 .056-.283ZM279.524 6.021a.74.74 0 0 0-1.262-.522.745.745 0 0 0-.16.805.742.742 0 0 0 .966.4.751.751 0 0 0 .4-.4.742.742 0 0 0 .056-.283Zm52.177 0a.74.74 0 0 0-1.261-.522.734.734 0 0 0 .112 1.137.736.736 0 0 0 1.093-.332.742.742 0 0 0 .056-.283Zm-17.392 0a.736.736 0 0 0-1.262-.522.745.745 0 0 0-.16.805.743.743 0 0 0 .966.4.75.75 0 0 0 .4-.4.742.742 0 0 0 .056-.283Zm-17.393 0a.74.74 0 0 0-1.261-.522.737.737 0 0 0 .522 1.261.733.733 0 0 0 .683-.456.742.742 0 0 0 .056-.283Zm78.267 5.02a.741.741 0 0 0-.883-.724.74.74 0 1 0 .883.725Zm-121.748 0a.74.74 0 0 0-.883-.724.737.737 0 0 0-.581.58.743.743 0 0 0 .315.759.736.736 0 0 0 .933-.092.74.74 0 0 0 .216-.522Zm139.14 0a.74.74 0 0 0-.883-.724.737.737 0 0 0-.581.58.743.743 0 0 0 .314.759.742.742 0 0 0 .933-.092.737.737 0 0 0 .217-.522Zm34.785 0a.737.737 0 0 0-1.262-.523.744.744 0 0 0-.16.806.738.738 0 0 0 1.422-.282Zm-17.392 0a.741.741 0 0 0-.883-.724.74.74 0 1 0 .883.725Zm-52.178 0a.74.74 0 0 0-.883-.724.737.737 0 0 0-.581.58.743.743 0 0 0 .315.759.736.736 0 0 0 .933-.092.74.74 0 0 0 .216-.522Zm86.963 0a.737.737 0 0 0-1.262-.523.737.737 0 0 0 .112 1.138.737.737 0 0 0 .933-.092.737.737 0 0 0 .217-.522Zm-156.533 0a.74.74 0 0 0-.883-.724.737.737 0 0 0-.539 1.007.739.739 0 0 0 1.422-.282Zm52.178 0a.737.737 0 0 0-1.464-.145.734.734 0 0 0 .314.76.74.74 0 0 0 1.15-.614Zm-69.57 0a.741.741 0 0 0-.883-.724.74.74 0 1 0 .883.725Zm34.785 0a.741.741 0 0 0-.883-.724.74.74 0 1 0 .883.725Zm17.392 0a.74.74 0 0 0-.883-.724.737.737 0 0 0-.581.58.738.738 0 1 0 1.464.145Zm-60.873-5.02a.739.739 0 1 0-1.478 0 .739.739 0 0 0 1.478 0Zm-8.697 35.145a.736.736 0 0 0-1.261-.522.74.74 0 1 0 1.261.522Zm182.621-5.02a.74.74 0 0 0-.883-.725.737.737 0 0 0-.266 1.34.736.736 0 0 0 1.093-.333.742.742 0 0 0 .056-.282Zm-165.228 5.02a.74.74 0 0 0-1.262-.522.738.738 0 0 0 1.045 1.045.749.749 0 0 0 .217-.523Zm17.392 0a.74.74 0 1 0-1.48 0 .74.74 0 0 0 1.48 0Zm17.393 0a.74.74 0 0 0-1.262-.522.738.738 0 1 0 1.262.522Zm113.051-5.02a.74.74 0 0 0-1.262-.523.737.737 0 0 0 .523 1.262.738.738 0 0 0 .739-.74Zm-34.785 0a.74.74 0 0 0-1.262-.523.744.744 0 0 0-.16.806.742.742 0 0 0 .966.4.751.751 0 0 0 .4-.4.742.742 0 0 0 .056-.284Zm-52.178 0a.74.74 0 0 0-.883-.725.737.737 0 0 0-.266 1.34.736.736 0 0 0 1.093-.333.742.742 0 0 0 .056-.282Zm69.57 0a.74.74 0 1 0-1.48-.001.74.74 0 0 0 1.48 0Zm-52.177 0a.74.74 0 0 0-1.262-.523.744.744 0 0 0-.16.806.742.742 0 0 0 .966.4.74.74 0 0 0 .456-.684Zm-26.089 5.02a.74.74 0 1 0-1.48 0 .74.74 0 0 0 1.48 0Zm43.481-5.02a.74.74 0 0 0-.883-.725.737.737 0 0 0-.266 1.34.736.736 0 0 0 1.093-.333.742.742 0 0 0 .056-.282Zm43.482 5.02a.74.74 0 0 0-1.262-.522.738.738 0 1 0 1.262.522Zm-130.444 5.021a.74.74 0 0 0-1.262-.522.745.745 0 0 0-.16.805.742.742 0 0 0 .966.4.751.751 0 0 0 .4-.4.742.742 0 0 0 .056-.283Zm-17.392 0a.739.739 0 1 0-1.478 0 .739.739 0 0 0 1.478 0Zm34.784 0a.74.74 0 0 0-.883-.724.737.737 0 0 0-.266 1.339.736.736 0 0 0 1.093-.332.742.742 0 0 0 .056-.283Zm147.837-5.02a.741.741 0 0 0-1.262-.523.737.737 0 0 0 .112 1.137.74.74 0 0 0 1.15-.615Zm-130.444 5.02a.736.736 0 0 0-1.262-.522.745.745 0 0 0-.16.805.742.742 0 0 0 .966.4.751.751 0 0 0 .4-.4.742.742 0 0 0 .056-.283Zm26.089-5.02a.74.74 0 0 0-1.262-.523.744.744 0 0 0-.16.805.742.742 0 0 0 .683.457.733.733 0 0 0 .522-.217.749.749 0 0 0 .217-.523Zm17.392 0a.736.736 0 0 0-1.261-.522.74.74 0 1 0 1.261.521Zm69.57 0a.736.736 0 0 0-1.262-.522.745.745 0 0 0-.16.805.738.738 0 0 0 .966.4.742.742 0 0 0 .456-.684Zm-52.177 0a.74.74 0 0 0-1.262-.523.738.738 0 0 0 1.045 1.045.749.749 0 0 0 .217-.523Zm17.392 0a.736.736 0 0 0-1.262-.522.745.745 0 0 0-.16.804.738.738 0 0 0 1.422-.283Zm-78.266-5.022a.737.737 0 0 0-1.262-.522.745.745 0 0 0-.16.805.742.742 0 0 0 .966.4.751.751 0 0 0 .4-.4.742.742 0 0 0 .056-.282Zm17.392-10.04a.74.74 0 0 0-1.261-.524.737.737 0 0 0 .112 1.137.736.736 0 0 0 .933-.091.74.74 0 0 0 .216-.523Zm-34.785 10.04a.74.74 0 0 0-.883-.724.737.737 0 0 0-.266 1.34.736.736 0 0 0 1.093-.333.723.723 0 0 0 .056-.282Zm104.355-10.04a.74.74 0 0 0-.883-.726.737.737 0 0 0-.538 1.008.735.735 0 0 0 1.205.24.74.74 0 0 0 .216-.523Zm34.785 0a.74.74 0 0 0-1.261-.524.737.737 0 0 0 .112 1.137.736.736 0 0 0 .933-.091.74.74 0 0 0 .216-.523Zm-165.228 5.02a.741.741 0 0 0-.883-.725.74.74 0 0 0-.267 1.34.742.742 0 0 0 .933-.092.737.737 0 0 0 .217-.523Zm-17.393 0a.74.74 0 0 0-.883-.725.737.737 0 0 0-.539 1.008.738.738 0 0 0 1.206.24.74.74 0 0 0 .216-.523Zm43.481-5.02a.74.74 0 0 0-1.261-.524.737.737 0 0 0 .112 1.137.736.736 0 0 0 .933-.091.74.74 0 0 0 .216-.523Zm-8.696 5.02a.74.74 0 0 0-1.261-.523.737.737 0 0 0 .112 1.137.737.737 0 0 0 1.149-.614Zm26.089-5.02a.74.74 0 1 0-1.48-.002.74.74 0 0 0 1.48.001Zm34.785 0a.74.74 0 1 0-1.48-.002.74.74 0 0 0 1.48.001Zm34.785 0a.736.736 0 0 0-1.262-.523.744.744 0 0 0-.16.805.743.743 0 0 0 .683.456.737.737 0 0 0 .739-.739Zm-17.393 0a.74.74 0 0 0-1.261-.524.735.735 0 0 0 .112 1.137.736.736 0 0 0 .933-.091.74.74 0 0 0 .216-.523Zm52.178 0a.736.736 0 0 0-1.262-.523.744.744 0 0 0-.16.805.743.743 0 0 0 .683.456.737.737 0 0 0 .739-.739Zm-113.051 5.02a.741.741 0 0 0-.883-.725.74.74 0 0 0-.267 1.34.74.74 0 0 0 1.15-.615Zm121.747 0a.74.74 0 0 0-1.262-.523.744.744 0 0 0-.16.806.738.738 0 0 0 1.205.24.737.737 0 0 0 .217-.523Zm-165.228 5.02a.74.74 0 1 0-1.479.001.74.74 0 0 0 1.479 0Zm147.836-5.02a.741.741 0 0 0-.883-.725.74.74 0 0 0-.267 1.34.74.74 0 0 0 1.15-.615Zm-130.444 5.02a.74.74 0 0 0-1.262-.522.744.744 0 0 0-.16.806.742.742 0 0 0 .966.4.751.751 0 0 0 .4-.4.742.742 0 0 0 .056-.284Zm165.229-5.02a.737.737 0 0 0-1.464-.145.735.735 0 0 0 .314.76.737.737 0 0 0 1.15-.615Zm-104.355 0a.736.736 0 0 0-1.262-.523.745.745 0 0 0-.16.805.743.743 0 0 0 .683.457.74.74 0 0 0 .739-.739Zm-17.393 0a.74.74 0 0 0-.883-.725.737.737 0 0 0-.539 1.008.738.738 0 0 0 1.206.24.74.74 0 0 0 .216-.523Zm52.178 0a.741.741 0 0 0-.883-.725.74.74 0 0 0-.267 1.34.742.742 0 0 0 .933-.092.737.737 0 0 0 .217-.523Zm17.392 0a.74.74 0 0 0-.883-.725.737.737 0 0 0-.539 1.008.742.742 0 0 0 .683.456.737.737 0 0 0 .739-.739Zm-34.785 0a.74.74 0 0 0-.883-.725.737.737 0 0 0-.539 1.008.738.738 0 0 0 1.206.24.74.74 0 0 0 .216-.523Zm-26.089 125.52a.743.743 0 0 0-.456-.683.742.742 0 0 0-.805.16.74.74 0 1 0 1.261.523Zm60.874-15.063a.74.74 0 1 0-1.48.002.74.74 0 0 0 1.48-.002Zm-52.177 0a.74.74 0 0 0-1.262-.522.734.734 0 0 0 .112 1.137.742.742 0 0 0 .933-.092.74.74 0 0 0 .217-.523Zm-34.785 0a.738.738 0 1 0-1.477.002.738.738 0 0 0 1.477-.002Zm17.392 0a.737.737 0 0 0-1.261-.522.74.74 0 0 0-.161.806.738.738 0 0 0 1.422-.284Zm52.178 0a.738.738 0 1 0-1.477.002.738.738 0 0 0 1.477-.002Zm-17.393 0a.74.74 0 1 0-1.48.002.74.74 0 0 0 1.48-.002Zm-69.57 0a.74.74 0 1 0-1.48 0 .74.74 0 0 0 1.48 0Zm130.444-5.02a.742.742 0 0 0-.884-.725.744.744 0 0 0-.58.581.743.743 0 0 0 .314.758.736.736 0 0 0 .933-.092.73.73 0 0 0 .217-.522Zm-147.836 5.02a.738.738 0 1 0-1.477.002.738.738 0 0 0 1.477-.002Zm165.228-5.02a.74.74 0 0 0-.883-.725.744.744 0 0 0-.58.581.735.735 0 0 0 .314.758.73.73 0 0 0 .693.069.75.75 0 0 0 .4-.4.744.744 0 0 0 .056-.283Zm-113.051 35.145a.737.737 0 0 0-1.261-.522.738.738 0 1 0 1.205.805.744.744 0 0 0 .056-.283Zm78.266-25.104a.737.737 0 0 0-1.261-.522.738.738 0 1 0 1.045 1.045.743.743 0 0 0 .216-.523Zm8.697-5.021a.738.738 0 1 0-1.477.002.738.738 0 0 0 1.477-.002Zm-113.052 5.021a.737.737 0 0 0-1.463-.144.735.735 0 0 0 .314.759.737.737 0 0 0 1.149-.615Zm17.393 0a.737.737 0 0 0-1.261-.523.74.74 0 0 0 .111 1.137.736.736 0 0 0 .933-.091.74.74 0 0 0 .217-.523Zm34.785 0a.737.737 0 0 0-1.261-.523.74.74 0 0 0 .111 1.138.743.743 0 0 0 .933-.092.74.74 0 0 0 .217-.523Zm-17.393 0a.737.737 0 0 0-1.463-.144.735.735 0 0 0 .314.759.737.737 0 0 0 1.149-.615Zm52.178 0a.73.73 0 0 0-.125-.41.736.736 0 0 0-1.137-.113.747.747 0 0 0-.16.806.743.743 0 0 0 1.205.24.74.74 0 0 0 .217-.523Zm-17.393 0a.737.737 0 0 0-1.261-.523.735.735 0 0 0 .112 1.138.737.737 0 0 0 1.149-.615Zm34.785-10.041a.74.74 0 0 0-.883-.725.74.74 0 0 0-.538 1.008.733.733 0 0 0 .682.456.736.736 0 0 0 .739-.739Zm43.482 5.02a.738.738 0 1 0-1.477.002.738.738 0 0 0 1.477-.002Zm-17.393 0a.738.738 0 1 0-1.477.002.738.738 0 0 0 1.477-.002Zm-121.747 30.125a.738.738 0 1 0-1.477.002.738.738 0 0 0 1.477-.002Zm-43.482-25.104a.736.736 0 0 0-1.261-.523.74.74 0 1 0 1.261.523Zm69.57-60.25a.74.74 0 1 0-1.48 0 .74.74 0 0 0 1.48 0Zm-78.266 55.229a.733.733 0 0 0-.883-.724.74.74 0 1 0 .883.724Zm69.57-10.041a.743.743 0 0 0-.456-.683.743.743 0 0 0-.805.161.738.738 0 1 0 1.205.805.744.744 0 0 0 .056-.283Zm-17.392 0a.744.744 0 0 0-.457-.683.742.742 0 0 0-.805.161.736.736 0 0 0 .112 1.136.734.734 0 0 0 .933-.091.742.742 0 0 0 .217-.523Zm78.266 5.021a.742.742 0 0 0-.883-.725.747.747 0 0 0-.379.202.747.747 0 0 0-.16.806.74.74 0 0 0 1.422-.283Zm-43.481-5.021a.744.744 0 0 0-.457-.683.74.74 0 1 0 .457.683Zm17.392 0a.736.736 0 0 0-.456-.683.743.743 0 0 0-.805.161.738.738 0 1 0 1.205.805.744.744 0 0 0 .056-.283Zm17.393 0a.744.744 0 0 0-.457-.683.742.742 0 0 0-.805.161.736.736 0 0 0 .112 1.136.736.736 0 0 0 .933-.091.744.744 0 0 0 .217-.523Zm-104.355 0a.744.744 0 0 0-.457-.683.742.742 0 0 0-.805.161.736.736 0 0 0 .112 1.136.736.736 0 0 0 .933-.091.744.744 0 0 0 .217-.523Zm130.443-5.021a.743.743 0 0 0-.456-.683.743.743 0 0 0-.806.161.743.743 0 0 0 .523 1.261.736.736 0 0 0 .739-.739Zm17.393 0a.744.744 0 0 0-.457-.683.742.742 0 0 0-.805.161.736.736 0 0 0-.16.805.743.743 0 0 0 1.366 0 .744.744 0 0 0 .056-.283Zm-165.229 5.021a.736.736 0 0 0-.456-.683.743.743 0 0 0-.805.161.738.738 0 1 0 1.205.805.744.744 0 0 0 .056-.283Zm182.621-5.021a.743.743 0 0 0-.456-.683.743.743 0 0 0-.805.161.735.735 0 0 0 .112 1.137.737.737 0 0 0 1.149-.615Zm-78.266 45.187a.73.73 0 0 0-.125-.41.735.735 0 0 0-1.137-.112.744.744 0 0 0-.16.805.738.738 0 0 0 1.422-.283Zm-69.57-40.166a.743.743 0 0 0-.456-.683.743.743 0 0 0-.805.16.735.735 0 0 0 .112 1.137.73.73 0 0 0 .693.069.748.748 0 0 0 .4-.4.744.744 0 0 0 .056-.283Zm-8.696 5.021a.742.742 0 0 0-.883-.725.747.747 0 0 0-.379.202.747.747 0 0 0-.16.806.74.74 0 0 0 1.422-.283Zm52.177 0a.74.74 0 0 0-.883-.725.744.744 0 0 0-.58.581.735.735 0 0 0 .314.758.73.73 0 0 0 .693.069.75.75 0 0 0 .4-.4.744.744 0 0 0 .056-.283Zm-34.785 0a.74.74 0 0 0-.883-.725.744.744 0 0 0-.58.581.735.735 0 0 0 .314.758.73.73 0 0 0 .693.069.74.74 0 0 0 .456-.683Zm17.393 0a.736.736 0 0 0-.456-.683.743.743 0 0 0-.806.16.747.747 0 0 0-.16.806.74.74 0 0 0 1.422-.283Zm34.785 0a.734.734 0 0 0-.456-.683.743.743 0 0 0-.806.16.747.747 0 0 0-.16.806.74.74 0 0 0 1.422-.283Zm17.392 0a.74.74 0 0 0-.883-.725.744.744 0 0 0-.581.581.743.743 0 0 0 .315.758.73.73 0 0 0 .693.069.75.75 0 0 0 .4-.4.744.744 0 0 0 .056-.283Zm60.874-5.021a.744.744 0 0 0-.456-.683.744.744 0 0 0-.806.161.744.744 0 0 0-.16.805.743.743 0 0 0 .683.456.744.744 0 0 0 .523-.217.743.743 0 0 0 .216-.522Zm-17.392 0a.744.744 0 0 0-.457-.683.742.742 0 0 0-.805.161.736.736 0 0 0 .112 1.136.734.734 0 0 0 .933-.091.742.742 0 0 0 .217-.523Zm-17.393 0a.736.736 0 0 0-.456-.683.743.743 0 0 0-.806.161.744.744 0 0 0-.16.805c.056.135.151.25.273.331a.73.73 0 0 0 .693.069.748.748 0 0 0 .4-.4.744.744 0 0 0 .056-.283Zm-130.444 5.021a.743.743 0 0 0-.456-.683.742.742 0 0 0-.805.16.74.74 0 1 0 1.261.523Zm182.622-5.021a.744.744 0 0 0-.457-.683.742.742 0 0 0-.805.16.74.74 0 1 0 1.262.523Zm-104.355 40.166a.738.738 0 1 0-1.477.002.738.738 0 0 0 1.477-.002Zm0-10.041a.736.736 0 0 0-.456-.683.735.735 0 0 0-.806.16.744.744 0 0 0-.16.805.742.742 0 0 0 .683.457.739.739 0 0 0 .739-.739Zm43.481-35.146a.744.744 0 0 0-.457-.683.74.74 0 1 0 .457.683Zm-78.266 35.146a.744.744 0 0 0-.456-.683.735.735 0 0 0-.806.16.736.736 0 0 0-.16.805.742.742 0 0 0 .683.457.737.737 0 0 0 .739-.739Zm17.392 0a.743.743 0 0 0-.456-.683.734.734 0 0 0-.805.16.738.738 0 1 0 1.045 1.045.739.739 0 0 0 .216-.522Zm34.785 0a.743.743 0 0 0-.456-.683.735.735 0 0 0-.805.16.738.738 0 1 0 1.045 1.045.739.739 0 0 0 .216-.522Zm52.178 0a.744.744 0 0 0-.456-.683.735.735 0 0 0-.806.16.736.736 0 0 0-.16.805.742.742 0 0 0 .683.457.737.737 0 0 0 .739-.739Zm8.696-5.021a.736.736 0 0 0-.456-.683.743.743 0 0 0-.806.16.747.747 0 0 0-.16.806.74.74 0 0 0 1.422-.283Zm-43.481 5.021a.744.744 0 0 0-.456-.683.735.735 0 0 0-.806.16.736.736 0 0 0-.16.805.742.742 0 0 0 .683.457.736.736 0 0 0 .522-.217.736.736 0 0 0 .217-.522Zm-121.748 10.041a.73.73 0 0 0-.125-.41.735.735 0 0 0-1.136-.112.738.738 0 1 0 1.205.805.744.744 0 0 0 .056-.283Zm34.785-10.041a.743.743 0 0 0-.456-.683.734.734 0 0 0-.805.16.736.736 0 0 0-.161.805.738.738 0 0 0 1.422-.282Zm147.836-5.021a.743.743 0 0 0-.456-.683.742.742 0 0 0-.805.16.74.74 0 1 0 1.261.523Zm-165.228 5.021a.744.744 0 0 0-.456-.683.735.735 0 0 0-.806.16.736.736 0 0 0-.16.805.742.742 0 0 0 .683.457.736.736 0 0 0 .522-.217.736.736 0 0 0 .217-.522Zm-17.393 0a.743.743 0 0 0-.456-.683.735.735 0 0 0-.805.16.738.738 0 1 0 1.044 1.045.736.736 0 0 0 .217-.522Zm139.14 0a.743.743 0 0 0-.456-.683.735.735 0 0 0-.805.16.738.738 0 1 0 1.044 1.045.736.736 0 0 0 .217-.522Zm-26.089 5.021a.743.743 0 0 0-.456-.683.734.734 0 0 0-.805.16.734.734 0 0 0 .112 1.137.737.737 0 0 0 1.149-.614Zm-17.392 0a.743.743 0 0 0-.456-.683.735.735 0 0 0-.805.16.738.738 0 1 0 1.044 1.045.736.736 0 0 0 .217-.522Zm78.266-5.021a.743.743 0 0 0-.456-.683.735.735 0 0 0-.806.16.743.743 0 0 0-.16.806.738.738 0 0 0 1.422-.283Zm-43.481 5.021a.736.736 0 0 0-.456-.683.735.735 0 0 0-.806.16.744.744 0 0 0-.16.805.742.742 0 0 0 .683.456.736.736 0 0 0 .739-.738Zm-69.57 0a.743.743 0 0 0-.456-.683.735.735 0 0 0-.805.16.738.738 0 1 0 1.044 1.045.736.736 0 0 0 .217-.522Zm86.962 0a.743.743 0 0 0-.456-.683.735.735 0 0 0-.805.16.738.738 0 1 0 1.045 1.045.739.739 0 0 0 .216-.522Zm-69.57 0a.743.743 0 0 0-.456-.683.734.734 0 0 0-.805.16.736.736 0 0 0-.16.805.736.736 0 0 0 .682.456.739.739 0 0 0 .739-.738Zm113.052-5.021a.736.736 0 0 0-.456-.683.735.735 0 0 0-.806.16.736.736 0 0 0-.16.805.736.736 0 0 0 .683.457.739.739 0 0 0 .739-.739Zm-8.697 5.021a.743.743 0 0 0-.456-.683.734.734 0 0 0-.805.16.736.736 0 0 0-.16.805.736.736 0 0 0 .682.456.739.739 0 0 0 .739-.738Zm-173.925 0a.735.735 0 0 0-.882-.725.732.732 0 0 0-.581.58.735.735 0 0 0 .314.759.737.737 0 0 0 1.149-.614Zm34.785 0a.743.743 0 0 0-.456-.683.734.734 0 0 0-.805.16.736.736 0 0 0-.16.805.736.736 0 0 0 .682.456.739.739 0 0 0 .739-.738Zm-17.392 0a.736.736 0 0 0-.456-.683.735.735 0 0 0-.806.16.744.744 0 0 0-.16.805.742.742 0 0 0 .683.456.736.736 0 0 0 .739-.738Zm-17.393-10.042a.735.735 0 0 0-.882-.725.74.74 0 1 0 .882.725Zm95.659-5.021a.737.737 0 0 0-1.261-.523.74.74 0 0 0-.161.806c.056.135.151.25.273.331a.743.743 0 0 0 .933-.091.743.743 0 0 0 .216-.523Zm-17.392 0a.73.73 0 0 0-.125-.41.736.736 0 0 0-1.137-.113.747.747 0 0 0-.16.806.74.74 0 0 0 1.422-.283Zm-17.393 0a.737.737 0 0 0-1.261-.523.74.74 0 0 0-.161.806c.056.135.151.25.273.331a.743.743 0 0 0 .933-.091.743.743 0 0 0 .216-.523Zm69.57 0a.737.737 0 0 0-1.261-.523.74.74 0 0 0 .111 1.137.736.736 0 0 0 .933-.091.74.74 0 0 0 .217-.523Zm-17.392 0a.738.738 0 0 0-.883-.725.74.74 0 1 0 .883.725Zm-69.57 0a.738.738 0 0 0-.883-.725.74.74 0 1 0 .883.725Zm-34.785 0a.738.738 0 0 0-.883-.725.74.74 0 1 0 .883.725Zm165.228-5.021a.737.737 0 0 0-1.463-.144.735.735 0 0 0 .314.759.737.737 0 0 0 1.149-.615ZM288.22 171.707a.737.737 0 0 0-1.463-.144.735.735 0 0 0 .314.759.737.737 0 0 0 1.149-.615Zm0-20.083a.737.737 0 0 0-1.463-.144.736.736 0 0 0 .314.758.738.738 0 0 0 1.149-.614Zm-34.785 0a.737.737 0 0 0-1.261-.523.74.74 0 0 0-.161.806c.056.135.151.25.273.331a.739.739 0 0 0 1.149-.614Zm156.533 0a.738.738 0 0 0-.883-.725.74.74 0 1 0 .883.725Zm-43.482 5.021a.743.743 0 0 0-.456-.683.742.742 0 0 0-.805.16.736.736 0 0 0 .112 1.137.738.738 0 0 0 1.149-.614Zm52.178 10.042a.736.736 0 0 0-.456-.683.735.735 0 0 0-.806.16.744.744 0 0 0-.16.805.742.742 0 0 0 .683.456.736.736 0 0 0 .739-.738Zm-69.57-10.042a.743.743 0 0 0-.456-.683.743.743 0 0 0-.805.16.74.74 0 0 0 .111 1.137.736.736 0 0 0 .933-.092.736.736 0 0 0 .217-.522Zm52.177 0a.743.743 0 0 0-.456-.683.743.743 0 0 0-.805.16.74.74 0 0 0-.16.806.733.733 0 0 0 .682.456.74.74 0 0 0 .739-.739Zm-86.962 0a.743.743 0 0 0-.456-.683.743.743 0 0 0-.805.16.738.738 0 1 0 1.044 1.045.736.736 0 0 0 .217-.522Zm69.57 0a.736.736 0 0 0-.456-.683.743.743 0 0 0-.806.16.747.747 0 0 0-.16.806.74.74 0 0 0 1.422-.283Zm34.785-10.042a.73.73 0 0 0-.125-.41.736.736 0 0 0-1.137-.113.747.747 0 0 0-.16.806.743.743 0 0 0 1.205.24.74.74 0 0 0 .217-.523Zm26.089 5.021a.736.736 0 0 0-.456-.683.735.735 0 0 0-.806.16.736.736 0 0 0-.16.806.733.733 0 0 0 .683.456.74.74 0 0 0 .739-.739Zm-173.925 20.083a.738.738 0 1 0-1.477.002.738.738 0 0 0 1.477-.002Zm156.532-20.083a.73.73 0 0 0-.125-.41.736.736 0 0 0-1.137-.113.747.747 0 0 0-.16.806c.056.135.151.25.273.331a.736.736 0 0 0 .932-.092.736.736 0 0 0 .217-.522Zm-147.836 5.021a.736.736 0 0 0-.456-.683.743.743 0 0 0-.806.16.747.747 0 0 0-.16.806.74.74 0 0 0 1.422-.283Zm17.392 0a.743.743 0 0 0-.456-.683.742.742 0 0 0-.805.16.74.74 0 1 0 1.261.523Zm-17.392-10.042a.73.73 0 0 0-.125-.41.736.736 0 0 0-1.137-.113.747.747 0 0 0-.16.806.743.743 0 0 0 1.205.24.74.74 0 0 0 .217-.523Zm-8.696-45.187a.738.738 0 0 0-.883-.725.74.74 0 1 0 .883.725Zm-17.393 0a.737.737 0 0 0-1.261-.523.74.74 0 0 0-.161.806c.056.135.151.25.273.331a.74.74 0 0 0 1.149-.614Zm86.963 0a.73.73 0 0 0-.125-.41.736.736 0 0 0-1.137-.113.734.734 0 0 0 .112 1.137.742.742 0 0 0 .933-.092.736.736 0 0 0 .217-.522Zm-52.178 0a.737.737 0 0 0-1.261-.523.74.74 0 0 0 .522 1.262.74.74 0 0 0 .739-.739Zm78.266 25.104a.743.743 0 0 0-.456-.683.743.743 0 0 0-.805.161.738.738 0 1 0 1.205.805.744.744 0 0 0 .056-.283Zm-60.873-25.104a.738.738 0 0 0-.883-.725.74.74 0 1 0 .883.725Zm-43.482 75.312a.737.737 0 0 0-1.463-.144.735.735 0 0 0 .314.759.737.737 0 0 0 1.093-.332.725.725 0 0 0 .056-.283Zm121.748-80.333a.74.74 0 0 0-1.262-.522.744.744 0 0 0-.16.805.742.742 0 0 0 .966.4.751.751 0 0 0 .4-.4.742.742 0 0 0 .056-.283Zm-17.393 0a.74.74 0 1 0-1.48 0 .74.74 0 0 0 1.48 0Zm34.785 0a.74.74 0 1 0-1.48 0 .74.74 0 0 0 1.48 0Zm17.393 0a.74.74 0 0 0-1.262-.522.737.737 0 0 0 .112 1.137.742.742 0 0 0 1.094-.332.742.742 0 0 0 .056-.283Zm-69.57 0a.736.736 0 0 0-1.262-.522.745.745 0 0 0-.16.805.742.742 0 0 0 .966.4.74.74 0 0 0 .456-.683Zm86.962 0a.74.74 0 0 0-.883-.724.737.737 0 0 0-.266 1.339.736.736 0 0 0 1.093-.332.742.742 0 0 0 .056-.283Zm-156.532 10.042a.736.736 0 0 0-.456-.683.735.735 0 0 0-.806.16.744.744 0 0 0-.16.805.737.737 0 0 0 1.205.24.736.736 0 0 0 .217-.522Zm69.57 0a.743.743 0 0 0-.456-.683.735.735 0 0 0-.805.16.738.738 0 1 0 1.044 1.045.736.736 0 0 0 .217-.522Zm-52.178 0a.743.743 0 0 0-.456-.683.734.734 0 0 0-.805.16.736.736 0 0 0-.16.805.738.738 0 0 0 1.421-.282Zm60.874-5.021a.737.737 0 0 0-1.261-.523.74.74 0 0 0-.161.806c.056.135.151.25.273.331a.74.74 0 0 0 1.149-.614Zm86.963 70.291a.738.738 0 1 0-1.477.002.738.738 0 0 0 1.477-.002Zm-130.444-65.27a.743.743 0 0 0-.456-.683.735.735 0 0 0-.805.16.738.738 0 1 0 1.044 1.045.736.736 0 0 0 .217-.522Zm17.392 0a.743.743 0 0 0-.456-.683.734.734 0 0 0-.805.16.736.736 0 0 0-.16.805.738.738 0 0 0 1.421-.282Zm113.052-5.021a.736.736 0 0 0-.456-.683.735.735 0 0 0-.806.16.736.736 0 0 0-.16.805.74.74 0 0 0 1.422-.282Zm-52.178 0a.737.737 0 0 0-1.261-.523.74.74 0 0 0 .111 1.137.736.736 0 0 0 .933-.092.736.736 0 0 0 .217-.522Zm-17.392 0a.738.738 0 0 0-.883-.725.74.74 0 1 0 .883.725Zm34.785 0a.738.738 0 0 0-.883-.725.74.74 0 1 0 .883.725Zm17.392 0a.736.736 0 0 0-.456-.683.743.743 0 0 0-.806.16.747.747 0 0 0-.16.806c.056.135.151.25.273.331a.736.736 0 0 0 .932-.092.736.736 0 0 0 .217-.522Zm-165.228 5.021a.744.744 0 0 0-.456-.683.735.735 0 0 0-.806.16.736.736 0 0 0-.16.805.736.736 0 0 0 .682.457.74.74 0 0 0 .74-.739Zm-8.697-15.063a.736.736 0 0 0-1.261-.522.74.74 0 1 0 1.261.522Zm43.481 85.354a.737.737 0 0 0-1.463-.144.735.735 0 0 0 .314.759.737.737 0 0 0 1.149-.615Zm-26.088-85.354a.74.74 0 0 0-1.262-.522.737.737 0 0 0 .523 1.262.738.738 0 0 0 .739-.74Zm34.785 0a.74.74 0 0 0-1.262-.522.738.738 0 1 0 1.262.522Zm130.443-5.02a.74.74 0 1 0-1.48-.001.74.74 0 0 0 1.48 0Zm-147.836 5.02a.74.74 0 1 0-1.48 0 .74.74 0 0 0 1.48 0Zm60.874-5.02a.736.736 0 0 0-1.262-.522.745.745 0 0 0-.16.805.742.742 0 0 0 .966.4.74.74 0 0 0 .456-.683Zm-26.089 5.02a.74.74 0 0 0-.883-.724.739.739 0 1 0 .883.724Zm43.481-5.02a.74.74 0 1 0-1.48-.001.74.74 0 0 0 1.48 0Zm34.785 0a.74.74 0 1 0-1.48-.001.74.74 0 0 0 1.48 0Zm-17.392 0a.74.74 0 0 0-1.262-.523.745.745 0 0 0-.16.806.742.742 0 0 0 .966.4.751.751 0 0 0 .4-.4.742.742 0 0 0 .056-.283Zm34.785 0a.74.74 0 0 0-1.262-.523.745.745 0 0 0-.16.806.742.742 0 0 0 .966.4.736.736 0 0 0 .456-.683Zm-86.963 10.041a.74.74 0 1 0-1.48 0 .74.74 0 0 0 1.48 0Zm-69.569 0a.739.739 0 1 0-1.478 0 .739.739 0 0 0 1.478 0Zm17.392 0a.74.74 0 0 0-1.262-.522.745.745 0 0 0-.16.805.742.742 0 0 0 .966.4.751.751 0 0 0 .4-.4.742.742 0 0 0 .056-.283Zm165.229-5.02a.74.74 0 0 0-1.262-.523.738.738 0 0 0 .523 1.262.731.731 0 0 0 .522-.217.749.749 0 0 0 .217-.523Zm-165.229 85.353a.738.738 0 1 0-1.477.002.738.738 0 0 0 1.477-.002Zm34.785-80.333a.736.736 0 0 0-1.262-.522.745.745 0 0 0-.16.805.743.743 0 0 0 .683.457.742.742 0 0 0 .683-.457.742.742 0 0 0 .056-.283Zm-17.393 0a.74.74 0 1 0-1.48 0 .74.74 0 0 0 1.48 0Zm43.482-5.02a.74.74 0 0 0-1.262-.523.745.745 0 0 0-.16.805.742.742 0 0 0 .683.457.73.73 0 0 0 .522-.217.749.749 0 0 0 .217-.523Zm17.392 0a.736.736 0 0 0-1.261-.522.74.74 0 1 0 1.261.521Zm17.393 0a.74.74 0 0 0-1.262-.523.738.738 0 0 0 1.045 1.045.75.75 0 0 0 .217-.523Zm34.785 0a.74.74 0 0 0-1.262-.523.738.738 0 1 0 1.262.522Zm-17.393 0a.736.736 0 0 0-1.262-.522.745.745 0 0 0-.16.805.738.738 0 0 0 1.422-.284Zm34.785 0a.735.735 0 0 0-.883-.724.74.74 0 0 0-.539 1.007.737.737 0 0 0 .966.4.74.74 0 0 0 .456-.684Zm-104.355 10.041a.737.737 0 0 0-1.261-.523.74.74 0 0 0-.161.806c.056.135.151.25.273.331a.74.74 0 0 0 1.149-.614ZM305.613 121.5a.742.742 0 0 0-.883-.725.732.732 0 0 0-.581.58.735.735 0 0 0 .314.759.74.74 0 0 0 1.15-.614Zm-52.178 0a.738.738 0 1 0-1.476-.003.738.738 0 0 0 1.476.003Zm17.393 0a.74.74 0 1 0-1.478 0 .74.74 0 0 0 1.478 0Zm17.392 0a.74.74 0 0 0-.883-.726.738.738 0 0 0-.58.581.743.743 0 0 0 .314.759.737.737 0 0 0 1.149-.614Zm34.785 0a.74.74 0 0 0-.883-.725.738.738 0 1 0 .667 1.247.742.742 0 0 0 .216-.522Zm17.393 0a.734.734 0 0 0-.456-.683.735.735 0 0 0-.806.16.744.744 0 0 0-.16.805.74.74 0 0 0 1.422-.282Zm52.177 50.207a.73.73 0 0 0-.125-.41.735.735 0 0 0-1.137-.112.744.744 0 0 0-.16.805.738.738 0 0 0 1.422-.283Zm8.696-55.228a.743.743 0 0 0-.456-.683.735.735 0 0 0-.805.16.738.738 0 1 0 1.045 1.045.74.74 0 0 0 .216-.522ZM357.79 121.5a.74.74 0 0 0-.883-.725.738.738 0 1 0 .667 1.247.742.742 0 0 0 .216-.522Zm26.089-5.021a.736.736 0 0 0-.456-.683.735.735 0 0 0-.806.16.744.744 0 0 0-.16.805.742.742 0 0 0 .683.456.736.736 0 0 0 .739-.738Zm34.785 0a.736.736 0 0 0-.456-.683.735.735 0 0 0-.806.16.744.744 0 0 0-.16.805.742.742 0 0 0 .683.456.736.736 0 0 0 .739-.738Zm17.392 0a.743.743 0 0 0-.456-.683.734.734 0 0 0-.805.16.736.736 0 0 0-.16.805.736.736 0 0 0 .682.456.739.739 0 0 0 .739-.738ZM314.309 126.52a.736.736 0 0 0-.456-.683.74.74 0 0 0-.966.966.74.74 0 0 0 1.422-.283Zm-17.393 0a.743.743 0 0 0-.456-.683.743.743 0 0 0-.805.161.736.736 0 0 0-.16.805.741.741 0 0 0 .965.4.737.737 0 0 0 .456-.683Zm-17.392 0a.744.744 0 0 0-.456-.683.744.744 0 0 0-.806.161.744.744 0 0 0-.16.805.743.743 0 0 0 1.366 0 .744.744 0 0 0 .056-.283Zm86.962-10.041a.743.743 0 0 0-.456-.683.734.734 0 0 0-.805.16.734.734 0 0 0 .112 1.137.737.737 0 0 0 1.149-.614Zm-34.785 10.041a.743.743 0 0 0-.456-.683.743.743 0 0 0-.805.161.735.735 0 0 0 .112 1.137.737.737 0 0 0 1.149-.615Zm-69.569 0a.742.742 0 0 0-.884-.725.738.738 0 0 0-.266 1.339.73.73 0 0 0 .693.069.748.748 0 0 0 .4-.4.745.745 0 0 0 .057-.283Zm86.962 0a.736.736 0 0 0-.456-.683.743.743 0 0 0-.806.161.744.744 0 0 0-.16.805.743.743 0 0 0 1.366 0 .744.744 0 0 0 .056-.283Zm95.659-5.02a.731.731 0 0 0-.125-.411.743.743 0 0 0-1.137-.113.74.74 0 1 0 1.262.524Zm-52.178 0a.74.74 0 0 0-.883-.725.738.738 0 1 0 .666 1.247.739.739 0 0 0 .217-.522Zm17.393 0a.742.742 0 0 0-.883-.725.732.732 0 0 0-.581.58.735.735 0 0 0 .314.759.74.74 0 0 0 1.15-.614Zm-34.785 0a.742.742 0 0 0-.883-.725.732.732 0 0 0-.581.58.735.735 0 0 0 .314.759.743.743 0 0 0 .933-.092.739.739 0 0 0 .217-.522Zm52.177 0a.738.738 0 1 0-1.476-.003.738.738 0 0 0 1.476.003Zm-52.177 50.207a.738.738 0 1 0-1.477.002.738.738 0 0 0 1.477-.002Zm0-60.249a.744.744 0 0 0-.456-.683.735.735 0 0 0-.806.16.736.736 0 0 0-.16.805.742.742 0 0 0 .683.457.736.736 0 0 0 .522-.217.736.736 0 0 0 .217-.522Zm-69.57 0a.744.744 0 0 0-.456-.683.735.735 0 0 0-.806.16.736.736 0 0 0-.16.805.742.742 0 0 0 .683.457.737.737 0 0 0 .739-.739Zm-17.393 0a.743.743 0 0 0-.456-.683.734.734 0 0 0-.805.16.736.736 0 0 0-.161.805.738.738 0 0 0 1.422-.282Zm-17.392 0a.744.744 0 0 0-.456-.683.735.735 0 0 0-.806.16.736.736 0 0 0-.16.805.742.742 0 0 0 .683.457.736.736 0 0 0 .522-.217.736.736 0 0 0 .217-.522Zm69.57 0a.736.736 0 0 0-.456-.683.735.735 0 0 0-.806.16.744.744 0 0 0-.16.805.742.742 0 0 0 .683.457.737.737 0 0 0 .739-.739Zm-86.963 0a.743.743 0 0 0-.456-.683.735.735 0 0 0-.805.16.738.738 0 1 0 1.045 1.045.739.739 0 0 0 .216-.522Zm104.355 0a.743.743 0 0 0-.456-.683.735.735 0 0 0-.805.16.738.738 0 1 0 1.045 1.045.739.739 0 0 0 .216-.522Zm-34.785 0a.743.743 0 0 0-.456-.683.734.734 0 0 0-.805.16.738.738 0 1 0 1.045 1.045.739.739 0 0 0 .216-.522Zm78.266-5.021a.743.743 0 0 0-.456-.683.735.735 0 0 0-.805.16.74.74 0 0 0-.16.806.733.733 0 0 0 .682.456.74.74 0 0 0 .739-.739Zm-17.392 0a.736.736 0 0 0-.456-.683.735.735 0 0 0-.806.16.744.744 0 0 0-.16.805.737.737 0 0 0 1.205.24.736.736 0 0 0 .217-.522Zm43.481 65.27a.73.73 0 0 0-.125-.41.736.736 0 0 0-1.137-.112.744.744 0 0 0-.16.805.738.738 0 0 0 1.422-.283Zm8.696-65.27a.743.743 0 0 0-.456-.683.734.734 0 0 0-.805.16.736.736 0 0 0-.16.805.738.738 0 0 0 1.421-.282Zm-17.392 0a.736.736 0 0 0-.456-.683.735.735 0 0 0-.806.16.744.744 0 0 0-.16.805.737.737 0 0 0 1.205.24.736.736 0 0 0 .217-.522Zm8.696 5.021a.743.743 0 0 0-.456-.683.735.735 0 0 0-.806.16.743.743 0 0 0-.16.806.738.738 0 0 0 1.422-.283Zm-165.228 5.021a.744.744 0 0 0-.456-.683.735.735 0 0 0-.806.16.736.736 0 0 0-.16.805.736.736 0 0 0 .682.456.739.739 0 0 0 .74-.738Zm52.177 0a.743.743 0 0 0-.456-.683.735.735 0 0 0-.805.16.738.738 0 1 0 1.044 1.045.736.736 0 0 0 .217-.522Zm-34.785 0a.736.736 0 0 0-.456-.683.735.735 0 0 0-.806.16.744.744 0 0 0-.16.805.742.742 0 0 0 .683.456.736.736 0 0 0 .739-.738Zm17.392 0a.735.735 0 0 0-.883-.725.736.736 0 0 0-.538 1.007.736.736 0 0 0 .682.456.739.739 0 0 0 .739-.738Zm34.785 0a.743.743 0 0 0-.456-.683.734.734 0 0 0-.805.16.736.736 0 0 0-.16.805.736.736 0 0 0 .682.456.739.739 0 0 0 .739-.738Zm34.785-10.042a.743.743 0 0 0-.456-.683.734.734 0 0 0-.805.16.734.734 0 0 0 .112 1.137.738.738 0 0 0 1.149-.614Zm78.267 5.021a.736.736 0 0 0-.456-.683.735.735 0 0 0-.806.16.736.736 0 0 0-.16.805.736.736 0 0 0 .683.457.737.737 0 0 0 .739-.739Zm-34.785 60.249a.738.738 0 1 0-1.477.002.738.738 0 0 0 1.477-.002Zm0-60.249a.744.744 0 0 0-.456-.683.735.735 0 0 0-.806.16.736.736 0 0 0-.16.805.742.742 0 0 0 .683.457.737.737 0 0 0 .739-.739Zm-17.393 0a.743.743 0 0 0-.456-.683.735.735 0 0 0-.805.16.738.738 0 1 0 1.044 1.045.736.736 0 0 0 .217-.522Zm-43.481 5.021a.743.743 0 0 0-.456-.683.735.735 0 0 0-.805.16.738.738 0 1 0 1.044 1.045.736.736 0 0 0 .217-.522ZM288.22 1a.74.74 0 1 0-1.48-.001.74.74 0 0 0 1.48.001Zm17.393 0a.74.74 0 0 0-1.262-.522.737.737 0 0 0 .523 1.261.74.74 0 0 0 .739-.739Zm-52.178 0a.736.736 0 0 0-1.261-.522.74.74 0 1 0 1.261.522Zm17.393 0a.74.74 0 0 0-1.262-.522.737.737 0 0 0 .523 1.261.74.74 0 0 0 .739-.739Zm52.177 0a.74.74 0 1 0-1.48-.001.74.74 0 0 0 1.48.001Zm86.963 0a.74.74 0 0 0-1.262-.522.737.737 0 0 0 .523 1.261.74.74 0 0 0 .739-.739Zm-69.57 0a.74.74 0 0 0-1.262-.522.745.745 0 0 0-.16.805.743.743 0 0 0 .683.456.732.732 0 0 0 .522-.216.75.75 0 0 0 .217-.523Zm86.962 0a.74.74 0 0 0-1.262-.522.745.745 0 0 0-.16.805.738.738 0 0 0 .966.4.74.74 0 0 0 .456-.683Zm17.393 0a.741.741 0 0 0-1.262-.522.737.737 0 0 0 .112 1.137.74.74 0 0 0 1.15-.615Zm-52.178 0a.736.736 0 0 0-1.262-.522.745.745 0 0 0-.16.805.738.738 0 0 0 1.422-.283ZM357.79 1a.736.736 0 0 0-1.261-.522.74.74 0 1 0 1.261.522Zm17.393 0a.74.74 0 0 0-1.262-.522.737.737 0 0 0 .523 1.261.74.74 0 0 0 .739-.739Z" fill="#fff" opacity=".4"/><g opacity=".4" clip-path="url(#clip0_4_89)" fill="#8C909C"><path d="m355.014 700.429-152.067-87.797v1.965l148.922 85.981h3.404l-.259-.149Zm-19.824.149h-3.404l-128.839-74.387v-1.965l131.985 76.203.258.149Zm40.166 0h-3.403l-169.006-97.576v-1.965l172.151 99.392.258.149Zm60.25 0h-3.403L202.947 568.217v-1.965l232.401 134.177.258.149Zm-40.167 0h-3.403L202.947 591.406v-1.965l192.234 110.988.258.149Zm20.084 0h-3.404L202.947 579.812v-1.965l212.317 122.582.259.149ZM323.447 624.228l-120.5-69.571v1.965l120.5 69.57.087-.05 120.413-69.52v-1.965l-.086.05-120.414 69.521Zm120.414-81.117.086-.05v1.965l-120.413 69.521-.087.049-120.5-69.57v-1.965l120.5 69.571 120.414-69.521Zm0-23.19.086-.05v1.965l-120.413 69.52-.087.05-120.5-69.57v-1.965l120.5 69.571 120.414-69.521Zm0-23.191.086-.05v1.965l-120.413 69.522-.087.049-120.5-69.571v-1.965l120.5 69.571 120.414-69.521Zm0 11.596.086-.051v1.965l-120.413 69.522-.087.05-120.5-69.572v-1.965l120.5 69.572 120.414-69.521Zm0 23.19.086-.05v1.965l-120.413 69.521-.087.049-120.5-69.57v-1.965l120.5 69.571 120.414-69.521Z"/></g><g opacity=".4" clip-path="url(#clip1_4_89)" fill="#8C909C"><path d="M393.067 389.089 241 301.292v1.965l148.922 85.981h3.403l-.258-.149Zm-19.824.149h-3.404L241 314.851v-1.965l131.985 76.203.258.149Zm40.166 0h-3.404L241 291.662v-1.965l172.151 99.392.258.149Zm60.249 0h-3.403L241 256.877v-1.965l232.4 134.177.258.149Zm-40.166 0h-3.403L241 280.066v-1.965l192.234 110.988.258.149Zm20.083 0h-3.403L241 268.472v-1.965l212.317 122.582.258.149ZM361.5 312.888 241 243.317v1.965l120.5 69.57.087-.05L482 245.282v-1.965l-.087.05L361.5 312.888Zm120.413-81.116.087-.051v1.965l-120.413 69.521-.087.05L241 233.686v-1.965l120.5 69.572 120.413-69.521Zm0-23.191.087-.05v1.965l-120.413 69.52-.087.05-120.5-69.57v-1.965l120.5 69.571 120.413-69.521Zm0-23.191.087-.05v1.965l-120.413 69.522-.087.05L241 187.305v-1.965l120.5 69.571 120.413-69.521Zm0 11.596.087-.05v1.965l-120.413 69.521-.087.05L241 198.901v-1.965l120.5 69.571 120.413-69.521Zm0 23.19.087-.05v1.965l-120.413 69.521-.087.049-120.5-69.57v-1.965l120.5 69.571 120.413-69.521Z"/></g><g opacity=".4" clip-path="url(#clip2_4_89)" fill="#8C909C"><path d="M88.933 41.15 241 128.945v-1.965L92.078 41.001h-3.403l.258.148Zm19.824-.15h3.404L241 115.387v1.965L109.015 41.149l-.258-.149Zm-40.166 0h3.404L241 138.577v1.965L68.85 41.149 68.59 41Zm-60.25 0h3.404L241 173.361v1.965L8.6 41.15 8.342 41Zm40.167 0h3.403L241 150.172v1.965L48.766 41.15l-.258-.15Zm-20.083 0h3.403L241 161.766v1.965L28.683 41.15l-.258-.15ZM120.5 117.35 241 186.922v-1.965l-120.5-69.57-.087.049L0 184.957v1.965l.087-.051L120.5 117.35ZM.087 198.467l-.087.05v-1.965l120.413-69.521.087-.049 120.5 69.57v1.965l-120.5-69.571L.087 198.467Zm0 23.19-.087.05v-1.965l120.413-69.52.087-.05 120.5 69.57v1.965l-120.5-69.571L.087 221.657Zm0 23.191-.087.05v-1.965l120.413-69.522.087-.049L241 242.933v1.965l-120.5-69.571L.087 244.848Zm0-11.595-.087.05v-1.965l120.413-69.522.087-.049L241 231.338v1.965l-120.5-69.571L.087 233.253Zm0-23.191-.087.05v-1.965l120.413-69.52.087-.05 120.5 69.57v1.965l-120.5-69.571L.087 210.062Z"/></g><defs><clipPath id="clip0_4_89"><path fill="#fff" transform="translate(202.947 491.865)" d="M0 0h241v208.713H0z"/></clipPath><clipPath id="clip1_4_89"><path fill="#fff" transform="translate(241 180.525)" d="M0 0h241v208.713H0z"/></clipPath><clipPath id="clip2_4_89"><path fill="#fff" transform="rotate(180 120.5 124.857)" d="M0 0h241v208.713H0z"/></clipPath></defs></svg>