<svg width="394" height="394" viewBox="0 0 394 394" fill="none" xmlns="http://www.w3.org/2000/svg"><g opacity=".5" fill="#FEEC7B"><g clip-path="url(#a)"><path d="m284.346 236.649-90.807 157.28-.041.071h11.083l79.765-138.149 56.747 98.288.122.212v-19.197l-56.747-98.293-.122-.212Zm0 32.835-71.851 124.445-.041.071h11.083l60.809-105.319 56.747 98.288.122.212v-19.197l-56.747-98.288-.122-.212Zm0-65.665-109.763 190.11-.041.071h11.082l98.722-170.984 56.747 98.288.122.212v-19.197l-56.747-98.288-.122-.212ZM204.586 197h-11.083l-22.896 39.654v19.197l33.938-58.78.041-.071Zm-18.957 0h-11.083l-3.939 6.819v19.197l14.982-25.945.04-.071Zm37.913 0h-11.083l-41.852 72.484v19.197l52.894-91.61.041-.071Z"/></g><g clip-path="url(#b)"><path d="m142.176 305.101-62.375-108.03-.041-.071h11.087l51.329 88.899 28.432-49.25v19.202l-28.31 49.038-.122.212Zm0 32.83-81.331-140.86-.041-.071h11.082l70.29 121.734 28.432-49.25v19.197l-28.31 49.038-.122.212Zm0-65.665-43.419-75.195-.04-.071h11.082l32.377 56.069 28.432-49.25v19.197l-28.31 49.038-.122.212ZM90.847 394H79.765L0 255.846v-19.197l90.807 157.28.04.071Zm-18.956 0H60.808L0 288.681v-19.197l71.85 124.445.041.071Zm37.872-.071.041.071H98.721L0 223.016v-19.197l109.763 190.11ZM52.935 394H41.852L0 321.516v-19.197l52.894 91.61.04.071Zm-18.957 0H22.895L0 354.346v-19.197l33.938 58.78.04.071Zm-18.956 0H3.939L0 387.181v-19.197l14.981 25.945.04.071Z"/></g><g clip-path="url(#c)"><path d="m251.825 75.266-28.432 49.25v-19.197l28.432-49.25.122.212L333.196 197h-11.082L251.825 75.266Zm0 32.835-28.432 49.25v-19.202l28.432-49.25.122.212L314.24 197h-11.087l-51.328-88.899Zm0 32.83-28.432 49.25v-19.197l28.432-49.25.122.212L295.283 197h-11.082l-32.376-56.069ZM295.279 0 394 170.984v19.197l-.122-.212L284.196 0h11.083Zm18.956 0L394 138.154v19.197l-.122-.212L303.153 0h11.082Zm18.957 0L394 105.319v19.197l-.122-.212L322.109 0h11.083Z"/></g></g><defs><clipPath id="a"><path fill="#fff" transform="translate(170.607 197)" d="M0 0h170.608v197H0z"/></clipPath><clipPath id="b"><path fill="#fff" transform="translate(0 197)" d="M0 0h170.608v197H0z"/></clipPath><clipPath id="c"><path fill="#fff" transform="translate(223.393)" d="M0 0h170.608v197H0z"/></clipPath></defs></svg>