<svg width="284" height="36" viewBox="0 0 284 36" fill="none" xmlns="http://www.w3.org/2000/svg">
<path d="M14.4298 35C13.7314 34.8801 12.9943 34.8002 12.2959 34.6403C6.90301 33.5612 3.21721 30.3238 1.19973 25.088C0.578963 23.5293 0.268579 21.8507 0.113388 20.172C-0.235792 16.4551 0.190988 12.858 1.8205 9.50071C4.14836 4.66463 7.91175 1.58713 12.9943 0.428076C16.8352 -0.45121 20.5598 0.0284001 24.0904 1.82694C24.7112 2.14668 25.2932 2.06674 25.9139 2.10671C26.0303 2.10671 26.1079 2.10671 26.3019 2.10671C26.6511 5.02434 26.9615 7.90201 27.3106 10.8196C27.0003 10.8196 26.6511 10.8196 26.3407 10.8196C25.6035 8.86123 24.75 6.98275 23.4697 5.30412C21.8402 3.1059 19.7839 1.66707 17.1068 1.3873C14.5074 1.10752 12.1407 1.82694 10.1232 3.58551C7.75656 5.62386 6.55382 8.38162 5.81667 11.3792C5.1571 14.1769 5.00191 16.9746 5.2347 19.8123C5.50628 22.9698 6.35983 25.9673 8.33852 28.4453C10.2008 30.8034 12.6451 32.2422 15.6325 32.6819C20.0555 33.3613 25.0216 30.4037 26.7675 25.6476C26.8839 25.3678 26.9615 25.128 27.1167 24.8083C27.427 24.8882 27.7374 24.9681 28.0866 25.0481C28.0478 25.2479 28.009 25.4478 27.9702 25.6076C27.1943 28.0057 26.0303 30.124 24.2068 31.8426C22.6937 33.2414 20.909 34.1607 18.9303 34.6003C18.1932 34.7602 17.456 34.8401 16.7577 34.96C15.9041 35 15.1669 35 14.4298 35Z" transform="translate(83.1855)" fill="#092E6E"/>
<path d="M26.4213 23.7407C26.3825 23.9006 26.3437 24.0605 26.3049 24.2203C26.2661 25.6991 26.2273 27.138 26.1497 28.6168C26.1109 30.1355 26.0333 31.6543 25.9945 33.213C17.3426 33.213 8.69071 33.213 0.0387978 33.213C0.0387978 32.8933 0.0387978 32.5735 0.0387978 32.2138C0.543169 32.1739 1.08633 32.1339 1.6295 32.054C2.40545 31.8941 3.22021 31.7742 3.95737 31.4944C4.81092 31.1747 5.1989 30.4553 5.1989 29.496C5.1989 20.903 5.1989 12.31 5.1989 3.71698C5.1989 2.71779 4.77213 1.99838 3.84098 1.63867C3.10382 1.3589 2.28907 1.23899 1.51311 1.07912C1.04754 0.999189 0.543179 0.999189 9.47212e-06 0.959221C9.47212e-06 0.639481 9.47212e-06 0.359708 9.47212e-06 -1.9058e-08C4.84974 -1.9058e-08 9.69945 -1.9058e-08 14.588 -1.9058e-08C14.588 0.279773 14.588 0.599513 14.588 0.919253C13.618 1.03916 12.6481 1.15906 11.6781 1.3589C11.329 1.43883 10.9798 1.5987 10.6306 1.75857C9.89344 2.15825 9.73825 2.87766 9.66065 3.63705C9.66065 3.83688 9.66065 3.99675 9.66065 4.19659C9.66065 13.1094 9.66065 21.9821 9.66065 30.8949C9.66065 31.0947 9.66065 31.2946 9.66065 31.5344C9.85464 31.5344 10.0098 31.5744 10.1262 31.5744C12.1049 31.5744 14.1224 31.6543 16.1011 31.5344C18.3902 31.4145 20.5241 30.815 22.1148 28.9765C23.2399 27.6975 23.9383 26.1787 24.559 24.58C24.8306 23.9006 25.0634 23.1812 25.2962 22.5017C25.6841 22.5017 25.9945 22.5017 26.3437 22.5017C26.4213 22.9014 26.4213 23.341 26.4213 23.7407Z" transform="translate(257.579 0.907684)" fill="#092E6E"/>
<path d="M0 6.09856e-07C21.6492 6.09856e-07 43.2596 6.09856e-07 64.9087 6.09856e-07C64.9087 3.1974 64.9087 6.35484 64.9087 9.55224C43.2984 9.55224 21.688 9.55224 0 9.55224C0 6.39481 0 3.23737 0 6.09856e-07Z" transform="translate(0 24.5285)" fill="#092E6E"/>
<path d="M-4.73606e-06 33.2791C-4.73606e-06 32.8794 -4.73606e-06 32.5197 -4.73606e-06 32.16C0.737154 32.0401 1.43551 31.9602 2.13387 31.8003C2.44426 31.7204 2.75465 31.6005 3.06503 31.4806C3.95738 31.1208 4.34536 30.3615 4.34536 29.4422C4.34536 27.3239 4.34536 25.1657 4.34536 23.0474C4.34536 16.6926 4.34536 10.3377 4.34536 3.98289C4.34536 2.70393 3.91858 1.98451 2.75464 1.6248C1.90109 1.34503 0.969943 1.18516 0.0387954 0.985322C0.0387954 0.745517 0.0387954 0.425777 0.0387954 0.0261012C0.232785 0.0261012 0.465574 0.0261012 0.659563 0.0261012C5.3153 0.0261012 10.0098 -0.0538338 14.6656 0.0660688C18.6617 0.185971 22.3863 1.30506 25.5289 4.02286C27.8956 6.0612 29.3312 8.65909 30.0295 11.7366C30.5339 13.9748 30.6503 16.2529 30.3787 18.5311C29.9907 21.6086 29.0596 24.4862 27.2361 27.0042C25.2574 29.762 22.5803 31.4806 19.4377 32.4398C17.5366 33.0393 15.5579 33.2791 13.5792 33.2791C9.27267 33.2791 4.96612 33.2791 0.698363 33.2791C0.504374 33.2791 0.27158 33.2791 -4.73606e-06 33.2791ZM8.8847 31.6804C10.3202 31.6804 11.7169 31.7603 13.0749 31.6404C14.6656 31.5205 16.2563 31.4006 17.7694 31.0409C20.9508 30.2815 23.1623 28.3231 24.2098 25.0857C24.8694 23.0474 25.141 20.9691 25.2186 18.8508C25.2962 17.0123 25.1798 15.1738 25.141 13.3353C25.1022 11.7366 24.7918 10.2178 24.2874 8.73903C23.6667 6.70068 22.6191 4.98208 20.912 3.66315C18.8557 2.06445 16.4503 1.54487 13.9672 1.385C12.4153 1.30506 10.8634 1.34503 9.31147 1.34503C9.15628 1.34503 8.9623 1.385 8.8071 1.385C8.8847 11.4568 8.8847 21.5286 8.8847 31.6804Z" transform="translate(192.166 0.881592)" fill="#092E6E"/>
<path d="M31.3098 9.55224C20.8344 9.55224 10.4366 9.55224 0 9.55224C0 6.35484 0 3.1974 0 1.52464e-07C10.4366 1.52464e-07 20.8344 1.52464e-07 31.3098 1.52464e-07C31.3098 3.15744 31.3098 6.35484 31.3098 9.55224Z" transform="translate(0 12.6182)" fill="#092E6E"/>
<path d="M-5.92008e-07 9.55224C-5.92008e-07 6.35484 -5.92008e-07 3.1974 -5.92008e-07 1.52464e-07C10.4366 1.52464e-07 20.8344 1.52464e-07 31.271 1.52464e-07C31.271 3.15744 31.271 6.35484 31.271 9.55224C20.8732 9.55224 10.4754 9.55224 -5.92008e-07 9.55224Z" transform="translate(33.5989 12.6182)" fill="#092E6E"/>
<path d="M-9.47212e-06 33.253C-9.47212e-06 32.8933 -9.47212e-06 32.5735 -9.47212e-06 32.2938C1.04753 32.1339 2.05629 32.054 3.02624 31.8142C4.30657 31.5344 5.19892 30.9349 5.16012 29.0564C5.12132 20.7032 5.16012 12.35 5.16012 3.99675C5.16012 2.59789 4.65574 1.79854 3.33662 1.4788C2.25028 1.19903 1.12513 1.07912 -9.47212e-06 0.879286C-9.47212e-06 0.639481 -9.47212e-06 0.359708 -9.47212e-06 1.9058e-08C8.6907 1.9058e-08 17.3814 1.9058e-08 26.1885 1.9058e-08C26.1885 2.39805 26.1885 4.7961 26.1885 7.23412C25.9557 7.23412 25.6453 7.27409 25.2962 7.27409C25.0634 6.63461 24.8306 5.99513 24.559 5.39562C24.0935 4.31649 23.5503 3.23737 22.6191 2.47799C21.8432 1.83851 20.912 1.4788 19.9809 1.43883C16.5667 1.31893 13.1524 1.27896 9.69944 1.23899C9.69944 5.95516 9.69944 10.5514 9.69944 15.2676C10.7082 15.2676 11.7557 15.3076 12.7645 15.2676C13.5404 15.2276 14.3164 15.1877 15.0536 15.0278C16.4115 14.748 17.459 13.9087 18.041 12.6297C18.4678 11.6705 18.7782 10.6713 19.1273 9.71211C19.2049 9.51227 19.2437 9.3524 19.2825 9.1126C19.5929 9.1126 19.8645 9.1126 20.1361 9.1126C20.1361 13.6289 20.1361 18.1453 20.1361 22.7016C19.8645 22.7016 19.5929 22.7016 19.2825 22.7016C19.0885 22.0221 18.8945 21.3027 18.6229 20.6233C18.1962 19.4242 17.7306 18.2652 16.6055 17.5857C15.9847 17.226 15.2863 16.8663 14.588 16.7864C12.9585 16.6265 11.329 16.6265 9.66066 16.5865C9.66066 21.5825 9.66066 26.4985 9.66066 31.4944C9.85464 31.4944 10.0098 31.5344 10.2038 31.5344C13.4241 31.5344 16.6831 31.5744 19.9033 31.4944C21.494 31.4545 23.0847 31.1747 24.3262 30.0156C25.1798 29.2163 25.7229 28.1771 26.1885 27.098C26.4213 26.5784 26.6153 26.0189 26.8481 25.4194C27.1585 25.4593 27.4689 25.4593 27.8568 25.4993C27.7792 28.0972 27.7016 30.6151 27.5853 33.213C18.429 33.253 9.23387 33.253 -9.47212e-06 33.253Z" transform="translate(224.872 0.867706)" fill="#092E6E"/>
<path d="M20.718 21.4226C16.9934 21.4226 13.3076 21.4226 9.46667 21.4226C8.61311 24.0205 7.72076 26.6584 6.86721 29.2962C6.71202 29.7758 6.75082 30.3753 6.82842 30.9349C6.94481 31.6143 7.41038 32.0939 8.03114 32.3337C8.7295 32.6135 9.42786 32.7734 10.165 32.9732C10.2814 33.0132 10.4366 33.0532 10.5918 33.0532C10.5918 33.3729 10.5918 33.6926 10.5918 34.0124C7.0612 34.0124 3.5694 34.0124 2.36803e-06 34.0124C2.36803e-06 33.6926 2.36803e-06 33.3729 2.36803e-06 33.1731C0.814756 32.7734 1.62951 32.4536 2.36667 32.014C3.53061 31.2546 4.38415 30.1355 4.92732 28.8566C5.89726 26.6983 6.78961 24.4601 7.64316 22.2619C10.5142 14.9479 13.3077 7.6338 16.1399 0.31974C16.1787 0.199838 16.2175 0.119903 16.2951 1.19113e-09C16.7995 1.19113e-09 17.3426 1.19113e-09 17.8858 1.19113e-09C18.7006 2.27815 19.5153 4.5563 20.2913 6.83445C22.9295 14.2684 25.5678 21.7423 28.2448 29.1763C28.6328 30.2954 29.1372 31.4145 30.2235 32.014C30.9607 32.4137 31.7366 32.6935 32.5902 33.0532C32.5902 33.253 32.5902 33.6127 32.5902 34.0523C28.1672 34.0523 23.7443 34.0523 19.2825 34.0523C19.2825 33.7726 19.2825 33.4928 19.2825 33.1731C20.0973 33.0532 20.912 32.9333 21.7268 32.7734C21.8432 32.7334 21.9984 32.6935 22.1148 32.6535C23.4727 32.2138 23.9383 31.4145 23.5115 30.0156C22.8519 27.8574 22.1147 25.6991 21.4164 23.5809C21.1836 22.8215 20.9508 22.142 20.718 21.4226ZM20.2137 20.0237C18.623 15.3475 17.071 10.6713 15.5191 6.0351C15.4415 6.0351 15.4027 6.0351 15.3251 6.0351C13.5792 10.6713 11.8333 15.3475 10.0486 20.0237C13.5016 20.0237 16.7995 20.0237 20.2137 20.0237Z" transform="translate(158.14 0.0683899)" fill="#092E6E"/>
<path d="M27.8568 1.9058e-08C27.9732 2.43802 28.0508 4.7961 28.1672 7.23412C27.7792 7.23412 27.4689 7.23412 27.2361 7.23412C26.6153 6.11503 26.0721 4.95598 25.4126 3.91682C24.4814 2.43802 23.1235 1.55873 21.3776 1.43883C19.7093 1.31893 18.041 1.31893 16.2951 1.23899C16.2951 1.55873 16.2951 1.75857 16.2951 1.99838C16.2951 11.071 16.2951 20.1436 16.2951 29.2562C16.2951 30.4153 16.7607 31.1747 17.847 31.5344C18.623 31.7742 19.4377 31.8941 20.2525 32.054C20.7568 32.1339 21.2612 32.1739 21.8044 32.2138C21.8044 32.5336 21.8044 32.8533 21.8044 33.213C16.6831 33.213 11.5229 33.213 6.36284 33.213C6.36284 32.8933 6.36284 32.5736 6.36284 32.2138C6.86721 32.1739 7.41038 32.0939 7.95355 32.054C9.00109 31.9341 10.0098 31.8142 10.9022 31.2147C11.4842 30.8549 11.7557 30.3354 11.7557 29.6559C11.7557 28.0572 11.7557 26.4985 11.7557 24.8998C11.7557 17.3059 11.7557 9.71211 11.7557 2.11828C11.7557 1.87847 11.7557 1.63867 11.7557 1.31893C10.7858 1.31893 9.85465 1.27896 8.9623 1.31893C7.99235 1.3589 6.98361 1.3589 6.01366 1.51877C4.50055 1.75857 3.4142 2.71779 2.63825 4.03672C2.01748 5.07588 1.51311 6.19497 0.931145 7.31406C0.698358 7.31406 0.387978 7.31406 0 7.31406C0.0775956 4.87604 0.193994 2.47799 0.271589 0.0399675C9.50547 -2.08447e-08 18.6617 1.9058e-08 27.8568 1.9058e-08Z" transform="translate(132.883 0.867706)" fill="#092E6E"/>
<path d="M14.976 32.2138C14.976 32.5336 14.976 32.8533 14.976 33.213C10.0098 33.213 5.00492 33.213 0 33.213C0 32.8933 0 32.5336 0 32.2538C1.04754 32.0939 2.05628 31.974 3.10383 31.8142C3.41421 31.7742 3.72459 31.6543 3.99617 31.5344C4.69453 31.2146 5.16011 30.6551 5.1989 29.8158C5.1989 29.4561 5.2765 29.1363 5.2765 28.7766C5.2765 20.6632 5.2765 12.5498 5.2765 4.4364C5.2765 3.99675 5.2377 3.55711 5.1601 3.11747C5.04371 2.43802 4.65574 1.91844 4.03497 1.7186C3.22022 1.43883 2.36667 1.23899 1.55191 1.07912C1.04754 0.999189 0.543169 0.999189 0 0.959221C0 0.639481 0 0.359708 0 -1.9058e-08C4.96612 -1.9058e-08 9.93224 -1.9058e-08 14.976 -1.9058e-08C14.976 0.31974 14.976 0.599513 14.976 0.919253C13.9672 1.03916 12.9973 1.15906 12.0273 1.3589C11.4066 1.4788 10.747 1.67864 10.3202 2.23818C10.0874 2.55792 9.93224 2.99757 9.81584 3.43721C9.73825 3.79692 9.77705 4.15662 9.77705 4.51633C9.77705 12.5898 9.81585 20.7032 9.77705 28.7766C9.77705 30.8949 10.2426 31.5744 12.5317 31.9341C13.3464 32.014 14.1612 32.0939 14.976 32.2138Z" transform="translate(114.066 0.907684)" fill="#092E6E"/>
<path d="M-2.36803e-06 9.55224C-2.36803e-06 6.35484 -2.36803e-06 3.1974 -2.36803e-06 1.9058e-08C4.30656 1.9058e-08 8.61312 1.9058e-08 12.9585 1.9058e-08C12.9585 3.15744 12.9585 6.31487 12.9585 9.55224C8.65191 9.55224 4.34535 9.55224 -2.36803e-06 9.55224Z" transform="translate(51.9503 0.667908)" fill="#092E6E"/>
<path d="M12.9197 9.55224C8.61311 9.55224 4.34536 9.55224 0 9.55224C0 6.35484 0 3.1974 0 1.9058e-08C4.26776 1.9058e-08 8.57432 1.9058e-08 12.9197 1.9058e-08C12.9197 3.15744 12.9197 6.31487 12.9197 9.55224Z" transform="translate(0 0.667908)" fill="#092E6E"/>
<path d="M12.8421 1.9058e-08C12.8421 3.1974 12.8421 6.35484 12.8421 9.55224C8.53552 9.55224 4.26776 9.55224 -5.92008e-07 9.55224C-5.92008e-07 6.35484 -5.92008e-07 3.1974 -5.92008e-07 1.9058e-08C4.26776 1.9058e-08 8.53552 1.9058e-08 12.8421 1.9058e-08Z" transform="translate(26.0333 0.667908)" fill="#092E6E"/>
</svg>
