
<svg width="155px" height="48px" viewBox="460 399 155 48" version="1.1" xmlns="http://www.w3.org/2000/svg" xmlns:xlink="http://www.w3.org/1999/xlink">
    <desc>HashiCorp Consul</desc>
    <defs>
        <polygon id="path-1" points="5.37248241 25.3378046 5.37248241 0.648776721 1.01772158 0.648776721 1.01772158 25.3378046 5.37248241 25.3378046"></polygon>
        <polygon id="path-3" points="38.8349341 7.7377226e-05 0.000398916643 7.7377226e-05 0.000398916643 46.8650645 38.8349341 46.8650645 38.8349341 7.7377226e-05"></polygon>
    </defs>
    <g id="Group-3" stroke="none" stroke-width="1" fill="none" fill-rule="evenodd" transform="translate(460.000000, 399.000000)">
        <g id="Group-2" transform="translate(62.149421, 10.514255)">
            <path d="M0.483443453,9.01263583 C0.483443453,4.72754033 3.01832299,2.23492511 8.94370387,2.23492511 C11.1575824,2.23492511 13.4422869,2.51587813 15.4059903,3.00698401 L14.90564,6.83581181 C12.9784919,6.48405863 10.7292004,6.23794378 9.0864979,6.23794378 C5.98044226,6.23794378 4.98202643,7.29207952 4.98202643,9.78469474 L4.98202643,18.7763153 C4.98202643,21.2689305 5.98044226,22.3230662 9.0864979,22.3230662 C10.7292004,22.3230662 12.9784919,22.0769514 14.90564,21.726322 L15.4059903,25.554026 C13.4422869,26.0451319 11.1575824,26.3260849 8.94370387,26.3260849 C3.01832299,26.3260849 0.483443453,23.8334697 0.483443453,19.5483742 L0.483443453,9.01263583 Z" id="Fill-1" fill="#FFFFFF"></path>
            <path d="M25.0440158,12.1733573 C22.7238985,12.1733573 21.8305791,13.1915311 21.8305791,15.1233641 L21.8305791,19.7242508 C21.8305791,21.6560838 22.7238985,22.6742575 25.0440158,22.6742575 C27.3641332,22.6742575 28.2574526,21.6560838 28.2574526,19.7242508 L28.2574526,15.1233641 C28.2574526,13.1915311 27.3641332,12.1733573 25.0440158,12.1733573 M25.0440158,26.3266468 C19.0820797,26.3266468 17.4759325,23.0956871 17.4759325,19.5837743 L17.4759325,15.2638406 C17.4759325,11.7519278 19.0820797,8.52096804 25.0440158,8.52096804 C31.005952,8.52096804 32.6120992,11.7519278 32.6120992,15.2638406 L32.6120992,19.5837743 C32.6120992,23.0956871 31.005952,26.3266468 25.0440158,26.3266468" id="Fill-3" fill="#FFFFFF"></path>
            <path d="M45.8550456,25.9751184 L45.8550456,14.0346149 C45.8550456,13.1209557 45.4620764,12.664688 44.4625182,12.664688 C43.3921342,12.664688 41.4992566,13.2973942 39.9296647,14.1042913 L39.9296647,25.9751184 L35.5738757,25.9751184 L35.5738757,8.87182218 L38.8935512,8.87182218 L39.3219333,10.3114255 C41.4992566,9.25841354 44.2488984,8.52119281 46.2834277,8.52119281 C49.1747211,8.52119281 50.2108345,10.5227021 50.2108345,13.5783472 L50.2108345,25.9751184 L45.8550456,25.9751184 Z" id="Fill-5" fill="#FFFFFF"></path>
            <path d="M59.1706456,26.3263097 C57.3143232,26.3263097 54.7794437,25.9048801 53.1732965,25.3429741 L53.7798855,22.0771762 C55.2432387,22.4986057 57.1715292,22.8143969 58.9570257,22.8143969 C60.8841739,22.8143969 61.1697619,22.3929674 61.1697619,21.0938406 C61.1697619,20.0397048 60.9549997,19.5137608 58.1356745,18.8462164 C53.8872666,17.8280426 53.3880587,16.7739069 53.3880587,13.472147 C53.3880587,10.0310344 54.9222377,8.5206309 59.8846157,8.5206309 C61.4907629,8.5206309 63.5972604,8.73190757 65.0960265,9.11737512 L64.6676444,12.5247734 C63.3470852,12.2786585 61.2405878,12.0325437 59.8846157,12.0325437 C57.9928804,12.0325437 57.6718795,12.4539732 57.6718795,13.508109 C57.6718795,14.8769121 57.7781182,14.9825504 60.1347908,15.5792946 C64.9897877,16.8435833 65.4535827,17.4762895 65.4535827,20.9882022 C65.4535827,24.2899622 64.4186116,26.3263097 59.1706456,26.3263097" id="Fill-7" fill="#FFFFFF"></path>
            <path d="M72.664681,8.87215932 L72.664681,20.8126628 C72.664681,21.726322 73.0576501,22.1825897 74.0572083,22.1825897 C75.1275923,22.1825897 77.0204699,21.5498835 78.5900619,20.7429864 L78.5900619,8.87215932 L82.9458508,8.87215932 L82.9458508,25.9754555 L79.6261753,25.9754555 L79.1977932,24.5358523 C77.0204699,25.5888642 74.2708282,26.3260849 72.2362989,26.3260849 C69.3450055,26.3260849 68.308892,24.3245756 68.308892,21.2689305 L68.308892,8.87215932 L72.664681,8.87215932 Z" id="Fill-9" fill="#FFFFFF"></path>
            <g id="Group-13" transform="translate(85.676415, 0.637314)">
                <mask id="mask-2" fill="white">
                    <use xlink:href="#path-1"></use>
                </mask>
                <g id="Clip-12"></g>
                <polygon id="Fill-11" fill="#FFFFFF" mask="url(#mask-2)" points="1.01772158 25.3378046 1.01772158 1.24664475 5.37351053 0.648776721 5.37351053 25.3378046"></polygon>
            </g>
        </g>
        <g id="Group" transform="translate(0.462402, 0.399946)">
            <path d="M24.0715876,28.4294761 C21.184229,28.4294761 18.8497688,26.1855366 18.8497688,23.384481 C18.8497688,20.5841992 21.1634853,18.3209153 24.0524396,18.3209153 C26.9397983,18.3209153 29.2734606,20.5648549 29.2734606,23.3651367 C29.2934065,26.1661923 26.9589463,28.4194171 24.0715876,28.4294761" id="Fill-14" fill="#FFFFFF"></path>
            <path d="M34.2151602,25.7057204 C32.8827786,25.7057204 31.8112885,24.667318 31.8112885,23.3743446 C31.8112885,22.0821449 32.8827786,21.0437425 34.2151602,21.0437425 C35.5483396,21.0437425 36.6190319,22.0821449 36.6190319,23.3743446 C36.6190319,24.667318 35.5483396,25.7057204 34.2151602,25.7057204" id="Fill-16" fill="#FFFFFF"></path>
            <path d="M43.0107935,27.9035431 L43.0107935,27.9035431 C42.6884688,29.1493164 41.3800223,29.9006493 40.0947128,29.5880453 C38.8094034,29.2762151 38.0371008,28.0080024 38.3578298,26.7599077 C38.6793566,25.5141344 39.988601,24.764349 41.2731126,25.0754055 C42.4977867,25.3880095 43.2724828,26.5308711 43.0586635,27.7193853 C43.0347285,27.7766445 43.0347285,27.8339036 43.0107935,27.9035431" id="Fill-18" fill="#FFFFFF"></path>
            <path d="M41.3083768,21.8976776 C40.0238652,22.1870684 38.7146208,21.424129 38.4162312,20.1551425 C38.120235,18.9085953 38.9045051,17.6396088 40.2009842,17.3517656 C41.4870915,17.0623747 42.7955381,17.8237666 43.0931299,19.0927531 C43.1537652,19.4053571 43.1761045,19.7164136 43.1178627,20.0050306 C42.9862202,20.9173081 42.2944988,21.6903066 41.3083768,21.8976776" id="Fill-20" fill="#FFFFFF"></path>
            <path d="M49.8585966,27.6447163 C49.6439794,28.9144766 48.3834028,29.7679474 47.0749562,29.5373632 C45.7657118,29.3292185 44.8857017,28.1066583 45.1226582,26.8376718 C45.3372753,25.5679115 46.5986498,24.713667 47.9078942,24.9450249 C49.143738,25.1523958 50.0125784,26.2488311 49.9064666,27.4365715 C49.8825316,27.5069848 49.8585966,27.5634702 49.8585966,27.6447163" id="Fill-22" fill="#FFFFFF"></path>
            <path d="M47.9045433,21.7960813 C46.5952989,22.0034522 45.3586573,21.1499814 45.144838,19.8802212 C44.9302208,18.6104609 45.8110288,17.4111139 47.1202732,17.2029691 C48.4287198,16.9955982 49.6653614,17.8498428 49.8799785,19.119603 C49.9039135,19.326974 49.9278485,19.5111318 49.9039135,19.7185028 C49.8193432,20.7344657 48.9991706,21.6351367 47.9045433,21.7960813" id="Fill-24" fill="#FFFFFF"></path>
            <path d="M46.226301,35.7191072 L46.226301,35.7191072 C45.5593124,36.8387557 44.1088514,37.2426648 42.9416213,36.5965649 C41.7871566,35.9496913 41.3706876,34.5421996 42.0368784,33.4117183 C42.703867,32.2912961 44.1543279,31.887387 45.321558,32.5342606 C46.1536981,32.9954288 46.6068675,33.8844932 46.5238928,34.7619509 C46.5119253,35.0962205 46.4042178,35.407277 46.226301,35.7191072" id="Fill-26" fill="#FFFFFF"></path>
            <path d="M45.359136,14.296371 C44.2046712,14.9200315 42.741445,14.5277289 42.0752542,13.4080805 C41.4322006,12.2892058 41.836702,10.8685599 42.9911668,10.2224601 C44.1456316,9.59957341 45.6088578,9.99187595 46.2750486,11.1115244 C46.5383336,11.5502533 46.6197126,12.0005887 46.5726404,12.461757 C46.5024311,13.2115423 46.0739946,13.9040685 45.359136,14.296371" id="Fill-28" fill="#FFFFFF"></path>
            <mask id="mask-4" fill="white">
                <use xlink:href="#path-3"></use>
            </mask>
            <g id="Clip-31"></g>
            <path d="M24.1611843,46.8650645 C17.6939477,46.8650645 11.6224364,44.4315507 7.06521266,40.0117636 C2.50798893,35.5703108 0.000398916643,29.6842252 0.000398916643,23.4321453 C0.000398916643,17.161495 2.50878677,11.2730881 7.06521266,6.85330091 C11.6471692,2.43196621 17.7170848,0 24.1611843,0 C29.5234218,0 34.5968437,1.66438413 38.8349341,4.81286346 L35.8821531,8.5494097 C32.49934,6.0361974 28.4471447,4.70685666 24.1611843,4.70685666 C19.0079791,4.70685666 14.1547592,6.65134635 10.4935023,10.1843905 C6.857776,13.7120182 4.85361879,18.4196486 4.85361879,23.4321453 C4.85361879,28.4314879 6.85937167,33.1391184 10.5014806,36.6853166 C14.1380047,40.2129444 18.9904268,42.1582078 24.1611843,42.1582078 C28.4415599,42.1582078 32.494553,40.8288671 35.8837488,38.3141072 L38.8325406,42.0537486 C34.5896632,45.2006803 29.5170391,46.8650645 24.1611843,46.8650645" id="Fill-30" fill="#FFFFFF" mask="url(#mask-4)"></path>
        </g>
    </g>
</svg>
