<svg width="489" height="303" viewBox="0 0 489 303" fill="none" xmlns="http://www.w3.org/2000/svg">
<rect width="489" height="303" fill="black"/>
<g clip-path="url(#clip0)">
<path d="M91.3318 92.8792L267.915 195.043C268.01 195.097 268.089 195.176 268.144 195.271C268.198 195.365 268.227 195.473 268.227 195.582C268.227 195.691 268.198 195.799 268.144 195.893C268.089 195.988 268.01 196.067 267.915 196.121L191.048 240.508C190.796 240.653 190.51 240.73 190.218 240.73C189.927 240.73 189.641 240.653 189.389 240.508L11.1956 137.398C11.1008 137.344 11.0221 137.265 10.9674 137.171C10.9126 137.076 10.8838 136.968 10.8838 136.859C10.8838 136.75 10.9126 136.642 10.9674 136.548C11.0221 136.453 11.1008 136.374 11.1956 136.32L86.4535 92.8792C87.1951 92.451 88.0363 92.2256 88.8927 92.2256C89.749 92.2256 90.5902 92.451 91.3318 92.8792Z" fill="#151515" fill-opacity="0.65"/>
<path d="M395.418 154.829L218.826 256.967C218.732 257.022 218.653 257.1 218.598 257.195C218.543 257.29 218.515 257.397 218.515 257.506C218.515 257.616 218.543 257.723 218.598 257.818C218.653 257.913 218.732 257.991 218.826 258.046L295.71 302.432C295.961 302.583 296.248 302.662 296.54 302.662C296.832 302.662 297.119 302.583 297.37 302.432L475.546 199.323C475.641 199.268 475.72 199.19 475.774 199.095C475.829 199 475.858 198.893 475.858 198.784C475.858 198.674 475.829 198.567 475.774 198.472C475.72 198.377 475.641 198.299 475.546 198.244L400.297 154.829C399.556 154.396 398.715 154.168 397.857 154.168C397 154.168 396.158 154.396 395.418 154.829Z" fill="#151515" fill-opacity="0.65"/>
<path d="M295.816 97.7687L226.871 137.592C226.785 137.643 226.714 137.715 226.664 137.801C226.615 137.888 226.589 137.986 226.589 138.086C226.589 138.186 226.615 138.284 226.664 138.37C226.714 138.457 226.785 138.529 226.871 138.579L297.309 179.232C297.535 179.363 297.791 179.431 298.052 179.431C298.312 179.431 298.568 179.363 298.794 179.232L369.232 138.579C369.318 138.529 369.389 138.457 369.439 138.37C369.488 138.284 369.514 138.186 369.514 138.086C369.514 137.986 369.488 137.888 369.439 137.801C369.389 137.715 369.318 137.643 369.232 137.592L300.288 97.7687C299.607 97.3771 298.836 97.1709 298.052 97.1709C297.267 97.1709 296.496 97.3771 295.816 97.7687Z" fill="#151515" fill-opacity="0.65"/>
<path d="M187.87 35.0397L118.926 74.8631C118.84 74.9136 118.769 74.9858 118.719 75.0723C118.67 75.1589 118.644 75.257 118.644 75.3567C118.644 75.4565 118.67 75.5546 118.719 75.6411C118.769 75.7277 118.84 75.7999 118.926 75.8504L189.364 116.503C189.589 116.634 189.846 116.702 190.106 116.702C190.367 116.702 190.623 116.634 190.849 116.503L261.286 75.8504C261.372 75.7999 261.444 75.7277 261.493 75.6411C261.543 75.5546 261.569 75.4565 261.569 75.3567C261.569 75.257 261.543 75.1589 261.493 75.0723C261.444 74.9858 261.372 74.9136 261.286 74.8631L192.342 35.0397C191.662 34.6481 190.891 34.4419 190.106 34.4419C189.321 34.4419 188.55 34.6481 187.87 35.0397Z" fill="#151515" fill-opacity="0.65"/>
<path d="M404.511 125.389L215.665 234.397C215.469 234.513 215.307 234.678 215.194 234.876C215.081 235.073 215.021 235.297 215.021 235.525C215.021 235.753 215.081 235.977 215.194 236.175C215.307 236.372 215.469 236.537 215.665 236.653L296.739 283.454C297.135 283.683 297.584 283.803 298.041 283.803C298.499 283.803 298.948 283.683 299.344 283.454L488.19 174.429C488.386 174.313 488.548 174.148 488.661 173.951C488.774 173.753 488.833 173.529 488.833 173.301C488.833 173.073 488.774 172.849 488.661 172.652C488.548 172.454 488.386 172.289 488.19 172.173L407.116 125.389C406.72 125.16 406.271 125.04 405.813 125.04C405.356 125.04 404.907 125.16 404.511 125.389Z" fill="url(#paint0_linear)"/>
<path d="M281.881 241.2C281.605 241.376 281.392 241.583 281.256 241.807L275.304 251.584C275.15 251.837 275.096 252.106 275.147 252.372C275.198 252.638 275.352 252.894 275.598 253.121L285.11 261.872C285.329 262.073 285.616 262.247 285.954 262.384C286.292 262.52 286.675 262.616 287.079 262.665C287.177 262.677 287.276 262.687 287.376 262.693L305.188 263.83C305.649 263.86 306.116 263.829 306.554 263.74C306.992 263.651 307.39 263.506 307.719 263.316L320.418 255.982C320.747 255.792 320.998 255.562 321.152 255.31C321.307 255.057 321.361 254.787 321.31 254.521L319.336 244.24C319.285 243.973 319.13 243.717 318.884 243.491C318.638 243.264 318.306 243.073 317.914 242.931L302.751 237.442C302.359 237.3 301.916 237.211 301.455 237.181C300.994 237.152 300.527 237.183 300.089 237.272L283.155 240.71C282.667 240.81 282.229 240.978 281.881 241.2V241.2Z" fill="#326CE5"/>
<path d="M286.192 243.558C285.814 243.776 285.849 244.151 286.271 244.395C286.278 244.398 286.285 244.401 286.292 244.405C286.349 244.438 286.415 244.48 286.467 244.507C286.719 244.643 286.958 244.72 287.215 244.831C287.752 245.075 288.198 245.277 288.539 245.507C288.649 245.605 288.674 245.737 288.672 245.841L288.947 246.018C288.57 246.276 288.219 246.551 287.9 246.844C286.527 248.104 285.916 249.52 285.992 250.91C285.865 250.923 285.637 250.945 285.568 250.951C285.463 251.031 285.377 251.124 285.122 251.163C284.608 251.22 284.043 251.216 283.36 251.212C283.041 251.206 282.772 251.18 282.429 251.195C282.351 251.198 282.239 251.207 282.155 251.212C281.896 251.229 281.666 251.292 281.497 251.383C281.279 251.501 281.159 251.665 281.194 251.838C281.255 252.146 281.784 252.365 282.376 252.327C282.382 252.326 282.388 252.326 282.394 252.325C282.476 252.32 282.578 252.316 282.65 252.309C282.99 252.28 283.242 252.22 283.552 252.174C284.215 252.084 284.766 252.01 285.289 252.001C285.507 252.005 285.724 252.109 285.824 252.151L286.24 252.138C286.841 253.842 288.491 255.422 291.048 256.527L290.845 256.741C290.867 256.841 290.915 256.992 290.849 257.083C290.608 257.351 290.253 257.604 289.824 257.909C289.618 258.05 289.413 258.155 289.22 258.319C289.177 258.355 289.124 258.408 289.08 258.449C289.078 258.451 289.077 258.452 289.075 258.454C289.073 258.456 289.07 258.459 289.068 258.461C288.762 258.751 288.876 259.116 289.326 259.279C289.777 259.443 290.395 259.345 290.713 259.059C290.715 259.057 290.719 259.055 290.722 259.053C290.725 259.049 290.727 259.046 290.73 259.042C290.775 259.003 290.832 258.954 290.868 258.917C291.039 258.746 291.116 258.594 291.246 258.426C291.536 258.07 291.775 257.774 292.087 257.533C292.228 257.438 292.496 257.406 292.621 257.386L292.868 257.184C295.694 258.022 298.863 258.189 301.771 257.763L301.947 258.008C302.108 258.049 302.315 258.112 302.397 258.197C302.61 258.474 302.748 258.817 302.896 259.201C302.958 259.383 302.976 259.541 303.078 259.731C303.103 259.776 303.147 259.842 303.175 259.889C303.378 260.209 303.943 260.385 304.444 260.285C304.949 260.183 305.198 259.839 305.002 259.515C305.001 259.514 305.002 259.514 305.002 259.513C305.001 259.513 305 259.513 305 259.512C304.972 259.466 304.939 259.404 304.91 259.362C304.784 259.177 304.625 259.048 304.477 258.884C304.201 258.516 303.821 258.181 303.772 257.865C303.758 257.778 303.838 257.696 303.922 257.611L303.795 257.358C305.997 256.795 307.941 255.862 309.313 254.602C309.626 254.315 309.898 254.02 310.132 253.719C310.254 253.738 310.484 253.778 310.543 253.787C310.699 253.741 310.847 253.679 311.106 253.708C311.613 253.785 312.12 253.93 312.733 254.105C313.017 254.19 313.242 254.281 313.562 254.354C313.635 254.37 313.744 254.39 313.824 254.407C314.386 254.521 314.984 254.377 315.16 254.085C315.335 253.795 315.028 253.469 314.474 253.352C314.393 253.336 314.278 253.311 314.199 253.297C313.871 253.238 313.598 253.229 313.284 253.193C312.617 253.107 312.064 253.036 311.584 252.913C311.35 252.842 311.304 252.74 311.231 252.648C311.176 252.646 310.951 252.58 310.839 252.554C311.611 250.811 311.215 248.969 309.799 247.394C309.902 247.351 310.083 247.278 310.144 247.255C310.178 247.156 310.184 247.05 310.384 246.951C310.803 246.771 311.315 246.633 311.931 246.465C312.223 246.391 312.487 246.347 312.784 246.248C312.847 246.227 312.93 246.193 313 246.168C313.005 246.166 313.011 246.165 313.017 246.163C313.021 246.161 313.025 246.159 313.029 246.158C313.523 245.974 313.694 245.617 313.41 245.357C313.126 245.097 312.494 245.031 311.993 245.208C311.921 245.234 311.815 245.269 311.747 245.296C311.463 245.407 311.28 245.526 311.037 245.645C310.507 245.892 310.07 246.097 309.606 246.236C309.406 246.287 309.132 246.247 309.012 246.235L308.654 246.348C307.756 245.663 306.633 245.06 305.299 244.577C303.954 244.089 302.509 243.766 301.036 243.597C301.043 243.519 301.057 243.373 301.06 243.331C300.948 243.253 300.809 243.184 300.8 243.032C300.815 242.729 300.944 242.412 301.099 242.029C301.179 241.85 301.285 241.704 301.335 241.507C301.347 241.463 301.355 241.398 301.364 241.35C301.429 241.008 301.051 240.702 300.518 240.667C299.985 240.632 299.5 240.88 299.435 241.221C299.425 241.27 299.41 241.334 299.404 241.38C299.379 241.577 299.423 241.734 299.433 241.918C299.44 242.312 299.448 242.639 299.349 242.936C299.294 243.057 299.072 243.154 298.979 243.202L298.905 243.46C295.855 243.415 292.832 244.005 290.46 245.15C290.362 245.101 290.189 245.009 290.137 244.982C289.962 244.984 289.781 245.004 289.569 244.913C289.169 244.716 288.821 244.458 288.399 244.147C288.206 244 288.073 243.861 287.838 243.716C287.785 243.683 287.701 243.638 287.641 243.604C287.219 243.36 286.57 243.339 286.192 243.558L286.192 243.558ZM290.67 247.133L294.075 249.334L294.068 249.347C294.377 249.541 294.37 249.842 294.045 250.03C293.912 250.107 293.746 250.153 293.573 250.168L293.571 250.173L288.527 250.663C288.538 249.624 289.036 248.574 290.066 247.628C290.254 247.455 290.457 247.29 290.67 247.133ZM292.387 246.142C294.137 245.354 296.287 244.931 298.478 244.92L297.635 247.813L297.62 247.817C297.551 248.077 297.138 248.261 296.68 248.23C296.493 248.218 296.326 248.172 296.197 248.104L296.193 248.104L292.387 246.142ZM288.806 252.058L293.913 251.9L293.925 251.91C294.379 251.892 294.783 252.084 294.836 252.348C294.857 252.456 294.816 252.561 294.73 252.649L294.739 252.657L292.29 255.225C290.503 254.396 289.314 253.273 288.806 252.058ZM300.898 245.079C301.948 245.224 302.978 245.469 303.946 245.82C304.902 246.166 305.724 246.589 306.401 247.065L301.933 248.487L301.916 248.48C301.52 248.61 301.012 248.537 300.767 248.312C300.666 248.219 300.625 248.116 300.636 248.015L300.628 248.012L300.898 245.079L300.898 245.079ZM296.912 250.384L298.015 249.748L299.559 249.849L300.386 250.61L299.875 251.457L298.403 251.753L297.084 251.276L296.912 250.384ZM303.388 250.043C303.433 250.015 303.483 249.99 303.537 249.969L303.536 249.961L307.708 248.252C308.659 249.403 308.936 250.717 308.455 251.98L303.712 250.84L303.711 250.834C303.287 250.736 303.066 250.462 303.217 250.211C303.256 250.147 303.314 250.09 303.388 250.043L303.388 250.043ZM297.413 253.51C297.689 253.355 298.122 253.323 298.464 253.448C298.624 253.506 298.738 253.589 298.804 253.683L298.827 253.684L300.782 256.395C298.676 256.657 296.42 256.533 294.358 255.972L297.291 253.583L297.304 253.584C297.337 253.557 297.373 253.532 297.413 253.51L297.413 253.51ZM301.856 252.626C301.948 252.569 302.063 252.525 302.199 252.498C302.377 252.462 302.561 252.461 302.728 252.491L302.742 252.483L307.648 253.303C307.498 253.478 307.33 253.65 307.147 253.818C306.118 254.763 304.697 255.477 303.082 255.934L301.663 253.108L301.666 253.106C301.574 252.933 301.655 252.751 301.856 252.626Z" fill="white" stroke="white" stroke-width="0.219373"/>
<path d="M281.881 241.2C281.605 241.376 281.392 241.583 281.256 241.807L275.304 251.584C275.15 251.837 275.096 252.106 275.147 252.372C275.198 252.638 275.352 252.894 275.598 253.121L285.11 261.872C285.329 262.073 285.616 262.247 285.954 262.384C286.292 262.52 286.675 262.616 287.079 262.665C287.177 262.677 287.276 262.687 287.376 262.693L305.188 263.83C305.649 263.86 306.116 263.829 306.554 263.74C306.992 263.651 307.39 263.506 307.719 263.316L320.418 255.982C320.747 255.792 320.998 255.562 321.152 255.31C321.307 255.057 321.361 254.787 321.31 254.521L319.336 244.24C319.285 243.973 319.13 243.717 318.884 243.491C318.638 243.264 318.306 243.073 317.914 242.931L302.751 237.442C302.359 237.3 301.916 237.211 301.455 237.181C300.994 237.152 300.527 237.183 300.089 237.272L283.155 240.71C282.667 240.81 282.229 240.978 281.881 241.2V241.2Z" fill="#326CE5"/>
<path d="M286.192 243.558C285.814 243.776 285.849 244.151 286.271 244.395C286.278 244.398 286.285 244.401 286.292 244.405C286.349 244.438 286.415 244.48 286.467 244.507C286.719 244.643 286.958 244.72 287.215 244.831C287.752 245.075 288.198 245.277 288.539 245.507C288.649 245.605 288.674 245.737 288.672 245.841L288.947 246.018C288.57 246.276 288.219 246.551 287.9 246.844C286.527 248.104 285.916 249.52 285.992 250.91C285.865 250.923 285.637 250.945 285.568 250.951C285.463 251.031 285.377 251.124 285.122 251.163C284.608 251.22 284.043 251.216 283.36 251.212C283.041 251.206 282.772 251.18 282.429 251.195C282.351 251.198 282.239 251.207 282.155 251.212C281.896 251.229 281.666 251.292 281.497 251.383C281.279 251.501 281.159 251.665 281.194 251.838C281.255 252.146 281.784 252.365 282.376 252.327C282.382 252.326 282.388 252.326 282.394 252.325C282.476 252.32 282.578 252.316 282.65 252.309C282.99 252.28 283.242 252.22 283.552 252.174C284.215 252.084 284.766 252.01 285.289 252.001C285.507 252.005 285.724 252.109 285.824 252.151L286.24 252.138C286.841 253.842 288.491 255.422 291.048 256.527L290.845 256.741C290.867 256.841 290.915 256.992 290.849 257.083C290.608 257.351 290.253 257.604 289.824 257.909C289.618 258.05 289.413 258.155 289.22 258.319C289.177 258.355 289.124 258.408 289.08 258.449C289.078 258.451 289.077 258.452 289.075 258.454C289.073 258.456 289.07 258.459 289.068 258.461C288.762 258.751 288.876 259.116 289.326 259.279C289.777 259.443 290.395 259.345 290.713 259.059C290.715 259.057 290.719 259.055 290.722 259.053C290.725 259.049 290.727 259.046 290.73 259.042C290.775 259.003 290.832 258.954 290.868 258.917C291.039 258.746 291.116 258.594 291.246 258.426C291.536 258.07 291.775 257.774 292.087 257.533C292.228 257.438 292.496 257.406 292.621 257.386L292.868 257.184C295.694 258.022 298.863 258.189 301.771 257.763L301.947 258.008C302.108 258.049 302.315 258.112 302.397 258.197C302.61 258.474 302.748 258.817 302.896 259.201C302.958 259.383 302.976 259.541 303.078 259.731C303.103 259.776 303.147 259.842 303.175 259.889C303.378 260.209 303.943 260.385 304.444 260.285C304.949 260.183 305.198 259.839 305.002 259.515C305.001 259.514 305.002 259.514 305.002 259.513C305.001 259.513 305 259.513 305 259.512C304.972 259.466 304.939 259.404 304.91 259.362C304.784 259.177 304.625 259.048 304.477 258.884C304.201 258.516 303.821 258.181 303.772 257.865C303.758 257.778 303.838 257.696 303.922 257.611L303.795 257.358C305.997 256.795 307.941 255.862 309.313 254.602C309.626 254.315 309.898 254.02 310.132 253.719C310.254 253.738 310.484 253.778 310.543 253.787C310.699 253.741 310.847 253.679 311.106 253.708C311.613 253.785 312.12 253.93 312.733 254.105C313.017 254.19 313.242 254.281 313.562 254.354C313.635 254.37 313.744 254.39 313.824 254.407C314.386 254.521 314.984 254.377 315.16 254.085C315.335 253.795 315.028 253.469 314.474 253.352C314.393 253.336 314.278 253.311 314.199 253.297C313.871 253.238 313.598 253.229 313.284 253.193C312.617 253.107 312.064 253.036 311.584 252.913C311.35 252.842 311.304 252.74 311.231 252.648C311.176 252.646 310.951 252.58 310.839 252.554C311.611 250.811 311.215 248.969 309.799 247.394C309.902 247.351 310.083 247.278 310.144 247.255C310.178 247.156 310.184 247.05 310.384 246.951C310.803 246.771 311.315 246.633 311.931 246.465C312.223 246.391 312.487 246.347 312.784 246.248C312.847 246.227 312.93 246.193 313 246.168C313.005 246.166 313.011 246.165 313.017 246.163C313.021 246.161 313.025 246.159 313.029 246.158C313.523 245.974 313.694 245.617 313.41 245.357C313.126 245.097 312.494 245.031 311.993 245.208C311.921 245.234 311.815 245.269 311.747 245.296C311.463 245.407 311.28 245.526 311.037 245.645C310.507 245.892 310.07 246.097 309.606 246.236C309.406 246.287 309.132 246.247 309.012 246.235L308.654 246.348C307.756 245.663 306.633 245.06 305.299 244.577C303.954 244.089 302.509 243.766 301.036 243.597C301.043 243.519 301.057 243.373 301.06 243.331C300.948 243.253 300.809 243.184 300.8 243.032C300.815 242.729 300.944 242.412 301.099 242.029C301.179 241.85 301.285 241.704 301.335 241.507C301.347 241.463 301.355 241.398 301.364 241.35C301.429 241.008 301.051 240.702 300.518 240.667C299.985 240.632 299.5 240.88 299.435 241.221C299.425 241.27 299.41 241.334 299.404 241.38C299.379 241.577 299.423 241.734 299.433 241.918C299.44 242.312 299.448 242.639 299.349 242.936C299.294 243.057 299.072 243.154 298.979 243.202L298.905 243.46C295.855 243.415 292.832 244.005 290.46 245.15C290.362 245.101 290.189 245.009 290.137 244.982C289.962 244.984 289.781 245.004 289.569 244.913C289.169 244.716 288.821 244.458 288.399 244.147C288.206 244 288.073 243.861 287.838 243.716C287.785 243.683 287.701 243.638 287.641 243.604C287.219 243.36 286.57 243.339 286.192 243.558L286.192 243.558ZM290.67 247.133L294.075 249.334L294.068 249.347C294.377 249.541 294.37 249.842 294.045 250.03C293.912 250.107 293.746 250.153 293.573 250.168L293.571 250.173L288.527 250.663C288.538 249.624 289.036 248.574 290.066 247.628C290.254 247.455 290.457 247.29 290.67 247.133ZM292.387 246.142C294.137 245.354 296.287 244.931 298.478 244.92L297.635 247.813L297.62 247.817C297.551 248.077 297.138 248.261 296.68 248.23C296.493 248.218 296.326 248.172 296.197 248.104L296.193 248.104L292.387 246.142ZM288.806 252.058L293.913 251.9L293.925 251.91C294.379 251.892 294.783 252.084 294.836 252.348C294.857 252.456 294.816 252.561 294.73 252.649L294.739 252.657L292.29 255.225C290.503 254.396 289.314 253.273 288.806 252.058ZM300.898 245.079C301.948 245.224 302.978 245.469 303.946 245.82C304.902 246.166 305.724 246.589 306.401 247.065L301.933 248.487L301.916 248.48C301.52 248.61 301.012 248.537 300.767 248.312C300.666 248.219 300.625 248.116 300.636 248.015L300.628 248.012L300.898 245.079L300.898 245.079ZM296.912 250.384L298.015 249.748L299.559 249.849L300.386 250.61L299.875 251.457L298.403 251.753L297.084 251.276L296.912 250.384ZM303.388 250.043C303.433 250.015 303.483 249.99 303.537 249.969L303.536 249.961L307.708 248.252C308.659 249.403 308.936 250.717 308.455 251.98L303.712 250.84L303.711 250.834C303.287 250.736 303.066 250.462 303.217 250.211C303.256 250.147 303.314 250.09 303.388 250.043L303.388 250.043ZM297.413 253.51C297.689 253.355 298.122 253.323 298.464 253.448C298.624 253.506 298.738 253.589 298.804 253.683L298.827 253.684L300.782 256.395C298.676 256.657 296.42 256.533 294.358 255.972L297.291 253.583L297.304 253.584C297.337 253.557 297.373 253.532 297.413 253.51L297.413 253.51ZM301.856 252.626C301.948 252.569 302.063 252.525 302.199 252.498C302.377 252.462 302.561 252.461 302.728 252.491L302.742 252.483L307.648 253.303C307.498 253.478 307.33 253.65 307.147 253.818C306.118 254.763 304.697 255.477 303.082 255.934L301.663 253.108L301.666 253.106C301.574 252.933 301.655 252.751 301.856 252.626Z" fill="white" stroke="white" stroke-width="0.219373"/>
<path d="M488.835 172.927C488.838 173.156 488.779 173.381 488.665 173.579C488.551 173.778 488.387 173.942 488.188 174.056L299.343 283.08C298.946 283.308 298.497 283.428 298.04 283.429V290.373C298.497 290.372 298.946 290.252 299.343 290.025L488.188 181C488.385 180.884 488.548 180.719 488.662 180.522C488.775 180.324 488.835 180.1 488.835 179.871V172.927Z" fill="black"/>
<path d="M296.738 283.08L215.664 236.279C215.465 236.166 215.301 236.001 215.187 235.803C215.073 235.605 215.014 235.379 215.017 235.151V242.095C215.017 242.323 215.077 242.547 215.19 242.745C215.304 242.943 215.467 243.108 215.664 243.223L296.738 290.024C297.133 290.254 297.583 290.374 298.04 290.373V283.428C297.583 283.43 297.133 283.31 296.738 283.08Z" fill="#2A2B2D"/>
<path d="M296.754 63.3269L215.68 110.128C215.482 110.242 215.317 110.406 215.203 110.604C215.089 110.803 215.028 111.027 215.028 111.256C215.028 111.485 215.089 111.709 215.203 111.908C215.317 112.106 215.482 112.27 215.68 112.384L296.754 159.193C297.149 159.421 297.596 159.541 298.052 159.541C298.508 159.541 298.956 159.421 299.351 159.193L380.424 112.384C380.623 112.271 380.788 112.108 380.902 111.91C381.017 111.713 381.077 111.488 381.077 111.26C381.077 111.032 381.017 110.808 380.902 110.61C380.788 110.413 380.623 110.249 380.424 110.136L299.351 63.3269C298.956 63.099 298.508 62.979 298.052 62.979C297.596 62.979 297.149 63.099 296.754 63.3269Z" fill="url(#paint1_linear)"/>
<g clip-path="url(#clip1)">
<path d="M282.646 130.6L290.292 126.185L297.938 130.6L290.292 135.014L282.646 130.6Z" fill="#F35325"/>
<path d="M291.057 125.744L298.703 121.33L306.349 125.744L298.703 130.158L291.057 125.744Z" fill="#81BC06"/>
<path d="M291.057 135.455L298.703 131.041L306.349 135.455L298.703 139.869L291.057 135.455Z" fill="#05A6F0"/>
<path d="M299.468 130.6L307.114 126.185L314.76 130.6L307.114 135.014L299.468 130.6Z" fill="#FFBA08"/>
</g>
<path d="M381.055 111.256C381.057 111.484 380.998 111.71 380.884 111.908C380.771 112.106 380.606 112.271 380.408 112.384L299.334 159.193C298.938 159.423 298.489 159.543 298.031 159.542V166.478C298.489 166.479 298.938 166.359 299.334 166.129L380.408 119.328C380.605 119.214 380.77 119.05 380.883 118.851C380.997 118.653 381.056 118.429 381.055 118.2V111.256Z" fill="black"/>
<path d="M296.754 159.193L215.68 112.384C215.482 112.271 215.317 112.106 215.204 111.908C215.09 111.71 215.031 111.484 215.033 111.256V118.2C215.032 118.429 215.091 118.653 215.205 118.851C215.318 119.05 215.483 119.214 215.68 119.328L296.754 166.129C297.147 166.358 297.594 166.478 298.048 166.478V159.542C297.594 159.542 297.147 159.422 296.754 159.193Z" fill="#2A2B2D"/>
<path d="M84.3306 63.3197L272.662 172.162C272.858 172.278 273.021 172.443 273.133 172.641C273.246 172.839 273.306 173.062 273.306 173.29C273.306 173.518 273.246 173.742 273.133 173.94C273.021 174.138 272.858 174.303 272.662 174.419L191.588 221.228C191.192 221.456 190.743 221.577 190.286 221.577C189.828 221.577 189.379 221.456 188.983 221.228L0.651762 112.385C0.453616 112.271 0.289065 112.107 0.174651 111.909C0.0602366 111.711 0 111.486 0 111.257C0 111.028 0.0602366 110.804 0.174651 110.606C0.289065 110.407 0.453616 110.243 0.651762 110.129L81.7172 63.3197C82.1142 63.0895 82.565 62.9683 83.0239 62.9683C83.4828 62.9683 83.9336 63.0895 84.3306 63.3197Z" fill="url(#paint2_linear)"/>
<path d="M181.479 189.526C181.845 189.737 182.181 189.886 182.468 189.972C182.764 190.052 183.1 190.132 183.494 190.202C183.623 190.219 183.721 190.253 183.791 190.293C183.89 190.35 183.93 190.441 183.901 190.572L183.697 191.17C183.668 191.255 183.609 191.323 183.531 191.369C183.433 191.425 183.285 191.453 183.098 191.459C182.812 191.452 182.535 191.429 182.279 191.395C182.012 191.354 181.726 191.302 181.39 191.233C181.534 192.201 181.026 193.02 179.867 193.689C179.041 194.166 178.145 194.409 177.189 194.413C176.233 194.417 175.354 194.193 174.562 193.736C173.721 193.251 173.334 192.686 173.419 192.043C173.504 191.4 174.042 190.792 175.054 190.208C175.389 190.015 175.762 189.834 176.175 189.652C176.588 189.471 177.041 189.301 177.523 189.125L176.801 188.709C176.049 188.274 175.367 188.063 174.756 188.061C174.135 188.066 173.456 188.287 172.699 188.723C172.355 188.922 172.041 189.149 171.766 189.41C171.492 189.672 171.247 189.939 171.042 190.217C170.954 190.348 170.875 190.439 170.826 190.49C170.777 190.541 170.738 190.575 170.699 190.598C170.561 190.677 170.393 190.66 170.186 190.54L169.701 190.26C169.543 190.169 169.443 190.089 169.423 190.02C169.403 189.952 169.422 189.861 169.491 189.742C169.657 189.44 169.921 189.116 170.284 188.77C170.637 188.418 171.088 188.088 171.629 187.776C172.798 187.101 173.92 186.762 175.005 186.753C176.079 186.749 177.166 187.059 178.254 187.687L181.459 189.537L181.479 189.526ZM178.993 192.697C179.317 192.51 179.592 192.283 179.827 192.01C180.062 191.737 180.159 191.43 180.128 191.106C180.097 190.906 180.007 190.718 179.829 190.547C179.65 190.376 179.402 190.188 179.066 189.994L178.651 189.754C178.296 189.878 177.932 190.02 177.578 190.179C177.224 190.337 176.9 190.502 176.595 190.678C175.937 191.058 175.584 191.41 175.527 191.751C175.47 192.093 175.688 192.401 176.183 192.686C176.648 192.955 177.112 193.086 177.595 193.082C178.079 193.088 178.541 192.958 178.993 192.697ZM187.952 188.759C187.776 188.861 187.628 188.912 187.48 188.917C187.342 188.928 187.135 188.888 186.888 188.814L176.931 185.732C176.674 185.652 176.516 185.594 176.447 185.554C176.289 185.463 176.278 185.366 176.435 185.276L177.399 184.72C177.585 184.612 177.743 184.555 177.881 184.555C178.019 184.544 178.216 184.59 178.463 184.665L186.663 187.493L181.647 182.827C181.498 182.684 181.428 182.576 181.448 182.496C181.467 182.417 181.565 182.314 181.742 182.212L182.528 181.758C182.715 181.651 182.872 181.594 183.02 181.589C183.158 181.577 183.365 181.618 183.593 181.703L191.774 184.634L186.845 179.826C186.706 179.677 186.646 179.564 186.656 179.49C186.675 179.41 186.763 179.313 186.94 179.211L187.854 178.684C188.011 178.593 188.179 178.587 188.347 178.685C188.397 178.713 188.436 178.747 188.486 178.787C188.535 178.827 188.595 178.884 188.664 178.97L193.944 184.752C194.082 184.9 194.142 185.014 194.123 185.094C194.104 185.173 194.016 185.27 193.849 185.366L193.003 185.854C192.817 185.962 192.659 186.019 192.511 186.024C192.364 186.029 192.166 185.995 191.929 185.903L184.025 183.099L188.883 187.651C189.031 187.793 189.101 187.902 189.092 187.987C189.082 188.072 188.974 188.169 188.798 188.271L187.952 188.759ZM200.847 181.623C200.336 181.918 199.765 182.179 199.155 182.394C198.545 182.609 198.034 182.756 197.63 182.818C197.383 182.857 197.176 182.863 197.048 182.834C196.92 182.805 196.801 182.76 196.712 182.708L196.207 182.417C196 182.297 195.979 182.194 196.127 182.109C196.186 182.075 196.255 182.047 196.333 182.024C196.412 182.002 196.54 181.973 196.678 181.94C197.16 181.832 197.643 181.691 198.105 181.515C198.577 181.334 199 181.136 199.393 180.909C200.012 180.552 200.385 180.211 200.501 179.892C200.618 179.574 200.478 179.289 200.073 179.055C199.796 178.895 199.48 178.814 199.115 178.808C198.75 178.802 198.248 178.897 197.608 179.084L195.738 179.65C194.793 179.932 193.926 180.044 193.156 179.975C192.397 179.911 191.745 179.727 191.23 179.43C190.815 179.19 190.537 178.928 190.398 178.643C190.258 178.358 190.217 178.062 190.294 177.766C190.361 177.465 190.527 177.175 190.801 176.879C191.076 176.584 191.439 176.317 191.871 176.067C192.088 175.943 192.324 175.818 192.569 175.71C192.825 175.597 193.071 175.501 193.317 175.404C193.563 175.319 193.799 175.24 194.035 175.172C194.272 175.104 194.469 175.059 194.626 175.037C194.843 175.003 195.02 174.992 195.168 175.009C195.306 175.021 195.445 175.067 195.583 175.147L196.048 175.415C196.256 175.535 196.286 175.643 196.139 175.728C196.06 175.774 195.893 175.825 195.647 175.876C194.829 176.05 194.072 176.339 193.374 176.742C192.814 177.065 192.461 177.372 192.344 177.656C192.227 177.941 192.357 178.197 192.763 178.431C193.04 178.591 193.375 178.672 193.76 178.667C194.145 178.662 194.696 178.56 195.385 178.357L197.226 177.808C198.161 177.531 198.988 177.419 199.699 177.477C200.409 177.536 201.021 177.719 201.536 178.016C201.961 178.261 202.258 178.535 202.428 178.826C202.587 179.122 202.648 179.43 202.581 179.743C202.524 180.061 202.338 180.374 202.044 180.692C201.741 181.027 201.348 181.334 200.847 181.623Z" fill="white"/>
<path fill-rule="evenodd" clip-rule="evenodd" d="M207.513 183.326C206.684 186.581 203.263 190.029 199.224 192.361C193.564 195.628 186.357 197.356 179.002 197.558C178.421 197.574 178.32 197.198 178.901 197.114C185.501 196.113 192.115 193.998 197.431 190.929C201.018 188.858 204.206 186.149 206.289 183.165C206.582 182.71 207.647 182.792 207.513 183.326Z" fill="#FF9900"/>
<path fill-rule="evenodd" clip-rule="evenodd" d="M207.315 181.658C206.368 181.588 204.326 183.087 203.403 183.768C203.128 183.973 202.802 183.841 202.879 183.557C203.421 181.736 206.833 180.2 207.622 180.247C208.421 180.3 211.026 182.326 210.761 184.17C210.723 184.454 210.349 184.533 210.17 184.294C209.583 183.501 208.252 181.723 207.315 181.658Z" fill="#FF9900"/>
<path d="M0.00494288 111.257C0.00271644 111.486 0.062419 111.712 0.177758 111.911C0.293097 112.11 0.459816 112.273 0.660376 112.385L188.992 221.227C189.388 221.455 189.837 221.575 190.294 221.576V228.512C189.837 228.511 189.388 228.391 188.992 228.163L0.660376 119.329C0.461549 119.216 0.296251 119.051 0.181176 118.853C0.0661009 118.655 0.00531288 118.43 0.00494288 118.201V111.257Z" fill="#2A2B2D"/>
<path d="M191.589 222.227L272.662 175.418C272.861 175.305 273.025 175.14 273.139 174.942C273.253 174.744 273.312 174.519 273.31 174.29V181.234C273.309 181.462 273.249 181.686 273.136 181.884C273.022 182.082 272.859 182.247 272.662 182.363L191.589 229.163C191.193 229.393 190.744 229.513 190.286 229.512V222.576C190.744 222.577 191.193 222.457 191.589 222.227Z" fill="black"/>
<path d="M188.987 0.347909L107.913 47.1487C107.715 47.2629 107.551 47.4274 107.436 47.6255C107.322 47.8235 107.262 48.0483 107.262 48.277C107.262 48.5057 107.322 48.7304 107.436 48.9285C107.551 49.1266 107.715 49.291 107.913 49.4053L188.979 96.2144C189.375 96.443 189.824 96.5634 190.281 96.5634C190.739 96.5634 191.188 96.443 191.584 96.2144L272.658 49.4053C272.854 49.2905 273.017 49.1263 273.13 48.9291C273.243 48.7319 273.302 48.5085 273.302 48.2811C273.302 48.0538 273.243 47.8304 273.13 47.6332C273.017 47.436 272.854 47.2718 272.658 47.157L191.584 0.347909C191.189 0.11999 190.741 0 190.286 0C189.83 0 189.382 0.11999 188.987 0.347909Z" fill="url(#paint3_linear)"/>
<path d="M186.715 82.3646C186.196 82.371 185.684 82.2423 185.23 81.9913L182.6 80.473C182.37 80.3722 182.171 80.211 182.025 80.0065C181.879 79.8021 181.791 79.5619 181.771 79.3115C181.777 79.1021 181.839 78.8983 181.952 78.7216C182.064 78.5448 182.222 78.4018 182.409 78.3076L194.307 71.4381C194.73 71.2381 195.194 71.1421 195.662 71.1579C196.129 71.1738 196.586 71.3012 196.995 71.5294L199.625 73.0476C199.855 73.1485 200.053 73.3097 200.199 73.5141C200.345 73.7186 200.434 73.9587 200.454 74.2091C200.448 74.4185 200.386 74.6224 200.273 74.7991C200.161 74.9758 200.003 75.1188 199.815 75.213L187.918 82.0826C187.549 82.2793 187.134 82.3765 186.715 82.3646ZM195.543 72.218C195.311 72.2092 195.08 72.2577 194.871 72.359L182.974 79.2285C182.931 79.2506 182.894 79.2818 182.866 79.3198C182.932 79.4198 183.023 79.5 183.131 79.5521L185.761 81.0704C186.013 81.2109 186.293 81.2922 186.58 81.308C186.868 81.3238 187.155 81.2737 187.42 81.1616L199.318 74.2921C199.36 74.27 199.397 74.2388 199.426 74.2008C199.36 74.1009 199.268 74.0206 199.16 73.9685L196.53 72.4503C196.227 72.2886 195.886 72.2085 195.543 72.218Z" fill="white"/>
<path d="M185.811 79.8286C186.292 79.8286 186.682 79.602 186.682 79.3225C186.682 79.043 186.292 78.8164 185.811 78.8164C185.329 78.8164 184.939 79.043 184.939 79.3225C184.939 79.602 185.329 79.8286 185.811 79.8286Z" fill="white"/>
<path d="M195.377 74.1532L192.49 75.8125C192.36 75.8727 192.218 75.9038 192.075 75.9038C191.932 75.9038 191.79 75.8727 191.66 75.8125C191.411 75.6631 191.378 75.4391 191.602 75.3147L194.489 73.6554C194.618 73.5917 194.76 73.5586 194.904 73.5586C195.048 73.5586 195.19 73.5917 195.319 73.6554C195.568 73.8047 195.601 74.0287 195.377 74.1532Z" fill="white"/>
<path d="M188.956 84.0674C188.862 84.0666 188.77 84.0417 188.689 83.9952C188.607 83.9488 188.539 83.8822 188.491 83.8019C188.456 83.741 188.433 83.6737 188.423 83.6039C188.414 83.534 188.419 83.4631 188.438 83.3951C188.456 83.3272 188.488 83.2636 188.531 83.2081C188.575 83.1526 188.629 83.1062 188.69 83.0718L195.203 79.3052L193.701 78.4755C193.579 78.4043 193.489 78.2878 193.452 78.1512C193.415 78.0146 193.433 77.8689 193.502 77.7454C193.537 77.6847 193.584 77.6315 193.64 77.589C193.696 77.5465 193.759 77.5155 193.827 77.4977C193.895 77.48 193.966 77.4759 194.035 77.4856C194.105 77.4954 194.172 77.5188 194.232 77.5546L196.539 78.882C196.619 78.9283 196.686 78.9948 196.732 79.0749C196.779 79.1549 196.803 79.2457 196.804 79.3383C196.803 79.4319 196.777 79.5235 196.731 79.6047C196.685 79.6859 196.618 79.7541 196.539 79.8029L189.221 84.0259C189.138 84.063 189.046 84.0773 188.956 84.0674Z" fill="white"/>
<path d="M196.264 79.8434C196.149 79.8389 196.038 79.7976 195.948 79.7256C195.859 79.6537 195.794 79.5548 195.764 79.4435C195.735 79.3322 195.741 79.2143 195.784 79.1071C195.826 78.9999 195.901 78.9091 195.999 78.8478L203.316 74.6249C203.377 74.5891 203.443 74.5657 203.513 74.5559C203.582 74.5462 203.653 74.5503 203.721 74.568C203.789 74.5858 203.853 74.6168 203.908 74.6593C203.964 74.7018 204.011 74.755 204.046 74.8157C204.116 74.9392 204.134 75.085 204.096 75.2216C204.059 75.3582 203.97 75.4746 203.847 75.5458L196.538 79.7687C196.454 79.8166 196.36 79.8423 196.264 79.8434Z" fill="white"/>
<path d="M179.647 78.2826C179.125 78.2881 178.611 78.1596 178.153 77.9093L175.532 76.391C175.302 76.2901 175.103 76.129 174.957 75.9245C174.811 75.72 174.723 75.4799 174.702 75.2295C174.708 75.0201 174.771 74.8162 174.883 74.6395C174.996 74.4628 175.154 74.3198 175.341 74.2256L187.238 67.3561C187.661 67.1561 188.126 67.06 188.593 67.0759C189.061 67.0918 189.518 67.2191 189.926 67.4473L192.556 68.9656C192.788 69.0671 192.987 69.2296 193.133 69.4356C193.279 69.6417 193.367 69.8835 193.386 70.1354C193.378 70.3434 193.315 70.5455 193.203 70.7206C193.09 70.8958 192.933 71.0375 192.747 71.131L180.85 78.0005C180.479 78.1942 180.065 78.2912 179.647 78.2826ZM188.474 68.1359C188.242 68.1272 188.011 68.1756 187.802 68.277L175.905 75.1465C175.863 75.1686 175.826 75.1998 175.797 75.2378C175.863 75.3377 175.955 75.418 176.063 75.4701L178.693 76.9883C178.944 77.1289 179.224 77.2101 179.512 77.226C179.799 77.2418 180.087 77.1917 180.352 77.0796L192.241 70.2101C192.332 70.1603 192.349 70.1188 192.349 70.1188C192.349 70.1188 192.299 70.0027 192.092 69.8865L189.462 68.3682C189.158 68.2065 188.818 68.1265 188.474 68.1359Z" fill="white"/>
<path d="M178.743 75.7466C179.224 75.7466 179.614 75.52 179.614 75.2405C179.614 74.961 179.224 74.7344 178.743 74.7344C178.262 74.7344 177.872 74.961 177.872 75.2405C177.872 75.52 178.262 75.7466 178.743 75.7466Z" fill="white"/>
<path d="M188.309 70.0711L185.421 71.7304C185.291 71.7906 185.15 71.8218 185.007 71.8218C184.863 71.8218 184.722 71.7906 184.592 71.7304C184.334 71.5811 184.31 71.3571 184.534 71.2326L187.421 69.5733C187.55 69.5097 187.692 69.4766 187.836 69.4766C187.98 69.4766 188.121 69.5097 188.25 69.5733C188.499 69.7227 188.533 69.9467 188.309 70.0711Z" fill="white"/>
<path d="M273.306 48.2832C273.308 48.5118 273.249 48.7369 273.135 48.9352C273.022 49.1335 272.857 49.298 272.659 49.4115L191.585 96.2206C191.189 96.4494 190.74 96.5696 190.282 96.569V103.505C190.74 103.506 191.189 103.385 191.585 103.156L272.659 56.3557C272.855 56.2402 273.018 56.0754 273.132 55.8775C273.245 55.6796 273.305 55.4555 273.306 55.2274V48.2832Z" fill="black"/>
<path d="M188.98 96.2206L107.914 49.4115C107.715 49.2984 107.549 49.1343 107.434 48.936C107.319 48.7378 107.258 48.5125 107.259 48.2832V55.2274C107.259 55.4565 107.32 55.6815 107.435 55.8796C107.55 56.0777 107.715 56.2419 107.914 56.3557L188.98 103.156C189.376 103.384 189.825 103.504 190.282 103.505V96.569C189.825 96.5684 189.376 96.4483 188.98 96.2206Z" fill="#2A2B2D"/>
<path d="M296.014 202.95L84.1446 79.7527C82.8042 78.9733 82.8221 77.0313 84.1764 76.2766L189.095 17.817C189.715 17.4715 190.471 17.4806 191.083 17.8408L402.926 142.597C404.267 143.386 404.232 145.337 402.865 146.078L297.973 202.979C297.36 203.312 296.617 203.301 296.014 202.95Z" stroke="#DC477D" stroke-width="2" stroke-linecap="round" stroke-linejoin="round" stroke-dasharray="1 5"/>
<path d="M299.702 187.599C289.761 187.599 281.702 192.076 281.702 197.599V205.599C281.702 211.122 289.761 215.599 299.702 215.599C309.643 215.599 317.702 211.122 317.702 205.599V197.599C317.702 192.076 309.643 187.599 299.702 187.599Z" fill="#CA3066"/>
<ellipse cx="299.702" cy="197.599" rx="18" ry="10" fill="#F85C94"/>
<g clip-path="url(#clip2)">
<path d="M304.86 200.599C304.003 201.095 302.949 201.462 301.79 201.67C300.631 201.877 299.403 201.918 298.21 201.789C297.018 201.659 295.898 201.364 294.948 200.929C293.999 200.493 293.247 199.93 292.759 199.289C292.272 198.648 292.063 197.948 292.15 197.249C292.237 196.551 292.619 195.875 293.261 195.281C293.903 194.687 294.787 194.192 295.835 193.84C296.884 193.488 298.065 193.288 299.277 193.259L299.335 194.737C298.388 194.765 297.476 194.95 296.709 195.272C295.942 195.593 295.352 196.035 295.012 196.546C294.671 197.056 294.595 197.613 294.792 198.148C294.988 198.683 295.45 199.174 296.12 199.561C296.79 199.948 297.64 200.214 298.567 200.328C299.494 200.441 300.458 200.397 301.343 200.201C302.227 200.004 302.994 199.664 303.55 199.221C304.106 198.778 304.428 198.251 304.476 197.705L307.035 197.738C306.959 198.816 306.182 199.837 304.86 200.599Z" fill="white"/>
<path d="M306.464 196.629C306.379 196.679 306.27 196.712 306.151 196.726C306.033 196.74 305.91 196.733 305.798 196.706C305.687 196.679 305.591 196.634 305.524 196.576C305.457 196.518 305.421 196.45 305.421 196.38C305.421 196.31 305.457 196.242 305.524 196.184C305.591 196.126 305.687 196.081 305.798 196.054C305.91 196.028 306.033 196.021 306.151 196.034C306.27 196.048 306.379 196.081 306.464 196.131C306.578 196.197 306.642 196.287 306.642 196.38C306.642 196.474 306.578 196.563 306.464 196.629Z" fill="white"/>
<path d="M300.697 198.235C300.472 198.366 300.184 198.456 299.871 198.493C299.558 198.529 299.232 198.511 298.937 198.441C298.641 198.371 298.388 198.252 298.209 198.099C298.031 197.945 297.936 197.765 297.935 197.58C297.935 197.396 298.029 197.215 298.206 197.062C298.384 196.908 298.636 196.788 298.932 196.717C299.227 196.647 299.552 196.628 299.866 196.664C300.179 196.7 300.467 196.789 300.693 196.92C300.995 197.095 301.164 197.331 301.165 197.577C301.166 197.824 300.997 198.06 300.697 198.235Z" fill="white"/>
<path d="M305.488 195.493C305.403 195.542 305.294 195.576 305.175 195.59C305.057 195.603 304.934 195.596 304.822 195.57C304.711 195.543 304.615 195.498 304.548 195.44C304.481 195.382 304.445 195.313 304.445 195.244C304.445 195.174 304.481 195.106 304.548 195.048C304.615 194.99 304.711 194.945 304.822 194.918C304.934 194.891 305.057 194.884 305.175 194.898C305.294 194.911 305.403 194.945 305.488 194.994C305.602 195.061 305.666 195.15 305.666 195.244C305.666 195.337 305.602 195.427 305.488 195.493Z" fill="white"/>
<path d="M304.149 196.203C304.064 196.253 303.954 196.286 303.836 196.3C303.717 196.313 303.594 196.306 303.482 196.279C303.37 196.252 303.275 196.207 303.208 196.149C303.141 196.09 303.106 196.022 303.106 195.952C303.107 195.882 303.144 195.814 303.212 195.756C303.28 195.698 303.376 195.653 303.488 195.627C303.601 195.601 303.724 195.594 303.842 195.609C303.961 195.623 304.069 195.657 304.154 195.707C304.267 195.774 304.329 195.863 304.328 195.956C304.327 196.049 304.263 196.138 304.149 196.203Z" fill="white"/>
<path d="M304.032 194.653C303.947 194.702 303.838 194.736 303.719 194.749C303.601 194.763 303.478 194.756 303.366 194.729C303.255 194.702 303.159 194.657 303.092 194.599C303.025 194.541 302.989 194.473 302.989 194.403C302.989 194.333 303.025 194.265 303.092 194.207C303.159 194.149 303.255 194.104 303.366 194.077C303.478 194.051 303.601 194.044 303.719 194.057C303.838 194.071 303.947 194.104 304.032 194.154C304.146 194.22 304.211 194.31 304.211 194.403C304.211 194.497 304.146 194.586 304.032 194.653Z" fill="white"/>
<path d="M302.797 195.423C302.712 195.472 302.603 195.505 302.484 195.519C302.366 195.533 302.243 195.526 302.131 195.499C302.02 195.472 301.924 195.427 301.857 195.369C301.79 195.311 301.754 195.243 301.754 195.173C301.754 195.103 301.79 195.035 301.857 194.977C301.924 194.919 302.02 194.874 302.131 194.847C302.243 194.821 302.366 194.814 302.484 194.827C302.603 194.841 302.712 194.874 302.797 194.924C302.912 194.99 302.976 195.08 302.976 195.173C302.976 195.267 302.912 195.356 302.797 195.423Z" fill="white"/>
<path d="M302.108 194.086C302.023 194.135 301.914 194.169 301.795 194.183C301.677 194.196 301.554 194.19 301.442 194.163C301.33 194.136 301.235 194.091 301.167 194.033C301.1 193.975 301.064 193.907 301.064 193.837C301.064 193.767 301.099 193.699 301.167 193.641C301.234 193.583 301.329 193.538 301.441 193.511C301.552 193.484 301.675 193.477 301.794 193.491C301.912 193.504 302.021 193.538 302.107 193.587C302.221 193.654 302.286 193.743 302.286 193.836C302.286 193.93 302.222 194.02 302.108 194.086Z" fill="white"/>
</g>
<path d="M339 90C329.059 90 321 94.4772 321 100V108C321 113.523 329.059 118 339 118C348.941 118 357 113.523 357 108V100C357 94.4772 348.941 90 339 90Z" fill="#CA3066"/>
<ellipse cx="339" cy="100" rx="18" ry="10" fill="#F85C94"/>
<g clip-path="url(#clip3)">
<path d="M344.158 103C343.3 103.496 342.247 103.863 341.088 104.071C339.929 104.278 338.7 104.319 337.508 104.189C336.316 104.06 335.196 103.765 334.246 103.33C333.296 102.894 332.545 102.331 332.057 101.69C331.57 101.049 331.36 100.349 331.448 99.65C331.535 98.9515 331.916 98.2759 332.559 97.6818C333.201 97.0876 334.085 96.593 335.133 96.2407C336.181 95.8885 337.363 95.6892 338.575 95.6603L338.633 97.1379C337.686 97.1657 336.774 97.3513 336.007 97.6724C335.239 97.9934 334.65 98.4361 334.309 98.9467C333.969 99.4573 333.893 100.014 334.089 100.549C334.286 101.084 334.747 101.575 335.417 101.962C336.088 102.349 336.938 102.615 337.865 102.729C338.792 102.842 339.756 102.798 340.64 102.602C341.525 102.405 342.292 102.065 342.848 101.622C343.404 101.179 343.726 100.652 343.774 100.106L346.333 100.139C346.256 101.217 345.48 102.238 344.158 103Z" fill="white"/>
<path d="M345.762 99.0304C345.676 99.0797 345.568 99.1133 345.449 99.1269C345.331 99.1405 345.208 99.1335 345.096 99.1068C344.984 99.0801 344.889 99.0349 344.822 98.9769C344.755 98.9189 344.719 98.8507 344.719 98.781C344.719 98.7112 344.755 98.643 344.822 98.585C344.889 98.527 344.984 98.4818 345.096 98.4551C345.208 98.4284 345.331 98.4214 345.449 98.435C345.568 98.4486 345.676 98.4822 345.762 98.5315C345.876 98.5978 345.94 98.6875 345.94 98.781C345.94 98.8744 345.876 98.9641 345.762 99.0304Z" fill="white"/>
<path d="M339.995 100.636C339.77 100.767 339.482 100.857 339.169 100.894C338.855 100.93 338.53 100.912 338.234 100.842C337.939 100.772 337.686 100.653 337.507 100.499C337.329 100.346 337.234 100.166 337.233 99.9812C337.232 99.7966 337.327 99.616 337.504 99.4624C337.682 99.3088 337.934 99.189 338.229 99.1183C338.525 99.0476 338.85 99.0291 339.164 99.0651C339.477 99.1012 339.765 99.1902 339.991 99.3208C340.293 99.4954 340.462 99.7316 340.463 99.9781C340.463 100.224 340.295 100.461 339.995 100.636Z" fill="white"/>
<path d="M344.786 97.894C344.7 97.9433 344.592 97.9769 344.473 97.9905C344.355 98.0041 344.232 97.9971 344.12 97.9704C344.008 97.9437 343.913 97.8985 343.846 97.8405C343.779 97.7825 343.743 97.7143 343.743 97.6446C343.743 97.5748 343.779 97.5066 343.846 97.4486C343.913 97.3906 344.008 97.3454 344.12 97.3187C344.232 97.292 344.355 97.285 344.473 97.2986C344.592 97.3122 344.7 97.3458 344.786 97.3952C344.9 97.4614 344.964 97.5511 344.964 97.6446C344.964 97.738 344.9 97.8277 344.786 97.894Z" fill="white"/>
<path d="M343.447 98.6042C343.361 98.6536 343.252 98.6873 343.133 98.7008C343.015 98.7143 342.892 98.7072 342.78 98.6803C342.668 98.6533 342.573 98.6078 342.506 98.5495C342.439 98.4912 342.404 98.4227 342.404 98.3528C342.405 98.2829 342.442 98.2146 342.51 98.1568C342.578 98.0989 342.674 98.054 342.786 98.0278C342.898 98.0016 343.022 97.9952 343.14 98.0095C343.259 98.0238 343.367 98.0582 343.452 98.1082C343.564 98.1745 343.627 98.2639 343.626 98.3567C343.625 98.4496 343.561 98.5385 343.447 98.6042Z" fill="white"/>
<path d="M343.33 97.0535C343.245 97.1028 343.136 97.1364 343.017 97.15C342.899 97.1636 342.776 97.1566 342.664 97.1299C342.553 97.1032 342.457 97.058 342.39 97C342.323 96.942 342.287 96.8738 342.287 96.8041C342.287 96.7343 342.323 96.6661 342.39 96.6081C342.457 96.5501 342.553 96.5049 342.664 96.4782C342.776 96.4515 342.899 96.4445 343.017 96.4581C343.136 96.4718 343.245 96.5053 343.33 96.5547C343.444 96.6209 343.508 96.7106 343.508 96.8041C343.508 96.8976 343.444 96.9872 343.33 97.0535Z" fill="white"/>
<path d="M342.095 97.8235C342.009 97.8728 341.901 97.9064 341.782 97.92C341.663 97.9336 341.541 97.9266 341.429 97.8999C341.317 97.8732 341.222 97.828 341.155 97.77C341.088 97.712 341.052 97.6438 341.052 97.574C341.052 97.5043 341.088 97.4361 341.155 97.3781C341.222 97.3201 341.317 97.2749 341.429 97.2482C341.541 97.2215 341.663 97.2145 341.782 97.2281C341.901 97.2417 342.009 97.2753 342.095 97.3246C342.209 97.3908 342.274 97.4805 342.274 97.574C342.274 97.6676 342.209 97.7573 342.095 97.8235Z" fill="white"/>
<path d="M341.406 96.4866C341.32 96.5361 341.212 96.5698 341.093 96.5835C340.975 96.5973 340.852 96.5904 340.74 96.5638C340.628 96.5372 340.532 96.4921 340.465 96.4341C340.398 96.3761 340.362 96.3079 340.362 96.2381C340.362 96.1683 340.397 96.1001 340.464 96.042C340.531 95.984 340.627 95.9387 340.739 95.9119C340.85 95.8852 340.973 95.8782 341.092 95.8918C341.21 95.9054 341.319 95.939 341.405 95.9883C341.519 96.0544 341.583 96.1439 341.584 96.2373C341.584 96.3308 341.52 96.4204 341.406 96.4866Z" fill="white"/>
</g>
<path d="M235 30C225.059 30 217 34.4772 217 40V48C217 53.5228 225.059 58 235 58C244.941 58 253 53.5228 253 48V40C253 34.4772 244.941 30 235 30Z" fill="#CA3066"/>
<ellipse cx="235" cy="40" rx="18" ry="10" fill="#F85C94"/>
<g clip-path="url(#clip4)">
<path d="M240.158 43.0003C239.3 43.496 238.247 43.8633 237.088 44.0705C235.929 44.2778 234.7 44.3186 233.508 44.1895C232.316 44.0604 231.196 43.7652 230.246 43.3296C229.296 42.8941 228.545 42.3312 228.057 41.69C227.57 41.0488 227.36 40.3485 227.448 39.65C227.535 38.9515 227.916 38.2759 228.559 37.6818C229.201 37.0876 230.085 36.593 231.133 36.2407C232.181 35.8885 233.363 35.6892 234.575 35.6603L234.633 37.1379C233.686 37.1657 232.774 37.3513 232.007 37.6724C231.239 37.9934 230.65 38.4361 230.309 38.9467C229.969 39.4573 229.893 40.0139 230.089 40.5491C230.286 41.0843 230.747 41.5751 231.417 41.962C232.088 42.3488 232.938 42.6152 233.865 42.7287C234.792 42.8422 235.756 42.7981 236.64 42.6016C237.525 42.4052 238.292 42.0648 238.848 41.6218C239.404 41.1788 239.726 40.6522 239.774 40.1058L242.333 40.1391C242.256 41.2168 241.48 42.2383 240.158 43.0003Z" fill="white"/>
<path d="M241.762 39.0304C241.676 39.0797 241.568 39.1133 241.449 39.1269C241.331 39.1405 241.208 39.1335 241.096 39.1068C240.984 39.0801 240.889 39.0349 240.822 38.9769C240.755 38.9189 240.719 38.8507 240.719 38.781C240.719 38.7112 240.755 38.643 240.822 38.585C240.889 38.527 240.984 38.4818 241.096 38.4551C241.208 38.4284 241.331 38.4214 241.449 38.435C241.568 38.4486 241.676 38.4822 241.762 38.5315C241.876 38.5978 241.94 38.6875 241.94 38.781C241.94 38.8744 241.876 38.9641 241.762 39.0304Z" fill="white"/>
<path d="M235.995 40.6362C235.77 40.7673 235.482 40.8569 235.169 40.8935C234.855 40.9302 234.53 40.9123 234.234 40.8422C233.939 40.772 233.686 40.6528 233.507 40.4995C233.329 40.3462 233.234 40.1658 233.233 39.9812C233.232 39.7966 233.327 39.616 233.504 39.4624C233.682 39.3088 233.934 39.189 234.229 39.1183C234.525 39.0476 234.85 39.0291 235.164 39.0651C235.477 39.1012 235.765 39.1902 235.991 39.3208C236.293 39.4954 236.462 39.7316 236.463 39.9781C236.463 40.2245 236.295 40.4611 235.995 40.6362Z" fill="white"/>
<path d="M240.786 37.894C240.7 37.9433 240.592 37.9769 240.473 37.9905C240.355 38.0041 240.232 37.9971 240.12 37.9704C240.008 37.9437 239.913 37.8985 239.846 37.8405C239.779 37.7825 239.743 37.7143 239.743 37.6446C239.743 37.5748 239.779 37.5066 239.846 37.4486C239.913 37.3906 240.008 37.3454 240.12 37.3187C240.232 37.292 240.355 37.285 240.473 37.2986C240.592 37.3122 240.7 37.3458 240.786 37.3952C240.9 37.4614 240.964 37.5511 240.964 37.6446C240.964 37.738 240.9 37.8277 240.786 37.894Z" fill="white"/>
<path d="M239.447 38.6042C239.361 38.6536 239.252 38.6873 239.133 38.7008C239.015 38.7143 238.892 38.7072 238.78 38.6803C238.668 38.6533 238.573 38.6078 238.506 38.5495C238.439 38.4912 238.404 38.4227 238.404 38.3528C238.405 38.2829 238.442 38.2146 238.51 38.1568C238.578 38.0989 238.674 38.054 238.786 38.0278C238.898 38.0016 239.022 37.9952 239.14 38.0095C239.259 38.0238 239.367 38.0582 239.452 38.1082C239.564 38.1745 239.627 38.2639 239.626 38.3567C239.625 38.4496 239.561 38.5385 239.447 38.6042Z" fill="white"/>
<path d="M239.33 37.0535C239.245 37.1028 239.136 37.1364 239.017 37.15C238.899 37.1636 238.776 37.1566 238.664 37.1299C238.553 37.1032 238.457 37.058 238.39 37C238.323 36.942 238.287 36.8738 238.287 36.8041C238.287 36.7343 238.323 36.6661 238.39 36.6081C238.457 36.5501 238.553 36.5049 238.664 36.4782C238.776 36.4515 238.899 36.4445 239.017 36.4581C239.136 36.4718 239.245 36.5053 239.33 36.5547C239.444 36.6209 239.508 36.7106 239.508 36.8041C239.508 36.8976 239.444 36.9872 239.33 37.0535Z" fill="white"/>
<path d="M238.095 37.8235C238.009 37.8728 237.901 37.9064 237.782 37.92C237.663 37.9336 237.541 37.9266 237.429 37.8999C237.317 37.8732 237.222 37.828 237.155 37.77C237.088 37.712 237.052 37.6438 237.052 37.574C237.052 37.5043 237.088 37.4361 237.155 37.3781C237.222 37.3201 237.317 37.2749 237.429 37.2482C237.541 37.2215 237.663 37.2145 237.782 37.2281C237.901 37.2417 238.009 37.2753 238.095 37.3246C238.209 37.3908 238.274 37.4805 238.274 37.574C238.274 37.6676 238.209 37.7573 238.095 37.8235Z" fill="white"/>
<path d="M237.406 36.4866C237.32 36.5361 237.212 36.5698 237.093 36.5835C236.975 36.5973 236.852 36.5904 236.74 36.5638C236.628 36.5372 236.532 36.4921 236.465 36.4341C236.398 36.3761 236.362 36.3079 236.362 36.2381C236.362 36.1683 236.397 36.1001 236.464 36.042C236.531 35.984 236.627 35.9387 236.739 35.9119C236.85 35.8852 236.973 35.8782 237.092 35.8918C237.21 35.9054 237.319 35.939 237.405 35.9883C237.519 36.0544 237.583 36.1439 237.584 36.2373C237.584 36.3308 237.52 36.4204 237.406 36.4866Z" fill="white"/>
</g>
<path d="M82 64C72.0589 64 64 68.4772 64 74V82C64 87.5228 72.0589 92 82 92C91.9411 92 100 87.5228 100 82V74C100 68.4772 91.9411 64 82 64Z" fill="#CA3066"/>
<ellipse cx="82" cy="74" rx="18" ry="10" fill="#F85C94"/>
<g clip-path="url(#clip5)">
<path d="M87.1575 77.0003C86.3004 77.496 85.2468 77.8633 84.0881 78.0705C82.9293 78.2778 81.7005 78.3186 80.5082 78.1895C79.3159 78.0604 78.1962 77.7652 77.2463 77.3296C76.2964 76.8941 75.545 76.3312 75.0573 75.69C74.5696 75.0488 74.3604 74.3485 74.4477 73.65C74.5351 72.9515 74.9164 72.2759 75.5587 71.6818C76.2009 71.0876 77.0845 70.593 78.133 70.2407C79.1814 69.8885 80.3629 69.6892 81.575 69.6603L81.6327 71.1379C80.6863 71.1657 79.7741 71.3513 79.0067 71.6724C78.2394 71.9934 77.6498 72.4361 77.3095 72.9467C76.9692 73.4573 76.8927 74.0139 77.0894 74.5491C77.286 75.0843 77.7474 75.5751 78.4175 75.962C79.0876 76.3488 79.9377 76.6152 80.8647 76.7287C81.7918 76.8422 82.756 76.7981 83.6405 76.6016C84.5249 76.4052 85.2917 76.0648 85.8478 75.6218C86.4039 75.1788 86.7255 74.6522 86.7736 74.1058L89.333 74.1391C89.2564 75.2168 88.4797 76.2383 87.1575 77.0003Z" fill="white"/>
<path d="M88.7619 73.0304C88.6764 73.0797 88.5676 73.1133 88.4491 73.1269C88.3305 73.1405 88.2077 73.1335 88.0961 73.1068C87.9844 73.0801 87.889 73.0349 87.8219 72.9769C87.7547 72.9189 87.7189 72.8507 87.7189 72.781C87.7189 72.7112 87.7547 72.643 87.8219 72.585C87.889 72.527 87.9844 72.4818 88.0961 72.4551C88.2077 72.4284 88.3305 72.4214 88.4491 72.435C88.5676 72.4486 88.6764 72.4822 88.7619 72.5315C88.8761 72.5978 88.9403 72.6875 88.9403 72.781C88.9403 72.8744 88.8761 72.9641 88.7619 73.0304Z" fill="white"/>
<path d="M82.995 74.6362C82.7699 74.7673 82.4824 74.8569 82.1689 74.8935C81.8555 74.9302 81.5303 74.9123 81.2344 74.8422C80.9386 74.772 80.6855 74.6528 80.5073 74.4995C80.329 74.3462 80.2335 74.1658 80.233 73.9812C80.2324 73.7966 80.3268 73.616 80.5042 73.4624C80.6816 73.3088 80.934 73.189 81.2294 73.1183C81.5248 73.0476 81.8499 73.0291 82.1636 73.0651C82.4772 73.1012 82.7653 73.1902 82.9912 73.3208C83.2925 73.4954 83.462 73.7316 83.4628 73.9781C83.4635 74.2245 83.2953 74.4611 82.995 74.6362Z" fill="white"/>
<path d="M87.7859 71.894C87.7004 71.9433 87.5916 71.9769 87.4731 71.9905C87.3546 72.0041 87.2317 71.9971 87.1201 71.9704C87.0084 71.9437 86.913 71.8985 86.8459 71.8405C86.7787 71.7825 86.7429 71.7143 86.7429 71.6446C86.7429 71.5748 86.7787 71.5066 86.8459 71.4486C86.913 71.3906 87.0084 71.3454 87.1201 71.3187C87.2317 71.292 87.3546 71.285 87.4731 71.2986C87.5916 71.3122 87.7004 71.3458 87.7859 71.3952C87.9001 71.4614 87.9643 71.5511 87.9643 71.6446C87.9643 71.738 87.9001 71.8277 87.7859 71.894Z" fill="white"/>
<path d="M86.4471 72.6042C86.3615 72.6536 86.2523 72.6873 86.1335 72.7008C86.0146 72.7143 85.8915 72.7072 85.7797 72.6803C85.668 72.6533 85.5726 72.6078 85.5057 72.5495C85.4389 72.4912 85.4035 72.4227 85.4042 72.3528C85.4049 72.2829 85.4415 72.2146 85.5095 72.1568C85.5775 72.0989 85.6738 72.054 85.7861 72.0278C85.8984 72.0016 86.0216 71.9952 86.1402 72.0095C86.2587 72.0238 86.3673 72.0582 86.4519 72.1082C86.5644 72.1745 86.627 72.2639 86.6261 72.3567C86.6252 72.4496 86.5609 72.5385 86.4471 72.6042Z" fill="white"/>
<path d="M86.33 71.0535C86.2446 71.1028 86.1357 71.1364 86.0172 71.15C85.8987 71.1636 85.7758 71.1566 85.6642 71.1299C85.5526 71.1032 85.4571 71.058 85.39 71C85.3229 70.942 85.287 70.8738 85.287 70.8041C85.287 70.7343 85.3229 70.6661 85.39 70.6081C85.4571 70.5501 85.5526 70.5049 85.6642 70.4782C85.7758 70.4515 85.8987 70.4445 86.0172 70.4581C86.1357 70.4718 86.2446 70.5053 86.33 70.5547C86.4443 70.6209 86.5084 70.7106 86.5084 70.8041C86.5084 70.8976 86.4443 70.9872 86.33 71.0535Z" fill="white"/>
<path d="M85.0948 71.8235C85.0094 71.8728 84.9005 71.9064 84.782 71.92C84.6635 71.9336 84.5406 71.9266 84.429 71.8999C84.3174 71.8732 84.2219 71.828 84.1548 71.77C84.0877 71.712 84.0518 71.6438 84.0518 71.574C84.0518 71.5043 84.0877 71.4361 84.1548 71.3781C84.2219 71.3201 84.3174 71.2749 84.429 71.2482C84.5406 71.2215 84.6635 71.2145 84.782 71.2281C84.9005 71.2417 85.0094 71.2753 85.0948 71.3246C85.2094 71.3908 85.2738 71.4805 85.2738 71.574C85.2738 71.6676 85.2094 71.7573 85.0948 71.8235Z" fill="white"/>
<path d="M84.4057 70.4866C84.3204 70.5361 84.2116 70.5698 84.093 70.5835C83.9745 70.5973 83.8516 70.5904 83.7398 70.5638C83.6281 70.5372 83.5325 70.4921 83.4652 70.4341C83.3979 70.3761 83.3619 70.3079 83.3617 70.2381C83.3616 70.1683 83.3973 70.1001 83.4644 70.042C83.5315 69.984 83.6269 69.9387 83.7386 69.9119C83.8502 69.8852 83.9731 69.8782 84.0917 69.8918C84.2103 69.9054 84.3192 69.939 84.4047 69.9883C84.5191 70.0544 84.5835 70.1439 84.5836 70.2373C84.5838 70.3308 84.5198 70.4204 84.4057 70.4866Z" fill="white"/>
</g>
</g>
<defs>
<linearGradient id="paint0_linear" x1="20.3637" y1="-19.0178" x2="438.721" y2="270.367" gradientUnits="userSpaceOnUse">
<stop offset="0.314888" stop-color="#020202"/>
<stop offset="0.590338" stop-color="#1C1D1E"/>
<stop offset="1" stop-color="#303233"/>
</linearGradient>
<linearGradient id="paint1_linear" x1="96.9811" y1="-24.6387" x2="351.168" y2="150.673" gradientUnits="userSpaceOnUse">
<stop offset="0.314888" stop-color="#020202"/>
<stop offset="0.590338" stop-color="#1C1D1E"/>
<stop offset="1" stop-color="#303233"/>
</linearGradient>
<linearGradient id="paint2_linear" x1="-194.298" y1="-80.9483" x2="223.522" y2="207.813" gradientUnits="userSpaceOnUse">
<stop offset="0.314888" stop-color="#020202"/>
<stop offset="0.590338" stop-color="#1C1D1E"/>
<stop offset="1" stop-color="#303233"/>
</linearGradient>
<linearGradient id="paint3_linear" x1="-10.7796" y1="-87.6187" x2="243.405" y2="87.6799" gradientUnits="userSpaceOnUse">
<stop offset="0.314888" stop-color="#020202"/>
<stop offset="0.590338" stop-color="#1C1D1E"/>
<stop offset="1" stop-color="#303233"/>
</linearGradient>
<clipPath id="clip0">
<rect width="488.836" height="302.662" fill="white"/>
</clipPath>
<clipPath id="clip1">
<rect width="24.7213" height="24.7213" fill="white" transform="matrix(0.866044 -0.499967 0.866044 0.499967 277.293 130.6)"/>
</clipPath>
<clipPath id="clip2">
<rect width="15.9985" height="15.9985" fill="white" transform="matrix(0.866041 -0.499972 0.866041 0.499972 285.702 197.598)"/>
</clipPath>
<clipPath id="clip3">
<rect width="15.9985" height="15.9985" fill="white" transform="matrix(0.866041 -0.499972 0.866041 0.499972 325 99.999)"/>
</clipPath>
<clipPath id="clip4">
<rect width="15.9985" height="15.9985" fill="white" transform="matrix(0.866041 -0.499972 0.866041 0.499972 221 39.999)"/>
</clipPath>
<clipPath id="clip5">
<rect width="15.9985" height="15.9985" fill="white" transform="matrix(0.866041 -0.499972 0.866041 0.499972 68 73.999)"/>
</clipPath>
</defs>
</svg>
