<svg width="496" height="280" viewBox="0 0 496 280" fill="none" xmlns="http://www.w3.org/2000/svg">
<rect width="488" height="278" transform="translate(0 1)" fill="black"/>
<path d="M0 3.48339C0 1.82654 1.34315 0.483398 3 0.483398H269C270.657 0.483398 272 1.82654 272 3.4834V276.451C272 278.108 270.657 279.451 269 279.451H3C1.34315 279.451 0 278.108 0 276.451V3.48339Z" fill="#1D1E1F"/>
<path d="M20.1895 24.7129V21.8857H21.0879V29.4834H20.1895V28.7949C20.0397 29.0651 19.8395 29.2718 19.5889 29.415C19.3415 29.555 19.055 29.625 18.7295 29.625C18.0687 29.625 17.5479 29.3695 17.167 28.8584C16.7894 28.3441 16.6006 27.6361 16.6006 26.7344C16.6006 25.8457 16.791 25.1491 17.1719 24.6445C17.5527 24.1367 18.0719 23.8828 18.7295 23.8828C19.0583 23.8828 19.348 23.9544 19.5986 24.0977C19.8493 24.2376 20.0462 24.4427 20.1895 24.7129ZM17.5479 26.7539C17.5479 27.4505 17.6585 27.9762 17.8799 28.3311C18.1012 28.6859 18.4284 28.8633 18.8613 28.8633C19.2943 28.8633 19.623 28.6842 19.8477 28.3262C20.0755 27.9681 20.1895 27.444 20.1895 26.7539C20.1895 26.0605 20.0755 25.5365 19.8477 25.1816C19.623 24.8236 19.2943 24.6445 18.8613 24.6445C18.4284 24.6445 18.1012 24.8219 17.8799 25.1768C17.6585 25.5316 17.5479 26.0573 17.5479 26.7539ZM25.4531 26.7344H25.1553C24.6312 26.7344 24.2357 26.8271 23.9688 27.0127C23.7051 27.195 23.5732 27.4684 23.5732 27.833C23.5732 28.1618 23.6725 28.4173 23.8711 28.5996C24.0697 28.7819 24.3447 28.873 24.6963 28.873C25.1911 28.873 25.5801 28.7021 25.8633 28.3604C26.1465 28.0153 26.2897 27.54 26.293 26.9346V26.7344H25.4531ZM27.1963 26.3633V29.4834H26.293V28.6729C26.1009 28.9984 25.8584 29.2393 25.5654 29.3955C25.2757 29.5485 24.9225 29.625 24.5059 29.625C23.9492 29.625 23.5049 29.4688 23.1729 29.1562C22.8408 28.8405 22.6748 28.4189 22.6748 27.8916C22.6748 27.2829 22.8783 26.8206 23.2852 26.5049C23.6953 26.1891 24.2959 26.0312 25.0869 26.0312H26.293V25.8896C26.2897 25.4535 26.179 25.1377 25.9609 24.9424C25.7428 24.7438 25.3945 24.6445 24.916 24.6445C24.61 24.6445 24.3008 24.6885 23.9883 24.7764C23.6758 24.8643 23.3714 24.9928 23.0752 25.1621V24.2637C23.4072 24.1367 23.7246 24.0423 24.0273 23.9805C24.3333 23.9154 24.6296 23.8828 24.916 23.8828C25.3685 23.8828 25.7542 23.9495 26.0732 24.083C26.3955 24.2165 26.6559 24.4167 26.8545 24.6836C26.9782 24.8464 27.0661 25.0482 27.1182 25.2891C27.1702 25.5267 27.1963 25.8848 27.1963 26.3633ZM31.0488 22.4619V24.0146H33.0898V24.7129H31.0488V27.6816C31.0488 28.0853 31.1253 28.3669 31.2783 28.5264C31.4313 28.6859 31.6982 28.7656 32.0791 28.7656H33.0898V29.4834H31.9912C31.3174 29.4834 30.8421 29.3483 30.5654 29.0781C30.2887 28.8079 30.1504 28.3424 30.1504 27.6816V24.7129H28.6904V24.0146H30.1504V22.4619H31.0488ZM37.5039 26.7344H37.2061C36.682 26.7344 36.2865 26.8271 36.0195 27.0127C35.7559 27.195 35.624 27.4684 35.624 27.833C35.624 28.1618 35.7233 28.4173 35.9219 28.5996C36.1204 28.7819 36.3955 28.873 36.7471 28.873C37.2419 28.873 37.6309 28.7021 37.9141 28.3604C38.1973 28.0153 38.3405 27.54 38.3438 26.9346V26.7344H37.5039ZM39.2471 26.3633V29.4834H38.3438V28.6729C38.1517 28.9984 37.9092 29.2393 37.6162 29.3955C37.3265 29.5485 36.9733 29.625 36.5566 29.625C36 29.625 35.5557 29.4688 35.2236 29.1562C34.8916 28.8405 34.7256 28.4189 34.7256 27.8916C34.7256 27.2829 34.929 26.8206 35.3359 26.5049C35.7461 26.1891 36.3467 26.0312 37.1377 26.0312H38.3438V25.8896C38.3405 25.4535 38.2298 25.1377 38.0117 24.9424C37.7936 24.7438 37.4453 24.6445 36.9668 24.6445C36.6608 24.6445 36.3516 24.6885 36.0391 24.7764C35.7266 24.8643 35.4222 24.9928 35.126 25.1621V24.2637C35.458 24.1367 35.7754 24.0423 36.0781 23.9805C36.3841 23.9154 36.6803 23.8828 36.9668 23.8828C37.4193 23.8828 37.805 23.9495 38.124 24.083C38.4463 24.2165 38.7067 24.4167 38.9053 24.6836C39.029 24.8464 39.1169 25.0482 39.1689 25.2891C39.221 25.5267 39.2471 25.8848 39.2471 26.3633ZM45.2822 29.2051C45.0413 29.3451 44.7923 29.4492 44.5352 29.5176C44.2812 29.5892 44.0208 29.625 43.7539 29.625C42.9076 29.625 42.2451 29.3711 41.7666 28.8633C41.2913 28.3555 41.0537 27.6523 41.0537 26.7539C41.0537 25.8555 41.2913 25.1523 41.7666 24.6445C42.2451 24.1367 42.9076 23.8828 43.7539 23.8828C44.0176 23.8828 44.2747 23.917 44.5254 23.9854C44.776 24.0537 45.0283 24.1595 45.2822 24.3027V25.2451C45.0446 25.0335 44.8053 24.8805 44.5645 24.7861C44.3268 24.6917 44.0566 24.6445 43.7539 24.6445C43.1908 24.6445 42.7578 24.8268 42.4551 25.1914C42.1523 25.556 42.001 26.0768 42.001 26.7539C42.001 27.4277 42.1523 27.9486 42.4551 28.3164C42.7611 28.681 43.194 28.8633 43.7539 28.8633C44.0664 28.8633 44.3464 28.8161 44.5938 28.7217C44.8411 28.624 45.0706 28.4743 45.2822 28.2725V29.2051ZM51.5957 26.2998V26.7393H47.7041V26.7686C47.6781 27.514 47.8197 28.0495 48.1289 28.375C48.4414 28.7005 48.8809 28.8633 49.4473 28.8633C49.7337 28.8633 50.0332 28.8177 50.3457 28.7266C50.6582 28.6354 50.9919 28.4971 51.3467 28.3115V29.2051C51.0049 29.3451 50.6745 29.4492 50.3555 29.5176C50.0397 29.5892 49.7337 29.625 49.4375 29.625C48.5879 29.625 47.9238 29.3711 47.4453 28.8633C46.9668 28.3522 46.7275 27.6491 46.7275 26.7539C46.7275 25.8815 46.9619 25.1849 47.4307 24.6641C47.8994 24.1432 48.5244 23.8828 49.3057 23.8828C50.0023 23.8828 50.5508 24.1188 50.9512 24.5908C51.3548 25.0628 51.5697 25.6325 51.5957 26.2998ZM50.6973 26.0361C50.6582 25.6585 50.5199 25.333 50.2822 25.0596C50.0479 24.7829 49.7093 24.6445 49.2666 24.6445C48.8337 24.6445 48.4772 24.7878 48.1973 25.0742C47.9173 25.3607 47.7643 25.6829 47.7383 26.041L50.6973 26.0361ZM57.2842 26.0947V29.4834H56.3809V26.0947C56.3809 25.6032 56.2946 25.2419 56.1221 25.0107C55.9495 24.7796 55.6794 24.6641 55.3115 24.6641C54.8916 24.6641 54.5677 24.8138 54.3398 25.1133C54.1152 25.4095 54.0029 25.8359 54.0029 26.3926V29.4834H53.1045V24.0146H54.0029V24.835C54.1624 24.5225 54.3789 24.2865 54.6523 24.127C54.9258 23.9642 55.2497 23.8828 55.624 23.8828C56.1807 23.8828 56.5957 24.0667 56.8691 24.4346C57.1458 24.7992 57.2842 25.3525 57.2842 26.0947ZM61.1758 22.4619V24.0146H63.2168V24.7129H61.1758V27.6816C61.1758 28.0853 61.2523 28.3669 61.4053 28.5264C61.5583 28.6859 61.8252 28.7656 62.2061 28.7656H63.2168V29.4834H62.1182C61.4443 29.4834 60.9691 29.3483 60.6924 29.0781C60.4157 28.8079 60.2773 28.3424 60.2773 27.6816V24.7129H58.8174V24.0146H60.2773V22.4619H61.1758ZM69.6719 26.2998V26.7393H65.7803V26.7686C65.7542 27.514 65.8958 28.0495 66.2051 28.375C66.5176 28.7005 66.957 28.8633 67.5234 28.8633C67.8099 28.8633 68.1094 28.8177 68.4219 28.7266C68.7344 28.6354 69.068 28.4971 69.4229 28.3115V29.2051C69.0811 29.3451 68.7507 29.4492 68.4316 29.5176C68.1159 29.5892 67.8099 29.625 67.5137 29.625C66.6641 29.625 66 29.3711 65.5215 28.8633C65.043 28.3522 64.8037 27.6491 64.8037 26.7539C64.8037 25.8815 65.0381 25.1849 65.5068 24.6641C65.9756 24.1432 66.6006 23.8828 67.3818 23.8828C68.0785 23.8828 68.627 24.1188 69.0273 24.5908C69.431 25.0628 69.6458 25.6325 69.6719 26.2998ZM68.7734 26.0361C68.7344 25.6585 68.596 25.333 68.3584 25.0596C68.124 24.7829 67.7855 24.6445 67.3428 24.6445C66.9098 24.6445 66.5534 24.7878 66.2734 25.0742C65.9935 25.3607 65.8405 25.6829 65.8145 26.041L68.7734 26.0361ZM75.8682 25.1426C75.6761 24.9928 75.4808 24.8838 75.2822 24.8154C75.0837 24.7471 74.8656 24.7129 74.6279 24.7129C74.068 24.7129 73.64 24.8887 73.3438 25.2402C73.0475 25.5918 72.8994 26.0996 72.8994 26.7637V29.4834H71.9961V24.0146H72.8994V25.084C73.0492 24.6966 73.2786 24.4004 73.5879 24.1953C73.9004 23.987 74.2699 23.8828 74.6963 23.8828C74.9176 23.8828 75.1243 23.9105 75.3164 23.9658C75.5085 24.0212 75.6924 24.1074 75.8682 24.2246V25.1426ZM76.752 25.9482H81.9277V26.7734H76.752V25.9482ZM83.5977 28.6582H85.1309V23.1504L83.2949 24.0342V23.0869L85.1211 22.2178H86.1074V28.6582H87.6211V29.4834H83.5977V28.6582Z" fill="#DBDBDC"/>
<path d="M16 55.4834C16 53.8265 17.3431 52.4834 19 52.4834H253C254.657 52.4834 256 53.8265 256 55.4834V140.451C256 142.108 254.657 143.451 253 143.451H19C17.3431 143.451 16 142.108 16 140.451V55.4834Z" fill="#343536"/>
<path d="M30.21 73.4834H31.575L32.784 69.4664L33.98 73.4834H35.345L37.503 66.9834H35.995L34.669 71.5594L33.317 66.9834H32.225L30.899 71.5594L29.547 66.9834H28.065L30.21 73.4834ZM41.1308 73.6264C42.6908 73.6264 43.7308 72.7034 43.9258 71.4294H42.6258C42.3268 72.2874 41.5468 72.4304 41.1308 72.4304C40.1038 72.4304 39.4278 71.7804 39.4278 70.7144V70.7014H44.0298C44.1858 68.5564 43.0938 66.9054 41.0918 66.9054C39.2458 66.9054 37.9978 68.2704 37.9978 70.2854C37.9978 72.3784 39.2328 73.6264 41.1308 73.6264ZM39.4668 69.4924C39.5188 68.6734 40.1818 68.1014 41.0528 68.1014C41.9238 68.1014 42.5348 68.6734 42.5738 69.4924H39.4668ZM48.8254 73.6264C50.1904 73.6264 51.8024 72.5214 51.8024 70.2724C51.8024 68.0624 50.3074 66.9184 48.8644 66.9184C47.7724 66.9184 47.1094 67.4254 46.7584 67.9064V64.3834H45.4454V73.4834H46.7584V72.5864C46.9404 72.9374 47.6814 73.6264 48.8254 73.6264ZM48.5654 72.3394C47.5124 72.3394 46.7714 71.4944 46.7714 70.3114C46.7714 69.0634 47.5124 68.1794 48.5654 68.1794C49.6054 68.1794 50.3334 69.0114 50.3334 70.1814C50.3334 71.4424 49.6054 72.3394 48.5654 72.3394Z" fill="#DBDBDC"/>
<path fill-rule="evenodd" clip-rule="evenodd" d="M30.25 85.4834C29.0074 85.4834 28 86.4908 28 87.7334V97.2334C28 98.476 29.0074 99.4834 30.25 99.4834H41.75C42.9926 99.4834 44 98.476 44 97.2334V89.7334C44 88.4908 42.9926 87.4834 41.75 87.4834H37.8713C37.6724 87.4834 37.4816 87.4044 37.341 87.2637L36.2197 86.1424C35.7977 85.7205 35.2254 85.4834 34.6287 85.4834H30.25ZM29.5 87.7334C29.5 87.3192 29.8358 86.9834 30.25 86.9834H34.6287C34.8276 86.9834 35.0184 87.0624 35.159 87.2031L36.2803 88.3244C36.7023 88.7463 37.2746 88.9834 37.8713 88.9834H41.75C42.1642 88.9834 42.5 89.3192 42.5 89.7334V97.2334C42.5 97.6476 42.1642 97.9834 41.75 97.9834H30.25C29.8358 97.9834 29.5 97.6476 29.5 97.2334V91.4834H40.25C40.6642 91.4834 41 91.1476 41 90.7334C41 90.3192 40.6642 89.9834 40.25 89.9834H29.5V87.7334Z" fill="#727274"/>
<path d="M52.52 96.6134C53.32 96.6134 53.84 96.1434 54.04 95.8334V96.4834H55V91.4834H54.04V94.0634C54.04 95.1134 53.45 95.7534 52.73 95.7534C52.12 95.7534 51.67 95.3234 51.67 94.4534V91.4834H50.64V94.5534C50.64 96.1434 51.74 96.6134 52.52 96.6134ZM58.2384 96.5934C59.2284 96.5934 60.1684 95.9934 60.1684 95.0034C60.1684 94.2134 59.6884 93.6934 58.1784 93.4934C57.5284 93.4034 57.2284 93.1634 57.2284 92.8334C57.2284 92.4334 57.6684 92.2334 58.1084 92.2334C58.5084 92.2334 59.0684 92.3834 59.1584 93.0934H60.0584C59.9784 91.8734 59.0384 91.3934 58.0884 91.3934C56.9784 91.3934 56.2584 92.0634 56.2584 92.8234C56.2584 93.3934 56.5284 94.0634 58.1784 94.3034C58.9584 94.4234 59.1684 94.6734 59.1684 95.0034C59.1684 95.4234 58.8284 95.7734 58.2184 95.7734C57.6284 95.7734 57.1384 95.4634 57.0384 94.8834H56.1084C56.1684 96.0234 57.1284 96.5934 58.2384 96.5934ZM61.522 93.6134H65.022V92.8734H61.522V93.6134ZM68.7981 96.5934C69.9781 96.5934 70.7881 95.8834 70.9381 94.8934H70.0281C69.8181 95.5634 69.2081 95.7534 68.8081 95.7534C67.9581 95.7534 67.4181 95.1934 67.4181 94.3034V94.2934H71.0181C71.1081 92.6634 70.2781 91.4234 68.7781 91.4234C67.3581 91.4234 66.4181 92.4834 66.4181 94.0234C66.4181 95.6234 67.3681 96.5934 68.7981 96.5934ZM67.4481 93.4434C67.4981 92.7534 68.0081 92.2634 68.7481 92.2634C69.4981 92.2634 69.9481 92.7534 69.9981 93.4434H67.4481ZM73.5261 96.5834C74.1261 96.5834 74.7061 96.3134 75.0661 95.8534V96.4834H76.0661V93.0834C76.0661 92.0934 75.3661 91.3634 74.1161 91.3634C72.9061 91.3634 72.1161 92.1134 72.0161 93.1134L73.0261 93.1034C73.0861 92.6634 73.4361 92.2334 74.1561 92.2334C74.6961 92.2334 75.0661 92.5234 75.0661 92.9034C75.0661 93.4434 74.2961 93.4934 73.6561 93.5534C73.0861 93.6034 72.6161 93.7434 72.2861 94.0034C71.9761 94.2534 71.8361 94.6434 71.8361 95.0734C71.8361 96.0334 72.6361 96.5834 73.5261 96.5834ZM73.6761 95.7434C73.2061 95.7134 72.8661 95.4334 72.8661 95.0134C72.8661 94.5934 73.2061 94.3434 73.8461 94.2934C74.4061 94.2434 74.8561 94.1634 75.0761 94.0134L75.0661 94.5434C75.0461 95.4034 74.2661 95.7634 73.6761 95.7434ZM79.1973 96.5934C80.1873 96.5934 81.1273 95.9934 81.1273 95.0034C81.1273 94.2134 80.6473 93.6934 79.1373 93.4934C78.4873 93.4034 78.1873 93.1634 78.1873 92.8334C78.1873 92.4334 78.6273 92.2334 79.0673 92.2334C79.4673 92.2334 80.0273 92.3834 80.1173 93.0934H81.0173C80.9373 91.8734 79.9973 91.3934 79.0473 91.3934C77.9373 91.3934 77.2173 92.0634 77.2173 92.8234C77.2173 93.3934 77.4873 94.0634 79.1373 94.3034C79.9173 94.4234 80.1273 94.6734 80.1273 95.0034C80.1273 95.4234 79.7873 95.7734 79.1773 95.7734C78.5873 95.7734 78.0973 95.4634 77.9973 94.8834H77.0673C77.1273 96.0234 78.0873 96.5934 79.1973 96.5934ZM83.591 96.4834H84.461V95.6234H83.811C83.351 95.6234 83.201 95.4534 83.201 94.9534V92.3034H84.451V91.4834H83.201V89.9234H82.251V91.4834H81.481V92.3034H82.251V95.1634C82.251 95.9534 82.801 96.4834 83.591 96.4834ZM85.6627 93.6134H89.1627V92.8734H85.6627V93.6134ZM95.1988 96.4834V95.6434H93.5088V89.5034H92.7188L90.9188 90.8534V91.7934L92.5788 90.5834V95.6434H90.8988V96.4834H95.1988Z" fill="#DBDBDC"/>
<path fill-rule="evenodd" clip-rule="evenodd" d="M120 84.4834C115.582 84.4834 112 88.0651 112 92.4834C112 96.9017 115.582 100.483 120 100.483C124.418 100.483 128 96.9017 128 92.4834C128 88.0651 124.418 84.4834 120 84.4834ZM122.72 89.7031C123.013 89.4102 123.487 89.4102 123.78 89.7031C124.073 89.996 124.073 90.4708 123.78 90.7637L119.28 95.2637C118.987 95.5566 118.513 95.5566 118.22 95.2637L116.22 93.2637C115.927 92.9708 115.927 92.496 116.22 92.2031C116.513 91.9102 116.987 91.9102 117.28 92.2031L118.75 93.6727L122.72 89.7031Z" fill="#00BC7F"/>
<path d="M136.74 96.5834C138.24 96.5834 139.11 95.6334 139.11 94.5434C139.11 93.7134 138.61 93.0134 137.84 92.7434C138.34 92.5934 138.95 92.0434 138.95 91.2134C138.95 90.1734 138.02 89.4134 136.71 89.4134C135.41 89.4134 134.53 90.1634 134.53 91.2134C134.53 91.9234 134.99 92.5334 135.62 92.7434C134.88 93.0134 134.38 93.6934 134.38 94.5234C134.38 95.6334 135.22 96.5834 136.74 96.5834ZM136.73 92.3034C136.03 92.3034 135.52 91.8634 135.52 91.2434C135.52 90.7134 135.99 90.2334 136.72 90.2334C137.45 90.2334 137.95 90.7234 137.95 91.2534C137.95 91.8634 137.43 92.3034 136.73 92.3034ZM136.73 95.7234C135.93 95.7234 135.4 95.2134 135.4 94.5234C135.4 93.8134 135.94 93.2834 136.72 93.2834C137.5 93.2834 138.09 93.8234 138.09 94.5234C138.09 95.2034 137.53 95.7234 136.73 95.7234ZM142.753 96.5734C144.403 96.5734 145.493 95.1034 145.493 92.9934C145.493 90.8834 144.413 89.4134 142.773 89.4134C141.123 89.4134 140.043 90.8834 140.043 93.0134C140.043 95.1134 141.113 96.5734 142.753 96.5734ZM142.773 95.7034C141.703 95.7034 141.033 94.6034 141.033 92.9534C141.033 91.3434 141.673 90.2834 142.743 90.2834C143.823 90.2834 144.503 91.4034 144.503 93.0234C144.503 94.6134 143.833 95.7034 142.773 95.7034ZM146.567 96.4834H147.557L152.717 88.9834H151.727L146.567 96.4834ZM148.027 91.7434C148.747 91.7434 149.327 91.1434 149.327 90.3934C149.327 89.6434 148.747 89.0434 148.027 89.0434C147.307 89.0434 146.727 89.6434 146.727 90.3934C146.727 91.1434 147.307 91.7434 148.027 91.7434ZM148.027 91.0334C147.717 91.0334 147.477 90.7534 147.477 90.4034C147.477 90.0534 147.717 89.7834 148.027 89.7834C148.337 89.7834 148.587 90.0534 148.587 90.4034C148.587 90.7534 148.337 91.0334 148.027 91.0334ZM151.317 96.5034C152.037 96.5034 152.617 95.9034 152.617 95.1534C152.617 94.4034 152.037 93.8034 151.317 93.8034C150.597 93.8034 150.017 94.4034 150.017 95.1534C150.017 95.9034 150.597 96.5034 151.317 96.5034ZM151.317 95.7934C151.007 95.7934 150.767 95.5134 150.767 95.1634C150.767 94.8134 151.007 94.5434 151.317 94.5434C151.627 94.5434 151.877 94.8134 151.877 95.1634C151.877 95.5134 151.627 95.7934 151.317 95.7934Z" fill="#DBDBDC"/>
<path fill-rule="evenodd" clip-rule="evenodd" d="M178 84.7334C173.72 84.7334 170.25 88.2032 170.25 92.4834C170.25 96.7636 173.72 100.233 178 100.233C182.28 100.233 185.75 96.7636 185.75 92.4834C185.75 88.2032 182.28 84.7334 178 84.7334ZM180.72 88.7031C181.013 88.4102 181.487 88.4102 181.78 88.7031C182.073 88.996 182.073 89.4708 181.78 89.7637L179.061 92.4834L181.78 95.2031C182.073 95.496 182.073 95.9708 181.78 96.2637C181.487 96.5566 181.013 96.5566 180.72 96.2637L178 93.5441L175.28 96.2637C174.987 96.5566 174.513 96.5566 174.22 96.2637C173.927 95.9708 173.927 95.496 174.22 95.2031L176.939 92.4834L174.22 89.7637C173.927 89.4708 173.927 88.996 174.22 88.7031C174.513 88.4102 174.987 88.4102 175.28 88.7031L178 91.4227L180.72 88.7031Z" fill="#F25054"/>
<path d="M192.38 96.4834H197.12V95.5534L193.76 95.5634L195.05 94.4034C196.16 93.4134 197.05 92.7134 197.05 91.5434C197.05 90.3234 196.08 89.4034 194.75 89.4034C193.36 89.4034 192.37 90.3134 192.3 91.6634H193.33C193.42 90.8434 193.97 90.3234 194.75 90.3234C195.53 90.3234 196.06 90.8234 196.06 91.5834C196.06 92.3834 195.37 92.9134 194.15 93.9634L192.38 95.5134V96.4834ZM200.675 96.5734C202.325 96.5734 203.415 95.1034 203.415 92.9934C203.415 90.8834 202.335 89.4134 200.695 89.4134C199.045 89.4134 197.965 90.8834 197.965 93.0134C197.965 95.1134 199.035 96.5734 200.675 96.5734ZM200.695 95.7034C199.625 95.7034 198.955 94.6034 198.955 92.9534C198.955 91.3434 199.595 90.2834 200.665 90.2834C201.745 90.2834 202.425 91.4034 202.425 93.0234C202.425 94.6134 201.755 95.7034 200.695 95.7034ZM204.489 96.4834H205.479L210.639 88.9834H209.649L204.489 96.4834ZM205.949 91.7434C206.669 91.7434 207.249 91.1434 207.249 90.3934C207.249 89.6434 206.669 89.0434 205.949 89.0434C205.229 89.0434 204.649 89.6434 204.649 90.3934C204.649 91.1434 205.229 91.7434 205.949 91.7434ZM205.949 91.0334C205.639 91.0334 205.399 90.7534 205.399 90.4034C205.399 90.0534 205.639 89.7834 205.949 89.7834C206.259 89.7834 206.509 90.0534 206.509 90.4034C206.509 90.7534 206.259 91.0334 205.949 91.0334ZM209.239 96.5034C209.959 96.5034 210.539 95.9034 210.539 95.1534C210.539 94.4034 209.959 93.8034 209.239 93.8034C208.519 93.8034 207.939 94.4034 207.939 95.1534C207.939 95.9034 208.519 96.5034 209.239 96.5034ZM209.239 95.7934C208.929 95.7934 208.689 95.5134 208.689 95.1634C208.689 94.8134 208.929 94.5434 209.239 94.5434C209.549 94.5434 209.799 94.8134 209.799 95.1634C209.799 95.5134 209.549 95.7934 209.239 95.7934Z" fill="#DBDBDC"/>
<line x1="16" y1="111.983" x2="256" y2="111.983" stroke="black"/>
<path d="M32.98 131.483V130.643H31.29V124.503H30.5L28.7 125.853V126.793L30.36 125.583V130.643H28.68V131.483H32.98ZM33.9426 131.483H35.0526V130.293H33.9426V131.483ZM38.1756 124.443C36.9656 124.453 35.8056 125.253 35.8056 126.773C35.8056 128.183 36.8556 129.083 38.0556 129.083C38.7656 129.083 39.4256 128.753 39.8056 128.163V128.403C39.7556 129.833 39.2356 130.553 38.2956 130.643C37.6756 130.703 36.9956 130.393 36.8156 129.603L35.8856 129.613C36.0356 130.683 36.9256 131.493 38.1456 131.493C39.2356 131.503 40.7456 130.923 40.7456 127.943C40.7456 125.683 39.7156 124.443 38.1756 124.443ZM38.1856 125.333C38.9556 125.333 39.5456 125.983 39.5456 126.723C39.5456 127.503 38.9456 128.123 38.1856 128.123C37.4356 128.123 36.8556 127.523 36.8556 126.743C36.8556 125.973 37.4156 125.333 38.1856 125.333ZM44.1282 126.833C43.6082 126.833 43.2082 126.973 42.8282 127.253L43.1082 125.403H45.9082V124.483H42.3582L41.7682 128.173H42.7982C43.1482 127.823 43.5382 127.683 43.9782 127.683C44.7982 127.683 45.3882 128.393 45.3782 129.213C45.3582 129.983 44.7582 130.643 43.9482 130.643C43.0882 130.643 42.5282 130.173 42.4982 129.313H41.5382C41.5382 130.653 42.5482 131.553 43.9482 131.553C45.3082 131.553 46.3682 130.543 46.3682 129.153C46.3682 127.763 45.3882 126.833 44.1282 126.833ZM50.5771 131.493H51.5671V128.453H52.9971C54.2471 128.453 54.3471 129.023 54.4171 129.973C54.4671 130.763 54.4571 131.123 54.6071 131.483H55.7271C55.4871 131.043 55.5271 130.733 55.4471 129.723C55.3771 128.853 55.1671 128.293 54.5071 128.083C55.0571 127.893 55.5771 127.253 55.5771 126.383C55.5771 125.293 54.7771 124.473 53.5271 124.473L50.5771 124.483V131.493ZM51.5671 127.593V125.333H53.3071C54.0571 125.333 54.5971 125.673 54.5971 126.463C54.5971 127.233 54.0271 127.593 53.3071 127.593H51.5671ZM57.1963 131.493H58.1663V128.673H60.0663C61.3363 128.673 62.1763 127.793 62.1763 126.593C62.1763 125.383 61.3563 124.473 60.1263 124.473L57.1963 124.483V131.493ZM58.1663 127.813L58.1763 125.333H59.9063C60.6463 125.333 61.2063 125.773 61.2063 126.583C61.2063 127.383 60.6463 127.813 59.9063 127.813H58.1663ZM65.7771 131.553C67.2771 131.553 68.3471 130.753 68.3471 129.493C68.3471 128.453 67.7471 127.703 65.7671 127.453C64.8571 127.333 64.2371 127.003 64.2371 126.393C64.2371 125.893 64.7171 125.393 65.5671 125.393C66.4271 125.393 67.0771 125.833 67.1371 126.643H68.1971C68.1471 125.263 67.1571 124.423 65.5671 124.423C64.1571 124.423 63.1171 125.323 63.1171 126.423C63.1171 127.393 63.8171 128.183 65.8271 128.423C66.8671 128.553 67.2271 128.903 67.2271 129.483C67.2271 130.063 66.7171 130.613 65.7971 130.613C64.8171 130.613 64.2071 130.133 64.0471 129.323H62.9271C63.0371 130.823 64.3871 131.553 65.7771 131.553Z" fill="#DBDBDC"/>
<path d="M87.146 131.483V130.643H85.456V124.503H84.666L82.866 125.853V126.793L84.526 125.583V130.643H82.846V131.483H87.146ZM90.9486 131.573C92.5986 131.573 93.6886 130.103 93.6886 127.993C93.6886 125.883 92.6086 124.413 90.9686 124.413C89.3186 124.413 88.2386 125.883 88.2386 128.013C88.2386 130.113 89.3086 131.573 90.9486 131.573ZM90.9686 130.703C89.8986 130.703 89.2286 129.603 89.2286 127.953C89.2286 126.343 89.8686 125.283 90.9386 125.283C92.0186 125.283 92.6986 126.403 92.6986 128.023C92.6986 129.613 92.0286 130.703 90.9686 130.703ZM97.3724 131.573C99.0224 131.573 100.112 130.103 100.112 127.993C100.112 125.883 99.0324 124.413 97.3924 124.413C95.7424 124.413 94.6624 125.883 94.6624 128.013C94.6624 130.113 95.7324 131.573 97.3724 131.573ZM97.3924 130.703C96.3224 130.703 95.6524 129.603 95.6524 127.953C95.6524 126.343 96.2924 125.283 97.3624 125.283C98.4424 125.283 99.1224 126.403 99.1224 128.023C99.1224 129.613 98.4524 130.703 97.3924 130.703ZM101.186 131.483H102.176L107.336 123.983H106.346L101.186 131.483ZM102.646 126.743C103.366 126.743 103.946 126.143 103.946 125.393C103.946 124.643 103.366 124.043 102.646 124.043C101.926 124.043 101.346 124.643 101.346 125.393C101.346 126.143 101.926 126.743 102.646 126.743ZM102.646 126.033C102.336 126.033 102.096 125.753 102.096 125.403C102.096 125.053 102.336 124.783 102.646 124.783C102.956 124.783 103.206 125.053 103.206 125.403C103.206 125.753 102.956 126.033 102.646 126.033ZM105.936 131.503C106.656 131.503 107.236 130.903 107.236 130.153C107.236 129.403 106.656 128.803 105.936 128.803C105.216 128.803 104.636 129.403 104.636 130.153C104.636 130.903 105.216 131.503 105.936 131.503ZM105.936 130.793C105.626 130.793 105.386 130.513 105.386 130.163C105.386 129.813 105.626 129.543 105.936 129.543C106.246 129.543 106.496 129.813 106.496 130.163C106.496 130.513 106.246 130.793 105.936 130.793ZM111.726 131.483H116.256V130.523H112.696V128.403H116.046V127.473H112.696V125.443H116.256V124.483H111.726V131.483ZM117.515 131.493H118.505V128.453H119.935C121.185 128.453 121.285 129.023 121.355 129.973C121.405 130.763 121.395 131.123 121.545 131.483H122.665C122.425 131.043 122.465 130.733 122.385 129.723C122.315 128.853 122.105 128.293 121.445 128.083C121.995 127.893 122.515 127.253 122.515 126.383C122.515 125.293 121.715 124.473 120.465 124.473L117.515 124.483V131.493ZM118.505 127.593V125.333H120.245C120.995 125.333 121.535 125.673 121.535 126.463C121.535 127.233 120.965 127.593 120.245 127.593H118.505Z" fill="#DBDBDC"/>
<path d="M139.071 131.583C140.571 131.583 141.441 130.633 141.441 129.543C141.441 128.713 140.941 128.013 140.171 127.743C140.671 127.593 141.281 127.043 141.281 126.213C141.281 125.173 140.351 124.413 139.041 124.413C137.741 124.413 136.861 125.163 136.861 126.213C136.861 126.923 137.321 127.533 137.951 127.743C137.211 128.013 136.711 128.693 136.711 129.523C136.711 130.633 137.551 131.583 139.071 131.583ZM139.061 127.303C138.361 127.303 137.851 126.863 137.851 126.243C137.851 125.713 138.321 125.233 139.051 125.233C139.781 125.233 140.281 125.723 140.281 126.253C140.281 126.863 139.761 127.303 139.061 127.303ZM139.061 130.723C138.261 130.723 137.731 130.213 137.731 129.523C137.731 128.813 138.271 128.283 139.051 128.283C139.831 128.283 140.421 128.823 140.421 129.523C140.421 130.203 139.861 130.723 139.061 130.723ZM142.634 131.483H143.594V128.903C143.594 127.853 144.124 127.213 144.824 127.213C145.434 127.213 145.884 127.623 145.884 128.513V131.483H146.914V128.903C146.914 127.853 147.444 127.213 148.144 127.213C148.754 127.213 149.204 127.623 149.204 128.513V131.483H150.234V128.413C150.234 126.823 149.114 126.353 148.334 126.353C147.544 126.353 146.974 126.763 146.644 127.323C146.124 126.383 145.274 126.353 145.034 126.353C144.234 126.353 143.794 126.823 143.594 127.133V126.483H142.634V131.483ZM153.415 131.593C154.405 131.593 155.345 130.993 155.345 130.003C155.345 129.213 154.865 128.693 153.355 128.493C152.705 128.403 152.405 128.163 152.405 127.833C152.405 127.433 152.845 127.233 153.285 127.233C153.685 127.233 154.245 127.383 154.335 128.093H155.235C155.155 126.873 154.215 126.393 153.265 126.393C152.155 126.393 151.435 127.063 151.435 127.823C151.435 128.393 151.705 129.063 153.355 129.303C154.135 129.423 154.345 129.673 154.345 130.003C154.345 130.423 154.005 130.773 153.395 130.773C152.805 130.773 152.315 130.463 152.215 129.883H151.285C151.345 131.023 152.305 131.593 153.415 131.593ZM159.281 131.483H160.281V126.253L162.291 131.483H163.201L165.181 126.273V131.483H166.141V124.483H164.931L162.761 130.153L160.531 124.483H159.281V131.483ZM167.844 131.483H172.374V130.523H168.814V128.403H172.164V127.473H168.814V125.443H172.374V124.483H167.844V131.483ZM173.633 131.503L176.253 131.483C178.093 131.473 179.443 130.013 179.443 127.933C179.443 125.883 178.053 124.443 176.153 124.463L173.633 124.483V131.503ZM174.583 130.543V125.463L176.153 125.443C177.463 125.423 178.443 126.443 178.443 127.973C178.443 129.493 177.443 130.513 176.113 130.523L174.583 130.543Z" fill="#DBDBDC"/>
<path d="M16 166.451C16 164.794 17.3431 163.451 19 163.451H253C254.657 163.451 256 164.794 256 166.451V252.451C256 254.108 254.657 255.451 253 255.451H19C17.3431 255.451 16 254.108 16 252.451V166.451Z" fill="#343536"/>
<path d="M28.845 184.451H30.21V182.293L30.938 181.526L32.979 184.451L34.526 184.438L31.809 180.551L34.253 177.951H32.537L30.21 180.46V175.351H28.845V184.451ZM37.9249 184.62C38.9779 184.62 39.6279 183.983 39.8749 183.632V184.451H41.2529V177.951H39.8749V181.227C39.8749 182.566 39.1079 183.385 38.2499 183.385C37.5219 183.385 36.9629 182.93 36.9629 181.786V177.951H35.4679V181.942C35.4679 184.139 37.0279 184.62 37.9249 184.62ZM46.4895 184.594C47.8545 184.594 49.4665 183.489 49.4665 181.24C49.4665 179.03 47.9715 177.886 46.5285 177.886C45.4365 177.886 44.7735 178.393 44.4225 178.874V175.351H43.1095V184.451H44.4225V183.554C44.6045 183.905 45.3455 184.594 46.4895 184.594ZM46.2295 183.307C45.1765 183.307 44.4355 182.462 44.4355 181.279C44.4355 180.031 45.1765 179.147 46.2295 179.147C47.2695 179.147 47.9975 179.979 47.9975 181.149C47.9975 182.41 47.2695 183.307 46.2295 183.307ZM53.5417 184.594C55.1017 184.594 56.1417 183.671 56.3367 182.397H55.0367C54.7377 183.255 53.9577 183.398 53.5417 183.398C52.5147 183.398 51.8387 182.748 51.8387 181.682V181.669H56.4407C56.5967 179.524 55.5047 177.873 53.5027 177.873C51.6567 177.873 50.4087 179.238 50.4087 181.253C50.4087 183.346 51.6437 184.594 53.5417 184.594ZM51.8777 180.46C51.9297 179.641 52.5927 179.069 53.4637 179.069C54.3347 179.069 54.9457 179.641 54.9847 180.46H51.8777ZM57.8563 184.451H59.1953V181.162C59.1953 179.563 60.2093 179.277 61.0933 179.29H61.3143V177.847H61.0153C59.7803 177.847 59.3253 178.497 59.1953 178.744V177.951H57.8563V184.451ZM62.3225 184.451H63.7005V181.175C63.7005 179.836 64.4675 179.017 65.3255 179.017C66.0535 179.017 66.6125 179.472 66.6125 180.616V184.451H68.1075V180.46C68.1075 178.263 66.5475 177.782 65.6505 177.782C64.5975 177.782 63.9475 178.419 63.7005 178.77V177.951H62.3225V184.451ZM72.5771 184.594C74.1371 184.594 75.1771 183.671 75.3721 182.397H74.0721C73.7731 183.255 72.9931 183.398 72.5771 183.398C71.5501 183.398 70.8741 182.748 70.8741 181.682V181.669H75.4761C75.6321 179.524 74.5401 177.873 72.5381 177.873C70.6921 177.873 69.4441 179.238 69.4441 181.253C69.4441 183.346 70.6791 184.594 72.5771 184.594ZM70.9131 180.46C70.9651 179.641 71.6281 179.069 72.4991 179.069C73.3701 179.069 73.9811 179.641 74.0201 180.46H70.9131ZM78.7117 184.451H79.9467L79.9597 183.229H79.0757C78.4517 183.229 78.2827 183.021 78.2827 182.371V179.121H79.9467V177.951H78.2827V175.871H76.9307V177.951H75.9167V179.121H76.9307V182.722C76.9307 183.736 77.6717 184.451 78.7117 184.451ZM83.6423 184.594C85.2023 184.594 86.2423 183.671 86.4373 182.397H85.1373C84.8383 183.255 84.0583 183.398 83.6423 183.398C82.6153 183.398 81.9393 182.748 81.9393 181.682V181.669H86.5413C86.6973 179.524 85.6053 177.873 83.6033 177.873C81.7573 177.873 80.5093 179.238 80.5093 181.253C80.5093 183.346 81.7443 184.594 83.6423 184.594ZM81.9783 180.46C82.0303 179.641 82.6933 179.069 83.5643 179.069C84.4353 179.069 85.0463 179.641 85.0853 180.46H81.9783ZM90.2319 184.594C91.4409 184.594 92.7669 183.84 92.7669 182.488C92.7669 181.487 92.1689 180.759 90.1409 180.512C89.3349 180.408 89.0359 180.083 89.0359 179.732C89.0359 179.251 89.5819 179.043 90.0889 179.043C90.4529 179.043 91.1939 179.16 91.3369 180.044H92.6239C92.4939 178.432 91.2459 177.834 90.0629 177.834C88.5679 177.834 87.6319 178.731 87.6319 179.719C87.6319 180.369 87.8659 181.331 90.1279 181.656C91.1159 181.799 91.3239 182.137 91.3239 182.488C91.3239 183.021 90.8689 183.424 90.1799 183.424C89.4909 183.424 88.9059 183.047 88.7629 182.371H87.4369C87.5149 183.853 88.7629 184.594 90.2319 184.594Z" fill="#DBDBDC"/>
<path fill-rule="evenodd" clip-rule="evenodd" d="M30.25 196.451C29.0074 196.451 28 197.459 28 198.701V208.201C28 209.444 29.0074 210.451 30.25 210.451H41.75C42.9926 210.451 44 209.444 44 208.201V200.701C44 199.459 42.9926 198.451 41.75 198.451H37.8713C37.6724 198.451 37.4816 198.372 37.341 198.232L36.2197 197.11C35.7977 196.688 35.2254 196.451 34.6287 196.451H30.25ZM29.5 198.701C29.5 198.287 29.8358 197.951 30.25 197.951H34.6287C34.8276 197.951 35.0184 198.03 35.159 198.171L36.2803 199.292C36.7023 199.714 37.2746 199.951 37.8713 199.951H41.75C42.1642 199.951 42.5 200.287 42.5 200.701V208.201C42.5 208.615 42.1642 208.951 41.75 208.951H30.25C29.8358 208.951 29.5 208.615 29.5 208.201V202.451H40.25C40.6642 202.451 41 202.115 41 201.701C41 201.287 40.6642 200.951 40.25 200.951H29.5V198.701Z" fill="#727274"/>
<path d="M52.52 207.581C53.32 207.581 53.84 207.111 54.04 206.801V207.451H55V202.451H54.04V205.031C54.04 206.081 53.45 206.721 52.73 206.721C52.12 206.721 51.67 206.291 51.67 205.421V202.451H50.64V205.521C50.64 207.111 51.74 207.581 52.52 207.581ZM58.2384 207.561C59.2284 207.561 60.1684 206.961 60.1684 205.971C60.1684 205.181 59.6884 204.661 58.1784 204.461C57.5284 204.371 57.2284 204.131 57.2284 203.801C57.2284 203.401 57.6684 203.201 58.1084 203.201C58.5084 203.201 59.0684 203.351 59.1584 204.061H60.0584C59.9784 202.841 59.0384 202.361 58.0884 202.361C56.9784 202.361 56.2584 203.031 56.2584 203.791C56.2584 204.361 56.5284 205.031 58.1784 205.271C58.9584 205.391 59.1684 205.641 59.1684 205.971C59.1684 206.391 58.8284 206.741 58.2184 206.741C57.6284 206.741 57.1384 206.431 57.0384 205.851H56.1084C56.1684 206.991 57.1284 207.561 58.2384 207.561ZM61.522 204.581H65.022V203.841H61.522V204.581ZM68.7981 207.561C69.9781 207.561 70.7881 206.851 70.9381 205.861H70.0281C69.8181 206.531 69.2081 206.721 68.8081 206.721C67.9581 206.721 67.4181 206.161 67.4181 205.271V205.261H71.0181C71.1081 203.631 70.2781 202.391 68.7781 202.391C67.3581 202.391 66.4181 203.451 66.4181 204.991C66.4181 206.591 67.3681 207.561 68.7981 207.561ZM67.4481 204.411C67.4981 203.721 68.0081 203.231 68.7481 203.231C69.4981 203.231 69.9481 203.721 69.9981 204.411H67.4481ZM73.5261 207.551C74.1261 207.551 74.7061 207.281 75.0661 206.821V207.451H76.0661V204.051C76.0661 203.061 75.3661 202.331 74.1161 202.331C72.9061 202.331 72.1161 203.081 72.0161 204.081L73.0261 204.071C73.0861 203.631 73.4361 203.201 74.1561 203.201C74.6961 203.201 75.0661 203.491 75.0661 203.871C75.0661 204.411 74.2961 204.461 73.6561 204.521C73.0861 204.571 72.6161 204.711 72.2861 204.971C71.9761 205.221 71.8361 205.611 71.8361 206.041C71.8361 207.001 72.6361 207.551 73.5261 207.551ZM73.6761 206.711C73.2061 206.681 72.8661 206.401 72.8661 205.981C72.8661 205.561 73.2061 205.311 73.8461 205.261C74.4061 205.211 74.8561 205.131 75.0761 204.981L75.0661 205.511C75.0461 206.371 74.2661 206.731 73.6761 206.711ZM79.1973 207.561C80.1873 207.561 81.1273 206.961 81.1273 205.971C81.1273 205.181 80.6473 204.661 79.1373 204.461C78.4873 204.371 78.1873 204.131 78.1873 203.801C78.1873 203.401 78.6273 203.201 79.0673 203.201C79.4673 203.201 80.0273 203.351 80.1173 204.061H81.0173C80.9373 202.841 79.9973 202.361 79.0473 202.361C77.9373 202.361 77.2173 203.031 77.2173 203.791C77.2173 204.361 77.4873 205.031 79.1373 205.271C79.9173 205.391 80.1273 205.641 80.1273 205.971C80.1273 206.391 79.7873 206.741 79.1773 206.741C78.5873 206.741 78.0973 206.431 77.9973 205.851H77.0673C77.1273 206.991 78.0873 207.561 79.1973 207.561ZM83.591 207.451H84.461V206.591H83.811C83.351 206.591 83.201 206.421 83.201 205.921V203.271H84.451V202.451H83.201V200.891H82.251V202.451H81.481V203.271H82.251V206.131C82.251 206.921 82.801 207.451 83.591 207.451ZM85.6627 204.581H89.1627V203.841H85.6627V204.581ZM95.1988 207.451V206.611H93.5088V200.471H92.7188L90.9188 201.821V202.761L92.5788 201.551V206.611H90.8988V207.451H95.1988Z" fill="#DBDBDC"/>
<path fill-rule="evenodd" clip-rule="evenodd" d="M120 195.451C115.582 195.451 112 199.033 112 203.451C112 207.869 115.582 211.451 120 211.451C124.418 211.451 128 207.869 128 203.451C128 199.033 124.418 195.451 120 195.451ZM122.72 200.671C123.013 200.378 123.487 200.378 123.78 200.671C124.073 200.964 124.073 201.439 123.78 201.732L119.28 206.232C118.987 206.524 118.513 206.524 118.22 206.232L116.22 204.232C115.927 203.939 115.927 203.464 116.22 203.171C116.513 202.878 116.987 202.878 117.28 203.171L118.75 204.641L122.72 200.671Z" fill="#00BC7F"/>
<path d="M138.98 207.451V206.611H137.29V200.471H136.5L134.7 201.821V202.761L136.36 201.551V206.611H134.68V207.451H138.98ZM142.783 207.541C144.433 207.541 145.523 206.071 145.523 203.961C145.523 201.851 144.443 200.381 142.803 200.381C141.153 200.381 140.073 201.851 140.073 203.981C140.073 206.081 141.143 207.541 142.783 207.541ZM142.803 206.671C141.733 206.671 141.063 205.571 141.063 203.921C141.063 202.311 141.703 201.251 142.773 201.251C143.853 201.251 144.533 202.371 144.533 203.991C144.533 205.581 143.863 206.671 142.803 206.671ZM149.206 207.541C150.856 207.541 151.946 206.071 151.946 203.961C151.946 201.851 150.866 200.381 149.226 200.381C147.576 200.381 146.496 201.851 146.496 203.981C146.496 206.081 147.566 207.541 149.206 207.541ZM149.226 206.671C148.156 206.671 147.486 205.571 147.486 203.921C147.486 202.311 148.126 201.251 149.196 201.251C150.276 201.251 150.956 202.371 150.956 203.991C150.956 205.581 150.286 206.671 149.226 206.671ZM153.02 207.451H154.01L159.17 199.951H158.18L153.02 207.451ZM154.48 202.711C155.2 202.711 155.78 202.111 155.78 201.361C155.78 200.611 155.2 200.011 154.48 200.011C153.76 200.011 153.18 200.611 153.18 201.361C153.18 202.111 153.76 202.711 154.48 202.711ZM154.48 202.001C154.17 202.001 153.93 201.721 153.93 201.371C153.93 201.021 154.17 200.751 154.48 200.751C154.79 200.751 155.04 201.021 155.04 201.371C155.04 201.721 154.79 202.001 154.48 202.001ZM157.77 207.471C158.49 207.471 159.07 206.871 159.07 206.121C159.07 205.371 158.49 204.771 157.77 204.771C157.05 204.771 156.47 205.371 156.47 206.121C156.47 206.871 157.05 207.471 157.77 207.471ZM157.77 206.761C157.46 206.761 157.22 206.481 157.22 206.131C157.22 205.781 157.46 205.511 157.77 205.511C158.08 205.511 158.33 205.781 158.33 206.131C158.33 206.481 158.08 206.761 157.77 206.761Z" fill="#DBDBDC"/>
<line x1="16" y1="222.951" x2="256" y2="222.951" stroke="black"/>
<path d="M32.98 242.968V242.128H31.29V235.988H30.5L28.7 237.338V238.278L30.36 237.068V242.128H28.68V242.968H32.98ZM36.7826 243.058C38.4326 243.058 39.5226 241.588 39.5226 239.478C39.5226 237.368 38.4426 235.898 36.8026 235.898C35.1526 235.898 34.0726 237.368 34.0726 239.498C34.0726 241.598 35.1426 243.058 36.7826 243.058ZM36.8026 242.188C35.7326 242.188 35.0626 241.088 35.0626 239.438C35.0626 237.828 35.7026 236.768 36.7726 236.768C37.8526 236.768 38.5326 237.888 38.5326 239.508C38.5326 241.098 37.8626 242.188 36.8026 242.188ZM40.3664 242.968H41.4764V241.778H40.3664V242.968ZM46.4795 242.968V241.548H47.4495V240.628H46.4795V235.968H45.3595L42.1295 240.688V241.528H45.4995V242.968H46.4795ZM45.4995 237.278V240.628H43.1495L45.4995 237.278ZM51.4853 242.978H52.4753V239.938H53.9053C55.1553 239.938 55.2553 240.508 55.3253 241.458C55.3753 242.248 55.3653 242.608 55.5153 242.968H56.6353C56.3953 242.528 56.4353 242.218 56.3553 241.208C56.2853 240.338 56.0753 239.778 55.4153 239.568C55.9653 239.378 56.4853 238.738 56.4853 237.868C56.4853 236.778 55.6853 235.958 54.4353 235.958L51.4853 235.968V242.978ZM52.4753 239.078V236.818H54.2153C54.9653 236.818 55.5053 237.158 55.5053 237.948C55.5053 238.718 54.9353 239.078 54.2153 239.078H52.4753ZM58.1045 242.978H59.0745V240.158H60.9745C62.2445 240.158 63.0845 239.278 63.0845 238.078C63.0845 236.868 62.2645 235.958 61.0345 235.958L58.1045 235.968V242.978ZM59.0745 239.298L59.0845 236.818H60.8145C61.5545 236.818 62.1145 237.258 62.1145 238.068C62.1145 238.868 61.5545 239.298 60.8145 239.298H59.0745ZM66.6853 243.038C68.1853 243.038 69.2553 242.238 69.2553 240.978C69.2553 239.938 68.6553 239.188 66.6753 238.938C65.7653 238.818 65.1453 238.488 65.1453 237.878C65.1453 237.378 65.6253 236.878 66.4753 236.878C67.3353 236.878 67.9853 237.318 68.0453 238.128H69.1053C69.0553 236.748 68.0653 235.908 66.4753 235.908C65.0653 235.908 64.0253 236.808 64.0253 237.908C64.0253 238.878 64.7253 239.668 66.7353 239.908C67.7753 240.038 68.1353 240.388 68.1353 240.968C68.1353 241.548 67.6253 242.098 66.7053 242.098C65.7253 242.098 65.1153 241.618 64.9553 240.808H63.8353C63.9453 242.308 65.2953 243.038 66.6853 243.038Z" fill="#DBDBDC"/>
<path d="M87.146 242.968V242.128H85.456V235.988H84.666L82.866 237.338V238.278L84.526 237.068V242.128H82.846V242.968H87.146ZM90.9486 243.058C92.5986 243.058 93.6886 241.588 93.6886 239.478C93.6886 237.368 92.6086 235.898 90.9686 235.898C89.3186 235.898 88.2386 237.368 88.2386 239.498C88.2386 241.598 89.3086 243.058 90.9486 243.058ZM90.9686 242.188C89.8986 242.188 89.2286 241.088 89.2286 239.438C89.2286 237.828 89.8686 236.768 90.9386 236.768C92.0186 236.768 92.6986 237.888 92.6986 239.508C92.6986 241.098 92.0286 242.188 90.9686 242.188ZM97.3724 243.058C99.0224 243.058 100.112 241.588 100.112 239.478C100.112 237.368 99.0324 235.898 97.3924 235.898C95.7424 235.898 94.6624 237.368 94.6624 239.498C94.6624 241.598 95.7324 243.058 97.3724 243.058ZM97.3924 242.188C96.3224 242.188 95.6524 241.088 95.6524 239.438C95.6524 237.828 96.2924 236.768 97.3624 236.768C98.4424 236.768 99.1224 237.888 99.1224 239.508C99.1224 241.098 98.4524 242.188 97.3924 242.188ZM101.186 242.968H102.176L107.336 235.468H106.346L101.186 242.968ZM102.646 238.228C103.366 238.228 103.946 237.628 103.946 236.878C103.946 236.128 103.366 235.528 102.646 235.528C101.926 235.528 101.346 236.128 101.346 236.878C101.346 237.628 101.926 238.228 102.646 238.228ZM102.646 237.518C102.336 237.518 102.096 237.238 102.096 236.888C102.096 236.538 102.336 236.268 102.646 236.268C102.956 236.268 103.206 236.538 103.206 236.888C103.206 237.238 102.956 237.518 102.646 237.518ZM105.936 242.988C106.656 242.988 107.236 242.388 107.236 241.638C107.236 240.888 106.656 240.288 105.936 240.288C105.216 240.288 104.636 240.888 104.636 241.638C104.636 242.388 105.216 242.988 105.936 242.988ZM105.936 242.278C105.626 242.278 105.386 241.998 105.386 241.648C105.386 241.298 105.626 241.028 105.936 241.028C106.246 241.028 106.496 241.298 106.496 241.648C106.496 241.998 106.246 242.278 105.936 242.278ZM111.726 242.968H116.256V242.008H112.696V239.888H116.046V238.958H112.696V236.928H116.256V235.968H111.726V242.968ZM117.515 242.978H118.505V239.938H119.935C121.185 239.938 121.285 240.508 121.355 241.458C121.405 242.248 121.395 242.608 121.545 242.968H122.665C122.425 242.528 122.465 242.218 122.385 241.208C122.315 240.338 122.105 239.778 121.445 239.568C121.995 239.378 122.515 238.738 122.515 237.868C122.515 236.778 121.715 235.958 120.465 235.958L117.515 235.968V242.978ZM118.505 239.078V236.818H120.245C120.995 236.818 121.535 237.158 121.535 237.948C121.535 238.718 120.965 239.078 120.245 239.078H118.505Z" fill="#DBDBDC"/>
<path d="M140.211 239.328C140.751 239.128 141.381 238.548 141.381 237.698C141.381 236.638 140.451 235.878 139.131 235.878C137.671 235.878 136.761 236.778 136.721 238.168H137.741C137.781 237.318 138.261 236.808 139.091 236.808C139.841 236.808 140.351 237.218 140.351 237.828C140.351 238.508 139.781 238.948 138.881 238.948H138.531V239.908H138.921C139.931 239.908 140.511 240.368 140.511 241.058C140.511 241.688 139.971 242.168 139.131 242.168C138.241 242.168 137.651 241.608 137.661 240.808H136.641C136.681 242.148 137.681 243.088 139.151 243.088C140.571 243.088 141.531 242.228 141.541 241.098C141.561 240.118 140.901 239.578 140.211 239.328ZM142.654 242.968H143.614V240.388C143.614 239.338 144.144 238.698 144.844 238.698C145.454 238.698 145.904 239.108 145.904 239.998V242.968H146.934V240.388C146.934 239.338 147.464 238.698 148.164 238.698C148.774 238.698 149.224 239.108 149.224 239.998V242.968H150.254V239.898C150.254 238.308 149.134 237.838 148.354 237.838C147.564 237.838 146.994 238.248 146.664 238.808C146.144 237.868 145.294 237.838 145.054 237.838C144.254 237.838 143.814 238.308 143.614 238.618V237.968H142.654V242.968ZM153.435 243.078C154.425 243.078 155.365 242.478 155.365 241.488C155.365 240.698 154.885 240.178 153.375 239.978C152.725 239.888 152.425 239.648 152.425 239.318C152.425 238.918 152.865 238.718 153.305 238.718C153.705 238.718 154.265 238.868 154.355 239.578H155.255C155.175 238.358 154.235 237.878 153.285 237.878C152.175 237.878 151.455 238.548 151.455 239.308C151.455 239.878 151.725 240.548 153.375 240.788C154.155 240.908 154.365 241.158 154.365 241.488C154.365 241.908 154.025 242.258 153.415 242.258C152.825 242.258 152.335 241.948 152.235 241.368H151.305C151.365 242.508 152.325 243.078 153.435 243.078ZM159.301 242.968H160.301V237.738L162.311 242.968H163.221L165.201 237.758V242.968H166.161V235.968H164.951L162.781 241.638L160.551 235.968H159.301V242.968ZM167.863 242.968H172.393V242.008H168.833V239.888H172.183V238.958H168.833V236.928H172.393V235.968H167.863V242.968ZM173.652 242.988L176.272 242.968C178.112 242.958 179.462 241.498 179.462 239.418C179.462 237.368 178.072 235.928 176.172 235.948L173.652 235.968V242.988ZM174.602 242.028V236.948L176.172 236.928C177.482 236.908 178.462 237.928 178.462 239.458C178.462 240.978 177.462 241.998 176.132 242.008L174.602 242.028Z" fill="#DBDBDC"/>
<path d="M196.319 242.451H201.059V241.521L197.699 241.531L198.989 240.371C200.099 239.381 200.989 238.681 200.989 237.511C200.989 236.291 200.019 235.371 198.689 235.371C197.299 235.371 196.309 236.281 196.239 237.631H197.269C197.359 236.811 197.909 236.291 198.689 236.291C199.469 236.291 199.999 236.791 199.999 237.551C199.999 238.351 199.309 238.881 198.089 239.931L196.319 241.481V242.451ZM202.165 242.451H203.125V239.871C203.125 238.821 203.655 238.181 204.355 238.181C204.965 238.181 205.415 238.591 205.415 239.481V242.451H206.445V239.871C206.445 238.821 206.975 238.181 207.675 238.181C208.285 238.181 208.735 238.591 208.735 239.481V242.451H209.765V239.381C209.765 237.791 208.645 237.321 207.865 237.321C207.075 237.321 206.505 237.731 206.175 238.291C205.655 237.351 204.805 237.321 204.565 237.321C203.765 237.321 203.325 237.791 203.125 238.101V237.451H202.165V242.451ZM212.945 242.561C213.935 242.561 214.875 241.961 214.875 240.971C214.875 240.181 214.395 239.661 212.885 239.461C212.235 239.371 211.935 239.131 211.935 238.801C211.935 238.401 212.375 238.201 212.815 238.201C213.215 238.201 213.775 238.351 213.865 239.061H214.765C214.685 237.841 213.745 237.361 212.795 237.361C211.685 237.361 210.965 238.031 210.965 238.791C210.965 239.361 211.235 240.031 212.885 240.271C213.665 240.391 213.875 240.641 213.875 240.971C213.875 241.391 213.535 241.741 212.925 241.741C212.335 241.741 211.845 241.431 211.745 240.851H210.815C210.875 241.991 211.835 242.561 212.945 242.561ZM218.811 242.461H219.781V239.641H221.681C222.951 239.641 223.791 238.761 223.791 237.561C223.791 236.351 222.971 235.441 221.741 235.441L218.811 235.451V242.461ZM219.781 238.781L219.791 236.301H221.521C222.261 236.301 222.821 236.741 222.821 237.551C222.821 238.351 222.261 238.781 221.521 238.781H219.781ZM226.812 235.411C225.602 235.421 224.442 236.221 224.442 237.741C224.442 239.151 225.492 240.051 226.692 240.051C227.402 240.051 228.062 239.721 228.442 239.131V239.371C228.392 240.801 227.872 241.521 226.932 241.611C226.312 241.671 225.632 241.361 225.452 240.571L224.522 240.581C224.672 241.651 225.562 242.461 226.782 242.461C227.872 242.471 229.382 241.891 229.382 238.911C229.382 236.651 228.352 235.411 226.812 235.411ZM226.822 236.301C227.592 236.301 228.182 236.951 228.182 237.691C228.182 238.471 227.582 239.091 226.822 239.091C226.072 239.091 225.492 238.491 225.492 237.711C225.492 236.941 226.052 236.301 226.822 236.301ZM232.455 235.411C231.245 235.421 230.085 236.221 230.085 237.741C230.085 239.151 231.135 240.051 232.335 240.051C233.045 240.051 233.705 239.721 234.085 239.131V239.371C234.035 240.801 233.515 241.521 232.575 241.611C231.955 241.671 231.275 241.361 231.095 240.571L230.165 240.581C230.315 241.651 231.205 242.461 232.425 242.461C233.515 242.471 235.025 241.891 235.025 238.911C235.025 236.651 233.995 235.411 232.455 235.411ZM232.465 236.301C233.235 236.301 233.825 236.951 233.825 237.691C233.825 238.471 233.225 239.091 232.465 239.091C231.715 239.091 231.135 238.491 231.135 237.711C231.135 236.941 231.695 236.301 232.465 236.301Z" fill="#DBDBDC"/>
<g filter="url(#filter0_d)">
<g clip-path="url(#clip0)">
<path d="M212 114.5C212 112.843 213.343 111.5 215 111.5H469C470.657 111.5 472 112.843 472 114.5V220.5C472 222.157 470.657 223.5 469 223.5H215C213.343 223.5 212 222.157 212 220.5V114.5Z" fill="#1D1E1F"/>
<rect x="212" y="111.5" width="260" height="112" fill="url(#paint0_linear)"/>
<path d="M230.786 141.64C231.528 141.64 232.354 141.318 232.858 140.674V141.5H234.412V136.768C234.412 135.382 233.418 134.332 231.64 134.332C229.932 134.332 228.798 135.438 228.672 136.838L230.24 136.824C230.31 136.306 230.73 135.69 231.71 135.69C232.424 135.69 232.858 136.082 232.858 136.53C232.858 137.258 231.864 137.314 230.968 137.398C230.17 137.468 229.498 137.664 229.036 138.028C228.602 138.378 228.42 138.924 228.42 139.526C228.42 140.87 229.54 141.64 230.786 141.64ZM231.038 140.352C230.394 140.31 230.03 139.918 230.03 139.428C230.03 138.882 230.478 138.588 231.248 138.518C231.934 138.462 232.564 138.364 232.872 138.196L232.858 138.826C232.83 139.932 231.808 140.394 231.038 140.352ZM236.263 144.3H237.677V140.506C238.055 141.024 238.769 141.57 239.945 141.57C241.499 141.57 243.109 140.338 243.109 137.958C243.109 135.536 241.373 134.346 239.903 134.346C238.671 134.346 237.873 135.088 237.677 135.466V134.5H236.263V144.3ZM239.623 140.212C238.489 140.212 237.691 139.26 237.691 137.916C237.691 136.642 238.489 135.732 239.623 135.732C240.743 135.732 241.527 136.698 241.527 138.056C241.527 139.316 240.743 140.212 239.623 140.212ZM244.614 144.3H246.028V140.506C246.406 141.024 247.12 141.57 248.296 141.57C249.85 141.57 251.46 140.338 251.46 137.958C251.46 135.536 249.724 134.346 248.254 134.346C247.022 134.346 246.224 135.088 246.028 135.466V134.5H244.614V144.3ZM247.974 140.212C246.84 140.212 246.042 139.26 246.042 137.916C246.042 136.642 246.84 135.732 247.974 135.732C249.094 135.732 249.878 136.698 249.878 138.056C249.878 139.316 249.094 140.212 247.974 140.212Z" fill="white"/>
<path d="M245.802 156.704C236.083 158.866 218.146 167.688 212 173.384V183.554H472V173.384C465.854 173.384 453.883 164.434 447.299 164.434C440.714 164.434 431.495 168.909 426.666 168.909C421.837 168.909 412.618 164.434 406.034 161.179C399.449 157.925 395.083 159.806 390.583 159.806C387.51 159.806 385.683 144.5 380.133 144.5C374.583 144.5 372.278 153.306 370.083 153.306C367.888 153.306 364.329 149.789 361.257 152.229C358.184 154.67 354.798 164.306 341.583 164.306C334.583 164.306 329.583 147.306 320.083 156.704C300.943 175.641 261.083 153.306 245.802 156.704Z" fill="url(#paint1_linear)"/>
<path d="M246.666 169.554C235.583 169.554 218.146 175.232 212 178.22V184.5H472V178.22C465.854 178.22 453.883 173.525 447.299 173.525C440.714 173.525 431.495 175.873 426.666 175.873C421.837 175.873 412.618 173.525 406.034 171.818L380.133 163.069C368.583 159.806 368.583 161.306 361.257 167.124C355.345 171.818 353.173 175.873 345.878 175.873C338.583 175.873 336.775 167.652 329.583 167.124C317.275 166.219 316.083 175.873 305.271 176.775C277.181 179.119 263.583 169.554 246.666 169.554Z" fill="#CA3066"/>
<path d="M232.98 207.5V206.66H231.29V200.52H230.5L228.7 201.87V202.81L230.36 201.6V206.66H228.68V207.5H232.98ZM233.943 207.5H235.053V206.31H233.943V207.5ZM238.176 200.46C236.966 200.47 235.806 201.27 235.806 202.79C235.806 204.2 236.856 205.1 238.056 205.1C238.766 205.1 239.426 204.77 239.806 204.18V204.42C239.756 205.85 239.236 206.57 238.296 206.66C237.676 206.72 236.996 206.41 236.816 205.62L235.886 205.63C236.036 206.7 236.926 207.51 238.146 207.51C239.236 207.52 240.746 206.94 240.746 203.96C240.746 201.7 239.716 200.46 238.176 200.46ZM238.186 201.35C238.956 201.35 239.546 202 239.546 202.74C239.546 203.52 238.946 204.14 238.186 204.14C237.436 204.14 236.856 203.54 236.856 202.76C236.856 201.99 237.416 201.35 238.186 201.35ZM244.128 202.85C243.608 202.85 243.208 202.99 242.828 203.27L243.108 201.42H245.908V200.5H242.358L241.768 204.19H242.798C243.148 203.84 243.538 203.7 243.978 203.7C244.798 203.7 245.388 204.41 245.378 205.23C245.358 206 244.758 206.66 243.948 206.66C243.088 206.66 242.528 206.19 242.498 205.33H241.538C241.538 206.67 242.548 207.57 243.948 207.57C245.308 207.57 246.368 206.56 246.368 205.17C246.368 203.78 245.388 202.85 244.128 202.85ZM250.577 207.51H251.567V204.47H252.997C254.247 204.47 254.347 205.04 254.417 205.99C254.467 206.78 254.457 207.14 254.607 207.5H255.727C255.487 207.06 255.527 206.75 255.447 205.74C255.377 204.87 255.167 204.31 254.507 204.1C255.057 203.91 255.577 203.27 255.577 202.4C255.577 201.31 254.777 200.49 253.527 200.49L250.577 200.5V207.51ZM251.567 203.61V201.35H253.307C254.057 201.35 254.597 201.69 254.597 202.48C254.597 203.25 254.027 203.61 253.307 203.61H251.567ZM257.196 207.51H258.166V204.69H260.066C261.336 204.69 262.176 203.81 262.176 202.61C262.176 201.4 261.356 200.49 260.126 200.49L257.196 200.5V207.51ZM258.166 203.83L258.176 201.35H259.906C260.646 201.35 261.206 201.79 261.206 202.6C261.206 203.4 260.646 203.83 259.906 203.83H258.166ZM265.777 207.57C267.277 207.57 268.347 206.77 268.347 205.51C268.347 204.47 267.747 203.72 265.767 203.47C264.857 203.35 264.237 203.02 264.237 202.41C264.237 201.91 264.717 201.41 265.567 201.41C266.427 201.41 267.077 201.85 267.137 202.66H268.197C268.147 201.28 267.157 200.44 265.567 200.44C264.157 200.44 263.117 201.34 263.117 202.44C263.117 203.41 263.817 204.2 265.827 204.44C266.867 204.57 267.227 204.92 267.227 205.5C267.227 206.08 266.717 206.63 265.797 206.63C264.817 206.63 264.207 206.15 264.047 205.34H262.927C263.037 206.84 264.387 207.57 265.777 207.57Z" fill="white"/>
<path d="M289.98 207.5V206.66H288.29V200.52H287.5L285.7 201.87V202.81L287.36 201.6V206.66H285.68V207.5H289.98ZM293.783 207.59C295.433 207.59 296.523 206.12 296.523 204.01C296.523 201.9 295.443 200.43 293.803 200.43C292.153 200.43 291.073 201.9 291.073 204.03C291.073 206.13 292.143 207.59 293.783 207.59ZM293.803 206.72C292.733 206.72 292.063 205.62 292.063 203.97C292.063 202.36 292.703 201.3 293.773 201.3C294.853 201.3 295.533 202.42 295.533 204.04C295.533 205.63 294.863 206.72 293.803 206.72ZM300.206 207.59C301.856 207.59 302.946 206.12 302.946 204.01C302.946 201.9 301.866 200.43 300.226 200.43C298.576 200.43 297.496 201.9 297.496 204.03C297.496 206.13 298.566 207.59 300.206 207.59ZM300.226 206.72C299.156 206.72 298.486 205.62 298.486 203.97C298.486 202.36 299.126 201.3 300.196 201.3C301.276 201.3 301.956 202.42 301.956 204.04C301.956 205.63 301.286 206.72 300.226 206.72ZM304.02 207.5H305.01L310.17 200H309.18L304.02 207.5ZM305.48 202.76C306.2 202.76 306.78 202.16 306.78 201.41C306.78 200.66 306.2 200.06 305.48 200.06C304.76 200.06 304.18 200.66 304.18 201.41C304.18 202.16 304.76 202.76 305.48 202.76ZM305.48 202.05C305.17 202.05 304.93 201.77 304.93 201.42C304.93 201.07 305.17 200.8 305.48 200.8C305.79 200.8 306.04 201.07 306.04 201.42C306.04 201.77 305.79 202.05 305.48 202.05ZM308.77 207.52C309.49 207.52 310.07 206.92 310.07 206.17C310.07 205.42 309.49 204.82 308.77 204.82C308.05 204.82 307.47 205.42 307.47 206.17C307.47 206.92 308.05 207.52 308.77 207.52ZM308.77 206.81C308.46 206.81 308.22 206.53 308.22 206.18C308.22 205.83 308.46 205.56 308.77 205.56C309.08 205.56 309.33 205.83 309.33 206.18C309.33 206.53 309.08 206.81 308.77 206.81ZM314.56 207.5H319.09V206.54H315.53V204.42H318.88V203.49H315.53V201.46H319.09V200.5H314.56V207.5ZM320.349 207.51H321.339V204.47H322.769C324.019 204.47 324.119 205.04 324.189 205.99C324.239 206.78 324.229 207.14 324.379 207.5H325.499C325.259 207.06 325.299 206.75 325.219 205.74C325.149 204.87 324.939 204.31 324.279 204.1C324.829 203.91 325.349 203.27 325.349 202.4C325.349 201.31 324.549 200.49 323.299 200.49L320.349 200.5V207.51ZM321.339 203.61V201.35H323.079C323.829 201.35 324.369 201.69 324.369 202.48C324.369 203.25 323.799 203.61 323.079 203.61H321.339Z" fill="white"/>
<path d="M345.74 207.6C347.24 207.6 348.11 206.65 348.11 205.56C348.11 204.73 347.61 204.03 346.84 203.76C347.34 203.61 347.95 203.06 347.95 202.23C347.95 201.19 347.02 200.43 345.71 200.43C344.41 200.43 343.53 201.18 343.53 202.23C343.53 202.94 343.99 203.55 344.62 203.76C343.88 204.03 343.38 204.71 343.38 205.54C343.38 206.65 344.22 207.6 345.74 207.6ZM345.73 203.32C345.03 203.32 344.52 202.88 344.52 202.26C344.52 201.73 344.99 201.25 345.72 201.25C346.45 201.25 346.95 201.74 346.95 202.27C346.95 202.88 346.43 203.32 345.73 203.32ZM345.73 206.74C344.93 206.74 344.4 206.23 344.4 205.54C344.4 204.83 344.94 204.3 345.72 204.3C346.5 204.3 347.09 204.84 347.09 205.54C347.09 206.22 346.53 206.74 345.73 206.74ZM349.303 207.5H350.263V204.92C350.263 203.87 350.793 203.23 351.493 203.23C352.103 203.23 352.553 203.64 352.553 204.53V207.5H353.583V204.92C353.583 203.87 354.113 203.23 354.813 203.23C355.423 203.23 355.873 203.64 355.873 204.53V207.5H356.903V204.43C356.903 202.84 355.783 202.37 355.003 202.37C354.213 202.37 353.643 202.78 353.313 203.34C352.793 202.4 351.943 202.37 351.703 202.37C350.903 202.37 350.463 202.84 350.263 203.15V202.5H349.303V207.5ZM360.084 207.61C361.074 207.61 362.014 207.01 362.014 206.02C362.014 205.23 361.534 204.71 360.024 204.51C359.374 204.42 359.074 204.18 359.074 203.85C359.074 203.45 359.514 203.25 359.954 203.25C360.354 203.25 360.914 203.4 361.004 204.11H361.904C361.824 202.89 360.884 202.41 359.934 202.41C358.824 202.41 358.104 203.08 358.104 203.84C358.104 204.41 358.374 205.08 360.024 205.32C360.804 205.44 361.014 205.69 361.014 206.02C361.014 206.44 360.674 206.79 360.064 206.79C359.474 206.79 358.984 206.48 358.884 205.9H357.954C358.014 207.04 358.974 207.61 360.084 207.61ZM365.95 207.5H366.95V202.27L368.96 207.5H369.87L371.85 202.29V207.5H372.81V200.5H371.6L369.43 206.17L367.2 200.5H365.95V207.5ZM374.513 207.5H379.043V206.54H375.483V204.42H378.833V203.49H375.483V201.46H379.043V200.5H374.513V207.5ZM380.302 207.52L382.922 207.5C384.762 207.49 386.112 206.03 386.112 203.95C386.112 201.9 384.722 200.46 382.822 200.48L380.302 200.5V207.52ZM381.252 206.56V201.48L382.822 201.46C384.132 201.44 385.112 202.46 385.112 203.99C385.112 205.51 384.112 206.53 382.782 206.54L381.252 206.56Z" fill="white"/>
<path d="M405.66 200.46C404.45 200.47 403.29 201.27 403.29 202.79C403.29 204.2 404.34 205.1 405.54 205.1C406.25 205.1 406.91 204.77 407.29 204.18V204.42C407.24 205.85 406.72 206.57 405.78 206.66C405.16 206.72 404.48 206.41 404.3 205.62L403.37 205.63C403.52 206.7 404.41 207.51 405.63 207.51C406.72 207.52 408.23 206.94 408.23 203.96C408.23 201.7 407.2 200.46 405.66 200.46ZM405.67 201.35C406.44 201.35 407.03 202 407.03 202.74C407.03 203.52 406.43 204.14 405.67 204.14C404.92 204.14 404.34 203.54 404.34 202.76C404.34 201.99 404.9 201.35 405.67 201.35ZM409.333 207.5H410.293V204.92C410.293 203.87 410.823 203.23 411.523 203.23C412.133 203.23 412.583 203.64 412.583 204.53V207.5H413.613V204.92C413.613 203.87 414.143 203.23 414.843 203.23C415.453 203.23 415.903 203.64 415.903 204.53V207.5H416.933V204.43C416.933 202.84 415.813 202.37 415.033 202.37C414.243 202.37 413.673 202.78 413.343 203.34C412.823 202.4 411.973 202.37 411.733 202.37C410.933 202.37 410.493 202.84 410.293 203.15V202.5H409.333V207.5ZM420.113 207.61C421.103 207.61 422.043 207.01 422.043 206.02C422.043 205.23 421.563 204.71 420.053 204.51C419.403 204.42 419.103 204.18 419.103 203.85C419.103 203.45 419.543 203.25 419.983 203.25C420.383 203.25 420.943 203.4 421.033 204.11H421.933C421.853 202.89 420.913 202.41 419.963 202.41C418.853 202.41 418.133 203.08 418.133 203.84C418.133 204.41 418.403 205.08 420.053 205.32C420.833 205.44 421.043 205.69 421.043 206.02C421.043 206.44 420.703 206.79 420.093 206.79C419.503 206.79 419.013 206.48 418.913 205.9H417.983C418.043 207.04 419.003 207.61 420.113 207.61ZM425.979 207.51H426.949V204.69H428.849C430.119 204.69 430.959 203.81 430.959 202.61C430.959 201.4 430.139 200.49 428.909 200.49L425.979 200.5V207.51ZM426.949 203.83L426.959 201.35H428.689C429.429 201.35 429.989 201.79 429.989 202.6C429.989 203.4 429.429 203.83 428.689 203.83H426.949ZM433.98 200.46C432.77 200.47 431.61 201.27 431.61 202.79C431.61 204.2 432.66 205.1 433.86 205.1C434.57 205.1 435.23 204.77 435.61 204.18V204.42C435.56 205.85 435.04 206.57 434.1 206.66C433.48 206.72 432.8 206.41 432.62 205.62L431.69 205.63C431.84 206.7 432.73 207.51 433.95 207.51C435.04 207.52 436.55 206.94 436.55 203.96C436.55 201.7 435.52 200.46 433.98 200.46ZM433.99 201.35C434.76 201.35 435.35 202 435.35 202.74C435.35 203.52 434.75 204.14 433.99 204.14C433.24 204.14 432.66 203.54 432.66 202.76C432.66 201.99 433.22 201.35 433.99 201.35ZM439.623 200.46C438.413 200.47 437.253 201.27 437.253 202.79C437.253 204.2 438.303 205.1 439.503 205.1C440.213 205.1 440.873 204.77 441.253 204.18V204.42C441.203 205.85 440.683 206.57 439.743 206.66C439.123 206.72 438.443 206.41 438.263 205.62L437.333 205.63C437.483 206.7 438.373 207.51 439.593 207.51C440.683 207.52 442.193 206.94 442.193 203.96C442.193 201.7 441.163 200.46 439.623 200.46ZM439.633 201.35C440.403 201.35 440.993 202 440.993 202.74C440.993 203.52 440.393 204.14 439.633 204.14C438.883 204.14 438.303 203.54 438.303 202.76C438.303 201.99 438.863 201.35 439.633 201.35Z" fill="white"/>
</g>
</g>
<defs>
<filter id="filter0_d" x="188" y="91.5" width="308" height="160" filterUnits="userSpaceOnUse" color-interpolation-filters="sRGB">
<feFlood flood-opacity="0" result="BackgroundImageFix"/>
<feColorMatrix in="SourceAlpha" type="matrix" values="0 0 0 0 0 0 0 0 0 0 0 0 0 0 0 0 0 0 127 0" result="hardAlpha"/>
<feOffset dy="4"/>
<feGaussianBlur stdDeviation="12"/>
<feComposite in2="hardAlpha" operator="out"/>
<feColorMatrix type="matrix" values="0 0 0 0 0 0 0 0 0 0 0 0 0 0 0 0 0 0 1 0"/>
<feBlend mode="normal" in2="BackgroundImageFix" result="effect1_dropShadow"/>
<feBlend mode="normal" in="SourceGraphic" in2="effect1_dropShadow" result="shape"/>
</filter>
<linearGradient id="paint0_linear" x1="212" y1="236.584" x2="427.598" y2="49.8453" gradientUnits="userSpaceOnUse">
<stop/>
<stop offset="1" stop-color="#1D1E1F"/>
</linearGradient>
<linearGradient id="paint1_linear" x1="368.925" y1="144.445" x2="351.1" y2="236.105" gradientUnits="userSpaceOnUse">
<stop offset="0.118818" stop-color="#343536"/>
<stop offset="1" stop-color="#1D1E1F" stop-opacity="0"/>
</linearGradient>
<clipPath id="clip0">
<path d="M212 114.5C212 112.843 213.343 111.5 215 111.5H469C470.657 111.5 472 112.843 472 114.5V220.5C472 222.157 470.657 223.5 469 223.5H215C213.343 223.5 212 222.157 212 220.5V114.5Z" fill="white"/>
</clipPath>
</defs>
</svg>
