<svg version="1.1" viewBox="0.0 0.0 960.0 540.0" fill="none" stroke="none" stroke-linecap="square" stroke-miterlimit="10" xmlns:xlink="http://www.w3.org/1999/xlink" xmlns="http://www.w3.org/2000/svg"><clipPath id="g1470471b5e9_0_1906.0"><path d="m0 0l960.0 0l0 540.0l-960.0 0l0 -540.0z" clip-rule="nonzero"/></clipPath><g clip-path="url(#g1470471b5e9_0_1906.0)"><path fill="#ffffff" d="m0 0l960.0 0l0 540.0l-960.0 0z" fill-rule="evenodd"/><path fill="#e03875" fill-opacity="0.0562" d="m263.27298 122.11338l0 0c0 -2.0282288 1.6441956 -3.672432 3.6724243 -3.672432l110.13544 0c0.973999 0 1.908081 0.38690948 2.5968018 1.0756302c0.6887207 0.6887131 1.0756531 1.6228104 1.0756531 2.5968018l0 295.77325c0 2.0282288 -1.6442261 3.6724243 -3.6724548 3.6724243l-110.13544 0l0 0c-2.0282288 0 -3.6724243 -1.6441956 -3.6724243 -3.6724243z" fill-rule="evenodd"/><path fill="#e03875" fill-opacity="0.0562" d="m263.27298 127.91642l0 0c0 -5.233162 4.2423096 -9.4754715 9.475464 -9.4754715l499.8207 0c2.5130615 0 4.9231567 0.99829865 6.7001953 2.775299c1.7769775 1.7769928 2.7752686 4.1871185 2.7752686 6.7001724l0 284.16718c0 5.2331543 -4.2423096 9.475464 -9.475464 9.475464l-499.8207 0c-5.2331543 0 -9.475464 -4.2423096 -9.475464 -9.475464z" fill-rule="evenodd"/><path fill="#e03875" fill-opacity="0.0562" d="m263.27298 122.11338l0 0c0 -2.0282288 1.6441956 -3.672432 3.6724243 -3.672432l110.13544 0c0.973999 0 1.908081 0.38690948 2.5968018 1.0756302c0.6887207 0.6887131 1.0756531 1.6228104 1.0756531 2.5968018l0 295.77325c0 2.0282288 -1.6442261 3.6724243 -3.6724548 3.6724243l-110.13544 0l0 0c-2.0282288 0 -3.6724243 -1.6441956 -3.6724243 -3.6724243z" fill-rule="evenodd"/><path fill="#ffffff" d="m681.01587 145.97144l0 0c0 -0.6185303 0.50146484 -1.1199493 1.1199951 -1.1199493l38.075012 0c0.2970581 0 0.5819092 0.117996216 0.79193115 0.3280182c0.21002197 0.21003723 0.32806396 0.49490356 0.32806396 0.79193115l0 38.075058c0 0.6185303 -0.50146484 1.1199493 -1.1199951 1.1199493l-38.075012 0c-0.6185303 0 -1.1199951 -0.50141907 -1.1199951 -1.1199493z" fill-rule="evenodd"/><path stroke="#d6d6d6" stroke-width="1.0" stroke-miterlimit="400.0" stroke-linecap="butt" d="m681.01587 145.97144l0 0c0 -0.6185303 0.50146484 -1.1199493 1.1199951 -1.1199493l38.075012 0c0.2970581 0 0.5819092 0.117996216 0.79193115 0.3280182c0.21002197 0.21003723 0.32806396 0.49490356 0.32806396 0.79193115l0 38.075058c0 0.6185303 -0.50146484 1.1199493 -1.1199951 1.1199493l-38.075012 0c-0.6185303 0 -1.1199951 -0.50141907 -1.1199951 -1.1199493z" fill-rule="evenodd"/><path fill="#000000" fill-opacity="0.0" d="m665.00275 187.46898l72.346436 0l0 33.889755l-72.346436 0z" fill-rule="evenodd"/><path fill="#000000" d="m689.39276 192.42648l0 1.578125l-2.5625 0l0 6.984375l-1.890625 0l0 -6.984375l-2.5625 0l0 -1.578125l7.015625 0zm2.4570312 2.1875q1.375 0 2.046875 0.453125q0.671875 0.453125 0.671875 1.28125l0 3.328125q0 0.375 0.046875 0.75q0.046875 0.375 0.171875 0.5625l-1.734375 0q-0.046875 -0.140625 -0.078125 -0.28125q-0.03125 -0.15625 -0.046875 -0.3125q-0.359375 0.375 -0.890625 0.578125q-0.515625 0.1875 -1.1875 0.1875q-0.96875 0 -1.546875 -0.484375q-0.5625 -0.484375 -0.5625 -1.375q0 -0.875 0.53125 -1.328125q0.546875 -0.46875 1.96875 -0.625q0.984375 -0.09375 1.296875 -0.234375q0.328125 -0.15625 0.328125 -0.53125q0 -0.40625 -0.25 -0.609375q-0.234375 -0.21875 -0.84375 -0.21875q-0.53125 0 -0.8125 0.234375q-0.28125 0.21875 -0.328125 0.703125l-1.703125 0q0.0625 -1.015625 0.828125 -1.546875q0.78125 -0.53125 2.09375 -0.53125zm-1.40625 4.609375q0 0.375 0.25 0.59375q0.25 0.203125 0.796875 0.203125q0.671875 0 1.015625 -0.359375q0.359375 -0.359375 0.359375 -1.046875l0 -0.65625q-0.15625 0.125 -0.40625 0.1875q-0.25 0.046875 -0.890625 0.140625q-0.59375 0.078125 -0.859375 0.3125q-0.265625 0.21875 -0.265625 0.625zm7.984375 -4.609375q1.265625 0 1.953125 0.5q0.703125 0.5 0.796875 1.484375l-1.625 0q-0.046875 -0.4375 -0.34375 -0.640625q-0.28125 -0.203125 -0.828125 -0.203125q-0.484375 0 -0.71875 0.15625q-0.21875 0.140625 -0.21875 0.421875q0 0.28125 0.296875 0.46875q0.296875 0.1875 1.1875 0.359375q1.421875 0.265625 1.90625 0.703125q0.5 0.4375 0.5 1.140625q0 1.046875 -0.78125 1.609375q-0.765625 0.546875 -2.046875 0.546875q-1.296875 0 -2.078125 -0.546875q-0.78125 -0.546875 -0.84375 -1.640625l1.625 0q0 0.484375 0.375 0.765625q0.375 0.28125 0.9375 0.28125q0.5 0 0.796875 -0.21875q0.3125 -0.21875 0.3125 -0.578125q0 -0.328125 -0.40625 -0.53125q-0.390625 -0.203125 -1.46875 -0.421875q-1.078125 -0.21875 -1.546875 -0.609375q-0.46875 -0.390625 -0.46875 -1.0625q0 -0.984375 0.6875 -1.484375q0.703125 -0.5 2.0 -0.5zm5.7734375 -2.1875l0 4.59375l2.140625 -2.234375l2.015625 0l-2.34375 2.28125l2.609375 3.921875l-2.0625 0l-1.703125 -2.765625l-0.65625 0.625l0 2.140625l-1.71875 0l0 -8.5625l1.71875 0zm12.802734 0l3.203125 8.5625l-1.953125 0l-0.640625 -1.90625l-3.203125 0l-0.671875 1.90625l-1.90625 0l3.25 -8.5625l1.921875 0zm-0.984375 2.109375l-1.125 3.140625l2.21875 0l-1.078125 -3.140625l-0.015625 0z" fill-rule="nonzero"/><path fill="#000000" d="m700.92786 158.07343l-7.247986 3.6246796c-0.184021 0.092422485 -0.2946167 0.2700348 -0.2946167 0.47583008c0 0.20649719 0.1105957 0.38412476 0.2946167 0.47583008l7.247986 3.6253967c0.07635498 0.038269043 0.16589355 0.067871094 0.2487793 0.067871094c0.08294678 0 0.17248535 -0.02960205 0.24884033 -0.067871094l7.247925 -3.6253967c0.18408203 -0.09170532 0.29467773 -0.2693329 0.29467773 -0.47583008c0 -0.20579529 -0.1105957 -0.3834076 -0.29467773 -0.47583008l-7.247925 -3.6246796c-0.152771 -0.076538086 -0.34484863 -0.076538086 -0.49761963 0zm0.2487793 1.0874023l6.0249634 3.0131073c0 0 -6.0249634 3.0138245 -6.0249634 3.0138245l-6.0249023 -3.0138245l6.0249023 -3.0131073zm-6.998352 6.162674c-0.26849365 -0.13285828 -0.5908203 -0.041885376 -0.72540283 0.22671509c-0.1338501 0.26860046 -0.042175293 0.5906372 0.22698975 0.72494507l7.247986 3.6246796c0.07635498 0.038253784 0.16589355 0.067871094 0.2487793 0.067871094c0.08294678 0 0.17248535 -0.02961731 0.24884033 -0.067871094l7.247925 -3.6246796c0.26922607 -0.13430786 0.36090088 -0.4563446 0.22705078 -0.72494507c-0.13464355 -0.26860046 -0.45544434 -0.35957336 -0.72540283 -0.22671509l-6.998413 3.488922l-6.998352 -3.488922zm0 3.6246796c-0.26849365 -0.13285828 -0.5908203 -0.041168213 -0.72540283 0.22671509c-0.1338501 0.26860046 -0.042175293 0.5906372 0.22698975 0.72494507l7.247986 3.6253967c0.07635498 0.038269043 0.16589355 0.067871094 0.2487793 0.067871094c0.08294678 0 0.17248535 -0.02960205 0.24884033 -0.067871094l7.247925 -3.6253967c0.26922607 -0.13430786 0.36090088 -0.4563446 0.22705078 -0.72494507c-0.13464355 -0.2678833 -0.45544434 -0.35957336 -0.72540283 -0.22671509l-6.998413 3.4896545l-6.998352 -3.4896545z" fill-rule="evenodd"/><path fill="#000000" fill-opacity="0.0" d="m225.35223 259.96375l38.551178 0" fill-rule="evenodd"/><path stroke="#e03875" stroke-width="3.0" stroke-linejoin="round" stroke-linecap="round" d="m225.35223 259.96375l38.551178 0" fill-rule="evenodd"/><path fill="#dc477d" d="m177.95393 237.5813l0 0c0 -0.72720337 0.5895233 -1.3167114 1.3167267 -1.3167114l44.764847 0c0.3492279 0 0.6841278 0.13871765 0.9310608 0.38565063c0.24694824 0.24693298 0.3856659 0.58184814 0.3856659 0.9310608l0 44.764862c0 0.72720337 -0.5895233 1.3167114 -1.3167267 1.3167114l-44.764847 0c-0.72720337 0 -1.3167267 -0.58950806 -1.3167267 -1.3167114z" fill-rule="evenodd"/><path fill="#ffffff" d="m201.78821 273.22552c-7.30159 0.006072998 -13.22554 -5.9269104 -13.231506 -13.251404c-0.0059509277 -7.3245697 5.9083405 -13.26709 13.209915 -13.273071c3.3214417 -0.0027008057 6.5222015 1.2487793 8.9657135 3.5056l0 0l-3.1374512 3.2925568l0 0c-3.5601501 -3.2272644 -9.054245 -2.9483032 -12.271423 0.6230469c-3.2171478 3.5713196 -2.939087 9.082703 0.62109375 12.309967c3.308136 2.9988098 8.342178 2.9988098 11.65033 0l0 0l3.1374512 3.2925415l0 0c-2.4363403 2.2539673 -5.629944 3.5039062 -8.944122 3.500763z" fill-rule="evenodd"/><path fill="#ffffff" d="m212.42657 266.59198c-0.59846497 0 -1.0836182 -0.48666382 -1.0836182 -1.0870056c0 -0.6003723 0.4851532 -1.0870361 1.0836182 -1.0870361c0.598526 0 1.0836334 0.48666382 1.0836334 1.0870361c-0.0014648438 0.5997925 -0.48582458 1.0856934 -1.0836334 1.0870056z" fill-rule="evenodd"/><path fill="#ffffff" d="m201.70372 262.83704c-1.5807953 0 -2.8623047 -1.285553 -2.8623047 -2.8713074c0 -1.5857849 1.2815094 -2.8713074 2.8623047 -2.8713074c1.5808258 0 2.86232 1.2855225 2.86232 2.8713074c-0.0013275146 1.5852051 -1.2820435 2.8699646 -2.86232 2.8713074z" fill-rule="evenodd"/><path fill="#ffffff" d="m213.66708 262.87817c-0.598526 0 -1.0836334 -0.48666382 -1.0836334 -1.0870056c0 -0.6003723 0.48510742 -1.0870361 1.0836334 -1.0870361c0.598526 0 1.0836182 0.48666382 1.0836182 1.0870361c-0.001449585 0.5997925 -0.48580933 1.0856934 -1.0836182 1.0870056z" fill-rule="evenodd"/><path fill="#ffffff" d="m210.44754 262.7547c-0.59846497 0 -1.0836182 -0.48666382 -1.0836182 -1.0870056c0 -0.6003723 0.4851532 -1.0870361 1.0836182 -1.0870361c0.5984802 0 1.0836334 0.48666382 1.0836334 1.0870361c0 0.6003418 -0.4851532 1.0870056 -1.0836334 1.0870056z" fill-rule="evenodd"/><path fill="#ffffff" d="m213.66708 259.22488c-0.598526 0 -1.0836334 -0.48666382 -1.0836334 -1.0870056c0 -0.60040283 0.48510742 -1.0870667 1.0836334 -1.0870667c0.598526 0 1.0836182 0.48666382 1.0836182 1.0870667c-0.001449585 0.5997925 -0.48580933 1.0856628 -1.0836182 1.0870056z" fill-rule="evenodd"/><path fill="#ffffff" d="m210.44754 259.34836c-0.59846497 0 -1.0836182 -0.48669434 -1.0836182 -1.0870056c0 -0.6003723 0.48518372 -1.0870361 1.0836182 -1.0870361c0.5984802 0 1.0836334 0.48669434 1.0836334 1.0870361c0 7.9345703E-4 0 0.0016174316 0 0.0024108887c-0.0013275146 0.59942627 -0.48608398 1.0845947 -1.0836334 1.0845947z" fill-rule="evenodd"/><path fill="#ffffff" d="m212.4893 255.56918c-0.5984497 0.0013427734 -1.0847168 -0.48425293 -1.0860443 -1.08461c-0.0013122559 -0.60032654 0.48275757 -1.0881195 1.0812225 -1.089447c0.598526 -0.0013275146 1.0845795 0.48428345 1.086029 1.08461c0 7.9345703E-4 0 0.0016326904 0 0.0024261475c0 0.599411 -0.48364258 1.0856934 -1.0812073 1.0870209z" fill-rule="evenodd"/><path fill="#ffffff" d="m306.59576 177.22292l0 0c0 -0.6185303 0.5014038 -1.1199493 1.1199341 -1.1199493l38.075073 0c0.2970276 0 0.58187866 0.11798096 0.79193115 0.3280182c0.21002197 0.21003723 0.32800293 0.49490356 0.32800293 0.79193115l0 38.075058c0 0.6185303 -0.5014038 1.1199493 -1.1199341 1.1199493l-38.075073 0c-0.6185303 0 -1.1199341 -0.50141907 -1.1199341 -1.1199493z" fill-rule="evenodd"/><path stroke="#d6d6d6" stroke-width="1.0" stroke-miterlimit="400.0" stroke-linecap="butt" d="m306.59576 177.22292l0 0c0 -0.6185303 0.5014038 -1.1199493 1.1199341 -1.1199493l38.075073 0c0.2970276 0 0.58187866 0.11798096 0.79193115 0.3280182c0.21002197 0.21003723 0.32800293 0.49490356 0.32800293 0.79193115l0 38.075058c0 0.6185303 -0.5014038 1.1199493 -1.1199341 1.1199493l-38.075073 0c-0.6185303 0 -1.1199341 -0.50141907 -1.1199341 -1.1199493z" fill-rule="evenodd"/><path fill="#000000" fill-opacity="0.0" d="m290.5826 218.72046l72.346436 0l0 33.889755l-72.346436 0z" fill-rule="evenodd"/><path fill="#000000" d="m303.45505 223.47482q1.546875 0 2.484375 0.71875q0.9375 0.71875 0.9375 2.03125l-1.8125 0q-0.046875 -0.640625 -0.453125 -0.96875q-0.390625 -0.328125 -1.234375 -0.328125q-0.578125 0 -0.953125 0.265625q-0.359375 0.25 -0.359375 0.71875q0 0.3125 0.15625 0.46875q0.15625 0.15625 0.625 0.34375q0.46875 0.171875 2.0625 0.546875q1.0625 0.25 1.65625 0.875q0.609375 0.609375 0.609375 1.546875q0 1.25 -0.9375 2.0q-0.9375 0.75 -2.625 0.75q-1.609375 0 -2.640625 -0.796875q-1.015625 -0.796875 -1.015625 -2.203125l0 -0.046875l1.828125 0q0 0.796875 0.515625 1.1875q0.53125 0.390625 1.375 0.390625q0.765625 0 1.21875 -0.265625q0.453125 -0.28125 0.453125 -0.796875q0 -0.421875 -0.359375 -0.6875q-0.34375 -0.265625 -1.109375 -0.453125q-0.984375 -0.21875 -1.78125 -0.46875q-0.796875 -0.25 -1.328125 -0.8125q-0.53125 -0.5625 -0.53125 -1.4375q0 -1.15625 0.921875 -1.859375q0.9375 -0.71875 2.296875 -0.71875zm7.5214844 2.390625q1.375 0 2.203125 0.953125q0.828125 0.9375 0.828125 2.421875l-0.015625 0.3125l-4.484375 0q0.046875 0.796875 0.421875 1.1875q0.390625 0.390625 1.09375 0.390625q0.46875 0 0.859375 -0.234375q0.390625 -0.25 0.5 -0.578125l1.5 0q-0.34375 1.046875 -1.0625 1.578125q-0.71875 0.515625 -1.84375 0.515625q-1.4375 0 -2.3125 -0.90625q-0.859375 -0.90625 -0.859375 -2.359375q0 -1.390625 0.890625 -2.328125q0.890625 -0.953125 2.28125 -0.953125zm-1.46875 2.609375l2.78125 0q-0.125 -0.6875 -0.453125 -1.0q-0.3125 -0.328125 -0.921875 -0.328125q-0.609375 0 -0.984375 0.359375q-0.359375 0.34375 -0.421875 0.96875zm9.109375 -2.609375q0.109375 0 0.203125 0.015625q0.09375 0.015625 0.171875 0.046875l0 1.578125q-0.140625 -0.03125 -0.28125 -0.03125q-0.140625 -0.015625 -0.328125 -0.015625q-0.859375 0 -1.28125 0.53125q-0.40625 0.515625 -0.40625 1.40625l0 2.84375l-1.6875 0l0 -6.203125l1.609375 0l0 1.15625l0.03125 0q0.265625 -0.609375 0.796875 -0.96875q0.546875 -0.359375 1.171875 -0.359375zm2.3945312 0.171875l1.3125 4.234375l0.03125 0l1.296875 -4.234375l1.703125 0l-2.109375 6.203125l-1.890625 0l-2.125 -6.203125l1.78125 0zm6.8027344 -2.359375l0 1.390625l-1.703125 0l0 -1.390625l1.703125 0zm0 2.359375l0 6.203125l-1.703125 0l0 -6.203125l1.703125 0zm4.3125 -0.171875q1.203125 0 2.015625 0.625q0.828125 0.625 0.90625 1.734375l-1.671875 0q-0.078125 -0.53125 -0.40625 -0.796875q-0.3125 -0.28125 -0.859375 -0.28125q-0.6875 0 -1.078125 0.5625q-0.375 0.5625 -0.375 1.453125q0 0.890625 0.375 1.4375q0.375 0.53125 1.046875 0.53125q0.5625 0 0.90625 -0.328125q0.359375 -0.328125 0.453125 -0.9375l1.640625 0q-0.171875 1.21875 -0.96875 1.890625q-0.78125 0.65625 -2.015625 0.65625q-1.390625 0 -2.265625 -0.890625q-0.875 -0.890625 -0.875 -2.296875q0 -1.5 0.859375 -2.421875q0.859375 -0.9375 2.3125 -0.9375zm6.78125 0q1.375 0 2.203125 0.953125q0.828125 0.9375 0.828125 2.421875l-0.015625 0.3125l-4.484375 0q0.046875 0.796875 0.421875 1.1875q0.390625 0.390625 1.09375 0.390625q0.46875 0 0.859375 -0.234375q0.390625 -0.25 0.5 -0.578125l1.5 0q-0.34375 1.046875 -1.0625 1.578125q-0.71875 0.515625 -1.84375 0.515625q-1.4375 0 -2.3125 -0.90625q-0.859375 -0.90625 -0.859375 -2.359375q0 -1.390625 0.890625 -2.328125q0.890625 -0.953125 2.28125 -0.953125zm-1.46875 2.609375l2.78125 0q-0.125 -0.6875 -0.453125 -1.0q-0.3125 -0.328125 -0.921875 -0.328125q-0.609375 0 -0.984375 0.359375q-0.359375 0.34375 -0.421875 0.96875zm13.271484 -4.796875l3.203125 8.5625l-1.953125 0l-0.640625 -1.90625l-3.203125 0l-0.671875 1.90625l-1.90625 0l3.25 -8.5625l1.921875 0zm-0.984375 2.109375l-1.125 3.140625l2.21875 0l-1.078125 -3.140625l-0.015625 0z" fill-rule="nonzero"/><path fill="#000000" d="m319.3214 192.34744c0 -0.0070343018 0.0024108887 -0.0140686035 0.0024108887 -0.021118164l6.8286133 3.4910126l0 8.492615l-6.278839 -3.2103577c-0.34332275 -0.1768341 -0.5553894 -0.5313873 -0.55218506 -0.9290619c0 0 0 -7.8230896 0 -7.8230896zm6.987091 -4.2071533c0.14004517 -0.071258545 0.29370117 -0.10733032 0.44735718 -0.10733032c0.15362549 0 0.3072815 0.036071777 0.4465332 0.10733032l6.238037 3.1892395l-6.6845703 3.417984l-6.6853943 -3.417984c0 0 6.238037 -3.1892395 6.238037 -3.1892395zm7.8785706 4.186035c0 0.0070495605 0.0032043457 0.013198853 0.0032043457 0.020233154l0 7.831894c-7.9345703E-4 0.39239502 -0.21447754 0.7451782 -0.5593872 0.92025757l-6.272461 3.206833l0 -8.488205c0 0 6.828644 -3.4910126 6.828644 -3.4910126zm-14.853668 9.874771l6.4293213 3.2877655c0.30969238 0.15837097 0.6498108 0.23754883 0.9891052 0.23754883c0.33932495 0 0.67944336 -0.07917786 0.98913574 -0.23754883l6.4284973 -3.2868958c0.75546265 -0.38446045 1.2260132 -1.1595612 1.2260132 -2.0235138l0 -7.831894c0 -0.86395264 -0.47055054 -1.6390381 -1.2251892 -2.0226288l-6.4293213 -3.2868958c-7.9345703E-4 0 -7.9345703E-4 -8.8500977E-4 -0.0015869141 -8.8500977E-4c-0.6154175 -0.3132019 -1.3508606 -0.3132019 -1.9686584 8.8500977E-4l-6.4284973 3.2860107c-0.7562561 0.3844757 -1.2260132 1.1595612 -1.2268066 2.0235138l0 7.81958c-0.0056152344 0.8657074 0.46014404 1.6452026 1.2179871 2.034958z" fill-rule="evenodd"/><path fill="#ffffff" d="m306.59576 268.43683l0 0c0 -0.6185303 0.5014038 -1.1199646 1.1199341 -1.1199646l38.075073 0c0.2970276 0 0.58187866 0.118011475 0.79193115 0.32803345c0.21002197 0.21002197 0.32800293 0.49490356 0.32800293 0.79193115l0 38.075043c0 0.6185303 -0.5014038 1.1199646 -1.1199341 1.1199646l-38.075073 0c-0.6185303 0 -1.1199341 -0.5014343 -1.1199341 -1.1199646z" fill-rule="evenodd"/><path stroke="#d6d6d6" stroke-width="1.0" stroke-miterlimit="400.0" stroke-linecap="butt" d="m306.59576 268.43683l0 0c0 -0.6185303 0.5014038 -1.1199646 1.1199341 -1.1199646l38.075073 0c0.2970276 0 0.58187866 0.118011475 0.79193115 0.32803345c0.21002197 0.21002197 0.32800293 0.49490356 0.32800293 0.79193115l0 38.075043c0 0.6185303 -0.5014038 1.1199646 -1.1199341 1.1199646l-38.075073 0c-0.6185303 0 -1.1199341 -0.5014343 -1.1199341 -1.1199646z" fill-rule="evenodd"/><path fill="#000000" fill-opacity="0.0" d="m290.5826 309.93436l72.346436 0l0 33.88977l-72.346436 0z" fill-rule="evenodd"/><path fill="#000000" d="m303.3408 314.68875q1.546875 0 2.484375 0.71875q0.9375 0.71875 0.9375 2.03125l-1.8125 0q-0.046875 -0.640625 -0.453125 -0.96875q-0.390625 -0.328125 -1.234375 -0.328125q-0.578125 0 -0.953125 0.265625q-0.359375 0.25 -0.359375 0.71875q0 0.3125 0.15625 0.46875q0.15625 0.15625 0.625 0.34375q0.46875 0.171875 2.0625 0.546875q1.0625 0.25 1.65625 0.875q0.609375 0.609375 0.609375 1.546875q0 1.25 -0.9375 2.0q-0.9375 0.75 -2.625 0.75q-1.609375 0 -2.640625 -0.796875q-1.015625 -0.796875 -1.015625 -2.203125l0 -0.046875l1.828125 0q0 0.796875 0.515625 1.1875q0.53125 0.390625 1.375 0.390625q0.765625 0 1.21875 -0.265625q0.453125 -0.28125 0.453125 -0.796875q0 -0.421875 -0.359375 -0.6875q-0.34375 -0.265625 -1.109375 -0.453125q-0.984375 -0.21875 -1.78125 -0.46875q-0.796875 -0.25 -1.328125 -0.8125q-0.53125 -0.5625 -0.53125 -1.4375q0 -1.15625 0.921875 -1.859375q0.9375 -0.71875 2.296875 -0.71875zm7.5214844 2.390625q1.375 0 2.203125 0.953125q0.828125 0.9375 0.828125 2.421875l-0.015625 0.3125l-4.484375 0q0.046875 0.796875 0.421875 1.1875q0.390625 0.390625 1.09375 0.390625q0.46875 0 0.859375 -0.234375q0.390625 -0.25 0.5 -0.578125l1.5 0q-0.34375 1.046875 -1.0625 1.578125q-0.71875 0.515625 -1.84375 0.515625q-1.4375 0 -2.3125 -0.90625q-0.859375 -0.90625 -0.859375 -2.359375q0 -1.390625 0.890625 -2.328125q0.890625 -0.953125 2.28125 -0.953125zm-1.46875 2.609375l2.78125 0q-0.125 -0.6875 -0.453125 -1.0q-0.3125 -0.328125 -0.921875 -0.328125q-0.609375 0 -0.984375 0.359375q-0.359375 0.34375 -0.421875 0.96875zm9.109375 -2.609375q0.109375 0 0.203125 0.015625q0.09375 0.015625 0.171875 0.046875l0 1.578125q-0.140625 -0.03125 -0.28125 -0.03125q-0.140625 -0.015625 -0.328125 -0.015625q-0.859375 0 -1.28125 0.53125q-0.40625 0.515625 -0.40625 1.40625l0 2.84375l-1.6875 0l0 -6.203125l1.609375 0l0 1.15625l0.03125 0q0.265625 -0.609375 0.796875 -0.96875q0.546875 -0.359375 1.171875 -0.359375zm2.3945312 0.171875l1.3125 4.234375l0.03125 0l1.296875 -4.234375l1.703125 0l-2.109375 6.203125l-1.890625 0l-2.125 -6.203125l1.78125 0zm6.8027344 -2.359375l0 1.390625l-1.703125 0l0 -1.390625l1.703125 0zm0 2.359375l0 6.203125l-1.703125 0l0 -6.203125l1.703125 0zm4.3125 -0.171875q1.203125 0 2.015625 0.625q0.828125 0.625 0.90625 1.734375l-1.671875 0q-0.078125 -0.53125 -0.40625 -0.796875q-0.3125 -0.28125 -0.859375 -0.28125q-0.6875 0 -1.078125 0.5625q-0.375 0.5625 -0.375 1.453125q0 0.890625 0.375 1.4375q0.375 0.53125 1.046875 0.53125q0.5625 0 0.90625 -0.328125q0.359375 -0.328125 0.453125 -0.9375l1.640625 0q-0.171875 1.21875 -0.96875 1.890625q-0.78125 0.65625 -2.015625 0.65625q-1.390625 0 -2.265625 -0.890625q-0.875 -0.890625 -0.875 -2.296875q0 -1.5 0.859375 -2.421875q0.859375 -0.9375 2.3125 -0.9375zm6.78125 0q1.375 0 2.203125 0.953125q0.828125 0.9375 0.828125 2.421875l-0.015625 0.3125l-4.484375 0q0.046875 0.796875 0.421875 1.1875q0.390625 0.390625 1.09375 0.390625q0.46875 0 0.859375 -0.234375q0.390625 -0.25 0.5 -0.578125l1.5 0q-0.34375 1.046875 -1.0625 1.578125q-0.71875 0.515625 -1.84375 0.515625q-1.4375 0 -2.3125 -0.90625q-0.859375 -0.90625 -0.859375 -2.359375q0 -1.390625 0.890625 -2.328125q0.890625 -0.953125 2.28125 -0.953125zm-1.46875 2.609375l2.78125 0q-0.125 -0.6875 -0.453125 -1.0q-0.3125 -0.328125 -0.921875 -0.328125q-0.609375 0 -0.984375 0.359375q-0.359375 0.34375 -0.421875 0.96875zm13.099609 -4.796875q1.3125 0 1.984375 0.515625q0.6875 0.515625 0.6875 1.59375q0 0.65625 -0.3125 1.09375q-0.296875 0.4375 -0.84375 0.703125q0.78125 0.234375 1.171875 0.796875q0.390625 0.546875 0.390625 1.375q0 1.1875 -0.859375 1.84375q-0.84375 0.640625 -2.109375 0.640625l-4.203125 0l0 -8.5625l4.09375 0zm-0.265625 3.46875q0.5 0 0.796875 -0.25q0.3125 -0.265625 0.3125 -0.78125q0 -0.5 -0.3125 -0.734375q-0.3125 -0.25 -0.921875 -0.25l-1.8125 0l0 2.015625l1.9375 0zm0.125 3.625q0.625 0 0.984375 -0.265625q0.359375 -0.28125 0.359375 -0.859375q0 -0.59375 -0.34375 -0.90625q-0.34375 -0.3125 -0.96875 -0.3125l-2.09375 0l0 2.34375l2.0625 0z" fill-rule="nonzero"/><path fill="#000000" d="m319.3214 283.56134c0 -0.007019043 0.0024108887 -0.0140686035 0.0024108887 -0.021087646l6.8286133 3.4909973l0 8.492615l-6.278839 -3.2103577c-0.34332275 -0.17684937 -0.5553894 -0.5314026 -0.55218506 -0.92904663c0 0 0 -7.82312 0 -7.82312zm6.987091 -4.2071533c0.14004517 -0.071258545 0.29370117 -0.10733032 0.44735718 -0.10733032c0.15362549 0 0.3072815 0.036071777 0.4465332 0.10733032l6.238037 3.1892395l-6.6845703 3.4179993l-6.6853943 -3.4179993c0 0 6.238037 -3.1892395 6.238037 -3.1892395zm7.8785706 4.1860657c0 0.007019043 0.0032043457 0.013183594 0.0032043457 0.020233154l0 7.8318787c-7.9345703E-4 0.39239502 -0.21447754 0.7451782 -0.5593872 0.92025757l-6.272461 3.2068481l0 -8.48822c0 0 6.828644 -3.4909973 6.828644 -3.4909973zm-14.853668 9.874756l6.4293213 3.2877808c0.30969238 0.15835571 0.6498108 0.23751831 0.9891052 0.23751831c0.33932495 0 0.67944336 -0.0791626 0.98913574 -0.23751831l6.4284973 -3.2868958c0.75546265 -0.38449097 1.2260132 -1.1595764 1.2260132 -2.023529l0 -7.8318787c0 -0.86395264 -0.47055054 -1.6390686 -1.2251892 -2.022644l-6.4293213 -3.2868958c-7.9345703E-4 0 -7.9345703E-4 -8.8500977E-4 -0.0015869141 -8.8500977E-4c-0.6154175 -0.3132019 -1.3508606 -0.3132019 -1.9686584 8.8500977E-4l-6.4284973 3.2860107c-0.7562561 0.38446045 -1.2260132 1.1595764 -1.2268066 2.023529l0 7.8195496c-0.0056152344 0.86572266 0.46014404 1.6452332 1.2179871 2.0349731z" fill-rule="evenodd"/><path fill="#ffffff" d="m529.7073 146.03394l0 0c0 -0.6185303 0.50146484 -1.1199493 1.1199951 -1.1199493l38.075012 0c0.2970581 0 0.5819092 0.117996216 0.79193115 0.3280182c0.21008301 0.21003723 0.32806396 0.49490356 0.32806396 0.79193115l0 38.075058c0 0.6185303 -0.5014038 1.1199493 -1.1199951 1.1199493l-38.075012 0c-0.6185303 0 -1.1199951 -0.50141907 -1.1199951 -1.1199493z" fill-rule="evenodd"/><path stroke="#d6d6d6" stroke-width="1.0" stroke-miterlimit="400.0" stroke-linecap="butt" d="m529.7073 146.03394l0 0c0 -0.6185303 0.50146484 -1.1199493 1.1199951 -1.1199493l38.075012 0c0.2970581 0 0.5819092 0.117996216 0.79193115 0.3280182c0.21008301 0.21003723 0.32806396 0.49490356 0.32806396 0.79193115l0 38.075058c0 0.6185303 -0.5014038 1.1199493 -1.1199951 1.1199493l-38.075012 0c-0.6185303 0 -1.1199951 -0.50141907 -1.1199951 -1.1199493z" fill-rule="evenodd"/><path fill="#000000" fill-opacity="0.0" d="m500.8583 187.40797l98.01572 0l0 33.88977l-98.01572 0z" fill-rule="evenodd"/><path fill="#000000" d="m510.77438 192.16235q1.4530945 0 2.4843445 0.828125q1.03125 0.8125 1.203125 2.25l-1.8125 0q-0.125 -0.671875 -0.6718445 -1.078125q-0.546875 -0.421875 -1.203125 -0.421875q-1.109375 0 -1.71875 0.8125q-0.609375 0.796875 -0.609375 2.125q0 1.265625 0.59375 2.0625q0.609375 0.796875 1.734375 0.796875q0.8125 0 1.3124695 -0.5q0.515625 -0.5 0.625 -1.40625l1.828125 0q-0.15625 1.625 -1.1875 2.5625q-1.015625 0.9375 -2.5780945 0.9375q-1.234375 0 -2.203125 -0.5625q-0.96875 -0.5625 -1.5 -1.59375q-0.515625 -1.03125 -0.515625 -2.296875q0 -1.96875 1.15625 -3.234375q1.15625 -1.28125 3.0625 -1.28125zm11.107391 0.203125l0 1.578125l-2.5625 0l0 6.984375l-1.890625 0l0 -6.984375l-2.5625 0l0 -1.578125l7.015625 0zm3.7460938 -0.203125q1.546875 0 2.484375 0.71875q0.9375 0.71875 0.9375 2.03125l-1.8125 0q-0.046875 -0.640625 -0.453125 -0.96875q-0.390625 -0.328125 -1.234375 -0.328125q-0.578125 0 -0.953125 0.265625q-0.359375 0.25 -0.359375 0.71875q0 0.3125 0.15625 0.46875q0.15625 0.15625 0.625 0.34375q0.46875 0.171875 2.0625 0.546875q1.0625 0.25 1.65625 0.875q0.609375 0.609375 0.609375 1.546875q0 1.25 -0.9375 2.0q-0.9375 0.75 -2.625 0.75q-1.609375 0 -2.640625 -0.796875q-1.015625 -0.796875 -1.015625 -2.203125l0 -0.046875l1.828125 0q0 0.796875 0.515625 1.1875q0.53125 0.390625 1.375 0.390625q0.765625 0 1.21875 -0.265625q0.453125 -0.28125 0.453125 -0.796875q0 -0.421875 -0.359375 -0.6875q-0.34375 -0.265625 -1.109375 -0.453125q-0.984375 -0.21875 -1.78125 -0.46875q-0.796875 -0.25 -1.328125 -0.8125q-0.53125 -0.5625 -0.53125 -1.4375q0 -1.15625 0.921875 -1.859375q0.9375 -0.71875 2.296875 -0.71875zm10.058594 0.203125l0 8.5625l-1.890625 0l0 -8.5625l1.890625 0zm5.0234375 2.1875q1.1875 0 1.71875 0.609375q0.546875 0.59375 0.546875 1.890625l0 3.875l-1.703125 0l0 -3.5625q0 -0.71875 -0.25 -1.09375q-0.25 -0.375 -0.84375 -0.375q-0.703125 0 -1.015625 0.421875q-0.3125 0.421875 -0.3125 1.296875l0 3.3125l-1.6875 0l0 -6.203125l1.609375 0l0 0.859375l0.03125 0q0.3125 -0.5 0.8125 -0.765625q0.5 -0.265625 1.09375 -0.265625zm6.0976562 0q1.265625 0 1.953125 0.5q0.703125 0.5 0.796875 1.484375l-1.625 0q-0.046875 -0.4375 -0.34375 -0.640625q-0.28125 -0.203125 -0.828125 -0.203125q-0.484375 0 -0.71875 0.15625q-0.21875 0.140625 -0.21875 0.421875q0 0.28125 0.296875 0.46875q0.296875 0.1875 1.1875 0.359375q1.421875 0.265625 1.90625 0.703125q0.5 0.4375 0.5 1.140625q0 1.046875 -0.78125 1.609375q-0.765625 0.546875 -2.046875 0.546875q-1.296875 0 -2.078125 -0.546875q-0.78125 -0.546875 -0.84375 -1.640625l1.625 0q0 0.484375 0.375 0.765625q0.375 0.28125 0.9375 0.28125q0.5 0 0.796875 -0.21875q0.3125 -0.21875 0.3125 -0.578125q0 -0.328125 -0.40625 -0.53125q-0.390625 -0.203125 -1.46875 -0.421875q-1.078125 -0.21875 -1.546875 -0.609375q-0.46875 -0.390625 -0.46875 -1.0625q0 -0.984375 0.6875 -1.484375q0.703125 -0.5 2.0 -0.5zm6.0703125 -1.6875l0 1.859375l1.25 0l0 1.140625l-1.25 0l0 3.109375q0 0.375 0.140625 0.53125q0.140625 0.15625 0.578125 0.15625q0.140625 0 0.265625 -0.015625q0.140625 -0.015625 0.265625 -0.03125l0 1.328125q-0.21875 0.03125 -0.484375 0.046875q-0.25 0.015625 -0.5 0.015625q-1.109375 0 -1.546875 -0.375q-0.421875 -0.390625 -0.421875 -1.0625l0 -3.703125l-1.03125 0l0 -1.140625l1.03125 0l0 -1.859375l1.703125 0zm4.9121094 1.6875q1.375 0 2.046875 0.453125q0.671875 0.453125 0.671875 1.28125l0 3.328125q0 0.375 0.046875 0.75q0.046875 0.375 0.171875 0.5625l-1.734375 0q-0.046875 -0.140625 -0.078125 -0.28125q-0.03125 -0.15625 -0.046875 -0.3125q-0.359375 0.375 -0.890625 0.578125q-0.515625 0.1875 -1.1875 0.1875q-0.96875 0 -1.546875 -0.484375q-0.5625 -0.484375 -0.5625 -1.375q0 -0.875 0.53125 -1.328125q0.546875 -0.46875 1.96875 -0.625q0.984375 -0.09375 1.296875 -0.234375q0.328125 -0.15625 0.328125 -0.53125q0 -0.40625 -0.25 -0.609375q-0.234375 -0.21875 -0.84375 -0.21875q-0.53125 0 -0.8125 0.234375q-0.28125 0.21875 -0.328125 0.703125l-1.703125 0q0.0625 -1.015625 0.828125 -1.546875q0.78125 -0.53125 2.09375 -0.53125zm-1.40625 4.609375q0 0.375 0.25 0.59375q0.25 0.203125 0.796875 0.203125q0.671875 0 1.015625 -0.359375q0.359375 -0.359375 0.359375 -1.046875l0 -0.65625q-0.15625 0.125 -0.40625 0.1875q-0.25 0.046875 -0.890625 0.140625q-0.59375 0.078125 -0.859375 0.3125q-0.265625 0.21875 -0.265625 0.625zm9.0 -4.609375q1.1875 0 1.71875 0.609375q0.546875 0.59375 0.546875 1.890625l0 3.875l-1.703125 0l0 -3.5625q0 -0.71875 -0.25 -1.09375q-0.25 -0.375 -0.84375 -0.375q-0.703125 0 -1.015625 0.421875q-0.3125 0.421875 -0.3125 1.296875l0 3.3125l-1.6875 0l0 -6.203125l1.609375 0l0 0.859375l0.03125 0q0.3125 -0.5 0.8125 -0.765625q0.5 -0.265625 1.09375 -0.265625zm6.5351562 0q1.203125 0 2.015625 0.625q0.828125 0.625 0.90625 1.734375l-1.671875 0q-0.078125 -0.53125 -0.40625 -0.796875q-0.3125 -0.28125 -0.859375 -0.28125q-0.6875 0 -1.078125 0.5625q-0.375 0.5625 -0.375 1.453125q0 0.890625 0.375 1.4375q0.375 0.53125 1.046875 0.53125q0.5625 0 0.90625 -0.328125q0.359375 -0.328125 0.453125 -0.9375l1.640625 0q-0.171875 1.21875 -0.96875 1.890625q-0.78125 0.65625 -2.015625 0.65625q-1.390625 0 -2.265625 -0.890625q-0.875 -0.890625 -0.875 -2.296875q0 -1.5 0.859375 -2.421875q0.859375 -0.9375 2.3125 -0.9375zm6.78125 0q1.375 0 2.203125 0.953125q0.828125 0.9375 0.828125 2.421875l-0.015625 0.3125l-4.484375 0q0.046875 0.796875 0.421875 1.1875q0.390625 0.390625 1.09375 0.390625q0.46875 0 0.859375 -0.234375q0.390625 -0.25 0.5 -0.578125l1.5 0q-0.34375 1.046875 -1.0625 1.578125q-0.71875 0.515625 -1.84375 0.515625q-1.4375 0 -2.3125 -0.90625q-0.859375 -0.90625 -0.859375 -2.359375q0 -1.390625 0.890625 -2.328125q0.890625 -0.953125 2.28125 -0.953125zm-1.46875 2.609375l2.78125 0q-0.125 -0.6875 -0.453125 -1.0q-0.3125 -0.328125 -0.921875 -0.328125q-0.609375 0 -0.984375 0.359375q-0.359375 0.34375 -0.421875 0.96875zm13.271484 -4.796875l3.203125 8.5625l-1.953125 0l-0.640625 -1.90625l-3.203125 0l-0.671875 1.90625l-1.90625 0l3.25 -8.5625l1.921875 0zm-0.984375 2.109375l-1.125 3.140625l2.21875 0l-1.078125 -3.140625l-0.015625 0z" fill-rule="nonzero"/><path fill="#000000" d="m530.1718 206.16235q-0.640625 1.1875 -0.984375 2.578125q-0.328125 1.390625 -0.328125 2.859375q0 1.46875 0.3125 2.84375q0.3125 1.359375 0.984375 2.671875l-1.421875 0q-0.765625 -1.28125 -1.171875 -2.671875q-0.40625 -1.390625 -0.40625 -2.734375q0 -1.390625 0.40625 -2.90625q0.40625 -1.515625 1.171875 -2.640625l1.4375 0zm2.6289062 0.203125l0 6.984375l4.171875 0l0 1.578125l-6.0625 0l0 -8.5625l1.890625 0zm7.6933594 2.1875q1.375 0 2.203125 0.953125q0.828125 0.9375 0.828125 2.421875l-0.015625 0.3125l-4.484375 0q0.046875 0.796875 0.421875 1.1875q0.390625 0.390625 1.09375 0.390625q0.46875 0 0.859375 -0.234375q0.390625 -0.25 0.5 -0.578125l1.5 0q-0.34375 1.046875 -1.0625 1.578125q-0.71875 0.515625 -1.84375 0.515625q-1.4375 0 -2.3125 -0.90625q-0.859375 -0.90625 -0.859375 -2.359375q0 -1.390625 0.890625 -2.328125q0.890625 -0.953125 2.28125 -0.953125zm-1.46875 2.609375l2.78125 0q-0.125 -0.6875 -0.453125 -1.0q-0.3125 -0.328125 -0.921875 -0.328125q-0.609375 0 -0.984375 0.359375q-0.359375 0.34375 -0.421875 0.96875zm8.34375 -2.609375q1.375 0 2.046875 0.453125q0.671875 0.453125 0.671875 1.28125l0 3.328125q0 0.375 0.046875 0.75q0.046875 0.375 0.171875 0.5625l-1.734375 0q-0.046875 -0.140625 -0.078125 -0.28125q-0.03125 -0.15625 -0.046875 -0.3125q-0.359375 0.375 -0.890625 0.578125q-0.515625 0.1875 -1.1875 0.1875q-0.96875 0 -1.546875 -0.484375q-0.5625 -0.484375 -0.5625 -1.375q0 -0.875 0.53125 -1.328125q0.546875 -0.46875 1.96875 -0.625q0.984375 -0.09375 1.296875 -0.234375q0.328125 -0.15625 0.328125 -0.53125q0 -0.40625 -0.25 -0.609375q-0.234375 -0.21875 -0.84375 -0.21875q-0.53125 0 -0.8125 0.234375q-0.28125 0.21875 -0.328125 0.703125l-1.703125 0q0.0625 -1.015625 0.828125 -1.546875q0.78125 -0.53125 2.09375 -0.53125zm-1.40625 4.609375q0 0.375 0.25 0.59375q0.25 0.203125 0.796875 0.203125q0.671875 0 1.015625 -0.359375q0.359375 -0.359375 0.359375 -1.046875l0 -0.65625q-0.15625 0.125 -0.40625 0.1875q-0.25 0.046875 -0.890625 0.140625q-0.59375 0.078125 -0.859375 0.3125q-0.265625 0.21875 -0.265625 0.625zm11.5 -6.796875l0 8.5625l-1.625 0l0 -0.796875l-0.03125 0q-0.265625 0.484375 -0.75 0.734375q-0.484375 0.234375 -1.125 0.234375q-1.265625 0 -2.03125 -0.9375q-0.75 -0.9375 -0.75 -2.390625q0 -1.390625 0.734375 -2.296875q0.75 -0.921875 2.015625 -0.921875q0.578125 0 1.046875 0.234375q0.484375 0.234375 0.78125 0.6875l0.03125 0l0 -3.109375l1.703125 0zm-4.609375 5.453125q0 0.859375 0.390625 1.4375q0.40625 0.5625 1.109375 0.5625q0.703125 0 1.078125 -0.515625q0.375 -0.53125 0.375 -1.5q0 -0.90625 -0.375 -1.4375q-0.359375 -0.53125 -1.09375 -0.53125q-0.703125 0 -1.09375 0.53125q-0.390625 0.53125 -0.390625 1.453125zm8.751953 -3.265625q1.375 0 2.203125 0.953125q0.828125 0.9375 0.828125 2.421875l-0.015625 0.3125l-4.484375 0q0.046875 0.796875 0.421875 1.1875q0.390625 0.390625 1.09375 0.390625q0.46875 0 0.859375 -0.234375q0.390625 -0.25 0.5 -0.578125l1.5 0q-0.34375 1.046875 -1.0625 1.578125q-0.71875 0.515625 -1.84375 0.515625q-1.4375 0 -2.3125 -0.90625q-0.859375 -0.90625 -0.859375 -2.359375q0 -1.390625 0.890625 -2.328125q0.890625 -0.953125 2.28125 -0.953125zm-1.46875 2.609375l2.78125 0q-0.125 -0.6875 -0.453125 -1.0q-0.3125 -0.328125 -0.921875 -0.328125q-0.609375 0 -0.984375 0.359375q-0.359375 0.34375 -0.421875 0.96875zm9.109375 -2.609375q0.109375 0 0.203125 0.015625q0.09375 0.015625 0.171875 0.046875l0 1.578125q-0.140625 -0.03125 -0.28125 -0.03125q-0.140625 -0.015625 -0.328125 -0.015625q-0.859375 0 -1.28125 0.53125q-0.40625 0.515625 -0.40625 1.40625l0 2.84375l-1.6875 0l0 -6.203125l1.609375 0l0 1.15625l0.03125 0q0.265625 -0.609375 0.796875 -0.96875q0.546875 -0.359375 1.171875 -0.359375zm1.7480469 -2.390625q0.78125 1.265625 1.1875 2.65625q0.40625 1.390625 0.40625 2.75q0 1.375 -0.421875 2.90625q-0.40625 1.515625 -1.171875 2.640625l-1.421875 0q0.65625 -1.25 0.96875 -2.609375q0.328125 -1.375 0.328125 -2.8125q0 -1.5 -0.328125 -2.875q-0.3125 -1.390625 -0.96875 -2.65625l1.421875 0z" fill-rule="nonzero"/><path fill="#000000" d="m542.433 161.15846c0 -0.0070343018 0.002380371 -0.0140686035 0.002380371 -0.021118164l6.8286133 3.4910126l0 8.492615l-6.2788696 -3.2103577c-0.34326172 -0.1768341 -0.5553589 -0.5313873 -0.552124 -0.92904663c0 0 0 -7.823105 0 -7.823105zm6.9870605 -4.2071533c0.14007568 -0.071258545 0.29370117 -0.10733032 0.44732666 -0.10733032c0.15368652 0 0.307312 0.036071777 0.44659424 0.10733032l6.238037 3.1892395l-6.6846313 3.417984l-6.685364 -3.417984c0 0 6.238037 -3.1892395 6.238037 -3.1892395zm7.878601 4.186035c0 0.0070495605 0.0031738281 0.013198853 0.0031738281 0.020248413l0 7.8318787c-7.9345703E-4 0.39239502 -0.21447754 0.7451935 -0.5593872 0.9202728l-6.272461 3.206833l0 -8.48822c0 0 6.8286743 -3.4910126 6.8286743 -3.4910126zm-14.853699 9.874771l6.4293213 3.2877808c0.30969238 0.15835571 0.6498413 0.23753357 0.98913574 0.23753357c0.33929443 0 0.6793823 -0.07917786 0.98913574 -0.23753357l6.428467 -3.2868958c0.75549316 -0.3844757 1.2260132 -1.1595612 1.2260132 -2.023529l0 -7.8318787c0 -0.86395264 -0.47052002 -1.6390533 -1.2252197 -2.022644l-6.4292603 -3.2868958c-7.9345703E-4 0 -7.9345703E-4 -8.8500977E-4 -0.0016479492 -8.8500977E-4c-0.61535645 -0.3132019 -1.3508301 -0.3132019 -1.9686279 8.8500977E-4l-6.428528 3.2860107c-0.7562256 0.3844757 -1.2259521 1.1595764 -1.2267456 2.023529l0 7.819565c-0.0056152344 0.86572266 0.46014404 1.6452179 1.2179565 2.034958z" fill-rule="evenodd"/><path fill="#ffffff" d="m529.7073 328.58643l0 0c0 -0.6185303 0.50146484 -1.1199341 1.1199951 -1.1199341l38.075012 0c0.2970581 0 0.5819092 0.11798096 0.79193115 0.32800293c0.21008301 0.21005249 0.32806396 0.49490356 0.32806396 0.79193115l0 38.075073c0 0.6185303 -0.5014038 1.1199341 -1.1199951 1.1199341l-38.075012 0c-0.6185303 0 -1.1199951 -0.5014038 -1.1199951 -1.1199341z" fill-rule="evenodd"/><path stroke="#d6d6d6" stroke-width="1.0" stroke-miterlimit="400.0" stroke-linecap="butt" d="m529.7073 328.58643l0 0c0 -0.6185303 0.50146484 -1.1199341 1.1199951 -1.1199341l38.075012 0c0.2970581 0 0.5819092 0.11798096 0.79193115 0.32800293c0.21008301 0.21005249 0.32806396 0.49490356 0.32806396 0.79193115l0 38.075073c0 0.6185303 -0.5014038 1.1199341 -1.1199951 1.1199341l-38.075012 0c-0.6185303 0 -1.1199951 -0.5014038 -1.1199951 -1.1199341z" fill-rule="evenodd"/><path fill="#000000" fill-opacity="0.0" d="m489.3937 369.8101l120.944855 0l0 33.88974l-120.944855 0z" fill-rule="evenodd"/><path fill="#000000" d="m510.6601 374.56445q1.453125 0 2.484375 0.828125q1.03125 0.8125 1.203125 2.25l-1.8125 0q-0.125 -0.671875 -0.671875 -1.078125q-0.546875 -0.421875 -1.203125 -0.421875q-1.109375 0 -1.71875 0.8125q-0.609375 0.796875 -0.609375 2.125q0 1.265625 0.59375 2.0625q0.609375 0.796875 1.734375 0.796875q0.8125 0 1.3125 -0.5q0.515625 -0.5 0.625 -1.40625l1.828125 0q-0.15625 1.625 -1.1875 2.5625q-1.015625 0.9375 -2.578125 0.9375q-1.234375 0 -2.203125 -0.5625q-0.96875 -0.5625 -1.5 -1.59375q-0.515625 -1.03125 -0.515625 -2.296875q0 -1.96875 1.15625 -3.234375q1.15625 -1.28125 3.0625 -1.28125zm11.107422 0.203125l0 1.578125l-2.5625 0l0 6.984375l-1.890625 0l0 -6.984375l-2.5625 0l0 -1.578125l7.015625 0zm3.7460938 -0.203125q1.546875 0 2.484375 0.71875q0.9375 0.71875 0.9375 2.03125l-1.8125 0q-0.046875 -0.640625 -0.453125 -0.96875q-0.390625 -0.328125 -1.234375 -0.328125q-0.578125 0 -0.953125 0.265625q-0.359375 0.25 -0.359375 0.71875q0 0.3125 0.15625 0.46875q0.15625 0.15625 0.625 0.34375q0.46875 0.171875 2.0625 0.546875q1.0625 0.25 1.65625 0.875q0.609375 0.609375 0.609375 1.546875q0 1.25 -0.9375 2.0q-0.9375 0.75 -2.625 0.75q-1.609375 0 -2.640625 -0.796875q-1.015625 -0.796875 -1.015625 -2.203125l0 -0.046875l1.828125 0q0 0.796875 0.515625 1.1875q0.53125 0.390625 1.375 0.390625q0.765625 0 1.21875 -0.265625q0.453125 -0.28125 0.453125 -0.796875q0 -0.421875 -0.359375 -0.6875q-0.34375 -0.265625 -1.109375 -0.453125q-0.984375 -0.21875 -1.78125 -0.46875q-0.796875 -0.25 -1.328125 -0.8125q-0.53125 -0.5625 -0.53125 -1.4375q0 -1.15625 0.921875 -1.859375q0.9375 -0.71875 2.296875 -0.71875zm10.058594 0.203125l0 8.5625l-1.890625 0l0 -8.5625l1.890625 0zm5.0234375 2.1875q1.1875 0 1.71875 0.609375q0.546875 0.59375 0.546875 1.890625l0 3.875l-1.703125 0l0 -3.5625q0 -0.71875 -0.25 -1.09375q-0.25 -0.375 -0.84375 -0.375q-0.703125 0 -1.015625 0.421875q-0.3125 0.421875 -0.3125 1.296875l0 3.3125l-1.6875 0l0 -6.203125l1.609375 0l0 0.859375l0.03125 0q0.3125 -0.5 0.8125 -0.765625q0.5 -0.265625 1.09375 -0.265625zm6.0976562 0q1.265625 0 1.953125 0.5q0.703125 0.5 0.796875 1.484375l-1.625 0q-0.046875 -0.4375 -0.34375 -0.640625q-0.28125 -0.203125 -0.828125 -0.203125q-0.484375 0 -0.71875 0.15625q-0.21875 0.140625 -0.21875 0.421875q0 0.28125 0.296875 0.46875q0.296875 0.1875 1.1875 0.359375q1.421875 0.265625 1.90625 0.703125q0.5 0.4375 0.5 1.140625q0 1.046875 -0.78125 1.609375q-0.765625 0.546875 -2.046875 0.546875q-1.296875 0 -2.078125 -0.546875q-0.78125 -0.546875 -0.84375 -1.640625l1.625 0q0 0.484375 0.375 0.765625q0.375 0.28125 0.9375 0.28125q0.5 0 0.796875 -0.21875q0.3125 -0.21875 0.3125 -0.578125q0 -0.328125 -0.40625 -0.53125q-0.390625 -0.203125 -1.46875 -0.421875q-1.078125 -0.21875 -1.546875 -0.609375q-0.46875 -0.390625 -0.46875 -1.0625q0 -0.984375 0.6875 -1.484375q0.703125 -0.5 2.0 -0.5zm6.0703125 -1.6875l0 1.859375l1.25 0l0 1.140625l-1.25 0l0 3.109375q0 0.375 0.140625 0.53125q0.140625 0.15625 0.578125 0.15625q0.140625 0 0.265625 -0.015625q0.140625 -0.015625 0.265625 -0.03125l0 1.328125q-0.21875 0.03125 -0.484375 0.046875q-0.25 0.015625 -0.5 0.015625q-1.109375 0 -1.546875 -0.375q-0.421875 -0.390625 -0.421875 -1.0625l0 -3.703125l-1.03125 0l0 -1.140625l1.03125 0l0 -1.859375l1.703125 0zm4.9121094 1.6875q1.375 0 2.046875 0.453125q0.671875 0.453125 0.671875 1.28125l0 3.328125q0 0.375 0.046875 0.75q0.046875 0.375 0.171875 0.5625l-1.734375 0q-0.046875 -0.140625 -0.078125 -0.28125q-0.03125 -0.15625 -0.046875 -0.3125q-0.359375 0.375 -0.890625 0.578125q-0.515625 0.1875 -1.1875 0.1875q-0.96875 0 -1.546875 -0.484375q-0.5625 -0.484375 -0.5625 -1.375q0 -0.875 0.53125 -1.328125q0.546875 -0.46875 1.96875 -0.625q0.984375 -0.09375 1.296875 -0.234375q0.328125 -0.15625 0.328125 -0.53125q0 -0.40625 -0.25 -0.609375q-0.234375 -0.21875 -0.84375 -0.21875q-0.53125 0 -0.8125 0.234375q-0.28125 0.21875 -0.328125 0.703125l-1.703125 0q0.0625 -1.015625 0.828125 -1.546875q0.78125 -0.53125 2.09375 -0.53125zm-1.40625 4.609375q0 0.375 0.25 0.59375q0.25 0.203125 0.796875 0.203125q0.671875 0 1.015625 -0.359375q0.359375 -0.359375 0.359375 -1.046875l0 -0.65625q-0.15625 0.125 -0.40625 0.1875q-0.25 0.046875 -0.890625 0.140625q-0.59375 0.078125 -0.859375 0.3125q-0.265625 0.21875 -0.265625 0.625zm9.0 -4.609375q1.1875 0 1.71875 0.609375q0.546875 0.59375 0.546875 1.890625l0 3.875l-1.703125 0l0 -3.5625q0 -0.71875 -0.25 -1.09375q-0.25 -0.375 -0.84375 -0.375q-0.703125 0 -1.015625 0.421875q-0.3125 0.421875 -0.3125 1.296875l0 3.3125l-1.6875 0l0 -6.203125l1.609375 0l0 0.859375l0.03125 0q0.3125 -0.5 0.8125 -0.765625q0.5 -0.265625 1.09375 -0.265625zm6.5351562 0q1.203125 0 2.015625 0.625q0.828125 0.625 0.90625 1.734375l-1.671875 0q-0.078125 -0.53125 -0.40625 -0.796875q-0.3125 -0.28125 -0.859375 -0.28125q-0.6875 0 -1.078125 0.5625q-0.375 0.5625 -0.375 1.453125q0 0.890625 0.375 1.4375q0.375 0.53125 1.046875 0.53125q0.5625 0 0.90625 -0.328125q0.359375 -0.328125 0.453125 -0.9375l1.640625 0q-0.171875 1.21875 -0.96875 1.890625q-0.78125 0.65625 -2.015625 0.65625q-1.390625 0 -2.265625 -0.890625q-0.875 -0.890625 -0.875 -2.296875q0 -1.5 0.859375 -2.421875q0.859375 -0.9375 2.3125 -0.9375zm6.78125 0q1.375 0 2.203125 0.953125q0.828125 0.9375 0.828125 2.421875l-0.015625 0.3125l-4.484375 0q0.046875 0.796875 0.421875 1.1875q0.390625 0.390625 1.09375 0.390625q0.46875 0 0.859375 -0.234375q0.390625 -0.25 0.5 -0.578125l1.5 0q-0.34375 1.046875 -1.0625 1.578125q-0.71875 0.515625 -1.84375 0.515625q-1.4375 0 -2.3125 -0.90625q-0.859375 -0.90625 -0.859375 -2.359375q0 -1.390625 0.890625 -2.328125q0.890625 -0.953125 2.28125 -0.953125zm-1.46875 2.609375l2.78125 0q-0.125 -0.6875 -0.453125 -1.0q-0.3125 -0.328125 -0.921875 -0.328125q-0.609375 0 -0.984375 0.359375q-0.359375 0.34375 -0.421875 0.96875zm13.099609 -4.796875q1.3125 0 1.984375 0.515625q0.6875 0.515625 0.6875 1.59375q0 0.65625 -0.3125 1.09375q-0.296875 0.4375 -0.84375 0.703125q0.78125 0.234375 1.171875 0.796875q0.390625 0.546875 0.390625 1.375q0 1.1875 -0.859375 1.84375q-0.84375 0.640625 -2.109375 0.640625l-4.203125 0l0 -8.5625l4.09375 0zm-0.265625 3.46875q0.5 0 0.796875 -0.25q0.3125 -0.265625 0.3125 -0.78125q0 -0.5 -0.3125 -0.734375q-0.3125 -0.25 -0.921875 -0.25l-1.8125 0l0 2.015625l1.9375 0zm0.125 3.625q0.625 0 0.984375 -0.265625q0.359375 -0.28125 0.359375 -0.859375q0 -0.59375 -0.34375 -0.90625q-0.34375 -0.3125 -0.96875 -0.3125l-2.09375 0l0 2.34375l2.0625 0z" fill-rule="nonzero"/><path fill="#000000" d="m525.5634 388.56445q-0.640625 1.1875 -0.984375 2.578125q-0.328125 1.390625 -0.328125 2.859375q0 1.46875 0.3125 2.84375q0.3125 1.359375 0.984375 2.671875l-1.421875 0q-0.765625 -1.28125 -1.171875 -2.671875q-0.40625 -1.390625 -0.40625 -2.734375q0 -1.390625 0.40625 -2.90625q0.40625 -1.515625 1.171875 -2.640625l1.4375 0zm6.7539062 0.203125l0 1.578125l-4.125 0l0 1.984375l3.578125 0l0 1.453125l-3.578125 0l0 3.546875l-1.890625 0l0 -8.5625l6.015625 0zm3.421875 2.1875q1.46875 0 2.34375 0.90625q0.875 0.890625 0.875 2.375q0 1.484375 -0.890625 2.375q-0.875 0.890625 -2.328125 0.890625q-1.4375 0 -2.328125 -0.890625q-0.875 -0.90625 -0.875 -2.375q0 -1.46875 0.859375 -2.375q0.875 -0.90625 2.34375 -0.90625zm-1.5 3.28125q0 0.984375 0.40625 1.484375q0.40625 0.5 1.09375 0.5q0.734375 0 1.125 -0.515625q0.390625 -0.53125 0.390625 -1.46875q0 -0.921875 -0.390625 -1.453125q-0.375 -0.546875 -1.125 -0.546875q-0.6875 0 -1.09375 0.5q-0.40625 0.5 -0.40625 1.5zm7.580078 -5.46875l0 8.5625l-1.703125 0l0 -8.5625l1.703125 0zm3.09375 0l0 8.5625l-1.703125 0l0 -8.5625l1.703125 0zm4.34375 2.1875q1.46875 0 2.34375 0.90625q0.875 0.890625 0.875 2.375q0 1.484375 -0.890625 2.375q-0.875 0.890625 -2.328125 0.890625q-1.4375 0 -2.328125 -0.890625q-0.875 -0.90625 -0.875 -2.375q0 -1.46875 0.859375 -2.375q0.875 -0.90625 2.34375 -0.90625zm-1.5 3.28125q0 0.984375 0.40625 1.484375q0.40625 0.5 1.09375 0.5q0.734375 0 1.125 -0.515625q0.390625 -0.53125 0.390625 -1.46875q0 -0.921875 -0.390625 -1.453125q-0.375 -0.546875 -1.125 -0.546875q-0.6875 0 -1.09375 0.5q-0.40625 0.5 -0.40625 1.5zm7.048828 -3.109375l1.140625 4.203125l0.015625 0l1.03125 -4.203125l1.65625 0l1.0625 4.203125l0.015625 0l1.15625 -4.203125l1.75 0l-1.96875 6.203125l-1.75 0l-1.09375 -4.171875l-0.03125 0l-1.0625 4.171875l-1.75 0l-1.96875 -6.203125l1.796875 0zm11.408203 -0.171875q1.375 0 2.203125 0.953125q0.828125 0.9375 0.828125 2.421875l-0.015625 0.3125l-4.484375 0q0.046875 0.796875 0.421875 1.1875q0.390625 0.390625 1.09375 0.390625q0.46875 0 0.859375 -0.234375q0.390625 -0.25 0.5 -0.578125l1.5 0q-0.34375 1.046875 -1.0625 1.578125q-0.71875 0.515625 -1.84375 0.515625q-1.4375 0 -2.3125 -0.90625q-0.859375 -0.90625 -0.859375 -2.359375q0 -1.390625 0.890625 -2.328125q0.890625 -0.953125 2.28125 -0.953125zm-1.46875 2.609375l2.78125 0q-0.125 -0.6875 -0.453125 -1.0q-0.3125 -0.328125 -0.921875 -0.328125q-0.609375 0 -0.984375 0.359375q-0.359375 0.34375 -0.421875 0.96875zm9.109375 -2.609375q0.109375 0 0.203125 0.015625q0.09375 0.015625 0.171875 0.046875l0 1.578125q-0.140625 -0.03125 -0.28125 -0.03125q-0.140625 -0.015625 -0.328125 -0.015625q-0.859375 0 -1.28125 0.53125q-0.40625 0.515625 -0.40625 1.40625l0 2.84375l-1.6875 0l0 -6.203125l1.609375 0l0 1.15625l0.03125 0q0.265625 -0.609375 0.796875 -0.96875q0.546875 -0.359375 1.171875 -0.359375zm1.7480469 -2.390625q0.78125 1.265625 1.1875 2.65625q0.40625 1.390625 0.40625 2.75q0 1.375 -0.421875 2.90625q-0.40625 1.515625 -1.171875 2.640625l-1.421875 0q0.65625 -1.25 0.96875 -2.609375q0.328125 -1.375 0.328125 -2.8125q0 -1.5 -0.328125 -2.875q-0.3125 -1.390625 -0.96875 -2.65625l1.421875 0z" fill-rule="nonzero"/><path fill="#000000" d="m542.433 343.71097c0 -0.0070495605 0.002380371 -0.014099121 0.002380371 -0.021118164l6.8286133 3.4909973l0 8.492615l-6.2788696 -3.2103577c-0.34326172 -0.17681885 -0.5553589 -0.5313721 -0.552124 -0.92904663c0 0 0 -7.8230896 0 -7.8230896zm6.9870605 -4.2071533c0.14007568 -0.071258545 0.29370117 -0.10733032 0.44732666 -0.10733032c0.15368652 0 0.307312 0.036071777 0.44659424 0.10733032l6.238037 3.1892395l-6.6846313 3.4179688l-6.685364 -3.4179688c0 0 6.238037 -3.1892395 6.238037 -3.1892395zm7.878601 4.186035c0 0.007019043 0.0031738281 0.013183594 0.0031738281 0.020233154l0 7.8318787c-7.9345703E-4 0.39239502 -0.21447754 0.7451782 -0.5593872 0.92025757l-6.272461 3.2068481l0 -8.48822c0 0 6.8286743 -3.4909973 6.8286743 -3.4909973zm-14.853699 9.874756l6.4293213 3.2877808c0.30969238 0.15835571 0.6498413 0.23754883 0.98913574 0.23754883c0.33929443 0 0.6793823 -0.079193115 0.98913574 -0.23754883l6.428467 -3.2868958c0.75549316 -0.38446045 1.2260132 -1.1595764 1.2260132 -2.023529l0 -7.8318787c0 -0.86395264 -0.47052002 -1.6390381 -1.2252197 -2.022644l-6.4292603 -3.2868958c-7.9345703E-4 0 -7.9345703E-4 -8.8500977E-4 -0.0016479492 -8.8500977E-4c-0.61535645 -0.3132019 -1.3508301 -0.3132019 -1.9686279 8.8500977E-4l-6.428528 3.2860107c-0.7562256 0.38449097 -1.2259521 1.1595764 -1.2267456 2.023529l0 7.81958c-0.0056152344 0.86569214 0.46014404 1.6452026 1.2179565 2.0349426z" fill-rule="evenodd"/><path fill="#e03875" d="m562.7874 183.16563l0 0c0 -2.8701477 2.3267212 -5.1968536 5.1968384 -5.1968536l0.03149414 0l0 0c1.3782959 0 2.7001343 0.5475311 3.6747437 1.5221252c0.9746094 0.9745941 1.5220947 2.2964325 1.5220947 3.6747284l0 0l0 0c0 2.8701324 -2.3266602 5.1968536 -5.1968384 5.1968536l-0.03149414 0l0 0c-2.8701172 0 -5.1968384 -2.3267212 -5.1968384 -5.1968536z" fill-rule="evenodd"/><path fill="#ffffff" d="m681.01587 237.24834l0 0c0 -0.6185303 0.50146484 -1.1199493 1.1199951 -1.1199493l38.075012 0c0.2970581 0 0.5819092 0.117996216 0.79193115 0.3280182c0.21002197 0.21003723 0.32806396 0.49490356 0.32806396 0.79193115l0 38.075058c0 0.6185303 -0.50146484 1.1199646 -1.1199951 1.1199646l-38.075012 0c-0.6185303 0 -1.1199951 -0.5014343 -1.1199951 -1.1199646z" fill-rule="evenodd"/><path stroke="#d6d6d6" stroke-width="1.0" stroke-miterlimit="400.0" stroke-linecap="butt" d="m681.01587 237.24834l0 0c0 -0.6185303 0.50146484 -1.1199493 1.1199951 -1.1199493l38.075012 0c0.2970581 0 0.5819092 0.117996216 0.79193115 0.3280182c0.21002197 0.21003723 0.32806396 0.49490356 0.32806396 0.79193115l0 38.075058c0 0.6185303 -0.50146484 1.1199646 -1.1199951 1.1199646l-38.075012 0c-0.6185303 0 -1.1199951 -0.5014343 -1.1199951 -1.1199646z" fill-rule="evenodd"/><path fill="#000000" fill-opacity="0.0" d="m665.00275 278.74588l72.346436 0l0 33.88977l-72.346436 0z" fill-rule="evenodd"/><path fill="#000000" d="m689.2785 283.70337l0 1.578125l-2.5625 0l0 6.984375l-1.890625 0l0 -6.984375l-2.5625 0l0 -1.578125l7.015625 0zm2.4570312 2.1875q1.375 0 2.046875 0.453125q0.671875 0.453125 0.671875 1.28125l0 3.328125q0 0.375 0.046875 0.75q0.046875 0.375 0.171875 0.5625l-1.734375 0q-0.046875 -0.140625 -0.078125 -0.28125q-0.03125 -0.15625 -0.046875 -0.3125q-0.359375 0.375 -0.890625 0.578125q-0.515625 0.1875 -1.1875 0.1875q-0.96875 0 -1.546875 -0.484375q-0.5625 -0.484375 -0.5625 -1.375q0 -0.875 0.53125 -1.328125q0.546875 -0.46875 1.96875 -0.625q0.984375 -0.09375 1.296875 -0.234375q0.328125 -0.15625 0.328125 -0.53125q0 -0.40625 -0.25 -0.609375q-0.234375 -0.21875 -0.84375 -0.21875q-0.53125 0 -0.8125 0.234375q-0.28125 0.21875 -0.328125 0.703125l-1.703125 0q0.0625 -1.015625 0.828125 -1.546875q0.78125 -0.53125 2.09375 -0.53125zm-1.40625 4.609375q0 0.375 0.25 0.59375q0.25 0.203125 0.796875 0.203125q0.671875 0 1.015625 -0.359375q0.359375 -0.359375 0.359375 -1.046875l0 -0.65625q-0.15625 0.125 -0.40625 0.1875q-0.25 0.046875 -0.890625 0.140625q-0.59375 0.078125 -0.859375 0.3125q-0.265625 0.21875 -0.265625 0.625zm7.984375 -4.609375q1.265625 0 1.953125 0.5q0.703125 0.5 0.796875 1.484375l-1.625 0q-0.046875 -0.4375 -0.34375 -0.640625q-0.28125 -0.203125 -0.828125 -0.203125q-0.484375 0 -0.71875 0.15625q-0.21875 0.140625 -0.21875 0.421875q0 0.28125 0.296875 0.46875q0.296875 0.1875 1.1875 0.359375q1.421875 0.265625 1.90625 0.703125q0.5 0.4375 0.5 1.140625q0 1.046875 -0.78125 1.609375q-0.765625 0.546875 -2.046875 0.546875q-1.296875 0 -2.078125 -0.546875q-0.78125 -0.546875 -0.84375 -1.640625l1.625 0q0 0.484375 0.375 0.765625q0.375 0.28125 0.9375 0.28125q0.5 0 0.796875 -0.21875q0.3125 -0.21875 0.3125 -0.578125q0 -0.328125 -0.40625 -0.53125q-0.390625 -0.203125 -1.46875 -0.421875q-1.078125 -0.21875 -1.546875 -0.609375q-0.46875 -0.390625 -0.46875 -1.0625q0 -0.984375 0.6875 -1.484375q0.703125 -0.5 2.0 -0.5zm5.7734375 -2.1875l0 4.59375l2.140625 -2.234375l2.015625 0l-2.34375 2.28125l2.609375 3.921875l-2.0625 0l-1.703125 -2.765625l-0.65625 0.625l0 2.140625l-1.71875 0l0 -8.5625l1.71875 0zm12.630859 0q1.3125 0 1.984375 0.515625q0.6875 0.515625 0.6875 1.59375q0 0.65625 -0.3125 1.09375q-0.296875 0.4375 -0.84375 0.703125q0.78125 0.234375 1.171875 0.796875q0.390625 0.546875 0.390625 1.375q0 1.1875 -0.859375 1.84375q-0.84375 0.640625 -2.109375 0.640625l-4.203125 0l0 -8.5625l4.09375 0zm-0.265625 3.46875q0.5 0 0.796875 -0.25q0.3125 -0.265625 0.3125 -0.78125q0 -0.5 -0.3125 -0.734375q-0.3125 -0.25 -0.921875 -0.25l-1.8125 0l0 2.015625l1.9375 0zm0.125 3.625q0.625 0 0.984375 -0.265625q0.359375 -0.28125 0.359375 -0.859375q0 -0.59375 -0.34375 -0.90625q-0.34375 -0.3125 -0.96875 -0.3125l-2.09375 0l0 2.34375l2.0625 0z" fill-rule="nonzero"/><path fill="#000000" d="m700.92786 249.35033l-7.247986 3.6246796c-0.184021 0.092422485 -0.2946167 0.2700348 -0.2946167 0.47583008c0 0.20649719 0.1105957 0.38412476 0.2946167 0.47583008l7.247986 3.6253967c0.07635498 0.038269043 0.16589355 0.067871094 0.2487793 0.067871094c0.08294678 0 0.17248535 -0.02960205 0.24884033 -0.067871094l7.247925 -3.6253967c0.18408203 -0.09170532 0.29467773 -0.2693329 0.29467773 -0.47583008c0 -0.20579529 -0.1105957 -0.3834076 -0.29467773 -0.47583008l-7.247925 -3.6246796c-0.152771 -0.076538086 -0.34484863 -0.076538086 -0.49761963 0zm0.2487793 1.0874023l6.0249634 3.0131073c0 0 -6.0249634 3.0138245 -6.0249634 3.0138245l-6.0249023 -3.0138245l6.0249023 -3.0131073zm-6.998352 6.162674c-0.26849365 -0.13284302 -0.5908203 -0.041870117 -0.72540283 0.22671509c-0.1338501 0.26861572 -0.042175293 0.5906372 0.22698975 0.72494507l7.247986 3.6246643c0.07635498 0.038269043 0.16589355 0.067871094 0.2487793 0.067871094c0.08294678 0 0.17248535 -0.02960205 0.24884033 -0.067871094l7.247925 -3.6246643c0.26922607 -0.13430786 0.36090088 -0.45632935 0.22705078 -0.72494507c-0.13464355 -0.2685852 -0.45544434 -0.3595581 -0.72540283 -0.22671509l-6.998413 3.488922l-6.998352 -3.488922zm0 3.6246643c-0.26849365 -0.13284302 -0.5908203 -0.041137695 -0.72540283 0.2267456c-0.1338501 0.2685852 -0.042175293 0.5906372 0.22698975 0.72491455l7.247986 3.6253967c0.07635498 0.038269043 0.16589355 0.067871094 0.2487793 0.067871094c0.08294678 0 0.17248535 -0.02960205 0.24884033 -0.067871094l7.247925 -3.6253967c0.26922607 -0.13427734 0.36090088 -0.45632935 0.22705078 -0.72491455c-0.13464355 -0.2678833 -0.45544434 -0.35958862 -0.72540283 -0.2267456l-6.998413 3.4896545l-6.998352 -3.4896545z" fill-rule="evenodd"/><path fill="#000000" fill-opacity="0.0" d="m529.7073 165.07146l-51.848602 0l0 91.2126l-31.930908 0" fill-rule="evenodd"/><path stroke="#dc477d" stroke-width="2.0" stroke-linejoin="round" stroke-linecap="butt" d="m529.7073 165.07146l-51.848602 0l0 91.2126l-31.930908 0" fill-rule="evenodd"/><path fill="#000000" fill-opacity="0.0" d="m529.7073 347.62396l-51.791626 0l0 -91.33859l-31.987885 0" fill-rule="evenodd"/><path stroke="#dc477d" stroke-width="2.0" stroke-linejoin="round" stroke-linecap="butt" d="m529.7073 347.62396l-51.791626 0l0 -91.33859l-31.987885 0" fill-rule="evenodd"/><path fill="#000000" fill-opacity="0.0" d="m445.93826 256.28668l83.77951 0.12597656" fill-rule="evenodd"/><path stroke="#e03875" stroke-width="2.0" stroke-linejoin="round" stroke-linecap="round" d="m445.93826 256.28668l83.77951 0.12597656" fill-rule="evenodd"/><path fill="#ffffff" d="m405.62332 237.24916l0 0c0 -0.6185303 0.5014038 -1.1199493 1.1199341 -1.1199493l38.075073 0c0.2970276 0 0.58187866 0.117996216 0.79193115 0.3280182c0.21002197 0.21003723 0.32800293 0.49490356 0.32800293 0.79193115l0 38.075058c0 0.6185303 -0.5014038 1.1199341 -1.1199341 1.1199341l-38.075073 0c-0.6185303 0 -1.1199341 -0.5014038 -1.1199341 -1.1199341z" fill-rule="evenodd"/><path stroke="#d6d6d6" stroke-width="1.0" stroke-miterlimit="400.0" stroke-linecap="butt" d="m405.62332 237.24916l0 0c0 -0.6185303 0.5014038 -1.1199493 1.1199341 -1.1199493l38.075073 0c0.2970276 0 0.58187866 0.117996216 0.79193115 0.3280182c0.21002197 0.21003723 0.32800293 0.49490356 0.32800293 0.79193115l0 38.075058c0 0.6185303 -0.5014038 1.1199341 -1.1199341 1.1199341l-38.075073 0c-0.6185303 0 -1.1199341 -0.5014038 -1.1199341 -1.1199341z" fill-rule="evenodd"/><path fill="#000000" fill-opacity="0.0" d="m389.61017 278.7467l72.346436 0l0 33.88977l-72.346436 0z" fill-rule="evenodd"/><path fill="#000000" d="m418.68964 283.50107q1.453125 0 2.484375 0.828125q1.03125 0.8125 1.203125 2.25l-1.8125 0q-0.125 -0.671875 -0.671875 -1.078125q-0.546875 -0.421875 -1.203125 -0.421875q-1.109375 0 -1.71875 0.8125q-0.609375 0.796875 -0.609375 2.125q0 1.265625 0.59375 2.0625q0.609375 0.796875 1.734375 0.796875q0.8125 0 1.3125 -0.5q0.515625 -0.5 0.625 -1.40625l1.828125 0q-0.15625 1.625 -1.1875 2.5625q-1.015625 0.9375 -2.578125 0.9375q-1.234375 0 -2.203125 -0.5625q-0.96875 -0.5625 -1.5 -1.59375q-0.515625 -1.03125 -0.515625 -2.296875q0 -1.96875 1.15625 -3.234375q1.15625 -1.28125 3.0625 -1.28125zm11.107422 0.203125l0 1.578125l-2.5625 0l0 6.984375l-1.890625 0l0 -6.984375l-2.5625 0l0 -1.578125l7.015625 0zm3.7460938 -0.203125q1.546875 0 2.484375 0.71875q0.9375 0.71875 0.9375 2.03125l-1.8125 0q-0.046875 -0.640625 -0.453125 -0.96875q-0.390625 -0.328125 -1.234375 -0.328125q-0.578125 0 -0.953125 0.265625q-0.359375 0.25 -0.359375 0.71875q0 0.3125 0.15625 0.46875q0.15625 0.15625 0.625 0.34375q0.46875 0.171875 2.0625 0.546875q1.0625 0.25 1.65625 0.875q0.609375 0.609375 0.609375 1.546875q0 1.25 -0.9375 2.0q-0.9375 0.75 -2.625 0.75q-1.609375 0 -2.640625 -0.796875q-1.015625 -0.796875 -1.015625 -2.203125l0 -0.046875l1.828125 0q0 0.796875 0.515625 1.1875q0.53125 0.390625 1.375 0.390625q0.765625 0 1.21875 -0.265625q0.453125 -0.28125 0.453125 -0.796875q0 -0.421875 -0.359375 -0.6875q-0.34375 -0.265625 -1.109375 -0.453125q-0.984375 -0.21875 -1.78125 -0.46875q-0.796875 -0.25 -1.328125 -0.8125q-0.53125 -0.5625 -0.53125 -1.4375q0 -1.15625 0.921875 -1.859375q0.9375 -0.71875 2.296875 -0.71875z" fill-rule="nonzero"/><path fill="#000000" d="m418.34897 252.37369c0 -0.0070343018 0.0024108887 -0.0140686035 0.0024108887 -0.021118164l6.8286133 3.4910126l0 8.4925995l-6.278839 -3.2103271c-0.34332275 -0.17684937 -0.5553894 -0.5314026 -0.55218506 -0.92907715c0 0 0 -7.8230896 0 -7.8230896zm6.987091 -4.2071533c0.14004517 -0.071258545 0.29370117 -0.10733032 0.44735718 -0.10733032c0.15362549 0 0.3072815 0.036071777 0.4465332 0.10733032l6.238037 3.1892395l-6.6845703 3.417984l-6.6853943 -3.417984c0 0 6.238037 -3.1892395 6.238037 -3.1892395zm7.8785706 4.186035c0 0.0070495605 0.0032043457 0.013198853 0.0032043457 0.020233154l0 7.831909c-7.9345703E-4 0.3923645 -0.21447754 0.7451782 -0.5593872 0.92025757l-6.2724304 3.2068176l0 -8.488205c0 0 6.8286133 -3.4910126 6.8286133 -3.4910126zm-14.853668 9.874756l6.4293213 3.2877808c0.30969238 0.15835571 0.6498108 0.23754883 0.9891052 0.23754883c0.33932495 0 0.67944336 -0.079193115 0.98913574 -0.23754883l6.4284973 -3.2868958c0.75546265 -0.38446045 1.2260132 -1.1595459 1.2260132 -2.0234985l0 -7.831909c0 -0.86395264 -0.47055054 -1.6390381 -1.2251892 -2.0226288l-6.4293213 -3.2868958c-7.9345703E-4 0 -7.9345703E-4 -8.8500977E-4 -0.0015869141 -8.8500977E-4c-0.6154175 -0.3132019 -1.3508606 -0.3132019 -1.9686584 8.8500977E-4l-6.4284973 3.2860107c-0.7562561 0.3844757 -1.2260132 1.1595612 -1.2268066 2.0235138l0 7.81958c-0.0056152344 0.86572266 0.46014404 1.6452026 1.2179871 2.0349426z" fill-rule="evenodd"/><path fill="#ffffff" d="m529.7073 237.38432l0 0c0 -0.6185303 0.50146484 -1.1199493 1.1199951 -1.1199493l38.075012 0c0.2970581 0 0.5819092 0.117996216 0.79193115 0.32803345c0.21008301 0.21002197 0.32806396 0.4948883 0.32806396 0.7919159l0 38.075058c0 0.6185303 -0.5014038 1.1199646 -1.1199951 1.1199646l-38.075012 0c-0.6185303 0 -1.1199951 -0.5014343 -1.1199951 -1.1199646z" fill-rule="evenodd"/><path stroke="#d6d6d6" stroke-width="1.0" stroke-miterlimit="400.0" stroke-linecap="butt" d="m529.7073 237.38432l0 0c0 -0.6185303 0.50146484 -1.1199493 1.1199951 -1.1199493l38.075012 0c0.2970581 0 0.5819092 0.117996216 0.79193115 0.32803345c0.21008301 0.21002197 0.32806396 0.4948883 0.32806396 0.7919159l0 38.075058c0 0.6185303 -0.5014038 1.1199646 -1.1199951 1.1199646l-38.075012 0c-0.6185303 0 -1.1199951 -0.5014343 -1.1199951 -1.1199646z" fill-rule="evenodd"/><path fill="#000000" fill-opacity="0.0" d="m489.3937 278.60797l120.944855 0l0 33.88977l-120.944855 0z" fill-rule="evenodd"/><path fill="#000000" d="m510.6601 283.36237q1.453125 0 2.484375 0.828125q1.03125 0.8125 1.203125 2.25l-1.8125 0q-0.125 -0.671875 -0.671875 -1.078125q-0.546875 -0.421875 -1.203125 -0.421875q-1.109375 0 -1.71875 0.8125q-0.609375 0.796875 -0.609375 2.125q0 1.265625 0.59375 2.0625q0.609375 0.796875 1.734375 0.796875q0.8125 0 1.3125 -0.5q0.515625 -0.5 0.625 -1.40625l1.828125 0q-0.15625 1.625 -1.1875 2.5625q-1.015625 0.9375 -2.578125 0.9375q-1.234375 0 -2.203125 -0.5625q-0.96875 -0.5625 -1.5 -1.59375q-0.515625 -1.03125 -0.515625 -2.296875q0 -1.96875 1.15625 -3.234375q1.15625 -1.28125 3.0625 -1.28125zm11.107422 0.203125l0 1.578125l-2.5625 0l0 6.984375l-1.890625 0l0 -6.984375l-2.5625 0l0 -1.578125l7.015625 0zm3.7460938 -0.203125q1.546875 0 2.484375 0.71875q0.9375 0.71875 0.9375 2.03125l-1.8125 0q-0.046875 -0.640625 -0.453125 -0.96875q-0.390625 -0.328125 -1.234375 -0.328125q-0.578125 0 -0.953125 0.265625q-0.359375 0.25 -0.359375 0.71875q0 0.3125 0.15625 0.46875q0.15625 0.15625 0.625 0.34375q0.46875 0.171875 2.0625 0.546875q1.0625 0.25 1.65625 0.875q0.609375 0.609375 0.609375 1.546875q0 1.25 -0.9375 2.0q-0.9375 0.75 -2.625 0.75q-1.609375 0 -2.640625 -0.796875q-1.015625 -0.796875 -1.015625 -2.203125l0 -0.046875l1.828125 0q0 0.796875 0.515625 1.1875q0.53125 0.390625 1.375 0.390625q0.765625 0 1.21875 -0.265625q0.453125 -0.28125 0.453125 -0.796875q0 -0.421875 -0.359375 -0.6875q-0.34375 -0.265625 -1.109375 -0.453125q-0.984375 -0.21875 -1.78125 -0.46875q-0.796875 -0.25 -1.328125 -0.8125q-0.53125 -0.5625 -0.53125 -1.4375q0 -1.15625 0.921875 -1.859375q0.9375 -0.71875 2.296875 -0.71875zm10.058594 0.203125l0 8.5625l-1.890625 0l0 -8.5625l1.890625 0zm5.0234375 2.1875q1.1875 0 1.71875 0.609375q0.546875 0.59375 0.546875 1.890625l0 3.875l-1.703125 0l0 -3.5625q0 -0.71875 -0.25 -1.09375q-0.25 -0.375 -0.84375 -0.375q-0.703125 0 -1.015625 0.421875q-0.3125 0.421875 -0.3125 1.296875l0 3.3125l-1.6875 0l0 -6.203125l1.609375 0l0 0.859375l0.03125 0q0.3125 -0.5 0.8125 -0.765625q0.5 -0.265625 1.09375 -0.265625zm6.0976562 0q1.265625 0 1.953125 0.5q0.703125 0.5 0.796875 1.484375l-1.625 0q-0.046875 -0.4375 -0.34375 -0.640625q-0.28125 -0.203125 -0.828125 -0.203125q-0.484375 0 -0.71875 0.15625q-0.21875 0.140625 -0.21875 0.421875q0 0.28125 0.296875 0.46875q0.296875 0.1875 1.1875 0.359375q1.421875 0.265625 1.90625 0.703125q0.5 0.4375 0.5 1.140625q0 1.046875 -0.78125 1.609375q-0.765625 0.546875 -2.046875 0.546875q-1.296875 0 -2.078125 -0.546875q-0.78125 -0.546875 -0.84375 -1.640625l1.625 0q0 0.484375 0.375 0.765625q0.375 0.28125 0.9375 0.28125q0.5 0 0.796875 -0.21875q0.3125 -0.21875 0.3125 -0.578125q0 -0.328125 -0.40625 -0.53125q-0.390625 -0.203125 -1.46875 -0.421875q-1.078125 -0.21875 -1.546875 -0.609375q-0.46875 -0.390625 -0.46875 -1.0625q0 -0.984375 0.6875 -1.484375q0.703125 -0.5 2.0 -0.5zm6.0703125 -1.6875l0 1.859375l1.25 0l0 1.140625l-1.25 0l0 3.109375q0 0.375 0.140625 0.53125q0.140625 0.15625 0.578125 0.15625q0.140625 0 0.265625 -0.015625q0.140625 -0.015625 0.265625 -0.03125l0 1.328125q-0.21875 0.03125 -0.484375 0.046875q-0.25 0.015625 -0.5 0.015625q-1.109375 0 -1.546875 -0.375q-0.421875 -0.390625 -0.421875 -1.0625l0 -3.703125l-1.03125 0l0 -1.140625l1.03125 0l0 -1.859375l1.703125 0zm4.9121094 1.6875q1.375 0 2.046875 0.453125q0.671875 0.453125 0.671875 1.28125l0 3.328125q0 0.375 0.046875 0.75q0.046875 0.375 0.171875 0.5625l-1.734375 0q-0.046875 -0.140625 -0.078125 -0.28125q-0.03125 -0.15625 -0.046875 -0.3125q-0.359375 0.375 -0.890625 0.578125q-0.515625 0.1875 -1.1875 0.1875q-0.96875 0 -1.546875 -0.484375q-0.5625 -0.484375 -0.5625 -1.375q0 -0.875 0.53125 -1.328125q0.546875 -0.46875 1.96875 -0.625q0.984375 -0.09375 1.296875 -0.234375q0.328125 -0.15625 0.328125 -0.53125q0 -0.40625 -0.25 -0.609375q-0.234375 -0.21875 -0.84375 -0.21875q-0.53125 0 -0.8125 0.234375q-0.28125 0.21875 -0.328125 0.703125l-1.703125 0q0.0625 -1.015625 0.828125 -1.546875q0.78125 -0.53125 2.09375 -0.53125zm-1.40625 4.609375q0 0.375 0.25 0.59375q0.25 0.203125 0.796875 0.203125q0.671875 0 1.015625 -0.359375q0.359375 -0.359375 0.359375 -1.046875l0 -0.65625q-0.15625 0.125 -0.40625 0.1875q-0.25 0.046875 -0.890625 0.140625q-0.59375 0.078125 -0.859375 0.3125q-0.265625 0.21875 -0.265625 0.625zm9.0 -4.609375q1.1875 0 1.71875 0.609375q0.546875 0.59375 0.546875 1.890625l0 3.875l-1.703125 0l0 -3.5625q0 -0.71875 -0.25 -1.09375q-0.25 -0.375 -0.84375 -0.375q-0.703125 0 -1.015625 0.421875q-0.3125 0.421875 -0.3125 1.296875l0 3.3125l-1.6875 0l0 -6.203125l1.609375 0l0 0.859375l0.03125 0q0.3125 -0.5 0.8125 -0.765625q0.5 -0.265625 1.09375 -0.265625zm6.5351562 0q1.203125 0 2.015625 0.625q0.828125 0.625 0.90625 1.734375l-1.671875 0q-0.078125 -0.53125 -0.40625 -0.796875q-0.3125 -0.28125 -0.859375 -0.28125q-0.6875 0 -1.078125 0.5625q-0.375 0.5625 -0.375 1.453125q0 0.890625 0.375 1.4375q0.375 0.53125 1.046875 0.53125q0.5625 0 0.90625 -0.328125q0.359375 -0.328125 0.453125 -0.9375l1.640625 0q-0.171875 1.21875 -0.96875 1.890625q-0.78125 0.65625 -2.015625 0.65625q-1.390625 0 -2.265625 -0.890625q-0.875 -0.890625 -0.875 -2.296875q0 -1.5 0.859375 -2.421875q0.859375 -0.9375 2.3125 -0.9375zm6.78125 0q1.375 0 2.203125 0.953125q0.828125 0.9375 0.828125 2.421875l-0.015625 0.3125l-4.484375 0q0.046875 0.796875 0.421875 1.1875q0.390625 0.390625 1.09375 0.390625q0.46875 0 0.859375 -0.234375q0.390625 -0.25 0.5 -0.578125l1.5 0q-0.34375 1.046875 -1.0625 1.578125q-0.71875 0.515625 -1.84375 0.515625q-1.4375 0 -2.3125 -0.90625q-0.859375 -0.90625 -0.859375 -2.359375q0 -1.390625 0.890625 -2.328125q0.890625 -0.953125 2.28125 -0.953125zm-1.46875 2.609375l2.78125 0q-0.125 -0.6875 -0.453125 -1.0q-0.3125 -0.328125 -0.921875 -0.328125q-0.609375 0 -0.984375 0.359375q-0.359375 0.34375 -0.421875 0.96875zm13.099609 -4.796875q1.3125 0 1.984375 0.515625q0.6875 0.515625 0.6875 1.59375q0 0.65625 -0.3125 1.09375q-0.296875 0.4375 -0.84375 0.703125q0.78125 0.234375 1.171875 0.796875q0.390625 0.546875 0.390625 1.375q0 1.1875 -0.859375 1.84375q-0.84375 0.640625 -2.109375 0.640625l-4.203125 0l0 -8.5625l4.09375 0zm-0.265625 3.46875q0.5 0 0.796875 -0.25q0.3125 -0.265625 0.3125 -0.78125q0 -0.5 -0.3125 -0.734375q-0.3125 -0.25 -0.921875 -0.25l-1.8125 0l0 2.015625l1.9375 0zm0.125 3.625q0.625 0 0.984375 -0.265625q0.359375 -0.28125 0.359375 -0.859375q0 -0.59375 -0.34375 -0.90625q-0.34375 -0.3125 -0.96875 -0.3125l-2.09375 0l0 2.34375l2.0625 0z" fill-rule="nonzero"/><path fill="#000000" d="m525.5634 297.36237q-0.640625 1.1875 -0.984375 2.578125q-0.328125 1.390625 -0.328125 2.859375q0 1.46875 0.3125 2.84375q0.3125 1.359375 0.984375 2.671875l-1.421875 0q-0.765625 -1.28125 -1.171875 -2.671875q-0.40625 -1.390625 -0.40625 -2.734375q0 -1.390625 0.40625 -2.90625q0.40625 -1.515625 1.171875 -2.640625l1.4375 0zm6.7539062 0.203125l0 1.578125l-4.125 0l0 1.984375l3.578125 0l0 1.453125l-3.578125 0l0 3.546875l-1.890625 0l0 -8.5625l6.015625 0zm3.421875 2.1875q1.46875 0 2.34375 0.90625q0.875 0.890625 0.875 2.375q0 1.484375 -0.890625 2.375q-0.875 0.890625 -2.328125 0.890625q-1.4375 0 -2.328125 -0.890625q-0.875 -0.90625 -0.875 -2.375q0 -1.46875 0.859375 -2.375q0.875 -0.90625 2.34375 -0.90625zm-1.5 3.28125q0 0.984375 0.40625 1.484375q0.40625 0.5 1.09375 0.5q0.734375 0 1.125 -0.515625q0.390625 -0.53125 0.390625 -1.46875q0 -0.921875 -0.390625 -1.453125q-0.375 -0.546875 -1.125 -0.546875q-0.6875 0 -1.09375 0.5q-0.40625 0.5 -0.40625 1.5zm7.580078 -5.46875l0 8.5625l-1.703125 0l0 -8.5625l1.703125 0zm3.09375 0l0 8.5625l-1.703125 0l0 -8.5625l1.703125 0zm4.34375 2.1875q1.46875 0 2.34375 0.90625q0.875 0.890625 0.875 2.375q0 1.484375 -0.890625 2.375q-0.875 0.890625 -2.328125 0.890625q-1.4375 0 -2.328125 -0.890625q-0.875 -0.90625 -0.875 -2.375q0 -1.46875 0.859375 -2.375q0.875 -0.90625 2.34375 -0.90625zm-1.5 3.28125q0 0.984375 0.40625 1.484375q0.40625 0.5 1.09375 0.5q0.734375 0 1.125 -0.515625q0.390625 -0.53125 0.390625 -1.46875q0 -0.921875 -0.390625 -1.453125q-0.375 -0.546875 -1.125 -0.546875q-0.6875 0 -1.09375 0.5q-0.40625 0.5 -0.40625 1.5zm7.048828 -3.109375l1.140625 4.203125l0.015625 0l1.03125 -4.203125l1.65625 0l1.0625 4.203125l0.015625 0l1.15625 -4.203125l1.75 0l-1.96875 6.203125l-1.75 0l-1.09375 -4.171875l-0.03125 0l-1.0625 4.171875l-1.75 0l-1.96875 -6.203125l1.796875 0zm11.408203 -0.171875q1.375 0 2.203125 0.953125q0.828125 0.9375 0.828125 2.421875l-0.015625 0.3125l-4.484375 0q0.046875 0.796875 0.421875 1.1875q0.390625 0.390625 1.09375 0.390625q0.46875 0 0.859375 -0.234375q0.390625 -0.25 0.5 -0.578125l1.5 0q-0.34375 1.046875 -1.0625 1.578125q-0.71875 0.515625 -1.84375 0.515625q-1.4375 0 -2.3125 -0.90625q-0.859375 -0.90625 -0.859375 -2.359375q0 -1.390625 0.890625 -2.328125q0.890625 -0.953125 2.28125 -0.953125zm-1.46875 2.609375l2.78125 0q-0.125 -0.6875 -0.453125 -1.0q-0.3125 -0.328125 -0.921875 -0.328125q-0.609375 0 -0.984375 0.359375q-0.359375 0.34375 -0.421875 0.96875zm9.109375 -2.609375q0.109375 0 0.203125 0.015625q0.09375 0.015625 0.171875 0.046875l0 1.578125q-0.140625 -0.03125 -0.28125 -0.03125q-0.140625 -0.015625 -0.328125 -0.015625q-0.859375 0 -1.28125 0.53125q-0.40625 0.515625 -0.40625 1.40625l0 2.84375l-1.6875 0l0 -6.203125l1.609375 0l0 1.15625l0.03125 0q0.265625 -0.609375 0.796875 -0.96875q0.546875 -0.359375 1.171875 -0.359375zm1.7480469 -2.390625q0.78125 1.265625 1.1875 2.65625q0.40625 1.390625 0.40625 2.75q0 1.375 -0.421875 2.90625q-0.40625 1.515625 -1.171875 2.640625l-1.421875 0q0.65625 -1.25 0.96875 -2.609375q0.328125 -1.375 0.328125 -2.8125q0 -1.5 -0.328125 -2.875q-0.3125 -1.390625 -0.96875 -2.65625l1.421875 0z" fill-rule="nonzero"/><path fill="#000000" d="m542.433 252.50887c0 -0.0070495605 0.002380371 -0.014083862 0.002380371 -0.021118164l6.8286133 3.4910126l0 8.492615l-6.2788696 -3.2103577c-0.34326172 -0.17684937 -0.5553589 -0.5314026 -0.552124 -0.92907715c0 0 0 -7.8230743 0 -7.8230743zm6.9870605 -4.2071533c0.14007568 -0.0712738 0.29370117 -0.10734558 0.44732666 -0.10734558c0.15368652 0 0.307312 0.036071777 0.44659424 0.10734558l6.238037 3.1892242l-6.6846313 3.417984l-6.685364 -3.417984c0 0 6.238037 -3.1892242 6.238037 -3.1892242zm7.878601 4.186035c0 0.0070343018 0.0031738281 0.013198853 0.0031738281 0.020233154l0 7.831894c-7.9345703E-4 0.39239502 -0.21447754 0.7451782 -0.5593872 0.92025757l-6.272461 3.2068481l0 -8.48822c0 0 6.8286743 -3.4910126 6.8286743 -3.4910126zm-14.853699 9.874771l6.4293213 3.2877808c0.30969238 0.15835571 0.6498413 0.23751831 0.98913574 0.23751831c0.33929443 0 0.6793823 -0.0791626 0.98913574 -0.23751831l6.428467 -3.2868958c0.75549316 -0.38449097 1.2260132 -1.1595764 1.2260132 -2.023529l0 -7.831894c0 -0.86395264 -0.47052002 -1.6390533 -1.2252197 -2.022644l-6.4292603 -3.2868958c-7.9345703E-4 0 -7.9345703E-4 -8.69751E-4 -0.0016479492 -8.69751E-4c-0.61535645 -0.3132019 -1.3508301 -0.3132019 -1.9686279 8.69751E-4l-6.428528 3.286026c-0.7562256 0.38446045 -1.2259521 1.1595612 -1.2267456 2.0235138l0 7.819565c-0.0056152344 0.86572266 0.46014404 1.6452026 1.2179565 2.0349731z" fill-rule="evenodd"/><path fill="#000000" fill-opacity="0.0" d="m681.01587 256.28586l-53.474854 0l0 -91.212585l-57.517273 0" fill-rule="evenodd"/><path stroke="#dc477d" stroke-width="2.0" stroke-linejoin="round" stroke-linecap="butt" stroke-dasharray="8.0,6.0" d="m681.01587 256.28586l-53.474854 0l0 -91.212585l-57.517273 0" fill-rule="evenodd"/><path fill="#000000" fill-opacity="0.0" d="m628.8269 165.00896l52.188965 0" fill-rule="evenodd"/><path stroke="#e03875" stroke-width="2.0" stroke-linejoin="round" stroke-linecap="round" stroke-dasharray="6.0,8.0" d="m628.8269 165.00896l52.188965 0" fill-rule="evenodd"/></g></svg>