<svg width="1600" height="509" viewBox="0 0 1600 509" fill="none" xmlns="http://www.w3.org/2000/svg">
<mask id="mask0" mask-type="alpha" maskUnits="userSpaceOnUse" x="1091" y="0" width="509" height="509">
<rect x="1091" width="509" height="509" fill="#FF00FF"/>
</mask>
<g mask="url(#mask0)">
<path opacity="0.1" d="M1058.72 629.019H1058.62C1058.22 628.919 1057.92 628.619 1058.02 628.119C1070.52 544.419 1096.42 463.819 1135.02 388.419C1172.62 314.819 1221.42 247.719 1280.12 189.019C1338.72 130.419 1405.72 81.6194 1479.32 44.0194C1554.72 5.51938 1635.42 -20.3806 1719.02 -32.9806C1719.42 -33.0806 1719.82 -32.7806 1719.92 -32.3806C1720.02 -31.9806 1719.72 -31.5806 1719.32 -31.4806C1635.82 -18.9806 1555.32 6.91938 1480.02 45.3194C1406.52 82.8194 1339.62 131.619 1281.02 190.119C1222.42 248.719 1173.72 315.619 1136.22 389.119C1097.82 464.419 1071.92 544.919 1059.42 628.419C1059.32 628.819 1059.02 629.019 1058.72 629.019Z" fill="var(--gray-4, #bfbfc0)"/>
<path opacity="0.15" d="M1074.82 629.019H1074.72C1074.32 628.919 1074.02 628.619 1074.12 628.119C1086.62 546.619 1112.02 468.019 1149.72 394.619C1186.52 322.919 1234.12 257.519 1291.32 200.319C1348.52 143.119 1413.82 95.5195 1485.62 58.7195C1559.12 21.0195 1637.62 -4.38052 1719.12 -16.8805C1719.52 -16.9805 1719.92 -16.6805 1720.02 -16.2805C1720.12 -15.8805 1719.82 -15.4805 1719.42 -15.3805C1638.12 -2.98052 1559.62 22.4195 1486.32 60.0195C1414.72 96.7195 1349.52 144.319 1292.42 201.419C1235.32 258.519 1187.72 323.719 1151.02 395.319C1113.42 468.619 1088.02 547.019 1075.62 628.419C1075.52 628.819 1075.22 629.019 1074.82 629.019Z" fill="var(--gray-4, #bfbfc0)"/>
<path opacity="0.2" d="M1091.02 629.019H1090.92C1090.52 628.919 1090.22 628.619 1090.32 628.119C1102.72 548.819 1127.72 472.319 1164.52 400.819C1200.42 331.019 1246.92 267.319 1302.62 211.619C1358.32 155.919 1422.02 109.419 1491.82 73.5192C1563.32 36.7192 1639.82 11.7192 1719.12 -0.680814C1719.52 -0.780814 1719.92 -0.480812 1720.02 -0.0808117C1720.12 0.319188 1719.82 0.719186 1719.42 0.819186C1640.22 13.2192 1563.92 38.1192 1492.62 74.8192C1422.92 110.719 1359.42 157.119 1303.82 212.719C1248.22 268.319 1201.82 331.819 1165.92 401.519C1129.22 472.819 1104.32 549.219 1091.92 628.319C1091.72 628.819 1091.42 629.019 1091.02 629.019Z" fill="var(--gray-4, #bfbfc0)"/>
<path opacity="0.25" d="M1107.22 629.019H1107.12C1106.72 628.919 1106.42 628.619 1106.52 628.119C1118.82 550.919 1143.32 476.619 1179.32 407.019C1214.32 339.219 1259.62 277.319 1313.92 223.019C1368.22 168.719 1430.12 123.419 1498.02 88.3194C1567.52 52.4194 1641.92 27.9194 1719.12 15.5194C1719.52 15.4194 1719.92 15.7194 1720.02 16.1194C1720.12 16.5194 1719.82 16.9194 1719.42 17.0194C1642.42 29.3194 1568.12 53.8194 1498.82 89.6194C1431.02 124.619 1369.22 169.819 1315.12 224.019C1260.92 278.219 1215.72 340.019 1180.72 407.719C1144.72 477.219 1120.22 551.419 1107.92 628.419C1107.92 628.819 1107.62 629.019 1107.22 629.019Z" fill="var(--gray-4, #bfbfc0)"/>
<path opacity="0.3" d="M1123.42 629.02H1123.32C1122.92 628.92 1122.62 628.52 1122.72 628.12C1135.02 553.12 1159.02 480.82 1194.02 413.22C1228.32 347.22 1272.42 287.02 1325.22 234.22C1378.02 181.42 1438.22 137.32 1504.22 103.02C1571.82 67.9196 1644.12 43.9196 1719.12 31.7196C1719.52 31.6196 1719.92 31.9196 1720.02 32.3196C1720.12 32.7196 1719.82 33.1196 1719.42 33.2196C1644.52 45.4196 1572.42 69.4196 1505.02 104.42C1439.12 138.62 1379.02 182.62 1326.42 235.32C1273.62 288.02 1229.52 348.12 1195.42 414.02C1160.42 481.42 1136.52 553.62 1124.22 628.42C1124.12 628.82 1123.82 629.02 1123.42 629.02Z" fill="var(--gray-4, #bfbfc0)"/>
<path opacity="0.35" d="M1139.62 629.019H1139.52C1139.12 628.919 1138.82 628.519 1138.92 628.119C1151.12 555.319 1174.62 485.119 1208.82 419.519C1242.22 355.419 1285.22 296.919 1336.52 245.619C1387.82 194.319 1446.32 151.319 1510.42 117.919C1576.02 83.7194 1646.22 60.2194 1719.02 48.0194C1719.42 47.9194 1719.82 48.2194 1719.92 48.6194C1720.02 49.0194 1719.72 49.4194 1719.32 49.5194C1646.62 61.7194 1576.62 85.1194 1511.12 119.319C1447.12 152.619 1388.72 195.519 1337.52 246.719C1286.32 297.919 1243.42 356.319 1210.12 420.319C1176.02 485.819 1152.52 555.819 1140.32 628.519C1140.32 628.819 1140.02 629.019 1139.62 629.019Z" fill="var(--gray-4, #bfbfc0)"/>
<path opacity="0.4" d="M1155.92 629.02H1155.82C1155.42 628.92 1155.12 628.52 1155.22 628.12C1167.32 557.42 1190.42 489.32 1223.72 425.72C1256.32 363.52 1298.12 306.72 1347.92 256.92C1397.72 207.12 1454.52 165.32 1516.72 132.72C1580.32 99.4196 1648.42 76.3196 1719.12 64.2196C1719.52 64.1196 1719.92 64.4196 1720.02 64.8196C1720.12 65.2196 1719.82 65.6196 1719.42 65.7196C1648.92 77.8196 1580.92 100.82 1517.42 134.02C1455.32 166.62 1398.62 208.32 1348.92 258.02C1299.22 307.72 1257.52 364.42 1225.02 426.52C1191.72 490.02 1168.72 557.92 1156.72 628.52C1156.62 628.82 1156.22 629.02 1155.92 629.02Z" fill="var(--gray-4, #bfbfc0)"/>
<path opacity="0.45" d="M1172.12 629.019H1172.02C1171.62 628.919 1171.32 628.519 1171.42 628.119C1220.32 349.519 1440.42 129.419 1719.12 80.4193C1719.52 80.3193 1719.92 80.6193 1720.02 81.0193C1720.12 81.4193 1719.82 81.8193 1719.42 81.9193C1441.42 130.719 1221.82 350.319 1172.92 628.419C1172.82 628.819 1172.52 629.019 1172.12 629.019Z" fill="var(--gray-4, #bfbfc0)"/>
<path opacity="0.5" d="M1188.42 629.019H1188.32C1187.92 628.919 1187.62 628.519 1187.72 628.119C1199.72 561.819 1221.72 497.819 1253.32 438.119C1284.22 379.719 1323.62 326.319 1370.52 279.419C1417.42 232.519 1470.82 193.119 1529.22 162.219C1588.92 130.619 1652.82 108.519 1719.22 96.6195C1719.62 96.5195 1720.02 96.8195 1720.12 97.2195C1720.22 97.6195 1719.92 98.0195 1719.52 98.1195C1653.32 110.019 1589.52 132.019 1530.02 163.619C1471.72 194.419 1418.52 233.819 1371.72 280.519C1324.92 327.319 1285.62 380.519 1254.82 438.819C1223.32 498.419 1201.32 562.119 1189.32 628.319C1189.02 628.819 1188.72 629.019 1188.42 629.019Z" fill="var(--gray-4, #bfbfc0)"/>
<path d="M1204.62 629.019H1204.52C1204.12 628.919 1203.82 628.519 1203.92 628.119C1215.82 563.919 1237.32 502.119 1268.02 444.419C1298.02 387.919 1336.32 336.219 1381.72 290.819C1427.12 245.419 1478.82 207.119 1535.32 177.119C1593.02 146.419 1654.92 124.819 1719.12 112.919C1719.52 112.819 1719.92 113.119 1720.02 113.519C1720.12 113.919 1719.82 114.319 1719.42 114.419C1655.42 126.219 1593.72 147.819 1536.12 178.419C1479.72 208.419 1428.22 246.519 1382.92 291.819C1337.62 337.119 1299.42 388.619 1269.52 445.019C1238.92 502.619 1217.32 564.319 1205.52 628.319C1205.32 628.819 1205.02 629.019 1204.62 629.019Z" fill="url(#paint0_linear)"/>
<path d="M1220.92 629.02H1220.82C1220.42 628.92 1220.12 628.52 1220.22 628.12C1232.02 566.12 1253.12 506.42 1282.92 450.62C1312.12 396.02 1349.22 346.12 1393.12 302.12C1437.02 258.12 1487.02 221.12 1541.62 191.92C1597.42 162.12 1657.12 141.02 1719.12 129.22C1719.52 129.12 1719.92 129.42 1720.02 129.82C1720.12 130.22 1719.82 130.62 1719.42 130.72C1657.52 142.42 1598.02 163.52 1542.32 193.22C1487.82 222.32 1438.02 259.32 1394.22 303.12C1350.42 346.92 1313.42 396.82 1284.32 451.22C1254.52 506.92 1233.52 566.42 1221.82 628.32C1221.62 628.82 1221.32 629.02 1220.92 629.02Z" fill="url(#paint1_linear)"/>
<path d="M1237.22 629.019H1237.12C1236.72 628.919 1236.42 628.519 1236.52 628.119C1259.82 508.819 1317.82 400.019 1404.42 313.419C1491.02 226.819 1599.82 168.819 1719.12 145.519C1719.52 145.419 1719.92 145.719 1720.02 146.119C1720.12 146.519 1719.82 146.919 1719.42 147.019C1600.42 170.219 1491.82 228.119 1405.52 314.519C1319.02 400.919 1261.12 509.419 1237.92 628.419C1237.92 628.819 1237.52 629.019 1237.22 629.019Z" fill="url(#paint2_linear)"/>
<path d="M1253.52 629.019H1253.42C1253.02 628.919 1252.72 628.519 1252.82 628.119C1275.82 513.119 1332.22 408.219 1415.72 324.719C1499.22 241.219 1604.12 184.919 1719.12 161.819C1719.52 161.719 1719.92 162.019 1720.02 162.419C1720.12 162.819 1719.82 163.219 1719.42 163.319C1604.72 186.319 1500.12 242.519 1416.82 325.819C1333.52 409.119 1277.32 513.719 1254.32 628.419C1254.22 628.819 1253.92 629.019 1253.52 629.019Z" fill="url(#paint3_linear)"/>
<path d="M1269.92 629.019C1269.82 629.019 1269.82 629.019 1269.72 629.019C1269.32 628.919 1269.02 628.519 1269.12 628.119C1291.92 517.519 1346.52 416.519 1427.02 336.019C1507.52 255.519 1608.52 201.019 1719.12 178.119C1719.52 178.019 1719.92 178.319 1720.02 178.719C1720.12 179.119 1719.82 179.519 1719.42 179.619C1609.12 202.419 1508.32 256.819 1428.12 337.019C1347.92 417.219 1293.42 518.019 1270.72 628.319C1270.52 628.819 1270.22 629.019 1269.92 629.019Z" fill="url(#paint4_linear)"/>
<path d="M1286.22 629.019C1286.12 629.019 1286.12 629.019 1286.02 629.019C1285.62 628.919 1285.32 628.519 1285.42 628.119C1308.02 521.819 1360.82 424.719 1438.22 347.419C1515.62 270.019 1612.72 217.219 1718.92 194.619C1719.32 194.519 1719.72 194.819 1719.82 195.219C1719.92 195.619 1719.62 196.019 1719.22 196.119C1613.22 218.619 1516.42 271.319 1439.22 348.519C1362.02 425.719 1309.32 522.519 1286.82 628.519C1286.82 628.819 1286.52 629.019 1286.22 629.019Z" fill="url(#paint5_linear)"/>
<path opacity="0.3" d="M1302.62 629.019C1302.52 629.019 1302.52 629.019 1302.42 629.019C1302.02 628.919 1301.72 628.519 1301.82 628.119C1347.32 420.219 1511.12 256.419 1719.02 210.919C1719.42 210.819 1719.82 211.119 1719.92 211.519C1720.02 211.919 1719.72 212.319 1719.32 212.419C1512.02 257.819 1348.72 421.119 1303.22 628.519C1303.22 628.819 1302.92 629.019 1302.62 629.019Z" fill="var(--gray-4, #bfbfc0)"/>
<path opacity="0.75" d="M1319.02 629.019C1318.92 629.019 1318.92 629.019 1318.82 629.019C1318.42 628.919 1318.12 628.519 1318.22 628.119C1340.32 530.519 1389.62 441.319 1460.92 370.019C1532.22 298.719 1621.42 249.419 1719.02 227.319C1719.42 227.219 1719.82 227.519 1719.92 227.919C1720.02 228.319 1719.72 228.719 1719.32 228.819C1622.02 250.819 1533.02 300.019 1461.92 371.119C1390.92 442.119 1341.72 531.119 1319.72 628.519C1319.62 628.819 1319.32 629.019 1319.02 629.019Z" fill="var(--gray-4, #bfbfc0)"/>
<path opacity="0.75" d="M1335.42 629.02C1335.32 629.02 1335.32 629.02 1335.22 629.02C1334.82 628.92 1334.52 628.52 1334.62 628.12C1356.42 534.82 1403.92 449.52 1472.12 381.32C1540.32 313.12 1625.72 265.52 1718.92 243.72C1719.32 243.62 1719.72 243.92 1719.82 244.32C1719.92 244.72 1719.62 245.12 1719.22 245.22C1626.22 266.92 1541.12 314.32 1473.12 382.42C1405.12 450.42 1357.72 535.52 1336.02 628.52C1336.02 628.82 1335.72 629.02 1335.42 629.02Z" fill="var(--gray-4, #bfbfc0)"/>
<path opacity="0.75" d="M1351.82 629.02C1351.72 629.02 1351.72 629.02 1351.62 629.02C1351.22 628.92 1350.92 628.52 1351.02 628.12C1372.52 539.22 1418.32 457.82 1483.42 392.62C1548.52 327.42 1630.02 281.72 1718.92 260.22C1719.32 260.12 1719.72 260.42 1719.82 260.82C1719.92 261.22 1719.62 261.62 1719.22 261.72C1630.62 283.12 1549.42 328.82 1484.42 393.72C1419.42 458.72 1373.82 539.82 1352.42 628.52C1352.52 628.82 1352.22 629.02 1351.82 629.02Z" fill="var(--gray-4, #bfbfc0)"/>
<path opacity="0.75" d="M1368.32 629.019C1368.22 629.019 1368.22 629.019 1368.12 629.019C1367.72 628.919 1367.52 628.519 1367.62 628.119C1388.72 543.519 1432.72 466.019 1494.82 403.919C1556.92 341.819 1634.42 297.819 1719.02 276.719C1719.42 276.619 1719.82 276.819 1719.92 277.219C1720.02 277.619 1719.82 278.019 1719.42 278.119C1635.12 299.219 1557.82 343.119 1495.92 404.919C1434.02 466.819 1390.12 544.119 1369.12 628.419C1369.02 628.819 1368.62 629.019 1368.32 629.019Z" fill="var(--gray-4, #bfbfc0)"/>
<path opacity="0.75" d="M1384.82 629.019C1384.72 629.019 1384.72 629.019 1384.62 629.019C1384.22 628.919 1384.02 628.519 1384.12 628.119C1404.92 547.919 1447.12 474.319 1506.22 415.219C1565.22 356.219 1638.82 314.019 1719.12 293.119C1719.52 293.019 1719.92 293.219 1720.02 293.619C1720.12 294.019 1719.92 294.419 1719.52 294.519C1639.52 315.319 1566.22 357.319 1507.32 416.219C1448.42 475.119 1406.32 548.519 1385.52 628.519C1385.42 628.819 1385.12 629.019 1384.82 629.019Z" fill="var(--gray-4, #bfbfc0)"/>
<path opacity="0.3" d="M1401.42 629.019C1401.32 629.019 1401.32 629.019 1401.22 629.019C1400.82 628.919 1400.62 628.519 1400.72 628.119C1442.42 473.419 1564.32 351.419 1719.02 309.819C1719.42 309.719 1719.82 309.919 1719.92 310.319C1720.02 310.719 1719.82 311.119 1719.42 311.219C1565.22 352.719 1443.62 474.319 1402.12 628.519C1402.02 628.819 1401.72 629.019 1401.42 629.019Z" fill="url(#paint6_linear)"/>
<path d="M1418.02 629.02C1417.92 629.02 1417.92 629.02 1417.82 629.02C1417.42 628.92 1417.22 628.52 1417.32 628.12C1437.32 556.62 1475.92 490.82 1528.82 437.92C1581.72 385.02 1647.52 346.42 1719.02 326.42C1719.42 326.32 1719.82 326.52 1719.92 326.92C1720.02 327.32 1719.82 327.72 1719.42 327.82C1648.12 347.82 1582.52 386.22 1529.82 438.92C1477.12 491.62 1438.62 557.22 1418.72 628.52C1418.62 628.82 1418.32 629.02 1418.02 629.02Z" fill="url(#paint7_linear)"/>
<path d="M1434.62 629.02C1434.52 629.02 1434.52 629.02 1434.42 629.02C1434.02 628.92 1433.82 628.52 1433.92 628.12C1453.52 560.92 1490.22 499.02 1540.12 449.22C1589.92 399.32 1651.82 362.62 1719.02 343.02C1719.42 342.92 1719.82 343.12 1719.92 343.52C1720.02 343.92 1719.82 344.32 1719.42 344.42C1652.42 363.92 1590.82 400.52 1541.12 450.22C1491.42 499.92 1454.82 561.52 1435.32 628.52C1435.22 628.82 1434.92 629.02 1434.62 629.02Z" fill="url(#paint8_linear)"/>
<path d="M1451.32 629.019C1451.22 629.019 1451.22 629.019 1451.12 629.019C1450.72 628.919 1450.52 628.519 1450.62 628.119C1490.02 499.519 1590.42 399.119 1719.02 359.719C1719.42 359.619 1719.82 359.819 1719.92 360.219C1720.02 360.619 1719.82 361.019 1719.42 361.119C1591.22 400.419 1491.32 500.319 1452.02 628.519C1451.92 628.819 1451.62 629.019 1451.32 629.019Z" fill="url(#paint9_linear)"/>
<path d="M1468.12 629.02C1468.02 629.02 1467.92 629.02 1467.92 629.02C1467.52 628.92 1467.32 628.52 1467.42 628.12C1505.62 508.82 1599.72 414.72 1719.02 376.52C1719.42 376.42 1719.82 376.62 1719.92 377.02C1720.02 377.42 1719.82 377.82 1719.42 377.92C1600.62 416.02 1506.92 509.72 1468.82 628.52C1468.72 628.82 1468.42 629.02 1468.12 629.02Z" fill="url(#paint10_linear)"/>
<path d="M1484.92 629.019C1484.82 629.019 1484.72 629.019 1484.72 629.019C1484.32 628.919 1484.12 628.419 1484.22 628.119C1502.42 573.819 1533.52 523.619 1574.02 483.119C1614.52 442.619 1664.62 411.519 1719.02 393.319C1719.42 393.219 1719.82 393.419 1719.92 393.819C1720.02 394.219 1719.82 394.619 1719.42 394.719C1665.32 412.919 1615.42 443.819 1575.02 484.119C1534.62 524.419 1503.72 574.419 1485.62 628.519C1485.52 628.819 1485.22 629.019 1484.92 629.019Z" fill="url(#paint11_linear)"/>
<path d="M1501.82 629.019C1501.72 629.019 1501.62 629.019 1501.62 629.019C1501.22 628.919 1501.02 628.419 1501.12 628.019C1518.72 578.019 1547.82 531.819 1585.32 494.419C1622.82 457.019 1669.02 427.819 1718.92 410.219C1719.32 410.119 1719.72 410.319 1719.92 410.719C1720.02 411.119 1719.82 411.519 1719.42 411.719C1669.62 429.219 1623.62 458.219 1586.32 495.519C1549.02 532.819 1520.02 578.819 1502.52 628.619C1502.42 628.819 1502.12 629.019 1501.82 629.019Z" fill="url(#paint12_linear)"/>
<path d="M1518.82 629.019C1518.72 629.019 1518.62 629.019 1518.52 629.019C1518.12 628.919 1517.92 628.419 1518.12 628.019C1552.72 535.019 1625.92 461.819 1718.92 427.219C1719.32 427.119 1719.72 427.319 1719.92 427.619C1720.02 428.019 1719.82 428.419 1719.52 428.619C1626.82 463.019 1553.92 535.919 1519.52 628.619C1519.42 628.919 1519.12 629.019 1518.82 629.019Z" fill="url(#paint13_linear)"/>
<path d="M1535.92 629.019C1535.82 629.019 1535.72 629.019 1535.62 628.919C1535.22 628.719 1535.02 628.319 1535.22 627.919C1568.12 544.119 1635.02 477.119 1718.92 444.219C1719.32 444.119 1719.72 444.219 1719.92 444.619C1720.12 445.019 1719.92 445.419 1719.52 445.619C1636.12 478.319 1569.42 545.019 1536.72 628.419C1536.52 628.919 1536.22 629.019 1535.92 629.019Z" fill="url(#paint14_linear)"/>
<path d="M1553.22 629.019C1553.12 629.019 1553.02 629.019 1552.92 628.919C1552.52 628.719 1552.32 628.319 1552.52 627.919C1568.12 590.419 1590.52 556.919 1619.22 528.219C1647.92 499.519 1681.42 477.119 1718.92 461.519C1719.32 461.319 1719.72 461.519 1719.92 461.919C1720.12 462.319 1719.92 462.719 1719.52 462.919C1682.22 478.419 1648.92 500.819 1620.32 529.319C1591.82 557.819 1569.42 591.219 1553.92 628.519C1553.82 628.919 1553.52 629.019 1553.22 629.019Z" fill="url(#paint15_linear)"/>
<path d="M1570.62 629.019C1570.52 629.019 1570.42 629.019 1570.32 628.919C1569.92 628.719 1569.82 628.319 1569.92 627.919C1599.42 561.319 1652.32 508.419 1718.92 478.919C1719.32 478.719 1719.72 478.919 1719.92 479.319C1720.12 479.719 1719.92 480.119 1719.52 480.319C1653.32 509.719 1600.72 562.319 1571.32 628.519C1571.22 628.919 1570.92 629.019 1570.62 629.019Z" fill="url(#paint16_linear)"/>
<path d="M1588.22 629.019C1588.12 629.019 1588.02 629.019 1587.92 628.919C1587.52 628.719 1587.42 628.319 1587.52 627.919C1614.82 570.519 1661.42 523.819 1718.92 496.519C1719.32 496.319 1719.72 496.519 1719.92 496.919C1720.12 497.319 1719.92 497.719 1719.52 497.919C1662.42 525.019 1616.02 571.419 1588.92 628.519C1588.72 628.919 1588.52 629.019 1588.22 629.019Z" fill="var(--gray-4, #bfbfc0)"/>
</g>
<mask id="mask1" mask-type="alpha" maskUnits="userSpaceOnUse" x="0" y="0" width="509" height="509">
<rect width="509" height="509" fill="#FF00FF"/>
</mask>
<g mask="url(#mask1)">
<path opacity="0.5" d="M-23.2 21.8745C-23.3 21.8745 -23.4 21.8745 -23.6 21.7745C-24 21.5745 -24.1 21.1745 -23.9 20.7745C-2.9 -18.5255 19.5 -57.6255 42.6 -95.5255C42.8 -95.9255 43.3 -96.0255 43.6 -95.7255C44 -95.5255 44.1 -95.0255 43.8 -94.7255C20.8 -56.9255 -1.6 -17.8255 -22.5 21.4745C-22.6 21.7745 -22.9 21.8745 -23.2 21.8745Z" fill="var(--gray-4, #bfbfc0)"/>
<path opacity="0.5" d="M-23.1999 56.3745C-23.2999 56.3745 -23.3999 56.3745 -23.4999 56.2745C-23.8999 56.0745 -23.9999 55.6745 -23.7999 55.2745C2.6001 4.07452 31.2001 -46.6255 61.3001 -95.5255C61.5001 -95.9255 62.0001 -96.0255 62.3001 -95.7255C62.7001 -95.5255 62.8001 -95.0255 62.5001 -94.7255C32.5001 -45.9255 3.9001 4.77452 -22.4999 55.9745C-22.5999 56.1745 -22.8999 56.3745 -23.1999 56.3745Z" fill="var(--gray-4, #bfbfc0)"/>
<path opacity="0.5" d="M-23.1999 91.6745C-23.2999 91.6745 -23.3999 91.6745 -23.4999 91.5745C-23.8999 91.3745 -23.9999 90.9745 -23.7999 90.5745C7.9001 27.0745 42.9001 -35.6255 80.1001 -95.5255C80.3001 -95.9255 80.8001 -96.0255 81.1001 -95.7255C81.5001 -95.5255 81.6001 -95.0255 81.3001 -94.7255C44.2001 -34.8255 9.2001 27.7745 -22.4999 91.2745C-22.5999 91.5745 -22.8999 91.6745 -23.1999 91.6745Z" fill="var(--gray-4, #bfbfc0)"/>
<path opacity="0.15" d="M-23.2 128.175C-23.3 128.175 -23.4 128.175 -23.5 128.075C-23.9 127.875 -24 127.475 -23.9 127.075C12.8 50.8745 54.1 -24.0255 99 -95.5255C99.2 -95.9255 99.7 -96.0255 100 -95.7255C100.4 -95.5255 100.5 -95.0255 100.2 -94.7255C55.4 -23.2255 14.1 51.5745 -22.5 127.675C-22.6 127.975 -22.9 128.175 -23.2 128.175Z" fill="url(#paint17_linear)"/>
<path opacity="0.25" d="M-23.2 165.674C-23.3 165.674 -23.4 165.674 -23.5 165.574C-23.9 165.374 -24 164.974 -23.9 164.574C17.4 75.1744 65.1 -12.4256 117.8 -95.6256C118 -96.0256 118.5 -96.1256 118.8 -95.8256C119.2 -95.6256 119.3 -95.1256 119 -94.8256C66.5 -11.6256 18.8 75.8744 -22.5 165.274C-22.6 165.474 -22.9 165.674 -23.2 165.674Z" fill="url(#paint18_linear)"/>
<path opacity="0.35" d="M-23.2 204.474C-23.3 204.474 -23.4 204.474 -23.5 204.374C-23.9 204.174 -24 203.774 -23.9 203.374C21.9 100.174 76 -0.425722 136.9 -95.6257C137.1 -95.9257 137.6 -96.1257 137.9 -95.8257C138.2 -95.6257 138.4 -95.1257 138.1 -94.8257C77.3 0.274279 23.2 100.874 -22.5 204.074C-22.6 204.374 -22.9 204.474 -23.2 204.474Z" fill="url(#paint19_linear)"/>
<path opacity="0.55" d="M-23.2001 244.774C-23.3001 244.774 -23.4001 244.774 -23.5001 244.674C-23.9001 244.474 -24.1001 244.074 -23.9001 243.674C25.8999 125.874 86.3999 11.6744 155.9 -95.6256C156.1 -95.9256 156.6 -96.0256 156.9 -95.8256C157.2 -95.6256 157.3 -95.1256 157.1 -94.8256C87.6999 12.5744 27.2999 126.674 -22.5001 244.374C-22.6001 244.574 -22.9001 244.774 -23.2001 244.774Z" fill="var(--gray-4, #bfbfc0)"/>
<path opacity="0.65" d="M-23.1 286.774C-23.2 286.774 -23.3 286.774 -23.4 286.674C-23.8 286.474 -24 286.074 -23.8 285.674C29.7 152.674 96.6 24.3744 175 -95.6256C175.2 -95.9256 175.7 -96.0256 176 -95.8256C176.3 -95.6256 176.4 -95.1256 176.2 -94.8256C97.8 25.1744 31 153.374 -22.5 286.274C-22.6 286.574 -22.9 286.774 -23.1 286.774Z" fill="var(--gray-4, #bfbfc0)"/>
<path opacity="0.65" d="M-23.1 330.674C-23.2 330.674 -23.3 330.674 -23.4 330.674C-23.8 330.574 -24 330.074 -23.8 329.674C32.9 180.574 106.2 37.4744 194.1 -95.6256C194.3 -95.9256 194.8 -96.0256 195.1 -95.8256C195.4 -95.6256 195.5 -95.1256 195.3 -94.8256C107.4 38.1744 34.2 181.174 -22.5 330.174C-22.6 330.474 -22.8 330.674 -23.1 330.674Z" fill="var(--gray-4, #bfbfc0)"/>
<path opacity="0.65" d="M-23.1001 376.974C-23.2001 376.974 -23.3001 376.974 -23.4001 376.974C-23.8001 376.874 -24.0001 376.374 -23.9001 375.974C35.5999 209.774 115.3 51.1744 213.3 -95.6256C213.5 -95.9256 214 -96.0256 214.3 -95.8256C214.6 -95.6256 214.7 -95.1256 214.5 -94.8256C116.7 51.8744 36.8999 210.474 -22.4001 376.474C-22.6001 376.774 -22.8001 376.974 -23.1001 376.974Z" fill="var(--gray-4, #bfbfc0)"/>
<path opacity="0.75" d="M-23.1 425.974C-23.2 425.974 -23.3 425.974 -23.3 425.974C-23.7 425.874 -23.9 425.374 -23.8 425.074C37.6 240.674 123.9 65.4744 232.6 -95.6256C232.8 -95.9256 233.3 -96.0256 233.6 -95.8256C233.9 -95.6256 234 -95.1256 233.8 -94.8256C125.2 66.1744 38.9 241.174 -22.5 425.374C-22.5 425.774 -22.8 425.974 -23.1 425.974Z" fill="var(--gray-4, #bfbfc0)"/>
<path opacity="0.3" d="M-23.1 478.574C-23.2 478.574 -23.2 478.574 -23.3 478.574C-23.7 478.474 -23.9 478.074 -23.8 477.674C38.9 273.674 131.7 80.7745 252 -95.5255C252.2 -95.8255 252.7 -95.9255 253 -95.7255C253.3 -95.5255 253.4 -95.0255 253.2 -94.7255C132.9 81.4745 40.2 274.174 -22.4 478.074C-22.5 478.374 -22.8 478.574 -23.1 478.574Z" fill="var(--gray-4, #bfbfc0)"/>
<path opacity="0.3" d="M-23.1 535.474C-23.2 535.474 -23.2 535.474 -23.3 535.474C-23.7 535.374 -23.9 534.974 -23.8 534.574C39.1 309.074 138.4 97.0744 271.3 -95.6256C271.5 -95.9256 272 -96.0256 272.3 -95.8256C272.6 -95.6256 272.7 -95.1256 272.5 -94.8256C139.7 97.7744 40.5 309.574 -22.4 534.874C-22.5 535.274 -22.8 535.474 -23.1 535.474Z" fill="var(--gray-4, #bfbfc0)"/>
<path d="M-23.1 598.374C-23.2 598.374 -23.2 598.374 -23.3 598.374C-23.7 598.274 -23.9 597.874 -23.8 597.474C6.80004 473.874 49.1 352.474 101.7 236.474C154.3 120.574 217.9 8.77437 290.8 -95.6256C291 -95.9256 291.5 -96.0256 291.8 -95.8256C292.1 -95.6256 292.2 -95.1256 292 -94.8256C219.2 9.47437 155.6 121.174 103 236.974C50.4 352.974 8.20004 474.274 -22.4 597.774C-22.5 598.174 -22.8 598.374 -23.1 598.374Z" fill="url(#paint20_linear)"/>
<path d="M-23.1001 669.774C-23.2001 669.774 -23.2001 669.774 -23.3001 669.774C-23.7001 669.674 -24.0001 669.274 -23.9001 668.874C5.39995 531.074 49 395.674 105.7 266.574C161.4 139.774 230.2 17.9744 310.3 -95.6256C310.5 -95.9256 311 -96.0256 311.3 -95.8256C311.6 -95.6256 311.7 -95.1256 311.5 -94.8256C231.5 18.6744 162.7 140.374 107.1 267.074C50.3999 396.074 6.79995 531.374 -22.4001 669.074C-22.5001 669.474 -22.8001 669.774 -23.1001 669.774Z" fill="url(#paint21_linear)"/>
<path opacity="0.9" d="M-14.1 705.574H-14.2C-14.6 705.474 -14.9 705.074 -14.8 704.674C13.5 559.974 57.6001 417.974 116.2 282.574C173.7 149.874 245.6 22.5744 329.9 -95.6256C330.1 -95.9256 330.6 -96.0256 330.9 -95.8256C331.2 -95.6256 331.3 -95.1256 331.1 -94.8256C246.9 23.2744 175 150.474 117.5 283.074C58.9 418.474 14.9 560.374 -13.4 704.974C-13.4 705.374 -13.8 705.574 -14.1 705.574Z" fill="url(#paint22_linear)"/>
<path opacity="0.8" d="M2.2001 705.574H2.10009C1.70009 705.474 1.40009 705.074 1.50009 704.674C30.0001 559.774 74.6001 417.674 133.8 282.274C191.9 149.474 264.5 22.3744 349.6 -95.6256C349.8 -95.9256 350.3 -96.0256 350.6 -95.8256C350.9 -95.6256 351 -95.1256 350.8 -94.8256C265.8 23.1744 193.2 150.174 135.1 282.874C75.9001 418.174 31.4001 560.174 2.90009 704.974C2.90009 705.374 2.5001 705.574 2.2001 705.574Z" fill="url(#paint23_linear)"/>
<path opacity="0.7" d="M18.4999 705.574H18.3999C17.9999 705.474 17.6999 705.074 17.7999 704.674C46.5999 559.574 91.5999 417.274 151.4 281.874C210.1 149.074 283.4 22.0744 369.4 -95.6256C369.6 -95.9256 370.1 -96.0256 370.4 -95.8256C370.7 -95.6256 370.8 -95.1256 370.6 -94.8256C284.7 22.7744 211.4 149.674 152.8 282.374C92.9999 417.874 47.9999 559.974 19.1999 704.974C19.1999 705.374 18.7999 705.574 18.4999 705.574Z" fill="url(#paint24_linear)"/>
<path opacity="0.6" d="M34.7999 705.574H34.6999C34.2999 705.474 33.9999 705.074 34.0999 704.674C63.1999 559.374 108.6 416.974 169.1 281.474C228.4 148.674 302.5 21.7744 389.2 -95.6256C389.4 -95.9256 389.9 -96.0256 390.2 -95.8256C390.5 -95.6256 390.6 -95.1256 390.4 -94.8256C303.7 22.4744 229.6 149.274 170.4 282.074C110 417.474 64.5999 559.774 35.4999 704.974C35.4999 705.374 35.1999 705.574 34.7999 705.574Z" fill="url(#paint25_linear)"/>
<path opacity="0.5" d="M51.1 705.574H51C50.6 705.474 50.3 705.074 50.4 704.674C79.8 559.174 125.7 416.674 186.8 281.174C246.7 148.274 321.5 21.4744 409.1 -95.6256C409.3 -95.9256 409.8 -96.0256 410.1 -95.8256C410.4 -95.6256 410.5 -95.1256 410.3 -94.8256C322.7 22.1744 248 148.874 188.1 281.674C127.1 417.174 81.2 559.574 51.9 704.974C51.8 705.374 51.5 705.574 51.1 705.574Z" fill="url(#paint26_linear)"/>
<path opacity="0.4" d="M67.5 705.574C67.5 705.574 67.4 705.574 67.3 705.574C66.9 705.474 66.6 705.074 66.7 704.674C96.4 558.874 142.7 416.274 204.5 280.774C265.1 147.874 340.7 21.2744 429.2 -95.6256C429.5 -95.9256 429.9 -96.0256 430.3 -95.7256C430.6 -95.5256 430.7 -95.0256 430.4 -94.6256C342 22.1744 266.4 148.674 205.9 281.474C144.2 416.874 97.9 559.374 68.2 705.074C68.1 705.374 67.8 705.574 67.5 705.574Z" fill="url(#paint27_linear)"/>
<path opacity="0.3" d="M83.8001 705.574C83.8001 705.574 83.7001 705.574 83.6001 705.574C83.2001 705.474 82.9001 705.074 83.0001 704.674C113 558.674 159.8 415.874 222.2 280.274C283.4 147.374 359.7 20.8744 449.2 -95.6256C449.5 -95.9256 449.9 -96.0256 450.3 -95.7256C450.6 -95.4256 450.7 -95.0256 450.4 -94.6256C361.1 21.6744 284.8 148.074 223.7 280.974C161.3 416.474 114.5 559.074 84.6001 704.974C84.5001 705.374 84.1001 705.574 83.8001 705.574Z" fill="url(#paint28_linear)"/>
<path opacity="0.2" d="M100.1 705.574C99.9999 705.574 99.9999 705.574 99.8999 705.574C99.4999 705.474 99.1999 705.074 99.2999 704.674C129.6 558.474 176.9 415.474 240 279.874C301.9 146.874 379 20.5744 469.4 -95.6256C469.7 -95.9256 470.1 -96.0256 470.5 -95.7256C470.9 -95.4256 470.9 -95.0256 470.6 -94.6256C380.3 21.4744 303.2 147.774 241.4 280.674C178.4 416.074 131.1 558.874 100.9 704.974C100.8 705.374 100.5 705.574 100.1 705.574Z" fill="url(#paint29_linear)"/>
<path opacity="0.1" d="M116.5 705.574C116.4 705.574 116.4 705.574 116.3 705.574C115.9 705.474 115.6 705.074 115.7 704.674C146.3 558.174 194.2 415.074 258 279.474C320.5 146.474 398.5 20.2744 489.8 -95.6256C490.1 -95.9256 490.5 -96.0256 490.9 -95.7256C491.2 -95.4256 491.3 -95.0256 491 -94.6256C399.8 21.0744 321.9 147.174 259.4 280.074C195.7 415.574 147.8 558.574 117.3 704.974C117.1 705.374 116.8 705.574 116.5 705.574Z" fill="url(#paint30_linear)"/>
</g>
<defs>
<linearGradient id="paint0_linear" x1="1203.91" y1="371.035" x2="1719.96" y2="371.035" gradientUnits="userSpaceOnUse">
<stop stop-color="var(--gray-4, #bfbfc0)"/>
<stop offset="1" stop-color="var(--gray-4, #bfbfc0)" stop-opacity="0"/>
</linearGradient>
<linearGradient id="paint1_linear" x1="1220.18" y1="379.17" x2="1719.96" y2="379.17" gradientUnits="userSpaceOnUse">
<stop stop-color="var(--gray-4, #bfbfc0)"/>
<stop offset="1" stop-color="var(--gray-4, #bfbfc0)" stop-opacity="0"/>
</linearGradient>
<linearGradient id="paint2_linear" x1="1236.46" y1="387.31" x2="1719.96" y2="387.31" gradientUnits="userSpaceOnUse">
<stop stop-color="var(--gray-4, #bfbfc0)"/>
<stop offset="1" stop-color="var(--gray-4, #bfbfc0)" stop-opacity="0"/>
</linearGradient>
<linearGradient id="paint3_linear" x1="1252.79" y1="395.474" x2="1719.96" y2="395.474" gradientUnits="userSpaceOnUse">
<stop stop-color="var(--gray-4, #bfbfc0)"/>
<stop offset="1" stop-color="var(--gray-4, #bfbfc0)" stop-opacity="0"/>
</linearGradient>
<linearGradient id="paint4_linear" x1="1269.12" y1="403.64" x2="1719.96" y2="403.64" gradientUnits="userSpaceOnUse">
<stop stop-color="var(--gray-4, #bfbfc0)"/>
<stop offset="1" stop-color="var(--gray-4, #bfbfc0)" stop-opacity="0"/>
</linearGradient>
<linearGradient id="paint5_linear" x1="1285.46" y1="411.81" x2="1719.96" y2="411.81" gradientUnits="userSpaceOnUse">
<stop stop-color="var(--gray-4, #bfbfc0)"/>
<stop offset="1" stop-color="var(--gray-4, #bfbfc0)" stop-opacity="0"/>
</linearGradient>
<linearGradient id="paint6_linear" x1="1400.64" y1="469.4" x2="1719.96" y2="469.4" gradientUnits="userSpaceOnUse">
<stop stop-color="var(--gray-4, #bfbfc0)" stop-opacity="0.2"/>
<stop offset="1" stop-color="var(--gray-4, #bfbfc0)"/>
</linearGradient>
<linearGradient id="paint7_linear" x1="1417.23" y1="477.695" x2="1719.96" y2="477.695" gradientUnits="userSpaceOnUse">
<stop stop-color="var(--gray-4, #bfbfc0)" stop-opacity="0.2"/>
<stop offset="1" stop-color="var(--gray-4, #bfbfc0)"/>
</linearGradient>
<linearGradient id="paint8_linear" x1="1433.88" y1="486.02" x2="1719.96" y2="486.02" gradientUnits="userSpaceOnUse">
<stop stop-color="var(--gray-4, #bfbfc0)" stop-opacity="0.2"/>
<stop offset="1" stop-color="var(--gray-4, #bfbfc0)"/>
</linearGradient>
<linearGradient id="paint9_linear" x1="1450.58" y1="494.37" x2="1719.96" y2="494.37" gradientUnits="userSpaceOnUse">
<stop stop-color="var(--gray-4, #bfbfc0)" stop-opacity="0.2"/>
<stop offset="1" stop-color="var(--gray-4, #bfbfc0)"/>
</linearGradient>
<linearGradient id="paint10_linear" x1="1467.33" y1="502.745" x2="1719.96" y2="502.745" gradientUnits="userSpaceOnUse">
<stop stop-color="var(--gray-4, #bfbfc0)" stop-opacity="0.2"/>
<stop offset="1" stop-color="var(--gray-4, #bfbfc0)"/>
</linearGradient>
<linearGradient id="paint11_linear" x1="1484.16" y1="511.16" x2="1719.96" y2="511.16" gradientUnits="userSpaceOnUse">
<stop stop-color="var(--gray-4, #bfbfc0)" stop-opacity="0.2"/>
<stop offset="1" stop-color="var(--gray-4, #bfbfc0)"/>
</linearGradient>
<linearGradient id="paint12_linear" x1="1501.07" y1="519.614" x2="1719.96" y2="519.614" gradientUnits="userSpaceOnUse">
<stop stop-color="var(--gray-4, #bfbfc0)" stop-opacity="0.2"/>
<stop offset="1" stop-color="var(--gray-4, #bfbfc0)"/>
</linearGradient>
<linearGradient id="paint13_linear" x1="1518.09" y1="528.125" x2="1719.96" y2="528.125" gradientUnits="userSpaceOnUse">
<stop stop-color="var(--gray-4, #bfbfc0)" stop-opacity="0.2"/>
<stop offset="1" stop-color="var(--gray-4, #bfbfc0)"/>
</linearGradient>
<linearGradient id="paint14_linear" x1="1535.21" y1="536.685" x2="1719.96" y2="536.685" gradientUnits="userSpaceOnUse">
<stop stop-color="var(--gray-4, #bfbfc0)" stop-opacity="0.2"/>
<stop offset="1" stop-color="var(--gray-4, #bfbfc0)"/>
</linearGradient>
<linearGradient id="paint15_linear" x1="1552.46" y1="545.31" x2="1719.96" y2="545.31" gradientUnits="userSpaceOnUse">
<stop stop-color="var(--gray-4, #bfbfc0)" stop-opacity="0.2"/>
<stop offset="1" stop-color="var(--gray-4, #bfbfc0)"/>
</linearGradient>
<linearGradient id="paint16_linear" x1="1569.87" y1="554.015" x2="1719.96" y2="554.015" gradientUnits="userSpaceOnUse">
<stop stop-color="var(--gray-4, #bfbfc0)" stop-opacity="0.2"/>
<stop offset="1" stop-color="var(--gray-4, #bfbfc0)"/>
</linearGradient>
<linearGradient id="paint17_linear" x1="-23.8999" y1="16.1054" x2="100.391" y2="16.1054" gradientUnits="userSpaceOnUse">
<stop stop-color="var(--gray-4, #bfbfc0)" stop-opacity="0.2"/>
<stop offset="1" stop-color="var(--gray-4, #bfbfc0)"/>
</linearGradient>
<linearGradient id="paint18_linear" x1="-23.8997" y1="34.8754" x2="119.29" y2="34.8754" gradientUnits="userSpaceOnUse">
<stop stop-color="var(--gray-4, #bfbfc0)" stop-opacity="0.2"/>
<stop offset="1" stop-color="var(--gray-4, #bfbfc0)"/>
</linearGradient>
<linearGradient id="paint19_linear" x1="-23.8999" y1="54.2951" x2="138.261" y2="54.2951" gradientUnits="userSpaceOnUse">
<stop stop-color="var(--gray-4, #bfbfc0)" stop-opacity="0.2"/>
<stop offset="1" stop-color="var(--gray-4, #bfbfc0)"/>
</linearGradient>
<linearGradient id="paint20_linear" x1="-23.8998" y1="251.215" x2="292.141" y2="251.215" gradientUnits="userSpaceOnUse">
<stop stop-color="var(--gray-4, #bfbfc0)" stop-opacity="0.2"/>
<stop offset="1" stop-color="var(--gray-4, #bfbfc0)"/>
</linearGradient>
<linearGradient id="paint21_linear" x1="-23.9001" y1="286.915" x2="311.67" y2="286.915" gradientUnits="userSpaceOnUse">
<stop stop-color="var(--gray-4, #bfbfc0)" stop-opacity="0.2"/>
<stop offset="1" stop-color="var(--gray-4, #bfbfc0)"/>
</linearGradient>
<linearGradient id="paint22_linear" x1="-14.8638" y1="304.825" x2="331.27" y2="304.825" gradientUnits="userSpaceOnUse">
<stop stop-color="var(--gray-4, #bfbfc0)" stop-opacity="0.2"/>
<stop offset="1" stop-color="var(--gray-4, #bfbfc0)"/>
</linearGradient>
<linearGradient id="paint23_linear" x1="1.43769" y1="304.825" x2="350.961" y2="304.825" gradientUnits="userSpaceOnUse">
<stop stop-color="var(--gray-4, #bfbfc0)" stop-opacity="0.2"/>
<stop offset="1" stop-color="var(--gray-4, #bfbfc0)"/>
</linearGradient>
<linearGradient id="paint24_linear" x1="17.7468" y1="304.825" x2="370.72" y2="304.825" gradientUnits="userSpaceOnUse">
<stop stop-color="var(--gray-4, #bfbfc0)" stop-opacity="0.2"/>
<stop offset="1" stop-color="var(--gray-4, #bfbfc0)"/>
</linearGradient>
<linearGradient id="paint25_linear" x1="34.0591" y1="304.825" x2="390.6" y2="304.825" gradientUnits="userSpaceOnUse">
<stop stop-color="var(--gray-4, #bfbfc0)" stop-opacity="0.2"/>
<stop offset="1" stop-color="var(--gray-4, #bfbfc0)"/>
</linearGradient>
<linearGradient id="paint26_linear" x1="50.3892" y1="304.825" x2="410.491" y2="304.825" gradientUnits="userSpaceOnUse">
<stop stop-color="var(--gray-4, #bfbfc0)" stop-opacity="0.2"/>
<stop offset="1" stop-color="var(--gray-4, #bfbfc0)"/>
</linearGradient>
<linearGradient id="paint27_linear" x1="66.7214" y1="304.825" x2="430.511" y2="304.825" gradientUnits="userSpaceOnUse">
<stop stop-color="var(--gray-4, #bfbfc0)" stop-opacity="0.2"/>
<stop offset="1" stop-color="var(--gray-4, #bfbfc0)"/>
</linearGradient>
<linearGradient id="paint28_linear" x1="83.045" y1="304.825" x2="450.601" y2="304.825" gradientUnits="userSpaceOnUse">
<stop stop-color="var(--gray-4, #bfbfc0)" stop-opacity="0.2"/>
<stop offset="1" stop-color="var(--gray-4, #bfbfc0)"/>
</linearGradient>
<linearGradient id="paint29_linear" x1="99.3716" y1="304.825" x2="470.83" y2="304.825" gradientUnits="userSpaceOnUse">
<stop stop-color="var(--gray-4, #bfbfc0)" stop-opacity="0.2"/>
<stop offset="1" stop-color="var(--gray-4, #bfbfc0)"/>
</linearGradient>
<linearGradient id="paint30_linear" x1="115.738" y1="304.825" x2="491.141" y2="304.825" gradientUnits="userSpaceOnUse">
<stop stop-color="var(--gray-4, #bfbfc0)" stop-opacity="0.2"/>
<stop offset="1" stop-color="var(--gray-4, #bfbfc0)"/>
</linearGradient>
</defs>
</svg>
