<svg version="1.1" xmlns="http://www.w3.org/2000/svg" viewBox="0 0 560 280" width="1120" height="560">
  <!-- svg-source:excalidraw -->
  
  <defs>
    <style>
      @font-face {
        font-family: "Virgil";
        src: url("https://excalidraw.com/Virgil.woff2");
      }
      @font-face {
        font-family: "Cascadia";
        src: url("https://excalidraw.com/Cascadia.woff2");
      }
    </style>
  </defs>
  <rect x="0" y="0" width="560" height="280" fill="#ffffff"></rect><g stroke-linecap="round" transform="translate(10 30) rotate(0 90 40)"><path d="M0 0 C59.55 0, 119.1 0, 180 0 M0 0 C42.4 0, 84.81 0, 180 0 M180 0 C180 31.86, 180 63.72, 180 80 M180 0 C180 18.33, 180 36.66, 180 80 M180 80 C135.24 80, 90.48 80, 0 80 M180 80 C117.05 80, 54.09 80, 0 80 M0 80 C0 61.71, 0 43.41, 0 0 M0 80 C0 50.9, 0 21.8, 0 0" stroke="#000000" stroke-width="1" fill="none"></path></g><g transform="translate(15 61.5) rotate(0 85 8.5)"><text x="85" y="13" font-family="Helvetica, Segoe UI Emoji" font-size="16px" fill="#000000" text-anchor="middle" style="white-space: pre;" direction="ltr">Lambda</text></g><g stroke-linecap="round" transform="translate(350 30) rotate(0 90 40)"><path d="M0 0 C50.63 0, 101.26 0, 180 0 M0 0 C62.98 0, 125.97 0, 180 0 M180 0 C180 29.58, 180 59.16, 180 80 M180 0 C180 16.8, 180 33.59, 180 80 M180 80 C130.53 80, 81.06 80, 0 80 M180 80 C133.55 80, 87.1 80, 0 80 M0 80 C0 63.12, 0 46.25, 0 0 M0 80 C0 62.7, 0 45.39, 0 0" stroke="#000000" stroke-width="1" fill="none"></path></g><g transform="translate(355 61.5) rotate(0 85 8.5)"><text x="85" y="13" font-family="Helvetica, Segoe UI Emoji" font-size="16px" fill="#000000" text-anchor="middle" style="white-space: pre;" direction="ltr">Mesh Sidecar Proxy</text></g><g stroke-linecap="round" transform="translate(350 170) rotate(0 90 40)"><path d="M0 0 C37.79 0, 75.58 0, 180 0 M0 0 C49.47 0, 98.94 0, 180 0 M180 0 C180 20.64, 180 41.29, 180 80 M180 0 C180 16.88, 180 33.75, 180 80 M180 80 C141.07 80, 102.13 80, 0 80 M180 80 C129.1 80, 78.2 80, 0 80 M0 80 C0 61.81, 0 43.62, 0 0 M0 80 C0 48.92, 0 17.84, 0 0" stroke="#000000" stroke-width="1" fill="none"></path></g><g transform="translate(355 201.5) rotate(0 85 8.5)"><text x="85" y="13" font-family="Helvetica, Segoe UI Emoji" font-size="16px" fill="#000000" text-anchor="middle" style="white-space: pre;" direction="ltr">Service</text></g><g stroke-linecap="round" transform="translate(330 10) rotate(0 110 130)"><path d="M0 0 C74.7 0, 149.4 0, 220 0 M0 0 C50.75 0, 101.49 0, 220 0 M220 0 C220 87.57, 220 175.14, 220 260 M220 0 C220 53.74, 220 107.48, 220 260 M220 260 C144.14 260, 68.29 260, 0 260 M220 260 C152.15 260, 84.29 260, 0 260 M0 260 C0 198.84, 0 137.67, 0 0 M0 260 C0 163.23, 0 66.46, 0 0" stroke="#000000" stroke-width="1" fill="none"></path></g><g stroke-linecap="round"><g transform="translate(450 170) rotate(0 0 -30)"><path d="M0 0 C0 -10, 0 -50, 0 -60 M0 0 C0 -10, 0 -50, 0 -60" stroke="#000000" stroke-width="1" fill="none"></path></g><g transform="translate(450 170) rotate(0 0 -30)"><path d="M10.26 -31.81 C7.02 -40.7, 3.79 -49.6, 0 -60 M10.26 -31.81 C7.78 -38.63, 5.3 -45.44, 0 -60" stroke="#000000" stroke-width="1" fill="none"></path></g><g transform="translate(450 170) rotate(0 0 -30)"><path d="M-10.26 -31.81 C-7.02 -40.7, -3.79 -49.6, 0 -60 M-10.26 -31.81 C-7.78 -38.63, -5.3 -45.44, 0 -60" stroke="#000000" stroke-width="1" fill="none"></path></g></g><g stroke-linecap="round"><g transform="translate(350 70) rotate(0 -80 0)"><path d="M0 0 C-60.65 0, -121.3 0, -160 0 M0 0 C-51.61 0, -103.22 0, -160 0" stroke="#000000" stroke-width="1" fill="none"></path></g><g transform="translate(350 70) rotate(0 -80 0)"><path d="M-131.81 -10.26 C-142.5 -6.37, -153.18 -2.48, -160 0 M-131.81 -10.26 C-140.9 -6.95, -150 -3.64, -160 0" stroke="#000000" stroke-width="1" fill="none"></path></g><g transform="translate(350 70) rotate(0 -80 0)"><path d="M-131.81 10.26 C-142.5 6.37, -153.18 2.48, -160 0 M-131.81 10.26 C-140.9 6.95, -150 3.64, -160 0" stroke="#000000" stroke-width="1" fill="none"></path></g></g><g transform="translate(472.8076349537894 133.68057374010323) rotate(0 5 8.5)"><text x="0" y="13" font-family="Helvetica, Segoe UI Emoji" font-size="16px" fill="#000000" text-anchor="start" style="white-space: pre;" direction="ltr">1</text></g><g transform="translate(268.90132808335125 38.78078312115713) rotate(0 5 8.5)"><text x="0" y="13" font-family="Helvetica, Segoe UI Emoji" font-size="16px" fill="#000000" text-anchor="start" style="white-space: pre;" direction="ltr">2</text></g></svg>