<svg width="420" height="500" fill="none" xmlns="http://www.w3.org/2000/svg"><mask id="mask0_3_197" style="mask-type:alpha" maskUnits="userSpaceOnUse" x="0" y="0" width="420" height="500"><path fill="#C4C4C4" d="M0 0h420v500H0z"/></mask><g mask="url(#mask0_3_197)"><g clip-path="url(#clip0_3_197)"><path d="M0 26.807v-1.614c24.596-.001 48.95 4.856 71.674 14.294a187.257 187.257 0 0 1 60.762 40.711 187.83 187.83 0 0 1 40.598 60.93A188.252 188.252 0 0 1 187.289 213h-1.61a186.648 186.648 0 0 0-14.131-71.254 186.218 186.218 0 0 0-40.25-60.407 185.635 185.635 0 0 0-60.24-40.361A185.226 185.226 0 0 0 .001 26.808Zm123.541 62.311a174.048 174.048 0 0 1 37.961 56.801A174.436 174.436 0 0 1 174.712 213h1.61c0-46.893-18.577-91.864-51.644-125.022C91.612 54.819 46.764 36.19.001 36.19H0v1.615a173.152 173.152 0 0 1 66.896 13.248 173.541 173.541 0 0 1 56.645 38.065Zm-7.758 7.78a163.14 163.14 0 0 1 35.575 53.234A163.506 163.506 0 0 1 163.74 213h1.61a166.22 166.22 0 0 0-12.586-63.452 165.827 165.827 0 0 0-35.843-53.792 165.315 165.315 0 0 0-53.644-35.942A164.951 164.951 0 0 0 .002 47.194H0v1.613c21.512-.06 42.821 4.16 62.695 12.415a162.649 162.649 0 0 1 53.088 35.675ZM119.861 213h1.61c-.036-32.294-12.846-63.255-35.618-86.09C63.081 104.074 32.206 91.23.001 91.193H0v1.614c31.779.036 62.245 12.711 84.715 35.244 22.471 22.533 35.11 53.083 35.146 84.949Zm-10.967 0h1.61c-.033-29.378-11.686-57.544-32.402-78.318C57.386 113.909 29.298 102.223.001 102.19H0v1.614c28.871.033 56.55 11.548 76.965 32.019 20.414 20.471 31.897 48.227 31.929 77.177Zm-8.627-100.551a141.293 141.293 0 0 1 30.811 46.104A141.613 141.613 0 0 1 141.801 213h1.61a144.168 144.168 0 0 0-10.913-55.035 143.819 143.819 0 0 0-31.087-46.656 143.376 143.376 0 0 0-46.528-31.173A143.054 143.054 0 0 0 .001 69.193H0v1.614a140.532 140.532 0 0 1 54.293 10.75 140.85 140.85 0 0 1 45.974 30.892Zm7.757-7.772a152.191 152.191 0 0 1 33.197 49.666A152.529 152.529 0 0 1 152.773 213h1.61c-.002-41.057-16.268-80.432-45.22-109.464C80.211 74.504 40.945 58.193.001 58.19H0v1.614A151.383 151.383 0 0 1 58.496 71.39a151.717 151.717 0 0 1 49.529 33.288Zm-15.509 15.552a130.376 130.376 0 0 1 28.425 42.537A130.663 130.663 0 0 1 130.833 213h1.61a133.123 133.123 0 0 0-10.08-50.824 132.827 132.827 0 0 0-28.71-43.087 132.41 132.41 0 0 0-42.968-28.79A132.124 132.124 0 0 0 0 80.19H0v1.614a129.688 129.688 0 0 1 50.096 9.922 129.972 129.972 0 0 1 42.42 28.503Z" fill="#000"/><path d="M0 202.807v-1.614a11.771 11.771 0 0 1 8.322 3.462A11.837 11.837 0 0 1 11.775 213h-1.61a10.22 10.22 0 0 0-2.98-7.204A10.161 10.161 0 0 0 0 202.807ZM21.139 213h1.609a22.87 22.87 0 0 0-6.67-16.122A22.741 22.741 0 0 0 .001 190.19H0v1.614a21.137 21.137 0 0 1 14.94 6.215A21.251 21.251 0 0 1 21.138 213Zm65.817 0h1.61a89.036 89.036 0 0 0-25.969-62.769A88.544 88.544 0 0 0 .001 124.19H0v1.614a86.935 86.935 0 0 1 61.458 25.569A87.414 87.414 0 0 1 86.955 213Zm-10.972 0h1.61a78.006 78.006 0 0 0-22.752-54.992A77.577 77.577 0 0 0 0 135.193H0v1.614a75.963 75.963 0 0 1 53.703 22.342A76.387 76.387 0 0 1 75.983 213Zm-43.879 0h1.61a33.894 33.894 0 0 0-9.886-23.894 33.703 33.703 0 0 0-23.827-9.913H0v1.614a32.09 32.09 0 0 1 22.69 9.44A32.274 32.274 0 0 1 32.105 213Zm10.973 0h1.609a44.92 44.92 0 0 0-13.103-31.67A44.675 44.675 0 0 0 .001 168.19H0v1.614a43.065 43.065 0 0 1 30.446 12.666A43.306 43.306 0 0 1 43.077 213Zm10.966 0h1.61a55.949 55.949 0 0 0-16.318-39.443A55.64 55.64 0 0 0 0 157.193H0v1.614a54.026 54.026 0 0 1 38.197 15.891A54.328 54.328 0 0 1 54.043 213Zm10.973 0h1.61a66.98 66.98 0 0 0-19.536-47.22A66.613 66.613 0 0 0 0 146.189v1.615a65.002 65.002 0 0 1 45.952 19.117A65.363 65.363 0 0 1 65.016 213Z" fill="#DC477D"/></g><g clip-path="url(#clip1_3_197)"><path d="M0 299.314v1.598c23.481-.026 45.992-9.297 62.596-25.778 16.603-16.482 25.942-38.827 25.969-62.135h-1.61c-.026 22.884-9.196 44.823-25.497 61.005C45.156 290.185 23.054 299.288 0 299.314Zm65.016-86.315h1.61c-.02 17.534-7.046 34.344-19.536 46.743C34.6 272.14 17.664 279.115 0 279.135v-1.599c17.238-.019 33.763-6.825 45.952-18.924 12.188-12.099 19.044-28.503 19.064-45.613Zm10.966 0h1.61c-.023 20.42-8.205 39.997-22.752 54.436C40.294 281.874 20.572 289.997 0 290.02v-1.598c20.145-.023 39.458-7.976 53.703-22.116 14.244-14.14 22.257-33.311 22.28-53.307Zm-21.939 0h1.61c-.017 14.646-5.886 28.688-16.319 39.044C28.901 262.4 14.755 268.226 0 268.242v-1.597c14.328-.017 28.065-5.674 38.197-15.731 10.131-10.057 15.83-23.692 15.846-37.915Zm-43.878 0h1.61a11.658 11.658 0 0 1-3.453 8.261A11.835 11.835 0 0 1 0 224.687v-1.598a10.213 10.213 0 0 0 7.184-2.959 10.062 10.062 0 0 0 2.98-7.131Zm32.912 0h1.609c-.014 11.76-4.726 23.035-13.103 31.35-8.377 8.316-19.735 12.994-31.583 13.007v-1.598c11.42-.013 22.37-4.522 30.446-12.538 8.075-8.016 12.618-18.885 12.63-30.221Zm-10.973 0h1.61a33.377 33.377 0 0 1-9.886 23.652A33.878 33.878 0 0 1 0 246.464v-1.597a32.26 32.26 0 0 0 22.69-9.345 31.783 31.783 0 0 0 9.414-22.523Zm-10.966 0h1.609a22.522 22.522 0 0 1-6.67 15.959A22.86 22.86 0 0 1 0 235.579v-1.598a21.242 21.242 0 0 0 14.94-6.153 20.926 20.926 0 0 0 6.198-14.829Z" fill="#000"/><path d="M0 321.092v1.598c29.298-.033 57.386-11.601 78.102-32.165 20.716-20.563 32.369-48.444 32.402-77.526h-1.61c-.032 28.658-11.515 56.133-31.93 76.397C56.55 309.661 28.871 321.06 0 321.092Zm100.267-8.558a139.803 139.803 0 0 0 30.811-45.638 138.95 138.95 0 0 0 10.722-53.897h1.61a140.53 140.53 0 0 1-10.844 54.507 141.374 141.374 0 0 1-31.156 46.157 142.557 142.557 0 0 1-46.498 30.927A143.413 143.413 0 0 1 0 355.353v-1.597a141.775 141.775 0 0 0 54.293-10.642 140.925 140.925 0 0 0 45.974-30.58Zm19.594-99.535h1.609c-.036 31.968-12.845 62.615-35.617 85.22C63.08 320.824 32.205 333.539 0 333.575v-1.597c31.778-.036 62.245-12.583 84.715-34.888 22.471-22.305 35.11-52.547 35.146-84.091Zm-27.346 91.834a128.987 128.987 0 0 0 28.424-42.108 128.204 128.204 0 0 0 9.894-49.726h1.61a129.755 129.755 0 0 1-10.015 50.338 130.552 130.552 0 0 1-28.776 42.625 131.634 131.634 0 0 1-42.94 28.564A132.422 132.422 0 0 1 0 344.467v-1.598a130.833 130.833 0 0 0 50.095-9.821 130.068 130.068 0 0 0 42.42-28.215Zm15.509 15.395a150.586 150.586 0 0 0 33.197-49.165 149.658 149.658 0 0 0 11.552-58.064h1.61a151.228 151.228 0 0 1-11.675 58.676 152.155 152.155 0 0 1-33.546 49.683 153.42 153.42 0 0 1-50.05 33.299A154.348 154.348 0 0 1 0 366.246v-1.599a152.721 152.721 0 0 0 58.495-11.467 151.833 151.833 0 0 0 49.529-32.952Zm15.516 15.402a172.215 172.215 0 0 0 37.962-56.227 171.162 171.162 0 0 0 13.21-66.404h1.61a172.761 172.761 0 0 1-13.334 67.015 173.795 173.795 0 0 1-38.31 56.745 175.258 175.258 0 0 1-57.166 38.028A176.28 176.28 0 0 1 0 388.023v-1.598a174.693 174.693 0 0 0 66.896-13.114 173.654 173.654 0 0 0 56.644-37.681Zm-7.758-7.701a161.408 161.408 0 0 0 35.576-52.697 160.434 160.434 0 0 0 12.381-62.233h1.61a161.988 161.988 0 0 1-12.501 62.846 162.97 162.97 0 0 1-35.928 53.214 164.327 164.327 0 0 1-53.608 35.662A165.304 165.304 0 0 1 0 377.131v-1.598a163.732 163.732 0 0 0 62.695-12.29 162.738 162.738 0 0 0 53.087-35.314Zm15.516 15.401a183.044 183.044 0 0 0 40.342-59.759 181.928 181.928 0 0 0 14.038-70.572h1.61a183.536 183.536 0 0 1-14.162 71.184 184.649 184.649 0 0 1-40.691 60.277 186.15 186.15 0 0 1-60.723 40.392A187.253 187.253 0 0 1 0 398.909v-1.598a185.647 185.647 0 0 0 71.096-13.936 184.572 184.572 0 0 0 60.202-40.045Z" fill="#000"/><path d="M227.999 333.575H228v-1.597h-.001c-20.57.024-40.292 8.147-54.837 22.586-14.545 14.439-22.726 34.016-22.749 54.435h1.61c.022-19.996 8.033-39.166 22.277-53.306 14.243-14.14 33.555-22.094 53.699-22.118Zm-54.037 75.424h-1.61c.016-14.646 5.884-28.687 16.316-39.043 10.432-10.357 24.577-16.183 39.331-16.2H228v1.597h-.001c-14.327.017-28.063 5.675-38.193 15.732-10.131 10.057-15.829 23.692-15.844 37.914Zm-10.973 0h-1.61c.02-17.533 7.046-34.341 19.535-46.739 12.489-12.397 29.423-19.371 47.085-19.391H228v1.598h-.001c-17.235.02-33.76 6.825-45.947 18.923-12.188 12.098-19.043 28.5-19.063 45.609Zm-21.939 0h-1.61c.027-23.306 9.365-45.651 25.968-62.131 16.602-16.48 39.112-25.75 62.591-25.777H228v1.599h-.001c-23.052.026-45.153 9.127-61.453 25.308-16.301 16.18-25.47 38.118-25.496 61.001Zm43.878 0h-1.61c.014-11.759 4.726-23.032 13.102-31.347 8.376-8.314 19.733-12.991 31.579-13.005H228v1.599h-.001c-11.419.012-22.366 4.521-30.441 12.536s-12.617 18.882-12.63 30.217Zm10.973 0h-1.61a33.377 33.377 0 0 1 9.883-23.652 33.876 33.876 0 0 1 23.825-9.814H228v1.598h-.001a32.252 32.252 0 0 0-22.687 9.346 31.78 31.78 0 0 0-9.411 22.522Zm21.939 0h-1.609a11.655 11.655 0 0 1 3.449-8.259 11.826 11.826 0 0 1 8.319-3.429H228v1.598h-.001a10.216 10.216 0 0 0-7.181 2.96 10.063 10.063 0 0 0-2.978 7.13Zm-10.972 0h-1.61a22.518 22.518 0 0 1 6.668-15.955 22.855 22.855 0 0 1 16.073-6.619H228v1.598h-.001a21.237 21.237 0 0 0-14.935 6.151 20.926 20.926 0 0 0-6.196 14.825Z" fill="#DC477D"/></g><g clip-path="url(#clip2_3_197)"><path d="M226.001 322.684H226v-1.598h.001c23.48.027 45.992 9.297 62.595 25.778 16.603 16.482 25.943 38.827 25.969 62.135h-1.61c-.026-22.884-9.195-44.823-25.497-61.005-16.301-16.181-38.403-25.284-61.457-25.31Zm65.015 86.315h1.61c-.02-17.534-7.046-34.344-19.536-46.743-12.49-12.398-29.425-19.373-47.089-19.393H226v1.599h.001c17.237.019 33.763 6.825 45.951 18.924 12.189 12.099 19.045 28.503 19.064 45.613Zm10.967 0h1.61c-.024-20.42-8.206-39.997-22.752-54.436s-34.269-22.562-54.84-22.585H226v1.598h.001c20.144.023 39.458 7.976 53.702 22.116s22.257 33.311 22.28 53.307Zm-21.939 0h1.61c-.017-14.646-5.886-28.688-16.319-39.044-10.434-10.357-24.579-16.183-39.334-16.199H226v1.598h.001c14.328.016 28.065 5.673 38.196 15.73 10.132 10.057 15.83 23.692 15.847 37.915Zm-43.879 0h1.61a11.658 11.658 0 0 0-3.452-8.261 11.837 11.837 0 0 0-8.322-3.427H226v1.598h.001a10.213 10.213 0 0 1 7.184 2.959 10.064 10.064 0 0 1 2.98 7.131Zm32.912 0h1.609c-.013-11.76-4.725-23.035-13.102-31.35-8.378-8.316-19.736-12.994-31.583-13.007H226v1.598h.001c11.42.013 22.369 4.522 30.445 12.538a42.648 42.648 0 0 1 12.631 30.221Zm-10.973 0h1.61a33.378 33.378 0 0 0-9.885-23.652 33.88 33.88 0 0 0-23.828-9.813H226v1.597h.001a32.262 32.262 0 0 1 22.69 9.345 31.78 31.78 0 0 1 9.413 22.523Zm-10.966 0h1.609a22.521 22.521 0 0 0-6.67-15.959 22.858 22.858 0 0 0-16.076-6.621H226v1.598h.001a21.242 21.242 0 0 1 14.939 6.153 20.923 20.923 0 0 1 6.198 14.829Z" fill="#DC477D"/><path d="M226.001 300.906H226v-1.598h.001c29.297.033 57.385 11.601 78.101 32.165 20.717 20.563 32.369 48.444 32.402 77.526h-1.61c-.032-28.658-11.515-56.133-31.929-76.397-20.415-20.265-48.094-31.664-76.964-31.696Zm100.266 8.558a139.787 139.787 0 0 1 30.811 45.638 138.95 138.95 0 0 1 10.723 53.897h1.61a141.435 141.435 0 0 0-10.913-54.479 142.282 142.282 0 0 0-31.087-46.185 143.482 143.482 0 0 0-46.527-30.858 144.328 144.328 0 0 0-54.883-10.832H226v1.597h.001a141.778 141.778 0 0 1 54.293 10.642 140.927 140.927 0 0 1 45.973 30.58Zm19.595 99.535h1.609c-.037-31.968-12.846-62.615-35.618-85.22-22.772-22.605-53.648-35.32-85.852-35.356H226v1.597h.001c31.778.036 62.244 12.583 84.714 34.888 22.471 22.305 35.111 52.547 35.147 84.091Zm-27.347-91.834a128.99 128.99 0 0 1 28.425 42.108 128.223 128.223 0 0 1 9.894 49.726h1.61c0-17.265-3.426-34.36-10.081-50.311a131.421 131.421 0 0 0-28.71-42.651 132.519 132.519 0 0 0-42.968-28.499 133.298 133.298 0 0 0-50.684-10.007H226v1.598h.001a130.833 130.833 0 0 1 50.095 9.821 130.058 130.058 0 0 1 42.419 28.215Zm15.509-15.395a150.555 150.555 0 0 1 33.197 49.165 149.658 149.658 0 0 1 11.552 58.064h1.61c-.002-40.642-16.268-79.62-45.22-108.358-28.952-28.739-68.218-44.886-109.162-44.889H226v1.599h.001a152.725 152.725 0 0 1 58.495 11.467 151.825 151.825 0 0 1 49.528 32.952Zm15.517-15.402a172.196 172.196 0 0 1 37.961 56.227 171.162 171.162 0 0 1 13.21 66.404h1.611c-.001-46.419-18.578-90.936-51.645-123.76-33.066-32.823-77.914-51.263-124.677-51.264H226v1.598h.001a174.689 174.689 0 0 1 66.895 13.114 173.666 173.666 0 0 1 56.645 37.681Zm-7.758 7.701a161.408 161.408 0 0 1 35.576 52.697 160.452 160.452 0 0 1 12.381 62.233h1.61a163.08 163.08 0 0 0-12.586-62.811 164.051 164.051 0 0 0-35.843-53.248 165.432 165.432 0 0 0-53.643-35.58 166.427 166.427 0 0 0-63.277-12.493H226v1.598h.001a163.73 163.73 0 0 1 62.694 12.29 162.752 162.752 0 0 1 53.088 35.314Zm15.515-15.401a183.013 183.013 0 0 1 40.342 59.759 181.93 181.93 0 0 1 14.039 70.572h1.61a184.73 184.73 0 0 0-14.254-71.146 185.823 185.823 0 0 0-40.599-60.314 187.373 187.373 0 0 0-60.762-40.3 188.476 188.476 0 0 0-71.673-14.15H226v1.598h.001a185.654 185.654 0 0 1 71.096 13.936 184.561 184.561 0 0 1 60.201 40.045Z" fill="#000"/></g><g clip-path="url(#clip3_3_197)"><path d="M228 419.192v1.614a11.768 11.768 0 0 1-8.32-3.463 11.83 11.83 0 0 1-3.449-8.344h1.61a10.213 10.213 0 0 0 2.978 7.203 10.162 10.162 0 0 0 7.181 2.99Zm-21.132-10.193h-1.61a22.865 22.865 0 0 0 6.668 16.118A22.739 22.739 0 0 0 228 431.804v-1.615a21.125 21.125 0 0 1-14.935-6.214 21.243 21.243 0 0 1-6.197-14.976Zm-21.939 0h-1.61a44.919 44.919 0 0 0 13.101 31.667A44.671 44.671 0 0 0 228 453.803v-1.614a43.058 43.058 0 0 1-30.441-12.665 43.295 43.295 0 0 1-12.63-30.525Zm10.973 0h-1.61a33.89 33.89 0 0 0 9.882 23.893A33.7 33.7 0 0 0 228 442.806v-1.614a32.094 32.094 0 0 1-22.688-9.441 32.27 32.27 0 0 1-9.41-22.752Z" fill="#DC477D"/></g><g clip-path="url(#clip4_3_197)"><path d="M314.56 408.999h-1.611a87.414 87.414 0 0 1-25.495 61.624A86.927 86.927 0 0 1 226 496.189v1.615a88.538 88.538 0 0 0 62.592-26.04c16.602-16.648 25.941-39.221 25.968-62.765ZM226 420.806v-1.614a10.162 10.162 0 0 0 7.181-2.99 10.214 10.214 0 0 0 2.977-7.203h1.611a11.833 11.833 0 0 1-3.45 8.344 11.768 11.768 0 0 1-8.319 3.463Zm0 22v-1.614a32.088 32.088 0 0 0 22.688-9.441 32.27 32.27 0 0 0 9.411-22.752h1.609a33.89 33.89 0 0 1-9.882 23.893A33.704 33.704 0 0 1 226 442.806Zm0 32.998v-1.615a64.993 64.993 0 0 0 45.948-19.115 65.358 65.358 0 0 0 19.062-46.075h1.61a66.97 66.97 0 0 1-19.534 47.216A66.602 66.602 0 0 1 226 475.804Zm0 11.002v-1.613a75.96 75.96 0 0 0 53.7-22.344 76.38 76.38 0 0 0 22.277-53.85h1.61a78.005 78.005 0 0 1-22.749 54.991A77.572 77.572 0 0 1 226 486.806Zm0-22v-1.614a54.024 54.024 0 0 0 38.194-15.892 54.329 54.329 0 0 0 15.844-38.301h1.609a55.948 55.948 0 0 1-16.315 39.442A55.64 55.64 0 0 1 226 464.806Zm0-11.003v-1.614a43.062 43.062 0 0 0 30.442-12.665 43.298 43.298 0 0 0 12.629-30.525h1.61a44.919 44.919 0 0 1-13.101 31.667A44.671 44.671 0 0 1 226 453.803Zm0-21.999v-1.615a21.129 21.129 0 0 0 14.936-6.214 21.242 21.242 0 0 0 6.196-14.976h1.609a22.858 22.858 0 0 1-6.668 16.118A22.735 22.735 0 0 1 226 431.804Z" fill="#DC477D"/></g></g><defs><clipPath id="clip0_3_197"><path fill="#fff" transform="matrix(-1 0 0 1 228 15)" d="M0 0h228v198H0z"/></clipPath><clipPath id="clip1_3_197"><path fill="#fff" transform="matrix(-1 0 0 1 228 212.999)" d="M0 0h228v196H0z"/></clipPath><clipPath id="clip2_3_197"><path fill="#fff" transform="matrix(-1 0 0 1 454 212.999)" d="M0 0h228v196H0z"/></clipPath><clipPath id="clip3_3_197"><path fill="#fff" transform="matrix(-1 0 0 1 228 408.999)" d="M0 0h228v198H0z"/></clipPath><clipPath id="clip4_3_197"><path fill="#fff" transform="matrix(-1 0 0 1 454 408.999)" d="M0 0h228v198H0z"/></clipPath></defs></svg>