<svg width="122" height="49" viewBox="0 0 122 49" fill="none" xmlns="http://www.w3.org/2000/svg">
<path d="M97.9999 4.58887L81.2565 14.0944V33.1055L97.9999 42.6111L114.743 33.1055V14.0944L97.9999 4.58887ZM105.46 25.4945L101 28.0283L95.6099 25.1438V31.2011L90.5432 34.3609V21.6956L94.5632 19.2766L100.14 22.1676V15.9824L105.473 12.839L105.46 25.4945Z" fill="#00CA8E"/>
<path d="M24.1766 43.187C21.2049 43.1894 18.2776 42.4665 15.6487 41.0811C13.0197 39.6957 10.7686 37.6896 9.09079 35.237C7.41293 32.7843 6.35902 29.9593 6.02053 27.007C5.68203 24.0547 6.06918 21.0644 7.14838 18.2956C8.22758 15.5268 9.9662 13.0633 12.2134 11.1188C14.4605 9.17436 17.1483 7.8077 20.0433 7.13748C22.9384 6.46726 25.9533 6.51373 28.8264 7.27286C31.6994 8.03199 34.3438 9.48084 36.5299 11.4937V11.4937L32.1966 16.027C30.4738 14.4709 28.3367 13.4479 26.0442 13.082C23.7517 12.7161 21.4023 13.023 19.2807 13.9656C17.1592 14.9081 15.3566 16.4459 14.0914 18.3923C12.8263 20.3388 12.1529 22.6105 12.1529 24.932C12.1529 27.2535 12.8263 29.5252 14.0914 31.4716C15.3566 33.4181 17.1592 34.9558 19.2807 35.8984C21.4023 36.841 23.7517 37.1479 26.0442 36.782C28.3367 36.4161 30.4738 35.3931 32.1966 33.837L36.5299 38.3703C33.1637 41.4712 28.7533 43.1909 24.1766 43.187V43.187Z" fill="#E03875"/>
<path d="M38.8693 34.0539C38.5733 34.0539 38.284 33.9661 38.0378 33.8016C37.7917 33.6372 37.5999 33.4034 37.4866 33.13C37.3733 32.8565 37.3437 32.5556 37.4014 32.2652C37.4592 31.9749 37.6017 31.7082 37.811 31.4989C38.0204 31.2896 38.287 31.1471 38.5774 31.0893C38.8677 31.0316 39.1686 31.0612 39.4421 31.1745C39.7156 31.2878 39.9493 31.4796 40.1138 31.7257C40.2782 31.9718 40.366 32.2612 40.366 32.5572C40.3651 32.9539 40.2072 33.3341 39.9267 33.6145C39.6462 33.895 39.266 34.053 38.8693 34.0539V34.0539Z" fill="#E03875"/>
<path d="M24.0599 28.8836C23.2765 28.8869 22.5097 28.6576 21.8568 28.2247C21.2039 27.7918 20.6941 27.1748 20.3922 26.4519C20.0903 25.7291 20.0097 24.9328 20.1608 24.1641C20.3118 23.3954 20.6877 22.6888 21.2407 22.134C21.7937 21.5791 22.499 21.2008 23.2672 21.0472C24.0354 20.8935 24.8319 20.9714 25.5558 21.2709C26.2797 21.5704 26.8984 22.078 27.3335 22.7295C27.7686 23.3809 28.0005 24.1469 27.9999 24.9303C27.9981 25.976 27.5829 26.9785 26.8448 27.7191C26.1066 28.4597 25.1055 28.8784 24.0599 28.8836V28.8836Z" fill="#E03875"/>
<path d="M40.5865 28.9537C40.2905 28.9537 40.0011 28.8659 39.755 28.7014C39.5089 28.537 39.317 28.3032 39.2038 28.0297C39.0905 27.7563 39.0609 27.4553 39.1186 27.165C39.1764 26.8747 39.3189 26.608 39.5282 26.3987C39.7375 26.1894 40.0042 26.0468 40.2945 25.9891C40.5849 25.9313 40.8858 25.961 41.1593 26.0743C41.4327 26.1875 41.6665 26.3794 41.8309 26.6255C41.9954 26.8716 42.0832 27.161 42.0832 27.457C42.0823 27.8537 41.9243 28.2338 41.6438 28.5143C41.3634 28.7948 40.9832 28.9528 40.5865 28.9537Z" fill="#E03875"/>
<path d="M36.1365 28.7668C35.8398 28.7668 35.5498 28.6785 35.3033 28.5133C35.0568 28.3481 34.865 28.1134 34.7523 27.8389C34.6395 27.5645 34.6108 27.2627 34.67 26.9719C34.7291 26.6812 34.8733 26.4145 35.0843 26.2059C35.2952 25.9973 35.5635 25.856 35.8549 25.8002C36.1463 25.7443 36.4477 25.7764 36.7209 25.8922C36.9941 26.008 37.2267 26.2025 37.3891 26.4508C37.5515 26.6991 37.6365 26.9901 37.6332 27.2868C37.6288 27.6808 37.4692 28.0572 37.189 28.3343C36.9088 28.6114 36.5306 28.7668 36.1365 28.7668V28.7668Z" fill="#E03875"/>
<path d="M40.5865 23.9103C40.2905 23.9103 40.0011 23.8226 39.755 23.6581C39.5089 23.4936 39.317 23.2599 39.2038 22.9864C39.0905 22.7129 39.0609 22.412 39.1186 22.1217C39.1764 21.8314 39.3189 21.5647 39.5282 21.3554C39.7375 21.146 40.0042 21.0035 40.2945 20.9458C40.5849 20.888 40.8858 20.9176 41.1593 21.0309C41.4327 21.1442 41.6665 21.336 41.8309 21.5822C41.9954 21.8283 42.0832 22.1176 42.0832 22.4137C42.0823 22.8103 41.9243 23.1905 41.6438 23.471C41.3634 23.7515 40.9832 23.9094 40.5865 23.9103Z" fill="#E03875"/>
<path d="M36.1366 24.0805C35.8406 24.0805 35.5512 23.9927 35.3051 23.8283C35.059 23.6638 34.8672 23.4301 34.7539 23.1566C34.6406 22.8831 34.611 22.5822 34.6687 22.2918C34.7265 22.0015 34.869 21.7348 35.0783 21.5255C35.2876 21.3162 35.5543 21.1737 35.8446 21.1159C36.135 21.0582 36.4359 21.0878 36.7094 21.2011C36.9829 21.3144 37.2166 21.5062 37.3811 21.7523C37.5455 21.9984 37.6333 22.2878 37.6333 22.5838C37.6333 22.9808 37.4756 23.3615 37.1949 23.6421C36.9142 23.9228 36.5336 24.0805 36.1366 24.0805V24.0805Z" fill="#E03875"/>
<path d="M38.9561 18.8768C38.6599 18.8774 38.3702 18.7902 38.1236 18.6261C37.8771 18.4621 37.6847 18.2286 37.5709 17.9552C37.4572 17.6817 37.427 17.3807 37.4844 17.0902C37.5418 16.7996 37.6841 16.5326 37.8932 16.323C38.1024 16.1133 38.3691 15.9704 38.6595 15.9124C38.9499 15.8544 39.251 15.8839 39.5247 15.997C39.7984 16.1102 40.0323 16.302 40.1969 16.5482C40.3615 16.7944 40.4494 17.0839 40.4494 17.3801C40.4494 17.7765 40.2922 18.1566 40.0122 18.4372C39.7322 18.7178 39.3524 18.8759 38.9561 18.8768Z" fill="#E03875"/>
<line x1="61.5" y1="1" x2="61.5" y2="49" stroke="black"/>
</svg>
