<svg width="122" height="49" viewBox="0 0 122 49" fill="none" xmlns="http://www.w3.org/2000/svg">
<path fill-rule="evenodd" clip-rule="evenodd" d="M92.5057 11.8063L103.492 18.0406V30.5158L92.5057 24.2782V11.8063Z" fill="#7B42BC"/>
<path fill-rule="evenodd" clip-rule="evenodd" d="M104.697 18.0406V30.5158L115.68 24.2782V11.8063L104.697 18.0406Z" fill="#7B42BC"/>
<path fill-rule="evenodd" clip-rule="evenodd" d="M80.3193 4.84448V17.3164L91.3027 23.554V11.0821L80.3193 4.84448Z" fill="#7B42BC"/>
<path fill-rule="evenodd" clip-rule="evenodd" d="M92.5057 38.1172L103.489 44.3548V31.9648V31.8829L92.5057 25.6453V38.1172Z" fill="#7B42BC"/>
<path d="M24.1766 42.187C21.205 42.1894 18.2776 41.4665 15.6487 40.0811C13.0198 38.6957 10.7687 36.6896 9.09081 34.237C7.41295 31.7843 6.35904 28.9593 6.02055 26.007C5.68205 23.0547 6.06921 20.0644 7.1484 17.2956C8.2276 14.5268 9.96623 12.0633 12.2134 10.1188C14.4605 8.17436 17.1483 6.8077 20.0434 6.13748C22.9384 5.46726 25.9533 5.51373 28.8264 6.27286C31.6994 7.03199 34.3438 8.48084 36.5299 10.4937V10.4937L32.1966 15.027C30.4738 13.4709 28.3367 12.4479 26.0442 12.082C23.7517 11.7161 21.4023 12.023 19.2808 12.9656C17.1592 13.9081 15.3566 15.4459 14.0914 17.3923C12.8263 19.3388 12.1529 21.6105 12.1529 23.932C12.1529 26.2535 12.8263 28.5252 14.0914 30.4716C15.3566 32.4181 17.1592 33.9558 19.2808 34.8984C21.4023 35.841 23.7517 36.1479 26.0442 35.782C28.3367 35.4161 30.4738 34.3931 32.1966 32.837L36.5299 37.3703C33.1638 40.4712 28.7534 42.1909 24.1766 42.187V42.187Z" fill="#E03875"/>
<path d="M38.8694 33.0539C38.5734 33.0539 38.284 32.9661 38.0379 32.8016C37.7918 32.6372 37.5999 32.4034 37.4866 32.13C37.3734 31.8565 37.3437 31.5556 37.4015 31.2652C37.4592 30.9749 37.6018 30.7082 37.8111 30.4989C38.0204 30.2896 38.2871 30.1471 38.5774 30.0893C38.8677 30.0316 39.1687 30.0612 39.4421 30.1745C39.7156 30.2878 39.9494 30.4796 40.1138 30.7257C40.2783 30.9718 40.3661 31.2612 40.3661 31.5572C40.3652 31.9539 40.2072 32.3341 39.9267 32.6145C39.6462 32.895 39.2661 33.053 38.8694 33.0539V33.0539Z" fill="#E03875"/>
<path d="M24.0599 27.8836C23.2765 27.8869 22.5098 27.6576 21.8568 27.2247C21.2039 26.7918 20.6942 26.1748 20.3923 25.4519C20.0903 24.7291 20.0098 23.9328 20.1608 23.1641C20.3119 22.3954 20.6877 21.6888 21.2407 21.134C21.7938 20.5791 22.4991 20.2008 23.2672 20.0472C24.0354 19.8935 24.8319 19.9714 25.5558 20.2709C26.2797 20.5704 26.8984 21.078 27.3336 21.7295C27.7687 22.3809 28.0006 23.1469 27.9999 23.9303C27.9982 24.976 27.5829 25.9785 26.8448 26.7191C26.1067 27.4597 25.1056 27.8784 24.0599 27.8836V27.8836Z" fill="#E03875"/>
<path d="M40.5865 27.9537C40.2905 27.9537 40.0011 27.8659 39.755 27.7014C39.5089 27.537 39.317 27.3032 39.2038 27.0297C39.0905 26.7563 39.0609 26.4553 39.1186 26.165C39.1764 25.8747 39.3189 25.608 39.5282 25.3987C39.7375 25.1894 40.0042 25.0468 40.2945 24.9891C40.5849 24.9313 40.8858 24.961 41.1593 25.0743C41.4327 25.1875 41.6665 25.3794 41.8309 25.6255C41.9954 25.8716 42.0832 26.161 42.0832 26.457C42.0823 26.8537 41.9243 27.2338 41.6438 27.5143C41.3634 27.7948 40.9832 27.9528 40.5865 27.9537Z" fill="#E03875"/>
<path d="M36.1365 27.7668C35.8398 27.7668 35.5498 27.6785 35.3033 27.5133C35.0569 27.3481 34.8651 27.1134 34.7523 26.8389C34.6395 26.5645 34.6109 26.2627 34.67 25.9719C34.7291 25.6812 34.8733 25.4145 35.0843 25.2059C35.2953 24.9973 35.5635 24.856 35.8549 24.8002C36.1463 24.7443 36.4478 24.7764 36.7209 24.8922C36.9941 25.008 37.2267 25.2025 37.3891 25.4508C37.5516 25.6991 37.6365 25.9901 37.6332 26.2868C37.6288 26.6808 37.4692 27.0572 37.189 27.3343C36.9088 27.6114 36.5306 27.7668 36.1365 27.7668V27.7668Z" fill="#E03875"/>
<path d="M40.5865 22.9103C40.2905 22.9103 40.0011 22.8226 39.755 22.6581C39.5089 22.4936 39.317 22.2599 39.2038 21.9864C39.0905 21.7129 39.0609 21.412 39.1186 21.1217C39.1764 20.8314 39.3189 20.5647 39.5282 20.3554C39.7375 20.146 40.0042 20.0035 40.2945 19.9458C40.5849 19.888 40.8858 19.9176 41.1593 20.0309C41.4327 20.1442 41.6665 20.336 41.8309 20.5822C41.9954 20.8283 42.0832 21.1176 42.0832 21.4137C42.0823 21.8103 41.9243 22.1905 41.6438 22.471C41.3634 22.7515 40.9832 22.9094 40.5865 22.9103Z" fill="#E03875"/>
<path d="M36.1366 23.0805C35.8406 23.0805 35.5513 22.9927 35.3051 22.8283C35.059 22.6638 34.8672 22.4301 34.7539 22.1566C34.6406 21.8831 34.611 21.5822 34.6687 21.2918C34.7265 21.0015 34.869 20.7348 35.0783 20.5255C35.2877 20.3162 35.5543 20.1737 35.8447 20.1159C36.135 20.0582 36.4359 20.0878 36.7094 20.2011C36.9829 20.3144 37.2166 20.5062 37.3811 20.7523C37.5455 20.9984 37.6333 21.2878 37.6333 21.5838C37.6333 21.9808 37.4756 22.3615 37.1949 22.6421C36.9143 22.9228 36.5336 23.0805 36.1366 23.0805V23.0805Z" fill="#E03875"/>
<path d="M38.9561 17.8768C38.6599 17.8774 38.3702 17.7902 38.1236 17.6261C37.8771 17.4621 37.6847 17.2286 37.5709 16.9552C37.4572 16.6817 37.427 16.3807 37.4844 16.0902C37.5418 15.7996 37.6841 15.5326 37.8932 15.323C38.1024 15.1133 38.3691 14.9704 38.6595 14.9124C38.9499 14.8544 39.251 14.8839 39.5247 14.997C39.7984 15.1102 40.0323 15.302 40.1969 15.5482C40.3615 15.7944 40.4494 16.0839 40.4494 16.3801C40.4494 16.7765 40.2922 17.1566 40.0122 17.4372C39.7322 17.7178 39.3524 17.8759 38.9561 17.8768Z" fill="#E03875"/>
<line x1="61.5" y1="2.18557e-08" x2="61.5" y2="48" stroke="black"/>
</svg>
