<svg version="1.1" viewBox="0.0 0.0 960.0 540.0" fill="none" stroke="none" stroke-linecap="square" stroke-miterlimit="10" xmlns:xlink="http://www.w3.org/1999/xlink" xmlns="http://www.w3.org/2000/svg"><clipPath id="g155373dfe26_0_1495.0"><path d="m0 0l960.0 0l0 540.0l-960.0 0l0 -540.0z" clip-rule="nonzero"/></clipPath><g clip-path="url(#g155373dfe26_0_1495.0)"><path fill="#ffffff" d="m0 0l960.0 0l0 540.0l-960.0 0z" fill-rule="evenodd"/><path fill="#ffffff" d="m538.58 407.92047l0 0c0 -1.388092 1.1253052 -2.5133667 2.5133667 -2.5133667l85.447205 0c0.66656494 0 1.3058472 0.26480103 1.7771606 0.736145c0.4713745 0.471344 0.736145 1.1106567 0.736145 1.7772217l0 85.453674c0 1.388092 -1.1252441 2.5133667 -2.5133057 2.5133667l-85.447205 0c-1.3880615 0 -2.5133667 -1.1252747 -2.5133667 -2.5133667z" fill-rule="evenodd"/><path stroke="#e03875" stroke-width="1.0" stroke-miterlimit="400.0" stroke-linecap="butt" d="m538.58 407.92047l0 0c0 -1.388092 1.1253052 -2.5133667 2.5133667 -2.5133667l85.447205 0c0.66656494 0 1.3058472 0.26480103 1.7771606 0.736145c0.4713745 0.471344 0.736145 1.1106567 0.736145 1.7772217l0 85.453674c0 1.388092 -1.1252441 2.5133667 -2.5133057 2.5133667l-85.447205 0c-1.3880615 0 -2.5133667 -1.1252747 -2.5133667 -2.5133667z" fill-rule="evenodd"/><path fill="#e03875" d="m605.8958 477.57605l0 0c0 -3.6536865 2.96167 -6.61557 6.6150513 -6.61557l0 0c1.7544556 0 3.4370117 0.6970215 4.6776123 1.9376526c1.2405396 1.2406616 1.9375 2.9233704 1.9375 4.6779175l0 0c0 3.653656 -2.96167 6.6155396 -6.6151123 6.6155396l0 0c-3.6533813 0 -6.6150513 -2.9618835 -6.6150513 -6.6155396z" fill-rule="evenodd"/><path fill="#000000" fill-opacity="0.0" d="m530.9175 498.218l106.24463 0l0 41.771698l-106.24463 0z" fill-rule="evenodd"/><path fill="#000000" d="m550.3943 502.97235q1.453125 0 2.484375 0.828125q1.03125 0.8125 1.203125 2.25l-1.8125 0q-0.125 -0.671875 -0.671875 -1.078125q-0.546875 -0.421875 -1.203125 -0.421875q-1.109375 0 -1.71875 0.8125q-0.609375 0.796875 -0.609375 2.125q0 1.265625 0.59375 2.0625q0.609375 0.796875 1.734375 0.796875q0.8125 0 1.3125 -0.5q0.515625 -0.5 0.625 -1.40625l1.828125 0q-0.15625 1.625 -1.1875 2.5625q-1.015625 0.9375 -2.578125 0.9375q-1.234375 0 -2.203125 -0.5625q-0.96875 -0.5625 -1.5 -1.59375q-0.515625 -1.03125 -0.515625 -2.296875q0 -1.96875 1.15625 -3.234375q1.15625 -1.28125 3.0625 -1.28125zm7.8789062 2.390625q1.46875 0 2.34375 0.90625q0.875 0.890625 0.875 2.375q0 1.484375 -0.890625 2.375q-0.875 0.890625 -2.328125 0.890625q-1.4375 0 -2.328125 -0.890625q-0.875 -0.90625 -0.875 -2.375q0 -1.46875 0.859375 -2.375q0.875 -0.90625 2.34375 -0.90625zm-1.5 3.28125q0 0.984375 0.40625 1.484375q0.40625 0.5 1.09375 0.5q0.734375 0 1.125 -0.515625q0.390625 -0.53125 0.390625 -1.46875q0 -0.921875 -0.390625 -1.453125q-0.375 -0.546875 -1.125 -0.546875q-0.6875 0 -1.09375 0.5q-0.40625 0.5 -0.40625 1.5zm9.376953 -3.28125q1.1875 0 1.71875 0.609375q0.546875 0.59375 0.546875 1.890625l0 3.875l-1.703125 0l0 -3.5625q0 -0.71875 -0.25 -1.09375q-0.25 -0.375 -0.84375 -0.375q-0.703125 0 -1.015625 0.421875q-0.3125 0.421875 -0.3125 1.296875l0 3.3125l-1.6875 0l0 -6.203125l1.609375 0l0 0.859375l0.03125 0q0.3125 -0.5 0.8125 -0.765625q0.5 -0.265625 1.09375 -0.265625zm6.0976562 0q1.265625 0 1.953125 0.5q0.703125 0.5 0.796875 1.484375l-1.625 0q-0.046875 -0.4375 -0.34375 -0.640625q-0.28125 -0.203125 -0.828125 -0.203125q-0.484375 0 -0.71875 0.15625q-0.21875 0.140625 -0.21875 0.421875q0 0.28125 0.296875 0.46875q0.296875 0.1875 1.1875 0.359375q1.421875 0.265625 1.90625 0.703125q0.5 0.4375 0.5 1.140625q0 1.046875 -0.78125 1.609375q-0.765625 0.546875 -2.046875 0.546875q-1.296875 0 -2.078125 -0.546875q-0.78125 -0.546875 -0.84375 -1.640625l1.625 0q0 0.484375 0.375 0.765625q0.375 0.28125 0.9375 0.28125q0.5 0 0.796875 -0.21875q0.3125 -0.21875 0.3125 -0.578125q0 -0.328125 -0.40625 -0.53125q-0.390625 -0.203125 -1.46875 -0.421875q-1.078125 -0.21875 -1.546875 -0.609375q-0.46875 -0.390625 -0.46875 -1.0625q0 -0.984375 0.6875 -1.484375q0.703125 -0.5 2.0 -0.5zm5.6015625 0.171875l0 3.546875q0 0.703125 0.25 1.09375q0.25 0.390625 0.859375 0.390625q0.703125 0 1.0 -0.421875q0.3125 -0.4375 0.3125 -1.296875l0 -3.3125l1.703125 0l0 6.203125l-1.625 0l0 -0.859375l-0.03125 0q-0.328125 0.515625 -0.84375 0.78125q-0.5 0.25 -1.0625 0.25q-1.15625 0 -1.703125 -0.59375q-0.546875 -0.59375 -0.546875 -1.90625l0 -3.875l1.6875 0zm7.1757812 -2.359375l0 8.5625l-1.703125 0l0 -8.5625l1.703125 0zm8.693359 -0.203125q1.453125 0 2.484375 0.828125q1.03125 0.8125 1.203125 2.25l-1.8125 0q-0.125 -0.671875 -0.671875 -1.078125q-0.546875 -0.421875 -1.203125 -0.421875q-1.109375 0 -1.71875 0.8125q-0.609375 0.796875 -0.609375 2.125q0 1.265625 0.59375 2.0625q0.609375 0.796875 1.734375 0.796875q0.8125 0 1.3125 -0.5q0.515625 -0.5 0.625 -1.40625l1.828125 0q-0.15625 1.625 -1.1875 2.5625q-1.015625 0.9375 -2.578125 0.9375q-1.234375 0 -2.203125 -0.5625q-0.96875 -0.5625 -1.5 -1.59375q-0.515625 -1.03125 -0.515625 -2.296875q0 -1.96875 1.15625 -3.234375q1.15625 -1.28125 3.0625 -1.28125zm6.6289062 0.203125l0 8.5625l-1.703125 0l0 -8.5625l1.703125 0zm3.09375 0l0 1.390625l-1.703125 0l0 -1.390625l1.703125 0zm0 2.359375l0 6.203125l-1.703125 0l0 -6.203125l1.703125 0zm4.203125 -0.171875q1.375 0 2.203125 0.953125q0.828125 0.9375 0.828125 2.421875l-0.015625 0.3125l-4.484375 0q0.046875 0.796875 0.421875 1.1875q0.390625 0.390625 1.09375 0.390625q0.46875 0 0.859375 -0.234375q0.390625 -0.25 0.5 -0.578125l1.5 0q-0.34375 1.046875 -1.0625 1.578125q-0.71875 0.515625 -1.84375 0.515625q-1.4375 0 -2.3125 -0.90625q-0.859375 -0.90625 -0.859375 -2.359375q0 -1.390625 0.890625 -2.328125q0.890625 -0.953125 2.28125 -0.953125zm-1.46875 2.609375l2.78125 0q-0.125 -0.6875 -0.453125 -1.0q-0.3125 -0.328125 -0.921875 -0.328125q-0.609375 0 -0.984375 0.359375q-0.359375 0.34375 -0.421875 0.96875zm9.046875 -2.609375q1.1875 0 1.71875 0.609375q0.546875 0.59375 0.546875 1.890625l0 3.875l-1.703125 0l0 -3.5625q0 -0.71875 -0.25 -1.09375q-0.25 -0.375 -0.84375 -0.375q-0.703125 0 -1.015625 0.421875q-0.3125 0.421875 -0.3125 1.296875l0 3.3125l-1.6875 0l0 -6.203125l1.609375 0l0 0.859375l0.03125 0q0.3125 -0.5 0.8125 -0.765625q0.5 -0.265625 1.09375 -0.265625zm5.7226562 -1.6875l0 1.859375l1.25 0l0 1.140625l-1.25 0l0 3.109375q0 0.375 0.140625 0.53125q0.140625 0.15625 0.578125 0.15625q0.140625 0 0.265625 -0.015625q0.140625 -0.015625 0.265625 -0.03125l0 1.328125q-0.21875 0.03125 -0.484375 0.046875q-0.25 0.015625 -0.5 0.015625q-1.109375 0 -1.546875 -0.375q-0.421875 -0.390625 -0.421875 -1.0625l0 -3.703125l-1.03125 0l0 -1.140625l1.03125 0l0 -1.859375l1.703125 0z" fill-rule="nonzero"/><path fill="#000000" fill-opacity="0.0" d="m530.9175 397.317l0 0c0 -1.6103516 1.305481 -2.915802 2.9158325 -2.915802l100.412964 0c0.77337646 0 1.5150146 0.30718994 2.0618286 0.8540344c0.54681396 0.54681396 0.8540039 1.2884521 0.8540039 2.0617676l0 99.129425c0 1.6103516 -1.3054199 2.915802 -2.9158325 2.915802l-100.412964 0c-1.6103516 0 -2.9158325 -1.3054504 -2.9158325 -2.915802z" fill-rule="evenodd"/><path fill="#ffffff" d="m678.00085 270.86032l0 0c0 -1.388092 1.1252441 -2.5133667 2.5133667 -2.5133667l85.44714 0c0.66656494 0 1.3058472 0.26480103 1.7772217 0.736145c0.47131348 0.4713745 0.736145 1.1106567 0.736145 1.7772217l0 85.453674c0 1.388092 -1.1253052 2.5133667 -2.5133667 2.5133667l-85.44714 0c-1.3881226 0 -2.5133667 -1.1252747 -2.5133667 -2.5133667z" fill-rule="evenodd"/><path stroke="#e03875" stroke-width="1.0" stroke-miterlimit="400.0" stroke-linecap="butt" d="m678.00085 270.86032l0 0c0 -1.388092 1.1252441 -2.5133667 2.5133667 -2.5133667l85.44714 0c0.66656494 0 1.3058472 0.26480103 1.7772217 0.736145c0.47131348 0.4713745 0.736145 1.1106567 0.736145 1.7772217l0 85.453674c0 1.388092 -1.1253052 2.5133667 -2.5133667 2.5133667l-85.44714 0c-1.3881226 0 -2.5133667 -1.1252747 -2.5133667 -2.5133667z" fill-rule="evenodd"/><path fill="#e03875" d="m745.3166 340.5159l0 0c0 -3.6536865 2.96167 -6.61557 6.6151123 -6.61557l0 0c1.7543945 0 3.4369507 0.6970215 4.6775513 1.9376526c1.2405396 1.2406616 1.9375 2.9233704 1.9375 4.6779175l0 0c0 3.653656 -2.96167 6.6155396 -6.6150513 6.6155396l0 0c-3.6534424 0 -6.6151123 -2.9618835 -6.6151123 -6.6155396z" fill-rule="evenodd"/><path fill="#000000" fill-opacity="0.0" d="m670.3383 361.15784l106.24457 0l0 41.771698l-106.24457 0z" fill-rule="evenodd"/><path fill="#000000" d="m689.81506 365.9122q1.453125 0 2.484375 0.828125q1.03125 0.8125 1.203125 2.25l-1.8125 0q-0.125 -0.671875 -0.671875 -1.078125q-0.546875 -0.421875 -1.203125 -0.421875q-1.109375 0 -1.71875 0.8125q-0.609375 0.796875 -0.609375 2.125q0 1.265625 0.59375 2.0625q0.609375 0.796875 1.734375 0.796875q0.8125 0 1.3125 -0.5q0.515625 -0.5 0.625 -1.40625l1.828125 0q-0.15625 1.625 -1.1875 2.5625q-1.015625 0.9375 -2.578125 0.9375q-1.234375 0 -2.203125 -0.5625q-0.96875 -0.5625 -1.5 -1.59375q-0.515625 -1.03125 -0.515625 -2.296875q0 -1.96875 1.15625 -3.234375q1.15625 -1.28125 3.0625 -1.28125zm7.8789062 2.390625q1.46875 0 2.34375 0.90625q0.875 0.890625 0.875 2.375q0 1.484375 -0.890625 2.375q-0.875 0.890625 -2.328125 0.890625q-1.4375 0 -2.328125 -0.890625q-0.875 -0.90625 -0.875 -2.375q0 -1.46875 0.859375 -2.375q0.875 -0.90625 2.34375 -0.90625zm-1.5 3.28125q0 0.984375 0.40625 1.484375q0.40625 0.5 1.09375 0.5q0.734375 0 1.125 -0.515625q0.390625 -0.53125 0.390625 -1.46875q0 -0.921875 -0.390625 -1.453125q-0.375 -0.546875 -1.125 -0.546875q-0.6875 0 -1.09375 0.5q-0.40625 0.5 -0.40625 1.5zm9.376953 -3.28125q1.1875 0 1.71875 0.609375q0.546875 0.59375 0.546875 1.890625l0 3.875l-1.703125 0l0 -3.5625q0 -0.71875 -0.25 -1.09375q-0.25 -0.375 -0.84375 -0.375q-0.703125 0 -1.015625 0.421875q-0.3125 0.421875 -0.3125 1.296875l0 3.3125l-1.6875 0l0 -6.203125l1.609375 0l0 0.859375l0.03125 0q0.3125 -0.5 0.8125 -0.765625q0.5 -0.265625 1.09375 -0.265625zm6.0976562 0q1.265625 0 1.953125 0.5q0.703125 0.5 0.796875 1.484375l-1.625 0q-0.046875 -0.4375 -0.34375 -0.640625q-0.28125 -0.203125 -0.828125 -0.203125q-0.484375 0 -0.71875 0.15625q-0.21875 0.140625 -0.21875 0.421875q0 0.28125 0.296875 0.46875q0.296875 0.1875 1.1875 0.359375q1.421875 0.265625 1.90625 0.703125q0.5 0.4375 0.5 1.140625q0 1.046875 -0.78125 1.609375q-0.765625 0.546875 -2.046875 0.546875q-1.296875 0 -2.078125 -0.546875q-0.78125 -0.546875 -0.84375 -1.640625l1.625 0q0 0.484375 0.375 0.765625q0.375 0.28125 0.9375 0.28125q0.5 0 0.796875 -0.21875q0.3125 -0.21875 0.3125 -0.578125q0 -0.328125 -0.40625 -0.53125q-0.390625 -0.203125 -1.46875 -0.421875q-1.078125 -0.21875 -1.546875 -0.609375q-0.46875 -0.390625 -0.46875 -1.0625q0 -0.984375 0.6875 -1.484375q0.703125 -0.5 2.0 -0.5zm5.6015625 0.171875l0 3.546875q0 0.703125 0.25 1.09375q0.25 0.390625 0.859375 0.390625q0.703125 0 1.0 -0.421875q0.3125 -0.4375 0.3125 -1.296875l0 -3.3125l1.703125 0l0 6.203125l-1.625 0l0 -0.859375l-0.03125 0q-0.328125 0.515625 -0.84375 0.78125q-0.5 0.25 -1.0625 0.25q-1.15625 0 -1.703125 -0.59375q-0.546875 -0.59375 -0.546875 -1.90625l0 -3.875l1.6875 0zm7.1757812 -2.359375l0 8.5625l-1.703125 0l0 -8.5625l1.703125 0zm8.693359 -0.203125q1.453186 0 2.484436 0.828125q1.03125 0.8125 1.203125 2.25l-1.8125 0q-0.125 -0.671875 -0.671875 -1.078125q-0.54693604 -0.421875 -1.203186 -0.421875q-1.109375 0 -1.71875 0.8125q-0.609375 0.796875 -0.609375 2.125q0 1.265625 0.59375 2.0625q0.609375 0.796875 1.734375 0.796875q0.8125 0 1.312561 -0.5q0.515625 -0.5 0.625 -1.40625l1.828125 0q-0.15625 1.625 -1.1875 2.5625q-1.015625 0.9375 -2.578186 0.9375q-1.234375 0 -2.203125 -0.5625q-0.96875 -0.5625 -1.5 -1.59375q-0.515625 -1.03125 -0.515625 -2.296875q0 -1.96875 1.15625 -3.234375q1.15625 -1.28125 3.0625 -1.28125zm6.6289673 0.203125l0 8.5625l-1.703125 0l0 -8.5625l1.703125 0zm3.09375 0l0 1.390625l-1.703125 0l0 -1.390625l1.703125 0zm0 2.359375l0 6.203125l-1.703125 0l0 -6.203125l1.703125 0zm4.203125 -0.171875q1.375 0 2.203125 0.953125q0.828125 0.9375 0.828125 2.421875l-0.015625 0.3125l-4.484375 0q0.046875 0.796875 0.421875 1.1875q0.390625 0.390625 1.09375 0.390625q0.46875 0 0.859375 -0.234375q0.390625 -0.25 0.5 -0.578125l1.5 0q-0.34375 1.046875 -1.0625 1.578125q-0.71875 0.515625 -1.84375 0.515625q-1.4375 0 -2.3125 -0.90625q-0.859375 -0.90625 -0.859375 -2.359375q0 -1.390625 0.890625 -2.328125q0.890625 -0.953125 2.28125 -0.953125zm-1.46875 2.609375l2.78125 0q-0.125 -0.6875 -0.453125 -1.0q-0.3125 -0.328125 -0.921875 -0.328125q-0.609375 0 -0.984375 0.359375q-0.359375 0.34375 -0.421875 0.96875zm9.046875 -2.609375q1.1875 0 1.71875 0.609375q0.546875 0.59375 0.546875 1.890625l0 3.875l-1.703125 0l0 -3.5625q0 -0.71875 -0.25 -1.09375q-0.25 -0.375 -0.84375 -0.375q-0.703125 0 -1.015625 0.421875q-0.3125 0.421875 -0.3125 1.296875l0 3.3125l-1.6875 0l0 -6.203125l1.609375 0l0 0.859375l0.03125 0q0.3125 -0.5 0.8125 -0.765625q0.5 -0.265625 1.09375 -0.265625zm5.7226562 -1.6875l0 1.859375l1.25 0l0 1.140625l-1.25 0l0 3.109375q0 0.375 0.140625 0.53125q0.140625 0.15625 0.578125 0.15625q0.140625 0 0.265625 -0.015625q0.140625 -0.015625 0.265625 -0.03125l0 1.328125q-0.21875 0.03125 -0.484375 0.046875q-0.25 0.015625 -0.5 0.015625q-1.109375 0 -1.546875 -0.375q-0.421875 -0.390625 -0.421875 -1.0625l0 -3.703125l-1.03125 0l0 -1.140625l1.03125 0l0 -1.859375l1.703125 0z" fill-rule="nonzero"/><path fill="#000000" fill-opacity="0.0" d="m670.3383 260.08453l0 0c0 -1.6103516 1.3054199 -2.915802 2.9157715 -2.915802l100.413025 0c0.7733154 0 1.5149536 0.30718994 2.0617676 0.8540039c0.54681396 0.5468445 0.8540039 1.2884827 0.8540039 2.061798l0 99.129395c0 1.6103821 -1.3054199 2.9158325 -2.9157715 2.9158325l-100.413025 0c-1.6103516 0 -2.9157715 -1.3054504 -2.9157715 -2.9158325z" fill-rule="evenodd"/><path fill="#dc477d" d="m180.24763 264.68185l0 0c0 -1.388092 1.1252899 -2.5133972 2.5133972 -2.5133972l85.44801 0c0.66659546 0 1.3058777 0.26480103 1.7772217 0.73617554c0.4713745 0.471344 0.73617554 1.1106262 0.73617554 1.7772217l0 85.44803c0 1.388092 -1.1253052 2.5133667 -2.5133972 2.5133667l-85.44801 0c-1.3881073 0 -2.5133972 -1.1252747 -2.5133972 -2.5133667z" fill-rule="evenodd"/><path fill="#ffffff" d="m225.662 332.6882c-13.93689 0.011566162 -25.244247 -11.312988 -25.255615 -25.29361c-0.011367798 -13.980774 11.277542 -25.323547 25.214432 -25.33496c6.3397827 -0.0051574707 12.449234 2.383606 17.113266 6.6913147l0 0l-5.9886017 6.284668l0 0c-6.7954407 -6.160034 -17.282272 -5.627594 -23.42305 1.189209c-6.140732 6.8167725 -5.6099854 17.336609 1.1854858 23.496643c6.3144226 5.723999 15.9231415 5.723999 22.237564 0l0 0l5.9886017 6.2846375l0 0c-4.650345 4.3022766 -10.74614 6.6881104 -17.072083 6.6820984z" fill-rule="evenodd"/><path fill="#ffffff" d="m245.96799 320.02643c-1.142334 0 -2.0683746 -0.92889404 -2.0683746 -2.074829c0 -1.1459656 0.92604065 -2.0748901 2.0683746 -2.0748901c1.1424408 0 2.0683746 0.92892456 2.0683746 2.0748901c-0.0027770996 1.144867 -0.9273071 2.0723267 -2.0683746 2.074829z" fill-rule="evenodd"/><path fill="#ffffff" d="m225.50076 312.85916c-3.0173492 0 -5.46344 -2.4537659 -5.46344 -5.480591c0 -3.0268555 2.4460907 -5.4806213 5.46344 -5.4806213c3.017395 0 5.4634247 2.4537659 5.4634247 5.4806213c-0.0025177002 3.0257874 -2.4470825 5.4780273 -5.4634247 5.480591z" fill-rule="evenodd"/><path fill="#ffffff" d="m248.3358 312.9377c-1.1424408 0 -2.0683746 -0.92892456 -2.0683746 -2.074829c0 -1.1459961 0.92593384 -2.0748901 2.0683746 -2.0748901c1.1424255 0 2.0683594 0.92889404 2.0683594 2.0748901c-0.0027770996 1.1448364 -0.92729187 2.0722961 -2.0683594 2.074829z" fill-rule="evenodd"/><path fill="#ffffff" d="m242.19052 312.70206c-1.142334 0 -2.0683746 -0.92892456 -2.0683746 -2.0748596c0 -1.1459656 0.92604065 -2.0748901 2.0683746 -2.0748901c1.142334 0 2.0683746 0.92892456 2.0683746 2.0748901c0 1.145935 -0.92604065 2.0748596 -2.0683746 2.0748596z" fill-rule="evenodd"/><path fill="#ffffff" d="m248.3358 305.96448c-1.1424408 0 -2.0683746 -0.92892456 -2.0683746 -2.074829c0 -1.1459656 0.92593384 -2.0748901 2.0683746 -2.0748901c1.1424255 0 2.0683594 0.92892456 2.0683594 2.0748901c-0.0027770996 1.144867 -0.92729187 2.0722961 -2.0683594 2.074829z" fill-rule="evenodd"/><path fill="#ffffff" d="m242.19052 306.2002c-1.142334 0 -2.0683746 -0.9289856 -2.0683746 -2.0748596c0 -1.1459656 0.9260864 -2.0748901 2.0683746 -2.0748901c1.142334 0 2.0683746 0.9289856 2.0683746 2.0748901c0 0.0015258789 0 0.0030822754 0 0.0046081543c-0.002532959 1.144165 -0.92781067 2.0702515 -2.0683746 2.0702515z" fill-rule="evenodd"/><path fill="#ffffff" d="m246.08772 298.98666c-1.1422882 0.0025939941 -2.0704498 -0.9243164 -2.0729675 -2.070221c-0.002532959 -1.145874 0.9214325 -2.0769653 2.0637665 -2.0794983c1.1424255 -0.002532959 2.0701904 0.92437744 2.0729675 2.0702515c0 0.0014953613 0 0.003112793 0 0.004638672c0 1.144104 -0.92315674 2.0722961 -2.0637665 2.074829z" fill-rule="evenodd"/><path fill="#000000" fill-opacity="0.0" d="m172.36292 354.45447l106.24463 0l0 41.771698l-106.24463 0z" fill-rule="evenodd"/><path fill="#000000" d="m189.84753 359.20883q1.453125 0 2.484375 0.828125q1.03125 0.8125 1.203125 2.25l-1.8125 0q-0.125 -0.671875 -0.671875 -1.078125q-0.546875 -0.421875 -1.203125 -0.421875q-1.109375 0 -1.71875 0.8125q-0.609375 0.796875 -0.609375 2.125q0 1.265625 0.59375 2.0625q0.609375 0.796875 1.734375 0.796875q0.8125 0 1.3125 -0.5q0.515625 -0.5 0.625 -1.40625l1.828125 0q-0.15625 1.625 -1.1875 2.5625q-1.015625 0.9375 -2.578125 0.9375q-1.234375 0 -2.203125 -0.5625q-0.96875 -0.5625 -1.5 -1.59375q-0.515625 -1.03125 -0.515625 -2.296875q0 -1.96875 1.15625 -3.234375q1.15625 -1.28125 3.0625 -1.28125zm7.8789062 2.390625q1.46875 0 2.34375 0.90625q0.875 0.890625 0.875 2.375q0 1.484375 -0.890625 2.375q-0.875 0.890625 -2.328125 0.890625q-1.4375 0 -2.328125 -0.890625q-0.875 -0.90625 -0.875 -2.375q0 -1.46875 0.859375 -2.375q0.875 -0.90625 2.34375 -0.90625zm-1.5 3.28125q0 0.984375 0.40625 1.484375q0.40625 0.5 1.09375 0.5q0.734375 0 1.125 -0.515625q0.390625 -0.53125 0.390625 -1.46875q0 -0.921875 -0.390625 -1.453125q-0.375 -0.546875 -1.125 -0.546875q-0.6875 0 -1.09375 0.5q-0.40625 0.5 -0.40625 1.5zm9.376953 -3.28125q1.1875 0 1.71875 0.609375q0.546875 0.59375 0.546875 1.890625l0 3.875l-1.703125 0l0 -3.5625q0 -0.71875 -0.25 -1.09375q-0.25 -0.375 -0.84375 -0.375q-0.703125 0 -1.015625 0.421875q-0.3125 0.421875 -0.3125 1.296875l0 3.3125l-1.6875 0l0 -6.203125l1.609375 0l0 0.859375l0.03125 0q0.3125 -0.5 0.8125 -0.765625q0.5 -0.265625 1.09375 -0.265625zm6.0976562 0q1.265625 0 1.953125 0.5q0.703125 0.5 0.796875 1.484375l-1.625 0q-0.046875 -0.4375 -0.34375 -0.640625q-0.28125 -0.203125 -0.828125 -0.203125q-0.484375 0 -0.71875 0.15625q-0.21875 0.140625 -0.21875 0.421875q0 0.28125 0.296875 0.46875q0.296875 0.1875 1.1875 0.359375q1.421875 0.265625 1.90625 0.703125q0.5 0.4375 0.5 1.140625q0 1.046875 -0.78125 1.609375q-0.765625 0.546875 -2.046875 0.546875q-1.296875 0 -2.078125 -0.546875q-0.78125 -0.546875 -0.84375 -1.640625l1.625 0q0 0.484375 0.375 0.765625q0.375 0.28125 0.9375 0.28125q0.5 0 0.796875 -0.21875q0.3125 -0.21875 0.3125 -0.578125q0 -0.328125 -0.40625 -0.53125q-0.390625 -0.203125 -1.46875 -0.421875q-1.078125 -0.21875 -1.546875 -0.609375q-0.46875 -0.390625 -0.46875 -1.0625q0 -0.984375 0.6875 -1.484375q0.703125 -0.5 2.0 -0.5zm5.6015625 0.171875l0 3.546875q0 0.703125 0.25 1.09375q0.25 0.390625 0.859375 0.390625q0.703125 0 1.0 -0.421875q0.3125 -0.4375 0.3125 -1.296875l0 -3.3125l1.703125 0l0 6.203125l-1.625 0l0 -0.859375l-0.03125 0q-0.328125 0.515625 -0.84375 0.78125q-0.5 0.25 -1.0625 0.25q-1.15625 0 -1.703125 -0.59375q-0.546875 -0.59375 -0.546875 -1.90625l0 -3.875l1.6875 0zm7.1757812 -2.359375l0 8.5625l-1.703125 0l0 -8.5625l1.703125 0zm7.8027344 -0.203125q1.546875 0 2.484375 0.71875q0.9375 0.71875 0.9375 2.03125l-1.8125 0q-0.046875 -0.640625 -0.453125 -0.96875q-0.390625 -0.328125 -1.234375 -0.328125q-0.578125 0 -0.953125 0.265625q-0.359375 0.25 -0.359375 0.71875q0 0.3125 0.15625 0.46875q0.15625 0.15625 0.625 0.34375q0.46875 0.171875 2.0625 0.546875q1.0625 0.25 1.65625 0.875q0.609375 0.609375 0.609375 1.546875q0 1.25 -0.9375 2.0q-0.9375 0.75 -2.625 0.75q-1.609375 0 -2.640625 -0.796875q-1.015625 -0.796875 -1.015625 -2.203125l0 -0.046875l1.828125 0q0 0.796875 0.515625 1.1875q0.53125 0.390625 1.375 0.390625q0.765625 0 1.21875 -0.265625q0.453125 -0.28125 0.453125 -0.796875q0 -0.421875 -0.359375 -0.6875q-0.34375 -0.265625 -1.109375 -0.453125q-0.984375 -0.21875 -1.78125 -0.46875q-0.796875 -0.25 -1.328125 -0.8125q-0.53125 -0.5625 -0.53125 -1.4375q0 -1.15625 0.921875 -1.859375q0.9375 -0.71875 2.296875 -0.71875zm7.5214844 2.390625q1.375 0 2.203125 0.953125q0.828125 0.9375 0.828125 2.421875l-0.015625 0.3125l-4.484375 0q0.046875 0.796875 0.421875 1.1875q0.390625 0.390625 1.09375 0.390625q0.46875 0 0.859375 -0.234375q0.390625 -0.25 0.5 -0.578125l1.5 0q-0.34375 1.046875 -1.0625 1.578125q-0.71875 0.515625 -1.84375 0.515625q-1.4375 0 -2.3125 -0.90625q-0.859375 -0.90625 -0.859375 -2.359375q0 -1.390625 0.890625 -2.328125q0.890625 -0.953125 2.28125 -0.953125zm-1.46875 2.609375l2.78125 0q-0.125 -0.6875 -0.453125 -1.0q-0.3125 -0.328125 -0.921875 -0.328125q-0.609375 0 -0.984375 0.359375q-0.359375 0.34375 -0.421875 0.96875zm9.109375 -2.609375q0.109375 0 0.203125 0.015625q0.09375 0.015625 0.171875 0.046875l0 1.578125q-0.140625 -0.03125 -0.28125 -0.03125q-0.140625 -0.015625 -0.328125 -0.015625q-0.859375 0 -1.28125 0.53125q-0.40625 0.515625 -0.40625 1.40625l0 2.84375l-1.6875 0l0 -6.203125l1.609375 0l0 1.15625l0.03125 0q0.265625 -0.609375 0.796875 -0.96875q0.546875 -0.359375 1.171875 -0.359375zm2.3945312 0.171875l1.3125 4.234375l0.03125 0l1.296875 -4.234375l1.703125 0l-2.109375 6.203125l-1.890625 0l-2.125 -6.203125l1.78125 0zm7.9121094 -0.171875q1.375 0 2.203125 0.953125q0.828125 0.9375 0.828125 2.421875l-0.015625 0.3125l-4.484375 0q0.046875 0.796875 0.421875 1.1875q0.390625 0.390625 1.09375 0.390625q0.46875 0 0.859375 -0.234375q0.390625 -0.25 0.5 -0.578125l1.5 0q-0.34375 1.046875 -1.0625 1.578125q-0.71875 0.515625 -1.84375 0.515625q-1.4375 0 -2.3125 -0.90625q-0.859375 -0.90625 -0.859375 -2.359375q0 -1.390625 0.890625 -2.328125q0.890625 -0.953125 2.28125 -0.953125zm-1.46875 2.609375l2.78125 0q-0.125 -0.6875 -0.453125 -1.0q-0.3125 -0.328125 -0.921875 -0.328125q-0.609375 0 -0.984375 0.359375q-0.359375 0.34375 -0.421875 0.96875zm9.109375 -2.609375q0.109375 0 0.203125 0.015625q0.09375 0.015625 0.171875 0.046875l0 1.578125q-0.140625 -0.03125 -0.28125 -0.03125q-0.140625 -0.015625 -0.328125 -0.015625q-0.859375 0 -1.28125 0.53125q-0.40625 0.515625 -0.40625 1.40625l0 2.84375l-1.6875 0l0 -6.203125l1.609375 0l0 1.15625l0.03125 0q0.265625 -0.609375 0.796875 -0.96875q0.546875 -0.359375 1.171875 -0.359375z" fill-rule="nonzero"/><path fill="#000000" d="m205.7909 373.20883q-0.640625 1.1875 -0.984375 2.578125q-0.328125 1.390625 -0.328125 2.859375q0 1.46875 0.3125 2.84375q0.3125 1.359375 0.984375 2.671875l-1.421875 0q-0.765625 -1.28125 -1.171875 -2.671875q-0.40625 -1.390625 -0.40625 -2.734375q0 -1.390625 0.40625 -2.90625q0.40625 -1.515625 1.171875 -2.640625l1.4375 0zm2.6289062 0.203125l0 6.984375l4.171875 0l0 1.578125l-6.0625 0l0 -8.5625l1.890625 0zm7.6933594 2.1875q1.375 0 2.203125 0.953125q0.828125 0.9375 0.828125 2.421875l-0.015625 0.3125l-4.484375 0q0.046875 0.796875 0.421875 1.1875q0.390625 0.390625 1.09375 0.390625q0.46875 0 0.859375 -0.234375q0.390625 -0.25 0.5 -0.578125l1.5 0q-0.34375 1.046875 -1.0625 1.578125q-0.71875 0.515625 -1.84375 0.515625q-1.4375 0 -2.3125 -0.90625q-0.859375 -0.90625 -0.859375 -2.359375q0 -1.390625 0.890625 -2.328125q0.890625 -0.953125 2.28125 -0.953125zm-1.46875 2.609375l2.78125 0q-0.125 -0.6875 -0.453125 -1.0q-0.3125 -0.328125 -0.921875 -0.328125q-0.609375 0 -0.984375 0.359375q-0.359375 0.34375 -0.421875 0.96875zm8.34375 -2.609375q1.375 0 2.046875 0.453125q0.671875 0.453125 0.671875 1.28125l0 3.328125q0 0.375 0.046875 0.75q0.046875 0.375 0.171875 0.5625l-1.734375 0q-0.046875 -0.140625 -0.078125 -0.28125q-0.03125 -0.15625 -0.046875 -0.3125q-0.359375 0.375 -0.890625 0.578125q-0.515625 0.1875 -1.1875 0.1875q-0.96875 0 -1.546875 -0.484375q-0.5625 -0.484375 -0.5625 -1.375q0 -0.875 0.53125 -1.328125q0.546875 -0.46875 1.96875 -0.625q0.984375 -0.09375 1.296875 -0.234375q0.328125 -0.15625 0.328125 -0.53125q0 -0.40625 -0.25 -0.609375q-0.234375 -0.21875 -0.84375 -0.21875q-0.53125 0 -0.8125 0.234375q-0.28125 0.21875 -0.328125 0.703125l-1.703125 0q0.0625 -1.015625 0.828125 -1.546875q0.78125 -0.53125 2.09375 -0.53125zm-1.40625 4.609375q0 0.375 0.25 0.59375q0.25 0.203125 0.796875 0.203125q0.671875 0 1.015625 -0.359375q0.359375 -0.359375 0.359375 -1.046875l0 -0.65625q-0.15625 0.125 -0.40625 0.1875q-0.25 0.046875 -0.890625 0.140625q-0.59375 0.078125 -0.859375 0.3125q-0.265625 0.21875 -0.265625 0.625zm11.5 -6.796875l0 8.5625l-1.625 0l0 -0.796875l-0.03125 0q-0.265625 0.484375 -0.75 0.734375q-0.484375 0.234375 -1.125 0.234375q-1.265625 0 -2.03125 -0.9375q-0.75 -0.9375 -0.75 -2.390625q0 -1.390625 0.734375 -2.296875q0.75 -0.921875 2.015625 -0.921875q0.578125 0 1.046875 0.234375q0.484375 0.234375 0.78125 0.6875l0.03125 0l0 -3.109375l1.703125 0zm-4.609375 5.453125q0 0.859375 0.390625 1.4375q0.40625 0.5625 1.109375 0.5625q0.703125 0 1.078125 -0.515625q0.375 -0.53125 0.375 -1.5q0 -0.90625 -0.375 -1.4375q-0.359375 -0.53125 -1.09375 -0.53125q-0.703125 0 -1.09375 0.53125q-0.390625 0.53125 -0.390625 1.453125zm8.751953 -3.265625q1.375 0 2.203125 0.953125q0.828125 0.9375 0.828125 2.421875l-0.015625 0.3125l-4.484375 0q0.046875 0.796875 0.421875 1.1875q0.390625 0.390625 1.09375 0.390625q0.46875 0 0.859375 -0.234375q0.390625 -0.25 0.5 -0.578125l1.5 0q-0.34375 1.046875 -1.0625 1.578125q-0.71875 0.515625 -1.84375 0.515625q-1.4375 0 -2.3125 -0.90625q-0.859375 -0.90625 -0.859375 -2.359375q0 -1.390625 0.890625 -2.328125q0.890625 -0.953125 2.28125 -0.953125zm-1.46875 2.609375l2.78125 0q-0.125 -0.6875 -0.453125 -1.0q-0.3125 -0.328125 -0.921875 -0.328125q-0.609375 0 -0.984375 0.359375q-0.359375 0.34375 -0.421875 0.96875zm9.109375 -2.609375q0.109375 0 0.203125 0.015625q0.09375 0.015625 0.171875 0.046875l0 1.578125q-0.140625 -0.03125 -0.28125 -0.03125q-0.140625 -0.015625 -0.328125 -0.015625q-0.859375 0 -1.28125 0.53125q-0.40625 0.515625 -0.40625 1.40625l0 2.84375l-1.6875 0l0 -6.203125l1.609375 0l0 1.15625l0.03125 0q0.265625 -0.609375 0.796875 -0.96875q0.546875 -0.359375 1.171875 -0.359375zm1.7480469 -2.390625q0.78125 1.265625 1.1875 2.65625q0.40625 1.390625 0.40625 2.75q0 1.375 -0.421875 2.90625q-0.40625 1.515625 -1.171875 2.640625l-1.421875 0q0.65625 -1.25 0.96875 -2.609375q0.328125 -1.375 0.328125 -2.8125q0 -1.5 -0.328125 -2.875q-0.3125 -1.390625 -0.96875 -2.65625l1.421875 0z" fill-rule="nonzero"/><path fill="#000000" fill-opacity="0.0" d="m172.36292 259.93765l0 0c0 -1.6103821 1.3054657 -2.9158325 2.9158173 -2.9158325l100.41298 0c0.77334595 0 1.5149841 0.30718994 2.061798 0.8540344c0.5468445 0.54681396 0.8540344 1.2884521 0.8540344 2.061798l0 99.129395c0 1.6103516 -1.3054504 2.915802 -2.9158325 2.915802l-100.41298 0c-1.6103516 0 -2.9158173 -1.3054504 -2.9158173 -2.915802z" fill-rule="evenodd"/><path fill="#000000" fill-opacity="0.0" d="m648.17303 23.907501l139.4646 0" fill-rule="evenodd"/><path stroke="#e03875" stroke-width="2.0" stroke-miterlimit="400.0" stroke-linecap="butt" d="m648.17303 23.907501l139.4646 0" fill-rule="evenodd"/><path fill="#000000" fill-opacity="0.0" d="m667.4286 0.009182939l106.2677 0l0 22.173227l-106.2677 0z" fill-rule="evenodd"/><path fill="#000000" d="m713.2802 4.9666824q1.03125 0 1.734375 0.671875q0.71875 0.65625 0.71875 1.6875q0 0.8125 -0.34375 1.34375q-0.328125 0.53125 -1.015625 0.796875l0 0.03125q0.609375 0.15625 0.921875 0.71875q0.328125 0.5625 0.359375 1.71875q0.03125 1.171875 0.328125 1.59375l-1.875 0q-0.171875 -0.421875 -0.234375 -1.34375q-0.078125 -1.265625 -0.421875 -1.625q-0.328125 -0.375 -1.03125 -0.375l-1.921875 0l0 3.34375l-1.890625 0l0 -8.5625l4.671875 0zm-0.6875 3.875q0.59375 0 0.921875 -0.28125q0.34375 -0.296875 0.34375 -0.953125q0 -0.609375 -0.328125 -0.890625q-0.3125 -0.296875 -0.9375 -0.296875l-2.09375 0l0 2.421875l2.09375 0zm8.603516 -3.875q1.34375 0 2.125 0.75q0.78125 0.75 0.78125 2.0q0 1.234375 -0.78125 1.984375q-0.78125 0.75 -2.125 0.75l-2.03125 0l0 3.078125l-1.890625 0l0 -8.5625l3.921875 0zm-0.515625 4.03125q0.8125 0 1.203125 -0.296875q0.390625 -0.3125 0.390625 -0.984375q0 -0.65625 -0.390625 -0.96875q-0.375 -0.328125 -1.203125 -0.328125l-1.515625 0l0 2.578125l1.515625 0zm8.441406 -4.234375q1.453125 0 2.484375 0.828125q1.03125 0.8125 1.203125 2.25l-1.8125 0q-0.125 -0.671875 -0.671875 -1.078125q-0.546875 -0.421875 -1.203125 -0.421875q-1.109375 0 -1.71875 0.8125q-0.609375 0.796875 -0.609375 2.125q0 1.265625 0.59375 2.0625q0.609375 0.796875 1.734375 0.796875q0.8125 0 1.3125 -0.5q0.515625 -0.5 0.625 -1.40625l1.828125 0q-0.15625 1.625 -1.1875 2.5625q-1.015625 0.9375 -2.578125 0.9375q-1.234375 0 -2.203125 -0.5625q-0.96875 -0.5625 -1.5 -1.59375q-0.515625 -1.03125 -0.515625 -2.296875q0 -1.96875 1.15625 -3.234375q1.15625 -1.28125 3.0625 -1.28125z" fill-rule="nonzero"/><path fill="#000000" fill-opacity="0.0" d="m667.4286 25.618868l106.2677 0l0 22.173231l-106.2677 0z" fill-rule="evenodd"/><path fill="#000000" d="m700.22455 30.576368l0 1.5781231l-2.5625 0l0 6.984375l-1.890625 0l0 -6.984375l-2.5625 0l0 -1.5781231l7.015625 0zm4.4726562 -0.203125q1.453125 0 2.484375 0.828125q1.03125 0.8124981 1.203125 2.249998l-1.8125 0q-0.125 -0.671875 -0.671875 -1.078125q-0.546875 -0.4218731 -1.203125 -0.4218731q-1.109375 0 -1.71875 0.8124981q-0.609375 0.796875 -0.609375 2.125q0 1.265625 0.59375 2.0625q0.609375 0.796875 1.734375 0.796875q0.8125 0 1.3125 -0.5q0.515625 -0.5 0.625 -1.40625l1.828125 0q-0.15625 1.625 -1.1875 2.5625q-1.015625 0.9375 -2.578125 0.9375q-1.234375 0 -2.203125 -0.5625q-0.96875 -0.5625 -1.5 -1.59375q-0.515625 -1.03125 -0.515625 -2.296875q0 -1.96875 1.15625 -3.234373q1.15625 -1.28125 3.0625 -1.28125zm8.972656 0.203125q1.34375 0 2.125 0.75q0.78125 0.7499981 0.78125 1.9999981q0 1.234375 -0.78125 1.984375q-0.78125 0.75 -2.125 0.75l-2.03125 0l0 3.078125l-1.890625 0l0 -8.562498l3.921875 0zm-0.515625 4.031248q0.8125 0 1.203125 -0.296875q0.390625 -0.3125 0.390625 -0.984375q0 -0.65625 -0.390625 -0.96875q-0.375 -0.328125 -1.203125 -0.328125l-1.515625 0l0 2.578125l1.515625 0zm8.347656 -4.234373l-3.34375 8.968748l-1.375 0l3.359375 -8.968748l1.359375 0zm3.234375 0.203125q1.296875 0 2.046875 0.703125q0.75 0.703125 0.75 1.5468731q0 0.609375 -0.3125 1.078125q-0.296875 0.46875 -0.90625 0.6875l0 0.015625q0.78125 0.1875 1.171875 0.734375q0.390625 0.546875 0.390625 1.328125q0 1.203125 -0.90625 1.921875q-0.90625 0.71875 -2.234375 0.71875q-1.390625 0 -2.296875 -0.703125q-0.890625 -0.703125 -0.890625 -1.9375q0 -0.796875 0.40625 -1.328125q0.421875 -0.546875 1.171875 -0.734375l0 -0.015625q-0.59375 -0.171875 -0.921875 -0.625q-0.3125 -0.46875 -0.3125 -1.109375q0 -1.0156231 0.828125 -1.6406231q0.84375 -0.640625 2.015625 -0.640625zm-1.296875 2.437498q0 0.484375 0.359375 0.796875q0.359375 0.3125 0.921875 0.3125q0.578125 0 0.921875 -0.296875q0.34375 -0.296875 0.34375 -0.8125q0 -0.515625 -0.328125 -0.828125q-0.3125 -0.3281231 -0.9375 -0.3281231q-0.578125 0 -0.9375 0.3281231q-0.34375 0.328125 -0.34375 0.828125zm-0.1875 3.578125q0 0.609375 0.421875 1.03125q0.4375 0.40625 1.0625 0.40625q0.625 0 1.03125 -0.40625q0.40625 -0.40625 0.40625 -1.015625q0 -0.578125 -0.421875 -0.953125q-0.40625 -0.390625 -1.03125 -0.390625q-0.609375 0 -1.046875 0.359375q-0.421875 0.34375 -0.421875 0.96875zm8.111328 -6.015623q1.140625 0 1.984375 0.65625q0.84375 0.65625 0.84375 1.6718731q0 0.609375 -0.3125 1.078125q-0.296875 0.453125 -0.875 0.625l0 0.03125q0.703125 0.15625 1.09375 0.6875q0.40625 0.515625 0.40625 1.21875q0 1.234375 -0.90625 2.0q-0.90625 0.765625 -2.21875 0.765625q-1.421875 0 -2.28125 -0.796875q-0.84375 -0.8125 -0.84375 -2.171875l0 -0.09375l1.625 0q0.03125 0.78125 0.421875 1.21875q0.390625 0.4375 1.046875 0.4375q0.609375 0 0.984375 -0.375q0.390625 -0.390625 0.390625 -0.953125q0 -0.625 -0.375 -0.921875q-0.375 -0.3125 -1.390625 -0.3125l-0.1875 0l0 -1.203125l0.296875 0q0.71875 0 1.109375 -0.265625q0.390625 -0.28125 0.390625 -0.78125q0 -0.5 -0.34375 -0.8125q-0.328125 -0.3124981 -0.84375 -0.3124981q-0.578125 0 -0.9375 0.3906231q-0.34375 0.375 -0.359375 1.109375l-1.625 0q0.046875 -1.3125 0.84375 -2.093748q0.796875 -0.796875 2.0625 -0.796875zm6.689453 0q1.5 0 2.296875 1.09375q0.796875 1.0937481 0.796875 3.234373q0 2.15625 -0.796875 3.28125q-0.78125 1.125 -2.296875 1.125q-1.5 0 -2.296875 -1.109375q-0.78125 -1.125 -0.78125 -3.296875q0 -2.125 0.78125 -3.218748q0.78125 -1.109375 2.296875 -1.109375zm-1.375 4.343748q0 1.296875 0.171875 1.890625q0.1875 0.578125 0.484375 0.84375q0.296875 0.25 0.71875 0.25q0.671875 0 1.03125 -0.65625q0.359375 -0.671875 0.359375 -2.34375q0 -1.609375 -0.359375 -2.265625q-0.359375 -0.6718731 -1.046875 -0.6718731q-0.640625 0 -1.0 0.6406231q-0.359375 0.640625 -0.359375 2.3125zm8.048828 -4.343748q1.5 0 2.296875 1.09375q0.796875 1.0937481 0.796875 3.234373q0 2.15625 -0.796875 3.28125q-0.78125 1.125 -2.296875 1.125q-1.5 0 -2.296875 -1.109375q-0.78125 -1.125 -0.78125 -3.296875q0 -2.125 0.78125 -3.218748q0.78125 -1.109375 2.296875 -1.109375zm-1.375 4.343748q0 1.296875 0.171875 1.890625q0.1875 0.578125 0.484375 0.84375q0.296875 0.25 0.71875 0.25q0.671875 0 1.03125 -0.65625q0.359375 -0.671875 0.359375 -2.34375q0 -1.609375 -0.359375 -2.265625q-0.359375 -0.6718731 -1.046875 -0.6718731q-0.640625 0 -1.0 0.6406231q-0.359375 0.640625 -0.359375 2.3125z" fill-rule="nonzero"/><path fill="#ffffff" d="m538.5861 91.61956l0 0c0 -1.388092 1.1252441 -2.5133667 2.5133667 -2.5133667l85.44714 0c0.66656494 0 1.3058472 0.26480103 1.7772217 0.73615265c0.47131348 0.471344 0.736145 1.1106262 0.736145 1.777214l0 90.248116c0 1.388092 -1.1253052 2.5133514 -2.5133667 2.5133514l-85.44714 0c-1.3881226 0 -2.5133667 -1.1252594 -2.5133667 -2.5133514z" fill-rule="evenodd"/><path stroke="#e03875" stroke-width="1.0" stroke-miterlimit="400.0" stroke-linecap="butt" d="m538.5861 91.61956l0 0c0 -1.388092 1.1252441 -2.5133667 2.5133667 -2.5133667l85.44714 0c0.66656494 0 1.3058472 0.26480103 1.7772217 0.73615265c0.47131348 0.471344 0.736145 1.1106262 0.736145 1.777214l0 90.248116c0 1.388092 -1.1253052 2.5133514 -2.5133667 2.5133514l-85.44714 0c-1.3881226 0 -2.5133667 -1.1252594 -2.5133667 -2.5133514z" fill-rule="evenodd"/><path fill="#e03875" d="m605.90186 165.09926l0 0c0 -3.8472595 2.96167 -6.966095 6.6151123 -6.966095l0 0c1.7543945 0 3.4369507 0.7339325 4.6775513 2.040329c1.2405396 1.3063965 1.9375 3.078247 1.9375 4.925766l0 0c0 3.8472748 -2.96167 6.96611 -6.6150513 6.96611l0 0c-3.6534424 0 -6.6151123 -3.1188354 -6.6151123 -6.96611z" fill-rule="evenodd"/><path fill="#000000" fill-opacity="0.0" d="m530.9235 186.83476l106.24463 0l0 37.188477l-106.24463 0z" fill-rule="evenodd"/><path fill="#000000" d="m550.4003 191.58913q1.453125 0 2.484375 0.828125q1.03125 0.8125 1.203125 2.25l-1.8125 0q-0.125 -0.671875 -0.671875 -1.078125q-0.546875 -0.421875 -1.203125 -0.421875q-1.109375 0 -1.71875 0.8125q-0.609375 0.796875 -0.609375 2.125q0 1.265625 0.59375 2.0625q0.609375 0.796875 1.734375 0.796875q0.8125 0 1.3125 -0.5q0.515625 -0.5 0.625 -1.40625l1.828125 0q-0.15625 1.625 -1.1875 2.5625q-1.015625 0.9375 -2.578125 0.9375q-1.234375 0 -2.203125 -0.5625q-0.96875 -0.5625 -1.5 -1.59375q-0.515625 -1.03125 -0.515625 -2.296875q0 -1.96875 1.15625 -3.234375q1.15625 -1.28125 3.0625 -1.28125zm7.8789062 2.390625q1.46875 0 2.34375 0.90625q0.875 0.890625 0.875 2.375q0 1.484375 -0.890625 2.375q-0.875 0.890625 -2.328125 0.890625q-1.4375 0 -2.328125 -0.890625q-0.875 -0.90625 -0.875 -2.375q0 -1.46875 0.859375 -2.375q0.875 -0.90625 2.34375 -0.90625zm-1.5 3.28125q0 0.984375 0.40625 1.484375q0.40625 0.5 1.09375 0.5q0.734375 0 1.125 -0.515625q0.390625 -0.53125 0.390625 -1.46875q0 -0.921875 -0.390625 -1.453125q-0.375 -0.546875 -1.125 -0.546875q-0.6875 0 -1.09375 0.5q-0.40625 0.5 -0.40625 1.5zm9.376953 -3.28125q1.1875 0 1.71875 0.609375q0.546875 0.59375 0.546875 1.890625l0 3.875l-1.703125 0l0 -3.5625q0 -0.71875 -0.25 -1.09375q-0.25 -0.375 -0.84375 -0.375q-0.703125 0 -1.015625 0.421875q-0.3125 0.421875 -0.3125 1.296875l0 3.3125l-1.6875 0l0 -6.203125l1.609375 0l0 0.859375l0.03125 0q0.3125 -0.5 0.8125 -0.765625q0.5 -0.265625 1.09375 -0.265625zm6.0976562 0q1.265625 0 1.953125 0.5q0.703125 0.5 0.796875 1.484375l-1.625 0q-0.046875 -0.4375 -0.34375 -0.640625q-0.28125 -0.203125 -0.828125 -0.203125q-0.484375 0 -0.71875 0.15625q-0.21875 0.140625 -0.21875 0.421875q0 0.28125 0.296875 0.46875q0.296875 0.1875 1.1875 0.359375q1.421875 0.265625 1.90625 0.703125q0.5 0.4375 0.5 1.140625q0 1.046875 -0.78125 1.609375q-0.765625 0.546875 -2.046875 0.546875q-1.296875 0 -2.078125 -0.546875q-0.78125 -0.546875 -0.84375 -1.640625l1.625 0q0 0.484375 0.375 0.765625q0.375 0.28125 0.9375 0.28125q0.5 0 0.796875 -0.21875q0.3125 -0.21875 0.3125 -0.578125q0 -0.328125 -0.40625 -0.53125q-0.390625 -0.203125 -1.46875 -0.421875q-1.078125 -0.21875 -1.546875 -0.609375q-0.46875 -0.390625 -0.46875 -1.0625q0 -0.984375 0.6875 -1.484375q0.703125 -0.5 2.0 -0.5zm5.6015625 0.171875l0 3.546875q0 0.703125 0.25 1.09375q0.25 0.390625 0.859375 0.390625q0.703125 0 1.0 -0.421875q0.3125 -0.4375 0.3125 -1.296875l0 -3.3125l1.703125 0l0 6.203125l-1.625 0l0 -0.859375l-0.03125 0q-0.328125 0.515625 -0.84375 0.78125q-0.5 0.25 -1.0625 0.25q-1.15625 0 -1.703125 -0.59375q-0.546875 -0.59375 -0.546875 -1.90625l0 -3.875l1.6875 0zm7.1757812 -2.359375l0 8.5625l-1.703125 0l0 -8.5625l1.703125 0zm8.693359 -0.203125q1.453125 0 2.484375 0.828125q1.03125 0.8125 1.203125 2.25l-1.8125 0q-0.125 -0.671875 -0.671875 -1.078125q-0.546875 -0.421875 -1.203125 -0.421875q-1.109375 0 -1.71875 0.8125q-0.609375 0.796875 -0.609375 2.125q0 1.265625 0.59375 2.0625q0.609375 0.796875 1.734375 0.796875q0.8125 0 1.3125 -0.5q0.515625 -0.5 0.625 -1.40625l1.828125 0q-0.15625 1.625 -1.1875 2.5625q-1.015625 0.9375 -2.578125 0.9375q-1.234375 0 -2.203125 -0.5625q-0.96875 -0.5625 -1.5 -1.59375q-0.515625 -1.03125 -0.515625 -2.296875q0 -1.96875 1.15625 -3.234375q1.15625 -1.28125 3.0625 -1.28125zm6.6289062 0.203125l0 8.5625l-1.703125 0l0 -8.5625l1.703125 0zm3.09375 0l0 1.390625l-1.703125 0l0 -1.390625l1.703125 0zm0 2.359375l0 6.203125l-1.703125 0l0 -6.203125l1.703125 0zm4.203125 -0.171875q1.375 0 2.203125 0.953125q0.828125 0.9375 0.828125 2.421875l-0.015625 0.3125l-4.484375 0q0.046875 0.796875 0.421875 1.1875q0.390625 0.390625 1.09375 0.390625q0.46875 0 0.859375 -0.234375q0.390625 -0.25 0.5 -0.578125l1.5 0q-0.34375 1.046875 -1.0625 1.578125q-0.71875 0.515625 -1.84375 0.515625q-1.4375 0 -2.3125 -0.90625q-0.859375 -0.90625 -0.859375 -2.359375q0 -1.390625 0.890625 -2.328125q0.890625 -0.953125 2.28125 -0.953125zm-1.46875 2.609375l2.78125 0q-0.125 -0.6875 -0.453125 -1.0q-0.3125 -0.328125 -0.921875 -0.328125q-0.609375 0 -0.984375 0.359375q-0.359375 0.34375 -0.421875 0.96875zm9.046875 -2.609375q1.1875 0 1.71875 0.609375q0.546875 0.59375 0.546875 1.890625l0 3.875l-1.703125 0l0 -3.5625q0 -0.71875 -0.25 -1.09375q-0.25 -0.375 -0.84375 -0.375q-0.703125 0 -1.015625 0.421875q-0.3125 0.421875 -0.3125 1.296875l0 3.3125l-1.6875 0l0 -6.203125l1.609375 0l0 0.859375l0.03125 0q0.3125 -0.5 0.8125 -0.765625q0.5 -0.265625 1.09375 -0.265625zm5.7226562 -1.6875l0 1.859375l1.25 0l0 1.140625l-1.25 0l0 3.109375q0 0.375 0.140625 0.53125q0.140625 0.15625 0.578125 0.15625q0.140625 0 0.265625 -0.015625q0.140625 -0.015625 0.265625 -0.03125l0 1.328125q-0.21875 0.03125 -0.484375 0.046875q-0.25 0.015625 -0.5 0.015625q-1.109375 0 -1.546875 -0.375q-0.421875 -0.390625 -0.421875 -1.0625l0 -3.703125l-1.03125 0l0 -1.140625l1.03125 0l0 -1.859375l1.703125 0z" fill-rule="nonzero"/><path fill="#000000" fill-opacity="0.0" d="m584.0398 394.40118l-224.91336 0.12597656" fill-rule="evenodd"/><path stroke="#e03875" stroke-width="2.0" stroke-linejoin="round" stroke-linecap="round" d="m584.0398 394.40115l-215.91336 0.12094116" fill-rule="evenodd"/><path fill="#e03875" stroke="#e03875" stroke-width="2.0" stroke-linecap="butt" d="m368.12518 392.31055l-6.074951 2.2149658l6.0774536 2.2081604z" fill-rule="evenodd"/><path fill="#000000" fill-opacity="0.0" d="m278.60754 309.50235l391.71655 0.1574707" fill-rule="evenodd"/><path stroke="#e03875" stroke-width="2.0" stroke-linejoin="round" stroke-linecap="round" d="m287.60754 309.50595l382.7165 0.15386963" fill-rule="evenodd"/><path fill="#e03875" stroke="#e03875" stroke-width="2.0" stroke-linecap="butt" d="m287.60843 307.2944l-6.0770874 2.2091064l6.0753174 2.2139893z" fill-rule="evenodd"/><path fill="#000000" fill-opacity="0.0" d="m360.9652 224.06842l223.08661 -0.03149414" fill-rule="evenodd"/><path stroke="#e03875" stroke-width="2.0" stroke-linejoin="round" stroke-linecap="round" d="m369.9652 224.06715l214.08661 -0.030227661" fill-rule="evenodd"/><path fill="#e03875" stroke="#e03875" stroke-width="2.0" stroke-linecap="butt" d="m369.9649 221.8556l-6.0758667 2.2124023l6.0765076 2.2107086z" fill-rule="evenodd"/><path fill="#000000" fill-opacity="0.0" d="m278.60754 309.50235l305.4173 84.91336" fill-rule="evenodd"/><path stroke="#e03875" stroke-width="2.0" stroke-linejoin="round" stroke-linecap="round" d="m287.27866 311.91312l296.7462 82.502594" fill-rule="evenodd"/><path fill="#e03875" stroke="#e03875" stroke-width="2.0" stroke-linecap="butt" d="m287.87106 309.78238l-6.4465637 0.5031433l5.2617493 3.7583313z" fill-rule="evenodd"/><path fill="#000000" fill-opacity="0.0" d="m360.9652 224.06842l223.08661 170.33072" fill-rule="evenodd"/><path stroke="#e03875" stroke-width="2.0" stroke-linejoin="round" stroke-linecap="round" d="m368.11856 229.53012l215.93326 164.86899" fill-rule="evenodd"/><path fill="#e03875" stroke="#e03875" stroke-width="2.0" stroke-linecap="butt" d="m369.46063 227.77234l-6.1715393 -1.929596l3.4873657 5.4451447z" fill-rule="evenodd"/><path fill="#000000" fill-opacity="0.0" d="m360.9652 224.06842l309.38586 85.5748" fill-rule="evenodd"/><path stroke="#e03875" stroke-width="2.0" stroke-linejoin="round" stroke-linecap="round" d="m369.63953 226.4677l300.71155 83.17552" fill-rule="evenodd"/><path fill="#e03875" stroke="#e03875" stroke-width="2.0" stroke-linecap="butt" d="m370.2291 224.33618l-6.4458923 0.51168823l5.266754 3.751358z" fill-rule="evenodd"/><path fill="#000000" fill-opacity="0.0" d="m359.1308 394.5418l311.2126 -84.88187" fill-rule="evenodd"/><path stroke="#e03875" stroke-width="2.0" stroke-linejoin="round" stroke-linecap="round" d="m367.81366 392.17365l302.5298 -82.5137" fill-rule="evenodd"/><path fill="#e03875" stroke="#e03875" stroke-width="2.0" stroke-linecap="butt" d="m367.23172 390.04l-5.280121 3.732483l6.4440002 0.5347595z" fill-rule="evenodd"/><path fill="#000000" fill-opacity="0.0" d="m306.00848 397.45764l0 0c0 -1.6103516 1.305481 -2.9158325 2.9158325 -2.9158325l100.412994 0c0.7733154 0 1.5149536 0.30722046 2.061798 0.8540344c0.54681396 0.54681396 0.8540039 1.2884827 0.8540039 2.061798l0 99.129395c0 1.6103516 -1.3054504 2.9158325 -2.915802 2.9158325l-100.412994 0c-1.6103516 0 -2.9158325 -1.305481 -2.9158325 -2.9158325z" fill-rule="evenodd"/><path fill="#dc477d" d="m313.89462 408.23346l0 0c0 -1.3881226 1.1252747 -2.5133972 2.5133972 -2.5133972l85.448 0c0.66659546 0 1.3058777 0.26480103 1.7772522 0.736145c0.471344 0.4713745 0.736145 1.1106567 0.736145 1.7772522l0 85.448c0 1.3881226 -1.1252747 2.5133972 -2.5133972 2.5133972l-85.448 0c-1.3881226 0 -2.5133972 -1.1252747 -2.5133972 -2.5133972z" fill-rule="evenodd"/><path fill="#ffffff" d="m359.309 476.23978c-13.93689 0.01159668 -25.244263 -11.312958 -25.255615 -25.29361c-0.011383057 -13.980743 11.277527 -25.323517 25.214417 -25.33493c6.3397827 -0.0051574707 12.449249 2.383606 17.113281 6.6913147l0 0l-5.988617 6.2846375l0 0c-6.7954407 -6.160034 -17.282257 -5.6275635 -23.423035 1.1892395c-6.140747 6.8167725 -5.6099854 17.336609 1.1854858 23.496643c6.3144226 5.723999 15.923126 5.723999 22.237549 0l0 0l5.988617 6.2846375l0 0c-4.65036 4.302246 -10.746155 6.6881104 -17.072083 6.682068z" fill-rule="evenodd"/><path fill="#ffffff" d="m379.61496 463.57803c-1.142334 0 -2.0683594 -0.92892456 -2.0683594 -2.074829c0 -1.1459656 0.9260254 -2.0748901 2.0683594 -2.0748901c1.142456 0 2.06839 0.92892456 2.06839 2.0748901c-0.0027770996 1.144867 -0.9273071 2.0722961 -2.06839 2.074829z" fill-rule="evenodd"/><path fill="#ffffff" d="m359.14774 456.41077c-3.017334 0 -5.46344 -2.4537659 -5.46344 -5.4806213c0 -3.0268555 2.446106 -5.4806213 5.46344 -5.4806213c3.017395 0 5.46344 2.4537659 5.46344 5.4806213c-0.002532959 3.0257874 -2.4470825 5.478058 -5.46344 5.4806213z" fill-rule="evenodd"/><path fill="#ffffff" d="m381.9828 456.48932c-1.142456 0 -2.06839 -0.92892456 -2.06839 -2.0748596c0 -1.1459656 0.92593384 -2.0748901 2.06839 -2.0748901c1.1424255 0 2.0683594 0.92892456 2.0683594 2.0748901c-0.0027770996 1.144867 -0.9273071 2.0723267 -2.0683594 2.0748596z" fill-rule="evenodd"/><path fill="#ffffff" d="m375.8375 456.25363c-1.142334 0 -2.0683594 -0.92889404 -2.0683594 -2.074829c0 -1.1459656 0.9260254 -2.0748901 2.0683594 -2.0748901c1.142334 0 2.06839 0.92892456 2.06839 2.0748901c0 1.145935 -0.9260559 2.074829 -2.06839 2.074829z" fill-rule="evenodd"/><path fill="#ffffff" d="m381.9828 449.51608c-1.142456 0 -2.06839 -0.92892456 -2.06839 -2.074829c0 -1.1459961 0.92593384 -2.0748901 2.06839 -2.0748901c1.1424255 0 2.0683594 0.92889404 2.0683594 2.0748901c-0.0027770996 1.1448364 -0.9273071 2.0722961 -2.0683594 2.074829z" fill-rule="evenodd"/><path fill="#ffffff" d="m375.8375 449.75177c-1.142334 0 -2.0683594 -0.9289551 -2.0683594 -2.074829c0 -1.1459656 0.9260864 -2.0748901 2.0683594 -2.0748901c1.142334 0 2.06839 0.9289856 2.06839 2.0748901c0 0.0015258789 0 0.0030822754 0 0.0046081543c-0.002532959 1.1441345 -0.9278259 2.070221 -2.06839 2.070221z" fill-rule="evenodd"/><path fill="#ffffff" d="m379.7347 442.53827c-1.1423035 0.0025634766 -2.070465 -0.9243164 -2.0729675 -2.0702515c-0.002532959 -1.145874 0.92141724 -2.0769348 2.0637512 -2.0794678c1.1424255 -0.002532959 2.0701904 0.9243469 2.0729675 2.070221c0 0.0015258789 0 0.0031433105 0 0.0046691895c0 1.144104 -0.92315674 2.0722961 -2.0637512 2.074829z" fill-rule="evenodd"/><path fill="#000000" fill-opacity="0.0" d="m306.0099 498.00607l106.24463 0l0 41.771698l-106.24463 0z" fill-rule="evenodd"/><path fill="#000000" d="m323.4945 502.76044q1.453125 0 2.484375 0.828125q1.03125 0.8125 1.203125 2.25l-1.8125 0q-0.125 -0.671875 -0.671875 -1.078125q-0.546875 -0.421875 -1.203125 -0.421875q-1.109375 0 -1.71875 0.8125q-0.609375 0.796875 -0.609375 2.125q0 1.265625 0.59375 2.0625q0.609375 0.796875 1.734375 0.796875q0.8125 0 1.3125 -0.5q0.515625 -0.5 0.625 -1.40625l1.828125 0q-0.15625 1.625 -1.1875 2.5625q-1.015625 0.9375 -2.578125 0.9375q-1.234375 0 -2.203125 -0.5625q-0.96875 -0.5625 -1.5 -1.59375q-0.515625 -1.03125 -0.515625 -2.296875q0 -1.96875 1.15625 -3.234375q1.15625 -1.28125 3.0625 -1.28125zm7.8789062 2.390625q1.46875 0 2.34375 0.90625q0.875 0.890625 0.875 2.375q0 1.484375 -0.890625 2.375q-0.875 0.890625 -2.328125 0.890625q-1.4375 0 -2.328125 -0.890625q-0.875 -0.90625 -0.875 -2.375q0 -1.46875 0.859375 -2.375q0.875 -0.90625 2.34375 -0.90625zm-1.5 3.28125q0 0.984375 0.40625 1.484375q0.40625 0.5 1.09375 0.5q0.734375 0 1.125 -0.515625q0.390625 -0.53125 0.390625 -1.46875q0 -0.921875 -0.390625 -1.453125q-0.375 -0.546875 -1.125 -0.546875q-0.6875 0 -1.09375 0.5q-0.40625 0.5 -0.40625 1.5zm9.376953 -3.28125q1.1875 0 1.71875 0.609375q0.546875 0.59375 0.546875 1.890625l0 3.875l-1.703125 0l0 -3.5625q0 -0.71875 -0.25 -1.09375q-0.25 -0.375 -0.84375 -0.375q-0.703125 0 -1.015625 0.421875q-0.3125 0.421875 -0.3125 1.296875l0 3.3125l-1.6875 0l0 -6.203125l1.609375 0l0 0.859375l0.03125 0q0.3125 -0.5 0.8125 -0.765625q0.5 -0.265625 1.09375 -0.265625zm6.0976562 0q1.265625 0 1.953125 0.5q0.703125 0.5 0.796875 1.484375l-1.625 0q-0.046875 -0.4375 -0.34375 -0.640625q-0.28125 -0.203125 -0.828125 -0.203125q-0.484375 0 -0.71875 0.15625q-0.21875 0.140625 -0.21875 0.421875q0 0.28125 0.296875 0.46875q0.296875 0.1875 1.1875 0.359375q1.421875 0.265625 1.90625 0.703125q0.5 0.4375 0.5 1.140625q0 1.046875 -0.78125 1.609375q-0.765625 0.546875 -2.046875 0.546875q-1.296875 0 -2.078125 -0.546875q-0.78125 -0.546875 -0.84375 -1.640625l1.625 0q0 0.484375 0.375 0.765625q0.375 0.28125 0.9375 0.28125q0.5 0 0.796875 -0.21875q0.3125 -0.21875 0.3125 -0.578125q0 -0.328125 -0.40625 -0.53125q-0.390625 -0.203125 -1.46875 -0.421875q-1.078125 -0.21875 -1.546875 -0.609375q-0.46875 -0.390625 -0.46875 -1.0625q0 -0.984375 0.6875 -1.484375q0.703125 -0.5 2.0 -0.5zm5.6015625 0.171875l0 3.546875q0 0.703125 0.25 1.09375q0.25 0.390625 0.859375 0.390625q0.703125 0 1.0 -0.421875q0.3125 -0.4375 0.3125 -1.296875l0 -3.3125l1.703125 0l0 6.203125l-1.625 0l0 -0.859375l-0.03125 0q-0.328125 0.515625 -0.84375 0.78125q-0.5 0.25 -1.0625 0.25q-1.15625 0 -1.703125 -0.59375q-0.546875 -0.59375 -0.546875 -1.90625l0 -3.875l1.6875 0zm7.1757812 -2.359375l0 8.5625l-1.703125 0l0 -8.5625l1.703125 0zm7.8027344 -0.203125q1.546875 0 2.484375 0.71875q0.9375 0.71875 0.9375 2.03125l-1.8125 0q-0.046875 -0.640625 -0.453125 -0.96875q-0.390625 -0.328125 -1.234375 -0.328125q-0.578125 0 -0.953125 0.265625q-0.359375 0.25 -0.359375 0.71875q0 0.3125 0.15625 0.46875q0.15625 0.15625 0.625 0.34375q0.46875 0.171875 2.0625 0.546875q1.0625 0.25 1.65625 0.875q0.609375 0.609375 0.609375 1.546875q0 1.25 -0.9375 2.0q-0.9375 0.75 -2.625 0.75q-1.609375 0 -2.640625 -0.796875q-1.015625 -0.796875 -1.015625 -2.203125l0 -0.046875l1.828125 0q0 0.796875 0.515625 1.1875q0.53125 0.390625 1.375 0.390625q0.765625 0 1.21875 -0.265625q0.453125 -0.28125 0.453125 -0.796875q0 -0.421875 -0.359375 -0.6875q-0.34375 -0.265625 -1.109375 -0.453125q-0.984375 -0.21875 -1.78125 -0.46875q-0.796875 -0.25 -1.328125 -0.8125q-0.53125 -0.5625 -0.53125 -1.4375q0 -1.15625 0.921875 -1.859375q0.9375 -0.71875 2.296875 -0.71875zm7.5214844 2.390625q1.375 0 2.203125 0.953125q0.828125 0.9375 0.828125 2.421875l-0.015625 0.3125l-4.484375 0q0.046875 0.796875 0.421875 1.1875q0.390625 0.390625 1.09375 0.390625q0.46875 0 0.859375 -0.234375q0.390625 -0.25 0.5 -0.578125l1.5 0q-0.34375 1.046875 -1.0625 1.578125q-0.71875 0.515625 -1.84375 0.515625q-1.4375 0 -2.3125 -0.90625q-0.859375 -0.90625 -0.859375 -2.359375q0 -1.390625 0.890625 -2.328125q0.890625 -0.953125 2.28125 -0.953125zm-1.46875 2.609375l2.78125 0q-0.125 -0.6875 -0.453125 -1.0q-0.3125 -0.328125 -0.921875 -0.328125q-0.609375 0 -0.984375 0.359375q-0.359375 0.34375 -0.421875 0.96875zm9.109375 -2.609375q0.109375 0 0.203125 0.015625q0.09375 0.015625 0.171875 0.046875l0 1.578125q-0.140625 -0.03125 -0.28125 -0.03125q-0.140625 -0.015625 -0.328125 -0.015625q-0.859375 0 -1.28125 0.53125q-0.40625 0.515625 -0.40625 1.40625l0 2.84375l-1.6875 0l0 -6.203125l1.609375 0l0 1.15625l0.03125 0q0.265625 -0.609375 0.796875 -0.96875q0.546875 -0.359375 1.171875 -0.359375zm2.3945312 0.171875l1.3125 4.234375l0.03125 0l1.296875 -4.234375l1.703125 0l-2.109375 6.203125l-1.890625 0l-2.125 -6.203125l1.78125 0zm7.9121094 -0.171875q1.375 0 2.203125 0.953125q0.828125 0.9375 0.828125 2.421875l-0.015625 0.3125l-4.484375 0q0.046875 0.796875 0.421875 1.1875q0.390625 0.390625 1.09375 0.390625q0.46875 0 0.859375 -0.234375q0.390625 -0.25 0.5 -0.578125l1.5 0q-0.34375 1.046875 -1.0625 1.578125q-0.71875 0.515625 -1.84375 0.515625q-1.4375 0 -2.3125 -0.90625q-0.859375 -0.90625 -0.859375 -2.359375q0 -1.390625 0.890625 -2.328125q0.890625 -0.953125 2.28125 -0.953125zm-1.46875 2.609375l2.78125 0q-0.125 -0.6875 -0.453125 -1.0q-0.3125 -0.328125 -0.921875 -0.328125q-0.609375 0 -0.984375 0.359375q-0.359375 0.34375 -0.421875 0.96875zm9.109375 -2.609375q0.109375 0 0.203125 0.015625q0.09375 0.015625 0.171875 0.046875l0 1.578125q-0.140625 -0.03125 -0.28125 -0.03125q-0.140625 -0.015625 -0.328125 -0.015625q-0.859375 0 -1.28125 0.53125q-0.40625 0.515625 -0.40625 1.40625l0 2.84375l-1.6875 0l0 -6.203125l1.609375 0l0 1.15625l0.03125 0q0.265625 -0.609375 0.796875 -0.96875q0.546875 -0.359375 1.171875 -0.359375z" fill-rule="nonzero"/><path fill="#000000" d="m334.82947 516.76044q-0.640625 1.1875 -0.984375 2.578125q-0.328125 1.390625 -0.328125 2.859375q0 1.46875 0.3125 2.84375q0.3125 1.359375 0.984375 2.671875l-1.421875 0q-0.765625 -1.28125 -1.171875 -2.671875q-0.40625 -1.390625 -0.40625 -2.734375q0 -1.390625 0.40625 -2.90625q0.40625 -1.515625 1.171875 -2.640625l1.4375 0zm6.7539062 0.203125l0 1.578125l-4.125 0l0 1.984375l3.578125 0l0 1.453125l-3.578125 0l0 3.546875l-1.890625 0l0 -8.5625l6.015625 0zm3.421875 2.1875q1.46875 0 2.34375 0.90625q0.875 0.890625 0.875 2.375q0 1.484375 -0.890625 2.375q-0.875 0.890625 -2.328125 0.890625q-1.4375 0 -2.328125 -0.890625q-0.875 -0.90625 -0.875 -2.375q0 -1.46875 0.859375 -2.375q0.875 -0.90625 2.34375 -0.90625zm-1.5 3.28125q0 0.984375 0.40625 1.484375q0.40625 0.5 1.09375 0.5q0.734375 0 1.125 -0.515625q0.390625 -0.53125 0.390625 -1.46875q0 -0.921875 -0.390625 -1.453125q-0.375 -0.546875 -1.125 -0.546875q-0.6875 0 -1.09375 0.5q-0.40625 0.5 -0.40625 1.5zm7.580078 -5.46875l0 8.5625l-1.703125 0l0 -8.5625l1.703125 0zm3.09375 0l0 8.5625l-1.703125 0l0 -8.5625l1.703125 0zm4.34375 2.1875q1.46875 0 2.34375 0.90625q0.875 0.890625 0.875 2.375q0 1.484375 -0.890625 2.375q-0.875 0.890625 -2.328125 0.890625q-1.4375 0 -2.328125 -0.890625q-0.875 -0.90625 -0.875 -2.375q0 -1.46875 0.859375 -2.375q0.875 -0.90625 2.34375 -0.90625zm-1.5 3.28125q0 0.984375 0.40625 1.484375q0.40625 0.5 1.09375 0.5q0.734375 0 1.125 -0.515625q0.390625 -0.53125 0.390625 -1.46875q0 -0.921875 -0.390625 -1.453125q-0.375 -0.546875 -1.125 -0.546875q-0.6875 0 -1.09375 0.5q-0.40625 0.5 -0.40625 1.5zm7.048828 -3.109375l1.140625 4.203125l0.015625 0l1.03125 -4.203125l1.65625 0l1.0625 4.203125l0.015625 0l1.15625 -4.203125l1.75 0l-1.96875 6.203125l-1.75 0l-1.09375 -4.171875l-0.03125 0l-1.0625 4.171875l-1.75 0l-1.96875 -6.203125l1.796875 0zm11.408203 -0.171875q1.375 0 2.203125 0.953125q0.828125 0.9375 0.828125 2.421875l-0.015625 0.3125l-4.484375 0q0.046875 0.796875 0.421875 1.1875q0.390625 0.390625 1.09375 0.390625q0.46875 0 0.859375 -0.234375q0.390625 -0.25 0.5 -0.578125l1.5 0q-0.34375 1.046875 -1.0625 1.578125q-0.71875 0.515625 -1.84375 0.515625q-1.4375 0 -2.3125 -0.90625q-0.859375 -0.90625 -0.859375 -2.359375q0 -1.390625 0.890625 -2.328125q0.890625 -0.953125 2.28125 -0.953125zm-1.46875 2.609375l2.78125 0q-0.125 -0.6875 -0.453125 -1.0q-0.3125 -0.328125 -0.921875 -0.328125q-0.609375 0 -0.984375 0.359375q-0.359375 0.34375 -0.421875 0.96875zm9.109375 -2.609375q0.109375 0 0.203125 0.015625q0.09375 0.015625 0.171875 0.046875l0 1.578125q-0.140625 -0.03125 -0.28125 -0.03125q-0.140625 -0.015625 -0.328125 -0.015625q-0.859375 0 -1.28125 0.53125q-0.40625 0.515625 -0.40625 1.40625l0 2.84375l-1.6875 0l0 -6.203125l1.609375 0l0 1.15625l0.03125 0q0.265625 -0.609375 0.796875 -0.96875q0.546875 -0.359375 1.171875 -0.359375zm1.7480469 -2.390625q0.78125 1.265625 1.1875 2.65625q0.40625 1.390625 0.40625 2.75q0 1.375 -0.421875 2.90625q-0.40625 1.515625 -1.171875 2.640625l-1.421875 0q0.65625 -1.25 0.96875 -2.609375q0.328125 -1.375 0.328125 -2.8125q0 -1.5 -0.328125 -2.875q-0.3125 -1.390625 -0.96875 -2.65625l1.421875 0z" fill-rule="nonzero"/><path fill="#000000" fill-opacity="0.0" d="m359.1308 394.5418l224.91339 -170.51967" fill-rule="evenodd"/><path stroke="#e03875" stroke-width="2.0" stroke-linejoin="round" stroke-linecap="round" d="m366.30264 389.10446l217.74155 -165.08232" fill-rule="evenodd"/><path fill="#e03875" stroke="#e03875" stroke-width="2.0" stroke-linecap="butt" d="m364.96652 387.34213l-3.5057983 5.4332886l6.1780396 -1.9086304z" fill-rule="evenodd"/><path fill="#000000" fill-opacity="0.0" d="m307.84293 122.0232l0 0c0 -1.6103592 1.3054504 -2.9158173 2.915802 -2.9158173l100.412994 0c0.7733154 0 1.5149536 0.30719757 2.061798 0.8540268c0.54681396 0.5468216 0.8540039 1.2884674 0.8540039 2.0617905l0 99.1294c0 1.6103516 -1.3054504 2.9158173 -2.915802 2.9158173l-100.412994 0c-1.6103516 0 -2.915802 -1.3054657 -2.915802 -2.9158173z" fill-rule="evenodd"/><path fill="#dc477d" d="m312.06177 91.65969l0 0c0 -1.3881073 1.1252747 -2.5133896 2.5133667 -2.5133896l85.44803 0c0.66659546 0 1.3058777 0.26480103 1.7772217 0.73615265c0.4713745 0.47135162 0.73617554 1.1106415 0.73617554 1.7772369l0 85.44802c0 1.3881073 -1.1252747 2.513382 -2.5133972 2.513382l-85.44803 0c-1.388092 0 -2.5133667 -1.1252747 -2.5133667 -2.513382z" fill-rule="evenodd"/><path fill="#ffffff" d="m357.47614 159.66603c-13.93689 0.011566162 -25.244263 -11.312973 -25.255615 -25.293625c-0.011383057 -13.980751 11.277527 -25.323532 25.214417 -25.334953c6.3397827 -0.0051498413 12.449219 2.3836212 17.113281 6.69133l0 0l-5.988617 6.2846527l0 0c-6.7954407 -6.160034 -17.282257 -5.6275787 -23.423035 1.1892319c-6.140747 6.816757 -5.610016 17.336594 1.1854858 23.496628c6.3144226 5.723999 15.923126 5.723999 22.237549 0l0 0l5.988617 6.2846527l0 0c-4.65036 4.302246 -10.746155 6.688095 -17.072083 6.682083z" fill-rule="evenodd"/><path fill="#ffffff" d="m377.7821 147.00427c-1.142334 0 -2.0683594 -0.9289093 -2.0683594 -2.0748444c0 -1.1459656 0.9260254 -2.0748749 2.0683594 -2.0748749c1.1424255 0 2.0683594 0.9289093 2.0683594 2.0748749c-0.0027770996 1.144867 -0.9272766 2.0723114 -2.0683594 2.0748444z" fill-rule="evenodd"/><path fill="#ffffff" d="m357.31488 139.837c-3.0173645 0 -5.46344 -2.4537659 -5.46344 -5.4806213c0 -3.0268555 2.4460754 -5.480606 5.46344 -5.480606c3.017395 0 5.46344 2.4537506 5.46344 5.480606c-0.002532959 3.0257874 -2.447113 5.4780426 -5.46344 5.4806213z" fill-rule="evenodd"/><path fill="#ffffff" d="m380.1499 139.91554c-1.1424255 0 -2.0683594 -0.92892456 -2.0683594 -2.0748444c0 -1.1459656 0.92593384 -2.0748901 2.0683594 -2.0748901c1.142456 0 2.06839 0.92892456 2.06839 2.0748901c-0.0027770996 1.144867 -0.9273071 2.0723114 -2.06839 2.0748444z" fill-rule="evenodd"/><path fill="#ffffff" d="m374.00464 139.67987c-1.142334 0 -2.0683594 -0.9289093 -2.0683594 -2.074829c0 -1.1459808 0.9260254 -2.0748901 2.0683594 -2.0748901c1.142334 0 2.0683594 0.9289093 2.0683594 2.0748901c0 1.1459198 -0.9260254 2.074829 -2.0683594 2.074829z" fill-rule="evenodd"/><path fill="#ffffff" d="m380.1499 132.9423c-1.1424255 0 -2.0683594 -0.9289093 -2.0683594 -2.074829c0 -1.1459808 0.92593384 -2.0748901 2.0683594 -2.0748901c1.142456 0 2.06839 0.9289093 2.06839 2.0748901c-0.0027770996 1.1448517 -0.9273071 2.0723114 -2.06839 2.074829z" fill-rule="evenodd"/><path fill="#ffffff" d="m374.00464 133.17802c-1.142334 0 -2.0683594 -0.92897034 -2.0683594 -2.0748444c0 -1.1459656 0.9260864 -2.0748901 2.0683594 -2.0748901c1.142334 0 2.0683594 0.92897034 2.0683594 2.0748901c0 0.0015106201 0 0.0030822754 0 0.0045928955c-0.0025024414 1.144165 -0.9277954 2.0702515 -2.0683594 2.0702515z" fill-rule="evenodd"/><path fill="#ffffff" d="m377.90182 125.9645c-1.142273 0.0025787354 -2.0704346 -0.9243164 -2.0729675 -2.0702362c-0.0025024414 -1.145874 0.92144775 -2.0769577 2.0637817 -2.0794907c1.1424255 -0.0025253296 2.0701904 0.9243698 2.0729675 2.0702438c0 0.0015106201 0 0.0031280518 0 0.0046463013c0 1.144104 -0.92315674 2.0723114 -2.0637817 2.0748367z" fill-rule="evenodd"/><path fill="#000000" fill-opacity="0.0" d="m304.17703 181.4323l106.24463 0l0 41.771698l-106.24463 0z" fill-rule="evenodd"/><path fill="#000000" d="m321.66165 186.18668q1.453125 0 2.484375 0.828125q1.03125 0.8125 1.203125 2.25l-1.8125 0q-0.125 -0.671875 -0.671875 -1.078125q-0.546875 -0.421875 -1.203125 -0.421875q-1.109375 0 -1.71875 0.8125q-0.609375 0.796875 -0.609375 2.125q0 1.265625 0.59375 2.0625q0.609375 0.796875 1.734375 0.796875q0.8125 0 1.3125 -0.5q0.515625 -0.5 0.625 -1.40625l1.828125 0q-0.15625 1.625 -1.1875 2.5625q-1.015625 0.9375 -2.578125 0.9375q-1.234375 0 -2.203125 -0.5625q-0.96875 -0.5625 -1.5 -1.59375q-0.515625 -1.03125 -0.515625 -2.296875q0 -1.96875 1.15625 -3.234375q1.15625 -1.28125 3.0625 -1.28125zm7.8789062 2.390625q1.46875 0 2.34375 0.90625q0.875 0.890625 0.875 2.375q0 1.484375 -0.890625 2.375q-0.875 0.890625 -2.328125 0.890625q-1.4375 0 -2.328125 -0.890625q-0.875 -0.90625 -0.875 -2.375q0 -1.46875 0.859375 -2.375q0.875 -0.90625 2.34375 -0.90625zm-1.5 3.28125q0 0.984375 0.40625 1.484375q0.40625 0.5 1.09375 0.5q0.734375 0 1.125 -0.515625q0.390625 -0.53125 0.390625 -1.46875q0 -0.921875 -0.390625 -1.453125q-0.375 -0.546875 -1.125 -0.546875q-0.6875 0 -1.09375 0.5q-0.40625 0.5 -0.40625 1.5zm9.376953 -3.28125q1.1875 0 1.71875 0.609375q0.546875 0.59375 0.546875 1.890625l0 3.875l-1.703125 0l0 -3.5625q0 -0.71875 -0.25 -1.09375q-0.25 -0.375 -0.84375 -0.375q-0.703125 0 -1.015625 0.421875q-0.3125 0.421875 -0.3125 1.296875l0 3.3125l-1.6875 0l0 -6.203125l1.609375 0l0 0.859375l0.03125 0q0.3125 -0.5 0.8125 -0.765625q0.5 -0.265625 1.09375 -0.265625zm6.0976562 0q1.265625 0 1.953125 0.5q0.703125 0.5 0.796875 1.484375l-1.625 0q-0.046875 -0.4375 -0.34375 -0.640625q-0.28125 -0.203125 -0.828125 -0.203125q-0.484375 0 -0.71875 0.15625q-0.21875 0.140625 -0.21875 0.421875q0 0.28125 0.296875 0.46875q0.296875 0.1875 1.1875 0.359375q1.421875 0.265625 1.90625 0.703125q0.5 0.4375 0.5 1.140625q0 1.046875 -0.78125 1.609375q-0.765625 0.546875 -2.046875 0.546875q-1.296875 0 -2.078125 -0.546875q-0.78125 -0.546875 -0.84375 -1.640625l1.625 0q0 0.484375 0.375 0.765625q0.375 0.28125 0.9375 0.28125q0.5 0 0.796875 -0.21875q0.3125 -0.21875 0.3125 -0.578125q0 -0.328125 -0.40625 -0.53125q-0.390625 -0.203125 -1.46875 -0.421875q-1.078125 -0.21875 -1.546875 -0.609375q-0.46875 -0.390625 -0.46875 -1.0625q0 -0.984375 0.6875 -1.484375q0.703125 -0.5 2.0 -0.5zm5.6015625 0.171875l0 3.546875q0 0.703125 0.25 1.09375q0.25 0.390625 0.859375 0.390625q0.703125 0 1.0 -0.421875q0.3125 -0.4375 0.3125 -1.296875l0 -3.3125l1.703125 0l0 6.203125l-1.625 0l0 -0.859375l-0.03125 0q-0.328125 0.515625 -0.84375 0.78125q-0.5 0.25 -1.0625 0.25q-1.15625 0 -1.703125 -0.59375q-0.546875 -0.59375 -0.546875 -1.90625l0 -3.875l1.6875 0zm7.1757812 -2.359375l0 8.5625l-1.703125 0l0 -8.5625l1.703125 0zm7.8027344 -0.203125q1.546875 0 2.484375 0.71875q0.9375 0.71875 0.9375 2.03125l-1.8125 0q-0.046875 -0.640625 -0.453125 -0.96875q-0.390625 -0.328125 -1.234375 -0.328125q-0.578125 0 -0.953125 0.265625q-0.359375 0.25 -0.359375 0.71875q0 0.3125 0.15625 0.46875q0.15625 0.15625 0.625 0.34375q0.46875 0.171875 2.0625 0.546875q1.0625 0.25 1.65625 0.875q0.609375 0.609375 0.609375 1.546875q0 1.25 -0.9375 2.0q-0.9375 0.75 -2.625 0.75q-1.609375 0 -2.640625 -0.796875q-1.015625 -0.796875 -1.015625 -2.203125l0 -0.046875l1.828125 0q0 0.796875 0.515625 1.1875q0.53125 0.390625 1.375 0.390625q0.765625 0 1.21875 -0.265625q0.453125 -0.28125 0.453125 -0.796875q0 -0.421875 -0.359375 -0.6875q-0.34375 -0.265625 -1.109375 -0.453125q-0.984375 -0.21875 -1.78125 -0.46875q-0.796875 -0.25 -1.328125 -0.8125q-0.53125 -0.5625 -0.53125 -1.4375q0 -1.15625 0.921875 -1.859375q0.9375 -0.71875 2.296875 -0.71875zm7.5214844 2.390625q1.375 0 2.203125 0.953125q0.828125 0.9375 0.828125 2.421875l-0.015625 0.3125l-4.484375 0q0.046875 0.796875 0.421875 1.1875q0.390625 0.390625 1.09375 0.390625q0.46875 0 0.859375 -0.234375q0.390625 -0.25 0.5 -0.578125l1.5 0q-0.34375 1.046875 -1.0625 1.578125q-0.71875 0.515625 -1.84375 0.515625q-1.4375 0 -2.3125 -0.90625q-0.859375 -0.90625 -0.859375 -2.359375q0 -1.390625 0.890625 -2.328125q0.890625 -0.953125 2.28125 -0.953125zm-1.46875 2.609375l2.78125 0q-0.125 -0.6875 -0.453125 -1.0q-0.3125 -0.328125 -0.921875 -0.328125q-0.609375 0 -0.984375 0.359375q-0.359375 0.34375 -0.421875 0.96875zm9.109375 -2.609375q0.109375 0 0.203125 0.015625q0.09375 0.015625 0.171875 0.046875l0 1.578125q-0.140625 -0.03125 -0.28125 -0.03125q-0.140625 -0.015625 -0.328125 -0.015625q-0.859375 0 -1.28125 0.53125q-0.40625 0.515625 -0.40625 1.40625l0 2.84375l-1.6875 0l0 -6.203125l1.609375 0l0 1.15625l0.03125 0q0.265625 -0.609375 0.796875 -0.96875q0.546875 -0.359375 1.171875 -0.359375zm2.3945312 0.171875l1.3125 4.234375l0.03125 0l1.296875 -4.234375l1.703125 0l-2.109375 6.203125l-1.890625 0l-2.125 -6.203125l1.78125 0zm7.9121094 -0.171875q1.375 0 2.203125 0.953125q0.828125 0.9375 0.828125 2.421875l-0.015625 0.3125l-4.484375 0q0.046875 0.796875 0.421875 1.1875q0.390625 0.390625 1.09375 0.390625q0.46875 0 0.859375 -0.234375q0.390625 -0.25 0.5 -0.578125l1.5 0q-0.34375 1.046875 -1.0625 1.578125q-0.71875 0.515625 -1.84375 0.515625q-1.4375 0 -2.3125 -0.90625q-0.859375 -0.90625 -0.859375 -2.359375q0 -1.390625 0.890625 -2.328125q0.890625 -0.953125 2.28125 -0.953125zm-1.46875 2.609375l2.78125 0q-0.125 -0.6875 -0.453125 -1.0q-0.3125 -0.328125 -0.921875 -0.328125q-0.609375 0 -0.984375 0.359375q-0.359375 0.34375 -0.421875 0.96875zm9.109375 -2.609375q0.109375 0 0.203125 0.015625q0.09375 0.015625 0.171875 0.046875l0 1.578125q-0.140625 -0.03125 -0.28125 -0.03125q-0.140625 -0.015625 -0.328125 -0.015625q-0.859375 0 -1.28125 0.53125q-0.40625 0.515625 -0.40625 1.40625l0 2.84375l-1.6875 0l0 -6.203125l1.609375 0l0 1.15625l0.03125 0q0.265625 -0.609375 0.796875 -0.96875q0.546875 -0.359375 1.171875 -0.359375z" fill-rule="nonzero"/><path fill="#000000" d="m332.9966 200.18668q-0.640625 1.1875 -0.984375 2.578125q-0.328125 1.390625 -0.328125 2.859375q0 1.46875 0.3125 2.84375q0.3125 1.359375 0.984375 2.671875l-1.421875 0q-0.765625 -1.28125 -1.171875 -2.671875q-0.40625 -1.390625 -0.40625 -2.734375q0 -1.390625 0.40625 -2.90625q0.40625 -1.515625 1.171875 -2.640625l1.4375 0zm6.7539062 0.203125l0 1.578125l-4.125 0l0 1.984375l3.578125 0l0 1.453125l-3.578125 0l0 3.546875l-1.890625 0l0 -8.5625l6.015625 0zm3.421875 2.1875q1.46875 0 2.34375 0.90625q0.875 0.890625 0.875 2.375q0 1.484375 -0.890625 2.375q-0.875 0.890625 -2.328125 0.890625q-1.4375 0 -2.328125 -0.890625q-0.875 -0.90625 -0.875 -2.375q0 -1.46875 0.859375 -2.375q0.875 -0.90625 2.34375 -0.90625zm-1.5 3.28125q0 0.984375 0.40625 1.484375q0.40625 0.5 1.09375 0.5q0.734375 0 1.125 -0.515625q0.390625 -0.53125 0.390625 -1.46875q0 -0.921875 -0.390625 -1.453125q-0.375 -0.546875 -1.125 -0.546875q-0.6875 0 -1.09375 0.5q-0.40625 0.5 -0.40625 1.5zm7.580078 -5.46875l0 8.5625l-1.703125 0l0 -8.5625l1.703125 0zm3.09375 0l0 8.5625l-1.703125 0l0 -8.5625l1.703125 0zm4.34375 2.1875q1.46875 0 2.34375 0.90625q0.875 0.890625 0.875 2.375q0 1.484375 -0.890625 2.375q-0.875 0.890625 -2.328125 0.890625q-1.4375 0 -2.328125 -0.890625q-0.875 -0.90625 -0.875 -2.375q0 -1.46875 0.859375 -2.375q0.875 -0.90625 2.34375 -0.90625zm-1.5 3.28125q0 0.984375 0.40625 1.484375q0.40625 0.5 1.09375 0.5q0.734375 0 1.125 -0.515625q0.390625 -0.53125 0.390625 -1.46875q0 -0.921875 -0.390625 -1.453125q-0.375 -0.546875 -1.125 -0.546875q-0.6875 0 -1.09375 0.5q-0.40625 0.5 -0.40625 1.5zm7.048828 -3.109375l1.140625 4.203125l0.015625 0l1.03125 -4.203125l1.65625 0l1.0625 4.203125l0.015625 0l1.15625 -4.203125l1.75 0l-1.96875 6.203125l-1.75 0l-1.09375 -4.171875l-0.03125 0l-1.0625 4.171875l-1.75 0l-1.96875 -6.203125l1.796875 0zm11.408203 -0.171875q1.375 0 2.203125 0.953125q0.828125 0.9375 0.828125 2.421875l-0.015625 0.3125l-4.484375 0q0.046875 0.796875 0.421875 1.1875q0.390625 0.390625 1.09375 0.390625q0.46875 0 0.859375 -0.234375q0.390625 -0.25 0.5 -0.578125l1.5 0q-0.34375 1.046875 -1.0625 1.578125q-0.71875 0.515625 -1.84375 0.515625q-1.4375 0 -2.3125 -0.90625q-0.859375 -0.90625 -0.859375 -2.359375q0 -1.390625 0.890625 -2.328125q0.890625 -0.953125 2.28125 -0.953125zm-1.46875 2.609375l2.78125 0q-0.125 -0.6875 -0.453125 -1.0q-0.3125 -0.328125 -0.921875 -0.328125q-0.609375 0 -0.984375 0.359375q-0.359375 0.34375 -0.421875 0.96875zm9.109375 -2.609375q0.109375 0 0.203125 0.015625q0.09375 0.015625 0.171875 0.046875l0 1.578125q-0.140625 -0.03125 -0.28125 -0.03125q-0.140625 -0.015625 -0.328125 -0.015625q-0.859375 0 -1.28125 0.53125q-0.40625 0.515625 -0.40625 1.40625l0 2.84375l-1.6875 0l0 -6.203125l1.609375 0l0 1.15625l0.03125 0q0.265625 -0.609375 0.796875 -0.96875q0.546875 -0.359375 1.171875 -0.359375zm1.7480469 -2.390625q0.78125 1.265625 1.1875 2.65625q0.40625 1.390625 0.40625 2.75q0 1.375 -0.421875 2.90625q-0.40625 1.515625 -1.171875 2.640625l-1.421875 0q0.65625 -1.25 0.96875 -2.609375q0.328125 -1.375 0.328125 -2.8125q0 -1.5 -0.328125 -2.875q-0.3125 -1.390625 -0.96875 -2.65625l1.421875 0z" fill-rule="nonzero"/><path fill="#000000" fill-opacity="0.0" d="m278.60754 309.50235l305.4488 -85.48033" fill-rule="evenodd"/><path stroke="#e03875" stroke-width="2.0" stroke-linejoin="round" stroke-linecap="round" d="m287.27457 307.07684l296.78177 -83.054825" fill-rule="evenodd"/><path fill="#e03875" stroke="#e03875" stroke-width="2.0" stroke-linecap="butt" d="m286.67856 304.94714l-5.255371 3.7672424l6.4473877 0.49221802z" fill-rule="evenodd"/><path fill="#000000" fill-opacity="0.0" d="m224.71626 235.24898l0 -99.80211l71.799484 0" fill-rule="evenodd"/><path stroke="#dc477d" stroke-width="2.0" stroke-linejoin="round" stroke-linecap="butt" d="m224.71626 223.24898l0 -87.80211l59.799454 0" fill-rule="evenodd"/><path fill="#dc477d" stroke="#dc477d" stroke-width="2.0" stroke-linecap="butt" d="m221.41281 223.24898l3.3034515 9.076187l3.3034668 -9.076187z" fill-rule="evenodd"/><path fill="#dc477d" stroke="#dc477d" stroke-width="2.0" stroke-linecap="butt" d="m284.51572 138.75034l9.076202 -3.3034668l-9.076202 -3.3034668z" fill-rule="evenodd"/><path fill="#000000" fill-opacity="0.0" d="m224.71626 400.3069l0 52.400055l71.79945 0" fill-rule="evenodd"/><path stroke="#dc477d" stroke-width="2.0" stroke-linejoin="round" stroke-linecap="butt" d="m224.71626 412.3069l0 40.400055l59.799454 0" fill-rule="evenodd"/><path fill="#dc477d" stroke="#dc477d" stroke-width="2.0" stroke-linecap="butt" d="m228.01973 412.3069l-3.3034668 -9.076202l-3.3034515 9.076202z" fill-rule="evenodd"/><path fill="#dc477d" stroke="#dc477d" stroke-width="2.0" stroke-linecap="butt" d="m284.51572 456.0104l9.076202 -3.3034668l-9.076202 -3.3034668z" fill-rule="evenodd"/></g></svg>