<svg width="592" height="500" viewBox="0 0 592 500" fill="none" xmlns="http://www.w3.org/2000/svg">
<line y1="-1" x2="29.5" y2="-1" transform="matrix(-4.37114e-08 -1 -1 4.37114e-08 213 195)" stroke="#343536" stroke-width="2"/>
<path d="M54 136L54 157.5C54 161.918 57.5817 165.5 62 165.5L214 165.5" stroke="#343536" stroke-width="2" stroke-linejoin="round"/>
<path d="M374 136L374 157.5C374 161.918 370.418 165.5 366 165.5L214 165.5" stroke="#343536" stroke-width="2" stroke-linejoin="round"/>
<line y1="-1" x2="4" y2="-1" transform="matrix(1.31134e-07 1 1 -1.31134e-07 215 193)" stroke="#343536" stroke-width="2"/>
<path d="M54 136C55.6569 136 57 137.343 57 139C57 140.657 55.6569 142 54 142C52.3431 142 51 140.657 51 139C51 137.343 52.3431 136 54 136Z" fill="white" stroke="#343536" stroke-width="2" stroke-linecap="round" stroke-linejoin="round"/>
<path d="M374 136C375.657 136 377 137.343 377 139C377 140.657 375.657 142 374 142C372.343 142 371 140.657 371 139C371 137.343 372.343 136 374 136Z" fill="white" stroke="#343536" stroke-width="2" stroke-linecap="round" stroke-linejoin="round"/>
<line x1="214" y1="381" x2="214" y2="411" stroke="#343536" stroke-width="2"/>
<path d="M36 441L36 419C36 414.582 39.5817 411 44 411L214 411" stroke="#343536" stroke-width="2" stroke-linejoin="round"/>
<path d="M392 441L392 419C392 414.582 388.418 411 384 411L214 411" stroke="#343536" stroke-width="2" stroke-linejoin="round"/>
<line x1="214" y1="383" x2="214" y2="379" stroke="#343536" stroke-width="2"/>
<path d="M36 441C37.6569 441 39 439.657 39 438C39 436.343 37.6569 435 36 435C34.3431 435 33 436.343 33 438C33 439.657 34.3431 441 36 441Z" fill="white" stroke="#343536" stroke-width="2" stroke-linecap="round" stroke-linejoin="round"/>
<path d="M392 441C393.657 441 395 439.657 395 438C395 436.343 393.657 435 392 435C390.343 435 389 436.343 389 438C389 439.657 390.343 441 392 441Z" fill="white" stroke="#343536" stroke-width="2" stroke-linecap="round" stroke-linejoin="round"/>
<path opacity="0.15" d="M434 73H590" stroke="black" stroke-width="1.5"/>
<rect width="89" height="18" transform="translate(501 63)" fill="white"/>
<path d="M513.651 68.6H510.003V77H513.651C516.123 77 517.671 75.224 517.671 72.8C517.671 70.328 516.099 68.6 513.651 68.6ZM513.615 75.512H511.635V70.076H513.615C515.055 70.076 516.015 71.168 516.015 72.764C516.015 74.384 515.055 75.512 513.615 75.512ZM525.316 77H527.032L523.804 68.6H521.668L518.452 77H520.156L520.852 75.176H524.632L525.316 77ZM521.392 73.724L522.736 70.172L524.08 73.724H521.392ZM534.229 68.6H526.945V70.088H529.765V77H531.409V70.088H534.229V68.6ZM541.135 77H542.851L539.623 68.6H537.487L534.271 77H535.975L536.671 75.176H540.451L541.135 77ZM537.211 73.724L538.555 70.172L539.899 73.724H537.211ZM551.992 68.6H548.056V77H549.688V74.432H551.92C553.852 74.432 554.908 72.932 554.908 71.516C554.908 70.124 553.84 68.6 551.992 68.6ZM551.872 72.968H549.688V70.088H551.944C552.748 70.088 553.312 70.784 553.312 71.528C553.312 72.26 552.76 72.968 551.872 72.968ZM558.295 75.488V68.6H556.651V77H562.483V75.488H558.295ZM570.511 77H572.227L568.999 68.6H566.863L563.647 77H565.351L566.047 75.176H569.827L570.511 77ZM566.587 73.724L567.931 70.172L569.275 73.724H566.587ZM579.339 68.6V74.048L575.115 68.6H573.759V77H575.403V71.54L579.627 77H580.983V68.6H579.339ZM589.46 70.088V68.6H583.268V77H589.448V75.512H584.876V73.448H588.848V72.008H584.876V70.088H589.46Z" fill="black"/>
<path opacity="0.15" d="M442 467H590" stroke="black" stroke-width="1.5"/>
<rect width="127" height="18" transform="translate(463 457)" fill="white"/>
<path d="M472.541 471H474.209V462.6H472.541V471ZM482.064 462.6V468.048L477.84 462.6H476.484V471H478.128V465.54L482.352 471H483.708V462.6H482.064ZM492.101 464.1V462.6H485.993V471H487.637V467.664H491.489V466.188H487.637V464.1H492.101ZM499.119 471H501.015L498.927 467.892C500.115 467.484 500.763 466.44 500.763 465.336C500.763 464.004 499.707 462.6 497.883 462.6H493.791V471H495.423V468.06H497.211L499.119 471ZM495.423 464.076H497.835C498.615 464.076 499.167 464.664 499.167 465.336C499.167 466.032 498.627 466.62 497.775 466.62H495.423V464.076ZM508.928 471H510.644L507.416 462.6H505.28L502.064 471H503.768L504.464 469.176H508.244L508.928 471ZM505.004 467.724L506.348 464.172L507.692 467.724H505.004ZM515.292 471.168C517.308 471.168 518.652 470.004 518.652 468.564C518.652 467.196 517.68 466.656 516.396 466.26L514.308 465.588C513.756 465.42 513.504 465.168 513.504 464.796C513.504 464.304 514.032 463.884 514.86 463.884C515.808 463.884 516.588 464.352 516.936 465.036L518.46 464.592C518.004 463.428 516.66 462.432 514.848 462.432C513.096 462.432 511.824 463.536 511.836 464.844C511.824 465.924 512.628 466.632 513.732 466.98L515.88 467.652C516.684 467.916 516.984 468.216 516.984 468.66C516.984 469.212 516.372 469.716 515.388 469.716C514.176 469.716 513.324 469.02 512.988 468.144L511.416 468.624C511.884 469.932 513.24 471.168 515.292 471.168ZM526.752 462.6H519.468V464.088H522.288V471H523.932V464.088H526.752V462.6ZM533.757 471H535.653L533.565 467.892C534.753 467.484 535.401 466.44 535.401 465.336C535.401 464.004 534.345 462.6 532.521 462.6H528.429V471H530.061V468.06H531.849L533.757 471ZM530.061 464.076H532.473C533.253 464.076 533.805 464.664 533.805 465.336C533.805 466.032 533.265 466.62 532.413 466.62H530.061V464.076ZM542.919 462.6V467.532C542.919 468.768 542.259 469.656 540.939 469.656C539.631 469.656 538.971 468.768 538.971 467.532V462.6H537.303V467.556C537.303 469.692 538.587 471.168 540.939 471.168C543.279 471.168 544.575 469.692 544.575 467.556V462.6H542.919ZM550.847 471.168C553.067 471.168 554.483 469.812 554.867 468.468L553.271 468.06C552.995 468.888 552.095 469.62 550.823 469.62C549.167 469.62 548.111 468.288 548.111 466.776C548.111 465.264 549.167 463.98 550.823 463.98C552.095 463.98 552.995 464.736 553.271 465.552L554.879 465.156C554.495 463.824 553.079 462.432 550.811 462.432C548.315 462.432 546.431 464.316 546.431 466.788C546.431 469.272 548.315 471.168 550.847 471.168ZM563.124 462.6H555.84V464.088H558.66V471H560.304V464.088H563.124V462.6ZM570.345 462.6V467.532C570.345 468.768 569.685 469.656 568.365 469.656C567.057 469.656 566.397 468.768 566.397 467.532V462.6H564.729V467.556C564.729 469.692 566.013 471.168 568.365 471.168C570.705 471.168 572.001 469.692 572.001 467.556V462.6H570.345ZM579.533 471H581.429L579.341 467.892C580.529 467.484 581.177 466.44 581.177 465.336C581.177 464.004 580.121 462.6 578.297 462.6H574.205V471H575.837V468.06H577.625L579.533 471ZM575.837 464.076H578.249C579.029 464.076 579.581 464.664 579.581 465.336C579.581 466.032 579.041 466.62 578.189 466.62H575.837V464.076ZM589.46 464.088V462.6H583.268V471H589.448V469.512H584.876V467.448H588.848V466.008H584.876V464.088H589.46Z" fill="black"/>
<rect width="98" height="18" transform="translate(492 475)" fill="white"/>
<path d="M501.748 489H503.416V480.6H501.748V489ZM511.271 480.6V486.048L507.047 480.6H505.691V489H507.335V483.54L511.559 489H512.915V480.6H511.271ZM521.884 480.6H514.6V482.088H517.42V489H519.064V482.088H521.884V480.6ZM529.752 482.088V480.6H523.56V489H529.74V487.512H525.168V485.448H529.14V484.008H525.168V482.088H529.752ZM539.992 484.332H535.708V485.748H538.288C538.144 486.792 537.28 487.632 535.864 487.632C533.98 487.632 532.936 486.288 532.936 484.776C532.936 483.264 534.04 481.98 535.684 481.98C536.98 481.98 537.76 482.568 538.18 483.432L539.704 483C539.176 481.596 537.748 480.432 535.672 480.432C533.176 480.432 531.268 482.316 531.268 484.788C531.268 487.272 533.164 489.168 535.744 489.168C538.264 489.168 539.992 487.548 539.992 485.172V484.332ZM547.25 489H549.146L547.058 485.892C548.246 485.484 548.894 484.44 548.894 483.336C548.894 482.004 547.838 480.6 546.014 480.6H541.922V489H543.554V486.06H545.342L547.25 489ZM543.554 482.076H545.966C546.746 482.076 547.298 482.664 547.298 483.336C547.298 484.032 546.758 484.62 545.906 484.62H543.554V482.076ZM557.059 489H558.775L555.547 480.6H553.411L550.195 489H551.899L552.595 487.176H556.375L557.059 489ZM553.135 485.724L554.479 482.172L555.823 485.724H553.135ZM565.972 480.6H558.688V482.088H561.508V489H563.152V482.088H565.972V480.6ZM567.649 489H569.317V480.6H567.649V489ZM575.659 489.168C578.191 489.168 580.063 487.272 580.063 484.788C580.063 482.316 578.191 480.432 575.659 480.432C573.115 480.432 571.243 482.316 571.243 484.788C571.243 487.272 573.115 489.168 575.659 489.168ZM575.659 487.644C573.991 487.644 572.911 486.396 572.911 484.788C572.911 483.216 573.991 481.956 575.659 481.956C577.315 481.956 578.407 483.216 578.407 484.788C578.407 486.396 577.315 487.644 575.659 487.644ZM587.571 480.6V486.048L583.347 480.6H581.991V489H583.635V483.54L587.859 489H589.215V480.6H587.571Z" fill="black"/>
<line y1="-1" x2="27" y2="-1" transform="matrix(-4.37114e-08 1 1 4.37114e-08 113 414)" stroke="#343536" stroke-width="2"/>
<line y1="-1" x2="4" y2="-1" transform="matrix(-4.37114e-08 -1 -1 4.37114e-08 111 416)" stroke="#343536" stroke-width="2"/>
<path d="M112 441C113.657 441 115 439.657 115 438C115 436.343 113.657 435 112 435C110.343 435 109 436.343 109 438C109 439.657 110.343 441 112 441Z" fill="white" stroke="#343536" stroke-width="2" stroke-linecap="round" stroke-linejoin="round"/>
<line y1="-1" x2="27" y2="-1" transform="matrix(-4.37114e-08 1 1 4.37114e-08 215 414)" stroke="#343536" stroke-width="2"/>
<line y1="-1" x2="4" y2="-1" transform="matrix(-4.37114e-08 -1 -1 4.37114e-08 213 416)" stroke="#343536" stroke-width="2"/>
<path d="M214 441C215.657 441 217 439.657 217 438C217 436.343 215.657 435 214 435C212.343 435 211 436.343 211 438C211 439.657 212.343 441 214 441Z" fill="white" stroke="#343536" stroke-width="2" stroke-linecap="round" stroke-linejoin="round"/>
<line y1="-1" x2="27" y2="-1" transform="matrix(-4.37114e-08 1 1 4.37114e-08 317 414)" stroke="#343536" stroke-width="2"/>
<line y1="-1" x2="4" y2="-1" transform="matrix(-4.37114e-08 -1 -1 4.37114e-08 315 416)" stroke="#343536" stroke-width="2"/>
<path d="M316 441C317.657 441 319 439.657 319 438C319 436.343 317.657 435 316 435C314.343 435 313 436.343 313 438C313 439.657 314.343 441 316 441Z" fill="white" stroke="#343536" stroke-width="2" stroke-linecap="round" stroke-linejoin="round"/>
<line y1="-1" x2="27" y2="-1" transform="matrix(-5.35817e-08 -1 -1 3.56593e-08 285 163)" stroke="#343536" stroke-width="2"/>
<line y1="-1" x2="4" y2="-1" transform="matrix(1.41004e-07 1 1 -1.23082e-07 287 161)" stroke="#343536" stroke-width="2"/>
<path d="M286 136C284.343 136 283 137.343 283 139C283 140.657 284.343 142 286 142C287.657 142 289 140.657 289 139C289 137.343 287.657 136 286 136Z" fill="white" stroke="#343536" stroke-width="2" stroke-linecap="round" stroke-linejoin="round"/>
<line y1="-1" x2="27" y2="-1" transform="matrix(-5.35817e-08 -1 -1 3.56593e-08 141 163)" stroke="#343536" stroke-width="2"/>
<line y1="-1" x2="4" y2="-1" transform="matrix(1.41004e-07 1 1 -1.23082e-07 143 161)" stroke="#343536" stroke-width="2"/>
<path d="M142 136C140.343 136 139 137.343 139 139C139 140.657 140.343 142 142 142C143.657 142 145 140.657 145 139C145 137.343 143.657 136 142 136Z" fill="white" stroke="#343536" stroke-width="2" stroke-linecap="round" stroke-linejoin="round"/>
<rect x="3" y="452" width="66" height="46" rx="2" fill="white"/>
<rect x="2.25" y="451.25" width="67.5" height="47.5" rx="2.75" stroke="black" stroke-opacity="0.16" stroke-width="1.5"/>
<rect x="87" y="452" width="50" height="46" rx="2" fill="white"/>
<rect x="86.25" y="451.25" width="51.5" height="47.5" rx="2.75" stroke="black" stroke-opacity="0.16" stroke-width="1.5"/>
<rect x="155" y="452" width="118" height="46" rx="2" fill="white"/>
<rect x="154.25" y="451.25" width="119.5" height="47.5" rx="2.75" stroke="black" stroke-opacity="0.16" stroke-width="1.5"/>
<rect x="291" y="452" width="50" height="46" rx="2" fill="white"/>
<rect x="290.25" y="451.25" width="51.5" height="47.5" rx="2.75" stroke="black" stroke-opacity="0.16" stroke-width="1.5"/>
<rect x="359" y="452" width="66" height="46" rx="2" fill="white"/>
<rect x="358.25" y="451.25" width="67.5" height="47.5" rx="2.75" stroke="black" stroke-opacity="0.16" stroke-width="1.5"/>
<path d="M11.4639 481H13.0689V476.38H17.8839V474.985H13.0689V472.045H18.1989V470.5H11.4639V481ZM19.2926 472.42H21.0776V470.5H19.2926V472.42ZM19.3526 481H21.0326V473.5H19.3526V481ZM23.1439 481H24.6889V477.205C24.6889 475.36 25.8589 475.03 26.8789 475.045H27.1339V473.38H26.7889C25.3639 473.38 24.8389 474.13 24.6889 474.415V473.5H23.1439V481ZM31.2408 481.165C33.0408 481.165 34.2408 480.1 34.4658 478.63H32.9658C32.6208 479.62 31.7208 479.785 31.2408 479.785C30.0558 479.785 29.2758 479.035 29.2758 477.805V477.79H34.5858C34.7658 475.315 33.5058 473.41 31.1958 473.41C29.0658 473.41 27.6258 474.985 27.6258 477.31C27.6258 479.725 29.0508 481.165 31.2408 481.165ZM29.3208 476.395C29.3808 475.45 30.1458 474.79 31.1508 474.79C32.1558 474.79 32.8608 475.45 32.9058 476.395H29.3208ZM37.7941 481H39.3691L40.7641 476.365L42.1441 481H43.7191L46.2091 473.5H44.4691L42.9391 478.78L41.3791 473.5H40.1191L38.5891 478.78L37.0291 473.5H35.3191L37.7941 481ZM49.3151 481.15C50.1101 481.15 50.9951 480.805 51.5351 480.115V481H53.2001V475.93C53.2001 474.445 52.1351 473.32 50.2301 473.32C48.4001 473.32 47.1851 474.505 47.0501 476.005L48.7301 475.99C48.8051 475.435 49.2551 474.775 50.3051 474.775C51.0701 474.775 51.5351 475.195 51.5351 475.675C51.5351 476.455 50.4701 476.515 49.5101 476.605C48.6551 476.68 47.9351 476.89 47.4401 477.28C46.9751 477.655 46.7801 478.24 46.7801 478.885C46.7801 480.325 47.9801 481.15 49.3151 481.15ZM49.5851 479.77C48.8951 479.725 48.5051 479.305 48.5051 478.78C48.5051 478.195 48.9851 477.88 49.8101 477.805C50.5451 477.745 51.2201 477.64 51.5501 477.46L51.5351 478.135C51.5051 479.32 50.4101 479.815 49.5851 479.77ZM55.183 481H56.863V470.5H55.183V481ZM59.0033 481H60.6833V470.5H59.0033V481Z" fill="black"/>
<path d="M101.415 481.105C103.665 481.105 105.3 479.905 105.3 477.985C105.3 476.47 104.415 475.24 101.4 474.895C100.11 474.745 99.2704 474.25 99.2704 473.425C99.2704 472.765 99.9004 472.03 101.13 472.03C102.27 472.03 103.23 472.645 103.305 473.74H105.075C104.985 471.67 103.515 470.41 101.145 470.41C98.9704 470.41 97.3954 471.79 97.3954 473.485C97.3954 474.895 98.4304 476.17 101.505 476.5C102.93 476.65 103.425 477.175 103.425 477.97C103.425 478.72 102.72 479.545 101.415 479.545C100.05 479.545 99.2254 478.87 98.9704 477.76H97.1104C97.2754 480.01 99.3304 481.105 101.415 481.105ZM107.141 481.03L111.056 481C113.801 480.985 115.901 478.78 115.901 475.675C115.901 472.615 113.741 470.44 110.906 470.47L107.141 470.5V481.03ZM108.701 479.44V472.135L110.906 472.105C112.766 472.075 114.236 473.53 114.236 475.735C114.236 477.925 112.736 479.38 110.846 479.41L108.701 479.44ZM124.117 481L126.292 481.015V470.5H124.717V478.78L119.842 470.5H117.817V481H119.392V472.975L124.117 481Z" fill="black"/>
<path d="M167.413 481H173.803V479.35H169.153V470.5H167.413V481ZM178.143 481.075C180.168 481.075 181.758 479.485 181.758 477.25C181.758 474.985 180.168 473.395 178.143 473.395C176.103 473.395 174.513 474.985 174.513 477.25C174.513 479.485 176.103 481.075 178.143 481.075ZM178.128 479.59C176.838 479.59 176.118 478.57 176.118 477.25C176.118 475.9 176.853 474.895 178.143 474.895C179.448 474.895 180.183 475.915 180.183 477.265C180.183 478.585 179.448 479.59 178.128 479.59ZM185.38 481.15C186.175 481.15 187.06 480.805 187.6 480.115V481H189.265V475.93C189.265 474.445 188.2 473.32 186.295 473.32C184.465 473.32 183.25 474.505 183.115 476.005L184.795 475.99C184.87 475.435 185.32 474.775 186.37 474.775C187.135 474.775 187.6 475.195 187.6 475.675C187.6 476.455 186.535 476.515 185.575 476.605C184.72 476.68 184 476.89 183.505 477.28C183.04 477.655 182.845 478.24 182.845 478.885C182.845 480.325 184.045 481.15 185.38 481.15ZM185.65 479.77C184.96 479.725 184.57 479.305 184.57 478.78C184.57 478.195 185.05 477.88 185.875 477.805C186.61 477.745 187.285 477.64 187.615 477.46L187.6 478.135C187.57 479.32 186.475 479.815 185.65 479.77ZM194.158 481.165C195.478 481.165 196.333 480.37 196.543 479.965V481H198.058V470.5H196.543V474.565C196.138 474.01 195.373 473.425 194.113 473.425C192.448 473.425 190.723 474.745 190.723 477.295C190.723 479.89 192.583 481.165 194.158 481.165ZM194.458 479.68C193.258 479.68 192.418 478.645 192.418 477.19C192.418 475.84 193.258 474.88 194.458 474.88C195.673 474.88 196.528 475.9 196.528 477.34C196.528 478.705 195.673 479.68 194.458 479.68ZM204.737 481.03H209.492C211.367 481.03 212.552 479.89 212.582 478.075C212.597 476.815 211.802 475.705 210.767 475.315C211.457 474.985 212.102 474.25 212.102 473.215C212.102 471.475 210.767 470.5 209.072 470.5H204.737V481.03ZM206.342 474.835V471.985H208.982C209.912 471.985 210.377 472.645 210.377 473.455C210.377 474.235 209.777 474.835 209.057 474.835H206.342ZM206.372 479.44V476.305H209.177C210.092 476.305 210.737 476.995 210.737 477.895C210.737 478.855 210.092 479.44 209.177 479.44H206.372ZM216.277 481.15C217.072 481.15 217.957 480.805 218.497 480.115V481H220.162V475.93C220.162 474.445 219.097 473.32 217.192 473.32C215.362 473.32 214.147 474.505 214.012 476.005L215.692 475.99C215.767 475.435 216.217 474.775 217.267 474.775C218.032 474.775 218.497 475.195 218.497 475.675C218.497 476.455 217.432 476.515 216.472 476.605C215.617 476.68 214.897 476.89 214.402 477.28C213.937 477.655 213.742 478.24 213.742 478.885C213.742 480.325 214.942 481.15 216.277 481.15ZM216.547 479.77C215.857 479.725 215.467 479.305 215.467 478.78C215.467 478.195 215.947 477.88 216.772 477.805C217.507 477.745 218.182 477.64 218.512 477.46L218.497 478.135C218.467 479.32 217.372 479.815 216.547 479.77ZM222.144 481H223.824V470.5H222.144V481ZM227.975 481.15C228.77 481.15 229.655 480.805 230.195 480.115V481H231.86V475.93C231.86 474.445 230.795 473.32 228.89 473.32C227.06 473.32 225.845 474.505 225.71 476.005L227.39 475.99C227.465 475.435 227.915 474.775 228.965 474.775C229.73 474.775 230.195 475.195 230.195 475.675C230.195 476.455 229.13 476.515 228.17 476.605C227.315 476.68 226.595 476.89 226.1 477.28C225.635 477.655 225.44 478.24 225.44 478.885C225.44 480.325 226.64 481.15 227.975 481.15ZM228.245 479.77C227.555 479.725 227.165 479.305 227.165 478.78C227.165 478.195 227.645 477.88 228.47 477.805C229.205 477.745 229.88 477.64 230.21 477.46L230.195 478.135C230.165 479.32 229.07 479.815 228.245 479.77ZM233.843 481H235.433V477.22C235.433 475.675 236.318 474.73 237.308 474.73C238.148 474.73 238.793 475.255 238.793 476.575V481H240.518V476.395C240.518 473.86 238.718 473.305 237.683 473.305C236.468 473.305 235.718 474.04 235.433 474.445V473.5H233.843V481ZM245.66 481.105C247.415 481.105 248.81 479.98 249.02 478.375H247.34C247.205 479.05 246.65 479.695 245.69 479.695C244.61 479.695 243.755 478.75 243.755 477.145C243.755 475.615 244.61 474.715 245.66 474.715C246.605 474.715 247.175 475.36 247.34 476.035H249.02C248.825 474.46 247.46 473.35 245.72 473.35C243.575 473.35 242.06 474.97 242.06 477.25C242.06 479.515 243.545 481.105 245.66 481.105ZM253.743 481.165C255.543 481.165 256.743 480.1 256.968 478.63H255.468C255.123 479.62 254.223 479.785 253.743 479.785C252.558 479.785 251.778 479.035 251.778 477.805V477.79H257.088C257.268 475.315 256.008 473.41 253.698 473.41C251.568 473.41 250.128 474.985 250.128 477.31C250.128 479.725 251.553 481.165 253.743 481.165ZM251.823 476.395C251.883 475.45 252.648 474.79 253.653 474.79C254.658 474.79 255.363 475.45 255.408 476.395H251.823ZM258.722 481H260.267V477.205C260.267 475.36 261.437 475.03 262.457 475.045H262.712V473.38H262.367C260.942 473.38 260.417 474.13 260.267 474.415V473.5H258.722V481Z" fill="black"/>
<path d="M302.726 481L303.701 478.42H307.706L308.696 481H310.571L306.551 470.5H304.871L300.851 480.985L302.726 481ZM304.151 476.92L305.711 472.555L307.256 476.92H304.151ZM312.19 481.03L316.105 481C318.85 480.985 320.95 478.78 320.95 475.675C320.95 472.615 318.79 470.44 315.955 470.47L312.19 470.5V481.03ZM313.75 479.44V472.135L315.955 472.105C317.815 472.075 319.285 473.53 319.285 475.735C319.285 477.925 317.785 479.38 315.895 479.41L313.75 479.44ZM327.246 481.075C329.946 481.075 331.581 479.305 331.926 477.235H330.036C329.826 478.3 328.836 479.455 327.216 479.455C325.371 479.455 324.186 477.835 324.186 475.81C324.186 473.74 325.371 472.03 327.276 472.03C328.821 472.03 329.826 473.08 330.036 474.205H331.926C331.611 472.075 329.961 470.395 327.351 470.395C324.411 470.395 322.356 472.705 322.341 475.795C322.326 478.84 324.516 481.075 327.246 481.075Z" fill="black"/>
<path d="M375.436 481H377.161V470.5H375.436V481ZM382.184 481H383.789L383.804 472.03L387.419 472.045L387.404 470.5H378.554L378.569 472.045H382.199L382.184 481ZM392.434 481.105C394.684 481.105 396.319 479.905 396.319 477.985C396.319 476.47 395.434 475.24 392.419 474.895C391.129 474.745 390.289 474.25 390.289 473.425C390.289 472.765 390.919 472.03 392.149 472.03C393.289 472.03 394.249 472.645 394.324 473.74H396.094C396.004 471.67 394.534 470.41 392.164 470.41C389.989 470.41 388.414 471.79 388.414 473.485C388.414 474.895 389.449 476.17 392.524 476.5C393.949 476.65 394.444 477.175 394.444 477.97C394.444 478.72 393.739 479.545 392.434 479.545C391.069 479.545 390.244 478.87 389.989 477.76H388.129C388.294 480.01 390.349 481.105 392.434 481.105ZM398.16 481H399.825V473.5L402.765 481H404.16L407.055 473.5V481H408.645V470.5H406.68L403.485 478.705L400.2 470.5H398.16V481Z" fill="black"/>
<rect width="46" height="46" rx="2" transform="matrix(-1 0 0 1 397 50)" fill="white"/>
<rect x="0.75" y="-0.75" width="47.5" height="47.5" rx="2.75" transform="matrix(-1 0 0 1 398.5 50)" stroke="black" stroke-opacity="0.16" stroke-width="1.5"/>
<path d="M366 68H382" stroke="black" stroke-width="1.5" stroke-linecap="round" stroke-linejoin="round"/>
<path d="M378.334 64L382.334 68L378.334 72" stroke="black" stroke-width="1.5" stroke-linecap="round" stroke-linejoin="round"/>
<path d="M382 78L366 78" stroke="black" stroke-width="1.5" stroke-linecap="round" stroke-linejoin="round"/>
<path d="M369.666 82L365.666 78L369.666 74" stroke="black" stroke-width="1.5" stroke-linecap="round" stroke-linejoin="round"/>
<rect width="46" height="46" rx="2" transform="matrix(-1 0 0 1 165 50)" fill="white"/>
<rect x="0.75" y="-0.75" width="47.5" height="47.5" rx="2.75" transform="matrix(-1 0 0 1 166.5 50)" stroke="black" stroke-opacity="0.16" stroke-width="1.5"/>
<path fill-rule="evenodd" clip-rule="evenodd" d="M144 63H136C134.895 63 134 63.8954 134 65V81C134 82.1046 134.895 83 136 83H148C149.105 83 150 82.1046 150 81V69L144 63Z" stroke="black" stroke-width="1.5" stroke-linecap="round" stroke-linejoin="round"/>
<path d="M144 63V69H150" stroke="black" stroke-width="1.5" stroke-linecap="round" stroke-linejoin="round"/>
<path d="M146 74H138" stroke="black" stroke-width="1.5" stroke-linecap="round" stroke-linejoin="round"/>
<path d="M146 78H138" stroke="black" stroke-width="1.5" stroke-linecap="round" stroke-linejoin="round"/>
<path d="M140 70H139H138" stroke="black" stroke-width="1.5" stroke-linecap="round" stroke-linejoin="round"/>
<path d="M356.396 121.015H358.016V116.845H360.806C362.711 116.845 363.971 115.495 363.971 113.695C363.971 111.88 362.741 110.485 360.896 110.485L356.396 110.5V121.015ZM358.016 115.42V111.91H360.476C361.511 111.91 362.336 112.51 362.336 113.68C362.336 114.835 361.511 115.42 360.476 115.42H358.016ZM365.427 121H366.972V117.205C366.972 115.36 368.142 115.03 369.162 115.045H369.417V113.38H369.072C367.647 113.38 367.122 114.13 366.972 114.415V113.5H365.427V121ZM373.539 121.075C375.564 121.075 377.154 119.485 377.154 117.25C377.154 114.985 375.564 113.395 373.539 113.395C371.499 113.395 369.909 114.985 369.909 117.25C369.909 119.485 371.499 121.075 373.539 121.075ZM373.524 119.59C372.234 119.59 371.514 118.57 371.514 117.25C371.514 115.9 372.249 114.895 373.539 114.895C374.844 114.895 375.579 115.915 375.579 117.265C375.579 118.585 374.844 119.59 373.524 119.59ZM377.648 121H379.538L381.353 118.51L383.153 121H385.043L382.268 117.25L385.043 113.5H383.153L381.368 115.99L379.538 113.5H377.648L380.438 117.25L377.648 121ZM385.916 124H386.801C388.076 124 388.931 123.31 389.486 121.915L392.726 113.5H391.001L389.126 118.63L387.101 113.5H385.376L388.301 120.535L387.956 121.495C387.686 122.2 387.251 122.545 386.636 122.545H385.901L385.916 124Z" fill="black"/>
<path d="M115.331 121H121.721V119.35H117.071V110.5H115.331V121ZM126.061 121.075C128.086 121.075 129.676 119.485 129.676 117.25C129.676 114.985 128.086 113.395 126.061 113.395C124.021 113.395 122.431 114.985 122.431 117.25C122.431 119.485 124.021 121.075 126.061 121.075ZM126.046 119.59C124.756 119.59 124.036 118.57 124.036 117.25C124.036 115.9 124.771 114.895 126.061 114.895C127.366 114.895 128.101 115.915 128.101 117.265C128.101 118.585 127.366 119.59 126.046 119.59ZM134.423 124.135C136.673 124.135 138.278 122.905 138.278 120.265V113.5H136.733V114.805C136.253 113.905 135.188 113.335 134.123 113.335C132.158 113.335 130.763 114.97 130.763 117.205C130.763 119.455 131.978 121.075 134.078 121.075C135.203 121.075 136.268 120.475 136.733 119.575V120.265C136.733 122.05 135.728 122.755 134.468 122.755C134.273 122.755 132.893 122.755 132.593 121.495L131.003 121.48C131.078 122.86 132.323 124.135 134.423 124.135ZM134.513 119.62C133.313 119.62 132.473 118.66 132.473 117.31C132.473 115.855 133.313 114.82 134.513 114.82C135.728 114.82 136.583 115.795 136.583 117.16C136.583 118.6 135.728 119.62 134.513 119.62ZM143.473 124.135C145.723 124.135 147.328 122.905 147.328 120.265V113.5H145.783V114.805C145.303 113.905 144.238 113.335 143.173 113.335C141.208 113.335 139.813 114.97 139.813 117.205C139.813 119.455 141.028 121.075 143.128 121.075C144.253 121.075 145.318 120.475 145.783 119.575V120.265C145.783 122.05 144.778 122.755 143.518 122.755C143.323 122.755 141.943 122.755 141.643 121.495L140.053 121.48C140.128 122.86 141.373 124.135 143.473 124.135ZM143.563 119.62C142.363 119.62 141.523 118.66 141.523 117.31C141.523 115.855 142.363 114.82 143.563 114.82C144.778 114.82 145.633 115.795 145.633 117.16C145.633 118.6 144.778 119.62 143.563 119.62ZM149.313 112.42H151.098V110.5H149.313V112.42ZM149.373 121H151.053V113.5H149.373V121ZM153.164 121H154.754V117.22C154.754 115.675 155.639 114.73 156.629 114.73C157.469 114.73 158.114 115.255 158.114 116.575V121H159.839V116.395C159.839 113.86 158.039 113.305 157.004 113.305C155.789 113.305 155.039 114.04 154.754 114.445V113.5H153.164V121ZM165.042 124.135C167.292 124.135 168.897 122.905 168.897 120.265V113.5H167.352V114.805C166.872 113.905 165.807 113.335 164.742 113.335C162.777 113.335 161.382 114.97 161.382 117.205C161.382 119.455 162.597 121.075 164.697 121.075C165.822 121.075 166.887 120.475 167.352 119.575V120.265C167.352 122.05 166.347 122.755 165.087 122.755C164.892 122.755 163.512 122.755 163.212 121.495L161.622 121.48C161.697 122.86 162.942 124.135 165.042 124.135ZM165.132 119.62C163.932 119.62 163.092 118.66 163.092 117.31C163.092 115.855 163.932 114.82 165.132 114.82C166.347 114.82 167.202 115.795 167.202 117.16C167.202 118.6 166.347 119.62 165.132 119.62Z" fill="black"/>
<path d="M245.006 120L245.981 117.42H249.986L250.976 120H252.851L248.831 109.5H247.151L243.131 119.985L245.006 120ZM246.431 115.92L247.991 111.555L249.536 115.92H246.431ZM254.471 120.015H256.091V115.845H258.881C260.786 115.845 262.046 114.495 262.046 112.695C262.046 110.88 260.816 109.485 258.971 109.485L254.471 109.5V120.015ZM256.091 114.42V110.91H258.551C259.586 110.91 260.411 111.51 260.411 112.68C260.411 113.835 259.586 114.42 258.551 114.42H256.091ZM263.727 120H265.452V109.5H263.727V120ZM276.243 120.075C277.503 120.075 278.733 119.535 279.408 118.455L279.528 120H280.968V114.6H276.243V116.16H279.243C278.838 117.81 277.518 118.44 276.273 118.455C274.428 118.47 273.228 116.835 273.228 114.81C273.228 112.74 274.413 111.03 276.318 111.03C277.863 111.03 278.868 112.08 279.078 113.205H280.968C280.653 111.075 279.003 109.395 276.393 109.395C273.453 109.395 271.398 111.705 271.383 114.795C271.368 117.84 273.453 120.075 276.243 120.075ZM285.191 120.15C285.986 120.15 286.871 119.805 287.411 119.115V120H289.076V114.93C289.076 113.445 288.011 112.32 286.106 112.32C284.276 112.32 283.061 113.505 282.926 115.005L284.606 114.99C284.681 114.435 285.131 113.775 286.181 113.775C286.946 113.775 287.411 114.195 287.411 114.675C287.411 115.455 286.346 115.515 285.386 115.605C284.531 115.68 283.811 115.89 283.316 116.28C282.851 116.655 282.656 117.24 282.656 117.885C282.656 119.325 283.856 120.15 285.191 120.15ZM285.461 118.77C284.771 118.725 284.381 118.305 284.381 117.78C284.381 117.195 284.861 116.88 285.686 116.805C286.421 116.745 287.096 116.64 287.426 116.46L287.411 117.135C287.381 118.32 286.286 118.815 285.461 118.77ZM293.159 120H294.584L294.599 118.59H293.579C292.859 118.59 292.664 118.35 292.664 117.6V113.85H294.584V112.5H292.664V110.1H291.104V112.5H289.934V113.85H291.104V118.005C291.104 119.175 291.959 120 293.159 120ZM298.848 120.165C300.648 120.165 301.848 119.1 302.073 117.63H300.573C300.228 118.62 299.328 118.785 298.848 118.785C297.663 118.785 296.883 118.035 296.883 116.805V116.79H302.193C302.373 114.315 301.113 112.41 298.803 112.41C296.673 112.41 295.233 113.985 295.233 116.31C295.233 118.725 296.658 120.165 298.848 120.165ZM296.928 115.395C296.988 114.45 297.753 113.79 298.758 113.79C299.763 113.79 300.468 114.45 300.513 115.395H296.928ZM305.402 120H306.977L308.372 115.365L309.752 120H311.327L313.817 112.5H312.077L310.547 117.78L308.987 112.5H307.727L306.197 117.78L304.637 112.5H302.927L305.402 120ZM316.923 120.15C317.718 120.15 318.603 119.805 319.143 119.115V120H320.808V114.93C320.808 113.445 319.743 112.32 317.838 112.32C316.008 112.32 314.793 113.505 314.658 115.005L316.338 114.99C316.413 114.435 316.863 113.775 317.913 113.775C318.678 113.775 319.143 114.195 319.143 114.675C319.143 115.455 318.078 115.515 317.118 115.605C316.263 115.68 315.543 115.89 315.048 116.28C314.583 116.655 314.388 117.24 314.388 117.885C314.388 119.325 315.588 120.15 316.923 120.15ZM317.193 118.77C316.503 118.725 316.113 118.305 316.113 117.78C316.113 117.195 316.593 116.88 317.418 116.805C318.153 116.745 318.828 116.64 319.158 116.46L319.143 117.135C319.113 118.32 318.018 118.815 317.193 118.77ZM322.355 123H323.24C324.515 123 325.37 122.31 325.925 120.915L329.165 112.5H327.44L325.565 117.63L323.54 112.5H321.815L324.74 119.535L324.395 120.495C324.125 121.2 323.69 121.545 323.075 121.545H322.34L322.355 123Z" fill="black"/>
<path d="M39.9621 120L40.9371 117.42H44.9421L45.9321 120H47.8071L43.7871 109.5H42.1071L38.0871 119.985L39.9621 120ZM41.3871 115.92L42.9471 111.555L44.4921 115.92H41.3871ZM49.4268 120.015H51.0468V115.845H53.8368C55.7418 115.845 57.0018 114.495 57.0018 112.695C57.0018 110.88 55.7718 109.485 53.9268 109.485L49.4268 109.5V120.015ZM51.0468 114.42V110.91H53.5068C54.5418 110.91 55.3668 111.51 55.3668 112.68C55.3668 113.835 54.5418 114.42 53.5068 114.42H51.0468ZM58.6084 120H60.2734V112.5L63.2134 120H64.6084L67.5034 112.5V120H69.0934V109.5H67.1284L63.9334 117.705L60.6484 109.5H58.6084V120Z" fill="black"/>
<rect x="10" y="269" width="408" height="110" rx="2" fill="#FFE9F1"/>
<rect x="10" y="197" width="408" height="72" fill="#DC477D"/>
<path d="M67.1172 301.03H71.8722C73.7472 301.03 74.9322 299.89 74.9622 298.075C74.9772 296.815 74.1822 295.705 73.1472 295.315C73.8372 294.985 74.4822 294.25 74.4822 293.215C74.4822 291.475 73.1472 290.5 71.4522 290.5H67.1172V301.03ZM68.7222 294.835V291.985H71.3622C72.2922 291.985 72.7572 292.645 72.7572 293.455C72.7572 294.235 72.1572 294.835 71.4372 294.835H68.7222ZM68.7522 299.44V296.305H71.5572C72.4722 296.305 73.1172 296.995 73.1172 297.895C73.1172 298.855 72.4722 299.44 71.5572 299.44H68.7522ZM78.6569 301.15C79.4519 301.15 80.3369 300.805 80.8769 300.115V301H82.5419V295.93C82.5419 294.445 81.4769 293.32 79.5719 293.32C77.7419 293.32 76.5269 294.505 76.3919 296.005L78.0719 295.99C78.1469 295.435 78.5969 294.775 79.6469 294.775C80.4119 294.775 80.8769 295.195 80.8769 295.675C80.8769 296.455 79.8119 296.515 78.8519 296.605C77.9969 296.68 77.2769 296.89 76.7819 297.28C76.3169 297.655 76.1219 298.24 76.1219 298.885C76.1219 300.325 77.3219 301.15 78.6569 301.15ZM78.9269 299.77C78.2369 299.725 77.8469 299.305 77.8469 298.78C77.8469 298.195 78.3269 297.88 79.1519 297.805C79.8869 297.745 80.5619 297.64 80.8919 297.46L80.8769 298.135C80.8469 299.32 79.7519 299.815 78.9269 299.77ZM84.5248 301H86.0698V297.205C86.0698 295.36 87.2398 295.03 88.2598 295.045H88.5148V293.38H88.1698C86.7448 293.38 86.2198 294.13 86.0698 294.415V293.5H84.5248V301ZM92.6216 301.165C94.4216 301.165 95.6216 300.1 95.8466 298.63H94.3466C94.0016 299.62 93.1016 299.785 92.6216 299.785C91.4366 299.785 90.6566 299.035 90.6566 297.805V297.79H95.9666C96.1466 295.315 94.8866 293.41 92.5766 293.41C90.4466 293.41 89.0066 294.985 89.0066 297.31C89.0066 299.725 90.4316 301.165 92.6216 301.165ZM90.7016 296.395C90.7616 295.45 91.5266 294.79 92.5316 294.79C93.5366 294.79 94.2416 295.45 94.2866 296.395H90.7016ZM101.849 301H103.514V293.5L106.454 301H107.849L110.744 293.5V301H112.334V290.5H110.369L107.174 298.705L103.889 290.5H101.849V301ZM117.706 301.165C119.506 301.165 120.706 300.1 120.931 298.63H119.431C119.086 299.62 118.186 299.785 117.706 299.785C116.521 299.785 115.741 299.035 115.741 297.805V297.79H121.051C121.231 295.315 119.971 293.41 117.661 293.41C115.531 293.41 114.091 294.985 114.091 297.31C114.091 299.725 115.516 301.165 117.706 301.165ZM115.786 296.395C115.846 295.45 116.611 294.79 117.616 294.79C118.621 294.79 119.326 295.45 119.371 296.395H115.786ZM124.784 301H126.209L126.224 299.59H125.204C124.484 299.59 124.289 299.35 124.289 298.6V294.85H126.209V293.5H124.289V291.1H122.729V293.5H121.559V294.85H122.729V299.005C122.729 300.175 123.584 301 124.784 301ZM129.54 301.15C130.335 301.15 131.22 300.805 131.76 300.115V301H133.425V295.93C133.425 294.445 132.36 293.32 130.455 293.32C128.625 293.32 127.41 294.505 127.275 296.005L128.955 295.99C129.03 295.435 129.48 294.775 130.53 294.775C131.295 294.775 131.76 295.195 131.76 295.675C131.76 296.455 130.695 296.515 129.735 296.605C128.88 296.68 128.16 296.89 127.665 297.28C127.2 297.655 127.005 298.24 127.005 298.885C127.005 300.325 128.205 301.15 129.54 301.15ZM129.81 299.77C129.12 299.725 128.73 299.305 128.73 298.78C128.73 298.195 129.21 297.88 130.035 297.805C130.77 297.745 131.445 297.64 131.775 297.46L131.76 298.135C131.73 299.32 130.635 299.815 129.81 299.77ZM135.408 301H137.088V290.5H135.408V301ZM148.551 303.25H149.826V289.75H148.551V303.25ZM164.101 301H165.646L169.576 290.5H167.896L164.881 298.78L161.866 290.5H160.171L164.101 301ZM171.045 301H172.71V293.5L175.65 301H177.045L179.94 293.5V301H181.53V290.5H179.565L176.37 298.705L173.085 290.5H171.045V301ZM193.135 303.25H194.41V289.75H193.135V303.25ZM209.948 301.075C212.648 301.075 214.283 299.305 214.628 297.235H212.738C212.528 298.3 211.538 299.455 209.918 299.455C208.073 299.455 206.888 297.835 206.888 295.81C206.888 293.74 208.073 292.03 209.978 292.03C211.523 292.03 212.528 293.08 212.738 294.205H214.628C214.313 292.075 212.663 290.395 210.053 290.395C207.113 290.395 205.058 292.705 205.043 295.795C205.028 298.84 207.218 301.075 209.948 301.075ZM219.419 301.075C221.444 301.075 223.034 299.485 223.034 297.25C223.034 294.985 221.444 293.395 219.419 293.395C217.379 293.395 215.789 294.985 215.789 297.25C215.789 299.485 217.379 301.075 219.419 301.075ZM219.404 299.59C218.114 299.59 217.394 298.57 217.394 297.25C217.394 295.9 218.129 294.895 219.419 294.895C220.724 294.895 221.459 295.915 221.459 297.265C221.459 298.585 220.724 299.59 219.404 299.59ZM224.646 301H226.236V297.22C226.236 295.675 227.121 294.73 228.111 294.73C228.951 294.73 229.596 295.255 229.596 296.575V301H231.321V296.395C231.321 293.86 229.521 293.305 228.486 293.305C227.271 293.305 226.521 294.04 226.236 294.445V293.5H224.646V301ZM235.488 301H236.913L236.928 299.59H235.908C235.188 299.59 234.993 299.35 234.993 298.6V294.85H236.913V293.5H234.993V291.1H233.433V293.5H232.263V294.85H233.433V299.005C233.433 300.175 234.288 301 235.488 301ZM240.244 301.15C241.039 301.15 241.924 300.805 242.464 300.115V301H244.129V295.93C244.129 294.445 243.064 293.32 241.159 293.32C239.329 293.32 238.114 294.505 237.979 296.005L239.659 295.99C239.734 295.435 240.184 294.775 241.234 294.775C241.999 294.775 242.464 295.195 242.464 295.675C242.464 296.455 241.399 296.515 240.439 296.605C239.584 296.68 238.864 296.89 238.369 297.28C237.904 297.655 237.709 298.24 237.709 298.885C237.709 300.325 238.909 301.15 240.244 301.15ZM240.514 299.77C239.824 299.725 239.434 299.305 239.434 298.78C239.434 298.195 239.914 297.88 240.739 297.805C241.474 297.745 242.149 297.64 242.479 297.46L242.464 298.135C242.434 299.32 241.339 299.815 240.514 299.77ZM246.037 292.42H247.822V290.5H246.037V292.42ZM246.097 301H247.777V293.5H246.097V301ZM249.888 301H251.478V297.22C251.478 295.675 252.363 294.73 253.353 294.73C254.193 294.73 254.838 295.255 254.838 296.575V301H256.563V296.395C256.563 293.86 254.763 293.305 253.728 293.305C252.513 293.305 251.763 294.04 251.478 294.445V293.5H249.888V301ZM261.72 301.165C263.52 301.165 264.72 300.1 264.945 298.63H263.445C263.1 299.62 262.2 299.785 261.72 299.785C260.535 299.785 259.755 299.035 259.755 297.805V297.79H265.065C265.245 295.315 263.985 293.41 261.675 293.41C259.545 293.41 258.105 294.985 258.105 297.31C258.105 299.725 259.53 301.165 261.72 301.165ZM259.8 296.395C259.86 295.45 260.625 294.79 261.63 294.79C262.635 294.79 263.34 295.45 263.385 296.395H259.8ZM266.699 301H268.244V297.205C268.244 295.36 269.414 295.03 270.434 295.045H270.689V293.38H270.344C268.919 293.38 268.394 294.13 268.244 294.415V293.5H266.699V301ZM280.721 303.25H281.996V289.75H280.721V303.25ZM297.313 301.105C299.563 301.105 301.198 299.905 301.198 297.985C301.198 296.47 300.313 295.24 297.298 294.895C296.008 294.745 295.168 294.25 295.168 293.425C295.168 292.765 295.798 292.03 297.028 292.03C298.168 292.03 299.128 292.645 299.203 293.74H300.973C300.883 291.67 299.413 290.41 297.043 290.41C294.868 290.41 293.293 291.79 293.293 293.485C293.293 294.895 294.328 296.17 297.403 296.5C298.828 296.65 299.323 297.175 299.323 297.97C299.323 298.72 298.618 299.545 297.313 299.545C295.948 299.545 295.123 298.87 294.868 297.76H293.008C293.173 300.01 295.228 301.105 297.313 301.105ZM305.979 301.165C307.779 301.165 308.979 300.1 309.204 298.63H307.704C307.359 299.62 306.459 299.785 305.979 299.785C304.794 299.785 304.014 299.035 304.014 297.805V297.79H309.324C309.504 295.315 308.244 293.41 305.934 293.41C303.804 293.41 302.364 294.985 302.364 297.31C302.364 299.725 303.789 301.165 305.979 301.165ZM304.059 296.395C304.119 295.45 304.884 294.79 305.889 294.79C306.894 294.79 307.599 295.45 307.644 296.395H304.059ZM310.957 301H312.502V297.205C312.502 295.36 313.672 295.03 314.692 295.045H314.947V293.38H314.602C313.177 293.38 312.652 294.13 312.502 294.415V293.5H310.957V301ZM318.504 301H319.779L322.869 293.5H321.129L319.149 298.78L317.139 293.5H315.429L318.504 301ZM326.976 301.165C328.776 301.165 329.976 300.1 330.201 298.63H328.701C328.356 299.62 327.456 299.785 326.976 299.785C325.791 299.785 325.011 299.035 325.011 297.805V297.79H330.321C330.501 295.315 329.241 293.41 326.931 293.41C324.801 293.41 323.361 294.985 323.361 297.31C323.361 299.725 324.786 301.165 326.976 301.165ZM325.056 296.395C325.116 295.45 325.881 294.79 326.886 294.79C327.891 294.79 328.596 295.45 328.641 296.395H325.056ZM331.954 301H333.499V297.205C333.499 295.36 334.669 295.03 335.689 295.045H335.944V293.38H335.599C334.174 293.38 333.649 294.13 333.499 294.415V293.5H331.954V301ZM337.108 301H338.788V290.5H337.108V301ZM344.018 301.165C345.818 301.165 347.018 300.1 347.243 298.63H345.743C345.398 299.62 344.498 299.785 344.018 299.785C342.833 299.785 342.053 299.035 342.053 297.805V297.79H347.363C347.543 295.315 346.283 293.41 343.973 293.41C341.843 293.41 340.403 294.985 340.403 297.31C340.403 299.725 341.828 301.165 344.018 301.165ZM342.098 296.395C342.158 295.45 342.923 294.79 343.928 294.79C344.933 294.79 345.638 295.45 345.683 296.395H342.098ZM351.621 301.165C353.016 301.165 354.546 300.295 354.546 298.735C354.546 297.58 353.856 296.74 351.516 296.455C350.586 296.335 350.241 295.96 350.241 295.555C350.241 295 350.871 294.76 351.456 294.76C351.876 294.76 352.731 294.895 352.896 295.915H354.381C354.231 294.055 352.791 293.365 351.426 293.365C349.701 293.365 348.621 294.4 348.621 295.54C348.621 296.29 348.891 297.4 351.501 297.775C352.641 297.94 352.881 298.33 352.881 298.735C352.881 299.35 352.356 299.815 351.561 299.815C350.766 299.815 350.091 299.38 349.926 298.6H348.396C348.486 300.31 349.926 301.165 351.621 301.165ZM358.708 301.165C360.103 301.165 361.633 300.295 361.633 298.735C361.633 297.58 360.943 296.74 358.603 296.455C357.673 296.335 357.328 295.96 357.328 295.555C357.328 295 357.958 294.76 358.543 294.76C358.963 294.76 359.818 294.895 359.983 295.915H361.468C361.318 294.055 359.878 293.365 358.513 293.365C356.788 293.365 355.708 294.4 355.708 295.54C355.708 296.29 355.978 297.4 358.588 297.775C359.728 297.94 359.968 298.33 359.968 298.735C359.968 299.35 359.443 299.815 358.648 299.815C357.853 299.815 357.178 299.38 357.013 298.6H355.483C355.573 300.31 357.013 301.165 358.708 301.165Z" fill="black"/>
<path d="M102.281 326.15C105.041 326.15 107.261 323.93 107.261 320.78C107.261 317.615 105.041 315.38 102.281 315.38C99.5212 315.38 97.3012 317.6 97.3012 320.75C97.3012 323.915 99.5212 326.15 102.281 326.15ZM102.266 324.545C100.391 324.545 99.0562 322.955 99.0562 320.795C99.0562 318.59 100.391 316.955 102.281 316.955C104.186 316.955 105.536 318.605 105.536 320.825C105.536 322.97 104.186 324.545 102.266 324.545ZM109.026 326H110.571V322.205C110.571 320.36 111.741 320.03 112.761 320.045H113.016V318.38H112.671C111.246 318.38 110.721 319.13 110.571 319.415V318.5H109.026V326ZM117.108 326.105C118.863 326.105 120.258 324.98 120.468 323.375H118.788C118.653 324.05 118.098 324.695 117.138 324.695C116.058 324.695 115.203 323.75 115.203 322.145C115.203 320.615 116.058 319.715 117.108 319.715C118.053 319.715 118.623 320.36 118.788 321.035H120.468C120.273 319.46 118.908 318.35 117.168 318.35C115.023 318.35 113.508 319.97 113.508 322.25C113.508 324.515 114.993 326.105 117.108 326.105ZM122.101 326H123.691V322.22C123.691 320.675 124.576 319.73 125.566 319.73C126.406 319.73 127.051 320.255 127.051 321.575V326H128.776V321.395C128.776 318.86 126.976 318.305 125.941 318.305C124.726 318.305 123.976 319.04 123.691 319.445V315.5H122.101V326ZM133.933 326.165C135.733 326.165 136.933 325.1 137.158 323.63H135.658C135.313 324.62 134.413 324.785 133.933 324.785C132.748 324.785 131.968 324.035 131.968 322.805V322.79H137.278C137.458 320.315 136.198 318.41 133.888 318.41C131.758 318.41 130.318 319.985 130.318 322.31C130.318 324.725 131.743 326.165 133.933 326.165ZM132.013 321.395C132.073 320.45 132.838 319.79 133.843 319.79C134.848 319.79 135.553 320.45 135.598 321.395H132.013ZM141.537 326.165C142.932 326.165 144.462 325.295 144.462 323.735C144.462 322.58 143.772 321.74 141.432 321.455C140.502 321.335 140.157 320.96 140.157 320.555C140.157 320 140.787 319.76 141.372 319.76C141.792 319.76 142.647 319.895 142.812 320.915H144.297C144.147 319.055 142.707 318.365 141.342 318.365C139.617 318.365 138.537 319.4 138.537 320.54C138.537 321.29 138.807 322.4 141.417 322.775C142.557 322.94 142.797 323.33 142.797 323.735C142.797 324.35 142.272 324.815 141.477 324.815C140.682 324.815 140.007 324.38 139.842 323.6H138.312C138.402 325.31 139.842 326.165 141.537 326.165ZM148.098 326H149.523L149.538 324.59H148.518C147.798 324.59 147.603 324.35 147.603 323.6V319.85H149.523V318.5H147.603V316.1H146.043V318.5H144.873V319.85H146.043V324.005C146.043 325.175 146.898 326 148.098 326ZM150.844 326H152.389V322.205C152.389 320.36 153.559 320.03 154.579 320.045H154.834V318.38H154.489C153.064 318.38 152.539 319.13 152.389 319.415V318.5H150.844V326ZM158.007 326.15C158.802 326.15 159.687 325.805 160.227 325.115V326H161.892V320.93C161.892 319.445 160.827 318.32 158.922 318.32C157.092 318.32 155.877 319.505 155.742 321.005L157.422 320.99C157.497 320.435 157.947 319.775 158.997 319.775C159.762 319.775 160.227 320.195 160.227 320.675C160.227 321.455 159.162 321.515 158.202 321.605C157.347 321.68 156.627 321.89 156.132 322.28C155.667 322.655 155.472 323.24 155.472 323.885C155.472 325.325 156.672 326.15 158.007 326.15ZM158.277 324.77C157.587 324.725 157.197 324.305 157.197 323.78C157.197 323.195 157.677 322.88 158.502 322.805C159.237 322.745 159.912 322.64 160.242 322.46L160.227 323.135C160.197 324.32 159.102 324.815 158.277 324.77ZM165.975 326H167.4L167.415 324.59H166.395C165.675 324.59 165.48 324.35 165.48 323.6V319.85H167.4V318.5H165.48V316.1H163.92V318.5H162.75V319.85H163.92V324.005C163.92 325.175 164.775 326 165.975 326ZM171.68 326.075C173.705 326.075 175.295 324.485 175.295 322.25C175.295 319.985 173.705 318.395 171.68 318.395C169.64 318.395 168.05 319.985 168.05 322.25C168.05 324.485 169.64 326.075 171.68 326.075ZM171.665 324.59C170.375 324.59 169.655 323.57 169.655 322.25C169.655 320.9 170.39 319.895 171.68 319.895C172.985 319.895 173.72 320.915 173.72 322.265C173.72 323.585 172.985 324.59 171.665 324.59ZM176.907 326H178.452V322.205C178.452 320.36 179.622 320.03 180.642 320.045H180.897V318.38H180.552C179.127 318.38 178.602 319.13 178.452 319.415V318.5H176.907V326ZM190.929 328.25H192.204V314.75H190.929V328.25ZM207.521 326.105C209.771 326.105 211.406 324.905 211.406 322.985C211.406 321.47 210.521 320.24 207.506 319.895C206.216 319.745 205.376 319.25 205.376 318.425C205.376 317.765 206.006 317.03 207.236 317.03C208.376 317.03 209.336 317.645 209.411 318.74H211.181C211.091 316.67 209.621 315.41 207.251 315.41C205.076 315.41 203.501 316.79 203.501 318.485C203.501 319.895 204.536 321.17 207.611 321.5C209.036 321.65 209.531 322.175 209.531 322.97C209.531 323.72 208.826 324.545 207.521 324.545C206.156 324.545 205.331 323.87 205.076 322.76H203.216C203.381 325.01 205.436 326.105 207.521 326.105ZM216.172 326.105C217.927 326.105 219.322 324.98 219.532 323.375H217.852C217.717 324.05 217.162 324.695 216.202 324.695C215.122 324.695 214.267 323.75 214.267 322.145C214.267 320.615 215.122 319.715 216.172 319.715C217.117 319.715 217.687 320.36 217.852 321.035H219.532C219.337 319.46 217.972 318.35 216.232 318.35C214.087 318.35 212.572 319.97 212.572 322.25C212.572 324.515 214.057 326.105 216.172 326.105ZM221.165 326H222.755V322.22C222.755 320.675 223.64 319.73 224.63 319.73C225.47 319.73 226.115 320.255 226.115 321.575V326H227.84V321.395C227.84 318.86 226.04 318.305 225.005 318.305C223.79 318.305 223.04 319.04 222.755 319.445V315.5H221.165V326ZM232.998 326.165C234.798 326.165 235.998 325.1 236.223 323.63H234.723C234.378 324.62 233.478 324.785 232.998 324.785C231.813 324.785 231.033 324.035 231.033 322.805V322.79H236.343C236.523 320.315 235.263 318.41 232.953 318.41C230.823 318.41 229.383 319.985 229.383 322.31C229.383 324.725 230.808 326.165 232.998 326.165ZM231.078 321.395C231.138 320.45 231.903 319.79 232.908 319.79C233.913 319.79 234.618 320.45 234.663 321.395H231.078ZM240.886 326.165C242.206 326.165 243.061 325.37 243.271 324.965V326H244.786V315.5H243.271V319.565C242.866 319.01 242.101 318.425 240.841 318.425C239.176 318.425 237.451 319.745 237.451 322.295C237.451 324.89 239.311 326.165 240.886 326.165ZM241.186 324.68C239.986 324.68 239.146 323.645 239.146 322.19C239.146 320.84 239.986 319.88 241.186 319.88C242.401 319.88 243.256 320.9 243.256 322.34C243.256 323.705 242.401 324.68 241.186 324.68ZM249.683 326.195C250.898 326.195 251.648 325.46 251.933 325.055V326H253.523V318.5H251.933V322.28C251.933 323.825 251.048 324.77 250.058 324.77C249.218 324.77 248.573 324.245 248.573 322.925V318.5H246.848V323.105C246.848 325.64 248.648 326.195 249.683 326.195ZM255.665 326H257.345V315.5H255.665V326ZM262.576 326.165C264.376 326.165 265.576 325.1 265.801 323.63H264.301C263.956 324.62 263.056 324.785 262.576 324.785C261.391 324.785 260.611 324.035 260.611 322.805V322.79H265.921C266.101 320.315 264.841 318.41 262.531 318.41C260.401 318.41 258.961 319.985 258.961 322.31C258.961 324.725 260.386 326.165 262.576 326.165ZM260.656 321.395C260.716 320.45 261.481 319.79 262.486 319.79C263.491 319.79 264.196 320.45 264.241 321.395H260.656ZM267.554 326H269.099V322.205C269.099 320.36 270.269 320.03 271.289 320.045H271.544V318.38H271.199C269.774 318.38 269.249 319.13 269.099 319.415V318.5H267.554V326ZM281.577 328.25H282.852V314.75H281.577V328.25ZM294.464 326.015H296.084V321.845H298.874C300.779 321.845 302.039 320.495 302.039 318.695C302.039 316.88 300.809 315.485 298.964 315.485L294.464 315.5V326.015ZM296.084 320.42V316.91H298.544C299.579 316.91 300.404 317.51 300.404 318.68C300.404 319.835 299.579 320.42 298.544 320.42H296.084ZM303.201 326L304.176 323.42H308.181L309.171 326H311.046L307.026 315.5H305.346L301.326 325.985L303.201 326ZM304.626 321.92L306.186 317.555L307.731 321.92H304.626ZM313.716 326L314.691 323.42H318.696L319.686 326H321.561L317.541 315.5H315.861L311.841 325.985L313.716 326ZM315.141 321.92L316.701 317.555L318.246 321.92H315.141ZM326.886 326.105C329.136 326.105 330.771 324.905 330.771 322.985C330.771 321.47 329.886 320.24 326.871 319.895C325.581 319.745 324.741 319.25 324.741 318.425C324.741 317.765 325.371 317.03 326.601 317.03C327.741 317.03 328.701 317.645 328.776 318.74H330.546C330.456 316.67 328.986 315.41 326.616 315.41C324.441 315.41 322.866 316.79 322.866 318.485C322.866 319.895 323.901 321.17 326.976 321.5C328.401 321.65 328.896 322.175 328.896 322.97C328.896 323.72 328.191 324.545 326.886 324.545C325.521 324.545 324.696 323.87 324.441 322.76H322.581C322.746 325.01 324.801 326.105 326.886 326.105Z" fill="#CA3066"/>
<mask id="path-69-outside-1" maskUnits="userSpaceOnUse" x="50" y="342" width="70" height="50" fill="black">
<rect fill="white" x="50" y="342" width="70" height="50"/>
<path fill-rule="evenodd" clip-rule="evenodd" d="M118 367C118 379.703 107.703 390 95 390H71C60.5066 390 52 381.493 52 371C52 360.507 60.5066 352 71 352C73.0305 352 74.9866 352.319 76.8211 352.908C81.0287 347.488 87.607 344 95 344C107.703 344 118 354.297 118 367Z"/>
</mask>
<path fill-rule="evenodd" clip-rule="evenodd" d="M118 367C118 379.703 107.703 390 95 390H71C60.5066 390 52 381.493 52 371C52 360.507 60.5066 352 71 352C73.0305 352 74.9866 352.319 76.8211 352.908C81.0287 347.488 87.607 344 95 344C107.703 344 118 354.297 118 367Z" fill="white"/>
<path d="M76.8211 352.908L76.362 354.336C76.9623 354.529 77.6193 354.326 78.0059 353.828L76.8211 352.908ZM95 391.5C108.531 391.5 119.5 380.531 119.5 367H116.5C116.5 378.874 106.874 388.5 95 388.5V391.5ZM95 388.5H71V391.5H95V388.5ZM50.5 371C50.5 382.322 59.6782 391.5 71 391.5V388.5C61.335 388.5 53.5 380.665 53.5 371H50.5ZM71 350.5C59.6782 350.5 50.5 359.678 50.5 371H53.5C53.5 361.335 61.335 353.5 71 353.5V350.5ZM77.2802 351.48C75.2991 350.843 73.1882 350.5 71 350.5V353.5C72.8728 353.5 74.6741 353.794 76.362 354.336L77.2802 351.48ZM95 342.5C87.1241 342.5 80.1158 346.218 75.6362 351.988L78.0059 353.828C81.9417 348.758 88.09 345.5 95 345.5V342.5ZM119.5 367C119.5 353.469 108.531 342.5 95 342.5V345.5C106.874 345.5 116.5 355.126 116.5 367H119.5Z" fill="black" fill-opacity="0.16" mask="url(#path-69-outside-1)"/>
<mask id="path-71-outside-2" maskUnits="userSpaceOnUse" x="136" y="342" width="70" height="50" fill="black">
<rect fill="white" x="136" y="342" width="70" height="50"/>
<path fill-rule="evenodd" clip-rule="evenodd" d="M204 367C204 379.703 193.703 390 181 390H157C146.507 390 138 381.493 138 371C138 360.507 146.507 352 157 352C159.03 352 160.987 352.319 162.821 352.908C167.029 347.488 173.607 344 181 344C193.703 344 204 354.297 204 367Z"/>
</mask>
<path fill-rule="evenodd" clip-rule="evenodd" d="M204 367C204 379.703 193.703 390 181 390H157C146.507 390 138 381.493 138 371C138 360.507 146.507 352 157 352C159.03 352 160.987 352.319 162.821 352.908C167.029 347.488 173.607 344 181 344C193.703 344 204 354.297 204 367Z" fill="white"/>
<path d="M162.821 352.908L162.362 354.336C162.962 354.529 163.619 354.326 164.006 353.828L162.821 352.908ZM181 391.5C194.531 391.5 205.5 380.531 205.5 367H202.5C202.5 378.874 192.874 388.5 181 388.5V391.5ZM181 388.5H157V391.5H181V388.5ZM136.5 371C136.5 382.322 145.678 391.5 157 391.5V388.5C147.335 388.5 139.5 380.665 139.5 371H136.5ZM157 350.5C145.678 350.5 136.5 359.678 136.5 371H139.5C139.5 361.335 147.335 353.5 157 353.5V350.5ZM163.28 351.48C161.299 350.843 159.188 350.5 157 350.5V353.5C158.873 353.5 160.674 353.794 162.362 354.336L163.28 351.48ZM181 342.5C173.124 342.5 166.116 346.218 161.636 351.988L164.006 353.828C167.942 348.758 174.09 345.5 181 345.5V342.5ZM205.5 367C205.5 353.469 194.531 342.5 181 342.5V345.5C192.874 345.5 202.5 355.126 202.5 367H205.5Z" fill="black" fill-opacity="0.16" mask="url(#path-71-outside-2)"/>
<mask id="path-73-outside-3" maskUnits="userSpaceOnUse" x="222" y="342" width="70" height="50" fill="black">
<rect fill="white" x="222" y="342" width="70" height="50"/>
<path fill-rule="evenodd" clip-rule="evenodd" d="M290 367C290 379.703 279.703 390 267 390H243C232.507 390 224 381.493 224 371C224 360.507 232.507 352 243 352C245.03 352 246.987 352.319 248.821 352.908C253.029 347.488 259.607 344 267 344C279.703 344 290 354.297 290 367Z"/>
</mask>
<path fill-rule="evenodd" clip-rule="evenodd" d="M290 367C290 379.703 279.703 390 267 390H243C232.507 390 224 381.493 224 371C224 360.507 232.507 352 243 352C245.03 352 246.987 352.319 248.821 352.908C253.029 347.488 259.607 344 267 344C279.703 344 290 354.297 290 367Z" fill="white"/>
<path d="M248.821 352.908L248.362 354.336C248.962 354.529 249.619 354.326 250.006 353.828L248.821 352.908ZM267 391.5C280.531 391.5 291.5 380.531 291.5 367H288.5C288.5 378.874 278.874 388.5 267 388.5V391.5ZM267 388.5H243V391.5H267V388.5ZM222.5 371C222.5 382.322 231.678 391.5 243 391.5V388.5C233.335 388.5 225.5 380.665 225.5 371H222.5ZM243 350.5C231.678 350.5 222.5 359.678 222.5 371H225.5C225.5 361.335 233.335 353.5 243 353.5V350.5ZM249.28 351.48C247.299 350.843 245.188 350.5 243 350.5V353.5C244.873 353.5 246.674 353.794 248.362 354.336L249.28 351.48ZM267 342.5C259.124 342.5 252.116 346.218 247.636 351.988L250.006 353.828C253.942 348.758 260.09 345.5 267 345.5V342.5ZM291.5 367C291.5 353.469 280.531 342.5 267 342.5V345.5C278.874 345.5 288.5 355.126 288.5 367H291.5Z" fill="black" fill-opacity="0.16" mask="url(#path-73-outside-3)"/>
<mask id="path-75-outside-4" maskUnits="userSpaceOnUse" x="308" y="342" width="70" height="50" fill="black">
<rect fill="white" x="308" y="342" width="70" height="50"/>
<path fill-rule="evenodd" clip-rule="evenodd" d="M376 367C376 379.703 365.703 390 353 390H329C318.507 390 310 381.493 310 371C310 360.507 318.507 352 329 352C331.03 352 332.987 352.319 334.821 352.908C339.029 347.488 345.607 344 353 344C365.703 344 376 354.297 376 367Z"/>
</mask>
<path fill-rule="evenodd" clip-rule="evenodd" d="M376 367C376 379.703 365.703 390 353 390H329C318.507 390 310 381.493 310 371C310 360.507 318.507 352 329 352C331.03 352 332.987 352.319 334.821 352.908C339.029 347.488 345.607 344 353 344C365.703 344 376 354.297 376 367Z" fill="white"/>
<path d="M334.821 352.908L334.362 354.336C334.962 354.529 335.619 354.326 336.006 353.828L334.821 352.908ZM353 391.5C366.531 391.5 377.5 380.531 377.5 367H374.5C374.5 378.874 364.874 388.5 353 388.5V391.5ZM353 388.5H329V391.5H353V388.5ZM308.5 371C308.5 382.322 317.678 391.5 329 391.5V388.5C319.335 388.5 311.5 380.665 311.5 371H308.5ZM329 350.5C317.678 350.5 308.5 359.678 308.5 371H311.5C311.5 361.335 319.335 353.5 329 353.5V350.5ZM335.28 351.48C333.299 350.843 331.188 350.5 329 350.5V353.5C330.873 353.5 332.674 353.794 334.362 354.336L335.28 351.48ZM353 342.5C345.124 342.5 338.116 346.218 333.636 351.988L336.006 353.828C339.942 348.758 346.09 345.5 353 345.5V342.5ZM377.5 367C377.5 353.469 366.531 342.5 353 342.5V345.5C364.874 345.5 374.5 355.126 374.5 367H377.5Z" fill="black" fill-opacity="0.16" mask="url(#path-75-outside-4)"/>
<path d="M67.4348 375L68.4098 372.42H72.4148L73.4048 375H75.2798L71.2598 364.5H69.5798L65.5598 374.985L67.4348 375ZM68.8598 370.92L70.4198 366.555L71.9648 370.92H68.8598ZM76.2244 375H82.3294V373.53H78.1744L82.3294 368.955V367.5L76.2244 367.485V368.955H80.3794L76.2244 373.53V375ZM86.8454 375.195C88.0604 375.195 88.8104 374.46 89.0954 374.055V375H90.6854V367.5H89.0954V371.28C89.0954 372.825 88.2104 373.77 87.2204 373.77C86.3804 373.77 85.7354 373.245 85.7354 371.925V367.5H84.0104V372.105C84.0104 374.64 85.8104 375.195 86.8454 375.195ZM92.8275 375H94.3725V371.205C94.3725 369.36 95.5425 369.03 96.5625 369.045H96.8175V367.38H96.4725C95.0475 367.38 94.5225 368.13 94.3725 368.415V367.5H92.8275V375ZM100.924 375.165C102.724 375.165 103.924 374.1 104.149 372.63H102.649C102.304 373.62 101.404 373.785 100.924 373.785C99.7394 373.785 98.9594 373.035 98.9594 371.805V371.79H104.269C104.449 369.315 103.189 367.41 100.879 367.41C98.7494 367.41 97.3094 368.985 97.3094 371.31C97.3094 373.725 98.7344 375.165 100.924 375.165ZM99.0044 370.395C99.0644 369.45 99.8294 368.79 100.834 368.79C101.839 368.79 102.544 369.45 102.589 370.395H99.0044Z" fill="black"/>
<path d="M160.804 375.075C162.064 375.075 163.294 374.535 163.969 373.455L164.089 375H165.529V369.6H160.804V371.16H163.804C163.399 372.81 162.079 373.44 160.834 373.455C158.989 373.47 157.789 371.835 157.789 369.81C157.789 367.74 158.974 366.03 160.879 366.03C162.424 366.03 163.429 367.08 163.639 368.205H165.529C165.214 366.075 163.564 364.395 160.954 364.395C158.014 364.395 155.959 366.705 155.944 369.795C155.929 372.84 158.014 375.075 160.804 375.075ZM172.272 375.075C174.972 375.075 176.607 373.305 176.952 371.235H175.062C174.852 372.3 173.862 373.455 172.242 373.455C170.397 373.455 169.212 371.835 169.212 369.81C169.212 367.74 170.397 366.03 172.302 366.03C173.847 366.03 174.852 367.08 175.062 368.205H176.952C176.637 366.075 174.987 364.395 172.377 364.395C169.437 364.395 167.382 366.705 167.367 369.795C167.352 372.84 169.542 375.075 172.272 375.075ZM178.787 375.015H180.407V370.845H183.197C185.102 370.845 186.362 369.495 186.362 367.695C186.362 365.88 185.132 364.485 183.287 364.485L178.787 364.5V375.015ZM180.407 369.42V365.91H182.867C183.902 365.91 184.727 366.51 184.727 367.68C184.727 368.835 183.902 369.42 182.867 369.42H180.407Z" fill="black"/>
<path d="M242.061 375L243.036 372.42H247.041L248.031 375H249.906L245.886 364.5H244.206L240.186 374.985L242.061 375ZM243.486 370.92L245.046 366.555L246.591 370.92H243.486ZM253.806 375H255.351L257.556 366.975L259.881 375H261.426L264.456 364.5H262.776L260.661 372.645L258.336 364.5H256.776L254.586 372.645L252.321 364.5H250.626L253.806 375ZM269.701 375.105C271.951 375.105 273.586 373.905 273.586 371.985C273.586 370.47 272.701 369.24 269.686 368.895C268.396 368.745 267.556 368.25 267.556 367.425C267.556 366.765 268.186 366.03 269.416 366.03C270.556 366.03 271.516 366.645 271.591 367.74H273.361C273.271 365.67 271.801 364.41 269.431 364.41C267.256 364.41 265.681 365.79 265.681 367.485C265.681 368.895 266.716 370.17 269.791 370.5C271.216 370.65 271.711 371.175 271.711 371.97C271.711 372.72 271.006 373.545 269.701 373.545C268.336 373.545 267.511 372.87 267.256 371.76H265.396C265.561 374.01 267.616 375.105 269.701 375.105Z" fill="black"/>
<path d="M319.746 375H321.291L325.221 364.5H323.541L320.526 372.78L317.511 364.5H315.816L319.746 375ZM326.69 375H328.355V367.5L331.295 375H332.69L335.585 367.5V375H337.175V364.5H335.21L332.015 372.705L328.73 364.5H326.69V375ZM341.032 375H342.607L344.002 370.365L345.382 375H346.957L349.447 367.5H347.707L346.177 372.78L344.617 367.5H343.357L341.827 372.78L340.267 367.5H338.557L341.032 375ZM352.553 375.15C353.348 375.15 354.233 374.805 354.773 374.115V375H356.438V369.93C356.438 368.445 355.373 367.32 353.468 367.32C351.638 367.32 350.423 368.505 350.288 370.005L351.968 369.99C352.043 369.435 352.493 368.775 353.543 368.775C354.308 368.775 354.773 369.195 354.773 369.675C354.773 370.455 353.708 370.515 352.748 370.605C351.893 370.68 351.173 370.89 350.678 371.28C350.213 371.655 350.018 372.24 350.018 372.885C350.018 374.325 351.218 375.15 352.553 375.15ZM352.823 373.77C352.133 373.725 351.743 373.305 351.743 372.78C351.743 372.195 352.223 371.88 353.048 371.805C353.783 371.745 354.458 371.64 354.788 371.46L354.773 372.135C354.743 373.32 353.648 373.815 352.823 373.77ZM358.421 375H359.966V371.205C359.966 369.36 361.136 369.03 362.156 369.045H362.411V367.38H362.066C360.641 367.38 360.116 368.13 359.966 368.415V367.5H358.421V375ZM366.518 375.165C368.318 375.165 369.518 374.1 369.743 372.63H368.243C367.898 373.62 366.998 373.785 366.518 373.785C365.333 373.785 364.553 373.035 364.553 371.805V371.79H369.863C370.043 369.315 368.783 367.41 366.473 367.41C364.343 367.41 362.903 368.985 362.903 371.31C362.903 373.725 364.328 375.165 366.518 375.165ZM364.598 370.395C364.658 369.45 365.423 368.79 366.428 368.79C367.433 368.79 368.138 369.45 368.183 370.395H364.598Z" fill="black"/>
<rect width="46" height="46" rx="2" transform="matrix(-1 0 0 1 309 49)" fill="white"/>
<rect x="0.75" y="-0.75" width="47.5" height="47.5" rx="2.75" transform="matrix(-1 0 0 1 310.5 49)" stroke="black" stroke-opacity="0.16" stroke-width="1.5"/>
<path fill-rule="evenodd" clip-rule="evenodd" d="M286 82C291.523 82 296 77.5228 296 72C296 66.4772 291.523 62 286 62C280.477 62 276 66.4772 276 72C276 77.5228 280.477 82 286 82Z" stroke="black" stroke-width="1.5" stroke-linecap="round" stroke-linejoin="round"/>
<path d="M283.88 69.8808L289.959 67.7939L287.872 73.8731L281.793 75.96L283.88 69.8808Z" stroke="black" stroke-width="1.5" stroke-linecap="round" stroke-linejoin="round"/>
<rect width="46" height="46" rx="2" transform="matrix(-1 0 0 1 77 49)" fill="white"/>
<rect x="0.75" y="-0.75" width="47.5" height="47.5" rx="2.75" transform="matrix(-1 0 0 1 78.5 49)" stroke="black" stroke-opacity="0.16" stroke-width="1.5"/>
<path d="M64 71H60L57 80L51 62L48 71H44" stroke="black" stroke-width="1.5" stroke-linecap="round" stroke-linejoin="round"/>
<path opacity="0.15" d="M434 234H590" stroke="black" stroke-width="1.5"/>
<rect width="120" height="18" transform="translate(470 224)" fill="white"/>
<path d="M483.259 238.168C485.479 238.168 486.895 236.812 487.279 235.468L485.683 235.06C485.407 235.888 484.507 236.62 483.235 236.62C481.579 236.62 480.523 235.288 480.523 233.776C480.523 232.264 481.579 230.98 483.235 230.98C484.507 230.98 485.407 231.736 485.683 232.552L487.291 232.156C486.907 230.824 485.491 229.432 483.223 229.432C480.727 229.432 478.843 231.316 478.843 233.788C478.843 236.272 480.727 238.168 483.259 238.168ZM493.225 238.168C495.757 238.168 497.629 236.272 497.629 233.788C497.629 231.316 495.757 229.432 493.225 229.432C490.681 229.432 488.809 231.316 488.809 233.788C488.809 236.272 490.681 238.168 493.225 238.168ZM493.225 236.644C491.557 236.644 490.477 235.396 490.477 233.788C490.477 232.216 491.557 230.956 493.225 230.956C494.881 230.956 495.973 232.216 495.973 233.788C495.973 235.396 494.881 236.644 493.225 236.644ZM505.137 229.6V235.048L500.913 229.6H499.557V238H501.201V232.54L505.425 238H506.781V229.6H505.137ZM515.75 229.6H508.466V231.088H511.286V238H512.93V231.088H515.75V229.6ZM522.754 238H524.65L522.562 234.892C523.75 234.484 524.398 233.44 524.398 232.336C524.398 231.004 523.342 229.6 521.518 229.6H517.426V238H519.058V235.06H520.846L522.754 238ZM519.058 231.076H521.47C522.25 231.076 522.802 231.664 522.802 232.336C522.802 233.032 522.262 233.62 521.41 233.62H519.058V231.076ZM530.441 238.168C532.973 238.168 534.845 236.272 534.845 233.788C534.845 231.316 532.973 229.432 530.441 229.432C527.897 229.432 526.025 231.316 526.025 233.788C526.025 236.272 527.897 238.168 530.441 238.168ZM530.441 236.644C528.773 236.644 527.693 235.396 527.693 233.788C527.693 232.216 528.773 230.956 530.441 230.956C532.097 230.956 533.189 232.216 533.189 233.788C533.189 235.396 532.097 236.644 530.441 236.644ZM538.417 236.488V229.6H536.773V238H542.605V236.488H538.417ZM551.992 229.6H548.056V238H549.688V235.432H551.92C553.852 235.432 554.908 233.932 554.908 232.516C554.908 231.124 553.84 229.6 551.992 229.6ZM551.872 233.968H549.688V231.088H551.944C552.748 231.088 553.312 231.784 553.312 232.528C553.312 233.26 552.76 233.968 551.872 233.968ZM558.295 236.488V229.6H556.651V238H562.483V236.488H558.295ZM570.511 238H572.227L568.999 229.6H566.863L563.647 238H565.351L566.047 236.176H569.827L570.511 238ZM566.587 234.724L567.931 231.172L569.275 234.724H566.587ZM579.339 229.6V235.048L575.115 229.6H573.759V238H575.403V232.54L579.627 238H580.983V229.6H579.339ZM589.46 231.088V229.6H583.268V238H589.448V236.512H584.876V234.448H588.848V233.008H584.876V231.088H589.46Z" fill="black"/>
<path opacity="0.15" d="M434 325H590" stroke="black" stroke-width="1.5"/>
<rect width="79" height="18" transform="translate(511 315)" fill="white"/>
<path d="M524.332 320.6H520.396V329H522.028V326.432H524.26C526.192 326.432 527.248 324.932 527.248 323.516C527.248 322.124 526.18 320.6 524.332 320.6ZM524.212 324.968H522.028V322.088H524.284C525.088 322.088 525.652 322.784 525.652 323.528C525.652 324.26 525.1 324.968 524.212 324.968ZM530.635 327.488V320.6H528.991V329H534.823V327.488H530.635ZM542.851 329H544.567L541.339 320.6H539.203L535.987 329H537.691L538.387 327.176H542.167L542.851 329ZM538.927 325.724L540.271 322.172L541.615 325.724H538.927ZM551.764 320.6H544.48V322.088H547.3V329H548.944V322.088H551.764V320.6ZM559.548 322.1V320.6H553.44V329H555.084V325.664H558.936V324.188H555.084V322.1H559.548ZM565.189 329.168C567.721 329.168 569.593 327.272 569.593 324.788C569.593 322.316 567.721 320.432 565.189 320.432C562.645 320.432 560.773 322.316 560.773 324.788C560.773 327.272 562.645 329.168 565.189 329.168ZM565.189 327.644C563.521 327.644 562.441 326.396 562.441 324.788C562.441 323.216 563.521 321.956 565.189 321.956C566.845 321.956 567.937 323.216 567.937 324.788C567.937 326.396 566.845 327.644 565.189 327.644ZM576.849 329H578.745L576.657 325.892C577.845 325.484 578.493 324.44 578.493 323.336C578.493 322.004 577.437 320.6 575.613 320.6H571.521V329H573.153V326.06H574.941L576.849 329ZM573.153 322.076H575.565C576.345 322.076 576.897 322.664 576.897 323.336C576.897 324.032 576.357 324.62 575.505 324.62H573.153V322.076ZM587.653 320.6L584.905 324.572L582.157 320.6H580.585V329H582.229V323.468L584.905 327.176L587.581 323.468V329H589.225V320.6H587.653Z" fill="black"/>
<path d="M214.177 251.901C211.206 251.903 208.278 251.18 205.649 249.795C203.02 248.41 200.769 246.403 199.091 243.951C197.414 241.498 196.36 238.673 196.021 235.721C195.683 232.769 196.07 229.778 197.149 227.009C198.228 224.241 199.967 221.777 202.214 219.833C204.461 217.888 207.149 216.522 210.044 215.851C212.939 215.181 215.954 215.228 218.827 215.987C221.7 216.746 224.344 218.195 226.531 220.208L222.197 224.741C220.474 223.185 218.337 222.162 216.045 221.796C213.752 221.43 211.403 221.737 209.281 222.679C207.16 223.622 205.357 225.16 204.092 227.106C202.827 229.053 202.154 231.324 202.154 233.646C202.154 235.967 202.827 238.239 204.092 240.186C205.357 242.132 207.16 243.67 209.281 244.612C211.403 245.555 213.752 245.862 216.045 245.496C218.337 245.13 220.474 244.107 222.197 242.551L226.531 247.084C223.164 250.185 218.754 251.905 214.177 251.901Z" fill="white"/>
<path d="M228.87 242.767C228.574 242.767 228.284 242.679 228.038 242.515C227.792 242.35 227.6 242.116 227.487 241.843C227.374 241.569 227.344 241.268 227.402 240.978C227.46 240.688 227.602 240.421 227.811 240.212C228.021 240.002 228.287 239.86 228.578 239.802C228.868 239.744 229.169 239.774 229.442 239.887C229.716 240.001 229.95 240.192 230.114 240.439C230.279 240.685 230.366 240.974 230.366 241.27C230.366 241.667 230.208 242.047 229.927 242.327C229.647 242.608 229.266 242.766 228.87 242.767Z" fill="white"/>
<path d="M214.061 237.597C213.278 237.6 212.511 237.371 211.858 236.938C211.205 236.505 210.695 235.888 210.394 235.165C210.092 234.442 210.011 233.646 210.162 232.877C210.313 232.109 210.689 231.402 211.242 230.847C211.795 230.292 212.5 229.914 213.269 229.76C214.037 229.607 214.833 229.685 215.557 229.984C216.281 230.284 216.9 230.791 217.335 231.443C217.77 232.094 218.002 232.86 218.001 233.644C217.999 234.689 217.584 235.692 216.846 236.432C216.108 237.173 215.107 237.592 214.061 237.597Z" fill="white"/>
<path d="M230.587 237.667C230.29 237.667 230.001 237.579 229.755 237.415C229.509 237.25 229.317 237.017 229.204 236.743C229.09 236.47 229.061 236.169 229.119 235.879C229.176 235.588 229.319 235.322 229.528 235.112C229.738 234.903 230.004 234.76 230.295 234.703C230.585 234.645 230.886 234.674 231.159 234.788C231.433 234.901 231.666 235.093 231.831 235.339C231.995 235.585 232.083 235.874 232.083 236.17C232.082 236.567 231.924 236.947 231.644 237.228C231.363 237.508 230.983 237.666 230.587 237.667Z" fill="white"/>
<path d="M226.137 237.48C225.84 237.48 225.55 237.391 225.304 237.226C225.058 237.061 224.866 236.826 224.753 236.552C224.64 236.277 224.612 235.976 224.671 235.685C224.73 235.394 224.874 235.127 225.085 234.919C225.296 234.71 225.564 234.569 225.856 234.513C226.147 234.457 226.448 234.489 226.722 234.605C226.995 234.721 227.227 234.915 227.39 235.164C227.552 235.412 227.637 235.703 227.634 236C227.629 236.394 227.47 236.77 227.19 237.047C226.909 237.324 226.531 237.48 226.137 237.48Z" fill="white"/>
<path d="M230.587 232.624C230.29 232.624 230.001 232.536 229.755 232.372C229.509 232.208 229.317 231.974 229.204 231.7C229.09 231.427 229.061 231.126 229.119 230.836C229.176 230.545 229.319 230.279 229.528 230.069C229.738 229.86 230.004 229.717 230.295 229.66C230.585 229.602 230.886 229.632 231.159 229.745C231.433 229.858 231.666 230.05 231.831 230.296C231.995 230.542 232.083 230.832 232.083 231.128C232.082 231.524 231.924 231.904 231.644 232.185C231.363 232.465 230.983 232.623 230.587 232.624Z" fill="white"/>
<path d="M226.137 232.794C225.841 232.794 225.552 232.706 225.306 232.542C225.06 232.377 224.868 232.144 224.755 231.87C224.641 231.597 224.612 231.296 224.669 231.005C224.727 230.715 224.87 230.448 225.079 230.239C225.288 230.03 225.555 229.887 225.845 229.83C226.136 229.772 226.437 229.801 226.71 229.915C226.984 230.028 227.217 230.22 227.382 230.466C227.546 230.712 227.634 231.001 227.634 231.297C227.634 231.694 227.476 232.075 227.196 232.356C226.915 232.636 226.534 232.794 226.137 232.794Z" fill="white"/>
<path d="M228.957 227.591C228.661 227.592 228.371 227.504 228.125 227.34C227.878 227.176 227.686 226.943 227.572 226.669C227.458 226.396 227.428 226.095 227.485 225.804C227.543 225.514 227.685 225.247 227.894 225.037C228.103 224.828 228.37 224.685 228.66 224.627C228.951 224.569 229.252 224.598 229.526 224.711C229.799 224.824 230.033 225.016 230.198 225.262C230.363 225.509 230.45 225.798 230.45 226.094C230.45 226.491 230.293 226.871 230.013 227.151C229.733 227.432 229.353 227.59 228.957 227.591Z" fill="white"/>
<path opacity="0.15" d="M10 10H198" stroke="black" stroke-width="1.5"/>
<rect width="120" height="18" transform="translate(44)" fill="white"/>
<path d="M56.8971 14.168C59.4291 14.168 61.3011 12.272 61.3011 9.788C61.3011 7.316 59.4291 5.432 56.8971 5.432C54.3531 5.432 52.4811 7.316 52.4811 9.788C52.4811 12.272 54.3531 14.168 56.8971 14.168ZM56.8971 12.644C55.2291 12.644 54.1491 11.396 54.1491 9.788C54.1491 8.216 55.2291 6.956 56.8971 6.956C58.5531 6.956 59.6451 8.216 59.6451 9.788C59.6451 11.396 58.5531 12.644 56.8971 12.644ZM68.9648 9.596C69.6128 9.248 70.0088 8.648 70.0088 7.844C69.9968 6.512 68.8808 5.6 67.2368 5.6H63.2288V14H67.4648C69.2528 14 70.3208 13.064 70.3208 11.624C70.3208 10.676 69.7928 9.968 68.9648 9.596ZM67.2248 7.016C67.9208 7.004 68.3888 7.448 68.3888 8.036C68.4008 8.612 67.9448 9.092 67.2608 9.092H64.8368V7.016H67.2248ZM67.4528 12.572H64.8368V10.388H67.4648C68.2448 10.388 68.6888 10.868 68.6888 11.468C68.6888 12.08 68.2328 12.572 67.4528 12.572ZM75.6191 14.168C77.6351 14.168 78.9791 13.004 78.9791 11.564C78.9791 10.196 78.0071 9.656 76.7231 9.26L74.6351 8.588C74.0831 8.42 73.8311 8.168 73.8311 7.796C73.8311 7.304 74.3591 6.884 75.1871 6.884C76.1351 6.884 76.9151 7.352 77.2631 8.036L78.7871 7.592C78.3311 6.428 76.9871 5.432 75.1751 5.432C73.4231 5.432 72.1511 6.536 72.1631 7.844C72.1511 8.924 72.9551 9.632 74.0591 9.98L76.2071 10.652C77.0111 10.916 77.3111 11.216 77.3111 11.66C77.3111 12.212 76.6991 12.716 75.7151 12.716C74.5031 12.716 73.6511 12.02 73.3151 11.144L71.7431 11.624C72.2111 12.932 73.5671 14.168 75.6191 14.168ZM87.1147 7.088V5.6H80.9227V14H87.1027V12.512H82.5307V10.448H86.5027V9.008H82.5307V7.088H87.1147ZM94.4825 14H96.3785L94.2905 10.892C95.4785 10.484 96.1265 9.44 96.1265 8.336C96.1265 7.004 95.0705 5.6 93.2465 5.6H89.1545V14H90.7865V11.06H92.5745L94.4825 14ZM90.7865 7.076H93.1985C93.9785 7.076 94.5305 7.664 94.5305 8.336C94.5305 9.032 93.9905 9.62 93.1385 9.62H90.7865V7.076ZM103.899 5.6L101.499 11.912L99.0993 5.6H97.2873L100.599 14H102.399L105.711 5.6H103.899ZM112.465 14H114.181L110.953 5.6H108.817L105.601 14H107.305L108.001 12.176H111.781L112.465 14ZM108.541 10.724L109.885 7.172L111.229 10.724H108.541ZM121.449 9.596C122.097 9.248 122.493 8.648 122.493 7.844C122.481 6.512 121.365 5.6 119.721 5.6H115.713V14H119.949C121.737 14 122.805 13.064 122.805 11.624C122.805 10.676 122.277 9.968 121.449 9.596ZM119.709 7.016C120.405 7.004 120.873 7.448 120.873 8.036C120.885 8.612 120.429 9.092 119.745 9.092H117.321V7.016H119.709ZM119.937 12.572H117.321V10.388H119.949C120.729 10.388 121.173 10.868 121.173 11.468C121.173 12.08 120.717 12.572 119.937 12.572ZM124.741 14H126.409V5.6H124.741V14ZM130.328 12.488V5.6H128.684V14H134.516V12.488H130.328ZM136.295 14H137.963V5.6H136.295V14ZM146.921 5.6H139.637V7.088H142.457V14H144.101V7.088H146.921V5.6ZM154.058 5.6L151.898 9.332L149.726 5.6H147.866L151.058 10.916V14H152.726V10.916L155.906 5.6H154.058Z" fill="black"/>
<path opacity="0.15" d="M232 10H420" stroke="black" stroke-width="1.5"/>
<rect width="69" height="18" transform="translate(291.5)" fill="white"/>
<path d="M302.194 12.488V5.6H300.55V14H306.382V12.488H302.194ZM314.41 14H316.126L312.898 5.6H310.762L307.546 14H309.25L309.946 12.176H313.726L314.41 14ZM310.486 10.724L311.83 7.172L313.174 10.724H310.486ZM322.157 5.6L319.997 9.332L317.825 5.6H315.965L319.157 10.916V14H320.825V10.916L324.005 5.6H322.157ZM331.742 7.088V5.6H325.55V14H331.73V12.512H327.158V10.448H331.13V9.008H327.158V7.088H331.742ZM339.109 14H341.005L338.917 10.892C340.105 10.484 340.753 9.44 340.753 8.336C340.753 7.004 339.697 5.6 337.873 5.6H333.781V14H335.413V11.06H337.201L339.109 14ZM335.413 7.076H337.825C338.605 7.076 339.157 7.664 339.157 8.336C339.157 9.032 338.617 9.62 337.765 9.62H335.413V7.076ZM345.93 5.6V7.088H350.082L347.034 14H348.786L351.966 6.74V5.6H345.93Z" fill="black"/>
<rect width="114" height="18" transform="translate(269 18)" fill="white"/>
<path d="M277.896 32H279.564V23.6H277.896V32ZM287.419 23.6V29.048L283.195 23.6H281.839V32H283.483V26.54L287.707 32H289.063V23.6H287.419ZM298.032 23.6H290.748V25.088H293.568V32H295.212V25.088H298.032V23.6ZM305.901 25.088V23.6H299.709V32H305.889V30.512H301.317V28.448H305.289V27.008H301.317V25.088H305.901ZM316.14 27.332H311.856V28.748H314.436C314.292 29.792 313.428 30.632 312.012 30.632C310.128 30.632 309.084 29.288 309.084 27.776C309.084 26.264 310.188 24.98 311.832 24.98C313.128 24.98 313.908 25.568 314.328 26.432L315.852 26C315.324 24.596 313.896 23.432 311.82 23.432C309.324 23.432 307.416 25.316 307.416 27.788C307.416 30.272 309.312 32.168 311.892 32.168C314.412 32.168 316.14 30.548 316.14 28.172V27.332ZM323.398 32H325.294L323.206 28.892C324.394 28.484 325.042 27.44 325.042 26.336C325.042 25.004 323.986 23.6 322.162 23.6H318.07V32H319.702V29.06H321.49L323.398 32ZM319.702 25.076H322.114C322.894 25.076 323.446 25.664 323.446 26.336C323.446 27.032 322.906 27.62 322.054 27.62H319.702V25.076ZM333.208 32H334.924L331.696 23.6H329.56L326.344 32H328.048L328.744 30.176H332.524L333.208 32ZM329.284 28.724L330.628 25.172L331.972 28.724H329.284ZM342.12 23.6H334.836V25.088H337.656V32H339.3V25.088H342.12V23.6ZM343.797 32H345.465V23.6H343.797V32ZM351.807 32.168C354.339 32.168 356.211 30.272 356.211 27.788C356.211 25.316 354.339 23.432 351.807 23.432C349.263 23.432 347.391 25.316 347.391 27.788C347.391 30.272 349.263 32.168 351.807 32.168ZM351.807 30.644C350.139 30.644 349.059 29.396 349.059 27.788C349.059 26.216 350.139 24.956 351.807 24.956C353.463 24.956 354.555 26.216 354.555 27.788C354.555 29.396 353.463 30.644 351.807 30.644ZM363.719 23.6V29.048L359.495 23.6H358.139V32H359.783V26.54L364.007 32H365.363V23.6H363.719ZM371.08 32.168C373.096 32.168 374.44 31.004 374.44 29.564C374.44 28.196 373.468 27.656 372.184 27.26L370.096 26.588C369.544 26.42 369.292 26.168 369.292 25.796C369.292 25.304 369.82 24.884 370.648 24.884C371.596 24.884 372.376 25.352 372.724 26.036L374.248 25.592C373.792 24.428 372.448 23.432 370.636 23.432C368.884 23.432 367.612 24.536 367.624 25.844C367.612 26.924 368.416 27.632 369.52 27.98L371.668 28.652C372.472 28.916 372.772 29.216 372.772 29.66C372.772 30.212 372.16 30.716 371.176 30.716C369.964 30.716 369.112 30.02 368.776 29.144L367.204 29.624C367.672 30.932 369.028 32.168 371.08 32.168Z" fill="black"/>
</svg>
