<svg width="592" height="189" viewBox="0 0 592 189" fill="none" xmlns="http://www.w3.org/2000/svg">
<rect width="592" height="189" fill="white"/>
<line x1="296" y1="59" x2="296" y2="127" stroke="#343536" stroke-width="2"/>
<path d="M296 57.3L290.9 66L301.1 66L296 57.3Z" fill="#343536"/>
<path d="M296 127C294.343 127 293 125.657 293 124C293 122.343 294.343 121 296 121C297.657 121 299 122.343 299 124C299 125.657 297.657 127 296 127Z" fill="white" stroke="#343536" stroke-width="2" stroke-linecap="round" stroke-linejoin="round"/>
<line x1="440" y1="59" x2="440" y2="127" stroke="#343536" stroke-width="2"/>
<path d="M440 57.3L434.9 66L445.1 66L440 57.3Z" fill="#343536"/>
<path d="M440 127C438.343 127 437 125.657 437 124C437 122.343 438.343 121 440 121C441.657 121 443 122.343 443 124C443 125.657 441.657 127 440 127Z" fill="white" stroke="#343536" stroke-width="2" stroke-linecap="round" stroke-linejoin="round"/>
<line x1="152" y1="59" x2="152" y2="127" stroke="#343536" stroke-width="2"/>
<path d="M152 57.3L146.9 66L157.1 66L152 57.3Z" fill="#343536"/>
<path d="M152 127C150.343 127 149 125.657 149 124C149 122.343 150.343 121 152 121C153.657 121 155 122.343 155 124C155 125.657 153.657 127 152 127Z" fill="white" stroke="#343536" stroke-width="2" stroke-linecap="round" stroke-linejoin="round"/>
<line x1="262" y1="25" x2="186" y2="25" stroke="#DC477D" stroke-width="2"/>
<path d="M263.7 25.0004L255 19.9004L255 30.1004L263.7 25.0004Z" fill="#DC477D"/>
<path d="M184.3 24.9996L193 30.0996L193 19.8996L184.3 24.9996Z" fill="#DC477D"/>
<line x1="406" y1="25" x2="330" y2="25" stroke="#DC477D" stroke-width="2"/>
<path d="M407.7 25.0004L399 19.9004L399 30.1004L407.7 25.0004Z" fill="#DC477D"/>
<path d="M328.3 24.9996L337 30.0996L337 19.8996L328.3 24.9996Z" fill="#DC477D"/>
<rect x="273" y="138" width="46" height="46" rx="2" fill="white"/>
<rect x="272.25" y="137.25" width="47.5" height="47.5" rx="2.75" stroke="black" stroke-opacity="0.16" stroke-width="1.5"/>
<rect x="272" y="1" width="48" height="48" rx="2" fill="#DC477D"/>
<rect x="417" y="138" width="46" height="46" rx="2" fill="white"/>
<rect x="416.25" y="137.25" width="47.5" height="47.5" rx="2.75" stroke="black" stroke-opacity="0.16" stroke-width="1.5"/>
<rect x="416" y="1" width="48" height="48" rx="2" fill="#DC477D"/>
<rect x="129" y="138" width="46" height="46" rx="2" fill="white"/>
<rect x="128.25" y="137.25" width="47.5" height="47.5" rx="2.75" stroke="black" stroke-opacity="0.16" stroke-width="1.5"/>
<rect x="128" y="1" width="48" height="48" rx="2" fill="#DC477D"/>
<rect opacity="0.9" x="136" y="145" width="8" height="8" fill="#343536"/>
<rect opacity="0.9" x="280" y="145" width="8" height="8" fill="#343536"/>
<rect x="424" y="145" width="8" height="8" fill="#727274"/>
<rect x="136" y="157" width="8" height="8" fill="#1D1E1F"/>
<rect x="280" y="157" width="8" height="8" fill="#1D1E1F"/>
<rect x="424" y="157" width="8" height="8" fill="#1D1E1F"/>
<rect x="136" y="169" width="8" height="8" fill="#727274"/>
<rect opacity="0.9" x="424" y="169" width="8" height="8" fill="#343536"/>
<rect x="148" y="145" width="8" height="8" fill="#727274"/>
<rect x="292" y="145" width="8" height="8" fill="#727274"/>
<rect opacity="0.9" x="436" y="145" width="8" height="8" fill="#343536"/>
<rect opacity="0.9" x="148" y="157" width="8" height="8" fill="#343536"/>
<rect opacity="0.9" x="292" y="157" width="8" height="8" fill="#343536"/>
<rect x="436" y="157" width="8" height="8" fill="#727274"/>
<rect x="148" y="169" width="8" height="8" fill="#1D1E1F"/>
<rect x="436" y="169" width="8" height="8" fill="#1D1E1F"/>
<rect x="160" y="145" width="8" height="8" fill="#1D1E1F"/>
<rect x="304" y="145" width="8" height="8" fill="#1D1E1F"/>
<rect x="160" y="157" width="8" height="8" fill="#727274"/>
<rect opacity="0.9" x="304" y="157" width="8" height="8" fill="#343536"/>
<rect opacity="0.9" x="448" y="157" width="8" height="8" fill="#343536"/>
<circle cx="174" cy="183" r="6" fill="#DC477D"/>
<circle cx="318" cy="183" r="6" fill="#DC477D"/>
<circle cx="462" cy="183" r="6" fill="#DC477D"/>
<path d="M296.117 37.6006C294.136 37.6022 292.184 37.1203 290.432 36.1967C288.679 35.2731 287.178 33.9357 286.06 32.3006C284.941 30.6655 284.238 28.7821 284.013 26.8139C283.787 24.8457 284.045 22.8521 284.765 21.0063C285.484 19.1605 286.643 17.5181 288.141 16.2218C289.639 14.9255 291.431 14.0144 293.361 13.5676C295.291 13.1207 297.301 13.1517 299.217 13.6578C301.132 14.1639 302.895 15.1298 304.352 16.4717L301.464 19.4939C300.315 18.4565 298.89 17.7745 297.362 17.5306C295.834 17.2866 294.267 17.4913 292.853 18.1196C291.439 18.748 290.237 19.7731 289.393 21.0708C288.55 22.3685 288.101 23.8829 288.101 25.4306C288.101 26.9782 288.55 28.4927 289.393 29.7903C290.237 31.088 291.439 32.1131 292.853 32.7415C294.267 33.3699 295.834 33.5745 297.362 33.3306C298.89 33.0867 300.315 32.4047 301.464 31.3672L304.352 34.3895C302.108 36.4567 299.168 37.6032 296.117 37.6006Z" fill="white"/>
<path d="M305.912 31.5112C305.714 31.5112 305.522 31.4527 305.358 31.343C305.193 31.2334 305.066 31.0776 304.99 30.8952C304.914 30.7129 304.895 30.5123 304.933 30.3187C304.972 30.1252 305.067 29.9474 305.206 29.8079C305.346 29.6683 305.524 29.5733 305.717 29.5348C305.911 29.4963 306.111 29.5161 306.294 29.5916C306.476 29.6671 306.632 29.795 306.741 29.9591C306.851 30.1232 306.91 30.3161 306.91 30.5134C306.909 30.7778 306.804 31.0313 306.617 31.2183C306.43 31.4053 306.176 31.5106 305.912 31.5112Z" fill="white"/>
<path d="M296.04 28.0646C295.517 28.0668 295.006 27.9139 294.571 27.6253C294.136 27.3367 293.796 26.9254 293.594 26.4435C293.393 25.9615 293.339 25.4307 293.44 24.9182C293.541 24.4058 293.791 23.9347 294.16 23.5648C294.529 23.1949 294.999 22.9427 295.511 22.8403C296.023 22.7379 296.554 22.7898 297.037 22.9894C297.519 23.1891 297.932 23.5275 298.222 23.9618C298.512 24.3961 298.667 24.9068 298.666 25.429C298.665 26.1261 298.388 26.7945 297.896 27.2882C297.404 27.782 296.737 28.0611 296.04 28.0646Z" fill="white"/>
<path d="M307.056 28.1127C306.859 28.1127 306.666 28.0542 306.502 27.9446C306.338 27.8349 306.21 27.6791 306.135 27.4968C306.059 27.3145 306.039 27.1139 306.078 26.9203C306.116 26.7268 306.211 26.549 306.351 26.4094C306.49 26.2699 306.668 26.1749 306.862 26.1364C307.055 26.0979 307.256 26.1176 307.438 26.1931C307.621 26.2687 307.776 26.3965 307.886 26.5606C307.996 26.7247 308.054 26.9176 308.054 27.115C308.054 27.3794 307.948 27.6329 307.761 27.8198C307.574 28.0068 307.321 28.1122 307.056 28.1127Z" fill="white"/>
<path d="M304.09 27.9877C303.892 27.9877 303.698 27.9289 303.534 27.8188C303.37 27.7086 303.242 27.5522 303.167 27.3692C303.091 27.1862 303.072 26.985 303.112 26.7912C303.151 26.5973 303.247 26.4196 303.388 26.2805C303.529 26.1414 303.707 26.0473 303.902 26.01C304.096 25.9728 304.297 25.9941 304.479 26.0714C304.661 26.1486 304.816 26.2782 304.925 26.4437C305.033 26.6093 305.089 26.8033 305.087 27.0011C305.084 27.2638 304.978 27.5147 304.791 27.6994C304.604 27.8842 304.352 27.9878 304.09 27.9877Z" fill="white"/>
<path d="M307.056 24.7495C306.859 24.7495 306.666 24.6909 306.502 24.5813C306.338 24.4717 306.21 24.3158 306.135 24.1335C306.059 23.9512 306.039 23.7506 306.078 23.557C306.116 23.3635 306.211 23.1857 306.351 23.0462C306.49 22.9066 306.668 22.8116 306.862 22.7731C307.055 22.7346 307.256 22.7543 307.438 22.8299C307.621 22.9054 307.776 23.0333 307.886 23.1973C307.996 23.3614 308.054 23.5543 308.054 23.7517C308.054 24.0161 307.948 24.2696 307.761 24.4566C307.574 24.6436 307.321 24.7489 307.056 24.7495Z" fill="white"/>
<path d="M304.09 24.8627C303.892 24.8627 303.699 24.8042 303.535 24.6946C303.371 24.5849 303.243 24.4291 303.168 24.2468C303.092 24.0645 303.072 23.8639 303.111 23.6703C303.149 23.4768 303.244 23.299 303.384 23.1594C303.524 23.0199 303.701 22.9249 303.895 22.8864C304.088 22.8479 304.289 22.8676 304.471 22.9431C304.654 23.0187 304.81 23.1465 304.919 23.3106C305.029 23.4747 305.087 23.6676 305.087 23.865C305.087 24.1296 304.982 24.3834 304.795 24.5705C304.608 24.7576 304.354 24.8627 304.09 24.8627Z" fill="white"/>
<path d="M305.969 21.394C305.771 21.3944 305.578 21.3363 305.414 21.2269C305.249 21.1175 305.121 20.9619 305.045 20.7796C304.969 20.5973 304.949 20.3966 304.988 20.2029C305.026 20.0092 305.121 19.8312 305.26 19.6915C305.4 19.5517 305.577 19.4565 305.771 19.4178C305.965 19.3791 306.165 19.3987 306.348 19.4742C306.53 19.5496 306.686 19.6775 306.796 19.8416C306.906 20.0058 306.964 20.1988 306.964 20.3962C306.964 20.6605 306.859 20.9139 306.673 21.101C306.486 21.288 306.233 21.3934 305.969 21.394Z" fill="white"/>
<path d="M440.117 37.6006C438.136 37.6022 436.184 37.1203 434.432 36.1967C432.679 35.2731 431.178 33.9357 430.06 32.3006C428.941 30.6655 428.238 28.7821 428.013 26.8139C427.787 24.8457 428.045 22.8521 428.765 21.0063C429.484 19.1605 430.643 17.5181 432.141 16.2218C433.639 14.9255 435.431 14.0144 437.361 13.5676C439.291 13.1207 441.301 13.1517 443.217 13.6578C445.132 14.1639 446.895 15.1298 448.352 16.4717L445.464 19.4939C444.315 18.4565 442.89 17.7745 441.362 17.5306C439.834 17.2866 438.267 17.4913 436.853 18.1196C435.439 18.748 434.237 19.7731 433.393 21.0708C432.55 22.3685 432.101 23.8829 432.101 25.4306C432.101 26.9782 432.55 28.4927 433.393 29.7903C434.237 31.088 435.439 32.1131 436.853 32.7415C438.267 33.3699 439.834 33.5745 441.362 33.3306C442.89 33.0867 444.315 32.4047 445.464 31.3672L448.352 34.3895C446.108 36.4567 443.168 37.6032 440.117 37.6006Z" fill="white"/>
<path d="M449.912 31.5112C449.714 31.5112 449.522 31.4527 449.358 31.343C449.193 31.2334 449.066 31.0776 448.99 30.8952C448.914 30.7129 448.895 30.5123 448.933 30.3187C448.972 30.1252 449.067 29.9474 449.206 29.8079C449.346 29.6683 449.524 29.5733 449.717 29.5348C449.911 29.4963 450.111 29.5161 450.294 29.5916C450.476 29.6671 450.632 29.795 450.741 29.9591C450.851 30.1232 450.91 30.3161 450.91 30.5134C450.909 30.7778 450.804 31.0313 450.617 31.2183C450.43 31.4053 450.176 31.5106 449.912 31.5112Z" fill="white"/>
<path d="M440.04 28.0646C439.517 28.0668 439.006 27.9139 438.571 27.6253C438.136 27.3367 437.796 26.9254 437.594 26.4435C437.393 25.9615 437.339 25.4307 437.44 24.9182C437.541 24.4058 437.791 23.9347 438.16 23.5648C438.529 23.1949 438.999 22.9427 439.511 22.8403C440.023 22.7379 440.554 22.7898 441.037 22.9894C441.519 23.1891 441.932 23.5275 442.222 23.9618C442.512 24.3961 442.667 24.9068 442.666 25.429C442.665 26.1261 442.388 26.7945 441.896 27.2882C441.404 27.782 440.737 28.0611 440.04 28.0646Z" fill="white"/>
<path d="M451.056 28.1127C450.859 28.1127 450.666 28.0542 450.502 27.9446C450.338 27.8349 450.21 27.6791 450.135 27.4968C450.059 27.3145 450.039 27.1139 450.078 26.9203C450.116 26.7268 450.211 26.549 450.351 26.4094C450.49 26.2699 450.668 26.1749 450.862 26.1364C451.055 26.0979 451.256 26.1176 451.438 26.1931C451.621 26.2687 451.776 26.3965 451.886 26.5606C451.996 26.7247 452.054 26.9176 452.054 27.115C452.054 27.3794 451.948 27.6329 451.761 27.8198C451.574 28.0068 451.321 28.1122 451.056 28.1127Z" fill="white"/>
<path d="M448.09 27.9877C447.892 27.9877 447.698 27.9289 447.534 27.8188C447.37 27.7086 447.242 27.5522 447.167 27.3692C447.091 27.1862 447.072 26.985 447.112 26.7912C447.151 26.5973 447.247 26.4196 447.388 26.2805C447.529 26.1414 447.707 26.0473 447.902 26.01C448.096 25.9728 448.297 25.9941 448.479 26.0714C448.661 26.1486 448.816 26.2782 448.925 26.4437C449.033 26.6093 449.089 26.8033 449.087 27.0011C449.084 27.2638 448.978 27.5147 448.791 27.6994C448.604 27.8842 448.352 27.9878 448.09 27.9877Z" fill="white"/>
<path d="M451.056 24.7495C450.859 24.7495 450.666 24.6909 450.502 24.5813C450.338 24.4717 450.21 24.3158 450.135 24.1335C450.059 23.9512 450.039 23.7506 450.078 23.557C450.116 23.3635 450.211 23.1857 450.351 23.0462C450.49 22.9066 450.668 22.8116 450.862 22.7731C451.055 22.7346 451.256 22.7543 451.438 22.8299C451.621 22.9054 451.776 23.0333 451.886 23.1973C451.996 23.3614 452.054 23.5543 452.054 23.7517C452.054 24.0161 451.948 24.2696 451.761 24.4566C451.574 24.6436 451.321 24.7489 451.056 24.7495Z" fill="white"/>
<path d="M448.09 24.8627C447.892 24.8627 447.699 24.8042 447.535 24.6946C447.371 24.5849 447.243 24.4291 447.168 24.2468C447.092 24.0645 447.072 23.8639 447.111 23.6703C447.149 23.4768 447.244 23.299 447.384 23.1594C447.524 23.0199 447.701 22.9249 447.895 22.8864C448.088 22.8479 448.289 22.8676 448.471 22.9431C448.654 23.0187 448.81 23.1465 448.919 23.3106C449.029 23.4747 449.087 23.6676 449.087 23.865C449.087 24.1296 448.982 24.3834 448.795 24.5705C448.608 24.7576 448.354 24.8627 448.09 24.8627Z" fill="white"/>
<path d="M449.969 21.394C449.771 21.3944 449.578 21.3363 449.414 21.2269C449.249 21.1175 449.121 20.9619 449.045 20.7796C448.969 20.5973 448.949 20.3966 448.988 20.2029C449.026 20.0092 449.121 19.8312 449.26 19.6915C449.4 19.5517 449.577 19.4565 449.771 19.4178C449.965 19.3791 450.165 19.3987 450.348 19.4742C450.53 19.5496 450.686 19.6775 450.796 19.8416C450.906 20.0058 450.964 20.1988 450.964 20.3962C450.964 20.6605 450.859 20.9139 450.673 21.101C450.486 21.288 450.233 21.3934 449.969 21.394Z" fill="white"/>
<path d="M152.117 37.6006C150.136 37.6022 148.184 37.1203 146.432 36.1967C144.679 35.2731 143.178 33.9357 142.06 32.3006C140.941 30.6655 140.238 28.7821 140.013 26.8139C139.787 24.8457 140.045 22.8521 140.765 21.0063C141.484 19.1605 142.643 17.5181 144.141 16.2218C145.639 14.9255 147.431 14.0144 149.361 13.5676C151.291 13.1207 153.301 13.1517 155.217 13.6578C157.132 14.1639 158.895 15.1298 160.352 16.4717L157.464 19.4939C156.315 18.4565 154.89 17.7745 153.362 17.5306C151.834 17.2866 150.267 17.4913 148.853 18.1196C147.439 18.748 146.237 19.7731 145.393 21.0708C144.55 22.3685 144.101 23.8829 144.101 25.4306C144.101 26.9782 144.55 28.4927 145.393 29.7903C146.237 31.088 147.439 32.1131 148.853 32.7415C150.267 33.3699 151.834 33.5745 153.362 33.3306C154.89 33.0867 156.315 32.4047 157.464 31.3672L160.352 34.3895C158.108 36.4567 155.168 37.6032 152.117 37.6006Z" fill="white"/>
<path d="M161.912 31.5112C161.714 31.5112 161.522 31.4527 161.358 31.343C161.193 31.2334 161.066 31.0776 160.99 30.8952C160.914 30.7129 160.895 30.5123 160.933 30.3187C160.972 30.1252 161.067 29.9474 161.206 29.8079C161.346 29.6683 161.524 29.5733 161.717 29.5348C161.911 29.4963 162.111 29.5161 162.294 29.5916C162.476 29.6671 162.632 29.795 162.741 29.9591C162.851 30.1232 162.91 30.3161 162.91 30.5134C162.909 30.7778 162.804 31.0313 162.617 31.2183C162.43 31.4053 162.176 31.5106 161.912 31.5112Z" fill="white"/>
<path d="M152.04 28.0646C151.517 28.0668 151.006 27.9139 150.571 27.6253C150.136 27.3367 149.796 26.9254 149.594 26.4435C149.393 25.9615 149.339 25.4307 149.44 24.9182C149.541 24.4058 149.791 23.9347 150.16 23.5648C150.529 23.1949 150.999 22.9427 151.511 22.8403C152.023 22.7379 152.554 22.7898 153.037 22.9894C153.519 23.1891 153.932 23.5275 154.222 23.9618C154.512 24.3961 154.667 24.9068 154.666 25.429C154.665 26.1261 154.388 26.7945 153.896 27.2882C153.404 27.782 152.737 28.0611 152.04 28.0646Z" fill="white"/>
<path d="M163.056 28.1127C162.859 28.1127 162.666 28.0542 162.502 27.9446C162.338 27.8349 162.21 27.6791 162.135 27.4968C162.059 27.3145 162.039 27.1139 162.078 26.9203C162.116 26.7268 162.211 26.549 162.351 26.4094C162.49 26.2699 162.668 26.1749 162.862 26.1364C163.055 26.0979 163.256 26.1176 163.438 26.1931C163.621 26.2687 163.776 26.3965 163.886 26.5606C163.996 26.7247 164.054 26.9176 164.054 27.115C164.054 27.3794 163.948 27.6329 163.761 27.8198C163.574 28.0068 163.321 28.1122 163.056 28.1127Z" fill="white"/>
<path d="M160.09 27.9877C159.892 27.9877 159.698 27.9289 159.534 27.8188C159.37 27.7086 159.242 27.5522 159.167 27.3692C159.091 27.1862 159.072 26.985 159.112 26.7912C159.151 26.5973 159.247 26.4196 159.388 26.2805C159.529 26.1414 159.707 26.0473 159.902 26.01C160.096 25.9728 160.297 25.9941 160.479 26.0714C160.661 26.1486 160.816 26.2782 160.925 26.4437C161.033 26.6093 161.089 26.8033 161.087 27.0011C161.084 27.2638 160.978 27.5147 160.791 27.6994C160.604 27.8842 160.352 27.9878 160.09 27.9877Z" fill="white"/>
<path d="M163.056 24.7495C162.859 24.7495 162.666 24.6909 162.502 24.5813C162.338 24.4717 162.21 24.3158 162.135 24.1335C162.059 23.9512 162.039 23.7506 162.078 23.557C162.116 23.3635 162.211 23.1857 162.351 23.0462C162.49 22.9066 162.668 22.8116 162.862 22.7731C163.055 22.7346 163.256 22.7543 163.438 22.8299C163.621 22.9054 163.776 23.0333 163.886 23.1973C163.996 23.3614 164.054 23.5543 164.054 23.7517C164.054 24.0161 163.948 24.2696 163.761 24.4566C163.574 24.6436 163.321 24.7489 163.056 24.7495Z" fill="white"/>
<path d="M160.09 24.8627C159.892 24.8627 159.699 24.8042 159.535 24.6946C159.371 24.5849 159.243 24.4291 159.168 24.2468C159.092 24.0645 159.072 23.8639 159.111 23.6703C159.149 23.4768 159.244 23.299 159.384 23.1594C159.524 23.0199 159.701 22.9249 159.895 22.8864C160.088 22.8479 160.289 22.8676 160.471 22.9431C160.654 23.0187 160.81 23.1465 160.919 23.3106C161.029 23.4747 161.087 23.6676 161.087 23.865C161.087 24.1296 160.982 24.3834 160.795 24.5705C160.608 24.7576 160.354 24.8627 160.09 24.8627Z" fill="white"/>
<path d="M161.969 21.394C161.771 21.3944 161.578 21.3363 161.414 21.2269C161.249 21.1175 161.121 20.9619 161.045 20.7796C160.969 20.5973 160.949 20.3966 160.988 20.2029C161.026 20.0092 161.121 19.8312 161.26 19.6915C161.4 19.5517 161.577 19.4565 161.771 19.4178C161.965 19.3791 162.165 19.3987 162.348 19.4742C162.53 19.5496 162.686 19.6775 162.796 19.8416C162.906 20.0058 162.964 20.1988 162.964 20.3962C162.964 20.6605 162.859 20.9139 162.673 21.101C162.486 21.288 162.233 21.3934 161.969 21.394Z" fill="white"/>
</svg>
