<svg width="482" height="239" viewBox="0 0 482 239" fill="none" xmlns="http://www.w3.org/2000/svg">
<rect x="2" y="17" width="142" height="212" rx="1" fill="white"/>
<rect x="1.25" y="16.25" width="143.5" height="213.5" rx="1.75" stroke="black" stroke-opacity="0.16" stroke-width="1.5"/>
<rect x="52.5" y="220" width="41" height="19" rx="3" fill="white"/>
<path d="M63.223 225.6H59.575V234H63.223C65.695 234 67.243 232.224 67.243 229.8C67.243 227.328 65.671 225.6 63.223 225.6ZM63.187 232.512H61.207V227.076H63.187C64.627 227.076 65.587 228.168 65.587 229.764C65.587 231.384 64.627 232.512 63.187 232.512ZM73.2458 234.168C75.4658 234.168 76.8818 232.812 77.2658 231.468L75.6698 231.06C75.3938 231.888 74.4938 232.62 73.2218 232.62C71.5658 232.62 70.5098 231.288 70.5098 229.776C70.5098 228.264 71.5658 226.98 73.2218 226.98C74.4938 226.98 75.3938 227.736 75.6698 228.552L77.2778 228.156C76.8938 226.824 75.4778 225.432 73.2098 225.432C70.7138 225.432 68.8298 227.316 68.8298 229.788C68.8298 232.272 70.7138 234.168 73.2458 234.168ZM84.8556 225.6L82.3116 226.908L82.7076 228.312L84.5916 227.436V234H86.2596V225.6H84.8556Z" fill="black"/>
<rect x="170" y="17" width="142" height="212" rx="1" fill="white"/>
<rect x="169.25" y="16.25" width="143.5" height="213.5" rx="1.75" stroke="black" stroke-opacity="0.16" stroke-width="1.5"/>
<rect x="220.5" y="220" width="41" height="19" rx="3" fill="white"/>
<path d="M231.223 225.6H227.575V234H231.223C233.695 234 235.243 232.224 235.243 229.8C235.243 227.328 233.671 225.6 231.223 225.6ZM231.187 232.512H229.207V227.076H231.187C232.627 227.076 233.587 228.168 233.587 229.764C233.587 231.384 232.627 232.512 231.187 232.512ZM241.246 234.168C243.466 234.168 244.882 232.812 245.266 231.468L243.67 231.06C243.394 231.888 242.494 232.62 241.222 232.62C239.566 232.62 238.51 231.288 238.51 229.776C238.51 228.264 239.566 226.98 241.222 226.98C242.494 226.98 243.394 227.736 243.67 228.552L245.278 228.156C244.894 226.824 243.478 225.432 241.21 225.432C238.714 225.432 236.83 227.316 236.83 229.788C236.83 232.272 238.714 234.168 241.246 234.168ZM252.856 225.6L250.312 226.908L250.708 228.312L252.592 227.436V234H254.26V225.6H252.856Z" fill="black"/>
<rect x="338" y="17" width="142" height="212" rx="1" fill="white"/>
<rect x="337.25" y="16.25" width="143.5" height="213.5" rx="1.75" stroke="black" stroke-opacity="0.16" stroke-width="1.5"/>
<rect x="388.5" y="220" width="41" height="19" rx="3" fill="white"/>
<path d="M399.223 225.6H395.575V234H399.223C401.695 234 403.243 232.224 403.243 229.8C403.243 227.328 401.671 225.6 399.223 225.6ZM399.187 232.512H397.207V227.076H399.187C400.627 227.076 401.587 228.168 401.587 229.764C401.587 231.384 400.627 232.512 399.187 232.512ZM409.246 234.168C411.466 234.168 412.882 232.812 413.266 231.468L411.67 231.06C411.394 231.888 410.494 232.62 409.222 232.62C407.566 232.62 406.51 231.288 406.51 229.776C406.51 228.264 407.566 226.98 409.222 226.98C410.494 226.98 411.394 227.736 411.67 228.552L413.278 228.156C412.894 226.824 411.478 225.432 409.21 225.432C406.714 225.432 404.83 227.316 404.83 229.788C404.83 232.272 406.714 234.168 409.246 234.168ZM420.856 225.6L418.312 226.908L418.708 228.312L420.592 227.436V234H422.26V225.6H420.856Z" fill="black"/>
<rect x="18" y="157" width="46" height="46" rx="2" fill="white"/>
<rect x="17.25" y="156.25" width="47.5" height="47.5" rx="2.75" stroke="black" stroke-opacity="0.16" stroke-width="1.5"/>
<path fill-rule="evenodd" clip-rule="evenodd" d="M41.89 169.449L49.89 173.449C50.5697 173.787 50.9996 174.48 51 175.239V184.769C50.9996 185.528 50.5697 186.221 49.89 186.559L41.89 190.559C41.3267 190.841 40.6634 190.841 40.1 190.559L32.1 186.559C31.421 186.217 30.9948 185.519 31 184.759L31 175.239C31.0005 174.48 31.4304 173.787 32.11 173.449L40.11 169.449C40.6707 169.171 41.3294 169.171 41.89 169.449Z" stroke="black" stroke-width="1.5" stroke-linecap="round" stroke-linejoin="round"/>
<path d="M31.3203 174.16L41.0003 179L50.6803 174.16" stroke="black" stroke-width="1.5" stroke-linecap="round" stroke-linejoin="round"/>
<path d="M41 190.76V179" stroke="black" stroke-width="1.5" stroke-linecap="round" stroke-linejoin="round"/>
<rect x="185.25" y="156.25" width="47.5" height="47.5" rx="2.75" fill="white" stroke="#F25054" stroke-width="1.5"/>
<path fill-rule="evenodd" clip-rule="evenodd" d="M209.89 169.449L217.89 173.449C218.57 173.787 219 174.48 219 175.239V184.769C219 185.528 218.57 186.221 217.89 186.559L209.89 190.559C209.327 190.841 208.663 190.841 208.1 190.559L200.1 186.559C199.421 186.217 198.995 185.519 199 184.759V175.239C199 174.48 199.43 173.787 200.11 173.449L208.11 169.449C208.671 169.171 209.329 169.171 209.89 169.449Z" stroke="black" stroke-width="1.5" stroke-linecap="round" stroke-linejoin="round"/>
<path d="M199.32 174.16L209 179L218.68 174.16" stroke="black" stroke-width="1.5" stroke-linecap="round" stroke-linejoin="round"/>
<path d="M209 190.76V179" stroke="black" stroke-width="1.5" stroke-linecap="round" stroke-linejoin="round"/>
<rect x="354" y="157" width="46" height="46" rx="2" fill="white"/>
<rect x="353.25" y="156.25" width="47.5" height="47.5" rx="2.75" stroke="black" stroke-opacity="0.16" stroke-width="1.5"/>
<path fill-rule="evenodd" clip-rule="evenodd" d="M377.89 169.449L385.89 173.449C386.57 173.787 387 174.48 387 175.239V184.769C387 185.528 386.57 186.221 385.89 186.559L377.89 190.559C377.327 190.841 376.663 190.841 376.1 190.559L368.1 186.559C367.421 186.217 366.995 185.519 367 184.759V175.239C367 174.48 367.43 173.787 368.11 173.449L376.11 169.449C376.671 169.171 377.329 169.171 377.89 169.449Z" stroke="black" stroke-width="1.5" stroke-linecap="round" stroke-linejoin="round"/>
<path d="M367.32 174.16L377 179L386.68 174.16" stroke="black" stroke-width="1.5" stroke-linecap="round" stroke-linejoin="round"/>
<path d="M377 190.76V179" stroke="black" stroke-width="1.5" stroke-linecap="round" stroke-linejoin="round"/>
<rect x="18" y="93" width="46" height="46" rx="2" fill="white"/>
<rect x="17.25" y="92.25" width="47.5" height="47.5" rx="2.75" stroke="black" stroke-opacity="0.16" stroke-width="1.5"/>
<path fill-rule="evenodd" clip-rule="evenodd" d="M41.89 105.449L49.89 109.449C50.5697 109.787 50.9996 110.48 51 111.239V120.769C50.9996 121.528 50.5697 122.221 49.89 122.559L41.89 126.559C41.3267 126.841 40.6634 126.841 40.1 126.559L32.1 122.559C31.421 122.217 30.9948 121.519 31 120.759L31 111.239C31.0005 110.48 31.4304 109.787 32.11 109.449L40.11 105.449C40.6707 105.171 41.3294 105.171 41.89 105.449Z" stroke="black" stroke-width="1.5" stroke-linecap="round" stroke-linejoin="round"/>
<path d="M31.3203 110.16L41.0003 115L50.6803 110.16" stroke="black" stroke-width="1.5" stroke-linecap="round" stroke-linejoin="round"/>
<path d="M41 126.76V115" stroke="black" stroke-width="1.5" stroke-linecap="round" stroke-linejoin="round"/>
<rect x="186" y="93" width="46" height="46" rx="2" fill="white"/>
<rect x="185.25" y="92.25" width="47.5" height="47.5" rx="2.75" stroke="black" stroke-opacity="0.16" stroke-width="1.5"/>
<path fill-rule="evenodd" clip-rule="evenodd" d="M209.89 105.449L217.89 109.449C218.57 109.787 219 110.48 219 111.239V120.769C219 121.528 218.57 122.221 217.89 122.559L209.89 126.559C209.327 126.841 208.663 126.841 208.1 126.559L200.1 122.559C199.421 122.217 198.995 121.519 199 120.759V111.239C199 110.48 199.43 109.787 200.11 109.449L208.11 105.449C208.671 105.171 209.329 105.171 209.89 105.449Z" stroke="black" stroke-width="1.5" stroke-linecap="round" stroke-linejoin="round"/>
<path d="M199.32 110.16L209 115L218.68 110.16" stroke="black" stroke-width="1.5" stroke-linecap="round" stroke-linejoin="round"/>
<path d="M209 126.76V115" stroke="black" stroke-width="1.5" stroke-linecap="round" stroke-linejoin="round"/>
<rect x="354" y="93" width="46" height="46" rx="2" fill="white"/>
<rect x="353.25" y="92.25" width="47.5" height="47.5" rx="2.75" stroke="black" stroke-opacity="0.16" stroke-width="1.5"/>
<path fill-rule="evenodd" clip-rule="evenodd" d="M377.89 105.449L385.89 109.449C386.57 109.787 387 110.48 387 111.239V120.769C387 121.528 386.57 122.221 385.89 122.559L377.89 126.559C377.327 126.841 376.663 126.841 376.1 126.559L368.1 122.559C367.421 122.217 366.995 121.519 367 120.759V111.239C367 110.48 367.43 109.787 368.11 109.449L376.11 105.449C376.671 105.171 377.329 105.171 377.89 105.449Z" stroke="black" stroke-width="1.5" stroke-linecap="round" stroke-linejoin="round"/>
<path d="M367.32 110.16L377 115L386.68 110.16" stroke="black" stroke-width="1.5" stroke-linecap="round" stroke-linejoin="round"/>
<path d="M377 126.76V115" stroke="black" stroke-width="1.5" stroke-linecap="round" stroke-linejoin="round"/>
<rect x="81.25" y="156.25" width="47.5" height="47.5" rx="2.75" fill="white" stroke="#F25054" stroke-width="1.5"/>
<path fill-rule="evenodd" clip-rule="evenodd" d="M105.89 169.449L113.89 173.449C114.57 173.787 115 174.48 115 175.239V184.769C115 185.528 114.57 186.221 113.89 186.559L105.89 190.559C105.327 190.841 104.663 190.841 104.1 190.559L96.1 186.559C95.421 186.217 94.9948 185.519 95 184.759V175.239C95.0005 174.48 95.4304 173.787 96.11 173.449L104.11 169.449C104.671 169.171 105.329 169.171 105.89 169.449Z" stroke="black" stroke-width="1.5" stroke-linecap="round" stroke-linejoin="round"/>
<path d="M95.3203 174.16L105 179L114.68 174.16" stroke="black" stroke-width="1.5" stroke-linecap="round" stroke-linejoin="round"/>
<path d="M105 190.76V179" stroke="black" stroke-width="1.5" stroke-linecap="round" stroke-linejoin="round"/>
<rect x="250" y="157" width="46" height="46" rx="2" fill="white"/>
<rect x="249.25" y="156.25" width="47.5" height="47.5" rx="2.75" stroke="black" stroke-opacity="0.16" stroke-width="1.5"/>
<path fill-rule="evenodd" clip-rule="evenodd" d="M273.89 169.449L281.89 173.449C282.57 173.787 283 174.48 283 175.239V184.769C283 185.528 282.57 186.221 281.89 186.559L273.89 190.559C273.327 190.841 272.663 190.841 272.1 190.559L264.1 186.559C263.421 186.217 262.995 185.519 263 184.759V175.239C263 174.48 263.43 173.787 264.11 173.449L272.11 169.449C272.671 169.171 273.329 169.171 273.89 169.449Z" stroke="black" stroke-width="1.5" stroke-linecap="round" stroke-linejoin="round"/>
<path d="M263.32 174.16L273 179L282.68 174.16" stroke="black" stroke-width="1.5" stroke-linecap="round" stroke-linejoin="round"/>
<path d="M273 190.76V179" stroke="black" stroke-width="1.5" stroke-linecap="round" stroke-linejoin="round"/>
<rect x="417.25" y="156.25" width="47.5" height="47.5" rx="2.75" fill="white" stroke="#F25054" stroke-width="1.5"/>
<path fill-rule="evenodd" clip-rule="evenodd" d="M441.89 169.449L449.89 173.449C450.57 173.787 451 174.48 451 175.239V184.769C451 185.528 450.57 186.221 449.89 186.559L441.89 190.559C441.327 190.841 440.663 190.841 440.1 190.559L432.1 186.559C431.421 186.217 430.995 185.519 431 184.759V175.239C431 174.48 431.43 173.787 432.11 173.449L440.11 169.449C440.671 169.171 441.329 169.171 441.89 169.449Z" stroke="black" stroke-width="1.5" stroke-linecap="round" stroke-linejoin="round"/>
<path d="M431.32 174.16L441 179L450.68 174.16" stroke="black" stroke-width="1.5" stroke-linecap="round" stroke-linejoin="round"/>
<path d="M441 190.76V179" stroke="black" stroke-width="1.5" stroke-linecap="round" stroke-linejoin="round"/>
<rect x="82" y="93" width="46" height="46" rx="2" fill="white"/>
<rect x="81.25" y="92.25" width="47.5" height="47.5" rx="2.75" stroke="black" stroke-opacity="0.16" stroke-width="1.5"/>
<path fill-rule="evenodd" clip-rule="evenodd" d="M105.89 105.449L113.89 109.449C114.57 109.787 115 110.48 115 111.239V120.769C115 121.528 114.57 122.221 113.89 122.559L105.89 126.559C105.327 126.841 104.663 126.841 104.1 126.559L96.1 122.559C95.421 122.217 94.9948 121.519 95 120.759V111.239C95.0005 110.48 95.4304 109.787 96.11 109.449L104.11 105.449C104.671 105.171 105.329 105.171 105.89 105.449Z" stroke="black" stroke-width="1.5" stroke-linecap="round" stroke-linejoin="round"/>
<path d="M95.3203 110.16L105 115L114.68 110.16" stroke="black" stroke-width="1.5" stroke-linecap="round" stroke-linejoin="round"/>
<path d="M105 126.76V115" stroke="black" stroke-width="1.5" stroke-linecap="round" stroke-linejoin="round"/>
<rect x="250" y="93" width="46" height="46" rx="2" fill="white"/>
<rect x="249.25" y="92.25" width="47.5" height="47.5" rx="2.75" stroke="black" stroke-opacity="0.16" stroke-width="1.5"/>
<path fill-rule="evenodd" clip-rule="evenodd" d="M273.89 105.449L281.89 109.449C282.57 109.787 283 110.48 283 111.239V120.769C283 121.528 282.57 122.221 281.89 122.559L273.89 126.559C273.327 126.841 272.663 126.841 272.1 126.559L264.1 122.559C263.421 122.217 262.995 121.519 263 120.759V111.239C263 110.48 263.43 109.787 264.11 109.449L272.11 105.449C272.671 105.171 273.329 105.171 273.89 105.449Z" stroke="black" stroke-width="1.5" stroke-linecap="round" stroke-linejoin="round"/>
<path d="M263.32 110.16L273 115L282.68 110.16" stroke="black" stroke-width="1.5" stroke-linecap="round" stroke-linejoin="round"/>
<path d="M273 126.76V115" stroke="black" stroke-width="1.5" stroke-linecap="round" stroke-linejoin="round"/>
<rect x="417.25" y="92.25" width="47.5" height="47.5" rx="2.75" fill="white" stroke="#F25054" stroke-width="1.5"/>
<path fill-rule="evenodd" clip-rule="evenodd" d="M441.89 105.449L449.89 109.449C450.57 109.787 451 110.48 451 111.239V120.769C451 121.528 450.57 122.221 449.89 122.559L441.89 126.559C441.327 126.841 440.663 126.841 440.1 126.559L432.1 122.559C431.421 122.217 430.995 121.519 431 120.759V111.239C431 110.48 431.43 109.787 432.11 109.449L440.11 105.449C440.671 105.171 441.329 105.171 441.89 105.449Z" stroke="black" stroke-width="1.5" stroke-linecap="round" stroke-linejoin="round"/>
<path d="M431.32 110.16L441 115L450.68 110.16" stroke="black" stroke-width="1.5" stroke-linecap="round" stroke-linejoin="round"/>
<path d="M441 126.76V115" stroke="black" stroke-width="1.5" stroke-linecap="round" stroke-linejoin="round"/>
<rect x="49" width="48" height="48" rx="2" fill="#DC477D"/>
<path d="M73.1178 36.124C71.1367 36.1256 69.1852 35.6437 67.4326 34.7201C65.6799 33.7965 64.1792 32.4591 63.0606 30.824C61.9421 29.1889 61.2395 27.3055 61.0138 25.3373C60.7881 23.3691 61.0462 21.3756 61.7657 19.5297C62.4852 17.6839 63.6443 16.0416 65.1424 14.7452C66.6405 13.4489 68.4323 12.5378 70.3623 12.091C72.2924 11.6442 74.3023 11.6752 76.2177 12.1813C78.1331 12.6873 79.896 13.6532 81.3534 14.9951L78.4645 18.0173C77.316 16.9799 75.8912 16.2979 74.3629 16.054C72.8346 15.8101 71.2683 16.0147 69.8539 16.6431C68.4396 17.2714 67.2378 18.2966 66.3944 19.5942C65.551 20.8919 65.102 22.4063 65.102 23.954C65.102 25.5017 65.551 27.0161 66.3944 28.3138C67.2378 29.6114 68.4396 30.6366 69.8539 31.2649C71.2683 31.8933 72.8346 32.0979 74.3629 31.854C75.8912 31.6101 77.316 30.9281 78.4645 29.8907L81.3534 32.9129C79.1093 34.9802 76.169 36.1266 73.1178 36.124Z" fill="white"/>
<path d="M82.9128 30.0346C82.7155 30.0346 82.5226 29.9761 82.3585 29.8665C82.1944 29.7568 82.0665 29.601 81.991 29.4187C81.9155 29.2364 81.8957 29.0357 81.9342 28.8422C81.9727 28.6486 82.0677 28.4708 82.2073 28.3313C82.3468 28.1918 82.5246 28.0967 82.7182 28.0582C82.9117 28.0197 83.1123 28.0395 83.2946 28.115C83.477 28.1905 83.6328 28.3184 83.7424 28.4825C83.8521 28.6466 83.9106 28.8395 83.9106 29.0368C83.91 29.3013 83.8047 29.5547 83.6177 29.7417C83.4307 29.9287 83.1773 30.034 82.9128 30.0346Z" fill="white"/>
<path d="M73.0405 26.588C72.5182 26.5902 72.0071 26.4373 71.5718 26.1487C71.1365 25.8601 70.7967 25.4488 70.5954 24.9669C70.3941 24.485 70.3404 23.9541 70.4411 23.4417C70.5418 22.9292 70.7924 22.4582 71.161 22.0882C71.5297 21.7183 71.9999 21.4662 72.512 21.3637C73.0242 21.2613 73.5552 21.3132 74.0378 21.5129C74.5204 21.7125 74.9328 22.0509 75.2229 22.4853C75.513 22.9196 75.6676 23.4302 75.6672 23.9525C75.666 24.6496 75.3892 25.3179 74.8971 25.8117C74.405 26.3054 73.7376 26.5845 73.0405 26.588Z" fill="white"/>
<path d="M84.0573 26.6362C83.86 26.6362 83.6671 26.5777 83.503 26.468C83.3389 26.3584 83.211 26.2026 83.1355 26.0202C83.06 25.8379 83.0402 25.6373 83.0787 25.4437C83.1172 25.2502 83.2123 25.0724 83.3518 24.9329C83.4914 24.7933 83.6691 24.6983 83.8627 24.6598C84.0562 24.6213 84.2569 24.6411 84.4392 24.7166C84.6215 24.7921 84.7773 24.92 84.887 25.0841C84.9966 25.2481 85.0551 25.4411 85.0551 25.6384C85.0545 25.9028 84.9492 26.1563 84.7622 26.3433C84.5752 26.5303 84.3218 26.6356 84.0573 26.6362Z" fill="white"/>
<path d="M81.0915 26.5112C80.8937 26.5112 80.7003 26.4524 80.536 26.3422C80.3717 26.2321 80.2438 26.0756 80.1686 25.8926C80.0934 25.7097 80.0743 25.5085 80.1138 25.3146C80.1532 25.1208 80.2493 24.943 80.39 24.8039C80.5306 24.6648 80.7094 24.5707 80.9037 24.5335C81.098 24.4962 81.2989 24.5176 81.4811 24.5948C81.6632 24.672 81.8182 24.8016 81.9265 24.9672C82.0348 25.1327 82.0914 25.3267 82.0892 25.5245C82.0863 25.7872 81.9799 26.0382 81.7931 26.2229C81.6063 26.4076 81.3542 26.5112 81.0915 26.5112Z" fill="white"/>
<path d="M84.0573 23.2729C83.86 23.2729 83.6671 23.2144 83.503 23.1047C83.3389 22.9951 83.211 22.8393 83.1355 22.657C83.06 22.4746 83.0402 22.274 83.0787 22.0805C83.1172 21.8869 83.2123 21.7091 83.3518 21.5696C83.4914 21.43 83.6691 21.335 83.8627 21.2965C84.0562 21.258 84.2569 21.2778 84.4392 21.3533C84.6215 21.4288 84.7773 21.5567 84.887 21.7208C84.9966 21.8849 85.0551 22.0778 85.0551 22.2751C85.0545 22.5396 84.9492 22.793 84.7622 22.98C84.5752 23.167 84.3218 23.2723 84.0573 23.2729Z" fill="white"/>
<path d="M81.0915 23.3862C80.8942 23.3862 80.7013 23.3277 80.5372 23.218C80.3731 23.1084 80.2452 22.9526 80.1697 22.7702C80.0942 22.5879 80.0744 22.3873 80.1129 22.1937C80.1514 22.0002 80.2465 21.8224 80.386 21.6829C80.5255 21.5433 80.7033 21.4483 80.8969 21.4098C81.0904 21.3713 81.291 21.3911 81.4734 21.4666C81.6557 21.5421 81.8115 21.67 81.9212 21.8341C82.0308 21.9982 82.0893 22.1911 82.0893 22.3884C82.0893 22.653 81.9842 22.9068 81.7971 23.0939C81.6099 23.2811 81.3562 23.3862 81.0915 23.3862Z" fill="white"/>
<path d="M82.9707 19.9174C82.7733 19.9179 82.5801 19.8597 82.4158 19.7504C82.2514 19.641 82.1232 19.4853 82.0473 19.303C81.9714 19.1207 81.9514 18.9201 81.9896 18.7264C82.0279 18.5327 82.1227 18.3547 82.2622 18.2149C82.4016 18.0751 82.5794 17.9799 82.773 17.9412C82.9666 17.9025 83.1673 17.9222 83.3498 17.9976C83.5322 18.0731 83.6882 18.201 83.7979 18.3651C83.9077 18.5292 83.9663 18.7222 83.9663 18.9197C83.9663 19.1839 83.8614 19.4373 83.6748 19.6244C83.4882 19.8115 83.2349 19.9168 82.9707 19.9174Z" fill="white"/>
<rect x="217" width="48" height="48" rx="2" fill="#DC477D"/>
<path d="M241.117 36.124C239.136 36.1256 237.184 35.6437 235.432 34.7201C233.679 33.7965 232.178 32.4591 231.06 30.824C229.941 29.1889 229.238 27.3055 229.013 25.3373C228.787 23.3691 229.045 21.3756 229.765 19.5297C230.484 17.6839 231.643 16.0416 233.141 14.7452C234.639 13.4489 236.431 12.5378 238.361 12.091C240.291 11.6442 242.301 11.6752 244.217 12.1813C246.132 12.6873 247.895 13.6532 249.352 14.9951L246.464 18.0173C245.315 16.9799 243.89 16.2979 242.362 16.054C240.834 15.8101 239.267 16.0147 237.853 16.6431C236.439 17.2714 235.237 18.2966 234.393 19.5942C233.55 20.8919 233.101 22.4063 233.101 23.954C233.101 25.5017 233.55 27.0161 234.393 28.3138C235.237 29.6114 236.439 30.6366 237.853 31.2649C239.267 31.8933 240.834 32.0979 242.362 31.854C243.89 31.6101 245.315 30.9281 246.464 29.8907L249.352 32.9129C247.108 34.9802 244.168 36.1266 241.117 36.124Z" fill="white"/>
<path d="M250.912 30.0346C250.714 30.0346 250.522 29.9761 250.358 29.8665C250.193 29.7568 250.066 29.601 249.99 29.4187C249.914 29.2364 249.895 29.0357 249.933 28.8422C249.972 28.6486 250.067 28.4708 250.206 28.3313C250.346 28.1918 250.524 28.0967 250.717 28.0582C250.911 28.0197 251.111 28.0395 251.294 28.115C251.476 28.1905 251.632 28.3184 251.741 28.4825C251.851 28.6466 251.91 28.8395 251.91 29.0368C251.909 29.3013 251.804 29.5547 251.617 29.7417C251.43 29.9287 251.176 30.034 250.912 30.0346Z" fill="white"/>
<path d="M241.04 26.588C240.517 26.5902 240.006 26.4373 239.571 26.1487C239.136 25.8601 238.796 25.4488 238.594 24.9669C238.393 24.485 238.339 23.9541 238.44 23.4417C238.541 22.9292 238.791 22.4582 239.16 22.0882C239.529 21.7183 239.999 21.4662 240.511 21.3637C241.023 21.2613 241.554 21.3132 242.037 21.5129C242.519 21.7125 242.932 22.0509 243.222 22.4853C243.512 22.9196 243.667 23.4302 243.666 23.9525C243.665 24.6496 243.388 25.3179 242.896 25.8117C242.404 26.3054 241.737 26.5845 241.04 26.588Z" fill="white"/>
<path d="M252.056 26.6362C251.859 26.6362 251.666 26.5777 251.502 26.468C251.338 26.3584 251.21 26.2026 251.135 26.0202C251.059 25.8379 251.039 25.6373 251.078 25.4437C251.116 25.2502 251.211 25.0724 251.351 24.9329C251.49 24.7933 251.668 24.6983 251.862 24.6598C252.055 24.6213 252.256 24.6411 252.438 24.7166C252.621 24.7921 252.776 24.92 252.886 25.0841C252.996 25.2481 253.054 25.4411 253.054 25.6384C253.054 25.9028 252.948 26.1563 252.761 26.3433C252.574 26.5303 252.321 26.6356 252.056 26.6362Z" fill="white"/>
<path d="M249.09 26.5112C248.892 26.5112 248.698 26.4524 248.534 26.3422C248.37 26.2321 248.242 26.0756 248.167 25.8926C248.091 25.7097 248.072 25.5085 248.112 25.3146C248.151 25.1208 248.247 24.943 248.388 24.8039C248.529 24.6648 248.707 24.5707 248.902 24.5335C249.096 24.4962 249.297 24.5176 249.479 24.5948C249.661 24.672 249.816 24.8016 249.925 24.9672C250.033 25.1327 250.089 25.3267 250.087 25.5245C250.084 25.7872 249.978 26.0382 249.791 26.2229C249.604 26.4076 249.352 26.5112 249.09 26.5112Z" fill="white"/>
<path d="M252.056 23.2729C251.859 23.2729 251.666 23.2144 251.502 23.1047C251.338 22.9951 251.21 22.8393 251.135 22.657C251.059 22.4746 251.039 22.274 251.078 22.0805C251.116 21.8869 251.211 21.7091 251.351 21.5696C251.49 21.43 251.668 21.335 251.862 21.2965C252.055 21.258 252.256 21.2778 252.438 21.3533C252.621 21.4288 252.776 21.5567 252.886 21.7208C252.996 21.8849 253.054 22.0778 253.054 22.2751C253.054 22.5396 252.948 22.793 252.761 22.98C252.574 23.167 252.321 23.2723 252.056 23.2729Z" fill="white"/>
<path d="M249.09 23.3862C248.892 23.3862 248.699 23.3277 248.535 23.218C248.371 23.1084 248.243 22.9526 248.168 22.7702C248.092 22.5879 248.072 22.3873 248.111 22.1937C248.149 22.0002 248.244 21.8224 248.384 21.6829C248.524 21.5433 248.701 21.4483 248.895 21.4098C249.088 21.3713 249.289 21.3911 249.471 21.4666C249.654 21.5421 249.81 21.67 249.919 21.8341C250.029 21.9982 250.087 22.1911 250.087 22.3884C250.087 22.653 249.982 22.9068 249.795 23.0939C249.608 23.2811 249.354 23.3862 249.09 23.3862Z" fill="white"/>
<path d="M250.969 19.9174C250.771 19.9179 250.578 19.8597 250.414 19.7504C250.249 19.641 250.121 19.4853 250.045 19.303C249.969 19.1207 249.949 18.9201 249.988 18.7264C250.026 18.5327 250.121 18.3547 250.26 18.2149C250.4 18.0751 250.577 17.9799 250.771 17.9412C250.965 17.9025 251.165 17.9222 251.348 17.9976C251.53 18.0731 251.686 18.201 251.796 18.3651C251.906 18.5292 251.964 18.7222 251.964 18.9197C251.964 19.1839 251.859 19.4373 251.673 19.6244C251.486 19.8115 251.233 19.9168 250.969 19.9174Z" fill="white"/>
<rect x="385" width="48" height="48" rx="2" fill="#DC477D"/>
<path d="M409.117 36.124C407.136 36.1256 405.184 35.6437 403.432 34.7201C401.679 33.7965 400.178 32.4591 399.06 30.824C397.941 29.1889 397.238 27.3055 397.013 25.3373C396.787 23.3691 397.045 21.3756 397.765 19.5297C398.484 17.6839 399.643 16.0416 401.141 14.7452C402.639 13.4489 404.431 12.5378 406.361 12.091C408.291 11.6442 410.301 11.6752 412.217 12.1813C414.132 12.6873 415.895 13.6532 417.352 14.9951L414.464 18.0173C413.315 16.9799 411.89 16.2979 410.362 16.054C408.834 15.8101 407.267 16.0147 405.853 16.6431C404.439 17.2714 403.237 18.2966 402.393 19.5942C401.55 20.8919 401.101 22.4063 401.101 23.954C401.101 25.5017 401.55 27.0161 402.393 28.3138C403.237 29.6114 404.439 30.6366 405.853 31.2649C407.267 31.8933 408.834 32.0979 410.362 31.854C411.89 31.6101 413.315 30.9281 414.464 29.8907L417.352 32.9129C415.108 34.9802 412.168 36.1266 409.117 36.124Z" fill="white"/>
<path d="M418.912 30.0346C418.714 30.0346 418.522 29.9761 418.358 29.8665C418.193 29.7568 418.066 29.601 417.99 29.4187C417.914 29.2364 417.895 29.0357 417.933 28.8422C417.972 28.6486 418.067 28.4708 418.206 28.3313C418.346 28.1918 418.524 28.0967 418.717 28.0582C418.911 28.0197 419.111 28.0395 419.294 28.115C419.476 28.1905 419.632 28.3184 419.741 28.4825C419.851 28.6466 419.91 28.8395 419.91 29.0368C419.909 29.3013 419.804 29.5547 419.617 29.7417C419.43 29.9287 419.176 30.034 418.912 30.0346Z" fill="white"/>
<path d="M409.04 26.588C408.517 26.5902 408.006 26.4373 407.571 26.1487C407.136 25.8601 406.796 25.4488 406.594 24.9669C406.393 24.485 406.339 23.9541 406.44 23.4417C406.541 22.9292 406.791 22.4582 407.16 22.0882C407.529 21.7183 407.999 21.4662 408.511 21.3637C409.023 21.2613 409.554 21.3132 410.037 21.5129C410.519 21.7125 410.932 22.0509 411.222 22.4853C411.512 22.9196 411.667 23.4302 411.666 23.9525C411.665 24.6496 411.388 25.3179 410.896 25.8117C410.404 26.3054 409.737 26.5845 409.04 26.588Z" fill="white"/>
<path d="M420.056 26.6362C419.859 26.6362 419.666 26.5777 419.502 26.468C419.338 26.3584 419.21 26.2026 419.135 26.0202C419.059 25.8379 419.039 25.6373 419.078 25.4437C419.116 25.2502 419.211 25.0724 419.351 24.9329C419.49 24.7933 419.668 24.6983 419.862 24.6598C420.055 24.6213 420.256 24.6411 420.438 24.7166C420.621 24.7921 420.776 24.92 420.886 25.0841C420.996 25.2481 421.054 25.4411 421.054 25.6384C421.054 25.9028 420.948 26.1563 420.761 26.3433C420.574 26.5303 420.321 26.6356 420.056 26.6362Z" fill="white"/>
<path d="M417.09 26.5112C416.892 26.5112 416.698 26.4524 416.534 26.3422C416.37 26.2321 416.242 26.0756 416.167 25.8926C416.091 25.7097 416.072 25.5085 416.112 25.3146C416.151 25.1208 416.247 24.943 416.388 24.8039C416.529 24.6648 416.707 24.5707 416.902 24.5335C417.096 24.4962 417.297 24.5176 417.479 24.5948C417.661 24.672 417.816 24.8016 417.925 24.9672C418.033 25.1327 418.089 25.3267 418.087 25.5245C418.084 25.7872 417.978 26.0382 417.791 26.2229C417.604 26.4076 417.352 26.5112 417.09 26.5112Z" fill="white"/>
<path d="M420.056 23.2729C419.859 23.2729 419.666 23.2144 419.502 23.1047C419.338 22.9951 419.21 22.8393 419.135 22.657C419.059 22.4746 419.039 22.274 419.078 22.0805C419.116 21.8869 419.211 21.7091 419.351 21.5696C419.49 21.43 419.668 21.335 419.862 21.2965C420.055 21.258 420.256 21.2778 420.438 21.3533C420.621 21.4288 420.776 21.5567 420.886 21.7208C420.996 21.8849 421.054 22.0778 421.054 22.2751C421.054 22.5396 420.948 22.793 420.761 22.98C420.574 23.167 420.321 23.2723 420.056 23.2729Z" fill="white"/>
<path d="M417.09 23.3862C416.892 23.3862 416.699 23.3277 416.535 23.218C416.371 23.1084 416.243 22.9526 416.168 22.7702C416.092 22.5879 416.072 22.3873 416.111 22.1937C416.149 22.0002 416.244 21.8224 416.384 21.6829C416.524 21.5433 416.701 21.4483 416.895 21.4098C417.088 21.3713 417.289 21.3911 417.471 21.4666C417.654 21.5421 417.81 21.67 417.919 21.8341C418.029 21.9982 418.087 22.1911 418.087 22.3884C418.087 22.653 417.982 22.9068 417.795 23.0939C417.608 23.2811 417.354 23.3862 417.09 23.3862Z" fill="white"/>
<path d="M418.969 19.9174C418.771 19.9179 418.578 19.8597 418.414 19.7504C418.249 19.641 418.121 19.4853 418.045 19.303C417.969 19.1207 417.949 18.9201 417.988 18.7264C418.026 18.5327 418.121 18.3547 418.26 18.2149C418.4 18.0751 418.577 17.9799 418.771 17.9412C418.965 17.9025 419.165 17.9222 419.348 17.9976C419.53 18.0731 419.686 18.201 419.796 18.3651C419.906 18.5292 419.964 18.7222 419.964 18.9197C419.964 19.1839 419.859 19.4373 419.673 19.6244C419.486 19.8115 419.233 19.9168 418.969 19.9174Z" fill="white"/>
<path d="M41 90L41 78C41 73.5817 44.5817 70 49 70L57 70" stroke="#343536" stroke-width="2" stroke-linejoin="round"/>
<path d="M73 50L73 62C73 66.4183 69.4183 70 65 70L57 70" stroke="#343536" stroke-width="2" stroke-linejoin="round"/>
<line x1="73" y1="52" x2="73" y2="48" stroke="#343536" stroke-width="2"/>
<line y1="-1" x2="4" y2="-1" transform="matrix(-4.37113e-08 1 1 4.37114e-08 42 88)" stroke="#343536" stroke-width="2"/>
<path d="M209 90L209 78C209 73.5817 212.582 70 217 70L225 70" stroke="#343536" stroke-width="2" stroke-linejoin="round"/>
<path d="M241 50L241 62C241 66.4183 237.418 70 233 70L225 70" stroke="#343536" stroke-width="2" stroke-linejoin="round"/>
<line x1="241" y1="52" x2="241" y2="48" stroke="#343536" stroke-width="2"/>
<line y1="-1" x2="4" y2="-1" transform="matrix(-4.37113e-08 1 1 4.37114e-08 210 88)" stroke="#343536" stroke-width="2"/>
<path d="M377 90L377 78C377 73.5817 380.582 70 385 70L393 70" stroke="#343536" stroke-width="2" stroke-linejoin="round"/>
<path d="M409 50L409 62C409 66.4183 405.418 70 401 70L393 70" stroke="#343536" stroke-width="2" stroke-linejoin="round"/>
<line x1="409" y1="52" x2="409" y2="48" stroke="#343536" stroke-width="2"/>
<line y1="-1" x2="4" y2="-1" transform="matrix(-4.37113e-08 1 1 4.37114e-08 378 88)" stroke="#343536" stroke-width="2"/>
<line x1="41" y1="142" x2="41" y2="154" stroke="#343536" stroke-width="2"/>
<line x1="41" y1="144" x2="41" y2="140" stroke="#343536" stroke-width="2"/>
<line x1="41" y1="152" x2="41" y2="156" stroke="#343536" stroke-width="2"/>
<line x1="209" y1="142" x2="207" y2="154" stroke="black" stroke-width="2" stroke-linejoin="round" stroke-dasharray="4 2"/>
<line x1="209" y1="144" x2="209" y2="140" stroke="black" stroke-width="2"/>
<line x1="209" y1="152" x2="209" y2="156" stroke="black" stroke-width="2"/>
<line x1="377" y1="142" x2="377" y2="154" stroke="#343536" stroke-width="2"/>
<line x1="377" y1="144" x2="377" y2="140" stroke="#343536" stroke-width="2"/>
<line x1="377" y1="152" x2="377" y2="156" stroke="#343536" stroke-width="2"/>
<line x1="105" y1="142" x2="103" y2="154" stroke="black" stroke-width="2" stroke-linejoin="round" stroke-dasharray="4 2"/>
<line x1="105" y1="144" x2="105" y2="140" stroke="black" stroke-width="2"/>
<line x1="105" y1="152" x2="105" y2="156" stroke="black" stroke-width="2"/>
<line x1="273" y1="142" x2="273" y2="154" stroke="#343536" stroke-width="2"/>
<line x1="273" y1="144" x2="273" y2="140" stroke="#343536" stroke-width="2"/>
<line x1="273" y1="152" x2="273" y2="156" stroke="#343536" stroke-width="2"/>
<line x1="441" y1="142" x2="439" y2="154" stroke="black" stroke-width="2" stroke-linejoin="round" stroke-dasharray="4 2"/>
<line x1="441" y1="144" x2="441" y2="140" stroke="black" stroke-width="2"/>
<line x1="441" y1="152" x2="441" y2="156" stroke="black" stroke-width="2"/>
<path d="M105 90L105 78C105 73.5817 101.418 70 97 70L89 70" stroke="#343536" stroke-width="2" stroke-linejoin="round"/>
<path d="M73 50L73 62C73 66.4183 76.5817 70 81 70L89 70" stroke="#343536" stroke-width="2" stroke-linejoin="round"/>
<line y1="-1" x2="4" y2="-1" transform="matrix(-1.31134e-07 -1 -1 1.31134e-07 72 52)" stroke="#343536" stroke-width="2"/>
<line x1="105" y1="88" x2="105" y2="92" stroke="#343536" stroke-width="2"/>
<path d="M273 90L273 78C273 73.5817 269.418 70 265 70L257 70" stroke="#343536" stroke-width="2" stroke-linejoin="round"/>
<path d="M241 50L241 62C241 66.4183 244.582 70 249 70L257 70" stroke="#343536" stroke-width="2" stroke-linejoin="round"/>
<line y1="-1" x2="4" y2="-1" transform="matrix(-1.31134e-07 -1 -1 1.31134e-07 240 52)" stroke="#343536" stroke-width="2"/>
<line x1="273" y1="88" x2="273" y2="92" stroke="#343536" stroke-width="2"/>
<path d="M441 90L441 78C441 73.5817 437.418 70 433 70L425 70" stroke="black" stroke-width="2" stroke-linejoin="round" stroke-dasharray="4 2"/>
<path d="M409 50L409 62C409 66.4183 412.582 70 417 70L425 70" stroke="black" stroke-width="2" stroke-linejoin="round" stroke-dasharray="4 2"/>
<line y1="-1" x2="4" y2="-1" transform="matrix(-1.31134e-07 -1 -1 1.31134e-07 408 52)" stroke="black" stroke-width="2"/>
<line x1="441" y1="88" x2="441" y2="92" stroke="black" stroke-width="2"/>
<path d="M60.3337 129.916L55.7503 134.499L53.667 132.416" stroke="#00BC7F" stroke-width="1.5" stroke-linecap="round" stroke-linejoin="round"/>
<path d="M228.333 129.916L223.749 134.499L221.666 132.416" stroke="#00BC7F" stroke-width="1.5" stroke-linecap="round" stroke-linejoin="round"/>
<path d="M396.333 129.916L391.749 134.499L389.666 132.416" stroke="#00BC7F" stroke-width="1.5" stroke-linecap="round" stroke-linejoin="round"/>
<path d="M60.3337 193.916L55.7503 198.499L53.667 196.416" stroke="#00BC7F" stroke-width="1.5" stroke-linecap="round" stroke-linejoin="round"/>
<path d="M292.333 193.916L287.749 198.499L285.666 196.416" stroke="#00BC7F" stroke-width="1.5" stroke-linecap="round" stroke-linejoin="round"/>
<path d="M396.333 193.916L391.749 198.499L389.666 196.416" stroke="#00BC7F" stroke-width="1.5" stroke-linecap="round" stroke-linejoin="round"/>
<path d="M124.334 129.916L119.75 134.499L117.667 132.416" stroke="#00BC7F" stroke-width="1.5" stroke-linecap="round" stroke-linejoin="round"/>
<path d="M292.333 129.916L287.749 134.499L285.666 132.416" stroke="#00BC7F" stroke-width="1.5" stroke-linecap="round" stroke-linejoin="round"/>
</svg>
