<svg width="592" height="293" viewBox="0 0 592 293" fill="none" xmlns="http://www.w3.org/2000/svg">
<rect width="592" height="293" fill="white"/>
<path d="M440 187L440 171C440 166.582 436.418 163 432 163L296 163" stroke="#343536" stroke-width="2" stroke-linejoin="round" stroke-dasharray="4 2"/>
<path d="M152 187L152 171C152 166.582 155.582 163 160 163L296 163" stroke="#343536" stroke-width="2" stroke-linejoin="round" stroke-dasharray="4 2"/>
<path d="M152 187C150.343 187 149 185.657 149 184C149 182.343 150.343 181 152 181C153.657 181 155 182.343 155 184C155 185.657 153.657 187 152 187Z" fill="white" stroke="#343536" stroke-width="2" stroke-linecap="round" stroke-linejoin="round"/>
<path d="M440 187C438.343 187 437 185.657 437 184C437 182.343 438.343 181 440 181C441.657 181 443 182.343 443 184C443 185.657 441.657 187 440 187Z" fill="white" stroke="#343536" stroke-width="2" stroke-linecap="round" stroke-linejoin="round"/>
<line x1="296" y1="135" x2="294" y2="187" stroke="#343536" stroke-width="2" stroke-linejoin="round" stroke-dasharray="4 2"/>
<path d="M296 135C297.657 135 299 136.343 299 138C299 139.657 297.657 141 296 141C294.343 141 293 139.657 293 138C293 136.343 294.343 135 296 135Z" fill="white" stroke="#343536" stroke-width="2" stroke-linecap="round" stroke-linejoin="round"/>
<path d="M296 187C294.343 187 293 185.657 293 184C293 182.343 294.343 181 296 181C297.657 181 299 182.343 299 184C299 185.657 297.657 187 296 187Z" fill="white" stroke="#343536" stroke-width="2" stroke-linecap="round" stroke-linejoin="round"/>
<path d="M278.195 101.075C280.895 101.075 282.53 99.305 282.875 97.235H280.985C280.775 98.3 279.785 99.455 278.165 99.455C276.32 99.455 275.135 97.835 275.135 95.81C275.135 93.74 276.32 92.03 278.225 92.03C279.77 92.03 280.775 93.08 280.985 94.205H282.875C282.56 92.075 280.91 90.395 278.3 90.395C275.36 90.395 273.305 92.705 273.29 95.795C273.275 98.84 275.465 101.075 278.195 101.075ZM287.666 101.075C289.691 101.075 291.281 99.485 291.281 97.25C291.281 94.985 289.691 93.395 287.666 93.395C285.626 93.395 284.036 94.985 284.036 97.25C284.036 99.485 285.626 101.075 287.666 101.075ZM287.651 99.59C286.361 99.59 285.641 98.57 285.641 97.25C285.641 95.9 286.376 94.895 287.666 94.895C288.971 94.895 289.706 95.915 289.706 97.265C289.706 98.585 288.971 99.59 287.651 99.59ZM292.893 101H294.483V97.22C294.483 95.675 295.368 94.73 296.358 94.73C297.198 94.73 297.843 95.255 297.843 96.575V101H299.568V96.395C299.568 93.86 297.768 93.305 296.733 93.305C295.518 93.305 294.768 94.04 294.483 94.445V93.5H292.893V101ZM304.26 101.165C305.655 101.165 307.185 100.295 307.185 98.735C307.185 97.58 306.495 96.74 304.155 96.455C303.225 96.335 302.88 95.96 302.88 95.555C302.88 95 303.51 94.76 304.095 94.76C304.515 94.76 305.37 94.895 305.535 95.915H307.02C306.87 94.055 305.43 93.365 304.065 93.365C302.34 93.365 301.26 94.4 301.26 95.54C301.26 96.29 301.53 97.4 304.14 97.775C305.28 97.94 305.52 98.33 305.52 98.735C305.52 99.35 304.995 99.815 304.2 99.815C303.405 99.815 302.73 99.38 302.565 98.6H301.035C301.125 100.31 302.565 101.165 304.26 101.165ZM311.482 101.195C312.697 101.195 313.447 100.46 313.732 100.055V101H315.322V93.5H313.732V97.28C313.732 98.825 312.847 99.77 311.857 99.77C311.017 99.77 310.372 99.245 310.372 97.925V93.5H308.647V98.105C308.647 100.64 310.447 101.195 311.482 101.195ZM317.464 101H319.144V90.5H317.464V101ZM258.336 120.03L262.251 120C264.996 119.985 267.096 117.78 267.096 114.675C267.096 111.615 264.936 109.44 262.101 109.47L258.336 109.5V120.03ZM259.896 118.44V111.135L262.101 111.105C263.961 111.075 265.431 112.53 265.431 114.735C265.431 116.925 263.931 118.38 262.041 118.41L259.896 118.44ZM275.312 120L277.487 120.015V109.5H275.912V117.78L271.037 109.5H269.012V120H270.587V111.975L275.312 120ZM283.627 120.105C285.877 120.105 287.512 118.905 287.512 116.985C287.512 115.47 286.627 114.24 283.612 113.895C282.322 113.745 281.482 113.25 281.482 112.425C281.482 111.765 282.112 111.03 283.342 111.03C284.482 111.03 285.442 111.645 285.517 112.74H287.287C287.197 110.67 285.727 109.41 283.357 109.41C281.182 109.41 279.607 110.79 279.607 112.485C279.607 113.895 280.642 115.17 283.717 115.5C285.142 115.65 285.637 116.175 285.637 116.97C285.637 117.72 284.932 118.545 283.627 118.545C282.262 118.545 281.437 117.87 281.182 116.76H279.322C279.487 119.01 281.542 120.105 283.627 120.105ZM297.157 120.105C299.407 120.105 301.042 118.905 301.042 116.985C301.042 115.47 300.157 114.24 297.142 113.895C295.852 113.745 295.012 113.25 295.012 112.425C295.012 111.765 295.642 111.03 296.872 111.03C298.012 111.03 298.972 111.645 299.047 112.74H300.817C300.727 110.67 299.257 109.41 296.887 109.41C294.712 109.41 293.137 110.79 293.137 112.485C293.137 113.895 294.172 115.17 297.247 115.5C298.672 115.65 299.167 116.175 299.167 116.97C299.167 117.72 298.462 118.545 297.157 118.545C295.792 118.545 294.967 117.87 294.712 116.76H292.852C293.017 119.01 295.072 120.105 297.157 120.105ZM305.822 120.165C307.622 120.165 308.822 119.1 309.047 117.63H307.547C307.202 118.62 306.302 118.785 305.822 118.785C304.637 118.785 303.857 118.035 303.857 116.805V116.79H309.167C309.347 114.315 308.087 112.41 305.777 112.41C303.647 112.41 302.207 113.985 302.207 116.31C302.207 118.725 303.632 120.165 305.822 120.165ZM303.902 115.395C303.962 114.45 304.727 113.79 305.732 113.79C306.737 113.79 307.442 114.45 307.487 115.395H303.902ZM310.801 120H312.346V116.205C312.346 114.36 313.516 114.03 314.536 114.045H314.791V112.38H314.446C313.021 112.38 312.496 113.13 312.346 113.415V112.5H310.801V120ZM318.347 120H319.622L322.712 112.5H320.972L318.992 117.78L316.982 112.5H315.272L318.347 120ZM326.819 120.165C328.619 120.165 329.819 119.1 330.044 117.63H328.544C328.199 118.62 327.299 118.785 326.819 118.785C325.634 118.785 324.854 118.035 324.854 116.805V116.79H330.164C330.344 114.315 329.084 112.41 326.774 112.41C324.644 112.41 323.204 113.985 323.204 116.31C323.204 118.725 324.629 120.165 326.819 120.165ZM324.899 115.395C324.959 114.45 325.724 113.79 326.729 113.79C327.734 113.79 328.439 114.45 328.484 115.395H324.899ZM331.798 120H333.343V116.205C333.343 114.36 334.513 114.03 335.533 114.045H335.788V112.38H335.443C334.018 112.38 333.493 113.13 333.343 113.415V112.5H331.798V120Z" fill="black"/>
<rect x="273" y="198" width="46" height="46" rx="2" fill="white"/>
<rect x="272.25" y="197.25" width="47.5" height="47.5" rx="2.75" stroke="black" stroke-opacity="0.16" stroke-width="1.5"/>
<path d="M277.675 269L278.65 266.42H282.655L283.645 269H285.52L281.5 258.5H279.82L275.8 268.985L277.675 269ZM279.1 264.92L280.66 260.555L282.205 264.92H279.1ZM286.99 272H288.505V267.935C288.91 268.49 289.675 269.075 290.935 269.075C292.6 269.075 294.325 267.755 294.325 265.205C294.325 262.61 292.465 261.335 290.89 261.335C289.57 261.335 288.715 262.13 288.505 262.535V261.5H286.99V272ZM290.59 267.62C289.375 267.62 288.52 266.6 288.52 265.16C288.52 263.795 289.375 262.82 290.59 262.82C291.79 262.82 292.63 263.855 292.63 265.31C292.63 266.66 291.79 267.62 290.59 267.62ZM295.937 272H297.452V267.935C297.857 268.49 298.622 269.075 299.882 269.075C301.547 269.075 303.272 267.755 303.272 265.205C303.272 262.61 301.412 261.335 299.837 261.335C298.517 261.335 297.662 262.13 297.452 262.535V261.5H295.937V272ZM299.537 267.62C298.322 267.62 297.467 266.6 297.467 265.16C297.467 263.795 298.322 262.82 299.537 262.82C300.737 262.82 301.577 263.855 301.577 265.31C301.577 266.66 300.737 267.62 299.537 267.62ZM309.133 269.03H313.888C315.763 269.03 316.948 267.89 316.978 266.075C316.993 264.815 316.198 263.705 315.163 263.315C315.853 262.985 316.498 262.25 316.498 261.215C316.498 259.475 315.163 258.5 313.468 258.5H309.133V269.03ZM310.738 262.835V259.985H313.378C314.308 259.985 314.773 260.645 314.773 261.455C314.773 262.235 314.173 262.835 313.453 262.835H310.738ZM310.768 267.44V264.305H313.573C314.488 264.305 315.133 264.995 315.133 265.895C315.133 266.855 314.488 267.44 313.573 267.44H310.768Z" fill="black"/>
<path d="M272.597 288V287.012H270.465V278.965H269.542L267.254 280.707V281.825L269.399 280.226V287.012H267.202V288H272.597ZM277.631 288.117C279.737 288.117 281.128 286.245 281.128 283.476C281.128 280.707 279.75 278.835 277.657 278.835C275.538 278.835 274.16 280.707 274.16 283.502C274.16 286.258 275.525 288.117 277.631 288.117ZM277.644 287.103C276.214 287.103 275.317 285.647 275.317 283.437C275.317 281.266 276.188 279.862 277.618 279.862C279.061 279.862 279.984 281.331 279.984 283.515C279.984 285.66 279.074 287.103 277.644 287.103ZM282.29 288H283.642V286.557H282.29V288ZM290.68 288V287.012H288.548V278.965H287.625L285.337 280.707V281.825L287.482 280.226V287.012H285.285V288H290.68ZM292.023 288H293.375V286.557H292.023V288ZM300.412 288V287.012H298.28V278.965H297.357L295.069 280.707V281.825L297.214 280.226V287.012H295.017V288H300.412ZM305.447 288.117C307.553 288.117 308.944 286.245 308.944 283.476C308.944 280.707 307.566 278.835 305.473 278.835C303.354 278.835 301.976 280.707 301.976 283.502C301.976 286.258 303.341 288.117 305.447 288.117ZM305.46 287.103C304.03 287.103 303.133 285.647 303.133 283.437C303.133 281.266 304.004 279.862 305.434 279.862C306.877 279.862 307.8 281.331 307.8 283.515C307.8 285.66 306.89 287.103 305.46 287.103ZM310.106 288H311.458V286.557H310.106V288ZM317.924 288V286.115H319.263V285.062H317.924V278.9H316.611L312.386 285.114V286.102H316.806V288H317.924ZM316.806 280.343V285.062H313.582L316.806 280.343ZM320.261 288H326.358V286.921L321.847 286.934L323.862 285.114C325.24 283.879 326.241 282.982 326.241 281.565C326.241 280.005 325.006 278.809 323.29 278.809C321.548 278.809 320.261 279.979 320.157 281.695H321.353C321.457 280.577 322.211 279.862 323.29 279.862C324.382 279.862 325.097 280.551 325.097 281.604C325.097 282.618 324.317 283.307 322.809 284.633L320.261 286.882V288Z" fill="#343536"/>
<rect x="417" y="198" width="46" height="46" rx="2" fill="white"/>
<rect x="416.25" y="197.25" width="47.5" height="47.5" rx="2.75" stroke="black" stroke-opacity="0.16" stroke-width="1.5"/>
<path d="M421.675 269L422.65 266.42H426.655L427.645 269H429.52L425.5 258.5H423.82L419.8 268.985L421.675 269ZM423.1 264.92L424.66 260.555L426.205 264.92H423.1ZM430.99 272H432.505V267.935C432.91 268.49 433.675 269.075 434.935 269.075C436.6 269.075 438.325 267.755 438.325 265.205C438.325 262.61 436.465 261.335 434.89 261.335C433.57 261.335 432.715 262.13 432.505 262.535V261.5H430.99V272ZM434.59 267.62C433.375 267.62 432.52 266.6 432.52 265.16C432.52 263.795 433.375 262.82 434.59 262.82C435.79 262.82 436.63 263.855 436.63 265.31C436.63 266.66 435.79 267.62 434.59 267.62ZM439.937 272H441.452V267.935C441.857 268.49 442.622 269.075 443.882 269.075C445.547 269.075 447.272 267.755 447.272 265.205C447.272 262.61 445.412 261.335 443.837 261.335C442.517 261.335 441.662 262.13 441.452 262.535V261.5H439.937V272ZM443.537 267.62C442.322 267.62 441.467 266.6 441.467 265.16C441.467 263.795 442.322 262.82 443.537 262.82C444.737 262.82 445.577 263.855 445.577 265.31C445.577 266.66 444.737 267.62 443.537 267.62ZM453.133 269.03H457.888C459.763 269.03 460.948 267.89 460.978 266.075C460.993 264.815 460.198 263.705 459.163 263.315C459.853 262.985 460.498 262.25 460.498 261.215C460.498 259.475 459.163 258.5 457.468 258.5H453.133V269.03ZM454.738 262.835V259.985H457.378C458.308 259.985 458.773 260.645 458.773 261.455C458.773 262.235 458.173 262.835 457.453 262.835H454.738ZM454.768 267.44V264.305H457.573C458.488 264.305 459.133 264.995 459.133 265.895C459.133 266.855 458.488 267.44 457.573 267.44H454.768Z" fill="black"/>
<path d="M416.172 288V287.012H414.04V278.965H413.117L410.829 280.707V281.825L412.974 280.226V287.012H410.777V288H416.172ZM421.206 288.117C423.312 288.117 424.703 286.245 424.703 283.476C424.703 280.707 423.325 278.835 421.232 278.835C419.113 278.835 417.735 280.707 417.735 283.502C417.735 286.258 419.1 288.117 421.206 288.117ZM421.219 287.103C419.789 287.103 418.892 285.647 418.892 283.437C418.892 281.266 419.763 279.862 421.193 279.862C422.636 279.862 423.559 281.331 423.559 283.515C423.559 285.66 422.649 287.103 421.219 287.103ZM425.865 288H427.217V286.557H425.865V288ZM434.255 288V287.012H432.123V278.965H431.2L428.912 280.707V281.825L431.057 280.226V287.012H428.86V288H434.255ZM435.597 288H436.949V286.557H435.597V288ZM443.987 288V287.012H441.855V278.965H440.932L438.644 280.707V281.825L440.789 280.226V287.012H438.592V288H443.987ZM449.022 288.117C451.128 288.117 452.519 286.245 452.519 283.476C452.519 280.707 451.141 278.835 449.048 278.835C446.929 278.835 445.551 280.707 445.551 283.502C445.551 286.258 446.916 288.117 449.022 288.117ZM449.035 287.103C447.605 287.103 446.708 285.647 446.708 283.437C446.708 281.266 447.579 279.862 449.009 279.862C450.452 279.862 451.375 281.331 451.375 283.515C451.375 285.66 450.465 287.103 449.035 287.103ZM453.681 288H455.033V286.557H453.681V288ZM460.653 283.255C461.381 282.982 462.187 282.228 462.187 281.136C462.187 279.771 461.017 278.796 459.34 278.796C457.494 278.796 456.311 279.94 456.246 281.708H457.416C457.481 280.564 458.157 279.875 459.275 279.875C460.302 279.875 461.017 280.434 461.017 281.266C461.017 282.202 460.211 282.813 458.976 282.813H458.586V283.905H459.028C460.393 283.905 461.251 284.542 461.251 285.504C461.251 286.349 460.523 287.064 459.327 287.064C458.131 287.064 457.299 286.297 457.312 285.192H456.129C456.194 286.921 457.481 288.13 459.366 288.13C461.199 288.13 462.408 286.986 462.421 285.543C462.447 284.23 461.524 283.541 460.653 283.255ZM467.105 288.117C469.211 288.117 470.602 286.245 470.602 283.476C470.602 280.707 469.224 278.835 467.131 278.835C465.012 278.835 463.634 280.707 463.634 283.502C463.634 286.258 464.999 288.117 467.105 288.117ZM467.118 287.103C465.688 287.103 464.791 285.647 464.791 283.437C464.791 281.266 465.662 279.862 467.092 279.862C468.535 279.862 469.458 281.331 469.458 283.515C469.458 285.66 468.548 287.103 467.118 287.103Z" fill="#343536"/>
<rect x="129" y="198" width="46" height="46" rx="2" fill="white"/>
<rect x="128.25" y="197.25" width="47.5" height="47.5" rx="2.75" stroke="black" stroke-opacity="0.16" stroke-width="1.5"/>
<path d="M133.675 269L134.65 266.42H138.655L139.645 269H141.52L137.5 258.5H135.82L131.8 268.985L133.675 269ZM135.1 264.92L136.66 260.555L138.205 264.92H135.1ZM142.99 272H144.505V267.935C144.91 268.49 145.675 269.075 146.935 269.075C148.6 269.075 150.325 267.755 150.325 265.205C150.325 262.61 148.465 261.335 146.89 261.335C145.57 261.335 144.715 262.13 144.505 262.535V261.5H142.99V272ZM146.59 267.62C145.375 267.62 144.52 266.6 144.52 265.16C144.52 263.795 145.375 262.82 146.59 262.82C147.79 262.82 148.63 263.855 148.63 265.31C148.63 266.66 147.79 267.62 146.59 267.62ZM151.937 272H153.452V267.935C153.857 268.49 154.622 269.075 155.882 269.075C157.547 269.075 159.272 267.755 159.272 265.205C159.272 262.61 157.412 261.335 155.837 261.335C154.517 261.335 153.662 262.13 153.452 262.535V261.5H151.937V272ZM155.537 267.62C154.322 267.62 153.467 266.6 153.467 265.16C153.467 263.795 154.322 262.82 155.537 262.82C156.737 262.82 157.577 263.855 157.577 265.31C157.577 266.66 156.737 267.62 155.537 267.62ZM165.133 269.03H169.888C171.763 269.03 172.948 267.89 172.978 266.075C172.993 264.815 172.198 263.705 171.163 263.315C171.853 262.985 172.498 262.25 172.498 261.215C172.498 259.475 171.163 258.5 169.468 258.5H165.133V269.03ZM166.738 262.835V259.985H169.378C170.308 259.985 170.773 260.645 170.773 261.455C170.773 262.235 170.173 262.835 169.453 262.835H166.738ZM166.768 267.44V264.305H169.573C170.488 264.305 171.133 264.995 171.133 265.895C171.133 266.855 170.488 267.44 169.573 267.44H166.768Z" fill="black"/>
<path d="M128.661 288V287.012H126.529V278.965H125.606L123.318 280.707V281.825L125.463 280.226V287.012H123.266V288H128.661ZM133.695 288.117C135.801 288.117 137.192 286.245 137.192 283.476C137.192 280.707 135.814 278.835 133.721 278.835C131.602 278.835 130.224 280.707 130.224 283.502C130.224 286.258 131.589 288.117 133.695 288.117ZM133.708 287.103C132.278 287.103 131.381 285.647 131.381 283.437C131.381 281.266 132.252 279.862 133.682 279.862C135.125 279.862 136.048 281.331 136.048 283.515C136.048 285.66 135.138 287.103 133.708 287.103ZM138.354 288H139.706V286.557H138.354V288ZM146.744 288V287.012H144.612V278.965H143.689L141.401 280.707V281.825L143.546 280.226V287.012H141.349V288H146.744ZM148.086 288H149.438V286.557H148.086V288ZM156.476 288V287.012H154.344V278.965H153.421L151.133 280.707V281.825L153.278 280.226V287.012H151.081V288H156.476ZM161.51 288.117C163.616 288.117 165.007 286.245 165.007 283.476C165.007 280.707 163.629 278.835 161.536 278.835C159.417 278.835 158.039 280.707 158.039 283.502C158.039 286.258 159.404 288.117 161.51 288.117ZM161.523 287.103C160.093 287.103 159.196 285.647 159.196 283.437C159.196 281.266 160.067 279.862 161.497 279.862C162.94 279.862 163.863 281.331 163.863 283.515C163.863 285.66 162.953 287.103 161.523 287.103ZM166.169 288H167.521V286.557H166.169V288ZM173.142 283.255C173.87 282.982 174.676 282.228 174.676 281.136C174.676 279.771 173.506 278.796 171.829 278.796C169.983 278.796 168.8 279.94 168.735 281.708H169.905C169.97 280.564 170.646 279.875 171.764 279.875C172.791 279.875 173.506 280.434 173.506 281.266C173.506 282.202 172.7 282.813 171.465 282.813H171.075V283.905H171.517C172.882 283.905 173.74 284.542 173.74 285.504C173.74 286.349 173.012 287.064 171.816 287.064C170.62 287.064 169.788 286.297 169.801 285.192H168.618C168.683 286.921 169.97 288.13 171.855 288.13C173.688 288.13 174.897 286.986 174.91 285.543C174.936 284.23 174.013 283.541 173.142 283.255ZM179.269 288.052C180.881 288.039 182.324 286.947 182.324 285.023C182.324 283.229 180.998 282.059 179.412 282.059C178.437 282.059 177.514 282.527 177.02 283.411V283.073C177.072 280.993 177.813 279.927 179.165 279.836C180.036 279.784 180.894 280.226 181.128 281.253L182.207 281.24C182.012 279.888 180.907 278.835 179.295 278.835C177.761 278.822 175.928 279.745 175.928 283.489C175.928 286.492 177.319 288.052 179.269 288.052ZM179.269 287.012C178.177 287.012 177.371 286.102 177.371 285.101C177.371 284.022 178.203 283.177 179.269 283.177C180.322 283.177 181.115 283.97 181.115 285.049C181.115 286.128 180.361 287.012 179.269 287.012Z" fill="#343536"/>
<path fill-rule="evenodd" clip-rule="evenodd" d="M152.89 210.449L160.89 214.449C161.57 214.787 162 215.48 162 216.239V225.769C162 226.528 161.57 227.221 160.89 227.559L152.89 231.559C152.327 231.841 151.663 231.841 151.1 231.559L143.1 227.559C142.421 227.217 141.995 226.519 142 225.759V216.239C142 215.48 142.43 214.787 143.11 214.449L151.11 210.449C151.671 210.171 152.329 210.171 152.89 210.449Z" stroke="black" stroke-width="1.5" stroke-linecap="round" stroke-linejoin="round"/>
<path d="M142.32 215.16L152 220L161.68 215.16" stroke="black" stroke-width="1.5" stroke-linecap="round" stroke-linejoin="round"/>
<path d="M152 231.76V220" stroke="black" stroke-width="1.5" stroke-linecap="round" stroke-linejoin="round"/>
<path fill-rule="evenodd" clip-rule="evenodd" d="M296.89 210.449L304.89 214.449C305.57 214.787 306 215.48 306 216.239V225.769C306 226.528 305.57 227.221 304.89 227.559L296.89 231.559C296.327 231.841 295.663 231.841 295.1 231.559L287.1 227.559C286.421 227.217 285.995 226.519 286 225.759V216.239C286 215.48 286.43 214.787 287.11 214.449L295.11 210.449C295.671 210.171 296.329 210.171 296.89 210.449Z" stroke="black" stroke-width="1.5" stroke-linecap="round" stroke-linejoin="round"/>
<path d="M286.32 215.16L296 220L305.68 215.16" stroke="black" stroke-width="1.5" stroke-linecap="round" stroke-linejoin="round"/>
<path d="M296 231.76V220" stroke="black" stroke-width="1.5" stroke-linecap="round" stroke-linejoin="round"/>
<path fill-rule="evenodd" clip-rule="evenodd" d="M440.89 210.449L448.89 214.449C449.57 214.787 450 215.48 450 216.239V225.769C450 226.528 449.57 227.221 448.89 227.559L440.89 231.559C440.327 231.841 439.663 231.841 439.1 231.559L431.1 227.559C430.421 227.217 429.995 226.519 430 225.759V216.239C430 215.48 430.43 214.787 431.11 214.449L439.11 210.449C439.671 210.171 440.329 210.171 440.89 210.449Z" stroke="black" stroke-width="1.5" stroke-linecap="round" stroke-linejoin="round"/>
<path d="M430.32 215.16L440 220L449.68 215.16" stroke="black" stroke-width="1.5" stroke-linecap="round" stroke-linejoin="round"/>
<path d="M440 231.76V220" stroke="black" stroke-width="1.5" stroke-linecap="round" stroke-linejoin="round"/>
<circle cx="174" cy="243" r="6" fill="#DC477D"/>
<circle cx="318" cy="243" r="6" fill="#DC477D"/>
<circle cx="462" cy="243" r="6" fill="#DC477D"/>
<circle cx="296" cy="41" r="40" fill="#DC477D"/>
<path d="M296.162 58.3243C293.438 58.3265 290.755 57.6639 288.345 56.394C285.935 55.124 283.872 53.2851 282.334 51.0368C280.795 48.7886 279.829 46.1989 279.519 43.4926C279.209 40.7864 279.564 38.0452 280.553 35.5072C281.542 32.9692 283.136 30.711 285.196 28.9285C287.256 27.1461 289.72 25.8933 292.373 25.2789C295.027 24.6646 297.791 24.7072 300.424 25.403C303.058 26.0989 305.482 27.427 307.486 29.2721L303.514 33.4277C301.935 32.0012 299.976 31.0634 297.874 30.7281C295.773 30.3927 293.619 30.674 291.674 31.538C289.73 32.402 288.077 33.8116 286.917 35.5959C285.758 37.3802 285.14 39.4625 285.14 41.5906C285.14 43.7186 285.758 45.801 286.917 47.5853C288.077 49.3695 289.73 50.7791 291.674 51.6431C293.619 52.5071 295.773 52.7885 297.874 52.4531C299.976 52.1177 301.935 51.1799 303.514 49.7535L307.486 53.909C304.4 56.7515 300.358 58.3279 296.162 58.3243Z" fill="white"/>
<path d="M309.63 49.9529C309.358 49.9529 309.093 49.8724 308.868 49.7217C308.642 49.5709 308.466 49.3566 308.362 49.1059C308.258 48.8553 308.231 48.5794 308.284 48.3133C308.337 48.0471 308.468 47.8027 308.66 47.6108C308.852 47.4189 309.096 47.2883 309.362 47.2353C309.628 47.1824 309.904 47.2096 310.155 47.3134C310.405 47.4173 310.62 47.5931 310.77 47.8187C310.921 48.0443 311.002 48.3096 311.002 48.5809C311.001 48.9445 310.856 49.293 310.599 49.5501C310.342 49.8073 309.993 49.9521 309.63 49.9529Z" fill="white"/>
<path d="M296.054 45.2128C295.336 45.2159 294.633 45.0056 294.035 44.6088C293.436 44.212 292.969 43.6464 292.692 42.9838C292.416 42.3211 292.342 41.5912 292.48 40.8866C292.619 40.182 292.963 39.5343 293.47 39.0256C293.977 38.517 294.624 38.1703 295.328 38.0294C296.032 37.8886 296.762 37.9599 297.426 38.2345C298.089 38.509 298.656 38.9743 299.055 39.5715C299.454 40.1687 299.667 40.8708 299.666 41.589C299.664 42.5475 299.284 43.4664 298.607 44.1453C297.931 44.8243 297.013 45.208 296.054 45.2128Z" fill="white"/>
<path d="M311.204 45.2771C310.933 45.2771 310.667 45.1966 310.442 45.0459C310.216 44.8951 310.04 44.6809 309.936 44.4302C309.833 44.1795 309.805 43.9036 309.858 43.6375C309.911 43.3714 310.042 43.1269 310.234 42.935C310.426 42.7432 310.67 42.6125 310.936 42.5596C311.202 42.5066 311.478 42.5338 311.729 42.6376C311.98 42.7415 312.194 42.9173 312.345 43.1429C312.495 43.3685 312.576 43.6338 312.576 43.9051C312.575 44.2688 312.43 44.6173 312.173 44.8744C311.916 45.1315 311.568 45.2763 311.204 45.2771Z" fill="white"/>
<path d="M307.126 45.1052C306.854 45.1052 306.588 45.0243 306.362 44.8729C306.136 44.7215 305.96 44.5063 305.857 44.2547C305.753 44.0031 305.727 43.7265 305.781 43.4599C305.836 43.1934 305.968 42.949 306.161 42.7577C306.355 42.5665 306.6 42.4371 306.868 42.3859C307.135 42.3347 307.411 42.364 307.661 42.4702C307.912 42.5764 308.125 42.7546 308.274 42.9822C308.423 43.2098 308.501 43.4766 308.498 43.7485C308.494 44.1098 308.347 44.4548 308.091 44.7088C307.834 44.9628 307.487 45.1052 307.126 45.1052Z" fill="white"/>
<path d="M311.204 40.654C310.933 40.654 310.667 40.5736 310.442 40.4228C310.216 40.2721 310.04 40.0578 309.936 39.8071C309.833 39.5564 309.805 39.2806 309.858 39.0144C309.911 38.7483 310.042 38.5039 310.234 38.312C310.426 38.1201 310.67 37.9895 310.936 37.9365C311.202 37.8836 311.478 37.9108 311.729 38.0146C311.98 38.1184 312.194 38.2943 312.345 38.5199C312.495 38.7455 312.576 39.0108 312.576 39.2821C312.575 39.6457 312.43 39.9942 312.173 40.2513C311.916 40.5084 311.568 40.6532 311.204 40.654Z" fill="white"/>
<path d="M307.126 40.8103C306.855 40.8103 306.589 40.7298 306.364 40.5791C306.138 40.4283 305.962 40.2141 305.858 39.9634C305.755 39.7127 305.727 39.4368 305.78 39.1707C305.833 38.9046 305.964 38.6601 306.156 38.4682C306.348 38.2764 306.592 38.1457 306.858 38.0928C307.124 38.0398 307.4 38.067 307.651 38.1708C307.902 38.2747 308.116 38.4505 308.267 38.6761C308.417 38.9018 308.498 39.167 308.498 39.4383C308.498 39.8022 308.353 40.1512 308.096 40.4085C307.839 40.6657 307.49 40.8103 307.126 40.8103Z" fill="white"/>
<path d="M309.709 36.0408C309.438 36.0414 309.172 35.9614 308.946 35.811C308.72 35.6607 308.544 35.4466 308.439 35.196C308.335 34.9453 308.307 34.6694 308.36 34.403C308.413 34.1367 308.543 33.892 308.735 33.6998C308.926 33.5076 309.171 33.3766 309.437 33.3235C309.703 33.2703 309.979 33.2973 310.23 33.401C310.481 33.5048 310.696 33.6806 310.846 33.9063C310.997 34.132 311.078 34.3973 311.078 34.6688C311.078 35.0322 310.934 35.3806 310.677 35.6379C310.42 35.8951 310.072 36.04 309.709 36.0408Z" fill="white"/>
</svg>
