<svg width="160" height="96" viewBox="0 0 160 96" fill="none" xmlns="http://www.w3.org/2000/svg">
<rect width="160" height="96" />
<circle cx="6" cy="6" r="6" fill="#DC477D"/>
<circle cx="134" cy="6" r="6" fill="#DC477D"/>
<circle cx="70" cy="6" r="6" fill="#DC477D"/>
<circle cx="6" cy="70" r="6" fill="#DBDBDC"/>
<circle cx="134" cy="70" r="6" fill="#DC477D"/>
<circle cx="70" cy="70" r="6" fill="#DC477D"/>
<circle cx="6" cy="26" r="6" fill="#DC477D"/>
<circle cx="134" cy="26" r="6" fill="#DC477D"/>
<circle cx="70" cy="26" r="6" fill="#DC477D"/>
<circle cx="6" cy="90" r="6" fill="#DBDBDC"/>
<circle cx="134" cy="90" r="6" fill="#DC477D"/>
<circle cx="70" cy="90" r="6" fill="#DBDBDC"/>
<circle cx="26" cy="6" r="6" fill="#DC477D"/>
<circle cx="154" cy="6" r="6" fill="#DC477D"/>
<circle cx="90" cy="6" r="6" fill="#DBDBDC"/>
<circle cx="26" cy="70" r="6" fill="#DBDBDC"/>
<circle cx="154" cy="70" r="6" fill="#DC477D"/>
<circle cx="90" cy="70" r="6" fill="#DC477D"/>
<circle cx="26" cy="26" r="6" fill="#DBDBDC"/>
<circle cx="154" cy="26" r="6" fill="#DC477D"/>
<circle cx="90" cy="26" r="6" fill="#DC477D"/>
<circle cx="26" cy="90" r="6" fill="#DBDBDC"/>
<circle cx="154" cy="90" r="6" fill="#DBDBDC"/>
<circle cx="90" cy="90" r="6" fill="#DBDBDC"/>
</svg>
