<svg version="1.1" viewBox="0.0 0.0 960.0 540.0" fill="none" stroke="none" stroke-linecap="square" stroke-miterlimit="10" xmlns:xlink="http://www.w3.org/1999/xlink" xmlns="http://www.w3.org/2000/svg"><clipPath id="g155373dfe26_0_111.0"><path d="m0 0l960.0 0l0 540.0l-960.0 0l0 -540.0z" clip-rule="nonzero"/></clipPath><g clip-path="url(#g155373dfe26_0_111.0)"><path fill="#ffffff" d="m0 0l960.0 0l0 540.0l-960.0 0z" fill-rule="evenodd"/><defs><linearGradient id="g155373dfe26_0_111.1" gradientUnits="userSpaceOnUse" gradientTransform="matrix(13.809855404762981 0.0 0.0 13.809855404762981 0.0 0.0)" spreadMethod="pad" x1="0.4667821665604486" y1="12.749412584769958" x2="0.4667321928439975" y2="26.559267989442517"><stop offset="0.0" stop-color="#ffffff"/><stop offset="0.055555556" stop-color="#fffeff" stop-opacity="0.94509804"/><stop offset="0.11111111" stop-color="#fefdfe" stop-opacity="0.89411765"/><stop offset="0.16666667" stop-color="#fffdfe" stop-opacity="0.8392157"/><stop offset="0.22222222" stop-color="#fefbfc" stop-opacity="0.7882353"/><stop offset="0.2777778" stop-color="#fefafb" stop-opacity="0.7372549"/><stop offset="0.33333334" stop-color="#fef9fb" stop-opacity="0.68235296"/><stop offset="0.3888889" stop-color="#fdf7fa" stop-opacity="0.6313726"/><stop offset="0.44444445" stop-color="#fdf6fa" stop-opacity="0.5764706"/><stop offset="0.5" stop-color="#fdf5f7" stop-opacity="0.5254902"/><stop offset="0.5555556" stop-color="#fbf0f4" stop-opacity="0.4745098"/><stop offset="0.6111111" stop-color="#fdf1f3" stop-opacity="0.41960785"/><stop offset="0.6666667" stop-color="#fae9ef" stop-opacity="0.36862746"/><stop offset="0.7222222" stop-color="#fce9ef" stop-opacity="0.3137255"/><stop offset="0.7777778" stop-color="#f7dde8" stop-opacity="0.2627451"/><stop offset="0.8333333" stop-color="#f6d5de" stop-opacity="0.21176471"/><stop offset="0.8888889" stop-color="#f2bfd2" stop-opacity="0.15686275"/><stop offset="0.9444445" stop-color="#eca1b3" stop-opacity="0.105882354"/><stop offset="1.0" stop-color="#e03875" stop-opacity="0.05490196"/></linearGradient></defs><path fill="url(#g155373dfe26_0_111.1)" d="m6.446194 182.03253l0 0c0 -3.2924805 2.6690784 -5.961548 5.961553 -5.961548l935.19495 0c1.5811157 0 3.0974731 0.6280823 4.215454 1.7460938c1.118042 1.1180115 1.7461548 2.6343536 1.7461548 4.215454l0 178.78555c0 3.2924805 -2.6691284 5.961548 -5.961609 5.961548l-935.19495 0c-3.2924747 0 -5.961553 -2.6690674 -5.961553 -5.961548z" fill-rule="evenodd"/><path fill="#e03875" fill-opacity="0.0562" d="m247.55678 62.259632l0 0c0 -2.5018463 2.0281525 -4.529995 4.529999 -4.529995l455.8219 0c1.201416 0 2.3536377 0.47726822 3.203186 1.3268051c0.84954834 0.8495369 1.3267822 2.0017586 1.3267822 3.2031898l0 135.85341c0 2.5018463 -2.0281372 4.5299835 -4.5299683 4.5299835l-455.8219 0c-2.5018463 0 -4.529999 -2.0281372 -4.529999 -4.5299835z" fill-rule="evenodd"/><path fill="#ffffff" d="m795.27277 231.65543l0 0c0 -4.3683777 -3.5412598 -7.9096527 -7.909668 -7.9096527l-268.9051 0c-2.0977783 0 -4.109619 0.8333435 -5.5929565 2.316681c-1.4833679 1.4833527 -2.3167114 3.4951935 -2.3167114 5.592972l0 275.29883c0 4.3683777 3.5412598 7.9096375 7.909668 7.9096375l268.9051 0c4.368408 0 7.909668 -3.5412598 7.909668 -7.9096375z" fill-rule="evenodd"/><path stroke="#d6d6d6" stroke-width="1.0" stroke-miterlimit="400.0" stroke-linecap="butt" d="m795.27277 231.65543l0 0c0 -4.3683777 -3.5412598 -7.9096527 -7.909668 -7.9096527l-268.9051 0c-2.0977783 0 -4.109619 0.8333435 -5.5929565 2.316681c-1.4833679 1.4833527 -2.3167114 3.4951935 -2.3167114 5.592972l0 275.29883c0 4.3683777 3.5412598 7.9096375 7.909668 7.9096375l268.9051 0c4.368408 0 7.909668 -3.5412598 7.909668 -7.9096375z" fill-rule="evenodd"/><path fill="#000000" fill-opacity="0.0" d="m585.4756 260.96783l0 -56.251953" fill-rule="evenodd"/><path stroke="#e03875" stroke-width="2.0" stroke-miterlimit="400.0" stroke-linecap="butt" stroke-dasharray="2.0,6.0" d="m585.4756 260.96783l0 -56.251953" fill-rule="evenodd"/><path fill="#ffffff" d="m554.91113 387.1173l0 0c0 -0.9378052 0.7602539 -1.6980591 1.6980591 -1.6980591l57.72943 0c0.45037842 0 0.8822632 0.17889404 1.2007446 0.49734497c0.3184204 0.31845093 0.49731445 0.7503662 0.49731445 1.2007141l0 57.72943c0 0.9378052 -0.7602539 1.6980591 -1.6980591 1.6980591l-57.72943 0c-0.9378052 0 -1.6980591 -0.7602539 -1.6980591 -1.6980591z" fill-rule="evenodd"/><path stroke="#3c78d8" stroke-width="1.0" stroke-miterlimit="400.0" stroke-linecap="butt" d="m554.91113 387.1173l0 0c0 -0.9378052 0.7602539 -1.6980591 1.6980591 -1.6980591l57.72943 0c0.45037842 0 0.8822632 0.17889404 1.2007446 0.49734497c0.3184204 0.31845093 0.49731445 0.7503662 0.49731445 1.2007141l0 57.72943c0 0.9378052 -0.7602539 1.6980591 -1.6980591 1.6980591l-57.72943 0c-0.9378052 0 -1.6980591 -0.7602539 -1.6980591 -1.6980591z" fill-rule="evenodd"/><path fill="#000000" fill-opacity="0.0" d="m535.073 449.37268l100.80939 0l0 27.79303l-100.80939 0z" fill-rule="evenodd"/><path fill="#000000" d="m574.11145 454.33017q1.34375 0 2.125 0.75q0.78125 0.75 0.78125 2.0q0 1.234375 -0.78125 1.984375q-0.78125 0.75 -2.125 0.75l-2.03125 0l0 3.078125l-1.890625 0l0 -8.5625l3.921875 0zm-0.515625 4.03125q0.8125 0 1.203125 -0.296875q0.390625 -0.3125 0.390625 -0.984375q0 -0.65625 -0.390625 -0.96875q-0.375 -0.328125 -1.203125 -0.328125l-1.515625 0l0 2.578125l1.515625 0zm7.8535156 -1.84375q0.109375 0 0.203125 0.015625q0.09375 0.015625 0.171875 0.046875l0 1.578125q-0.140625 -0.03125 -0.28125 -0.03125q-0.140625 -0.015625 -0.328125 -0.015625q-0.859375 0 -1.28125 0.53125q-0.40625 0.515625 -0.40625 1.40625l0 2.84375l-1.6875 0l0 -6.203125l1.609375 0l0 1.15625l0.03125 0q0.265625 -0.609375 0.796875 -0.96875q0.546875 -0.359375 1.171875 -0.359375zm3.9667969 0q1.46875 0 2.34375 0.90625q0.875 0.890625 0.875 2.375q0 1.484375 -0.890625 2.375q-0.875 0.890625 -2.328125 0.890625q-1.4375 0 -2.328125 -0.890625q-0.875 -0.90625 -0.875 -2.375q0 -1.46875 0.859375 -2.375q0.875 -0.90625 2.34375 -0.90625zm-1.5 3.28125q0 0.984375 0.40625 1.484375q0.40625 0.5 1.09375 0.5q0.734375 0 1.125 -0.515625q0.390625 -0.53125 0.390625 -1.46875q0 -0.921875 -0.390625 -1.453125q-0.375 -0.546875 -1.125 -0.546875q-0.6875 0 -1.09375 0.5q-0.40625 0.5 -0.40625 1.5zm7.1445312 -3.109375l1.09375 1.625l1.078125 -1.625l1.875 0l-2.03125 2.90625l2.296875 3.296875l-1.953125 0l-1.296875 -1.953125l-1.296875 1.953125l-1.90625 0l2.234375 -3.265625l-2.046875 -2.9375l1.953125 0zm6.0546875 0l1.40625 4.25l0.03125 0l1.34375 -4.25l1.765625 0l-2.640625 7.09375q-0.234375 0.625 -0.71875 0.953125q-0.484375 0.34375 -1.25 0.34375q-0.375 0 -0.640625 -0.015625q-0.25 -0.015625 -0.515625 -0.046875l0 -1.40625q0.3125 0.03125 0.515625 0.046875q0.203125 0.015625 0.375 0.015625q0.359375 0 0.5625 -0.234375q0.203125 -0.21875 0.203125 -0.546875q0 -0.09375 -0.015625 -0.171875q-0.015625 -0.09375 -0.0625 -0.21875l-2.1875 -5.8125l1.828125 0z" fill-rule="nonzero"/><path fill="#000000" d="m587.6312 422.12485l-13.396118 0l6.286316 -5.856903c0.3213501 -0.29971313 0.3213501 -0.7854614 0 -1.085907c-0.32214355 -0.29971313 -0.84399414 -0.29971313 -1.1661377 0l-7.692505 7.167206c-0.07574463 0.070892334 -0.13580322 0.15576172 -0.1776123 0.24951172c-0.0836792 0.18826294 -0.0836792 0.39938354 0 0.58688354c0.041809082 0.09375 0.101867676 0.1786499 0.1776123 0.24951172l7.692505 7.167206c0.16107178 0.14984131 0.3718872 0.22515869 0.58343506 0.22515869c0.21081543 0 0.42163086 -0.07531738 0.58270264 -0.22515869c0.3213501 -0.29971313 0.3213501 -0.7854614 0 -1.085907l-6.286316 -5.85614l13.396118 0c0.45477295 0 0.8242798 -0.34402466 0.8242798 -0.7677307c0 -0.424469 -0.36950684 -0.7677307 -0.8242798 -0.7677307z" fill-rule="evenodd"/><path fill="#000000" fill-opacity="0.0" d="m582.9586 422.89282l16.5708 0" fill-rule="evenodd"/><path stroke="#000000" stroke-width="1.0" stroke-linejoin="round" stroke-linecap="butt" d="m582.9586 422.89282l16.5708 0" fill-rule="evenodd"/><path fill="#000000" d="m583.3202 409.61258l13.396057 0l-6.286255 5.8568726c-0.3213501 0.29971313 -0.3213501 0.7854614 0 1.085907c0.32208252 0.29971313 0.84399414 0.29971313 1.1661377 0l7.692444 -7.167206c0.075805664 -0.07086182 0.13580322 -0.15576172 0.17767334 -0.24951172c0.0836792 -0.18823242 0.0836792 -0.39935303 0 -0.58688354c-0.041870117 -0.09375 -0.101867676 -0.17861938 -0.17767334 -0.24951172l-7.692444 -7.167206c-0.16107178 -0.14984131 -0.3718872 -0.22512817 -0.5834961 -0.22512817c-0.21081543 0 -0.42156982 0.075286865 -0.5826416 0.22512817c-0.3213501 0.29971313 -0.3213501 0.7854614 0 1.085907l6.286255 5.8561707l-13.396057 0c-0.45477295 0 -0.8242798 0.34399414 -0.8242798 0.7677307c0 0.424469 0.36950684 0.7677307 0.8242798 0.7677307z" fill-rule="evenodd"/><path fill="#000000" fill-opacity="0.0" d="m587.99274 408.8446l-16.57074 0" fill-rule="evenodd"/><path stroke="#000000" stroke-width="1.0" stroke-linejoin="round" stroke-linecap="butt" d="m587.99274 408.8446l-16.57074 0" fill-rule="evenodd"/><path fill="#ffffff" d="m554.909 262.66614l0 0c0 -0.93795776 0.760376 -1.6983032 1.6983032 -1.6983032l57.736633 0c0.45037842 0 0.88238525 0.17892456 1.2008667 0.49743652c0.31848145 0.31848145 0.4973755 0.75042725 0.4973755 1.2008667l0 57.736603c0 0.93792725 -0.76031494 1.6983032 -1.6982422 1.6983032l-57.736633 0c-0.93792725 0 -1.6983032 -0.760376 -1.6983032 -1.6983032z" fill-rule="evenodd"/><path stroke="#e03875" stroke-width="1.0" stroke-miterlimit="400.0" stroke-linecap="butt" d="m554.909 262.66614l0 0c0 -0.93795776 0.760376 -1.6983032 1.6983032 -1.6983032l57.736633 0c0.45037842 0 0.88238525 0.17892456 1.2008667 0.49743652c0.31848145 0.31848145 0.4973755 0.75042725 0.4973755 1.2008667l0 57.736603c0 0.93792725 -0.76031494 1.6983032 -1.6982422 1.6983032l-57.736633 0c-0.93792725 0 -1.6983032 -0.760376 -1.6983032 -1.6983032z" fill-rule="evenodd"/><path fill="#e03875" d="m600.3943 309.72885l0 0c0 -2.4685974 2.0011597 -4.4697876 4.4697876 -4.4697876l0 0c1.1854858 0 2.3223877 0.47091675 3.1606445 1.3091736c0.83825684 0.83825684 1.3091431 1.9751587 1.3091431 3.160614l0 0c0 2.468628 -2.0011597 4.469818 -4.4697876 4.469818l0 0c-2.468628 0 -4.4697876 -2.0011902 -4.4697876 -4.469818z" fill-rule="evenodd"/><path fill="#000000" fill-opacity="0.0" d="m524.0635 325.41095l122.82416 0l0 27.79303l-122.82416 0z" fill-rule="evenodd"/><path fill="#000000" d="m551.83 330.16534q1.453125 0 2.484375 0.828125q1.03125 0.8125 1.203125 2.25l-1.8125 0q-0.125 -0.671875 -0.671875 -1.078125q-0.546875 -0.421875 -1.203125 -0.421875q-1.109375 0 -1.71875 0.8125q-0.609375 0.796875 -0.609375 2.125q0 1.265625 0.59375 2.0625q0.609375 0.796875 1.734375 0.796875q0.8125 0 1.3125 -0.5q0.515625 -0.5 0.625 -1.40625l1.828125 0q-0.15625 1.625 -1.1875 2.5625q-1.015625 0.9375 -2.578125 0.9375q-1.234375 0 -2.203125 -0.5625q-0.96875 -0.5625 -1.5 -1.59375q-0.515625 -1.03125 -0.515625 -2.296875q0 -1.96875 1.15625 -3.234375q1.15625 -1.28125 3.0625 -1.28125zm7.8789062 2.390625q1.46875 0 2.34375 0.90625q0.875 0.890625 0.875 2.375q0 1.484375 -0.890625 2.375q-0.875 0.890625 -2.328125 0.890625q-1.4375 0 -2.328125 -0.890625q-0.875 -0.90625 -0.875 -2.375q0 -1.46875 0.859375 -2.375q0.875 -0.90625 2.34375 -0.90625zm-1.5 3.28125q0 0.984375 0.40625 1.484375q0.40625 0.5 1.09375 0.5q0.734375 0 1.125 -0.515625q0.390625 -0.53125 0.390625 -1.46875q0 -0.921875 -0.390625 -1.453125q-0.375 -0.546875 -1.125 -0.546875q-0.6875 0 -1.09375 0.5q-0.40625 0.5 -0.40625 1.5zm9.376953 -3.28125q1.1875 0 1.71875 0.609375q0.546875 0.59375 0.546875 1.890625l0 3.875l-1.703125 0l0 -3.5625q0 -0.71875 -0.25 -1.09375q-0.25 -0.375 -0.84375 -0.375q-0.703125 0 -1.015625 0.421875q-0.3125 0.421875 -0.3125 1.296875l0 3.3125l-1.6875 0l0 -6.203125l1.609375 0l0 0.859375l0.03125 0q0.3125 -0.5 0.8125 -0.765625q0.5 -0.265625 1.09375 -0.265625zm6.0976562 0q1.265625 0 1.953125 0.5q0.703125 0.5 0.796875 1.484375l-1.625 0q-0.046875 -0.4375 -0.34375 -0.640625q-0.28125 -0.203125 -0.828125 -0.203125q-0.484375 0 -0.71875 0.15625q-0.21875 0.140625 -0.21875 0.421875q0 0.28125 0.296875 0.46875q0.296875 0.1875 1.1875 0.359375q1.421875 0.265625 1.90625 0.703125q0.5 0.4375 0.5 1.140625q0 1.046875 -0.78125 1.609375q-0.765625 0.546875 -2.046875 0.546875q-1.296875 0 -2.078125 -0.546875q-0.78125 -0.546875 -0.84375 -1.640625l1.625 0q0 0.484375 0.375 0.765625q0.375 0.28125 0.9375 0.28125q0.5 0 0.796875 -0.21875q0.3125 -0.21875 0.3125 -0.578125q0 -0.328125 -0.40625 -0.53125q-0.390625 -0.203125 -1.46875 -0.421875q-1.078125 -0.21875 -1.546875 -0.609375q-0.46875 -0.390625 -0.46875 -1.0625q0 -0.984375 0.6875 -1.484375q0.703125 -0.5 2.0 -0.5zm5.6015625 0.171875l0 3.546875q0 0.703125 0.25 1.09375q0.25 0.390625 0.859375 0.390625q0.703125 0 1.0 -0.421875q0.3125 -0.4375 0.3125 -1.296875l0 -3.3125l1.703125 0l0 6.203125l-1.625 0l0 -0.859375l-0.03125 0q-0.328125 0.515625 -0.84375 0.78125q-0.5 0.25 -1.0625 0.25q-1.15625 0 -1.703125 -0.59375q-0.546875 -0.59375 -0.546875 -1.90625l0 -3.875l1.6875 0zm7.1757812 -2.359375l0 8.5625l-1.703125 0l0 -8.5625l1.703125 0zm8.693359 -0.203125q1.453125 0 2.484375 0.828125q1.03125 0.8125 1.203125 2.25l-1.8125 0q-0.125 -0.671875 -0.671875 -1.078125q-0.546875 -0.421875 -1.203125 -0.421875q-1.109375 0 -1.71875 0.8125q-0.609375 0.796875 -0.609375 2.125q0 1.265625 0.59375 2.0625q0.609375 0.796875 1.734375 0.796875q0.8125 0 1.3125 -0.5q0.515625 -0.5 0.625 -1.40625l1.828125 0q-0.15625 1.625 -1.1875 2.5625q-1.015625 0.9375 -2.578125 0.9375q-1.234375 0 -2.203125 -0.5625q-0.96875 -0.5625 -1.5 -1.59375q-0.515625 -1.03125 -0.515625 -2.296875q0 -1.96875 1.15625 -3.234375q1.15625 -1.28125 3.0625 -1.28125zm6.6289062 0.203125l0 8.5625l-1.703125 0l0 -8.5625l1.703125 0zm3.09375 0l0 1.390625l-1.703125 0l0 -1.390625l1.703125 0zm0 2.359375l0 6.203125l-1.703125 0l0 -6.203125l1.703125 0zm4.203125 -0.171875q1.375 0 2.203125 0.953125q0.828125 0.9375 0.828125 2.421875l-0.015625 0.3125l-4.484375 0q0.046875 0.796875 0.421875 1.1875q0.390625 0.390625 1.09375 0.390625q0.46875 0 0.859375 -0.234375q0.390625 -0.25 0.5 -0.578125l1.5 0q-0.34375 1.046875 -1.0625 1.578125q-0.71875 0.515625 -1.84375 0.515625q-1.4375 0 -2.3125 -0.90625q-0.859375 -0.90625 -0.859375 -2.359375q0 -1.390625 0.890625 -2.328125q0.890625 -0.953125 2.28125 -0.953125zm-1.46875 2.609375l2.78125 0q-0.125 -0.6875 -0.453125 -1.0q-0.3125 -0.328125 -0.921875 -0.328125q-0.609375 0 -0.984375 0.359375q-0.359375 0.34375 -0.421875 0.96875zm9.046875 -2.609375q1.1875 0 1.71875 0.609375q0.546875 0.59375 0.546875 1.890625l0 3.875l-1.703125 0l0 -3.5625q0 -0.71875 -0.25 -1.09375q-0.25 -0.375 -0.84375 -0.375q-0.703125 0 -1.015625 0.421875q-0.3125 0.421875 -0.3125 1.296875l0 3.3125l-1.6875 0l0 -6.203125l1.609375 0l0 0.859375l0.03125 0q0.3125 -0.5 0.8125 -0.765625q0.5 -0.265625 1.09375 -0.265625zm5.7226562 -1.6875l0 1.859375l1.25 0l0 1.140625l-1.25 0l0 3.109375q0 0.375 0.140625 0.53125q0.140625 0.15625 0.578125 0.15625q0.140625 0 0.265625 -0.015625q0.140625 -0.015625 0.265625 -0.03125l0 1.328125q-0.21875 0.03125 -0.484375 0.046875q-0.25 0.015625 -0.5 0.015625q-1.109375 0 -1.546875 -0.375q-0.421875 -0.390625 -0.421875 -1.0625l0 -3.703125l-1.03125 0l0 -1.140625l1.03125 0l0 -1.859375l1.703125 0z" fill-rule="nonzero"/><path fill="#ffffff" d="m689.8033 387.11737l0 0c0 -0.9378052 0.7602539 -1.6980591 1.6980591 -1.6980591l57.72943 0c0.45031738 0 0.8822632 0.17889404 1.2006836 0.49734497c0.31848145 0.31845093 0.4973755 0.7503662 0.4973755 1.2007141l0 57.72943c0 0.9378052 -0.7602539 1.6980591 -1.6980591 1.6980591l-57.72943 0c-0.9378052 0 -1.6980591 -0.7602539 -1.6980591 -1.6980591z" fill-rule="evenodd"/><path stroke="#d6d6d6" stroke-width="1.0" stroke-miterlimit="400.0" stroke-linecap="butt" d="m689.8033 387.11737l0 0c0 -0.9378052 0.7602539 -1.6980591 1.6980591 -1.6980591l57.72943 0c0.45031738 0 0.8822632 0.17889404 1.2006836 0.49734497c0.31848145 0.31845093 0.4973755 0.7503662 0.4973755 1.2007141l0 57.72943c0 0.9378052 -0.7602539 1.6980591 -1.6980591 1.6980591l-57.72943 0c-0.9378052 0 -1.6980591 -0.7602539 -1.6980591 -1.6980591z" fill-rule="evenodd"/><path fill="#000000" fill-opacity="0.0" d="m669.9651 449.37274l100.80939 0l0 27.793l-100.80939 0z" fill-rule="evenodd"/><path fill="#000000" d="m697.06903 454.1271q1.546875 0 2.484375 0.71875q0.9375 0.71875 0.9375 2.03125l-1.8125 0q-0.046875 -0.640625 -0.453125 -0.96875q-0.390625 -0.328125 -1.234375 -0.328125q-0.578125 0 -0.953125 0.265625q-0.359375 0.25 -0.359375 0.71875q0 0.3125 0.15625 0.46875q0.15625 0.15625 0.625 0.34375q0.46875 0.171875 2.0625 0.546875q1.0625 0.25 1.65625 0.875q0.609375 0.609375 0.609375 1.546875q0 1.25 -0.9375 2.0q-0.9375 0.75 -2.625 0.75q-1.609375 0 -2.640625 -0.796875q-1.015625 -0.796875 -1.015625 -2.203125l0 -0.046875l1.828125 0q0 0.796875 0.515625 1.1875q0.53125 0.390625 1.375 0.390625q0.765625 0 1.21875 -0.265625q0.453125 -0.28125 0.453125 -0.796875q0 -0.421875 -0.359375 -0.6875q-0.34375 -0.265625 -1.109375 -0.453125q-0.984375 -0.21875 -1.78125 -0.46875q-0.796875 -0.25 -1.328125 -0.8125q-0.53125 -0.5625 -0.53125 -1.4375q0 -1.15625 0.921875 -1.859375q0.9375 -0.71875 2.296875 -0.71875zm7.5214844 2.390625q1.375 0 2.203125 0.953125q0.828125 0.9375 0.828125 2.421875l-0.015625 0.3125l-4.484375 0q0.046875 0.796875 0.421875 1.1875q0.390625 0.390625 1.09375 0.390625q0.46875 0 0.859375 -0.234375q0.390625 -0.25 0.5 -0.578125l1.5 0q-0.34375 1.046875 -1.0625 1.578125q-0.71875 0.515625 -1.84375 0.515625q-1.4375 0 -2.3125 -0.90625q-0.859375 -0.90625 -0.859375 -2.359375q0 -1.390625 0.890625 -2.328125q0.890625 -0.953125 2.28125 -0.953125zm-1.46875 2.609375l2.78125 0q-0.125 -0.6875 -0.453125 -1.0q-0.3125 -0.328125 -0.921875 -0.328125q-0.609375 0 -0.984375 0.359375q-0.359375 0.34375 -0.421875 0.96875zm9.109375 -2.609375q0.109375 0 0.203125 0.015625q0.09375 0.015625 0.171875 0.046875l0 1.578125q-0.140625 -0.03125 -0.28125 -0.03125q-0.140625 -0.015625 -0.328125 -0.015625q-0.859375 0 -1.28125 0.53125q-0.40625 0.515625 -0.40625 1.40625l0 2.84375l-1.6875 0l0 -6.203125l1.609375 0l0 1.15625l0.03125 0q0.265625 -0.609375 0.796875 -0.96875q0.546875 -0.359375 1.171875 -0.359375zm2.3945312 0.171875l1.3125 4.234375l0.03125 0l1.296875 -4.234375l1.703125 0l-2.109375 6.203125l-1.890625 0l-2.125 -6.203125l1.78125 0zm6.8027344 -2.359375l0 1.390625l-1.703125 0l0 -1.390625l1.703125 0zm0 2.359375l0 6.203125l-1.703125 0l0 -6.203125l1.703125 0zm4.3125 -0.171875q1.203125 0 2.015625 0.625q0.828125 0.625 0.90625 1.734375l-1.671875 0q-0.078125 -0.53125 -0.40625 -0.796875q-0.3125 -0.28125 -0.859375 -0.28125q-0.6875 0 -1.078125 0.5625q-0.375 0.5625 -0.375 1.453125q0 0.890625 0.375 1.4375q0.375 0.53125 1.046875 0.53125q0.5625 0 0.90625 -0.328125q0.359375 -0.328125 0.453125 -0.9375l1.640625 0q-0.171875 1.21875 -0.96875 1.890625q-0.78125 0.65625 -2.015625 0.65625q-1.390625 0 -2.265625 -0.890625q-0.875 -0.890625 -0.875 -2.296875q0 -1.5 0.859375 -2.421875q0.859375 -0.9375 2.3125 -0.9375zm6.78125 0q1.375 0 2.203125 0.953125q0.828125 0.9375 0.828125 2.421875l-0.015625 0.3125l-4.484375 0q0.046875 0.796875 0.421875 1.1875q0.390625 0.390625 1.09375 0.390625q0.46875 0 0.859375 -0.234375q0.390625 -0.25 0.5 -0.578125l1.5 0q-0.34375 1.046875 -1.0625 1.578125q-0.71875 0.515625 -1.84375 0.515625q-1.4375 0 -2.3125 -0.90625q-0.859375 -0.90625 -0.859375 -2.359375q0 -1.390625 0.890625 -2.328125q0.890625 -0.953125 2.28125 -0.953125zm-1.46875 2.609375l2.78125 0q-0.125 -0.6875 -0.453125 -1.0q-0.3125 -0.328125 -0.921875 -0.328125q-0.609375 0 -0.984375 0.359375q-0.359375 0.34375 -0.421875 0.96875zm13.271484 -4.796875l3.203125 8.5625l-1.953125 0l-0.640625 -1.90625l-3.203125 0l-0.671875 1.90625l-1.90625 0l3.25 -8.5625l1.921875 0zm-0.984375 2.109375l-1.125 3.140625l2.21875 0l-1.078125 -3.140625l-0.015625 0z" fill-rule="nonzero"/><path fill="#000000" d="m709.0979 410.0492c0 -0.010681152 0.0036621094 -0.021331787 0.0036621094 -0.03201294l10.353577 5.2930603l0 12.876495l-9.52002 -4.867523c-0.5205078 -0.26812744 -0.842041 -0.8056946 -0.83721924 -1.4086304c0 0 0 -11.861389 0 -11.861389zm10.593811 -6.3788757c0.21234131 -0.108062744 0.4453125 -0.16275024 0.6782837 -0.16275024c0.23297119 0 0.46594238 0.0546875 0.677063 0.16275024l9.45813 4.8355103l-10.135193 5.1823425l-10.136414 -5.1823425c0 0 9.45813 -4.8355103 9.45813 -4.8355103zm11.945557 6.346863c0 0.010681152 0.0048217773 0.020019531 0.0048217773 0.030670166l0 11.874725c-0.0012207031 0.5949402 -0.3251953 1.1298523 -0.84814453 1.3952942l-9.510315 4.862213l0 -12.869843c0 0 10.353638 -5.2930603 10.353638 -5.2930603zm-22.52118 14.972107l9.748108 4.9849243c0.4696045 0.2401123 0.9852905 0.36016846 1.4997559 0.36016846c0.51446533 0 1.0301514 -0.12005615 1.4996948 -0.36016846l9.746887 -4.9835815c1.1454468 -0.58291626 1.8588867 -1.7581177 1.8588867 -3.0680542l0 -11.874725c0 -1.309906 -0.71343994 -2.4851074 -1.857666 -3.0667114l-9.748108 -4.9835815c-0.0012207031 0 -0.0012207031 -0.0013427734 -0.0024414062 -0.0013427734c-0.93304443 -0.47488403 -2.0481567 -0.47488403 -2.9848633 0.0013427734l-9.746887 4.982239c-1.1466064 0.5829468 -1.8588867 1.7581482 -1.8601074 3.0680542l0 11.856049c-0.008483887 1.3125916 0.6976929 2.4944763 1.8467407 3.0853882z" fill-rule="evenodd"/><path fill="#e03875" d="m739.0839 443.08914l0 0c0 -4.589081 3.7202148 -8.309265 8.309265 -8.309265l0 0l0 0c2.2037964 0 4.3172607 0.87542725 5.8755493 2.4337158c1.5582886 1.5582886 2.4337158 3.6717834 2.4337158 5.8755493l0 0l0 0c0 4.5890503 -3.7201538 8.309235 -8.309265 8.309235l0 0l0 0c-4.5890503 0 -8.309265 -3.7201843 -8.309265 -8.309235z" fill-rule="evenodd"/><path fill="#ffffff" d="m164.72725 231.65543l0 0c0 -4.3683777 3.541275 -7.9096527 7.9096375 -7.9096527l268.90515 0c2.0977478 0 4.109619 0.8333435 5.5929565 2.316681c1.4833374 1.4833527 2.316681 3.4951935 2.316681 5.592972l0 275.29883c0 4.3683777 -3.5412598 7.9096375 -7.9096375 7.9096375l-268.90515 0c-4.3683624 0 -7.9096375 -3.5412598 -7.9096375 -7.9096375z" fill-rule="evenodd"/><path stroke="#d6d6d6" stroke-width="1.0" stroke-miterlimit="400.0" stroke-linecap="butt" d="m164.72725 231.65543l0 0c0 -4.3683777 3.541275 -7.9096527 7.9096375 -7.9096527l268.90515 0c2.0977478 0 4.109619 0.8333435 5.5929565 2.316681c1.4833374 1.4833527 2.316681 3.4951935 2.316681 5.592972l0 275.29883c0 4.3683777 -3.5412598 7.9096375 -7.9096375 7.9096375l-268.90515 0c-4.3683624 0 -7.9096375 -3.5412598 -7.9096375 -7.9096375z" fill-rule="evenodd"/><path fill="#dc477d" d="m587.7824 86.02244l0 0c0 -0.9378128 0.7602539 -1.6980667 1.6980591 -1.6980667l57.72943 0c0.45037842 0 0.8822632 0.17890167 1.2006836 0.4973526c0.31848145 0.31845093 0.4973755 0.7503586 0.4973755 1.2007141l0 57.72941c0 0.93782043 -0.7602539 1.6980743 -1.6980591 1.6980743l-57.72943 0c-0.9378052 0 -1.6980591 -0.7602539 -1.6980591 -1.6980743z" fill-rule="evenodd"/><path fill="#ffffff" d="m618.5194 131.98975c-9.416199 0.0078125 -17.055847 -7.6434174 -17.063477 -17.08921c-0.0076904297 -9.445862 7.619446 -17.109428 17.035706 -17.117142c4.283325 -0.0034866333 8.411072 1.6104507 11.562256 4.5208817l0 0l-4.0460815 4.2461243l0 0c-4.5912476 -4.1619263 -11.676514 -3.8021774 -15.825378 0.80348206c-4.148926 4.605629 -3.7903442 11.713181 0.80096436 15.875107c4.2662354 3.8673248 10.758179 3.8673248 15.024414 0l0 0l4.0460815 4.2461243l0 0c-3.1419067 2.9067383 -7.260437 4.518692 -11.534485 4.514633z" fill-rule="evenodd"/><path fill="#ffffff" d="m632.23883 123.43504c-0.77178955 0 -1.3974609 -0.62760925 -1.3974609 -1.4018326c0 -0.77425385 0.6256714 -1.4018631 1.3974609 -1.4018631c0.7718506 0 1.3974609 0.62760925 1.3974609 1.4018631c-0.0018920898 0.77350616 -0.6265259 1.4001236 -1.3974609 1.4018326z" fill-rule="evenodd"/><path fill="#ffffff" d="m618.4105 118.5926c-2.0386353 0 -3.6912842 -1.6578445 -3.6912842 -3.7028885c0 -2.045044 1.6526489 -3.7028885 3.6912842 -3.7028885c2.0386353 0 3.6912231 1.6578445 3.6912231 3.7028885c-0.0016479492 2.0443268 -1.6533203 3.7011414 -3.6912231 3.7028885z" fill-rule="evenodd"/><path fill="#ffffff" d="m633.8386 118.64566c-0.7718506 0 -1.3974609 -0.62760925 -1.3974609 -1.4018326c0 -0.77425385 0.62561035 -1.4018631 1.3974609 -1.4018631c0.7718506 0 1.3974609 0.62760925 1.3974609 1.4018631c-0.0018920898 0.77350616 -0.6265259 1.4001236 -1.3974609 1.4018326z" fill-rule="evenodd"/><path fill="#ffffff" d="m629.68665 118.486435c-0.77178955 0 -1.3974609 -0.62760925 -1.3974609 -1.4018326c0 -0.77425385 0.6256714 -1.4018631 1.3974609 -1.4018631c0.77178955 0 1.3974609 0.62760925 1.3974609 1.4018631c0 0.7742233 -0.6256714 1.4018326 -1.3974609 1.4018326z" fill-rule="evenodd"/><path fill="#ffffff" d="m633.8386 113.93431c-0.7718506 0 -1.3974609 -0.62760925 -1.3974609 -1.4018326c0 -0.77425385 0.62561035 -1.4018631 1.3974609 -1.4018631c0.7718506 0 1.3974609 0.62760925 1.3974609 1.4018631c-0.0018920898 0.77350616 -0.6265259 1.4001236 -1.3974609 1.4018326z" fill-rule="evenodd"/><path fill="#ffffff" d="m629.68665 114.09357c-0.77178955 0 -1.3974609 -0.6276474 -1.3974609 -1.4018326c0 -0.7742615 0.6257324 -1.4018631 1.3974609 -1.4018631c0.77178955 0 1.3974609 0.6276398 1.3974609 1.4018631c0 0.0010223389 0 0.0020828247 0 0.0031051636c-0.0017089844 0.7730255 -0.62683105 1.3987274 -1.3974609 1.3987274z" fill-rule="evenodd"/><path fill="#ffffff" d="m632.31976 109.21987c-0.77178955 0.001739502 -1.3988647 -0.62449646 -1.4005737 -1.3987198c-0.0017089844 -0.7741928 0.6225586 -1.4032669 1.3943481 -1.4049759c0.7718506 -0.0017089844 1.3986816 0.6245346 1.4005737 1.3987274c0 0.0010223389 0 0.0021133423 0 0.0031356812c0 0.772995 -0.62371826 1.4001236 -1.3943481 1.4018326z" fill-rule="evenodd"/><path fill="#000000" fill-opacity="0.0" d="m549.1728 148.27913l138.3443 0l0 27.79303l-138.3443 0z" fill-rule="evenodd"/><path fill="#000000" d="m600.7961 153.23663l0 1.578125l-4.125 0l0 1.984375l3.578125 0l0 1.453125l-3.578125 0l0 3.546875l-1.890625 0l0 -8.5625l6.015625 0zm3.421875 2.1875q1.46875 0 2.34375 0.90625q0.875 0.890625 0.875 2.375q0 1.484375 -0.890625 2.375q-0.875 0.890625 -2.328125 0.890625q-1.4375 0 -2.328125 -0.890625q-0.875 -0.90625 -0.875 -2.375q0 -1.46875 0.859375 -2.375q0.875 -0.90625 2.34375 -0.90625zm-1.5 3.28125q0 0.984375 0.40625 1.484375q0.40625 0.5 1.09375 0.5q0.734375 0 1.125 -0.515625q0.390625 -0.53125 0.390625 -1.46875q0 -0.921875 -0.390625 -1.453125q-0.375 -0.546875 -1.125 -0.546875q-0.6875 0 -1.09375 0.5q-0.40625 0.5 -0.40625 1.5zm7.580078 -5.46875l0 8.5625l-1.703125 0l0 -8.5625l1.703125 0zm3.09375 0l0 8.5625l-1.703125 0l0 -8.5625l1.703125 0zm4.34375 2.1875q1.46875 0 2.34375 0.90625q0.875 0.890625 0.875 2.375q0 1.484375 -0.890625 2.375q-0.875 0.890625 -2.328125 0.890625q-1.4375 0 -2.328125 -0.890625q-0.875 -0.90625 -0.875 -2.375q0 -1.46875 0.859375 -2.375q0.875 -0.90625 2.34375 -0.90625zm-1.5 3.28125q0 0.984375 0.40625 1.484375q0.40625 0.5 1.09375 0.5q0.734375 0 1.125 -0.515625q0.390625 -0.53125 0.390625 -1.46875q0 -0.921875 -0.390625 -1.453125q-0.375 -0.546875 -1.125 -0.546875q-0.6875 0 -1.09375 0.5q-0.40625 0.5 -0.40625 1.5zm7.048828 -3.109375l1.140625 4.203125l0.015625 0l1.03125 -4.203125l1.65625 0l1.0625 4.203125l0.015625 0l1.15625 -4.203125l1.75 0l-1.96875 6.203125l-1.75 0l-1.09375 -4.171875l-0.03125 0l-1.0625 4.171875l-1.75 0l-1.96875 -6.203125l1.796875 0zm11.408203 -0.171875q1.375 0 2.203125 0.953125q0.828125 0.9375 0.828125 2.421875l-0.015625 0.3125l-4.484375 0q0.046875 0.796875 0.421875 1.1875q0.390625 0.390625 1.09375 0.390625q0.46875 0 0.859375 -0.234375q0.390625 -0.25 0.5 -0.578125l1.5 0q-0.34375 1.046875 -1.0625 1.578125q-0.71875 0.515625 -1.84375 0.515625q-1.4375 0 -2.3125 -0.90625q-0.859375 -0.90625 -0.859375 -2.359375q0 -1.390625 0.890625 -2.328125q0.890625 -0.953125 2.28125 -0.953125zm-1.46875 2.609375l2.78125 0q-0.125 -0.6875 -0.453125 -1.0q-0.3125 -0.328125 -0.921875 -0.328125q-0.609375 0 -0.984375 0.359375q-0.359375 0.34375 -0.421875 0.96875zm9.109375 -2.609375q0.109375 0 0.203125 0.015625q0.09375 0.015625 0.171875 0.046875l0 1.578125q-0.140625 -0.03125 -0.28125 -0.03125q-0.140625 -0.015625 -0.328125 -0.015625q-0.859375 0 -1.28125 0.53125q-0.40625 0.515625 -0.40625 1.40625l0 2.84375l-1.6875 0l0 -6.203125l1.609375 0l0 1.15625l0.03125 0q0.265625 -0.609375 0.796875 -0.96875q0.546875 -0.359375 1.171875 -0.359375z" fill-rule="nonzero"/><path fill="#dc477d" d="m449.43872 86.02244l0 0c0 -0.9378128 0.7602539 -1.6980667 1.6980591 -1.6980667l57.7294 0c0.4503479 0 0.8822632 0.17890167 1.2007141 0.4973526c0.31845093 0.31845093 0.4973755 0.7503586 0.4973755 1.2007141l0 57.72941c0 0.93782043 -0.7602539 1.6980743 -1.6980896 1.6980743l-57.7294 0c-0.9378052 0 -1.6980591 -0.7602539 -1.6980591 -1.6980743z" fill-rule="evenodd"/><path fill="#ffffff" d="m480.17572 131.98975c-9.416229 0.0078125 -17.055847 -7.6434174 -17.063538 -17.08921c-0.007659912 -9.445862 7.619507 -17.109428 17.035706 -17.117142c4.283386 -0.0034866333 8.411133 1.6104507 11.562317 4.5208817l0 0l-4.046112 4.2461243l0 0c-4.591217 -4.1619263 -11.676483 -3.8021774 -15.825378 0.80348206c-4.1488953 4.605629 -3.7903137 11.713181 0.80096436 15.875107c4.266205 3.8673248 10.758179 3.8673248 15.024414 0l0 0l4.046112 4.2461243l0 0c-3.1419373 2.9067383 -7.2604675 4.518692 -11.534485 4.514633z" fill-rule="evenodd"/><path fill="#ffffff" d="m493.89514 123.43504c-0.77182007 0 -1.3974609 -0.62760925 -1.3974609 -1.4018326c0 -0.77425385 0.62564087 -1.4018631 1.3974609 -1.4018631c0.7718506 0 1.3974609 0.62760925 1.3974609 1.4018631c-0.0018920898 0.77350616 -0.6265259 1.4001236 -1.3974609 1.4018326z" fill-rule="evenodd"/><path fill="#ffffff" d="m480.0668 118.5926c-2.0386353 0 -3.6912842 -1.6578445 -3.6912842 -3.7028885c0 -2.045044 1.6526489 -3.7028885 3.6912842 -3.7028885c2.0386353 0 3.6912537 1.6578445 3.6912537 3.7028885c-0.0017089844 2.0443268 -1.6533203 3.7011414 -3.6912537 3.7028885z" fill-rule="evenodd"/><path fill="#ffffff" d="m495.4949 118.64566c-0.7718811 0 -1.3974609 -0.62760925 -1.3974609 -1.4018326c0 -0.77425385 0.62557983 -1.4018631 1.3974609 -1.4018631c0.7718811 0 1.3974609 0.62760925 1.3974609 1.4018631c-0.0018920898 0.77350616 -0.6265259 1.4001236 -1.3974609 1.4018326z" fill-rule="evenodd"/><path fill="#ffffff" d="m491.34296 118.486435c-0.77178955 0 -1.3974609 -0.62760925 -1.3974609 -1.4018326c0 -0.77425385 0.6256714 -1.4018631 1.3974609 -1.4018631c0.77178955 0 1.3974609 0.62760925 1.3974609 1.4018631c0 0.7742233 -0.6256714 1.4018326 -1.3974609 1.4018326z" fill-rule="evenodd"/><path fill="#ffffff" d="m495.4949 113.93431c-0.7718811 0 -1.3974609 -0.62760925 -1.3974609 -1.4018326c0 -0.77425385 0.62557983 -1.4018631 1.3974609 -1.4018631c0.7718811 0 1.3974609 0.62760925 1.3974609 1.4018631c-0.0018920898 0.77350616 -0.6265259 1.4001236 -1.3974609 1.4018326z" fill-rule="evenodd"/><path fill="#ffffff" d="m491.34296 114.09357c-0.77178955 0 -1.3974609 -0.6276474 -1.3974609 -1.4018326c0 -0.7742615 0.6257019 -1.4018631 1.3974609 -1.4018631c0.77178955 0 1.3974609 0.6276398 1.3974609 1.4018631c0 0.0010223389 0 0.0020828247 0 0.0031051636c-0.0017089844 0.7730255 -0.6268616 1.3987274 -1.3974609 1.3987274z" fill-rule="evenodd"/><path fill="#ffffff" d="m493.976 109.21987c-0.77175903 0.001739502 -1.3988342 -0.62449646 -1.4005432 -1.3987198c-0.0017089844 -0.7741928 0.6225586 -1.4032669 1.3943481 -1.4049759c0.7718506 -0.0017089844 1.3986816 0.6245346 1.4005737 1.3987274c0 0.0010223389 0 0.0021133423 0 0.0031356812c0 0.772995 -0.62371826 1.4001236 -1.3943787 1.4018326z" fill-rule="evenodd"/><path fill="#000000" fill-opacity="0.0" d="m410.82907 148.27913l138.34427 0l0 27.79303l-138.34427 0z" fill-rule="evenodd"/><path fill="#000000" d="m462.9358 153.23663l0 6.984375l4.171875 0l0 1.578125l-6.0625 0l0 -8.5625l1.890625 0zm7.6933594 2.1875q1.375 0 2.203125 0.953125q0.828125 0.9375 0.828125 2.421875l-0.015625 0.3125l-4.484375 0q0.046875 0.796875 0.421875 1.1875q0.390625 0.390625 1.09375 0.390625q0.46875 0 0.859375 -0.234375q0.390625 -0.25 0.5 -0.578125l1.5 0q-0.34375 1.046875 -1.0625 1.578125q-0.71875 0.515625 -1.84375 0.515625q-1.4375 0 -2.3125 -0.90625q-0.859375 -0.90625 -0.859375 -2.359375q0 -1.390625 0.890625 -2.328125q0.890625 -0.953125 2.28125 -0.953125zm-1.46875 2.609375l2.78125 0q-0.125 -0.6875 -0.453125 -1.0q-0.3125 -0.328125 -0.921875 -0.328125q-0.609375 0 -0.984375 0.359375q-0.359375 0.34375 -0.421875 0.96875zm8.34375 -2.609375q1.375 0 2.046875 0.453125q0.671875 0.453125 0.671875 1.28125l0 3.328125q0 0.375 0.046875 0.75q0.046875 0.375 0.171875 0.5625l-1.734375 0q-0.046875 -0.140625 -0.078125 -0.28125q-0.03125 -0.15625 -0.046875 -0.3125q-0.359375 0.375 -0.890625 0.578125q-0.515625 0.1875 -1.1875 0.1875q-0.96875 0 -1.546875 -0.484375q-0.5625 -0.484375 -0.5625 -1.375q0 -0.875 0.53125 -1.328125q0.546875 -0.46875 1.96875 -0.625q0.984375 -0.09375 1.296875 -0.234375q0.328125 -0.15625 0.328125 -0.53125q0 -0.40625 -0.25 -0.609375q-0.234375 -0.21875 -0.84375 -0.21875q-0.53125 0 -0.8125 0.234375q-0.28125 0.21875 -0.328125 0.703125l-1.703125 0q0.0625 -1.015625 0.828125 -1.546875q0.78125 -0.53125 2.09375 -0.53125zm-1.40625 4.609375q0 0.375 0.25 0.59375q0.25 0.203125 0.796875 0.203125q0.671875 0 1.015625 -0.359375q0.359375 -0.359375 0.359375 -1.046875l0 -0.65625q-0.15625 0.125 -0.40625 0.1875q-0.25 0.046875 -0.890625 0.140625q-0.59375 0.078125 -0.859375 0.3125q-0.265625 0.21875 -0.265625 0.625zm11.5 -6.796875l0 8.5625l-1.625 0l0 -0.796875l-0.03125 0q-0.265625 0.484375 -0.75 0.734375q-0.484375 0.234375 -1.125 0.234375q-1.265625 0 -2.03125 -0.9375q-0.75 -0.9375 -0.75 -2.390625q0 -1.390625 0.734375 -2.296875q0.75 -0.921875 2.015625 -0.921875q0.578125 0 1.046875 0.234375q0.484375 0.234375 0.78125 0.6875l0.03125 0l0 -3.109375l1.703125 0zm-4.609375 5.453125q0 0.859375 0.390625 1.4375q0.40625 0.5625 1.109375 0.5625q0.703125 0 1.078125 -0.515625q0.375 -0.53125 0.375 -1.5q0 -0.90625 -0.375 -1.4375q-0.359375 -0.53125 -1.09375 -0.53125q-0.703125 0 -1.09375 0.53125q-0.390625 0.53125 -0.390625 1.453125zm8.751953 -3.265625q1.375 0 2.203125 0.953125q0.828125 0.9375 0.828125 2.421875l-0.015625 0.3125l-4.484375 0q0.046875 0.796875 0.421875 1.1875q0.390625 0.390625 1.09375 0.390625q0.46875 0 0.859375 -0.234375q0.390625 -0.25 0.5 -0.578125l1.5 0q-0.34375 1.046875 -1.0625 1.578125q-0.71875 0.515625 -1.84375 0.515625q-1.4375 0 -2.3125 -0.90625q-0.859375 -0.90625 -0.859375 -2.359375q0 -1.390625 0.890625 -2.328125q0.890625 -0.953125 2.28125 -0.953125zm-1.46875 2.609375l2.78125 0q-0.125 -0.6875 -0.453125 -1.0q-0.3125 -0.328125 -0.921875 -0.328125q-0.609375 0 -0.984375 0.359375q-0.359375 0.34375 -0.421875 0.96875zm9.109375 -2.609375q0.109375 0 0.203125 0.015625q0.09375 0.015625 0.171875 0.046875l0 1.578125q-0.140625 -0.03125 -0.28125 -0.03125q-0.140625 -0.015625 -0.328125 -0.015625q-0.859375 0 -1.28125 0.53125q-0.40625 0.515625 -0.40625 1.40625l0 2.84375l-1.6875 0l0 -6.203125l1.609375 0l0 1.15625l0.03125 0q0.265625 -0.609375 0.796875 -0.96875q0.546875 -0.359375 1.171875 -0.359375z" fill-rule="nonzero"/><path fill="#000000" fill-opacity="0.0" d="m374.52573 260.96783l0 -57.795273" fill-rule="evenodd"/><path stroke="#e03875" stroke-width="2.0" stroke-miterlimit="400.0" stroke-linecap="butt" stroke-dasharray="2.0,6.0" d="m374.52573 260.96783l0 -57.795273" fill-rule="evenodd"/><path fill="#ffffff" d="m343.95914 262.66614l0 0c0 -0.93795776 0.76034546 -1.6983032 1.6982727 -1.6983032l57.736633 0c0.45040894 0 0.88238525 0.17892456 1.2008667 0.49743652c0.31848145 0.31848145 0.497406 0.75042725 0.497406 1.2008667l0 57.736603c0 0.93792725 -0.76034546 1.6983032 -1.6982727 1.6983032l-57.736633 0c-0.93792725 0 -1.6982727 -0.760376 -1.6982727 -1.6983032z" fill-rule="evenodd"/><path stroke="#e03875" stroke-width="1.0" stroke-miterlimit="400.0" stroke-linecap="butt" d="m343.95914 262.66614l0 0c0 -0.93795776 0.76034546 -1.6983032 1.6982727 -1.6983032l57.736633 0c0.45040894 0 0.88238525 0.17892456 1.2008667 0.49743652c0.31848145 0.31848145 0.497406 0.75042725 0.497406 1.2008667l0 57.736603c0 0.93792725 -0.76034546 1.6983032 -1.6982727 1.6983032l-57.736633 0c-0.93792725 0 -1.6982727 -0.760376 -1.6982727 -1.6983032z" fill-rule="evenodd"/><path fill="#e03875" d="m389.4444 309.72885l0 0c0 -2.4685974 2.0011902 -4.4697876 4.4697876 -4.4697876l0 0c1.1854858 0 2.3223877 0.47091675 3.1606445 1.3091736c0.83825684 0.83825684 1.3091736 1.9751587 1.3091736 3.160614l0 0c0 2.468628 -2.0011902 4.469818 -4.469818 4.469818l0 0c-2.4685974 0 -4.4697876 -2.0011902 -4.4697876 -4.469818z" fill-rule="evenodd"/><path fill="#000000" fill-opacity="0.0" d="m313.1136 325.41095l122.82416 0l0 27.79303l-122.82416 0z" fill-rule="evenodd"/><path fill="#000000" d="m340.88016 330.16534q1.453125 0 2.484375 0.828125q1.03125 0.8125 1.203125 2.25l-1.8125 0q-0.125 -0.671875 -0.671875 -1.078125q-0.546875 -0.421875 -1.203125 -0.421875q-1.109375 0 -1.71875 0.8125q-0.609375 0.796875 -0.609375 2.125q0 1.265625 0.59375 2.0625q0.609375 0.796875 1.734375 0.796875q0.8125 0 1.3125 -0.5q0.515625 -0.5 0.625 -1.40625l1.828125 0q-0.15625 1.625 -1.1875 2.5625q-1.015625 0.9375 -2.578125 0.9375q-1.234375 0 -2.203125 -0.5625q-0.96875 -0.5625 -1.5 -1.59375q-0.515625 -1.03125 -0.515625 -2.296875q0 -1.96875 1.15625 -3.234375q1.15625 -1.28125 3.0625 -1.28125zm7.8789062 2.390625q1.46875 0 2.34375 0.90625q0.875 0.890625 0.875 2.375q0 1.484375 -0.890625 2.375q-0.875 0.890625 -2.328125 0.890625q-1.4375 0 -2.328125 -0.890625q-0.875 -0.90625 -0.875 -2.375q0 -1.46875 0.859375 -2.375q0.875 -0.90625 2.34375 -0.90625zm-1.5 3.28125q0 0.984375 0.40625 1.484375q0.40625 0.5 1.09375 0.5q0.734375 0 1.125 -0.515625q0.390625 -0.53125 0.390625 -1.46875q0 -0.921875 -0.390625 -1.453125q-0.375 -0.546875 -1.125 -0.546875q-0.6875 0 -1.09375 0.5q-0.40625 0.5 -0.40625 1.5zm9.376953 -3.28125q1.1875 0 1.71875 0.609375q0.546875 0.59375 0.546875 1.890625l0 3.875l-1.703125 0l0 -3.5625q0 -0.71875 -0.25 -1.09375q-0.25 -0.375 -0.84375 -0.375q-0.703125 0 -1.015625 0.421875q-0.3125 0.421875 -0.3125 1.296875l0 3.3125l-1.6875 0l0 -6.203125l1.609375 0l0 0.859375l0.03125 0q0.3125 -0.5 0.8125 -0.765625q0.5 -0.265625 1.09375 -0.265625zm6.0976562 0q1.265625 0 1.953125 0.5q0.703125 0.5 0.796875 1.484375l-1.625 0q-0.046875 -0.4375 -0.34375 -0.640625q-0.28125 -0.203125 -0.828125 -0.203125q-0.484375 0 -0.71875 0.15625q-0.21875 0.140625 -0.21875 0.421875q0 0.28125 0.296875 0.46875q0.296875 0.1875 1.1875 0.359375q1.421875 0.265625 1.90625 0.703125q0.5 0.4375 0.5 1.140625q0 1.046875 -0.78125 1.609375q-0.765625 0.546875 -2.046875 0.546875q-1.296875 0 -2.078125 -0.546875q-0.78125 -0.546875 -0.84375 -1.640625l1.625 0q0 0.484375 0.375 0.765625q0.375 0.28125 0.9375 0.28125q0.5 0 0.796875 -0.21875q0.3125 -0.21875 0.3125 -0.578125q0 -0.328125 -0.40625 -0.53125q-0.390625 -0.203125 -1.46875 -0.421875q-1.078125 -0.21875 -1.546875 -0.609375q-0.46875 -0.390625 -0.46875 -1.0625q0 -0.984375 0.6875 -1.484375q0.703125 -0.5 2.0 -0.5zm5.6015625 0.171875l0 3.546875q0 0.703125 0.25 1.09375q0.25 0.390625 0.859375 0.390625q0.703125 0 1.0 -0.421875q0.3125 -0.4375 0.3125 -1.296875l0 -3.3125l1.703125 0l0 6.203125l-1.625 0l0 -0.859375l-0.03125 0q-0.328125 0.515625 -0.84375 0.78125q-0.5 0.25 -1.0625 0.25q-1.15625 0 -1.703125 -0.59375q-0.546875 -0.59375 -0.546875 -1.90625l0 -3.875l1.6875 0zm7.1757812 -2.359375l0 8.5625l-1.703125 0l0 -8.5625l1.703125 0zm8.693359 -0.203125q1.453125 0 2.484375 0.828125q1.03125 0.8125 1.203125 2.25l-1.8125 0q-0.125 -0.671875 -0.671875 -1.078125q-0.546875 -0.421875 -1.203125 -0.421875q-1.109375 0 -1.71875 0.8125q-0.609375 0.796875 -0.609375 2.125q0 1.265625 0.59375 2.0625q0.609375 0.796875 1.734375 0.796875q0.8125 0 1.3125 -0.5q0.515625 -0.5 0.625 -1.40625l1.828125 0q-0.15625 1.625 -1.1875 2.5625q-1.015625 0.9375 -2.578125 0.9375q-1.234375 0 -2.203125 -0.5625q-0.96875 -0.5625 -1.5 -1.59375q-0.515625 -1.03125 -0.515625 -2.296875q0 -1.96875 1.15625 -3.234375q1.15625 -1.28125 3.0625 -1.28125zm6.6289062 0.203125l0 8.5625l-1.703125 0l0 -8.5625l1.703125 0zm3.09375 0l0 1.390625l-1.703125 0l0 -1.390625l1.703125 0zm0 2.359375l0 6.203125l-1.703125 0l0 -6.203125l1.703125 0zm4.203125 -0.171875q1.375 0 2.203125 0.953125q0.828125 0.9375 0.828125 2.421875l-0.015625 0.3125l-4.484375 0q0.046875 0.796875 0.421875 1.1875q0.390625 0.390625 1.09375 0.390625q0.46875 0 0.859375 -0.234375q0.390625 -0.25 0.5 -0.578125l1.5 0q-0.34375 1.046875 -1.0625 1.578125q-0.71875 0.515625 -1.84375 0.515625q-1.4375 0 -2.3125 -0.90625q-0.859375 -0.90625 -0.859375 -2.359375q0 -1.390625 0.890625 -2.328125q0.890625 -0.953125 2.28125 -0.953125zm-1.46875 2.609375l2.78125 0q-0.125 -0.6875 -0.453125 -1.0q-0.3125 -0.328125 -0.921875 -0.328125q-0.609375 0 -0.984375 0.359375q-0.359375 0.34375 -0.421875 0.96875zm9.046875 -2.609375q1.1875 0 1.71875 0.609375q0.546875 0.59375 0.546875 1.890625l0 3.875l-1.703125 0l0 -3.5625q0 -0.71875 -0.25 -1.09375q-0.25 -0.375 -0.84375 -0.375q-0.703125 0 -1.015625 0.421875q-0.3125 0.421875 -0.3125 1.296875l0 3.3125l-1.6875 0l0 -6.203125l1.609375 0l0 0.859375l0.03125 0q0.3125 -0.5 0.8125 -0.765625q0.5 -0.265625 1.09375 -0.265625zm5.7226562 -1.6875l0 1.859375l1.25 0l0 1.140625l-1.25 0l0 3.109375q0 0.375 0.140625 0.53125q0.140625 0.15625 0.578125 0.15625q0.140625 0 0.265625 -0.015625q0.140625 -0.015625 0.265625 -0.03125l0 1.328125q-0.21875 0.03125 -0.484375 0.046875q-0.25 0.015625 -0.5 0.015625q-1.109375 0 -1.546875 -0.375q-0.421875 -0.390625 -0.421875 -1.0625l0 -3.703125l-1.03125 0l0 -1.140625l1.03125 0l0 -1.859375l1.703125 0z" fill-rule="nonzero"/><path fill="#000000" fill-opacity="0.0" d="m372.22055 114.887146l77.22833 0" fill-rule="evenodd"/><path stroke="#e03875" stroke-width="2.0" stroke-miterlimit="400.0" stroke-linecap="butt" stroke-dasharray="2.0,6.0" d="m372.22055 114.887146l77.22833 0" fill-rule="evenodd"/><path fill="#dc477d" d="m311.095 86.02244l0 0c0 -0.9378128 0.7602539 -1.6980667 1.6980591 -1.6980667l57.72943 0c0.4503479 0 0.8822632 0.17890167 1.2007141 0.4973526c0.31845093 0.31845093 0.49734497 0.7503586 0.49734497 1.2007141l0 57.72941c0 0.93782043 -0.7602539 1.6980743 -1.6980591 1.6980743l-57.72943 0c-0.9378052 0 -1.6980591 -0.7602539 -1.6980591 -1.6980743z" fill-rule="evenodd"/><path fill="#ffffff" d="m341.83203 131.98975c-9.416229 0.0078125 -17.055847 -7.6434174 -17.063538 -17.08921c-0.0076904297 -9.445862 7.6194763 -17.109428 17.035706 -17.117142c4.283386 -0.0034866333 8.411102 1.6104507 11.562286 4.5208817l0 0l-4.0460815 4.2461243l0 0c-4.5912476 -4.1619263 -11.676483 -3.8021774 -15.825409 0.80348206c-4.1488647 4.605629 -3.7902832 11.713181 0.80096436 15.875107c4.2662354 3.8673248 10.758209 3.8673248 15.024445 0l0 0l4.0460815 4.2461243l0 0c-3.1419067 2.9067383 -7.260437 4.518692 -11.534454 4.514633z" fill-rule="evenodd"/><path fill="#ffffff" d="m355.55142 123.43504c-0.77178955 0 -1.3974609 -0.62760925 -1.3974609 -1.4018326c0 -0.77425385 0.6256714 -1.4018631 1.3974609 -1.4018631c0.7718811 0 1.3974609 0.62760925 1.3974609 1.4018631c-0.0018615723 0.77350616 -0.6265259 1.4001236 -1.3974609 1.4018326z" fill-rule="evenodd"/><path fill="#ffffff" d="m341.72308 118.5926c-2.0386353 0 -3.6912842 -1.6578445 -3.6912842 -3.7028885c0 -2.045044 1.6526489 -3.7028885 3.6912842 -3.7028885c2.0386658 0 3.6912842 1.6578445 3.6912842 3.7028885c-0.0017089844 2.0443268 -1.6533508 3.7011414 -3.6912842 3.7028885z" fill-rule="evenodd"/><path fill="#ffffff" d="m357.15118 118.64566c-0.7718506 0 -1.3974609 -0.62760925 -1.3974609 -1.4018326c0 -0.77425385 0.62561035 -1.4018631 1.3974609 -1.4018631c0.7718811 0 1.3974609 0.62760925 1.3974609 1.4018631c-0.0018615723 0.77350616 -0.62649536 1.4001236 -1.3974609 1.4018326z" fill-rule="evenodd"/><path fill="#ffffff" d="m352.99924 118.486435c-0.77178955 0 -1.3974609 -0.62760925 -1.3974609 -1.4018326c0 -0.77425385 0.6256714 -1.4018631 1.3974609 -1.4018631c0.77182007 0 1.3974609 0.62760925 1.3974609 1.4018631c0 0.7742233 -0.62564087 1.4018326 -1.3974609 1.4018326z" fill-rule="evenodd"/><path fill="#ffffff" d="m357.15118 113.93431c-0.7718506 0 -1.3974609 -0.62760925 -1.3974609 -1.4018326c0 -0.77425385 0.62561035 -1.4018631 1.3974609 -1.4018631c0.7718811 0 1.3974609 0.62760925 1.3974609 1.4018631c-0.0018615723 0.77350616 -0.62649536 1.4001236 -1.3974609 1.4018326z" fill-rule="evenodd"/><path fill="#ffffff" d="m352.99924 114.09357c-0.77178955 0 -1.3974609 -0.6276474 -1.3974609 -1.4018326c0 -0.7742615 0.6257019 -1.4018631 1.3974609 -1.4018631c0.77182007 0 1.3974609 0.6276398 1.3974609 1.4018631c0 0.0010223389 0 0.0020828247 0 0.0031051636c-0.0017089844 0.7730255 -0.6268616 1.3987274 -1.3974609 1.3987274z" fill-rule="evenodd"/><path fill="#ffffff" d="m355.63232 109.21987c-0.77175903 0.001739502 -1.3988647 -0.62449646 -1.4005737 -1.3987198c-0.0017089844 -0.7741928 0.6225586 -1.4032669 1.3943481 -1.4049759c0.7718811 -0.0017089844 1.3986816 0.6245346 1.4005737 1.3987274c0 0.0010223389 0 0.0021133423 0 0.0031356812c0 0.772995 -0.62371826 1.4001236 -1.3943481 1.4018326z" fill-rule="evenodd"/><path fill="#000000" fill-opacity="0.0" d="m272.48535 148.27913l138.3443 0l0 27.79303l-138.3443 0z" fill-rule="evenodd"/><path fill="#000000" d="m324.10867 153.23663l0 1.578125l-4.125 0l0 1.984375l3.578125 0l0 1.453125l-3.578125 0l0 3.546875l-1.890625 0l0 -8.5625l6.015625 0zm3.421875 2.1875q1.46875 0 2.34375 0.90625q0.875 0.890625 0.875 2.375q0 1.484375 -0.890625 2.375q-0.875 0.890625 -2.328125 0.890625q-1.4375 0 -2.328125 -0.890625q-0.875 -0.90625 -0.875 -2.375q0 -1.46875 0.859375 -2.375q0.875 -0.90625 2.34375 -0.90625zm-1.5 3.28125q0 0.984375 0.40625 1.484375q0.40625 0.5 1.09375 0.5q0.734375 0 1.125 -0.515625q0.390625 -0.53125 0.390625 -1.46875q0 -0.921875 -0.390625 -1.453125q-0.375 -0.546875 -1.125 -0.546875q-0.6875 0 -1.09375 0.5q-0.40625 0.5 -0.40625 1.5zm7.580078 -5.46875l0 8.5625l-1.703125 0l0 -8.5625l1.703125 0zm3.09375 0l0 8.5625l-1.703125 0l0 -8.5625l1.703125 0zm4.34375 2.1875q1.46875 0 2.34375 0.90625q0.875 0.890625 0.875 2.375q0 1.484375 -0.890625 2.375q-0.875 0.890625 -2.328125 0.890625q-1.4375 0 -2.328125 -0.890625q-0.875 -0.90625 -0.875 -2.375q0 -1.46875 0.859375 -2.375q0.875 -0.90625 2.34375 -0.90625zm-1.5 3.28125q0 0.984375 0.40625 1.484375q0.40625 0.5 1.09375 0.5q0.734375 0 1.125 -0.515625q0.390625 -0.53125 0.390625 -1.46875q0 -0.921875 -0.390625 -1.453125q-0.375 -0.546875 -1.125 -0.546875q-0.6875 0 -1.09375 0.5q-0.40625 0.5 -0.40625 1.5zm7.048828 -3.109375l1.140625 4.203125l0.015625 0l1.03125 -4.203125l1.65625 0l1.0625 4.203125l0.015625 0l1.15625 -4.203125l1.75 0l-1.96875 6.203125l-1.75 0l-1.09375 -4.171875l-0.03125 0l-1.0625 4.171875l-1.75 0l-1.96875 -6.203125l1.796875 0zm11.408203 -0.171875q1.375 0 2.203125 0.953125q0.828125 0.9375 0.828125 2.421875l-0.015625 0.3125l-4.484375 0q0.046875 0.796875 0.421875 1.1875q0.390625 0.390625 1.09375 0.390625q0.46875 0 0.859375 -0.234375q0.390625 -0.25 0.5 -0.578125l1.5 0q-0.34375 1.046875 -1.0625 1.578125q-0.71875 0.515625 -1.84375 0.515625q-1.4375 0 -2.3125 -0.90625q-0.859375 -0.90625 -0.859375 -2.359375q0 -1.390625 0.890625 -2.328125q0.890625 -0.953125 2.28125 -0.953125zm-1.46875 2.609375l2.78125 0q-0.125 -0.6875 -0.453125 -1.0q-0.3125 -0.328125 -0.921875 -0.328125q-0.609375 0 -0.984375 0.359375q-0.359375 0.34375 -0.421875 0.96875zm9.109375 -2.609375q0.109375 0 0.203125 0.015625q0.09375 0.015625 0.171875 0.046875l0 1.578125q-0.140625 -0.03125 -0.28125 -0.03125q-0.140625 -0.015625 -0.328125 -0.015625q-0.859375 0 -1.28125 0.53125q-0.40625 0.515625 -0.40625 1.40625l0 2.84375l-1.6875 0l0 -6.203125l1.609375 0l0 1.15625l0.03125 0q0.265625 -0.609375 0.796875 -0.96875q0.546875 -0.359375 1.171875 -0.359375z" fill-rule="nonzero"/><path fill="#000000" fill-opacity="0.0" d="m410.82816 25.13123l138.33072 0l0 27.779526l-138.33072 0z" fill-rule="evenodd"/><path fill="#000000" d="m441.13315 29.885603q1.453125 0 2.484375 0.828125q1.03125 0.8125 1.203125 2.250002l-1.8125 0q-0.125 -0.671875 -0.671875 -1.0781269q-0.546875 -0.421875 -1.203125 -0.421875q-1.109375 0 -1.71875 0.8125019q-0.609375 0.796875 -0.609375 2.125q0 1.265625 0.59375 2.0625q0.609375 0.796875 1.734375 0.796875q0.8125 0 1.3125 -0.5q0.515625 -0.5 0.625 -1.40625l1.828125 0q-0.15625 1.625 -1.1875 2.5625q-1.015625 0.9375 -2.578125 0.9375q-1.234375 0 -2.203125 -0.5625q-0.96875 -0.5625 -1.5 -1.59375q-0.515625 -1.03125 -0.515625 -2.296875q0 -1.96875 1.15625 -3.234377q1.15625 -1.28125 3.0625 -1.28125zm7.8789062 2.390627q1.46875 0 2.34375 0.90625q0.875 0.890625 0.875 2.375q0 1.484375 -0.890625 2.375q-0.875 0.890625 -2.328125 0.890625q-1.4375 0 -2.328125 -0.890625q-0.875 -0.90625 -0.875 -2.375q0 -1.46875 0.859375 -2.375q0.875 -0.90625 2.34375 -0.90625zm-1.5 3.28125q0 0.984375 0.40625 1.484375q0.40625 0.5 1.09375 0.5q0.734375 0 1.125 -0.515625q0.390625 -0.53125 0.390625 -1.46875q0 -0.921875 -0.390625 -1.453125q-0.375 -0.546875 -1.125 -0.546875q-0.6875 0 -1.09375 0.5q-0.40625 0.5 -0.40625 1.5zm9.376953 -3.28125q1.1875 0 1.71875 0.609375q0.546875 0.59375 0.546875 1.890625l0 3.875l-1.703125 0l0 -3.5625q0 -0.71875 -0.25 -1.09375q-0.25 -0.375 -0.84375 -0.375q-0.703125 0 -1.015625 0.421875q-0.3125 0.421875 -0.3125 1.296875l0 3.3125l-1.6875 0l0 -6.203125l1.609375 0l0 0.859375l0.03125 0q0.3125 -0.5 0.8125 -0.765625q0.5 -0.265625 1.09375 -0.265625zm6.0976562 0q1.265625 0 1.953125 0.5q0.703125 0.5 0.796875 1.484375l-1.625 0q-0.046875 -0.4375 -0.34375 -0.640625q-0.28125 -0.203125 -0.828125 -0.203125q-0.484375 0 -0.71875 0.15625q-0.21875 0.140625 -0.21875 0.421875q0 0.28125 0.296875 0.46875q0.296875 0.1875 1.1875 0.359375q1.421875 0.265625 1.90625 0.703125q0.5 0.4375 0.5 1.140625q0 1.046875 -0.78125 1.609375q-0.765625 0.546875 -2.046875 0.546875q-1.296875 0 -2.078125 -0.546875q-0.78125 -0.546875 -0.84375 -1.640625l1.625 0q0 0.484375 0.375 0.765625q0.375 0.28125 0.9375 0.28125q0.5 0 0.796875 -0.21875q0.3125 -0.21875 0.3125 -0.578125q0 -0.328125 -0.40625 -0.53125q-0.390625 -0.203125 -1.46875 -0.421875q-1.078125 -0.21875 -1.546875 -0.609375q-0.46875 -0.390625 -0.46875 -1.0625q0 -0.984375 0.6875 -1.484375q0.703125 -0.5 2.0 -0.5zm5.6015625 0.171875l0 3.546875q0 0.703125 0.25 1.09375q0.25 0.390625 0.859375 0.390625q0.703125 0 1.0 -0.421875q0.3125 -0.4375 0.3125 -1.296875l0 -3.3125l1.703125 0l0 6.203125l-1.625 0l0 -0.859375l-0.03125 0q-0.328125 0.515625 -0.84375 0.78125q-0.5 0.25 -1.0625 0.25q-1.15625 0 -1.703125 -0.59375q-0.546875 -0.59375 -0.546875 -1.90625l0 -3.875l1.6875 0zm7.1757812 -2.359377l0 8.562502l-1.703125 0l0 -8.562502l1.703125 0zm7.8027344 -0.203125q1.546875 0 2.484375 0.71875q0.9375 0.71875 0.9375 2.031252l-1.8125 0q-0.046875 -0.6406269 -0.453125 -0.9687519q-0.390625 -0.328125 -1.234375 -0.328125q-0.578125 0 -0.953125 0.265625q-0.359375 0.25 -0.359375 0.7187519q0 0.3125 0.15625 0.46875q0.15625 0.15625 0.625 0.34375q0.46875 0.171875 2.0625 0.546875q1.0625 0.25 1.65625 0.875q0.609375 0.609375 0.609375 1.546875q0 1.25 -0.9375 2.0q-0.9375 0.75 -2.625 0.75q-1.609375 0 -2.640625 -0.796875q-1.015625 -0.796875 -1.015625 -2.203125l0 -0.046875l1.828125 0q0 0.796875 0.515625 1.1875q0.53125 0.390625 1.375 0.390625q0.765625 0 1.21875 -0.265625q0.453125 -0.28125 0.453125 -0.796875q0 -0.421875 -0.359375 -0.6875q-0.34375 -0.265625 -1.109375 -0.453125q-0.984375 -0.21875 -1.78125 -0.46875q-0.796875 -0.25 -1.328125 -0.8125q-0.53125 -0.5625 -0.53125 -1.4375q0 -1.1562519 0.921875 -1.8593769q0.9375 -0.71875 2.296875 -0.71875zm7.5214844 2.390627q1.375 0 2.203125 0.953125q0.828125 0.9375 0.828125 2.421875l-0.015625 0.3125l-4.484375 0q0.046875 0.796875 0.421875 1.1875q0.390625 0.390625 1.09375 0.390625q0.46875 0 0.859375 -0.234375q0.390625 -0.25 0.5 -0.578125l1.5 0q-0.34375 1.046875 -1.0625 1.578125q-0.71875 0.515625 -1.84375 0.515625q-1.4375 0 -2.3125 -0.90625q-0.859375 -0.90625 -0.859375 -2.359375q0 -1.390625 0.890625 -2.328125q0.890625 -0.953125 2.28125 -0.953125zm-1.46875 2.609375l2.78125 0q-0.125 -0.6875 -0.453125 -1.0q-0.3125 -0.328125 -0.921875 -0.328125q-0.609375 0 -0.984375 0.359375q-0.359375 0.34375 -0.421875 0.96875zm9.109375 -2.609375q0.109375 0 0.203125 0.015625q0.09375 0.015625 0.171875 0.046875l0 1.578125q-0.140625 -0.03125 -0.28125 -0.03125q-0.140625 -0.015625 -0.328125 -0.015625q-0.859375 0 -1.28125 0.53125q-0.40625 0.515625 -0.40625 1.40625l0 2.84375l-1.6875 0l0 -6.203125l1.609375 0l0 1.15625l0.03125 0q0.265625 -0.609375 0.796875 -0.96875q0.546875 -0.359375 1.171875 -0.359375zm2.3945312 0.171875l1.3125 4.234375l0.03125 0l1.296875 -4.234375l1.703125 0l-2.109375 6.203125l-1.890625 0l-2.125 -6.203125l1.78125 0zm7.9121094 -0.171875q1.375 0 2.203125 0.953125q0.8280945 0.9375 0.8280945 2.421875l-0.015625 0.3125l-4.4843445 0q0.046875 0.796875 0.421875 1.1875q0.390625 0.390625 1.09375 0.390625q0.46875 0 0.859375 -0.234375q0.390625 -0.25 0.5 -0.578125l1.5 0q-0.34375 1.046875 -1.0625 1.578125q-0.71875 0.515625 -1.84375 0.515625q-1.4375 0 -2.3125 -0.90625q-0.859375 -0.90625 -0.859375 -2.359375q0 -1.390625 0.890625 -2.328125q0.890625 -0.953125 2.28125 -0.953125zm-1.46875 2.609375l2.78125 0q-0.125 -0.6875 -0.453125 -1.0q-0.3125 -0.328125 -0.921875 -0.328125q-0.609375 0 -0.984375 0.359375q-0.359375 0.34375 -0.421875 0.96875zm9.1093445 -2.609375q0.109375 0 0.203125 0.015625q0.09375 0.015625 0.171875 0.046875l0 1.578125q-0.140625 -0.03125 -0.28125 -0.03125q-0.140625 -0.015625 -0.328125 -0.015625q-0.859375 0 -1.28125 0.53125q-0.40625 0.515625 -0.40625 1.40625l0 2.84375l-1.6875 0l0 -6.203125l1.609375 0l0 1.15625l0.03125 0q0.265625 -0.609375 0.796875 -0.96875q0.546875 -0.359375 1.171875 -0.359375zm3.5917969 0q1.265625 0 1.953125 0.5q0.703125 0.5 0.796875 1.484375l-1.625 0q-0.046875 -0.4375 -0.34375 -0.640625q-0.28125 -0.203125 -0.828125 -0.203125q-0.484375 0 -0.71875 0.15625q-0.21875 0.140625 -0.21875 0.421875q0 0.28125 0.296875 0.46875q0.296875 0.1875 1.1875 0.359375q1.421875 0.265625 1.90625 0.703125q0.5 0.4375 0.5 1.140625q0 1.046875 -0.78125 1.609375q-0.765625 0.546875 -2.046875 0.546875q-1.296875 0 -2.078125 -0.546875q-0.78125 -0.546875 -0.84375 -1.640625l1.625 0q0 0.484375 0.375 0.765625q0.375 0.28125 0.9375 0.28125q0.5 0 0.796875 -0.21875q0.3125 -0.21875 0.3125 -0.578125q0 -0.328125 -0.40625 -0.53125q-0.390625 -0.203125 -1.46875 -0.421875q-1.078125 -0.21875 -1.546875 -0.609375q-0.46875 -0.390625 -0.46875 -1.0625q0 -0.984375 0.6875 -1.484375q0.703125 -0.5 2.0 -0.5z" fill-rule="nonzero"/><path fill="#000000" fill-opacity="0.0" d="m587.7824 114.887146l-77.22833 0" fill-rule="evenodd"/><path stroke="#e03875" stroke-width="2.0" stroke-miterlimit="400.0" stroke-linecap="butt" stroke-dasharray="2.0,6.0" d="m587.7824 114.887146l-77.22833 0" fill-rule="evenodd"/><path fill="#ffffff" d="m209.06645 387.11737l0 0c0 -0.9378052 0.76023865 -1.6980591 1.6980591 -1.6980591l57.729416 0c0.4503479 0 0.8822632 0.17889404 1.2007141 0.49734497c0.31845093 0.31845093 0.49734497 0.7503662 0.49734497 1.2007141l0 57.72943c0 0.9378052 -0.7602539 1.6980591 -1.6980591 1.6980591l-57.729416 0c-0.93782043 0 -1.6980591 -0.7602539 -1.6980591 -1.6980591z" fill-rule="evenodd"/><path stroke="#d6d6d6" stroke-width="1.0" stroke-miterlimit="400.0" stroke-linecap="butt" d="m209.06645 387.11737l0 0c0 -0.9378052 0.76023865 -1.6980591 1.6980591 -1.6980591l57.729416 0c0.4503479 0 0.8822632 0.17889404 1.2007141 0.49734497c0.31845093 0.31845093 0.49734497 0.7503662 0.49734497 1.2007141l0 57.72943c0 0.9378052 -0.7602539 1.6980591 -1.6980591 1.6980591l-57.729416 0c-0.93782043 0 -1.6980591 -0.7602539 -1.6980591 -1.6980591z" fill-rule="evenodd"/><path fill="#000000" fill-opacity="0.0" d="m189.22829 449.37274l100.8094 0l0 27.793l-100.8094 0z" fill-rule="evenodd"/><path fill="#000000" d="m216.3322 454.1271q1.546875 0 2.484375 0.71875q0.9375 0.71875 0.9375 2.03125l-1.8125 0q-0.046875 -0.640625 -0.453125 -0.96875q-0.390625 -0.328125 -1.234375 -0.328125q-0.578125 0 -0.953125 0.265625q-0.359375 0.25 -0.359375 0.71875q0 0.3125 0.15625 0.46875q0.15625 0.15625 0.625 0.34375q0.46875 0.171875 2.0625 0.546875q1.0625 0.25 1.65625 0.875q0.609375 0.609375 0.609375 1.546875q0 1.25 -0.9375 2.0q-0.9375 0.75 -2.625 0.75q-1.609375 0 -2.640625 -0.796875q-1.015625 -0.796875 -1.015625 -2.203125l0 -0.046875l1.828125 0q0 0.796875 0.515625 1.1875q0.53125 0.390625 1.375 0.390625q0.765625 0 1.21875 -0.265625q0.453125 -0.28125 0.453125 -0.796875q0 -0.421875 -0.359375 -0.6875q-0.34375 -0.265625 -1.109375 -0.453125q-0.984375 -0.21875 -1.78125 -0.46875q-0.796875 -0.25 -1.328125 -0.8125q-0.53125 -0.5625 -0.53125 -1.4375q0 -1.15625 0.921875 -1.859375q0.9375 -0.71875 2.296875 -0.71875zm7.5214844 2.390625q1.375 0 2.203125 0.953125q0.828125 0.9375 0.828125 2.421875l-0.015625 0.3125l-4.484375 0q0.046875 0.796875 0.421875 1.1875q0.390625 0.390625 1.09375 0.390625q0.46875 0 0.859375 -0.234375q0.390625 -0.25 0.5 -0.578125l1.5 0q-0.34375 1.046875 -1.0625 1.578125q-0.71875 0.515625 -1.84375 0.515625q-1.4375 0 -2.3125 -0.90625q-0.859375 -0.90625 -0.859375 -2.359375q0 -1.390625 0.890625 -2.328125q0.890625 -0.953125 2.28125 -0.953125zm-1.46875 2.609375l2.78125 0q-0.125 -0.6875 -0.453125 -1.0q-0.3125 -0.328125 -0.921875 -0.328125q-0.609375 0 -0.984375 0.359375q-0.359375 0.34375 -0.421875 0.96875zm9.109375 -2.609375q0.109375 0 0.203125 0.015625q0.09375 0.015625 0.171875 0.046875l0 1.578125q-0.140625 -0.03125 -0.28125 -0.03125q-0.140625 -0.015625 -0.328125 -0.015625q-0.859375 0 -1.28125 0.53125q-0.40625 0.515625 -0.40625 1.40625l0 2.84375l-1.6875 0l0 -6.203125l1.609375 0l0 1.15625l0.03125 0q0.265625 -0.609375 0.796875 -0.96875q0.546875 -0.359375 1.171875 -0.359375zm2.3945312 0.171875l1.3125 4.234375l0.03125 0l1.296875 -4.234375l1.703125 0l-2.109375 6.203125l-1.890625 0l-2.125 -6.203125l1.78125 0zm6.8027344 -2.359375l0 1.390625l-1.703125 0l0 -1.390625l1.703125 0zm0 2.359375l0 6.203125l-1.703125 0l0 -6.203125l1.703125 0zm4.3125 -0.171875q1.203125 0 2.015625 0.625q0.828125 0.625 0.90625 1.734375l-1.671875 0q-0.078125 -0.53125 -0.40625 -0.796875q-0.3125 -0.28125 -0.859375 -0.28125q-0.6875 0 -1.078125 0.5625q-0.375 0.5625 -0.375 1.453125q0 0.890625 0.375 1.4375q0.375 0.53125 1.046875 0.53125q0.5625 0 0.90625 -0.328125q0.359375 -0.328125 0.453125 -0.9375l1.640625 0q-0.171875 1.21875 -0.96875 1.890625q-0.78125 0.65625 -2.015625 0.65625q-1.390625 0 -2.265625 -0.890625q-0.875 -0.890625 -0.875 -2.296875q0 -1.5 0.859375 -2.421875q0.859375 -0.9375 2.3125 -0.9375zm6.78125 0q1.375 0 2.203125 0.953125q0.828125 0.9375 0.828125 2.421875l-0.015625 0.3125l-4.484375 0q0.046875 0.796875 0.421875 1.1875q0.390625 0.390625 1.09375 0.390625q0.46875 0 0.859375 -0.234375q0.390625 -0.25 0.5 -0.578125l1.5 0q-0.34375 1.046875 -1.0625 1.578125q-0.71875 0.515625 -1.84375 0.515625q-1.4375 0 -2.3125 -0.90625q-0.859375 -0.90625 -0.859375 -2.359375q0 -1.390625 0.890625 -2.328125q0.890625 -0.953125 2.28125 -0.953125zm-1.46875 2.609375l2.78125 0q-0.125 -0.6875 -0.453125 -1.0q-0.3125 -0.328125 -0.921875 -0.328125q-0.609375 0 -0.984375 0.359375q-0.359375 0.34375 -0.421875 0.96875zm13.271469 -4.796875l3.203125 8.5625l-1.953125 0l-0.640625 -1.90625l-3.203125 0l-0.671875 1.90625l-1.90625 0l3.25 -8.5625l1.921875 0zm-0.984375 2.109375l-1.125 3.140625l2.21875 0l-1.078125 -3.140625l-0.015625 0z" fill-rule="nonzero"/><path fill="#000000" d="m228.36108 410.0492c0 -0.010681152 0.0036315918 -0.021331787 0.0036315918 -0.03201294l10.353592 5.2930603l0 12.876495l-9.520004 -4.867523c-0.52053833 -0.26812744 -0.84207153 -0.8056946 -0.83721924 -1.4086304c0 0 0 -11.861389 0 -11.861389zm10.593826 -6.3788757c0.21234131 -0.108062744 0.44529724 -0.16275024 0.67826843 -0.16275024c0.23295593 0 0.46592712 0.0546875 0.6770477 0.16275024l9.45813 4.8355103l-10.135178 5.1823425l-10.136398 -5.1823425c0 0 9.45813 -4.8355103 9.45813 -4.8355103zm11.945511 6.346863c0 0.010681152 0.004852295 0.020019531 0.004852295 0.030670166l0 11.874725c-0.0012207031 0.5949402 -0.32518005 1.1298523 -0.84814453 1.3952942l-9.5103 4.862213l0 -12.869843c0 0 10.353592 -5.2930603 10.353592 -5.2930603zm-22.521133 14.972107l9.748108 4.9849243c0.46957397 0.2401123 0.98524475 0.36016846 1.4997101 0.36016846c0.51446533 0 1.0301514 -0.12005615 1.4997101 -0.36016846l9.746902 -4.9835815c1.1454163 -0.58291626 1.8588715 -1.7581177 1.8588715 -3.0680542l0 -11.874725c0 -1.309906 -0.7134552 -2.4851074 -1.8576508 -3.0667114l-9.748123 -4.9835815c-0.0012054443 0 -0.0012054443 -0.0013427734 -0.0024261475 -0.0013427734c-0.93307495 -0.47488403 -2.0481415 -0.47488403 -2.9848633 0.0013427734l-9.746902 4.982239c-1.1466217 0.5829468 -1.8588562 1.7581482 -1.8600769 3.0680542l0 11.856049c-0.008483887 1.3125916 0.6976929 2.4944763 1.8467407 3.0853882z" fill-rule="evenodd"/><path fill="#e03875" d="m258.34714 443.08914l0 0c0 -4.589081 3.7201843 -8.309265 8.309235 -8.309265l0 0l0 0c2.2037659 0 4.3172607 0.87542725 5.8755493 2.4337158c1.5582886 1.5582886 2.4337158 3.6717834 2.4337158 5.8755493l0 0l0 0c0 4.5890503 -3.7201843 8.309235 -8.309265 8.309235l0 0l0 0c-4.5890503 0 -8.309235 -3.7201843 -8.309235 -8.309235z" fill-rule="evenodd"/><path fill="#ffffff" d="m343.96127 387.1173l0 0c0 -0.9378052 0.7602539 -1.6980591 1.6980591 -1.6980591l57.72943 0c0.4503479 0 0.8822632 0.17889404 1.2007141 0.49734497c0.3184204 0.31845093 0.49734497 0.7503662 0.49734497 1.2007141l0 57.72943c0 0.9378052 -0.7602539 1.6980591 -1.6980591 1.6980591l-57.72943 0c-0.9378052 0 -1.6980591 -0.7602539 -1.6980591 -1.6980591z" fill-rule="evenodd"/><path stroke="#3c78d8" stroke-width="1.0" stroke-miterlimit="400.0" stroke-linecap="butt" d="m343.96127 387.1173l0 0c0 -0.9378052 0.7602539 -1.6980591 1.6980591 -1.6980591l57.72943 0c0.4503479 0 0.8822632 0.17889404 1.2007141 0.49734497c0.3184204 0.31845093 0.49734497 0.7503662 0.49734497 1.2007141l0 57.72943c0 0.9378052 -0.7602539 1.6980591 -1.6980591 1.6980591l-57.72943 0c-0.9378052 0 -1.6980591 -0.7602539 -1.6980591 -1.6980591z" fill-rule="evenodd"/><path fill="#000000" fill-opacity="0.0" d="m324.1231 449.37268l100.80939 0l0 27.79303l-100.80939 0z" fill-rule="evenodd"/><path fill="#000000" d="m363.1616 454.33017q1.34375 0 2.125 0.75q0.78125 0.75 0.78125 2.0q0 1.234375 -0.78125 1.984375q-0.78125 0.75 -2.125 0.75l-2.03125 0l0 3.078125l-1.890625 0l0 -8.5625l3.921875 0zm-0.515625 4.03125q0.8125 0 1.203125 -0.296875q0.390625 -0.3125 0.390625 -0.984375q0 -0.65625 -0.390625 -0.96875q-0.375 -0.328125 -1.203125 -0.328125l-1.515625 0l0 2.578125l1.515625 0zm7.8535156 -1.84375q0.109375 0 0.203125 0.015625q0.09375 0.015625 0.171875 0.046875l0 1.578125q-0.140625 -0.03125 -0.28125 -0.03125q-0.140625 -0.015625 -0.328125 -0.015625q-0.859375 0 -1.28125 0.53125q-0.40625 0.515625 -0.40625 1.40625l0 2.84375l-1.6875 0l0 -6.203125l1.609375 0l0 1.15625l0.03125 0q0.265625 -0.609375 0.796875 -0.96875q0.546875 -0.359375 1.171875 -0.359375zm3.9667969 0q1.46875 0 2.34375 0.90625q0.875 0.890625 0.875 2.375q0 1.484375 -0.890625 2.375q-0.875 0.890625 -2.328125 0.890625q-1.4375 0 -2.328125 -0.890625q-0.875 -0.90625 -0.875 -2.375q0 -1.46875 0.859375 -2.375q0.875 -0.90625 2.34375 -0.90625zm-1.5 3.28125q0 0.984375 0.40625 1.484375q0.40625 0.5 1.09375 0.5q0.734375 0 1.125 -0.515625q0.390625 -0.53125 0.390625 -1.46875q0 -0.921875 -0.390625 -1.453125q-0.375 -0.546875 -1.125 -0.546875q-0.6875 0 -1.09375 0.5q-0.40625 0.5 -0.40625 1.5zm7.1445312 -3.109375l1.09375 1.625l1.078125 -1.625l1.875 0l-2.03125 2.90625l2.296875 3.296875l-1.953125 0l-1.296875 -1.953125l-1.296875 1.953125l-1.90625 0l2.234375 -3.265625l-2.046875 -2.9375l1.953125 0zm6.0546875 0l1.40625 4.25l0.03125 0l1.34375 -4.25l1.765625 0l-2.640625 7.09375q-0.234375 0.625 -0.71875 0.953125q-0.484375 0.34375 -1.25 0.34375q-0.375 0 -0.640625 -0.015625q-0.25 -0.015625 -0.515625 -0.046875l0 -1.40625q0.3125 0.03125 0.515625 0.046875q0.203125 0.015625 0.375 0.015625q0.359375 0 0.5625 -0.234375q0.203125 -0.21875 0.203125 -0.546875q0 -0.09375 -0.015625 -0.171875q-0.015625 -0.09375 -0.0625 -0.21875l-2.1875 -5.8125l1.828125 0z" fill-rule="nonzero"/><path fill="#000000" d="m376.68134 422.12485l-13.396088 0l6.2862854 -5.856903c0.3213501 -0.29971313 0.3213501 -0.7854614 0 -1.085907c-0.32211304 -0.29971313 -0.84399414 -0.29971313 -1.1661377 0l-7.6924744 7.167206c-0.075805664 0.070892334 -0.13580322 0.15576172 -0.17764282 0.24951172c-0.0836792 0.18826294 -0.0836792 0.39938354 0 0.58688354c0.0418396 0.09375 0.10183716 0.1786499 0.17764282 0.24951172l7.6924744 7.167206c0.16107178 0.14984131 0.3718872 0.22515869 0.5834656 0.22515869c0.21081543 0 0.42163086 -0.07531738 0.5826721 -0.22515869c0.3213501 -0.29971313 0.3213501 -0.7854614 0 -1.085907l-6.2862854 -5.85614l13.396088 0c0.45477295 0 0.8242798 -0.34402466 0.8242798 -0.7677307c0 -0.424469 -0.36950684 -0.7677307 -0.8242798 -0.7677307z" fill-rule="evenodd"/><path fill="#000000" fill-opacity="0.0" d="m372.00876 422.89282l16.57077 0" fill-rule="evenodd"/><path stroke="#000000" stroke-width="1.0" stroke-linejoin="round" stroke-linecap="butt" d="m372.00876 422.89282l16.57077 0" fill-rule="evenodd"/><path fill="#000000" d="m372.3703 409.61258l13.396088 0l-6.2862854 5.8568726c-0.3213501 0.29971313 -0.3213501 0.7854614 0 1.085907c0.32211304 0.29971313 0.84399414 0.29971313 1.1661377 0l7.6924744 -7.167206c0.07577515 -0.07086182 0.13580322 -0.15576172 0.17764282 -0.24951172c0.0836792 -0.18823242 0.0836792 -0.39935303 0 -0.58688354c-0.0418396 -0.09375 -0.101867676 -0.17861938 -0.17764282 -0.24951172l-7.6924744 -7.167206c-0.16107178 -0.14984131 -0.3718872 -0.22512817 -0.5834656 -0.22512817c-0.21081543 0 -0.42163086 0.075286865 -0.5826721 0.22512817c-0.3213501 0.29971313 -0.3213501 0.7854614 0 1.085907l6.2862854 5.8561707l-13.396088 0c-0.45477295 0 -0.8242798 0.34399414 -0.8242798 0.7677307c0 0.424469 0.36950684 0.7677307 0.8242798 0.7677307z" fill-rule="evenodd"/><path fill="#000000" fill-opacity="0.0" d="m377.04288 408.8446l-16.57077 0" fill-rule="evenodd"/><path stroke="#000000" stroke-width="1.0" stroke-linejoin="round" stroke-linecap="butt" d="m377.04288 408.8446l-16.57077 0" fill-rule="evenodd"/><path fill="#000000" fill-opacity="0.0" d="m270.192 415.9821l73.763794 0" fill-rule="evenodd"/><path stroke="#d6d6d6" stroke-width="2.0" stroke-miterlimit="400.0" stroke-linecap="butt" stroke-dasharray="2.0,6.0" d="m270.192 415.9821l73.763794 0" fill-rule="evenodd"/><path fill="#000000" fill-opacity="0.0" d="m374.52405 385.41925l0 -32.22046" fill-rule="evenodd"/><path stroke="#e03875" stroke-width="2.0" stroke-miterlimit="400.0" stroke-linecap="butt" stroke-dasharray="2.0,6.0" d="m374.52405 385.41925l0 -32.22046" fill-rule="evenodd"/><path fill="#000000" fill-opacity="0.0" d="m689.8095 415.98273l-73.76373 0" fill-rule="evenodd"/><path stroke="#d6d6d6" stroke-width="2.0" stroke-miterlimit="400.0" stroke-linecap="butt" stroke-dasharray="2.0,6.0" d="m689.8095 415.98273l-73.76373 0" fill-rule="evenodd"/><path fill="#000000" fill-opacity="0.0" d="m585.4787 385.4199l0 -32.22046" fill-rule="evenodd"/><path stroke="#e03875" stroke-width="2.0" stroke-miterlimit="400.0" stroke-linecap="butt" stroke-dasharray="2.0,6.0" d="m585.4787 385.4199l0 -32.22046" fill-rule="evenodd"/><path fill="#e03875" d="m33.031445 317.049l0 -13.396088l5.8568993 6.286316c0.29970932 0.32131958 0.78544617 0.32131958 1.0858955 0c0.29970932 -0.32214355 0.29970932 -0.84402466 0 -1.1661682l-7.167206 -7.6924744c-0.070869446 -0.07577515 -0.15576172 -0.13580322 -0.24951172 -0.17764282c-0.18824387 -0.0836792 -0.3993683 -0.0836792 -0.5868721 0c-0.09375191 0.0418396 -0.17864609 0.101867676 -0.24951363 0.17764282l-7.167206 7.6924744c-0.14985466 0.16107178 -0.22515106 0.3718872 -0.22515106 0.5834656c0 0.21081543 0.0752964 0.42163086 0.22515106 0.58270264c0.29970932 0.32131958 0.78544617 0.32131958 1.0858955 0l5.856159 -6.286316l0 13.396088c0 0.45477295 0.34400177 0.8242798 0.7677288 0.8242798c0.424469 0 0.7677307 -0.36950684 0.7677307 -0.8242798z" fill-rule="evenodd"/><path fill="#000000" fill-opacity="0.0" d="m32.26347 312.37646l0 34.621887" fill-rule="evenodd"/><path stroke="#e03875" stroke-width="1.0" stroke-linejoin="round" stroke-linecap="butt" d="m32.26347 312.37646l0 34.621887" fill-rule="evenodd"/><path fill="#000000" fill-opacity="0.0" d="m50.88539 300.83728l84.409454 0l0 46.173218l-84.409454 0z" fill-rule="evenodd"/><path fill="#e03875" d="m57.557266 305.59164q1.453125 0 2.484375 0.828125q1.03125 0.8125 1.203125 2.25l-1.8125 0q-0.125 -0.671875 -0.671875 -1.078125q-0.546875 -0.421875 -1.203125 -0.421875q-1.109375 0 -1.71875 0.8125q-0.609375 0.796875 -0.609375 2.125q0 1.265625 0.59375 2.0625q0.609375 0.796875 1.734375 0.796875q0.8125 0 1.3125 -0.5q0.515625 -0.5 0.625 -1.40625l1.828125 0q-0.15625 1.625 -1.1875 2.5625q-1.015625 0.9375 -2.578125 0.9375q-1.234375 0 -2.203125 -0.5625q-0.96875 -0.5625 -1.5 -1.59375q-0.515625 -1.03125 -0.515625 -2.296875q0 -1.96875 1.15625 -3.234375q1.15625 -1.28125 3.0625 -1.28125zm7.8789062 2.390625q1.46875 0 2.34375 0.90625q0.875 0.890625 0.875 2.375q0 1.484375 -0.890625 2.375q-0.875 0.890625 -2.328125 0.890625q-1.4375 0 -2.328125 -0.890625q-0.875 -0.90625 -0.875 -2.375q0 -1.46875 0.859375 -2.375q0.875 -0.90625 2.34375 -0.90625zm-1.5 3.28125q0 0.984375 0.40625 1.484375q0.40625 0.5 1.09375 0.5q0.734375 0 1.125 -0.515625q0.390625 -0.53125 0.390625 -1.46875q0 -0.921875 -0.390625 -1.453125q-0.375 -0.546875 -1.125 -0.546875q-0.6875 0 -1.09375 0.5q-0.40625 0.5 -0.40625 1.5zm9.376953 -3.28125q1.1875 0 1.71875 0.609375q0.546875 0.59375 0.546875 1.890625l0 3.875l-1.703125 0l0 -3.5625q0 -0.71875 -0.25 -1.09375q-0.25 -0.375 -0.84375 -0.375q-0.703125 0 -1.015625 0.421875q-0.3125 0.421875 -0.3125 1.296875l0 3.3125l-1.6875 0l0 -6.203125l1.609375 0l0 0.859375l0.03125 0q0.3125 -0.5 0.8125 -0.765625q0.5 -0.265625 1.09375 -0.265625zm5.7226562 -1.6875l0 1.859375l1.25 0l0 1.140625l-1.25 0l0 3.109375q0 0.375 0.140625 0.53125q0.140625 0.15625 0.578125 0.15625q0.140625 0 0.265625 -0.015625q0.140625 -0.015625 0.265625 -0.03125l0 1.328125q-0.21875 0.03125 -0.484375 0.046875q-0.25 0.015625 -0.5 0.015625q-1.109375 0 -1.546875 -0.375q-0.421875 -0.390625 -0.421875 -1.0625l0 -3.703125l-1.03125 0l0 -1.140625l1.03125 0l0 -1.859375l1.703125 0zm5.6777344 1.6875q0.109375 0 0.203125 0.015625q0.09375 0.015625 0.171875 0.046875l0 1.578125q-0.140625 -0.03125 -0.28125 -0.03125q-0.140625 -0.015625 -0.328125 -0.015625q-0.859375 0 -1.28125 0.53125q-0.40625 0.515625 -0.40625 1.40625l0 2.84375l-1.6875 0l0 -6.203125l1.609375 0l0 1.15625l0.03125 0q0.265625 -0.609375 0.796875 -0.96875q0.546875 -0.359375 1.171875 -0.359375zm3.9667969 0q1.46875 0 2.34375 0.90625q0.875 0.890625 0.875 2.375q0 1.484375 -0.890625 2.375q-0.875 0.890625 -2.328125 0.890625q-1.4375 0 -2.328125 -0.890625q-0.875 -0.90625 -0.875 -2.375q0 -1.46875 0.859375 -2.375q0.875 -0.90625 2.34375 -0.90625zm-1.5 3.28125q0 0.984375 0.40625 1.484375q0.40625 0.5 1.09375 0.5q0.734375 0 1.125 -0.515625q0.390625 -0.53125 0.390625 -1.46875q0 -0.921875 -0.390625 -1.453125q-0.375 -0.546875 -1.125 -0.546875q-0.6875 0 -1.09375 0.5q-0.40625 0.5 -0.40625 1.5zm7.580078 -5.46875l0 8.5625l-1.703125 0l0 -8.5625l1.703125 0zm8.771484 0q1.34375 0 2.125 0.75q0.78125 0.75 0.78125 2.0q0 1.234375 -0.78125 1.984375q-0.78125 0.75 -2.125 0.75l-2.03125 0l0 3.078125l-1.890625 0l0 -8.5625l3.921875 0zm-0.515625 4.03125q0.8125 0 1.203125 -0.296875q0.390625 -0.3125 0.390625 -0.984375q0 -0.65625 -0.390625 -0.96875q-0.375 -0.328125 -1.203125 -0.328125l-1.515625 0l0 2.578125l1.515625 0zm6.1757812 -4.03125l0 8.5625l-1.703125 0l0 -8.5625l1.703125 0zm4.1875 2.1875q1.375 0 2.046875 0.453125q0.671875 0.453125 0.671875 1.28125l0 3.328125q0 0.375 0.046875 0.75q0.046875 0.375 0.171875 0.5625l-1.734375 0q-0.046875 -0.140625 -0.078125 -0.28125q-0.03125 -0.15625 -0.046875 -0.3125q-0.359375 0.375 -0.890625 0.578125q-0.515625 0.1875 -1.1875 0.1875q-0.96875 0 -1.546875 -0.484375q-0.5625 -0.484375 -0.5625 -1.375q0 -0.875 0.53125 -1.328125q0.546875 -0.46875 1.96875 -0.625q0.984375 -0.09375 1.296875 -0.234375q0.328125 -0.15625 0.328125 -0.53125q0 -0.40625 -0.25 -0.609375q-0.234375 -0.21875 -0.84375 -0.21875q-0.53125 0 -0.8125 0.234375q-0.28125 0.21875 -0.328125 0.703125l-1.703125 0q0.0625 -1.015625 0.828125 -1.546875q0.78125 -0.53125 2.09375 -0.53125zm-1.40625 4.609375q0 0.375 0.25 0.59375q0.25 0.203125 0.796875 0.203125q0.671875 0 1.015625 -0.359375q0.359375 -0.359375 0.359375 -1.046875l0 -0.65625q-0.15625 0.125 -0.40625 0.1875q-0.25 0.046875 -0.890625 0.140625q-0.59375 0.078125 -0.859375 0.3125q-0.265625 0.21875 -0.265625 0.625zm9.0 -4.609375q1.1875 0 1.71875 0.609375q0.546875 0.59375 0.546875 1.890625l0 3.875l-1.703125 0l0 -3.5625q0 -0.71875 -0.25 -1.09375q-0.25 -0.375 -0.84375 -0.375q-0.703125 0 -1.015625 0.421875q-0.3125 0.421875 -0.3125 1.296875l0 3.3125l-1.6875 0l0 -6.203125l1.609375 0l0 0.859375l0.03125 0q0.3125 -0.5 0.8125 -0.765625q0.5 -0.265625 1.09375 -0.265625zm6.4257812 0q1.375 0 2.203125 0.953125q0.828125 0.9375 0.828125 2.421875l-0.015625 0.3125l-4.484375 0q0.046875 0.796875 0.421875 1.1875q0.390625 0.390625 1.09375 0.390625q0.46875 0 0.859375 -0.234375q0.390625 -0.25 0.5 -0.578125l1.5 0q-0.34375 1.046875 -1.0625 1.578125q-0.71875 0.515625 -1.84375 0.515625q-1.4375 0 -2.3125 -0.90625q-0.859375 -0.90625 -0.859375 -2.359375q0 -1.390625 0.890625 -2.328125q0.890625 -0.953125 2.28125 -0.953125zm-1.46875 2.609375l2.78125 0q-0.125 -0.6875 -0.453125 -1.0q-0.3125 -0.328125 -0.921875 -0.328125q-0.609375 0 -0.984375 0.359375q-0.359375 0.34375 -0.421875 0.96875z" fill-rule="nonzero"/><path fill="#e03875" d="m30.790981 415.3686l0 13.396088l5.8568993 -6.2862854c0.29970932 -0.3213501 0.78544617 -0.3213501 1.0858955 0c0.29970932 0.32211304 0.29970932 0.84399414 0 1.1661377l-7.1672077 7.6924744c-0.07086754 0.075805664 -0.15576172 0.13580322 -0.24951363 0.17764282c-0.18824005 0.0836792 -0.39936638 0.0836792 -0.5868702 0c-0.09375191 -0.0418396 -0.17864418 -0.10183716 -0.24951172 -0.17764282l-7.1672077 -7.6924744c-0.14985466 -0.16107178 -0.22515106 -0.3718567 -0.22515106 -0.5834656c0 -0.21081543 0.0752964 -0.42160034 0.22515106 -0.5826721c0.29971123 -0.3213501 0.7854481 -0.3213501 1.0858955 0l5.856159 6.2862854l0 -13.396088c0 -0.45477295 0.34400368 -0.8242798 0.7677307 -0.8242798c0.4244671 0 0.7677307 0.36950684 0.7677307 0.8242798z" fill-rule="evenodd"/><path fill="#000000" fill-opacity="0.0" d="m30.023006 420.04117l0 -34.621887" fill-rule="evenodd"/><path stroke="#e03875" stroke-width="1.0" stroke-linejoin="round" stroke-linecap="butt" d="m30.023006 420.04117l0 -34.621887" fill-rule="evenodd"/><path fill="#000000" fill-opacity="0.0" d="m48.644924 385.41824l84.40944 0l0 46.17325l-84.40944 0z" fill-rule="evenodd"/><path fill="#000000" d="m55.22305 390.37576q1.71875 0 2.78125 1.125q1.0625 1.109375 1.0625 3.109375q0 2.0 -1.046875 3.171875q-1.03125 1.15625 -2.796875 1.15625l-3.75 0l0 -8.5625l3.75 0zm-0.140625 6.984375q0.90625 0 1.5 -0.640625q0.59375 -0.65625 0.59375 -1.9375q0 -1.484375 -0.625 -2.15625q-0.625 -0.671875 -1.796875 -0.671875l-1.390625 0l0 5.40625l1.71875 0zm7.9570312 -4.796875q1.3750038 0 2.0468788 0.453125q0.671875 0.453125 0.671875 1.28125l0 3.328125q0 0.375 0.046875 0.75q0.046875 0.375 0.171875 0.5625l-1.734375 0q-0.046875 -0.140625 -0.078125 -0.28125q-0.03125 -0.15625 -0.046875 -0.3125q-0.3593788 0.375 -0.8906288 0.578125q-0.515625 0.1875 -1.1875 0.1875q-0.96875 0 -1.546875 -0.484375q-0.5625 -0.484375 -0.5625 -1.375q0 -0.875 0.53125 -1.328125q0.546875 -0.46875 1.96875 -0.625q0.984375 -0.09375 1.296875 -0.234375q0.3281288 -0.15625 0.3281288 -0.53125q0 -0.40625 -0.2500038 -0.609375q-0.234375 -0.21875 -0.84375 -0.21875q-0.53125 0 -0.8125 0.234375q-0.28125 0.21875 -0.328125 0.703125l-1.703125 0q0.0625 -1.015625 0.828125 -1.546875q0.78125 -0.53125 2.09375 -0.53125zm-1.40625 4.609375q0 0.375 0.25 0.59375q0.25 0.203125 0.796875 0.203125q0.671875 0 1.015625 -0.359375q0.3593788 -0.359375 0.3593788 -1.046875l0 -0.65625q-0.15625381 0.125 -0.4062538 0.1875q-0.25 0.046875 -0.890625 0.140625q-0.59375 0.078125 -0.859375 0.3125q-0.265625 0.21875 -0.265625 0.625zm7.609379 -6.296875l0 1.859375l1.25 0l0 1.140625l-1.25 0l0 3.109375q0 0.375 0.140625 0.53125q0.140625 0.15625 0.578125 0.15625q0.140625 0 0.265625 -0.015625q0.140625 -0.015625 0.265625 -0.03125l0 1.328125q-0.21875 0.03125 -0.484375 0.046875q-0.25 0.015625 -0.5 0.015625q-1.109375 0 -1.546875 -0.375q-0.421875 -0.390625 -0.421875 -1.0625l0 -3.703125l-1.03125 0l0 -1.140625l1.03125 0l0 -1.859375l1.703125 0zm4.9121094 1.6875q1.375 0 2.046875 0.453125q0.671875 0.453125 0.671875 1.28125l0 3.328125q0 0.375 0.046875 0.75q0.046875 0.375 0.171875 0.5625l-1.734375 0q-0.046875 -0.140625 -0.078125 -0.28125q-0.03125 -0.15625 -0.046875 -0.3125q-0.359375 0.375 -0.890625 0.578125q-0.515625 0.1875 -1.1875 0.1875q-0.96875 0 -1.546875 -0.484375q-0.5625 -0.484375 -0.5625 -1.375q0 -0.875 0.53125 -1.328125q0.546875 -0.46875 1.96875 -0.625q0.984375 -0.09375 1.296875 -0.234375q0.328125 -0.15625 0.328125 -0.53125q0 -0.40625 -0.25 -0.609375q-0.234375 -0.21875 -0.84375 -0.21875q-0.53125 0 -0.8125 0.234375q-0.28125 0.21875 -0.328125 0.703125l-1.703125 0q0.0625 -1.015625 0.828125 -1.546875q0.78125 -0.53125 2.09375 -0.53125zm-1.40625 4.609375q0 0.375 0.25 0.59375q0.25 0.203125 0.796875 0.203125q0.671875 0 1.015625 -0.359375q0.359375 -0.359375 0.359375 -1.046875l0 -0.65625q-0.15625 0.125 -0.40625 0.1875q-0.25 0.046875 -0.890625 0.140625q-0.59375 0.078125 -0.859375 0.3125q-0.265625 0.21875 -0.265625 0.625zm12.880859 -6.796875q1.34375 0 2.125 0.75q0.78125 0.75 0.78125 2.0q0 1.234375 -0.78125 1.984375q-0.78125 0.75 -2.125 0.75l-2.03125 0l0 3.078125l-1.890625 0l0 -8.5625l3.921875 0zm-0.515625 4.03125q0.8125 0 1.203125 -0.296875q0.390625 -0.3125 0.390625 -0.984375q0 -0.65625 -0.390625 -0.96875q-0.375 -0.328125 -1.203125 -0.328125l-1.515625 0l0 2.578125l1.515625 0zm6.1757812 -4.03125l0 8.5625l-1.703125 0l0 -8.5625l1.703125 0zm4.1875 2.1875q1.375 0 2.046875 0.453125q0.671875 0.453125 0.671875 1.28125l0 3.328125q0 0.375 0.046875 0.75q0.046875 0.375 0.171875 0.5625l-1.734375 0q-0.046875 -0.140625 -0.078125 -0.28125q-0.03125 -0.15625 -0.046875 -0.3125q-0.359375 0.375 -0.890625 0.578125q-0.515625 0.1875 -1.1875 0.1875q-0.96875 0 -1.546875 -0.484375q-0.5625 -0.484375 -0.5625 -1.375q0 -0.875 0.53125 -1.328125q0.546875 -0.46875 1.96875 -0.625q0.984375 -0.09375 1.296875 -0.234375q0.328125 -0.15625 0.328125 -0.53125q0 -0.40625 -0.25 -0.609375q-0.234375 -0.21875 -0.84375 -0.21875q-0.53125 0 -0.8125 0.234375q-0.28125 0.21875 -0.328125 0.703125l-1.703125 0q0.0625 -1.015625 0.828125 -1.546875q0.78125 -0.53125 2.09375 -0.53125zm-1.40625 4.609375q0 0.375 0.25 0.59375q0.25 0.203125 0.796875 0.203125q0.671875 0 1.015625 -0.359375q0.359375 -0.359375 0.359375 -1.046875l0 -0.65625q-0.15625 0.125 -0.40625 0.1875q-0.25 0.046875 -0.890625 0.140625q-0.59375 0.078125 -0.859375 0.3125q-0.265625 0.21875 -0.265625 0.625zm9.0 -4.609375q1.1875 0 1.71875 0.609375q0.546875 0.59375 0.546875 1.890625l0 3.875l-1.703125 0l0 -3.5625q0 -0.71875 -0.25 -1.09375q-0.25 -0.375 -0.84375 -0.375q-0.703125 0 -1.015625 0.421875q-0.3125 0.421875 -0.3125 1.296875l0 3.3125l-1.6875 0l0 -6.203125l1.609375 0l0 0.859375l0.03125 0q0.3125 -0.5 0.8125 -0.765625q0.5 -0.265625 1.09375 -0.265625zm6.4257812 0q1.375 0 2.203125 0.953125q0.828125 0.9375 0.828125 2.421875l-0.015625 0.3125l-4.484375 0q0.046875 0.796875 0.421875 1.1875q0.390625 0.390625 1.09375 0.390625q0.46875 0 0.859375 -0.234375q0.390625 -0.25 0.5 -0.578125l1.5 0q-0.34375 1.046875 -1.0625 1.578125q-0.71875 0.515625 -1.84375 0.515625q-1.4375 0 -2.3125 -0.90625q-0.859375 -0.90625 -0.859375 -2.359375q0 -1.390625 0.890625 -2.328125q0.890625 -0.953125 2.28125 -0.953125zm-1.46875 2.609375l2.78125 0q-0.125 -0.6875 -0.453125 -1.0q-0.3125 -0.328125 -0.921875 -0.328125q-0.609375 0 -0.984375 0.359375q-0.359375 0.34375 -0.421875 0.96875z" fill-rule="nonzero"/></g></svg>