<svg version="1.1" viewBox="0.0 0.0 960.0 540.0" fill="none" stroke="none" stroke-linecap="square" stroke-miterlimit="10" xmlns:xlink="http://www.w3.org/1999/xlink" xmlns="http://www.w3.org/2000/svg"><clipPath id="g155373dfe26_0_1581.0"><path d="m0 0l960.0 0l0 540.0l-960.0 0l0 -540.0z" clip-rule="nonzero"/></clipPath><g clip-path="url(#g155373dfe26_0_1581.0)"><path fill="#ffffff" d="m0 0l960.0 0l0 540.0l-960.0 0z" fill-rule="evenodd"/><g filter="url(#shadowFilter-g155373dfe26_0_1581.1)"><use xlink:href="#g155373dfe26_0_1581.1" transform="matrix(1.0 0.0 0.0 1.0 0.0 7.332598425196854)"/></g><defs><filter id="shadowFilter-g155373dfe26_0_1581.1" filterUnits="userSpaceOnUse"><feGaussianBlur in="SourceAlpha" stdDeviation="5.3333335" result="blur"/><feComponentTransfer in="blur" color-interpolation-filters="sRGB"><feFuncR type="linear" slope="0" intercept="0.0"/><feFuncG type="linear" slope="0" intercept="0.0"/><feFuncB type="linear" slope="0" intercept="0.0"/><feFuncA type="linear" slope="0.0627" intercept="0"/></feComponentTransfer></filter></defs><g id="g155373dfe26_0_1581.1"><path fill="#e03875" fill-opacity="0.0562" d="m156.89981 62.666046l0 0c0 -6.612484 5.360489 -11.972958 11.972961 -11.972958l622.2588 0c3.175415 0 6.220764 1.2614326 8.4661255 3.5067978c2.2453613 2.2453651 3.506836 5.2907333 3.506836 8.46616l0 465.34543c0 6.612488 -5.3604736 11.972961 -11.972961 11.972961l-622.2588 0c-6.6124725 0 -11.972961 -5.3604736 -11.972961 -11.972961z" fill-rule="evenodd"/></g><path fill="#ffffff" d="m540.75214 386.43814l0 0c0 -1.3150024 1.06604 -2.3810425 2.3811035 -2.3810425l80.94873 0c0.63153076 0 1.2371216 0.2508545 1.6836548 0.6973877c0.4465332 0.4465332 0.6973877 1.0521545 0.6973877 1.6836548l0 80.954956c0 1.3150024 -1.06604 2.3810425 -2.3810425 2.3810425l-80.94873 0c-1.3150635 0 -2.3811035 -1.06604 -2.3811035 -2.3810425z" fill-rule="evenodd"/><path stroke="#e03875" stroke-width="1.0" stroke-miterlimit="400.0" stroke-linecap="butt" d="m540.75214 386.43814l0 0c0 -1.3150024 1.06604 -2.3810425 2.3811035 -2.3810425l80.94873 0c0.63153076 0 1.2371216 0.2508545 1.6836548 0.6973877c0.4465332 0.4465332 0.6973877 1.0521545 0.6973877 1.6836548l0 80.954956c0 1.3150024 -1.06604 2.3810425 -2.3810425 2.3810425l-80.94873 0c-1.3150635 0 -2.3811035 -1.06604 -2.3811035 -2.3810425z" fill-rule="evenodd"/><path fill="#e03875" d="m604.5241 452.42667l0 0c0 -3.4613037 2.805725 -6.267273 6.2667847 -6.267273l0 0c1.6621094 0 3.2561035 0.66030884 4.4313354 1.8356628c1.1752319 1.1753235 1.8355103 2.7694397 1.8355103 4.43161l0 0c0 3.4613342 -2.805725 6.2673035 -6.2668457 6.2673035l0 0c-3.4610596 0 -6.2667847 -2.8059692 -6.2667847 -6.2673035z" fill-rule="evenodd"/><path fill="#000000" fill-opacity="0.0" d="m533.49304 471.98193l100.651306 0l0 39.5726l-100.651306 0z" fill-rule="evenodd"/><path fill="#000000" d="m550.17316 476.7363q1.453125 0 2.484375 0.828125q1.03125 0.8125 1.203125 2.25l-1.8125 0q-0.125 -0.671875 -0.671875 -1.078125q-0.546875 -0.421875 -1.203125 -0.421875q-1.109375 0 -1.71875 0.8125q-0.609375 0.796875 -0.609375 2.125q0 1.265625 0.59375 2.0625q0.609375 0.796875 1.734375 0.796875q0.8125 0 1.3125 -0.5q0.515625 -0.5 0.625 -1.40625l1.828125 0q-0.15625 1.625 -1.1875 2.5625q-1.015625 0.9375 -2.578125 0.9375q-1.234375 0 -2.203125 -0.5625q-0.96875 -0.5625 -1.5 -1.59375q-0.515625 -1.03125 -0.515625 -2.296875q0 -1.96875 1.15625 -3.234375q1.15625 -1.28125 3.0625 -1.28125zm7.8789062 2.390625q1.46875 0 2.34375 0.90625q0.875 0.890625 0.875 2.375q0 1.484375 -0.890625 2.375q-0.875 0.890625 -2.328125 0.890625q-1.4375 0 -2.328125 -0.890625q-0.875 -0.90625 -0.875 -2.375q0 -1.46875 0.859375 -2.375q0.875 -0.90625 2.34375 -0.90625zm-1.5 3.28125q0 0.984375 0.40625 1.484375q0.40625 0.5 1.09375 0.5q0.734375 0 1.125 -0.515625q0.390625 -0.53125 0.390625 -1.46875q0 -0.921875 -0.390625 -1.453125q-0.375 -0.546875 -1.125 -0.546875q-0.6875 0 -1.09375 0.5q-0.40625 0.5 -0.40625 1.5zm9.376953 -3.28125q1.1875 0 1.71875 0.609375q0.546875 0.59375 0.546875 1.890625l0 3.875l-1.703125 0l0 -3.5625q0 -0.71875 -0.25 -1.09375q-0.25 -0.375 -0.84375 -0.375q-0.703125 0 -1.015625 0.421875q-0.3125 0.421875 -0.3125 1.296875l0 3.3125l-1.6875 0l0 -6.203125l1.609375 0l0 0.859375l0.03125 0q0.3125 -0.5 0.8125 -0.765625q0.5 -0.265625 1.09375 -0.265625zm6.0976562 0q1.265625 0 1.953125 0.5q0.703125 0.5 0.796875 1.484375l-1.625 0q-0.046875 -0.4375 -0.34375 -0.640625q-0.28125 -0.203125 -0.828125 -0.203125q-0.484375 0 -0.71875 0.15625q-0.21875 0.140625 -0.21875 0.421875q0 0.28125 0.296875 0.46875q0.296875 0.1875 1.1875 0.359375q1.421875 0.265625 1.90625 0.703125q0.5 0.4375 0.5 1.140625q0 1.046875 -0.78125 1.609375q-0.765625 0.546875 -2.046875 0.546875q-1.296875 0 -2.078125 -0.546875q-0.78125 -0.546875 -0.84375 -1.640625l1.625 0q0 0.484375 0.375 0.765625q0.375 0.28125 0.9375 0.28125q0.5 0 0.796875 -0.21875q0.3125 -0.21875 0.3125 -0.578125q0 -0.328125 -0.40625 -0.53125q-0.390625 -0.203125 -1.46875 -0.421875q-1.078125 -0.21875 -1.546875 -0.609375q-0.46875 -0.390625 -0.46875 -1.0625q0 -0.984375 0.6875 -1.484375q0.703125 -0.5 2.0 -0.5zm5.6015625 0.171875l0 3.546875q0 0.703125 0.25 1.09375q0.25 0.390625 0.859375 0.390625q0.703125 0 1.0 -0.421875q0.3125 -0.4375 0.3125 -1.296875l0 -3.3125l1.703125 0l0 6.203125l-1.625 0l0 -0.859375l-0.03125 0q-0.328125 0.515625 -0.84375 0.78125q-0.5 0.25 -1.0625 0.25q-1.15625 0 -1.703125 -0.59375q-0.546875 -0.59375 -0.546875 -1.90625l0 -3.875l1.6875 0zm7.1757812 -2.359375l0 8.5625l-1.703125 0l0 -8.5625l1.703125 0zm8.693359 -0.203125q1.453125 0 2.484375 0.828125q1.03125 0.8125 1.203125 2.25l-1.8125 0q-0.125 -0.671875 -0.671875 -1.078125q-0.546875 -0.421875 -1.203125 -0.421875q-1.109375 0 -1.71875 0.8125q-0.609375 0.796875 -0.609375 2.125q0 1.265625 0.59375 2.0625q0.609375 0.796875 1.734375 0.796875q0.8125 0 1.3125 -0.5q0.515625 -0.5 0.625 -1.40625l1.828125 0q-0.15625 1.625 -1.1875 2.5625q-1.015625 0.9375 -2.578125 0.9375q-1.234375 0 -2.203125 -0.5625q-0.96875 -0.5625 -1.5 -1.59375q-0.515625 -1.03125 -0.515625 -2.296875q0 -1.96875 1.15625 -3.234375q1.15625 -1.28125 3.0625 -1.28125zm6.6289673 0.203125l0 8.5625l-1.703125 0l0 -8.5625l1.703125 0zm3.09375 0l0 1.390625l-1.703125 0l0 -1.390625l1.703125 0zm0 2.359375l0 6.203125l-1.703125 0l0 -6.203125l1.703125 0zm4.203125 -0.171875q1.375 0 2.203125 0.953125q0.828125 0.9375 0.828125 2.421875l-0.015625 0.3125l-4.484375 0q0.046875 0.796875 0.421875 1.1875q0.390625 0.390625 1.09375 0.390625q0.46875 0 0.859375 -0.234375q0.390625 -0.25 0.5 -0.578125l1.5 0q-0.34375 1.046875 -1.0625 1.578125q-0.71875 0.515625 -1.84375 0.515625q-1.4375 0 -2.3125 -0.90625q-0.859375 -0.90625 -0.859375 -2.359375q0 -1.390625 0.890625 -2.328125q0.890625 -0.953125 2.28125 -0.953125zm-1.46875 2.609375l2.78125 0q-0.125 -0.6875 -0.453125 -1.0q-0.3125 -0.328125 -0.921875 -0.328125q-0.609375 0 -0.984375 0.359375q-0.359375 0.34375 -0.421875 0.96875zm9.046875 -2.609375q1.1875 0 1.71875 0.609375q0.546875 0.59375 0.546875 1.890625l0 3.875l-1.703125 0l0 -3.5625q0 -0.71875 -0.25 -1.09375q-0.25 -0.375 -0.84375 -0.375q-0.703125 0 -1.015625 0.421875q-0.3125 0.421875 -0.3125 1.296875l0 3.3125l-1.6875 0l0 -6.203125l1.609375 0l0 0.859375l0.03125 0q0.3125 -0.5 0.8125 -0.765625q0.5 -0.265625 1.09375 -0.265625zm5.7226562 -1.6875l0 1.859375l1.25 0l0 1.140625l-1.25 0l0 3.109375q0 0.375 0.140625 0.53125q0.140625 0.15625 0.578125 0.15625q0.140625 0 0.265625 -0.015625q0.140625 -0.015625 0.265625 -0.03125l0 1.328125q-0.21875 0.03125 -0.484375 0.046875q-0.25 0.015625 -0.5 0.015625q-1.109375 0 -1.546875 -0.375q-0.421875 -0.390625 -0.421875 -1.0625l0 -3.703125l-1.03125 0l0 -1.140625l1.03125 0l0 -1.859375l1.703125 0z" fill-rule="nonzero"/><path fill="#000000" fill-opacity="0.0" d="m533.49304 376.39288l0 0c0 -1.5255737 1.2366943 -2.7622986 2.762268 -2.7622986l95.12677 0c0.732605 0 1.4351807 0.29101562 1.9532471 0.8090515c0.5180054 0.5180359 0.809021 1.2206421 0.809021 1.9532471l0 93.910706c0 1.5256042 -1.2366943 2.762329 -2.762268 2.762329l-95.12677 0c-1.5255737 0 -2.762268 -1.2367249 -2.762268 -2.762329z" fill-rule="evenodd"/><path fill="#ffffff" d="m672.8288 256.59692l0 0c0 -1.3150177 1.065979 -2.3810577 2.3810425 -2.3810577l80.94873 0c0.63153076 0 1.2371216 0.25086975 1.6836548 0.69740295c0.4465332 0.4465332 0.6973877 1.0521545 0.6973877 1.6836548l0 80.954956c0 1.3150024 -1.065979 2.3810425 -2.3810425 2.3810425l-80.94873 0c-1.3150635 0 -2.3810425 -1.06604 -2.3810425 -2.3810425z" fill-rule="evenodd"/><path stroke="#e03875" stroke-width="1.0" stroke-miterlimit="400.0" stroke-linecap="butt" d="m672.8288 256.59692l0 0c0 -1.3150177 1.065979 -2.3810577 2.3810425 -2.3810577l80.94873 0c0.63153076 0 1.2371216 0.25086975 1.6836548 0.69740295c0.4465332 0.4465332 0.6973877 1.0521545 0.6973877 1.6836548l0 80.954956c0 1.3150024 -1.065979 2.3810425 -2.3810425 2.3810425l-80.94873 0c-1.3150635 0 -2.3810425 -1.06604 -2.3810425 -2.3810425z" fill-rule="evenodd"/><path fill="#e03875" d="m736.6007 322.58545l0 0c0 -3.4613037 2.805725 -6.267273 6.2667847 -6.267273l0 0c1.6621094 0 3.2561035 0.66030884 4.4313354 1.8356628c1.1752319 1.1753235 1.8355103 2.7694397 1.8355103 4.43161l0 0c0 3.4613342 -2.805725 6.2673035 -6.2668457 6.2673035l0 0c-3.4610596 0 -6.2667847 -2.8059692 -6.2667847 -6.2673035z" fill-rule="evenodd"/><path fill="#000000" fill-opacity="0.0" d="m665.56964 342.14072l100.65137 0l0 39.5726l-100.65137 0z" fill-rule="evenodd"/><path fill="#000000" d="m682.2498 346.89508q1.453125 0 2.484375 0.828125q1.03125 0.8125 1.203125 2.25l-1.8125 0q-0.125 -0.671875 -0.671875 -1.078125q-0.546875 -0.421875 -1.203125 -0.421875q-1.109375 0 -1.71875 0.8125q-0.609375 0.796875 -0.609375 2.125q0 1.265625 0.59375 2.0625q0.609375 0.796875 1.734375 0.796875q0.8125 0 1.3125 -0.5q0.515625 -0.5 0.625 -1.40625l1.828125 0q-0.15625 1.625 -1.1875 2.5625q-1.015625 0.9375 -2.578125 0.9375q-1.234375 0 -2.203125 -0.5625q-0.96875 -0.5625 -1.5 -1.59375q-0.515625 -1.03125 -0.515625 -2.296875q0 -1.96875 1.15625 -3.234375q1.15625 -1.28125 3.0625 -1.28125zm7.8789062 2.390625q1.46875 0 2.34375 0.90625q0.875 0.890625 0.875 2.375q0 1.484375 -0.890625 2.375q-0.875 0.890625 -2.328125 0.890625q-1.4375 0 -2.328125 -0.890625q-0.875 -0.90625 -0.875 -2.375q0 -1.46875 0.859375 -2.375q0.875 -0.90625 2.34375 -0.90625zm-1.5 3.28125q0 0.984375 0.40625 1.484375q0.40625 0.5 1.09375 0.5q0.734375 0 1.125 -0.515625q0.390625 -0.53125 0.390625 -1.46875q0 -0.921875 -0.390625 -1.453125q-0.375 -0.546875 -1.125 -0.546875q-0.6875 0 -1.09375 0.5q-0.40625 0.5 -0.40625 1.5zm9.376953 -3.28125q1.1875 0 1.71875 0.609375q0.546875 0.59375 0.546875 1.890625l0 3.875l-1.703125 0l0 -3.5625q0 -0.71875 -0.25 -1.09375q-0.25 -0.375 -0.84375 -0.375q-0.703125 0 -1.015625 0.421875q-0.3125 0.421875 -0.3125 1.296875l0 3.3125l-1.6875 0l0 -6.203125l1.609375 0l0 0.859375l0.03125 0q0.3125 -0.5 0.8125 -0.765625q0.5 -0.265625 1.09375 -0.265625zm6.0976562 0q1.265625 0 1.953125 0.5q0.703125 0.5 0.796875 1.484375l-1.625 0q-0.046875 -0.4375 -0.34375 -0.640625q-0.28125 -0.203125 -0.828125 -0.203125q-0.484375 0 -0.71875 0.15625q-0.21875 0.140625 -0.21875 0.421875q0 0.28125 0.296875 0.46875q0.296875 0.1875 1.1875 0.359375q1.421875 0.265625 1.90625 0.703125q0.5 0.4375 0.5 1.140625q0 1.046875 -0.78125 1.609375q-0.765625 0.546875 -2.046875 0.546875q-1.296875 0 -2.078125 -0.546875q-0.78125 -0.546875 -0.84375 -1.640625l1.625 0q0 0.484375 0.375 0.765625q0.375 0.28125 0.9375 0.28125q0.5 0 0.796875 -0.21875q0.3125 -0.21875 0.3125 -0.578125q0 -0.328125 -0.40625 -0.53125q-0.390625 -0.203125 -1.46875 -0.421875q-1.078125 -0.21875 -1.546875 -0.609375q-0.46875 -0.390625 -0.46875 -1.0625q0 -0.984375 0.6875 -1.484375q0.703125 -0.5 2.0 -0.5zm5.6015625 0.171875l0 3.546875q0 0.703125 0.25 1.09375q0.25 0.390625 0.859375 0.390625q0.703125 0 1.0 -0.421875q0.3125 -0.4375 0.3125 -1.296875l0 -3.3125l1.703125 0l0 6.203125l-1.625 0l0 -0.859375l-0.03125 0q-0.328125 0.515625 -0.84375 0.78125q-0.5 0.25 -1.0625 0.25q-1.15625 0 -1.703125 -0.59375q-0.546875 -0.59375 -0.546875 -1.90625l0 -3.875l1.6875 0zm7.1757812 -2.359375l0 8.5625l-1.703125 0l0 -8.5625l1.703125 0zm8.693359 -0.203125q1.453125 0 2.484375 0.828125q1.03125 0.8125 1.203125 2.25l-1.8125 0q-0.125 -0.671875 -0.671875 -1.078125q-0.546875 -0.421875 -1.203125 -0.421875q-1.109375 0 -1.71875 0.8125q-0.609375 0.796875 -0.609375 2.125q0 1.265625 0.59375 2.0625q0.609375 0.796875 1.734375 0.796875q0.8125 0 1.3125 -0.5q0.515625 -0.5 0.625 -1.40625l1.828125 0q-0.15625 1.625 -1.1875 2.5625q-1.015625 0.9375 -2.578125 0.9375q-1.234375 0 -2.203125 -0.5625q-0.96875 -0.5625 -1.5 -1.59375q-0.515625 -1.03125 -0.515625 -2.296875q0 -1.96875 1.15625 -3.234375q1.15625 -1.28125 3.0625 -1.28125zm6.6289062 0.203125l0 8.5625l-1.703125 0l0 -8.5625l1.703125 0zm3.09375 0l0 1.390625l-1.703125 0l0 -1.390625l1.703125 0zm0 2.359375l0 6.203125l-1.703125 0l0 -6.203125l1.703125 0zm4.203125 -0.171875q1.375 0 2.203125 0.953125q0.828125 0.9375 0.828125 2.421875l-0.015625 0.3125l-4.484375 0q0.046875 0.796875 0.421875 1.1875q0.390625 0.390625 1.09375 0.390625q0.46875 0 0.859375 -0.234375q0.390625 -0.25 0.5 -0.578125l1.5 0q-0.34375 1.046875 -1.0625 1.578125q-0.71875 0.515625 -1.84375 0.515625q-1.4375 0 -2.3125 -0.90625q-0.859375 -0.90625 -0.859375 -2.359375q0 -1.390625 0.890625 -2.328125q0.890625 -0.953125 2.28125 -0.953125zm-1.46875 2.609375l2.78125 0q-0.125 -0.6875 -0.453125 -1.0q-0.3125 -0.328125 -0.921875 -0.328125q-0.609375 0 -0.984375 0.359375q-0.359375 0.34375 -0.421875 0.96875zm9.046875 -2.609375q1.1875 0 1.71875 0.609375q0.546875 0.59375 0.546875 1.890625l0 3.875l-1.703125 0l0 -3.5625q0 -0.71875 -0.25 -1.09375q-0.25 -0.375 -0.84375 -0.375q-0.703125 0 -1.015625 0.421875q-0.3125 0.421875 -0.3125 1.296875l0 3.3125l-1.6875 0l0 -6.203125l1.609375 0l0 0.859375l0.03125 0q0.3125 -0.5 0.8125 -0.765625q0.5 -0.265625 1.09375 -0.265625zm5.7226562 -1.6875l0 1.859375l1.25 0l0 1.140625l-1.25 0l0 3.109375q0 0.375 0.140625 0.53125q0.140625 0.15625 0.578125 0.15625q0.140625 0 0.265625 -0.015625q0.140625 -0.015625 0.265625 -0.03125l0 1.328125q-0.21875 0.03125 -0.484375 0.046875q-0.25 0.015625 -0.5 0.015625q-1.109375 0 -1.546875 -0.375q-0.421875 -0.390625 -0.421875 -1.0625l0 -3.703125l-1.03125 0l0 -1.140625l1.03125 0l0 -1.859375l1.703125 0z" fill-rule="nonzero"/><path fill="#000000" fill-opacity="0.0" d="m665.56964 246.38843l0 0c0 -1.525589 1.2366943 -2.7623138 2.762268 -2.7623138l95.12677 0c0.732605 0 1.4351807 0.29103088 1.9532471 0.8090668c0.5180054 0.5180359 0.80908203 1.2206421 0.80908203 1.9532471l0 93.910706c0 1.5256042 -1.2367554 2.762329 -2.762329 2.762329l-95.12677 0c-1.5255737 0 -2.762268 -1.2367249 -2.762268 -2.762329z" fill-rule="evenodd"/><path fill="#dc477d" d="m201.28986 250.73637l0 0c0 -1.3150177 1.06604 -2.381073 2.381073 -2.381073l80.949585 0c0.63150024 0 1.2371521 0.25086975 1.6836853 0.69740295c0.4465332 0.44654846 0.6973877 1.0521698 0.6973877 1.68367l0 80.9496c0 1.315033 -1.06604 2.381073 -2.381073 2.381073l-80.949585 0c-1.315033 0 -2.381073 -1.06604 -2.381073 -2.381073z" fill-rule="evenodd"/><path fill="#ffffff" d="m244.31337 315.1625c-13.203171 0.010986328 -23.915253 -10.717377 -23.926025 -23.962036c-0.010772705 -13.24472 10.683838 -23.990356 23.887009 -24.00119c6.006027 -0.0048828125 11.793854 2.2581482 16.212341 6.339081l0 0l-5.67334 5.9537964l0 0c-6.437683 -5.8357544 -16.372437 -5.3313293 -22.189941 1.1266174c-5.817444 6.4578857 -5.314636 16.42392 1.1230927 22.259644c5.9819946 5.4226685 15.084854 5.4226685 21.066849 0l0 0l5.67334 5.9537964l0 0c-4.4055176 4.0757446 -10.180405 6.3359985 -16.173325 6.3302917z" fill-rule="evenodd"/><path fill="#ffffff" d="m263.55035 303.16733c-1.0822144 0 -1.9595032 -0.8800049 -1.9595032 -1.9656067c0 -1.0856323 0.8772888 -1.9656372 1.9595032 -1.9656372c1.0822754 0 1.9594727 0.8800049 1.9594727 1.9656372c-0.0026245117 1.0845947 -0.878479 1.9632263 -1.9594727 1.9656067z" fill-rule="evenodd"/><path fill="#ffffff" d="m244.16061 296.37738c-2.85849 0 -5.175812 -2.324585 -5.175812 -5.1920776c0 -2.8674927 2.3173218 -5.1920776 5.175812 -5.1920776c2.858551 0 5.175812 2.324585 5.175812 5.1920776c-0.0023956299 2.8664856 -2.3182678 5.189636 -5.175812 5.1920776z" fill-rule="evenodd"/><path fill="#ffffff" d="m265.7935 296.45178c-1.0822754 0 -1.9594727 -0.8800049 -1.9594727 -1.9656067c0 -1.0856323 0.87719727 -1.9656372 1.9594727 -1.9656372c1.0823059 0 1.9595032 0.8800049 1.9595032 1.9656372c-0.0026550293 1.0845947 -0.878479 1.9632263 -1.9595032 1.9656067z" fill-rule="evenodd"/><path fill="#ffffff" d="m259.97174 296.22855c-1.0821838 0 -1.9594727 -0.8800354 -1.9594727 -1.9656067c0 -1.0856628 0.8772888 -1.9656677 1.9594727 -1.9656677c1.0821838 0 1.9594727 0.8800049 1.9594727 1.9656677c0 1.0855713 -0.8772888 1.9656067 -1.9594727 1.9656067z" fill-rule="evenodd"/><path fill="#ffffff" d="m265.7935 289.84567c-1.0822754 0 -1.9594727 -0.8800049 -1.9594727 -1.9656067c0 -1.0856323 0.87719727 -1.9656677 1.9594727 -1.9656677c1.0823059 0 1.9595032 0.8800354 1.9595032 1.9656677c-0.0026550293 1.0845947 -0.878479 1.9632263 -1.9595032 1.9656067z" fill-rule="evenodd"/><path fill="#ffffff" d="m259.97174 290.06897c-1.0821838 0 -1.9594727 -0.8800659 -1.9594727 -1.9656067c0 -1.0856323 0.87731934 -1.9656677 1.9594727 -1.9656677c1.0821838 0 1.9594727 0.8800659 1.9594727 1.9656677c0 0.0014343262 0 0.0029296875 0 0.0043640137c-0.002380371 1.0839233 -0.87893677 1.9612427 -1.9594727 1.9612427z" fill-rule="evenodd"/><path fill="#ffffff" d="m263.66376 283.23523c-1.0821228 0.0024414062 -1.9614258 -0.8756714 -1.9638367 -1.9612732c-0.002380371 -1.0855408 0.8729553 -1.9676208 1.9551392 -1.9700012c1.0822754 -0.0024108887 1.9612122 0.8757019 1.9638367 1.9612427c0 0.0014343262 0 0.002960205 0 0.0043945312c0 1.0838928 -0.87457275 1.9632263 -1.9551392 1.9656372z" fill-rule="evenodd"/><path fill="#000000" fill-opacity="0.0" d="m193.82022 335.7829l100.65137 0l0 39.57263l-100.65137 0z" fill-rule="evenodd"/><path fill="#000000" d="m208.50821 340.53726q1.453125 0 2.484375 0.828125q1.03125 0.8125 1.203125 2.25l-1.8125 0q-0.125 -0.671875 -0.671875 -1.078125q-0.546875 -0.421875 -1.203125 -0.421875q-1.109375 0 -1.71875 0.8125q-0.609375 0.796875 -0.609375 2.125q0 1.265625 0.59375 2.0625q0.609375 0.796875 1.734375 0.796875q0.8125 0 1.3125 -0.5q0.515625 -0.5 0.625 -1.40625l1.828125 0q-0.15625 1.625 -1.1875 2.5625q-1.015625 0.9375 -2.578125 0.9375q-1.234375 0 -2.203125 -0.5625q-0.96875 -0.5625 -1.5 -1.59375q-0.515625 -1.03125 -0.515625 -2.296875q0 -1.96875 1.15625 -3.234375q1.15625 -1.28125 3.0625 -1.28125zm7.8789062 2.390625q1.46875 0 2.34375 0.90625q0.875 0.890625 0.875 2.375q0 1.484375 -0.890625 2.375q-0.875 0.890625 -2.328125 0.890625q-1.4375 0 -2.328125 -0.890625q-0.875 -0.90625 -0.875 -2.375q0 -1.46875 0.859375 -2.375q0.875 -0.90625 2.34375 -0.90625zm-1.5 3.28125q0 0.984375 0.40625 1.484375q0.40625 0.5 1.09375 0.5q0.734375 0 1.125 -0.515625q0.390625 -0.53125 0.390625 -1.46875q0 -0.921875 -0.390625 -1.453125q-0.375 -0.546875 -1.125 -0.546875q-0.6875 0 -1.09375 0.5q-0.40625 0.5 -0.40625 1.5zm9.376953 -3.28125q1.1875 0 1.71875 0.609375q0.546875 0.59375 0.546875 1.890625l0 3.875l-1.703125 0l0 -3.5625q0 -0.71875 -0.25 -1.09375q-0.25 -0.375 -0.84375 -0.375q-0.703125 0 -1.015625 0.421875q-0.3125 0.421875 -0.3125 1.296875l0 3.3125l-1.6875 0l0 -6.203125l1.609375 0l0 0.859375l0.03125 0q0.3125 -0.5 0.8125 -0.765625q0.5 -0.265625 1.09375 -0.265625zm6.0976562 0q1.265625 0 1.953125 0.5q0.703125 0.5 0.796875 1.484375l-1.625 0q-0.046875 -0.4375 -0.34375 -0.640625q-0.28125 -0.203125 -0.828125 -0.203125q-0.484375 0 -0.71875 0.15625q-0.21875 0.140625 -0.21875 0.421875q0 0.28125 0.296875 0.46875q0.296875 0.1875 1.1875 0.359375q1.421875 0.265625 1.90625 0.703125q0.5 0.4375 0.5 1.140625q0 1.046875 -0.78125 1.609375q-0.765625 0.546875 -2.046875 0.546875q-1.296875 0 -2.078125 -0.546875q-0.78125 -0.546875 -0.84375 -1.640625l1.625 0q0 0.484375 0.375 0.765625q0.375 0.28125 0.9375 0.28125q0.5 0 0.796875 -0.21875q0.3125 -0.21875 0.3125 -0.578125q0 -0.328125 -0.40625 -0.53125q-0.390625 -0.203125 -1.46875 -0.421875q-1.078125 -0.21875 -1.546875 -0.609375q-0.46875 -0.390625 -0.46875 -1.0625q0 -0.984375 0.6875 -1.484375q0.703125 -0.5 2.0 -0.5zm5.6015625 0.171875l0 3.546875q0 0.703125 0.25 1.09375q0.25 0.390625 0.859375 0.390625q0.703125 0 1.0 -0.421875q0.3125 -0.4375 0.3125 -1.296875l0 -3.3125l1.703125 0l0 6.203125l-1.625 0l0 -0.859375l-0.03125 0q-0.328125 0.515625 -0.84375 0.78125q-0.5 0.25 -1.0625 0.25q-1.15625 0 -1.703125 -0.59375q-0.546875 -0.59375 -0.546875 -1.90625l0 -3.875l1.6875 0zm7.1757812 -2.359375l0 8.5625l-1.703125 0l0 -8.5625l1.703125 0zm7.8027344 -0.203125q1.546875 0 2.484375 0.71875q0.9375 0.71875 0.9375 2.03125l-1.8125 0q-0.046875 -0.640625 -0.453125 -0.96875q-0.390625 -0.328125 -1.234375 -0.328125q-0.578125 0 -0.953125 0.265625q-0.359375 0.25 -0.359375 0.71875q0 0.3125 0.15625 0.46875q0.15625 0.15625 0.625 0.34375q0.46875 0.171875 2.0625 0.546875q1.0625 0.25 1.65625 0.875q0.609375 0.609375 0.609375 1.546875q0 1.25 -0.9375 2.0q-0.9375 0.75 -2.625 0.75q-1.609375 0 -2.640625 -0.796875q-1.015625 -0.796875 -1.015625 -2.203125l0 -0.046875l1.828125 0q0 0.796875 0.515625 1.1875q0.53125 0.390625 1.375 0.390625q0.765625 0 1.21875 -0.265625q0.453125 -0.28125 0.453125 -0.796875q0 -0.421875 -0.359375 -0.6875q-0.34375 -0.265625 -1.109375 -0.453125q-0.984375 -0.21875 -1.78125 -0.46875q-0.796875 -0.25 -1.328125 -0.8125q-0.53125 -0.5625 -0.53125 -1.4375q0 -1.15625 0.921875 -1.859375q0.9375 -0.71875 2.296875 -0.71875zm7.5214844 2.390625q1.375 0 2.203125 0.953125q0.828125 0.9375 0.828125 2.421875l-0.015625 0.3125l-4.484375 0q0.046875 0.796875 0.421875 1.1875q0.390625 0.390625 1.09375 0.390625q0.46875 0 0.859375 -0.234375q0.390625 -0.25 0.5 -0.578125l1.5 0q-0.34375 1.046875 -1.0625 1.578125q-0.71875 0.515625 -1.84375 0.515625q-1.4375 0 -2.3125 -0.90625q-0.859375 -0.90625 -0.859375 -2.359375q0 -1.390625 0.890625 -2.328125q0.890625 -0.953125 2.28125 -0.953125zm-1.46875 2.609375l2.78125 0q-0.125 -0.6875 -0.453125 -1.0q-0.3125 -0.328125 -0.921875 -0.328125q-0.609375 0 -0.984375 0.359375q-0.359375 0.34375 -0.421875 0.96875zm9.109375 -2.609375q0.109375 0 0.203125 0.015625q0.09375 0.015625 0.171875 0.046875l0 1.578125q-0.140625 -0.03125 -0.28125 -0.03125q-0.140625 -0.015625 -0.328125 -0.015625q-0.859375 0 -1.28125 0.53125q-0.40625 0.515625 -0.40625 1.40625l0 2.84375l-1.6875 0l0 -6.203125l1.609375 0l0 1.15625l0.03125 0q0.265625 -0.609375 0.796875 -0.96875q0.546875 -0.359375 1.171875 -0.359375zm2.3945312 0.171875l1.3125 4.234375l0.03125 0l1.296875 -4.234375l1.703125 0l-2.109375 6.203125l-1.890625 0l-2.125 -6.203125l1.78125 0zm7.9121094 -0.171875q1.375 0 2.203125 0.953125q0.828125 0.9375 0.828125 2.421875l-0.015625 0.3125l-4.484375 0q0.046875 0.796875 0.421875 1.1875q0.390625 0.390625 1.09375 0.390625q0.46875 0 0.859375 -0.234375q0.390625 -0.25 0.5 -0.578125l1.5 0q-0.34375 1.046875 -1.0625 1.578125q-0.71875 0.515625 -1.84375 0.515625q-1.4375 0 -2.3125 -0.90625q-0.859375 -0.90625 -0.859375 -2.359375q0 -1.390625 0.890625 -2.328125q0.890625 -0.953125 2.28125 -0.953125zm-1.46875 2.609375l2.78125 0q-0.125 -0.6875 -0.453125 -1.0q-0.3125 -0.328125 -0.921875 -0.328125q-0.609375 0 -0.984375 0.359375q-0.359375 0.34375 -0.421875 0.96875zm9.109375 -2.609375q0.109375 0 0.203125 0.015625q0.09375 0.015625 0.171875 0.046875l0 1.578125q-0.140625 -0.03125 -0.28125 -0.03125q-0.140625 -0.015625 -0.328125 -0.015625q-0.859375 0 -1.28125 0.53125q-0.40625 0.515625 -0.40625 1.40625l0 2.84375l-1.6875 0l0 -6.203125l1.609375 0l0 1.15625l0.03125 0q0.265625 -0.609375 0.796875 -0.96875q0.546875 -0.359375 1.171875 -0.359375z" fill-rule="nonzero"/><path fill="#000000" d="m224.45157 354.53726q-0.640625 1.1875 -0.984375 2.578125q-0.328125 1.390625 -0.328125 2.859375q0 1.46875 0.3125 2.84375q0.3125 1.359375 0.984375 2.671875l-1.421875 0q-0.765625 -1.28125 -1.171875 -2.671875q-0.40625 -1.390625 -0.40625 -2.734375q0 -1.390625 0.40625 -2.90625q0.40625 -1.515625 1.171875 -2.640625l1.4375 0zm2.6289062 0.203125l0 6.984375l4.171875 0l0 1.578125l-6.0625 0l0 -8.5625l1.890625 0zm7.6933594 2.1875q1.375 0 2.203125 0.953125q0.828125 0.9375 0.828125 2.421875l-0.015625 0.3125l-4.484375 0q0.046875 0.796875 0.421875 1.1875q0.390625 0.390625 1.09375 0.390625q0.46875 0 0.859375 -0.234375q0.390625 -0.25 0.5 -0.578125l1.5 0q-0.34375 1.046875 -1.0625 1.578125q-0.71875 0.515625 -1.84375 0.515625q-1.4375 0 -2.3125 -0.90625q-0.859375 -0.90625 -0.859375 -2.359375q0 -1.390625 0.890625 -2.328125q0.890625 -0.953125 2.28125 -0.953125zm-1.46875 2.609375l2.78125 0q-0.125 -0.6875 -0.453125 -1.0q-0.3125 -0.328125 -0.921875 -0.328125q-0.609375 0 -0.984375 0.359375q-0.359375 0.34375 -0.421875 0.96875zm8.34375 -2.609375q1.375 0 2.046875 0.453125q0.671875 0.453125 0.671875 1.28125l0 3.328125q0 0.375 0.046875 0.75q0.046875 0.375 0.171875 0.5625l-1.734375 0q-0.046875 -0.140625 -0.078125 -0.28125q-0.03125 -0.15625 -0.046875 -0.3125q-0.359375 0.375 -0.890625 0.578125q-0.515625 0.1875 -1.1875 0.1875q-0.96875 0 -1.546875 -0.484375q-0.5625 -0.484375 -0.5625 -1.375q0 -0.875 0.53125 -1.328125q0.546875 -0.46875 1.96875 -0.625q0.984375 -0.09375 1.296875 -0.234375q0.328125 -0.15625 0.328125 -0.53125q0 -0.40625 -0.25 -0.609375q-0.234375 -0.21875 -0.84375 -0.21875q-0.53125 0 -0.8125 0.234375q-0.28125 0.21875 -0.328125 0.703125l-1.703125 0q0.0625 -1.015625 0.828125 -1.546875q0.78125 -0.53125 2.09375 -0.53125zm-1.40625 4.609375q0 0.375 0.25 0.59375q0.25 0.203125 0.796875 0.203125q0.671875 0 1.015625 -0.359375q0.359375 -0.359375 0.359375 -1.046875l0 -0.65625q-0.15625 0.125 -0.40625 0.1875q-0.25 0.046875 -0.890625 0.140625q-0.59375 0.078125 -0.859375 0.3125q-0.265625 0.21875 -0.265625 0.625zm11.5 -6.796875l0 8.5625l-1.625 0l0 -0.796875l-0.03125 0q-0.265625 0.484375 -0.75 0.734375q-0.484375 0.234375 -1.125 0.234375q-1.265625 0 -2.03125 -0.9375q-0.75 -0.9375 -0.75 -2.390625q0 -1.390625 0.734375 -2.296875q0.75 -0.921875 2.015625 -0.921875q0.578125 0 1.046875 0.234375q0.484375 0.234375 0.78125 0.6875l0.03125 0l0 -3.109375l1.703125 0zm-4.609375 5.453125q0 0.859375 0.390625 1.4375q0.40625 0.5625 1.109375 0.5625q0.703125 0 1.078125 -0.515625q0.375 -0.53125 0.375 -1.5q0 -0.90625 -0.375 -1.4375q-0.359375 -0.53125 -1.09375 -0.53125q-0.703125 0 -1.09375 0.53125q-0.390625 0.53125 -0.390625 1.453125zm8.751953 -3.265625q1.375 0 2.203125 0.953125q0.828125 0.9375 0.828125 2.421875l-0.015625 0.3125l-4.484375 0q0.046875 0.796875 0.421875 1.1875q0.390625 0.390625 1.09375 0.390625q0.46875 0 0.859375 -0.234375q0.390625 -0.25 0.5 -0.578125l1.5 0q-0.34375 1.046875 -1.0625 1.578125q-0.71875 0.515625 -1.84375 0.515625q-1.4375 0 -2.3125 -0.90625q-0.859375 -0.90625 -0.859375 -2.359375q0 -1.390625 0.890625 -2.328125q0.890625 -0.953125 2.28125 -0.953125zm-1.46875 2.609375l2.78125 0q-0.125 -0.6875 -0.453125 -1.0q-0.3125 -0.328125 -0.921875 -0.328125q-0.609375 0 -0.984375 0.359375q-0.359375 0.34375 -0.421875 0.96875zm9.109375 -2.609375q0.109375 0 0.203125 0.015625q0.09375 0.015625 0.171875 0.046875l0 1.578125q-0.140625 -0.03125 -0.28125 -0.03125q-0.140625 -0.015625 -0.328125 -0.015625q-0.859375 0 -1.28125 0.53125q-0.40625 0.515625 -0.40625 1.40625l0 2.84375l-1.6875 0l0 -6.203125l1.609375 0l0 1.15625l0.03125 0q0.265625 -0.609375 0.796875 -0.96875q0.546875 -0.359375 1.171875 -0.359375zm1.7480469 -2.390625q0.78125 1.265625 1.1875 2.65625q0.40625 1.390625 0.40625 2.75q0 1.375 -0.421875 2.90625q-0.40625 1.515625 -1.171875 2.640625l-1.421875 0q0.65625 -1.25 0.96875 -2.609375q0.328125 -1.375 0.328125 -2.8125q0 -1.5 -0.328125 -2.875q-0.3125 -1.390625 -0.96875 -2.65625l1.421875 0z" fill-rule="nonzero"/><path fill="#000000" fill-opacity="0.0" d="m193.82022 246.24193l0 0c0 -1.525589 1.2367401 -2.7623138 2.7623138 -2.7623138l95.126724 0c0.7326355 0 1.4352417 0.29103088 1.9532776 0.8090515c0.5180359 0.5180359 0.8090515 1.2206421 0.8090515 1.9532623l0 93.91072c0 1.5255737 -1.2367249 2.7622986 -2.762329 2.7622986l-95.126724 0c-1.5255737 0 -2.7623138 -1.2367249 -2.7623138 -2.7622986z" fill-rule="evenodd"/><path fill="#000000" fill-opacity="0.0" d="m173.61719 29.674154l149.44882 0l0 21.007875l-149.44882 0z" fill-rule="evenodd"/><path fill="#000000" d="m178.33594 34.631653l0 6.984375l4.171875 0l0 1.578125l-6.0625 0l0 -8.5625l1.890625 0zm9.488281 0l3.203125 8.5625l-1.953125 0l-0.640625 -1.90625l-3.203125 0l-0.671875 1.90625l-1.90625 0l3.25 -8.5625l1.921875 0zm-0.984375 2.109375l-1.125 3.140625l2.21875 0l-1.078125 -3.140625l-0.015625 0zm6.814453 -2.109375l3.578125 5.75l0.015625 0l0 -5.75l1.765625 0l0 8.5625l-1.875 0l-3.578125 -5.734375l-0.015625 0l0 5.734375l-1.765625 0l0 -8.5625l1.875 0zm14.197266 -0.203125q1.390625 0 2.421875 0.8125q1.03125 0.796875 1.1875 2.203125l-1.796875 0q-0.1875 -0.71875 -0.671875 -1.078125q-0.46875 -0.359375 -1.140625 -0.359375q-1.125 0 -1.734375 0.8125q-0.59375 0.8125 -0.59375 2.125q0 1.25 0.59375 2.0625q0.609375 0.796875 1.734375 0.796875q0.90625 0 1.421875 -0.453125q0.53125 -0.453125 0.609375 -1.390625l-1.890625 0l0 -1.40625l3.609375 0l0 4.640625l-1.203125 0l-0.203125 -0.96875q-0.453125 0.578125 -1.046875 0.875q-0.578125 0.296875 -1.296875 0.296875q-1.234375 0 -2.203125 -0.5625q-0.96875 -0.5625 -1.5 -1.59375q-0.515625 -1.03125 -0.515625 -2.296875q0 -1.984375 1.15625 -3.25q1.15625 -1.265625 3.0625 -1.265625zm8.089844 2.390625q1.46875 0 2.34375 0.90625q0.875 0.890625 0.875 2.375q0 1.484375 -0.890625 2.375q-0.875 0.890625 -2.328125 0.890625q-1.4375 0 -2.328125 -0.890625q-0.875 -0.90625 -0.875 -2.375q0 -1.46875 0.859375 -2.375q0.875 -0.90625 2.34375 -0.90625zm-1.5 3.28125q0 0.984375 0.40625 1.484375q0.40625 0.5 1.09375 0.5q0.734375 0 1.125 -0.515625q0.390625 -0.53125 0.390625 -1.46875q0 -0.921875 -0.390625 -1.453125q-0.375 -0.546875 -1.125 -0.546875q-0.6875 0 -1.09375 0.5q-0.40625 0.5 -0.40625 1.5zm8.361328 -3.28125q1.265625 0 1.953125 0.5q0.703125 0.5 0.796875 1.484375l-1.625 0q-0.046875 -0.4375 -0.34375 -0.640625q-0.28125 -0.203125 -0.828125 -0.203125q-0.484375 0 -0.71875 0.15625q-0.21875 0.140625 -0.21875 0.421875q0 0.28125 0.296875 0.46875q0.296875 0.1875 1.1875 0.359375q1.421875 0.265625 1.90625 0.703125q0.5 0.4375 0.5 1.140625q0 1.046875 -0.78125 1.609375q-0.765625 0.546875 -2.046875 0.546875q-1.296875 0 -2.078125 -0.546875q-0.78125 -0.546875 -0.84375 -1.640625l1.625 0q0 0.484375 0.375 0.765625q0.375 0.28125 0.9375 0.28125q0.5 0 0.796875 -0.21875q0.3125 -0.21875 0.3125 -0.578125q0 -0.328125 -0.40625 -0.53125q-0.390625 -0.203125 -1.46875 -0.421875q-1.078125 -0.21875 -1.546875 -0.609375q-0.46875 -0.390625 -0.46875 -1.0625q0 -0.984375 0.6875 -1.484375q0.703125 -0.5 2.0 -0.5zm6.4453125 0q1.265625 0 1.953125 0.5q0.703125 0.5 0.796875 1.484375l-1.625 0q-0.046875 -0.4375 -0.34375 -0.640625q-0.28125 -0.203125 -0.828125 -0.203125q-0.484375 0 -0.71875 0.15625q-0.21875 0.140625 -0.21875 0.421875q0 0.28125 0.296875 0.46875q0.296875 0.1875 1.1875 0.359375q1.421875 0.265625 1.90625 0.703125q0.5 0.4375 0.5 1.140625q0 1.046875 -0.78125 1.609375q-0.765625 0.546875 -2.046875 0.546875q-1.296875 0 -2.078125 -0.546875q-0.78125 -0.546875 -0.84375 -1.640625l1.625 0q0 0.484375 0.375 0.765625q0.375 0.28125 0.9375 0.28125q0.5 0 0.796875 -0.21875q0.3125 -0.21875 0.3125 -0.578125q0 -0.328125 -0.40625 -0.53125q-0.390625 -0.203125 -1.46875 -0.421875q-1.078125 -0.21875 -1.546875 -0.609375q-0.46875 -0.390625 -0.46875 -1.0625q0 -0.984375 0.6875 -1.484375q0.703125 -0.5 2.0 -0.5zm5.6640625 -2.1875l0 1.390625l-1.703125 0l0 -1.390625l1.703125 0zm0 2.359375l0 6.203125l-1.703125 0l0 -6.203125l1.703125 0zm4.828125 -0.171875q1.328125 0 2.078125 0.921875q0.75 0.921875 0.75 2.421875q0 1.375 -0.75 2.296875q-0.734375 0.90625 -1.984375 0.90625q-0.5625 0 -1.0625 -0.234375q-0.484375 -0.25 -0.796875 -0.703125l-0.03125 0l0 2.953125l-1.6875 0l0 -8.390625l1.609375 0l0 0.78125l0.03125 0q0.296875 -0.484375 0.765625 -0.71875q0.484375 -0.234375 1.078125 -0.234375zm-1.84375 3.296875q0 0.890625 0.375 1.4375q0.375 0.53125 1.109375 0.53125q0.703125 0 1.078125 -0.515625q0.390625 -0.515625 0.390625 -1.453125q0 -0.890625 -0.375 -1.453125q-0.375 -0.5625 -1.125 -0.5625q-0.703125 0 -1.078125 0.53125q-0.375 0.53125 -0.375 1.484375zm13.1171875 -5.484375q1.34375 0 2.125 0.75q0.78125 0.75 0.78125 2.0q0 1.234375 -0.78125 1.984375q-0.78125 0.75 -2.125 0.75l-2.03125 0l0 3.078125l-1.890625 0l0 -8.5625l3.921875 0zm-0.515625 4.03125q0.8125 0 1.203125 -0.296875q0.390625 -0.3125 0.390625 -0.984375q0 -0.65625 -0.390625 -0.96875q-0.375 -0.328125 -1.203125 -0.328125l-1.515625 0l0 2.578125l1.515625 0zm7.0683594 -1.84375q1.46875 0 2.34375 0.90625q0.875 0.890625 0.875 2.375q0 1.484375 -0.890625 2.375q-0.875 0.890625 -2.328125 0.890625q-1.4375 0 -2.328125 -0.890625q-0.875 -0.90625 -0.875 -2.375q0 -1.46875 0.859375 -2.375q0.875 -0.90625 2.34375 -0.90625zm-1.5 3.28125q0 0.984375 0.40625 1.484375q0.40625 0.5 1.09375 0.5q0.734375 0 1.125 -0.515625q0.390625 -0.53125 0.390625 -1.46875q0 -0.921875 -0.390625 -1.453125q-0.375 -0.546875 -1.125 -0.546875q-0.6875 0 -1.09375 0.5q-0.40625 0.5 -0.40625 1.5zm8.830078 -3.28125q1.46875 0 2.34375 0.90625q0.875 0.890625 0.875 2.375q0 1.484375 -0.890625 2.375q-0.875 0.890625 -2.328125 0.890625q-1.4375 0 -2.328125 -0.890625q-0.875 -0.90625 -0.875 -2.375q0 -1.46875 0.859375 -2.375q0.875 -0.90625 2.34375 -0.90625zm-1.5 3.28125q0 0.984375 0.40625 1.484375q0.40625 0.5 1.09375 0.5q0.734375 0 1.125 -0.515625q0.390625 -0.53125 0.390625 -1.46875q0 -0.921875 -0.390625 -1.453125q-0.375 -0.546875 -1.125 -0.546875q-0.6875 0 -1.09375 0.5q-0.40625 0.5 -0.40625 1.5zm7.580078 -5.46875l0 8.5625l-1.703125 0l0 -8.5625l1.703125 0z" fill-rule="nonzero"/><path fill="#ffffff" d="m540.73987 86.78575l0 0c0 -1.3150177 1.06604 -2.38105 2.3810425 -2.38105l80.94879 0c0.63153076 0 1.2371216 0.25086212 1.6836548 0.6973953c0.4465332 0.4465332 0.6973877 1.0521622 0.6973877 1.6836548l0 85.492966c0 1.3150024 -1.06604 2.3810425 -2.3810425 2.3810425l-80.94879 0c-1.3150024 0 -2.3810425 -1.06604 -2.3810425 -2.3810425z" fill-rule="evenodd"/><path stroke="#e03875" stroke-width="1.0" stroke-miterlimit="400.0" stroke-linecap="butt" d="m540.73987 86.78575l0 0c0 -1.3150177 1.06604 -2.38105 2.3810425 -2.38105l80.94879 0c0.63153076 0 1.2371216 0.25086212 1.6836548 0.6973953c0.4465332 0.4465332 0.6973877 1.0521622 0.6973877 1.6836548l0 85.492966c0 1.3150024 -1.06604 2.3810425 -2.3810425 2.3810425l-80.94879 0c-1.3150024 0 -2.3810425 -1.06604 -2.3810425 -2.3810425z" fill-rule="evenodd"/><path fill="#e03875" d="m604.51184 156.39389l0 0c0 -3.6445618 2.805725 -6.5990753 6.2667847 -6.5990753l0 0c1.6621094 0 3.2560425 0.6952667 4.4313354 1.9328308c1.1752319 1.2375641 1.8355103 2.9160614 1.8355103 4.6662445l0 0c0 3.644577 -2.8057861 6.5990753 -6.2668457 6.5990753l0 0c-3.4610596 0 -6.2667847 -2.9544983 -6.2667847 -6.5990753z" fill-rule="evenodd"/><path fill="#000000" fill-opacity="0.0" d="m533.4807 176.9842l100.65137 0l0 35.22911l-100.65137 0z" fill-rule="evenodd"/><path fill="#000000" d="m550.1609 181.73857q1.453125 0 2.484375 0.828125q1.03125 0.8125 1.203125 2.25l-1.8125 0q-0.125 -0.671875 -0.671875 -1.078125q-0.546875 -0.421875 -1.203125 -0.421875q-1.109375 0 -1.71875 0.8125q-0.609375 0.796875 -0.609375 2.125q0 1.265625 0.59375 2.0625q0.609375 0.796875 1.734375 0.796875q0.8125 0 1.3125 -0.5q0.515625 -0.5 0.625 -1.40625l1.828125 0q-0.15625 1.625 -1.1875 2.5625q-1.015625 0.9375 -2.578125 0.9375q-1.234375 0 -2.203125 -0.5625q-0.96875 -0.5625 -1.5 -1.59375q-0.515625 -1.03125 -0.515625 -2.296875q0 -1.96875 1.15625 -3.234375q1.15625 -1.28125 3.0625 -1.28125zm7.8789062 2.390625q1.46875 0 2.34375 0.90625q0.875 0.890625 0.875 2.375q0 1.484375 -0.890625 2.375q-0.875 0.890625 -2.328125 0.890625q-1.4375 0 -2.328125 -0.890625q-0.875 -0.90625 -0.875 -2.375q0 -1.46875 0.859375 -2.375q0.875 -0.90625 2.34375 -0.90625zm-1.5 3.28125q0 0.984375 0.40625 1.484375q0.40625 0.5 1.09375 0.5q0.734375 0 1.125 -0.515625q0.390625 -0.53125 0.390625 -1.46875q0 -0.921875 -0.390625 -1.453125q-0.375 -0.546875 -1.125 -0.546875q-0.6875 0 -1.09375 0.5q-0.40625 0.5 -0.40625 1.5zm9.376953 -3.28125q1.1875 0 1.71875 0.609375q0.546875 0.59375 0.546875 1.890625l0 3.875l-1.703125 0l0 -3.5625q0 -0.71875 -0.25 -1.09375q-0.25 -0.375 -0.84375 -0.375q-0.703125 0 -1.015625 0.421875q-0.3125 0.421875 -0.3125 1.296875l0 3.3125l-1.6875 0l0 -6.203125l1.609375 0l0 0.859375l0.03125 0q0.3125 -0.5 0.8125 -0.765625q0.5 -0.265625 1.09375 -0.265625zm6.0976562 0q1.265625 0 1.953125 0.5q0.703125 0.5 0.796875 1.484375l-1.625 0q-0.046875 -0.4375 -0.34375 -0.640625q-0.28125 -0.203125 -0.828125 -0.203125q-0.484375 0 -0.71875 0.15625q-0.21875 0.140625 -0.21875 0.421875q0 0.28125 0.296875 0.46875q0.296875 0.1875 1.1875 0.359375q1.421875 0.265625 1.90625 0.703125q0.5 0.4375 0.5 1.140625q0 1.046875 -0.78125 1.609375q-0.765625 0.546875 -2.046875 0.546875q-1.296875 0 -2.078125 -0.546875q-0.78125 -0.546875 -0.84375 -1.640625l1.625 0q0 0.484375 0.375 0.765625q0.375 0.28125 0.9375 0.28125q0.5 0 0.796875 -0.21875q0.3125 -0.21875 0.3125 -0.578125q0 -0.328125 -0.40625 -0.53125q-0.390625 -0.203125 -1.46875 -0.421875q-1.078125 -0.21875 -1.546875 -0.609375q-0.46875 -0.390625 -0.46875 -1.0625q0 -0.984375 0.6875 -1.484375q0.703125 -0.5 2.0 -0.5zm5.6015625 0.171875l0 3.546875q0 0.703125 0.25 1.09375q0.25 0.390625 0.859375 0.390625q0.703125 0 1.0 -0.421875q0.3125 -0.4375 0.3125 -1.296875l0 -3.3125l1.703125 0l0 6.203125l-1.625 0l0 -0.859375l-0.03125 0q-0.328125 0.515625 -0.84375 0.78125q-0.5 0.25 -1.0625 0.25q-1.15625 0 -1.703125 -0.59375q-0.546875 -0.59375 -0.546875 -1.90625l0 -3.875l1.6875 0zm7.1757812 -2.359375l0 8.5625l-1.703125 0l0 -8.5625l1.703125 0zm8.693359 -0.203125q1.453125 0 2.484375 0.828125q1.03125 0.8125 1.203125 2.25l-1.8125 0q-0.125 -0.671875 -0.671875 -1.078125q-0.546875 -0.421875 -1.203125 -0.421875q-1.109375 0 -1.71875 0.8125q-0.609375 0.796875 -0.609375 2.125q0 1.265625 0.59375 2.0625q0.609375 0.796875 1.734375 0.796875q0.8125 0 1.3125 -0.5q0.515625 -0.5 0.625 -1.40625l1.828125 0q-0.15625 1.625 -1.1875 2.5625q-1.015625 0.9375 -2.578125 0.9375q-1.234375 0 -2.203125 -0.5625q-0.96875 -0.5625 -1.5 -1.59375q-0.515625 -1.03125 -0.515625 -2.296875q0 -1.96875 1.15625 -3.234375q1.15625 -1.28125 3.0625 -1.28125zm6.6289062 0.203125l0 8.5625l-1.703125 0l0 -8.5625l1.703125 0zm3.09375 0l0 1.390625l-1.703125 0l0 -1.390625l1.703125 0zm0 2.359375l0 6.203125l-1.703125 0l0 -6.203125l1.703125 0zm4.203125 -0.171875q1.375 0 2.203125 0.953125q0.828125 0.9375 0.828125 2.421875l-0.015625 0.3125l-4.484375 0q0.046875 0.796875 0.421875 1.1875q0.390625 0.390625 1.09375 0.390625q0.46875 0 0.859375 -0.234375q0.390625 -0.25 0.5 -0.578125l1.5 0q-0.34375 1.046875 -1.0625 1.578125q-0.71875 0.515625 -1.84375 0.515625q-1.4375 0 -2.3125 -0.90625q-0.859375 -0.90625 -0.859375 -2.359375q0 -1.390625 0.890625 -2.328125q0.890625 -0.953125 2.28125 -0.953125zm-1.46875 2.609375l2.78125 0q-0.125 -0.6875 -0.453125 -1.0q-0.3125 -0.328125 -0.921875 -0.328125q-0.609375 0 -0.984375 0.359375q-0.359375 0.34375 -0.421875 0.96875zm9.046875 -2.609375q1.1875 0 1.71875 0.609375q0.546875 0.59375 0.546875 1.890625l0 3.875l-1.703125 0l0 -3.5625q0 -0.71875 -0.25 -1.09375q-0.25 -0.375 -0.84375 -0.375q-0.703125 0 -1.015625 0.421875q-0.3125 0.421875 -0.3125 1.296875l0 3.3125l-1.6875 0l0 -6.203125l1.609375 0l0 0.859375l0.03125 0q0.3125 -0.5 0.8125 -0.765625q0.5 -0.265625 1.09375 -0.265625zm5.7226562 -1.6875l0 1.859375l1.25 0l0 1.140625l-1.25 0l0 3.109375q0 0.375 0.140625 0.53125q0.140625 0.15625 0.578125 0.15625q0.140625 0 0.265625 -0.015625q0.140625 -0.015625 0.265625 -0.03125l0 1.328125q-0.21875 0.03125 -0.484375 0.046875q-0.25 0.015625 -0.5 0.015625q-1.109375 0 -1.546875 -0.375q-0.421875 -0.390625 -0.421875 -1.0625l0 -3.703125l-1.03125 0l0 -1.140625l1.03125 0l0 -1.859375l1.703125 0z" fill-rule="nonzero"/><path fill="#000000" fill-opacity="0.0" d="m583.81866 373.63058l81.763794 -80.28348" fill-rule="evenodd"/><path stroke="#e03875" stroke-width="2.0" stroke-linejoin="round" stroke-linecap="round" stroke-dasharray="6.0,8.0" d="m590.24054 367.325l68.920105 -67.67233" fill-rule="evenodd"/><path fill="#e03875" stroke="#e03875" stroke-width="2.0" stroke-linecap="butt" d="m588.69104 365.74698l-2.7861328 5.8351135l5.885071 -2.6790466z" fill-rule="evenodd"/><path fill="#e03875" stroke="#e03875" stroke-width="2.0" stroke-linecap="butt" d="m660.7101 301.2307l2.7861328 -5.835144l-5.88501 2.6790771z" fill-rule="evenodd"/><path fill="#000000" fill-opacity="0.0" d="m583.81866 373.63058l-213.07083 0.12597656" fill-rule="evenodd"/><path stroke="#e03875" stroke-width="2.0" stroke-linejoin="round" stroke-linecap="round" stroke-dasharray="6.0,8.0" d="m574.81866 373.6359l-195.07083 0.11532593" fill-rule="evenodd"/><path fill="#e03875" stroke="#e03875" stroke-width="2.0" stroke-linecap="butt" d="m574.82 375.84744l6.07489 -2.215149l-6.0775146 -2.2079468z" fill-rule="evenodd"/><path fill="#e03875" stroke="#e03875" stroke-width="2.0" stroke-linecap="butt" d="m379.74652 371.53967l-6.07489 2.215149l6.0775146 2.2079773z" fill-rule="evenodd"/><path fill="#000000" fill-opacity="0.0" d="m294.4716 293.1973l371.08664 0.1574707" fill-rule="evenodd"/><path stroke="#e03875" stroke-width="2.0" stroke-linejoin="round" stroke-linecap="round" stroke-dasharray="6.0,8.0" d="m303.4716 293.20108l353.08658 0.14987183" fill-rule="evenodd"/><path fill="#e03875" stroke="#e03875" stroke-width="2.0" stroke-linecap="butt" d="m303.4725 290.98953l-6.077118 2.2089844l6.0752563 2.2141418z" fill-rule="evenodd"/><path fill="#e03875" stroke="#e03875" stroke-width="2.0" stroke-linecap="butt" d="m656.55725 295.5625l6.0771484 -2.2089844l-6.0752563 -2.2141418z" fill-rule="evenodd"/><path fill="#000000" fill-opacity="0.0" d="m372.4888 212.2658l211.3071 -0.06300354" fill-rule="evenodd"/><path stroke="#e03875" stroke-width="2.0" stroke-linejoin="round" stroke-linecap="round" stroke-dasharray="6.0,8.0" d="m381.4888 212.2631l193.3071 -0.057617188" fill-rule="evenodd"/><path fill="#e03875" stroke="#e03875" stroke-width="2.0" stroke-linecap="butt" d="m381.48816 210.05156l-6.0755615 2.2133636l6.076874 2.209732z" fill-rule="evenodd"/><path fill="#e03875" stroke="#e03875" stroke-width="2.0" stroke-linecap="butt" d="m574.7966 214.41704l6.0755005 -2.2133636l-6.0768433 -2.2097473z" fill-rule="evenodd"/><path fill="#000000" fill-opacity="0.0" d="m583.81866 373.63058l0 -161.41734" fill-rule="evenodd"/><path stroke="#e03875" stroke-width="2.0" stroke-linejoin="round" stroke-linecap="round" stroke-dasharray="6.0,8.0" d="m583.81866 364.63058l0 -143.41733" fill-rule="evenodd"/><path fill="#e03875" stroke="#e03875" stroke-width="2.0" stroke-linecap="butt" d="m581.6071 364.63058l2.2115479 6.0762024l2.211609 -6.0762024z" fill-rule="evenodd"/><path fill="#e03875" stroke="#e03875" stroke-width="2.0" stroke-linecap="butt" d="m586.0303 221.21326l-2.211609 -6.0762024l-2.2115479 6.0762024z" fill-rule="evenodd"/><path fill="#000000" fill-opacity="0.0" d="m583.8064 212.21332l81.763794 81.13385" fill-rule="evenodd"/><path stroke="#e03875" stroke-width="2.0" stroke-linejoin="round" stroke-linecap="round" stroke-dasharray="6.0,8.0" d="m590.19495 218.55261l68.986755 68.45526" fill-rule="evenodd"/><path fill="#e03875" stroke="#e03875" stroke-width="2.0" stroke-linecap="butt" d="m591.7527 216.98277l-5.8708496 -2.710022l2.755371 5.849716z" fill-rule="evenodd"/><path fill="#e03875" stroke="#e03875" stroke-width="2.0" stroke-linecap="butt" d="m657.62396 288.5777l5.8708496 2.7100525l-2.755371 -5.8497314z" fill-rule="evenodd"/><path fill="#000000" fill-opacity="0.0" d="m294.4716 293.1973l289.35434 80.44092" fill-rule="evenodd"/><path stroke="#e03875" stroke-width="2.0" stroke-linejoin="round" stroke-linecap="round" stroke-dasharray="6.0,8.0" d="m303.14273 295.60788l272.012 75.61978" fill-rule="evenodd"/><path fill="#e03875" stroke="#e03875" stroke-width="2.0" stroke-linecap="butt" d="m303.73508 293.47714l-6.446533 0.5032654l5.261841 3.7582092z" fill-rule="evenodd"/><path fill="#e03875" stroke="#e03875" stroke-width="2.0" stroke-linecap="butt" d="m574.5624 373.3584l6.446533 -0.5032654l-5.26178 -3.7582397z" fill-rule="evenodd"/><path fill="#000000" fill-opacity="0.0" d="m372.4888 212.2658l211.3386 161.35432" fill-rule="evenodd"/><path stroke="#e03875" stroke-width="2.0" stroke-linejoin="round" stroke-linecap="round" stroke-dasharray="6.0,8.0" d="m379.6422 217.72734l197.03174 150.43126" fill-rule="evenodd"/><path fill="#e03875" stroke="#e03875" stroke-width="2.0" stroke-linecap="butt" d="m380.98428 215.96954l-6.17157 -1.9294739l3.4874573 5.4450684z" fill-rule="evenodd"/><path fill="#e03875" stroke="#e03875" stroke-width="2.0" stroke-linecap="butt" d="m575.3319 369.91638l6.17157 1.9294739l-3.4874878 -5.4450684z" fill-rule="evenodd"/><path fill="#000000" fill-opacity="0.0" d="m372.4888 212.2658l293.07083 81.07085" fill-rule="evenodd"/><path stroke="#e03875" stroke-width="2.0" stroke-linejoin="round" stroke-linecap="round" stroke-dasharray="6.0,8.0" d="m381.16306 214.6653l275.72238 76.271866" fill-rule="evenodd"/><path fill="#e03875" stroke="#e03875" stroke-width="2.0" stroke-linecap="butt" d="m381.75266 212.5338l-6.4458923 0.5115204l5.266632 3.7514954z" fill-rule="evenodd"/><path fill="#e03875" stroke="#e03875" stroke-width="2.0" stroke-linecap="butt" d="m656.29584 293.06863l6.445862 -0.5115051l-5.2666626 -3.7514954z" fill-rule="evenodd"/><path fill="#000000" fill-opacity="0.0" d="m370.75308 373.7638l294.80313 -80.409424" fill-rule="evenodd"/><path stroke="#e03875" stroke-width="2.0" stroke-linejoin="round" stroke-linecap="round" stroke-dasharray="6.0,8.0" d="m379.4359 371.39554l277.4375 -75.67288" fill-rule="evenodd"/><path fill="#e03875" stroke="#e03875" stroke-width="2.0" stroke-linecap="butt" d="m378.85394 369.2619l-5.280121 3.732544l6.444031 0.5346985z" fill-rule="evenodd"/><path fill="#e03875" stroke="#e03875" stroke-width="2.0" stroke-linecap="butt" d="m657.4554 297.85626l5.2800903 -3.732544l-6.444031 -0.5346985z" fill-rule="evenodd"/><path fill="#000000" fill-opacity="0.0" d="m370.75308 373.7638l-76.28348 -80.566925" fill-rule="evenodd"/><path stroke="#e03875" stroke-width="2.0" stroke-linejoin="round" stroke-linecap="round" stroke-dasharray="6.0,8.0" d="m364.56522 367.22852l-63.907745 -67.49634" fill-rule="evenodd"/><path fill="#e03875" stroke="#e03875" stroke-width="2.0" stroke-linecap="butt" d="m362.9593 368.74902l5.7835693 2.891693l-2.5717163 -5.9327393z" fill-rule="evenodd"/><path fill="#e03875" stroke="#e03875" stroke-width="2.0" stroke-linecap="butt" d="m302.2634 298.21167l-5.783539 -2.891693l2.5716858 5.9327393z" fill-rule="evenodd"/><path fill="#000000" fill-opacity="0.0" d="m372.4888 212.2658l-78.01575 80.94487" fill-rule="evenodd"/><path stroke="#e03875" stroke-width="2.0" stroke-linejoin="round" stroke-linecap="round" stroke-dasharray="6.0,8.0" d="m366.24316 218.74593l-65.524506 67.984604" fill-rule="evenodd"/><path fill="#e03875" stroke="#e03875" stroke-width="2.0" stroke-linecap="butt" d="m367.8355 220.28064l2.624298 -5.909668l-5.8089905 2.84021z" fill-rule="evenodd"/><path fill="#e03875" stroke="#e03875" stroke-width="2.0" stroke-linecap="butt" d="m299.1263 285.1958l-2.6242676 5.9096985l5.8089905 -2.8402405z" fill-rule="evenodd"/><path fill="#000000" fill-opacity="0.0" d="m320.4274 376.52612l0 0c0 -1.5255737 1.2367249 -2.762329 2.762329 -2.762329l95.12671 0c0.7326355 0 1.4352112 0.29104614 1.9532471 0.80908203c0.5180359 0.5180359 0.80908203 1.2206421 0.80908203 1.9532471l0 93.910706c0 1.5256042 -1.2367249 2.762329 -2.762329 2.762329l-95.12671 0c-1.5256042 0 -2.762329 -1.2367249 -2.762329 -2.762329z" fill-rule="evenodd"/><path fill="#dc477d" d="m327.89835 386.73465l0 0c0 -1.315033 1.06604 -2.381073 2.381073 -2.381073l80.949615 0c0.63150024 0 1.2371216 0.2508545 1.6836548 0.6973877c0.4465332 0.4465332 0.6974182 1.052185 0.6974182 1.6836853l0 80.949585c0 1.315033 -1.06604 2.381073 -2.381073 2.381073l-80.949615 0c-1.315033 0 -2.381073 -1.06604 -2.381073 -2.381073z" fill-rule="evenodd"/><path fill="#ffffff" d="m370.92188 451.16077c-13.203186 0.010955811 -23.915253 -10.717377 -23.926025 -23.962036c-0.010772705 -13.24472 10.683838 -23.990356 23.886993 -24.00119c6.0060425 -0.0048828125 11.793854 2.2581482 16.212372 6.339081l0 0l-5.67334 5.9537964l0 0c-6.437683 -5.8357544 -16.372467 -5.3313293 -22.189941 1.1266174c-5.817444 6.4578857 -5.3146667 16.42392 1.1230774 22.259644c5.9819946 5.4226685 15.084839 5.4226685 21.066864 0l0 0l5.67334 5.9537964l0 0c-4.405548 4.0757446 -10.18042 6.3359985 -16.17334 6.3302917z" fill-rule="evenodd"/><path fill="#ffffff" d="m390.15884 439.1656c-1.0821838 0 -1.9594727 -0.8800049 -1.9594727 -1.9656067c0 -1.0856323 0.8772888 -1.9656372 1.9594727 -1.9656372c1.0823059 0 1.9594727 0.8800049 1.9594727 1.9656372c-0.0026245117 1.0845947 -0.878479 1.9632263 -1.9594727 1.9656067z" fill-rule="evenodd"/><path fill="#ffffff" d="m370.76913 432.37564c-2.8585205 0 -5.175812 -2.324585 -5.175812 -5.1920776c0 -2.8674927 2.3172913 -5.1920776 5.175812 -5.1920776c2.858551 0 5.175812 2.324585 5.175812 5.1920776c-0.0024108887 2.8664856 -2.3182678 5.189636 -5.175812 5.1920776z" fill-rule="evenodd"/><path fill="#ffffff" d="m392.402 432.45004c-1.0823059 0 -1.9594727 -0.8800049 -1.9594727 -1.9656067c0 -1.0856323 0.87716675 -1.9656372 1.9594727 -1.9656372c1.0822754 0 1.9594727 0.8800049 1.9594727 1.9656372c-0.0026245117 1.0845947 -0.878479 1.9632263 -1.9594727 1.9656067z" fill-rule="evenodd"/><path fill="#ffffff" d="m386.58026 432.2268c-1.0822144 0 -1.9595032 -0.8800354 -1.9595032 -1.9656067c0 -1.0856628 0.8772888 -1.9656677 1.9595032 -1.9656677c1.0821838 0 1.9594727 0.8800049 1.9594727 1.9656677c0 1.0855713 -0.8772888 1.9656067 -1.9594727 1.9656067z" fill-rule="evenodd"/><path fill="#ffffff" d="m392.402 425.84393c-1.0823059 0 -1.9594727 -0.8800049 -1.9594727 -1.9656067c0 -1.0856323 0.87716675 -1.9656677 1.9594727 -1.9656677c1.0822754 0 1.9594727 0.8800354 1.9594727 1.9656677c-0.0026245117 1.0845947 -0.878479 1.9632263 -1.9594727 1.9656067z" fill-rule="evenodd"/><path fill="#ffffff" d="m386.58026 426.06723c-1.0822144 0 -1.9595032 -0.8800659 -1.9595032 -1.9656067c0 -1.0856323 0.87734985 -1.9656677 1.9595032 -1.9656677c1.0821838 0 1.9594727 0.8800659 1.9594727 1.9656677c0 0.0014343262 0 0.0029296875 0 0.0043640137c-0.0024108887 1.0839233 -0.8789673 1.9612427 -1.9594727 1.9612427z" fill-rule="evenodd"/><path fill="#ffffff" d="m390.27228 419.23346c-1.0821533 0.0024414062 -1.9614563 -0.87564087 -1.9638367 -1.9612427c-0.002380371 -1.0855408 0.8729248 -1.9676208 1.9551086 -1.9700012c1.0823059 -0.0024108887 1.9612122 0.8757019 1.9638367 1.9612427c0 0.0014343262 0 0.002960205 0 0.0043945312c0 1.0838928 -0.87454224 1.9632263 -1.9551086 1.9656067z" fill-rule="evenodd"/><path fill="#000000" fill-opacity="0.0" d="m320.42874 471.78116l100.65134 0l0 39.57263l-100.65134 0z" fill-rule="evenodd"/><path fill="#000000" d="m335.11673 476.53552q1.453125 0 2.484375 0.828125q1.03125 0.8125 1.203125 2.25l-1.8125 0q-0.125 -0.671875 -0.671875 -1.078125q-0.546875 -0.421875 -1.203125 -0.421875q-1.109375 0 -1.71875 0.8125q-0.609375 0.796875 -0.609375 2.125q0 1.265625 0.59375 2.0625q0.609375 0.796875 1.734375 0.796875q0.8125 0 1.3125 -0.5q0.515625 -0.5 0.625 -1.40625l1.828125 0q-0.15625 1.625 -1.1875 2.5625q-1.015625 0.9375 -2.578125 0.9375q-1.234375 0 -2.203125 -0.5625q-0.96875 -0.5625 -1.5 -1.59375q-0.515625 -1.03125 -0.515625 -2.296875q0 -1.96875 1.15625 -3.234375q1.15625 -1.28125 3.0625 -1.28125zm7.8789062 2.390625q1.46875 0 2.34375 0.90625q0.875 0.890625 0.875 2.375q0 1.484375 -0.890625 2.375q-0.875 0.890625 -2.328125 0.890625q-1.4375 0 -2.328125 -0.890625q-0.875 -0.90625 -0.875 -2.375q0 -1.46875 0.859375 -2.375q0.875 -0.90625 2.34375 -0.90625zm-1.5 3.28125q0 0.984375 0.40625 1.484375q0.40625 0.5 1.09375 0.5q0.734375 0 1.125 -0.515625q0.390625 -0.53125 0.390625 -1.46875q0 -0.921875 -0.390625 -1.453125q-0.375 -0.546875 -1.125 -0.546875q-0.6875 0 -1.09375 0.5q-0.40625 0.5 -0.40625 1.5zm9.376953 -3.28125q1.1875 0 1.71875 0.609375q0.546875 0.59375 0.546875 1.890625l0 3.875l-1.703125 0l0 -3.5625q0 -0.71875 -0.25 -1.09375q-0.25 -0.375 -0.84375 -0.375q-0.703125 0 -1.015625 0.421875q-0.3125 0.421875 -0.3125 1.296875l0 3.3125l-1.6875 0l0 -6.203125l1.609375 0l0 0.859375l0.03125 0q0.3125 -0.5 0.8125 -0.765625q0.5 -0.265625 1.09375 -0.265625zm6.0976562 0q1.265625 0 1.953125 0.5q0.703125 0.5 0.796875 1.484375l-1.625 0q-0.046875 -0.4375 -0.34375 -0.640625q-0.28125 -0.203125 -0.828125 -0.203125q-0.484375 0 -0.71875 0.15625q-0.21875 0.140625 -0.21875 0.421875q0 0.28125 0.296875 0.46875q0.296875 0.1875 1.1875 0.359375q1.421875 0.265625 1.90625 0.703125q0.5 0.4375 0.5 1.140625q0 1.046875 -0.78125 1.609375q-0.765625 0.546875 -2.046875 0.546875q-1.296875 0 -2.078125 -0.546875q-0.78125 -0.546875 -0.84375 -1.640625l1.625 0q0 0.484375 0.375 0.765625q0.375 0.28125 0.9375 0.28125q0.5 0 0.796875 -0.21875q0.3125 -0.21875 0.3125 -0.578125q0 -0.328125 -0.40625 -0.53125q-0.390625 -0.203125 -1.46875 -0.421875q-1.078125 -0.21875 -1.546875 -0.609375q-0.46875 -0.390625 -0.46875 -1.0625q0 -0.984375 0.6875 -1.484375q0.703125 -0.5 2.0 -0.5zm5.6015625 0.171875l0 3.546875q0 0.703125 0.25 1.09375q0.25 0.390625 0.859375 0.390625q0.703125 0 1.0 -0.421875q0.3125 -0.4375 0.3125 -1.296875l0 -3.3125l1.703125 0l0 6.203125l-1.625 0l0 -0.859375l-0.03125 0q-0.328125 0.515625 -0.84375 0.78125q-0.5 0.25 -1.0625 0.25q-1.15625 0 -1.703125 -0.59375q-0.546875 -0.59375 -0.546875 -1.90625l0 -3.875l1.6875 0zm7.1757812 -2.359375l0 8.5625l-1.703125 0l0 -8.5625l1.703125 0zm7.8027344 -0.203125q1.546875 0 2.484375 0.71875q0.9375 0.71875 0.9375 2.03125l-1.8125 0q-0.046875 -0.640625 -0.453125 -0.96875q-0.390625 -0.328125 -1.234375 -0.328125q-0.578125 0 -0.953125 0.265625q-0.359375 0.25 -0.359375 0.71875q0 0.3125 0.15625 0.46875q0.15625 0.15625 0.625 0.34375q0.46875 0.171875 2.0625 0.546875q1.0625 0.25 1.65625 0.875q0.609375 0.609375 0.609375 1.546875q0 1.25 -0.9375 2.0q-0.9375 0.75 -2.625 0.75q-1.609375 0 -2.640625 -0.796875q-1.015625 -0.796875 -1.015625 -2.203125l0 -0.046875l1.828125 0q0 0.796875 0.515625 1.1875q0.53125 0.390625 1.375 0.390625q0.765625 0 1.21875 -0.265625q0.453125 -0.28125 0.453125 -0.796875q0 -0.421875 -0.359375 -0.6875q-0.34375 -0.265625 -1.109375 -0.453125q-0.984375 -0.21875 -1.78125 -0.46875q-0.796875 -0.25 -1.328125 -0.8125q-0.53125 -0.5625 -0.53125 -1.4375q0 -1.15625 0.921875 -1.859375q0.9375 -0.71875 2.296875 -0.71875zm7.5214844 2.390625q1.375 0 2.203125 0.953125q0.828125 0.9375 0.828125 2.421875l-0.015625 0.3125l-4.484375 0q0.046875 0.796875 0.421875 1.1875q0.390625 0.390625 1.09375 0.390625q0.46875 0 0.859375 -0.234375q0.390625 -0.25 0.5 -0.578125l1.5 0q-0.34375 1.046875 -1.0625 1.578125q-0.71875 0.515625 -1.84375 0.515625q-1.4375 0 -2.3125 -0.90625q-0.859375 -0.90625 -0.859375 -2.359375q0 -1.390625 0.890625 -2.328125q0.890625 -0.953125 2.28125 -0.953125zm-1.46875 2.609375l2.78125 0q-0.125 -0.6875 -0.453125 -1.0q-0.3125 -0.328125 -0.921875 -0.328125q-0.609375 0 -0.984375 0.359375q-0.359375 0.34375 -0.421875 0.96875zm9.109375 -2.609375q0.109375 0 0.203125 0.015625q0.09375 0.015625 0.171875 0.046875l0 1.578125q-0.140625 -0.03125 -0.28125 -0.03125q-0.140625 -0.015625 -0.328125 -0.015625q-0.859375 0 -1.28125 0.53125q-0.40625 0.515625 -0.40625 1.40625l0 2.84375l-1.6875 0l0 -6.203125l1.609375 0l0 1.15625l0.03125 0q0.265625 -0.609375 0.796875 -0.96875q0.546875 -0.359375 1.171875 -0.359375zm2.3945312 0.171875l1.3125 4.234375l0.03125 0l1.296875 -4.234375l1.703125 0l-2.109375 6.203125l-1.890625 0l-2.125 -6.203125l1.78125 0zm7.9121094 -0.171875q1.375 0 2.203125 0.953125q0.828125 0.9375 0.828125 2.421875l-0.015625 0.3125l-4.484375 0q0.046875 0.796875 0.421875 1.1875q0.390625 0.390625 1.09375 0.390625q0.46875 0 0.859375 -0.234375q0.390625 -0.25 0.5 -0.578125l1.5 0q-0.34375 1.046875 -1.0625 1.578125q-0.71875 0.515625 -1.84375 0.515625q-1.4375 0 -2.3125 -0.90625q-0.859375 -0.90625 -0.859375 -2.359375q0 -1.390625 0.890625 -2.328125q0.890625 -0.953125 2.28125 -0.953125zm-1.46875 2.609375l2.78125 0q-0.125 -0.6875 -0.453125 -1.0q-0.3125 -0.328125 -0.921875 -0.328125q-0.609375 0 -0.984375 0.359375q-0.359375 0.34375 -0.421875 0.96875zm9.109375 -2.609375q0.109375 0 0.203125 0.015625q0.09375 0.015625 0.171875 0.046875l0 1.578125q-0.140625 -0.03125 -0.28125 -0.03125q-0.140625 -0.015625 -0.328125 -0.015625q-0.859375 0 -1.28125 0.53125q-0.40625 0.515625 -0.40625 1.40625l0 2.84375l-1.6875 0l0 -6.203125l1.609375 0l0 1.15625l0.03125 0q0.265625 -0.609375 0.796875 -0.96875q0.546875 -0.359375 1.171875 -0.359375z" fill-rule="nonzero"/><path fill="#000000" d="m346.4517 490.53552q-0.640625 1.1875 -0.984375 2.578125q-0.328125 1.390625 -0.328125 2.859375q0 1.46875 0.3125 2.84375q0.3125 1.359375 0.984375 2.671875l-1.421875 0q-0.765625 -1.28125 -1.171875 -2.671875q-0.40625 -1.390625 -0.40625 -2.734375q0 -1.390625 0.40625 -2.90625q0.40625 -1.515625 1.171875 -2.640625l1.4375 0zm6.7539062 0.203125l0 1.578125l-4.125 0l0 1.984375l3.578125 0l0 1.453125l-3.578125 0l0 3.546875l-1.890625 0l0 -8.5625l6.015625 0zm3.421875 2.1875q1.46875 0 2.34375 0.90625q0.875 0.890625 0.875 2.375q0 1.484375 -0.890625 2.375q-0.875 0.890625 -2.328125 0.890625q-1.4375 0 -2.328125 -0.890625q-0.875 -0.90625 -0.875 -2.375q0 -1.46875 0.859375 -2.375q0.875 -0.90625 2.34375 -0.90625zm-1.5 3.28125q0 0.984375 0.40625 1.484375q0.40625 0.5 1.09375 0.5q0.734375 0 1.125 -0.515625q0.390625 -0.53125 0.390625 -1.46875q0 -0.921875 -0.390625 -1.453125q-0.375 -0.546875 -1.125 -0.546875q-0.6875 0 -1.09375 0.5q-0.40625 0.5 -0.40625 1.5zm7.580078 -5.46875l0 8.5625l-1.703125 0l0 -8.5625l1.703125 0zm3.09375 0l0 8.5625l-1.703125 0l0 -8.5625l1.703125 0zm4.34375 2.1875q1.46875 0 2.34375 0.90625q0.875 0.890625 0.875 2.375q0 1.484375 -0.890625 2.375q-0.875 0.890625 -2.328125 0.890625q-1.4375 0 -2.328125 -0.890625q-0.875 -0.90625 -0.875 -2.375q0 -1.46875 0.859375 -2.375q0.875 -0.90625 2.34375 -0.90625zm-1.5 3.28125q0 0.984375 0.40625 1.484375q0.40625 0.5 1.09375 0.5q0.734375 0 1.125 -0.515625q0.390625 -0.53125 0.390625 -1.46875q0 -0.921875 -0.390625 -1.453125q-0.375 -0.546875 -1.125 -0.546875q-0.6875 0 -1.09375 0.5q-0.40625 0.5 -0.40625 1.5zm7.048828 -3.109375l1.140625 4.203125l0.015625 0l1.03125 -4.203125l1.65625 0l1.0625 4.203125l0.015625 0l1.15625 -4.203125l1.75 0l-1.96875 6.203125l-1.75 0l-1.09375 -4.171875l-0.03125 0l-1.0625 4.171875l-1.75 0l-1.96875 -6.203125l1.796875 0zm11.408203 -0.171875q1.375 0 2.203125 0.953125q0.828125 0.9375 0.828125 2.421875l-0.015625 0.3125l-4.484375 0q0.046875 0.796875 0.421875 1.1875q0.390625 0.390625 1.09375 0.390625q0.46875 0 0.859375 -0.234375q0.390625 -0.25 0.5 -0.578125l1.5 0q-0.34375 1.046875 -1.0625 1.578125q-0.71875 0.515625 -1.84375 0.515625q-1.4375 0 -2.3125 -0.90625q-0.859375 -0.90625 -0.859375 -2.359375q0 -1.390625 0.890625 -2.328125q0.890625 -0.953125 2.28125 -0.953125zm-1.46875 2.609375l2.78125 0q-0.125 -0.6875 -0.453125 -1.0q-0.3125 -0.328125 -0.921875 -0.328125q-0.609375 0 -0.984375 0.359375q-0.359375 0.34375 -0.421875 0.96875zm9.109375 -2.609375q0.109375 0 0.203125 0.015625q0.09375 0.015625 0.171875 0.046875l0 1.578125q-0.140625 -0.03125 -0.28125 -0.03125q-0.140625 -0.015625 -0.328125 -0.015625q-0.859375 0 -1.28125 0.53125q-0.40625 0.515625 -0.40625 1.40625l0 2.84375l-1.6875 0l0 -6.203125l1.609375 0l0 1.15625l0.03125 0q0.265625 -0.609375 0.796875 -0.96875q0.546875 -0.359375 1.171875 -0.359375zm1.7480469 -2.390625q0.78125 1.265625 1.1875 2.65625q0.40625 1.390625 0.40625 2.75q0 1.375 -0.421875 2.90625q-0.40625 1.515625 -1.171875 2.640625l-1.421875 0q0.65625 -1.25 0.96875 -2.609375q0.328125 -1.375 0.328125 -2.8125q0 -1.5 -0.328125 -2.875q-0.3125 -1.390625 -0.96875 -2.65625l1.421875 0z" fill-rule="nonzero"/><path fill="#000000" fill-opacity="0.0" d="m370.75308 373.7638l213.0394 -161.54329" fill-rule="evenodd"/><path stroke="#e03875" stroke-width="2.0" stroke-linejoin="round" stroke-linecap="round" stroke-dasharray="6.0,8.0" d="m377.92447 368.3259l198.69656 -150.66748" fill-rule="evenodd"/><path fill="#e03875" stroke="#e03875" stroke-width="2.0" stroke-linecap="butt" d="m376.58823 366.5637l-3.5054016 5.4335327l6.1779175 -1.9091187z" fill-rule="evenodd"/><path fill="#e03875" stroke="#e03875" stroke-width="2.0" stroke-linecap="butt" d="m577.9573 219.42064l3.5054321 -5.433548l-6.1779175 1.9091034z" fill-rule="evenodd"/><path fill="#000000" fill-opacity="0.0" d="m322.16312 115.59276l0 0c0 -1.5255814 1.2367249 -2.7623138 2.7622986 -2.7623138l95.12674 0c0.732605 0 1.4352112 0.29103088 1.9532471 0.80905914c0.5180359 0.5180359 0.80908203 1.2206421 0.80908203 1.9532547l0 93.91072c0 1.5255737 -1.2367554 2.7623138 -2.762329 2.7623138l-95.12674 0c-1.5255737 0 -2.7622986 -1.2367401 -2.7622986 -2.7623138z" fill-rule="evenodd"/><path fill="#dc477d" d="m326.15985 86.827736l0 0c0 -1.315033 1.06604 -2.381073 2.381073 -2.381073l80.949585 0c0.63150024 0 1.2371521 0.25086212 1.6836853 0.69740295c0.4465332 0.4465332 0.6973877 1.0521698 0.6973877 1.68367l0 80.94959c0 1.315033 -1.06604 2.381073 -2.381073 2.381073l-80.949585 0c-1.315033 0 -2.381073 -1.06604 -2.381073 -2.381073z" fill-rule="evenodd"/><path fill="#ffffff" d="m369.18338 151.25388c-13.203186 0.010955811 -23.915253 -10.717392 -23.926025 -23.962036c-0.010772705 -13.244736 10.683807 -23.990372 23.886993 -24.00119c6.0060425 -0.0048828125 11.793854 2.258133 16.212341 6.339058l0 0l-5.67334 5.9537964l0 0c-6.437683 -5.8357315 -16.372437 -5.3313065 -22.189941 1.1266251c-5.817444 6.4578857 -5.314636 16.423904 1.1231079 22.259644c5.9819946 5.422653 15.084839 5.422653 21.066833 0l0 0l5.67334 5.9537964l0 0c-4.4055176 4.07576 -10.180389 6.3359985 -16.17331 6.330307z" fill-rule="evenodd"/><path fill="#ffffff" d="m388.42035 139.2587c-1.0821838 0 -1.9594727 -0.88002014 -1.9594727 -1.9656067c0 -1.0856476 0.8772888 -1.9656525 1.9594727 -1.9656525c1.0822754 0 1.9594727 0.8800049 1.9594727 1.9656525c-0.0026245117 1.0845947 -0.878479 1.963211 -1.9594727 1.9656067z" fill-rule="evenodd"/><path fill="#ffffff" d="m369.0306 132.46875c-2.85849 0 -5.175812 -2.324585 -5.175812 -5.192093c0 -2.8675003 2.3173218 -5.1920853 5.175812 -5.1920853c2.858551 0 5.175812 2.324585 5.175812 5.1920853c-0.002380371 2.8665009 -2.3182678 5.1896515 -5.175812 5.192093z" fill-rule="evenodd"/><path fill="#ffffff" d="m390.6635 132.54315c-1.0823059 0 -1.9595032 -0.88002014 -1.9595032 -1.9656067c0 -1.0856476 0.87719727 -1.9656525 1.9595032 -1.9656525c1.0822754 0 1.9594727 0.8800049 1.9594727 1.9656525c-0.0026245117 1.0845947 -0.878479 1.963211 -1.9594727 1.9656067z" fill-rule="evenodd"/><path fill="#ffffff" d="m384.84174 132.31989c-1.0821838 0 -1.9594727 -0.8800049 -1.9594727 -1.9656067c0 -1.0856323 0.8772888 -1.9656525 1.9594727 -1.9656525c1.0822144 0 1.9595032 0.88002014 1.9595032 1.9656525c0 1.0856018 -0.8772888 1.9656067 -1.9595032 1.9656067z" fill-rule="evenodd"/><path fill="#ffffff" d="m390.6635 125.93703c-1.0823059 0 -1.9595032 -0.8800125 -1.9595032 -1.9656067c0 -1.08564 0.87719727 -1.9656525 1.9595032 -1.9656525c1.0822754 0 1.9594727 0.8800125 1.9594727 1.9656525c-0.0026245117 1.0845871 -0.878479 1.9632187 -1.9594727 1.9656067z" fill-rule="evenodd"/><path fill="#ffffff" d="m384.84174 126.160324c-1.0821838 0 -1.9594727 -0.8800583 -1.9594727 -1.9656067c0 -1.08564 0.87734985 -1.9656525 1.9594727 -1.9656525c1.0822144 0 1.9595032 0.8800583 1.9595032 1.9656525c0 0.0014419556 0 0.002922058 0 0.0043563843c-0.0024108887 1.0839233 -0.8789673 1.9612503 -1.9595032 1.9612503z" fill-rule="evenodd"/><path fill="#ffffff" d="m388.53378 119.32657c-1.0821533 0.0024414062 -1.9614563 -0.8756561 -1.9638367 -1.9612503c-0.0024108887 -1.0855484 0.8729248 -1.9676208 1.9551086 -1.9700165c1.0823059 -0.0023880005 1.9612122 0.87570953 1.9638367 1.9612503c0 0.0014419556 0 0.0029754639 0 0.00440979c0 1.0838699 -0.87454224 1.963211 -1.9551086 1.9656067z" fill-rule="evenodd"/><path fill="#000000" fill-opacity="0.0" d="m318.69022 171.87425l100.65137 0l0 39.57263l-100.65137 0z" fill-rule="evenodd"/><path fill="#000000" d="m333.3782 176.62863q1.453125 0 2.484375 0.828125q1.03125 0.8125 1.203125 2.25l-1.8125 0q-0.125 -0.671875 -0.671875 -1.078125q-0.546875 -0.421875 -1.203125 -0.421875q-1.109375 0 -1.71875 0.8125q-0.609375 0.796875 -0.609375 2.125q0 1.265625 0.59375 2.0625q0.609375 0.796875 1.734375 0.796875q0.8125 0 1.3125 -0.5q0.515625 -0.5 0.625 -1.40625l1.828125 0q-0.15625 1.625 -1.1875 2.5625q-1.015625 0.9375 -2.578125 0.9375q-1.234375 0 -2.203125 -0.5625q-0.96875 -0.5625 -1.5 -1.59375q-0.515625 -1.03125 -0.515625 -2.296875q0 -1.96875 1.15625 -3.234375q1.15625 -1.28125 3.0625 -1.28125zm7.8789062 2.390625q1.46875 0 2.34375 0.90625q0.875 0.890625 0.875 2.375q0 1.484375 -0.890625 2.375q-0.875 0.890625 -2.328125 0.890625q-1.4375 0 -2.328125 -0.890625q-0.875 -0.90625 -0.875 -2.375q0 -1.46875 0.859375 -2.375q0.875 -0.90625 2.34375 -0.90625zm-1.5 3.28125q0 0.984375 0.40625 1.484375q0.40625 0.5 1.09375 0.5q0.734375 0 1.125 -0.515625q0.390625 -0.53125 0.390625 -1.46875q0 -0.921875 -0.390625 -1.453125q-0.375 -0.546875 -1.125 -0.546875q-0.6875 0 -1.09375 0.5q-0.40625 0.5 -0.40625 1.5zm9.376953 -3.28125q1.1875 0 1.71875 0.609375q0.546875 0.59375 0.546875 1.890625l0 3.875l-1.703125 0l0 -3.5625q0 -0.71875 -0.25 -1.09375q-0.25 -0.375 -0.84375 -0.375q-0.703125 0 -1.015625 0.421875q-0.3125 0.421875 -0.3125 1.296875l0 3.3125l-1.6875 0l0 -6.203125l1.609375 0l0 0.859375l0.03125 0q0.3125 -0.5 0.8125 -0.765625q0.5 -0.265625 1.09375 -0.265625zm6.0976562 0q1.265625 0 1.953125 0.5q0.703125 0.5 0.796875 1.484375l-1.625 0q-0.046875 -0.4375 -0.34375 -0.640625q-0.28125 -0.203125 -0.828125 -0.203125q-0.484375 0 -0.71875 0.15625q-0.21875 0.140625 -0.21875 0.421875q0 0.28125 0.296875 0.46875q0.296875 0.1875 1.1875 0.359375q1.421875 0.265625 1.90625 0.703125q0.5 0.4375 0.5 1.140625q0 1.046875 -0.78125 1.609375q-0.765625 0.546875 -2.046875 0.546875q-1.296875 0 -2.078125 -0.546875q-0.78125 -0.546875 -0.84375 -1.640625l1.625 0q0 0.484375 0.375 0.765625q0.375 0.28125 0.9375 0.28125q0.5 0 0.796875 -0.21875q0.3125 -0.21875 0.3125 -0.578125q0 -0.328125 -0.40625 -0.53125q-0.390625 -0.203125 -1.46875 -0.421875q-1.078125 -0.21875 -1.546875 -0.609375q-0.46875 -0.390625 -0.46875 -1.0625q0 -0.984375 0.6875 -1.484375q0.703125 -0.5 2.0 -0.5zm5.6015625 0.171875l0 3.546875q0 0.703125 0.25 1.09375q0.25 0.390625 0.859375 0.390625q0.703125 0 1.0 -0.421875q0.3125 -0.4375 0.3125 -1.296875l0 -3.3125l1.703125 0l0 6.203125l-1.625 0l0 -0.859375l-0.03125 0q-0.328125 0.515625 -0.84375 0.78125q-0.5 0.25 -1.0625 0.25q-1.15625 0 -1.703125 -0.59375q-0.546875 -0.59375 -0.546875 -1.90625l0 -3.875l1.6875 0zm7.1757812 -2.359375l0 8.5625l-1.703125 0l0 -8.5625l1.703125 0zm7.8027344 -0.203125q1.546875 0 2.484375 0.71875q0.9375 0.71875 0.9375 2.03125l-1.8125 0q-0.046875 -0.640625 -0.453125 -0.96875q-0.390625 -0.328125 -1.234375 -0.328125q-0.578125 0 -0.953125 0.265625q-0.359375 0.25 -0.359375 0.71875q0 0.3125 0.15625 0.46875q0.15625 0.15625 0.625 0.34375q0.46875 0.171875 2.0625 0.546875q1.0625 0.25 1.65625 0.875q0.609375 0.609375 0.609375 1.546875q0 1.25 -0.9375 2.0q-0.9375 0.75 -2.625 0.75q-1.609375 0 -2.640625 -0.796875q-1.015625 -0.796875 -1.015625 -2.203125l0 -0.046875l1.828125 0q0 0.796875 0.515625 1.1875q0.53125 0.390625 1.375 0.390625q0.765625 0 1.21875 -0.265625q0.453125 -0.28125 0.453125 -0.796875q0 -0.421875 -0.359375 -0.6875q-0.34375 -0.265625 -1.109375 -0.453125q-0.984375 -0.21875 -1.78125 -0.46875q-0.796875 -0.25 -1.328125 -0.8125q-0.53125 -0.5625 -0.53125 -1.4375q0 -1.15625 0.921875 -1.859375q0.9375 -0.71875 2.296875 -0.71875zm7.5214844 2.390625q1.375 0 2.203125 0.953125q0.828125 0.9375 0.828125 2.421875l-0.015625 0.3125l-4.484375 0q0.046875 0.796875 0.421875 1.1875q0.390625 0.390625 1.09375 0.390625q0.46875 0 0.859375 -0.234375q0.390625 -0.25 0.5 -0.578125l1.5 0q-0.34375 1.046875 -1.0625 1.578125q-0.71875 0.515625 -1.84375 0.515625q-1.4375 0 -2.3125 -0.90625q-0.859375 -0.90625 -0.859375 -2.359375q0 -1.390625 0.890625 -2.328125q0.890625 -0.953125 2.28125 -0.953125zm-1.46875 2.609375l2.78125 0q-0.125 -0.6875 -0.453125 -1.0q-0.3125 -0.328125 -0.921875 -0.328125q-0.609375 0 -0.984375 0.359375q-0.359375 0.34375 -0.421875 0.96875zm9.109375 -2.609375q0.109375 0 0.203125 0.015625q0.09375 0.015625 0.171875 0.046875l0 1.578125q-0.140625 -0.03125 -0.28125 -0.03125q-0.140625 -0.015625 -0.328125 -0.015625q-0.859375 0 -1.28125 0.53125q-0.40625 0.515625 -0.40625 1.40625l0 2.84375l-1.6875 0l0 -6.203125l1.609375 0l0 1.15625l0.03125 0q0.265625 -0.609375 0.796875 -0.96875q0.546875 -0.359375 1.171875 -0.359375zm2.3945312 0.171875l1.3125 4.234375l0.03125 0l1.296875 -4.234375l1.703125 0l-2.109375 6.203125l-1.890625 0l-2.125 -6.203125l1.78125 0zm7.9121094 -0.171875q1.375 0 2.203125 0.953125q0.828125 0.9375 0.828125 2.421875l-0.015625 0.3125l-4.484375 0q0.046875 0.796875 0.421875 1.1875q0.390625 0.390625 1.09375 0.390625q0.46875 0 0.859375 -0.234375q0.390625 -0.25 0.5 -0.578125l1.5 0q-0.34375 1.046875 -1.0625 1.578125q-0.71875 0.515625 -1.84375 0.515625q-1.4375 0 -2.3125 -0.90625q-0.859375 -0.90625 -0.859375 -2.359375q0 -1.390625 0.890625 -2.328125q0.890625 -0.953125 2.28125 -0.953125zm-1.46875 2.609375l2.78125 0q-0.125 -0.6875 -0.453125 -1.0q-0.3125 -0.328125 -0.921875 -0.328125q-0.609375 0 -0.984375 0.359375q-0.359375 0.34375 -0.421875 0.96875zm9.109375 -2.609375q0.109375 0 0.203125 0.015625q0.09375 0.015625 0.171875 0.046875l0 1.578125q-0.140625 -0.03125 -0.28125 -0.03125q-0.140625 -0.015625 -0.328125 -0.015625q-0.859375 0 -1.28125 0.53125q-0.40625 0.515625 -0.40625 1.40625l0 2.84375l-1.6875 0l0 -6.203125l1.609375 0l0 1.15625l0.03125 0q0.265625 -0.609375 0.796875 -0.96875q0.546875 -0.359375 1.171875 -0.359375z" fill-rule="nonzero"/><path fill="#000000" d="m344.71317 190.62863q-0.640625 1.1875 -0.984375 2.578125q-0.328125 1.390625 -0.328125 2.859375q0 1.46875 0.3125 2.84375q0.3125 1.359375 0.984375 2.671875l-1.421875 0q-0.765625 -1.28125 -1.171875 -2.671875q-0.40625 -1.390625 -0.40625 -2.734375q0 -1.390625 0.40625 -2.90625q0.40625 -1.515625 1.171875 -2.640625l1.4375 0zm6.7539062 0.203125l0 1.578125l-4.125 0l0 1.984375l3.578125 0l0 1.453125l-3.578125 0l0 3.546875l-1.890625 0l0 -8.5625l6.015625 0zm3.421875 2.1875q1.46875 0 2.34375 0.90625q0.875 0.890625 0.875 2.375q0 1.484375 -0.890625 2.375q-0.875 0.890625 -2.328125 0.890625q-1.4375 0 -2.328125 -0.890625q-0.875 -0.90625 -0.875 -2.375q0 -1.46875 0.859375 -2.375q0.875 -0.90625 2.34375 -0.90625zm-1.5 3.28125q0 0.984375 0.40625 1.484375q0.40625 0.5 1.09375 0.5q0.734375 0 1.125 -0.515625q0.390625 -0.53125 0.390625 -1.46875q0 -0.921875 -0.390625 -1.453125q-0.375 -0.546875 -1.125 -0.546875q-0.6875 0 -1.09375 0.5q-0.40625 0.5 -0.40625 1.5zm7.580078 -5.46875l0 8.5625l-1.703125 0l0 -8.5625l1.703125 0zm3.09375 0l0 8.5625l-1.703125 0l0 -8.5625l1.703125 0zm4.34375 2.1875q1.46875 0 2.34375 0.90625q0.875 0.890625 0.875 2.375q0 1.484375 -0.890625 2.375q-0.875 0.890625 -2.328125 0.890625q-1.4375 0 -2.328125 -0.890625q-0.875 -0.90625 -0.875 -2.375q0 -1.46875 0.859375 -2.375q0.875 -0.90625 2.34375 -0.90625zm-1.5 3.28125q0 0.984375 0.40625 1.484375q0.40625 0.5 1.09375 0.5q0.734375 0 1.125 -0.515625q0.390625 -0.53125 0.390625 -1.46875q0 -0.921875 -0.390625 -1.453125q-0.375 -0.546875 -1.125 -0.546875q-0.6875 0 -1.09375 0.5q-0.40625 0.5 -0.40625 1.5zm7.048828 -3.109375l1.140625 4.203125l0.015625 0l1.03125 -4.203125l1.65625 0l1.0625 4.203125l0.015625 0l1.15625 -4.203125l1.75 0l-1.96875 6.203125l-1.75 0l-1.09375 -4.171875l-0.03125 0l-1.0625 4.171875l-1.75 0l-1.96875 -6.203125l1.796875 0zm11.408203 -0.171875q1.375 0 2.203125 0.953125q0.828125 0.9375 0.828125 2.421875l-0.015625 0.3125l-4.484375 0q0.046875 0.796875 0.421875 1.1875q0.390625 0.390625 1.09375 0.390625q0.46875 0 0.859375 -0.234375q0.390625 -0.25 0.5 -0.578125l1.5 0q-0.34375 1.046875 -1.0625 1.578125q-0.71875 0.515625 -1.84375 0.515625q-1.4375 0 -2.3125 -0.90625q-0.859375 -0.90625 -0.859375 -2.359375q0 -1.390625 0.890625 -2.328125q0.890625 -0.953125 2.28125 -0.953125zm-1.46875 2.609375l2.78125 0q-0.125 -0.6875 -0.453125 -1.0q-0.3125 -0.328125 -0.921875 -0.328125q-0.609375 0 -0.984375 0.359375q-0.359375 0.34375 -0.421875 0.96875zm9.109375 -2.609375q0.109375 0 0.203125 0.015625q0.09375 0.015625 0.171875 0.046875l0 1.578125q-0.140625 -0.03125 -0.28125 -0.03125q-0.140625 -0.015625 -0.328125 -0.015625q-0.859375 0 -1.28125 0.53125q-0.40625 0.515625 -0.40625 1.40625l0 2.84375l-1.6875 0l0 -6.203125l1.609375 0l0 1.15625l0.03125 0q0.265625 -0.609375 0.796875 -0.96875q0.546875 -0.359375 1.171875 -0.359375zm1.7480469 -2.390625q0.78125 1.265625 1.1875 2.65625q0.40625 1.390625 0.40625 2.75q0 1.375 -0.421875 2.90625q-0.40625 1.515625 -1.171875 2.640625l-1.421875 0q0.65625 -1.25 0.96875 -2.609375q0.328125 -1.375 0.328125 -2.8125q0 -1.5 -0.328125 -2.875q-0.3125 -1.390625 -0.96875 -2.65625l1.421875 0z" fill-rule="nonzero"/><path fill="#000000" fill-opacity="0.0" d="m369.0159 211.44688l1.7322998 162.3307" fill-rule="evenodd"/><path stroke="#e03875" stroke-width="2.0" stroke-linejoin="round" stroke-linecap="round" stroke-dasharray="6.0,8.0" d="m369.11197 220.44637l1.5401917 144.33174" fill-rule="evenodd"/><path fill="#e03875" stroke="#e03875" stroke-width="2.0" stroke-linecap="butt" d="m371.32336 220.42276l-2.276245 -6.052246l-2.1466064 6.0994415z" fill-rule="evenodd"/><path fill="#e03875" stroke="#e03875" stroke-width="2.0" stroke-linecap="butt" d="m368.44073 364.8017l2.2762756 6.0522766l2.146576 -6.099457z" fill-rule="evenodd"/><path fill="#000000" fill-opacity="0.0" d="m294.4716 293.1973l289.32285 -80.976395" fill-rule="evenodd"/><path stroke="#e03875" stroke-width="2.0" stroke-linejoin="round" stroke-linecap="round" stroke-dasharray="6.0,8.0" d="m303.13852 290.77155l271.98892 -76.12491" fill-rule="evenodd"/><path fill="#e03875" stroke="#e03875" stroke-width="2.0" stroke-linecap="butt" d="m302.54245 288.64185l-5.2552795 3.767395l6.447418 0.4920349z" fill-rule="evenodd"/><path fill="#e03875" stroke="#e03875" stroke-width="2.0" stroke-linecap="butt" d="m575.7236 216.77634l5.255249 -3.767395l-6.4473877 -0.49201965z" fill-rule="evenodd"/><path fill="#000000" fill-opacity="0.0" d="m644.1349 22.638834l132.09448 0" fill-rule="evenodd"/><path stroke="#e03875" stroke-width="2.0" stroke-miterlimit="400.0" stroke-linecap="butt" stroke-dasharray="8.0,6.0" d="m644.1349 22.638834l132.09448 0" fill-rule="evenodd"/><path fill="#000000" fill-opacity="0.0" d="m662.3757 -6.167979E-5l100.66144 0l0 21.007874l-100.66144 0z" fill-rule="evenodd"/><path fill="#000000" d="m681.76886 4.957438l0 6.9843745l4.171875 0l0 1.578125l-6.0625 0l0 -8.5625l1.890625 0zm9.488281 0l3.203125 8.5625l-1.953125 0l-0.640625 -1.90625l-3.203125 0l-0.671875 1.90625l-1.90625 0l3.25 -8.5625l1.921875 0zm-0.984375 2.109375l-1.125 3.1406245l2.21875 0l-1.078125 -3.1406245l-0.015625 0zm6.814453 -2.109375l3.578125 5.7499995l0.015625 0l0 -5.7499995l1.765625 0l0 8.5625l-1.875 0l-3.578125 -5.7343745l-0.015625 0l0 5.7343745l-1.765625 0l0 -8.5625l1.875 0zm14.197266 -0.203125q1.390625 0 2.421875 0.8125q1.03125 0.796875 1.1875 2.203125l-1.796875 0q-0.1875 -0.71875 -0.671875 -1.078125q-0.46875 -0.359375 -1.140625 -0.359375q-1.125 0 -1.734375 0.8125q-0.59375 0.8125 -0.59375 2.1249995q0 1.25 0.59375 2.0625q0.609375 0.796875 1.734375 0.796875q0.90625 0 1.421875 -0.453125q0.53125 -0.453125 0.609375 -1.390625l-1.890625 0l0 -1.40625l3.609375 0l0 4.640625l-1.203125 0l-0.203125 -0.96875q-0.453125 0.578125 -1.046875 0.875q-0.578125 0.296875 -1.296875 0.296875q-1.234375 0 -2.203125 -0.5625q-0.96875 -0.5625 -1.5 -1.59375q-0.515625 -1.03125 -0.515625 -2.296875q0 -1.9843745 1.15625 -3.2499995q1.15625 -1.265625 3.0625 -1.265625zm8.089844 2.390625q1.46875 0 2.34375 0.9062495q0.875 0.890625 0.875 2.375q0 1.484375 -0.890625 2.375q-0.875 0.890625 -2.328125 0.890625q-1.4375 0 -2.328125 -0.890625q-0.875 -0.90625 -0.875 -2.375q0 -1.46875 0.859375 -2.375q0.875 -0.9062495 2.34375 -0.9062495zm-1.5 3.2812495q0 0.984375 0.40625 1.484375q0.40625 0.5 1.09375 0.5q0.734375 0 1.125 -0.515625q0.390625 -0.53125 0.390625 -1.46875q0 -0.921875 -0.390625 -1.453125q-0.375 -0.546875 -1.125 -0.546875q-0.6875 0 -1.09375 0.5q-0.40625 0.5 -0.40625 1.5zm8.361328 -3.2812495q1.265625 0 1.953125 0.5q0.703125 0.49999952 0.796875 1.4843745l-1.625 0q-0.046875 -0.4375 -0.34375 -0.640625q-0.28125 -0.203125 -0.828125 -0.203125q-0.484375 0 -0.71875 0.15625q-0.21875 0.140625 -0.21875 0.421875q0 0.28125 0.296875 0.46875q0.296875 0.1875 1.1875 0.359375q1.421875 0.265625 1.90625 0.703125q0.5 0.4375 0.5 1.140625q0 1.046875 -0.78125 1.609375q-0.765625 0.546875 -2.046875 0.546875q-1.296875 0 -2.078125 -0.546875q-0.78125 -0.546875 -0.84375 -1.640625l1.625 0q0 0.484375 0.375 0.765625q0.375 0.28125 0.9375 0.28125q0.5 0 0.796875 -0.21875q0.3125 -0.21875 0.3125 -0.578125q0 -0.328125 -0.40625 -0.53125q-0.390625 -0.203125 -1.46875 -0.421875q-1.078125 -0.21875 -1.546875 -0.609375q-0.46875 -0.390625 -0.46875 -1.0625q0 -0.984375 0.6875 -1.4843745q0.703125 -0.5 2.0 -0.5zm6.4453125 0q1.265625 0 1.953125 0.5q0.703125 0.49999952 0.796875 1.4843745l-1.625 0q-0.046875 -0.4375 -0.34375 -0.640625q-0.28125 -0.203125 -0.828125 -0.203125q-0.484375 0 -0.71875 0.15625q-0.21875 0.140625 -0.21875 0.421875q0 0.28125 0.296875 0.46875q0.296875 0.1875 1.1875 0.359375q1.421875 0.265625 1.90625 0.703125q0.5 0.4375 0.5 1.140625q0 1.046875 -0.78125 1.609375q-0.765625 0.546875 -2.046875 0.546875q-1.296875 0 -2.078125 -0.546875q-0.78125 -0.546875 -0.84375 -1.640625l1.625 0q0 0.484375 0.375 0.765625q0.375 0.28125 0.9375 0.28125q0.5 0 0.796875 -0.21875q0.3125 -0.21875 0.3125 -0.578125q0 -0.328125 -0.40625 -0.53125q-0.390625 -0.203125 -1.46875 -0.421875q-1.078125 -0.21875 -1.546875 -0.609375q-0.46875 -0.390625 -0.46875 -1.0625q0 -0.984375 0.6875 -1.4843745q0.703125 -0.5 2.0 -0.5zm5.6640625 -2.1875l0 1.390625l-1.703125 0l0 -1.390625l1.703125 0zm0 2.359375l0 6.2031245l-1.703125 0l0 -6.2031245l1.703125 0zm4.828125 -0.171875q1.328125 0 2.078125 0.9218745q0.75 0.921875 0.75 2.421875q0 1.375 -0.75 2.296875q-0.734375 0.90625 -1.984375 0.90625q-0.5625 0 -1.0625 -0.234375q-0.484375 -0.25 -0.796875 -0.703125l-0.03125 0l0 2.953125l-1.6875 0l0 -8.390625l1.609375 0l0 0.7812495l0.03125 0q0.296875 -0.48437452 0.765625 -0.7187495q0.484375 -0.234375 1.078125 -0.234375zm-1.84375 3.2968745q0 0.890625 0.375 1.4375q0.375 0.53125 1.109375 0.53125q0.703125 0 1.078125 -0.515625q0.390625 -0.515625 0.390625 -1.453125q0 -0.890625 -0.375 -1.453125q-0.375 -0.5625 -1.125 -0.5625q-0.703125 0 -1.078125 0.53125q-0.375 0.53125 -0.375 1.484375z" fill-rule="nonzero"/><path fill="#000000" fill-opacity="0.0" d="m662.3757 24.260014l100.66144 0l0 21.007874l-100.66144 0z" fill-rule="evenodd"/><path fill="#000000" d="m672.7454 29.217512l0 5.375002q0 0.921875 0.421875 1.359375q0.4375 0.4375 1.34375 0.4375q0.984375 0 1.375 -0.421875q0.40625 -0.4375 0.40625 -1.375l0 -5.375002l1.875 0l0 5.375002q0 1.59375 -0.9375 2.5q-0.921875 0.890625 -2.71875 0.890625q-1.8125 0 -2.734375 -0.875q-0.90625 -0.890625 -0.90625 -2.515625l0 -5.375002l1.875 0zm10.800781 0q1.71875 0 2.78125 1.125q1.0625 1.109375 1.0625 3.109377q0 2.0 -1.046875 3.171875q-1.03125 1.15625 -2.796875 1.15625l-3.75 0l0 -8.562502l3.75 0zm-0.140625 6.984377q0.90625 0 1.5 -0.640625q0.59375 -0.65625 0.59375 -1.9375q0 -1.484375 -0.625 -2.156252q-0.625 -0.671875 -1.796875 -0.671875l-1.390625 0l0 5.406252l1.71875 0zm9.207031 -6.984377q1.34375 0 2.125 0.75q0.78125 0.75 0.78125 2.0q0 1.2343769 -0.78125 1.9843769q-0.78125 0.75 -2.125 0.75l-2.03125 0l0 3.078125l-1.890625 0l0 -8.562502l3.921875 0zm-0.515625 4.031252q0.8125 0 1.203125 -0.296875q0.390625 -0.3125 0.390625 -0.9843769q0 -0.65625 -0.390625 -0.96875q-0.375 -0.328125 -1.203125 -0.328125l-1.515625 0l0 2.578127l1.515625 0zm8.347656 -4.234377l-3.34375 8.968752l-1.375 0l3.359375 -8.968752l1.359375 0zm7.046875 0.203125l0 1.578125l-2.5625 0l0 6.984377l-1.890625 0l0 -6.984377l-2.5625 0l0 -1.578125l7.015625 0zm4.4726562 -0.203125q1.453125 0 2.484375 0.828125q1.03125 0.8125 1.203125 2.250002l-1.8125 0q-0.125 -0.6718769 -0.671875 -1.0781269q-0.546875 -0.421875 -1.203125 -0.421875q-1.109375 0 -1.71875 0.8125q-0.609375 0.7968769 -0.609375 2.125002q0 1.265625 0.59375 2.0625q0.609375 0.796875 1.734375 0.796875q0.8125 0 1.3125 -0.5q0.515625 -0.5 0.625 -1.40625l1.828125 0q-0.15625 1.625 -1.1875 2.5625q-1.015625 0.9375 -2.578125 0.9375q-1.234375 0 -2.203125 -0.5625q-0.96875 -0.5625 -1.5 -1.59375q-0.515625 -1.03125 -0.515625 -2.296875q0 -1.9687519 1.15625 -3.234377q1.15625 -1.28125 3.0625 -1.28125zm8.972656 0.203125q1.34375 0 2.125 0.75q0.78125 0.75 0.78125 2.0q0 1.2343769 -0.78125 1.9843769q-0.78125 0.75 -2.125 0.75l-2.03125 0l0 3.078125l-1.890625 0l0 -8.562502l3.921875 0zm-0.515625 4.031252q0.8125 0 1.203125 -0.296875q0.390625 -0.3125 0.390625 -0.9843769q0 -0.65625 -0.390625 -0.96875q-0.375 -0.328125 -1.203125 -0.328125l-1.515625 0l0 2.578127l1.515625 0zm8.347656 -4.234377l-3.34375 8.968752l-1.375 0l3.359375 -8.968752l1.359375 0zm3.234375 0.203125q1.296875 0 2.046875 0.703125q0.75 0.703125 0.75 1.546875q0 0.6093769 -0.3125 1.0781269q-0.296875 0.46875 -0.90625 0.6875l0 0.015625q0.78125 0.1875 1.171875 0.734375q0.390625 0.546875 0.390625 1.328125q0 1.203125 -0.90625 1.921875q-0.90625 0.71875 -2.234375 0.71875q-1.390625 0 -2.296875 -0.703125q-0.890625 -0.703125 -0.890625 -1.9375q0 -0.796875 0.40625 -1.328125q0.421875 -0.546875 1.171875 -0.734375l0 -0.015625q-0.59375 -0.171875 -0.921875 -0.625q-0.3125 -0.46875 -0.3125 -1.1093769q0 -1.015625 0.828125 -1.640625q0.84375 -0.640625 2.015625 -0.640625zm-1.296875 2.4375q0 0.4843769 0.359375 0.7968769q0.359375 0.3125 0.921875 0.3125q0.578125 0 0.921875 -0.296875q0.34375 -0.296875 0.34375 -0.8125019q0 -0.515625 -0.328125 -0.828125q-0.3125 -0.328125 -0.9375 -0.328125q-0.578125 0 -0.9375 0.328125q-0.34375 0.328125 -0.34375 0.828125zm-0.1875 3.578127q0 0.609375 0.421875 1.03125q0.4375 0.40625 1.0625 0.40625q0.625 0 1.03125 -0.40625q0.40625 -0.40625 0.40625 -1.015625q0 -0.578125 -0.421875 -0.953125q-0.40625 -0.390625 -1.03125 -0.390625q-0.609375 0 -1.046875 0.359375q-0.421875 0.34375 -0.421875 0.96875zm8.111328 -6.015627q1.140625 0 1.984375 0.65625q0.84375 0.65625 0.84375 1.671875q0 0.6093769 -0.3125 1.0781269q-0.296875 0.453125 -0.875 0.625l0 0.03125q0.703125 0.15625 1.09375 0.6875q0.40625 0.515625 0.40625 1.21875q0 1.234375 -0.90625 2.0q-0.90625 0.765625 -2.21875 0.765625q-1.421875 0 -2.28125 -0.796875q-0.84375 -0.8125 -0.84375 -2.171875l0 -0.09375l1.625 0q0.03125 0.78125 0.421875 1.21875q0.390625 0.4375 1.046875 0.4375q0.609375 0 0.984375 -0.375q0.390625 -0.390625 0.390625 -0.953125q0 -0.625 -0.375 -0.921875q-0.375 -0.3125 -1.390625 -0.3125l-0.1875 0l0 -1.203125l0.296875 0q0.71875 0 1.109375 -0.265625q0.390625 -0.28125 0.390625 -0.7812519q0 -0.5 -0.34375 -0.8125q-0.328125 -0.3125 -0.84375 -0.3125q-0.578125 0 -0.9375 0.390625q-0.34375 0.375 -0.359375 1.1093769l-1.625 0q0.046875 -1.3125019 0.84375 -2.093752q0.796875 -0.796875 2.0625 -0.796875zm6.689453 0q1.5 0 2.296875 1.09375q0.796875 1.09375 0.796875 3.234377q0 2.15625 -0.796875 3.28125q-0.78125 1.125 -2.296875 1.125q-1.5 0 -2.296875 -1.109375q-0.78125 -1.125 -0.78125 -3.296875q0 -2.125002 0.78125 -3.218752q0.78125 -1.109375 2.296875 -1.109375zm-1.375 4.343752q0 1.296875 0.171875 1.890625q0.1875 0.578125 0.484375 0.84375q0.296875 0.25 0.71875 0.25q0.671875 0 1.03125 -0.65625q0.359375 -0.671875 0.359375 -2.34375q0 -1.6093769 -0.359375 -2.265627q-0.359375 -0.671875 -1.046875 -0.671875q-0.640625 0 -1.0 0.640625q-0.359375 0.640625 -0.359375 2.312502zm9.423828 -4.187502l0 8.406252l-1.703125 0l0 -5.453125l-2.109375 0l0 -1.2812519l0.109375 0q1.03125 0 1.625 -0.421875q0.59375 -0.421875 0.71875 -1.25l1.359375 0z" fill-rule="nonzero"/></g></svg>