<svg version="1.1" viewBox="0.0 0.0 960.0 540.0" fill="none" stroke="none" stroke-linecap="square" stroke-miterlimit="10" xmlns:xlink="http://www.w3.org/1999/xlink" xmlns="http://www.w3.org/2000/svg"><clipPath id="g155373dfe26_0_553.0"><path d="m0 0l960.0 0l0 540.0l-960.0 0l0 -540.0z" clip-rule="nonzero"/></clipPath><g clip-path="url(#g155373dfe26_0_553.0)"><path fill="#ffffff" d="m0 0l960.0 0l0 540.0l-960.0 0z" fill-rule="evenodd"/><path fill="#000000" fill-opacity="0.0" d="m205.67381 160.98653l163.84251 0l0 64.031494l-163.84251 0z" fill-rule="evenodd"/><path fill="#000000" d="m236.43394 165.94402l0 6.984375l4.171875 0l0 1.578125l-6.0625 0l0 -8.5625l1.890625 0zm7.6933594 2.1875q1.375 0 2.203125 0.953125q0.828125 0.9375 0.828125 2.421875l-0.015625 0.3125l-4.484375 0q0.046875 0.796875 0.421875 1.1875q0.390625 0.390625 1.09375 0.390625q0.46875 0 0.859375 -0.234375q0.390625 -0.25 0.5 -0.578125l1.5 0q-0.34375 1.046875 -1.0625 1.578125q-0.71875 0.515625 -1.84375 0.515625q-1.4375 0 -2.3125 -0.90625q-0.859375 -0.90625 -0.859375 -2.359375q0 -1.390625 0.890625 -2.328125q0.890625 -0.953125 2.28125 -0.953125zm-1.46875 2.609375l2.78125 0q-0.125 -0.6875 -0.453125 -1.0q-0.3125 -0.328125 -0.921875 -0.328125q-0.609375 0 -0.984375 0.359375q-0.359375 0.34375 -0.421875 0.96875zm8.34375 -2.609375q1.375 0 2.046875 0.453125q0.671875 0.453125 0.671875 1.28125l0 3.328125q0 0.375 0.046875 0.75q0.046875 0.375 0.171875 0.5625l-1.734375 0q-0.046875 -0.140625 -0.078125 -0.28125q-0.03125 -0.15625 -0.046875 -0.3125q-0.359375 0.375 -0.890625 0.578125q-0.515625 0.1875 -1.1875 0.1875q-0.96875 0 -1.546875 -0.484375q-0.5625 -0.484375 -0.5625 -1.375q0 -0.875 0.53125 -1.328125q0.546875 -0.46875 1.96875 -0.625q0.984375 -0.09375 1.296875 -0.234375q0.328125 -0.15625 0.328125 -0.53125q0 -0.40625 -0.25 -0.609375q-0.234375 -0.21875 -0.84375 -0.21875q-0.53125 0 -0.8125 0.234375q-0.28125 0.21875 -0.328125 0.703125l-1.703125 0q0.0625 -1.015625 0.828125 -1.546875q0.78125 -0.53125 2.09375 -0.53125zm-1.40625 4.609375q0 0.375 0.25 0.59375q0.25 0.203125 0.796875 0.203125q0.671875 0 1.015625 -0.359375q0.359375 -0.359375 0.359375 -1.046875l0 -0.65625q-0.15625 0.125 -0.40625 0.1875q-0.25 0.046875 -0.890625 0.140625q-0.59375 0.078125 -0.859375 0.3125q-0.265625 0.21875 -0.265625 0.625zm11.499985 -6.796875l0 8.5625l-1.625 0l0 -0.796875l-0.03125 0q-0.265625 0.484375 -0.75 0.734375q-0.484375 0.234375 -1.125 0.234375q-1.265625 0 -2.0312347 -0.9375q-0.75 -0.9375 -0.75 -2.390625q0 -1.390625 0.734375 -2.296875q0.74998474 -0.921875 2.0156097 -0.921875q0.578125 0 1.046875 0.234375q0.484375 0.234375 0.78125 0.6875l0.03125 0l0 -3.109375l1.703125 0zm-4.609375 5.453125q0 0.859375 0.390625 1.4375q0.40625 0.5625 1.109375 0.5625q0.703125 0 1.078125 -0.515625q0.375 -0.53125 0.375 -1.5q0 -0.90625 -0.375 -1.4375q-0.359375 -0.53125 -1.09375 -0.53125q-0.703125 0 -1.09375 0.53125q-0.390625 0.53125 -0.390625 1.453125zm8.751953 -3.265625q1.375 0 2.203125 0.953125q0.828125 0.9375 0.828125 2.421875l-0.015625 0.3125l-4.484375 0q0.046875 0.796875 0.421875 1.1875q0.390625 0.390625 1.09375 0.390625q0.46875 0 0.859375 -0.234375q0.390625 -0.25 0.5 -0.578125l1.5 0q-0.34375 1.046875 -1.0625 1.578125q-0.71875 0.515625 -1.84375 0.515625q-1.4375 0 -2.3125 -0.90625q-0.859375 -0.90625 -0.859375 -2.359375q0 -1.390625 0.890625 -2.328125q0.890625 -0.953125 2.28125 -0.953125zm-1.46875 2.609375l2.78125 0q-0.125 -0.6875 -0.453125 -1.0q-0.3125 -0.328125 -0.921875 -0.328125q-0.609375 0 -0.984375 0.359375q-0.359375 0.34375 -0.421875 0.96875zm9.109375 -2.609375q0.109375 0 0.203125 0.015625q0.09375 0.015625 0.171875 0.046875l0 1.578125q-0.140625 -0.03125 -0.28125 -0.03125q-0.140625 -0.015625 -0.328125 -0.015625q-0.859375 0 -1.28125 0.53125q-0.40625 0.515625 -0.40625 1.40625l0 2.84375l-1.6875 0l0 -6.203125l1.609375 0l0 1.15625l0.03125 0q0.265625 -0.609375 0.796875 -0.96875q0.546875 -0.359375 1.171875 -0.359375zm10.582031 -2.1875l0 1.578125l-4.125 0l0 1.984375l3.578125 0l0 1.453125l-3.578125 0l0 3.546875l-1.890625 0l0 -8.5625l6.015625 0zm3.421875 2.1875q1.46875 0 2.34375 0.90625q0.875 0.890625 0.875 2.375q0 1.484375 -0.890625 2.375q-0.875 0.890625 -2.328125 0.890625q-1.4375 0 -2.328125 -0.890625q-0.875 -0.90625 -0.875 -2.375q0 -1.46875 0.859375 -2.375q0.875 -0.90625 2.34375 -0.90625zm-1.5 3.28125q0 0.984375 0.40625 1.484375q0.40625 0.5 1.09375 0.5q0.734375 0 1.125 -0.515625q0.390625 -0.53125 0.390625 -1.46875q0 -0.921875 -0.390625 -1.453125q-0.375 -0.546875 -1.125 -0.546875q-0.6875 0 -1.09375 0.5q-0.40625 0.5 -0.40625 1.5zm9.439453 -3.28125q0.109375 0 0.203125 0.015625q0.09375 0.015625 0.171875 0.046875l0 1.578125q-0.140625 -0.03125 -0.28125 -0.03125q-0.140625 -0.015625 -0.328125 -0.015625q-0.859375 0 -1.28125 0.53125q-0.40625 0.515625 -0.40625 1.40625l0 2.84375l-1.6875 0l0 -6.203125l1.609375 0l0 1.15625l0.03125 0q0.265625 -0.609375 0.796875 -0.96875q0.546875 -0.359375 1.171875 -0.359375zm2.4257812 0.171875l1.140625 4.203125l0.015625 0l1.03125 -4.203125l1.65625 0l1.0625 4.203125l0.015625 0l1.15625 -4.203125l1.75 0l-1.96875 6.203125l-1.75 0l-1.09375 -4.171875l-0.03125 0l-1.0625 4.171875l-1.75 0l-1.96875 -6.203125l1.796875 0zm11.392578 -0.171875q1.375 0 2.046875 0.453125q0.671875 0.453125 0.671875 1.28125l0 3.328125q0 0.375 0.046875 0.75q0.046875 0.375 0.171875 0.5625l-1.734375 0q-0.046875 -0.140625 -0.078125 -0.28125q-0.03125 -0.15625 -0.046875 -0.3125q-0.359375 0.375 -0.890625 0.578125q-0.515625 0.1875 -1.1875 0.1875q-0.96875 0 -1.546875 -0.484375q-0.5625 -0.484375 -0.5625 -1.375q0 -0.875 0.53125 -1.328125q0.546875 -0.46875 1.96875 -0.625q0.984375 -0.09375 1.296875 -0.234375q0.328125 -0.15625 0.328125 -0.53125q0 -0.40625 -0.25 -0.609375q-0.234375 -0.21875 -0.84375 -0.21875q-0.53125 0 -0.8125 0.234375q-0.28125 0.21875 -0.328125 0.703125l-1.703125 0q0.0625 -1.015625 0.828125 -1.546875q0.78125 -0.53125 2.09375 -0.53125zm-1.40625 4.609375q0 0.375 0.25 0.59375q0.25 0.203125 0.796875 0.203125q0.671875 0 1.015625 -0.359375q0.359375 -0.359375 0.359375 -1.046875l0 -0.65625q-0.15625 0.125 -0.40625 0.1875q-0.25 0.046875 -0.890625 0.140625q-0.59375 0.078125 -0.859375 0.3125q-0.265625 0.21875 -0.265625 0.625zm9.0625 -4.609375q0.109375 0 0.203125 0.015625q0.09375 0.015625 0.171875 0.046875l0 1.578125q-0.140625 -0.03125 -0.28125 -0.03125q-0.140625 -0.015625 -0.328125 -0.015625q-0.859375 0 -1.28125 0.53125q-0.40625 0.515625 -0.40625 1.40625l0 2.84375l-1.6875 0l0 -6.203125l1.609375 0l0 1.15625l0.03125 0q0.265625 -0.609375 0.796875 -0.96875q0.546875 -0.359375 1.171875 -0.359375zm7.013672 -2.1875l0 8.5625l-1.625 0l0 -0.796875l-0.03125 0q-0.265625 0.484375 -0.75 0.734375q-0.484375 0.234375 -1.125 0.234375q-1.265625 0 -2.03125 -0.9375q-0.75 -0.9375 -0.75 -2.390625q0 -1.390625 0.734375 -2.296875q0.75 -0.921875 2.015625 -0.921875q0.578125 0 1.046875 0.234375q0.484375 0.234375 0.78125 0.6875l0.03125 0l0 -3.109375l1.703125 0zm-4.609375 5.453125q0 0.859375 0.390625 1.4375q0.40625 0.5625 1.109375 0.5625q0.703125 0 1.078125 -0.515625q0.375 -0.53125 0.375 -1.5q0 -0.90625 -0.375 -1.4375q-0.359375 -0.53125 -1.09375 -0.53125q-0.703125 0 -1.09375 0.53125q-0.390625 0.53125 -0.390625 1.453125zm7.642578 -5.453125l0 1.390625l-1.703125 0l0 -1.390625l1.703125 0zm0 2.359375l0 6.203125l-1.703125 0l0 -6.203125l1.703125 0zm4.890625 -0.171875q1.1875 0 1.71875 0.609375q0.546875 0.59375 0.546875 1.890625l0 3.875l-1.703125 0l0 -3.5625q0 -0.71875 -0.25 -1.09375q-0.25 -0.375 -0.84375 -0.375q-0.703125 0 -1.015625 0.421875q-0.3125 0.421875 -0.3125 1.296875l0 3.3125l-1.6875 0l0 -6.203125l1.609375 0l0 0.859375l0.03125 0q0.3125 -0.5 0.8125 -0.765625q0.5 -0.265625 1.09375 -0.265625zm6.035187 0q0.671875 0 1.109375 0.265625q0.453125 0.25 0.734375 0.734375l0.03125 0l0 -0.828125l1.609375 0l0 5.859375q0 1.25 -0.796875 1.96875q-0.796875 0.71875 -2.40625 0.71875q-1.09375 0 -1.890625 -0.53125q-0.78125 -0.515625 -0.859375 -1.453125l1.6875 0q0.125 0.453125 0.453125 0.65625q0.328125 0.203125 0.828125 0.203125q0.65625 0 1.015625 -0.40625q0.359375 -0.390625 0.359375 -1.09375l0 -0.859375l-0.03125 0q-0.25 0.453125 -0.75 0.703125q-0.484375 0.25 -1.109375 0.25q-1.25 0 -1.953125 -0.828125q-0.703125 -0.828125 -0.703125 -2.28125q0 -1.3125 0.734375 -2.1875q0.734375 -0.890625 1.9375 -0.890625zm-0.96875 3.046875q0 0.875 0.359375 1.375q0.375 0.484375 1.03125 0.484375q0.671875 0 1.0625 -0.484375q0.390625 -0.5 0.390625 -1.234375q0 -0.90625 -0.375 -1.40625q-0.375 -0.5 -1.09375 -0.5q-0.625 0 -1.0 0.484375q-0.375 0.484375 -0.375 1.28125z" fill-rule="nonzero"/><path fill="#dc477d" d="m33.641376 172.5658l0 0c0 -2.140213 1.7349854 -3.8751984 3.8751984 -3.8751984l131.77716 0c1.027771 0 2.013443 0.40827942 2.7401886 1.1350098c0.72673035 0.7267456 1.1350098 1.7124176 1.1350098 2.7401886l0 131.74567c0 2.1401978 -1.7349854 3.875183 -3.8751984 3.875183l-131.77716 0c-2.140213 0 -3.8751984 -1.7349854 -3.8751984 -3.875183z" fill-rule="evenodd"/><path fill="#ffffff" d="m103.7352 277.4612c-21.49179 0.017852783 -38.928627 -17.445496 -38.946167 -39.004776c-0.017532349 -21.559433 17.390862 -39.050903 38.882652 -39.068512c9.776459 -0.007949829 19.197708 3.6757355 26.390038 10.318558l0 0l-9.234917 9.691437l0 0c-10.479095 -9.499252 -26.650642 -8.678177 -36.1202 1.8338928c-9.46949 10.511978 -8.651054 26.734406 1.8281174 36.233673c9.737343 8.826843 24.55474 8.826843 34.292084 0l0 0l9.234917 9.691437l0 0c-7.1712112 6.6343994 -16.571419 10.313568 -26.326523 10.304291z" fill-rule="evenodd"/><path fill="#ffffff" d="m135.04865 257.9358c-1.7615662 0 -3.1895905 -1.4324646 -3.1895905 -3.1995697c0 -1.7671814 1.4280243 -3.199646 3.1895905 -3.199646c1.761734 0 3.1895905 1.4324646 3.1895905 3.199646c-0.0042877197 1.7654572 -1.4299622 3.1956635 -3.1895905 3.1995697z" fill-rule="evenodd"/><path fill="#ffffff" d="m103.48655 246.88327c-4.6529922 0 -8.425041 -3.7838898 -8.425041 -8.451538c0 -4.6676483 3.772049 -8.451538 8.425041 -8.451538c4.653076 0 8.425049 3.7838898 8.425049 8.451538c-0.0038986206 4.6660004 -3.773613 8.447571 -8.425049 8.451538z" fill-rule="evenodd"/><path fill="#ffffff" d="m138.7 247.0044c-1.761734 0 -3.1895905 -1.4324646 -3.1895905 -3.1995697c0 -1.7671814 1.4278564 -3.199646 3.1895905 -3.199646c1.7617188 0 3.1895905 1.4324646 3.1895905 3.199646c-0.0042877197 1.7654572 -1.4299774 3.1956635 -3.1895905 3.1995697z" fill-rule="evenodd"/><path fill="#ffffff" d="m129.2235 246.64098c-1.7615738 0 -3.189598 -1.4324646 -3.189598 -3.1995697c0 -1.7671814 1.4280243 -3.199646 3.189598 -3.199646c1.7615662 0 3.1895905 1.4324646 3.1895905 3.199646c0 1.7671051 -1.4280243 3.1995697 -3.1895905 3.1995697z" fill-rule="evenodd"/><path fill="#ffffff" d="m138.7 236.25111c-1.761734 0 -3.1895905 -1.4324646 -3.1895905 -3.1995697c0 -1.7671814 1.4278564 -3.199646 3.1895905 -3.199646c1.7617188 0 3.1895905 1.4324646 3.1895905 3.199646c-0.0042877197 1.7654724 -1.4299774 3.1956787 -3.1895905 3.1995697z" fill-rule="evenodd"/><path fill="#ffffff" d="m129.2235 236.6146c-1.7615738 0 -3.189598 -1.4325409 -3.189598 -3.1995697c0 -1.7671814 1.4281006 -3.199646 3.189598 -3.199646c1.7615662 0 3.1895905 1.4325409 3.1895905 3.199646c0 0.0023498535 0 0.004760742 0 0.007095337c-0.00390625 1.7643738 -1.4307556 3.1924744 -3.1895905 3.1924744z" fill-rule="evenodd"/><path fill="#ffffff" d="m135.23328 225.49078c-1.7614899 0.003967285 -3.1927795 -1.4253693 -3.1966858 -3.1924744c-0.0038909912 -1.7670288 1.420929 -3.2028503 3.182495 -3.2067413c1.761734 -0.0038909912 3.192398 1.4254456 3.1966858 3.1924744c0 0.0023345947 0 0.004837036 0 0.007171631c0 1.7642975 -1.4235687 3.1956635 -3.182495 3.1995697z" fill-rule="evenodd"/><path fill="#000000" fill-opacity="0.0" d="m21.483149 310.99524l163.84251 0l0 64.409454l-163.84251 0z" fill-rule="evenodd"/><path fill="#000000" d="m67.76671 315.7496q1.453125 0 2.484375 0.828125q1.03125 0.8125 1.203125 2.25l-1.8125 0q-0.125 -0.671875 -0.671875 -1.078125q-0.546875 -0.421875 -1.203125 -0.421875q-1.109375 0 -1.71875 0.8125q-0.609375 0.796875 -0.609375 2.125q0 1.265625 0.59375 2.0625q0.609375 0.796875 1.734375 0.796875q0.8125 0 1.3125 -0.5q0.515625 -0.5 0.625 -1.40625l1.828125 0q-0.15625 1.625 -1.1875 2.5625q-1.015625 0.9375 -2.578125 0.9375q-1.234375 0 -2.203125 -0.5625q-0.96875 -0.5625 -1.5 -1.59375q-0.515625 -1.03125 -0.515625 -2.296875q0 -1.96875 1.15625 -3.234375q1.15625 -1.28125 3.0625 -1.28125zm7.8789062 2.390625q1.46875 0 2.34375 0.90625q0.875 0.890625 0.875 2.375q0 1.484375 -0.890625 2.375q-0.875 0.890625 -2.328125 0.890625q-1.4375 0 -2.328125 -0.890625q-0.875 -0.90625 -0.875 -2.375q0 -1.46875 0.859375 -2.375q0.875 -0.90625 2.34375 -0.90625zm-1.5 3.28125q0 0.984375 0.40625 1.484375q0.40625 0.5 1.09375 0.5q0.734375 0 1.125 -0.515625q0.390625 -0.53125 0.390625 -1.46875q0 -0.921875 -0.390625 -1.453125q-0.375 -0.546875 -1.125 -0.546875q-0.6875 0 -1.09375 0.5q-0.40625 0.5 -0.40625 1.5zm9.376953 -3.28125q1.1875 0 1.71875 0.609375q0.546875 0.59375 0.546875 1.890625l0 3.875l-1.703125 0l0 -3.5625q0 -0.71875 -0.25 -1.09375q-0.25 -0.375 -0.84375 -0.375q-0.703125 0 -1.015625 0.421875q-0.3125 0.421875 -0.3125 1.296875l0 3.3125l-1.6875 0l0 -6.203125l1.609375 0l0 0.859375l0.03125 0q0.3125 -0.5 0.8125 -0.765625q0.5 -0.265625 1.09375 -0.265625zm6.0976562 0q1.265625 0 1.953125 0.5q0.703125 0.5 0.796875 1.484375l-1.625 0q-0.046875 -0.4375 -0.34375 -0.640625q-0.28125 -0.203125 -0.828125 -0.203125q-0.484375 0 -0.71875 0.15625q-0.21875 0.140625 -0.21875 0.421875q0 0.28125 0.296875 0.46875q0.296875 0.1875 1.1875 0.359375q1.421875 0.265625 1.90625 0.703125q0.5 0.4375 0.5 1.140625q0 1.046875 -0.78125 1.609375q-0.765625 0.546875 -2.046875 0.546875q-1.296875 0 -2.078125 -0.546875q-0.78125 -0.546875 -0.84375 -1.640625l1.625 0q0 0.484375 0.375 0.765625q0.375 0.28125 0.9375 0.28125q0.5 0 0.796875 -0.21875q0.3125 -0.21875 0.3125 -0.578125q0 -0.328125 -0.40625 -0.53125q-0.390625 -0.203125 -1.46875 -0.421875q-1.078125 -0.21875 -1.546875 -0.609375q-0.46875 -0.390625 -0.46875 -1.0625q0 -0.984375 0.6875 -1.484375q0.703125 -0.5 2.0 -0.5zm5.6015625 0.171875l0 3.546875q0 0.703125 0.25 1.09375q0.25 0.390625 0.859375 0.390625q0.703125 0 1.0 -0.421875q0.3125 -0.4375 0.3125 -1.296875l0 -3.3125l1.703125 0l0 6.203125l-1.625 0l0 -0.859375l-0.03125 0q-0.328125 0.515625 -0.84375 0.78125q-0.5 0.25 -1.0625 0.25q-1.15625 0 -1.703125 -0.59375q-0.546875 -0.59375 -0.546875 -1.90625l0 -3.875l1.6875 0zm7.1757812 -2.359375l0 8.5625l-1.703125 0l0 -8.5625l1.703125 0zm7.8027344 -0.203125q1.546875 0 2.484375 0.71875q0.9375 0.71875 0.9375 2.03125l-1.8125 0q-0.046875 -0.640625 -0.453125 -0.96875q-0.390625 -0.328125 -1.234375 -0.328125q-0.578125 0 -0.953125 0.265625q-0.359375 0.25 -0.359375 0.71875q0 0.3125 0.15625 0.46875q0.15625 0.15625 0.625 0.34375q0.46875 0.171875 2.0625 0.546875q1.0625 0.25 1.65625 0.875q0.609375 0.609375 0.609375 1.546875q0 1.25 -0.9375 2.0q-0.9375 0.75 -2.625 0.75q-1.609375 0 -2.640625 -0.796875q-1.015625 -0.796875 -1.015625 -2.203125l0 -0.046875l1.828125 0q0 0.796875 0.515625 1.1875q0.53125 0.390625 1.375 0.390625q0.765625 0 1.21875 -0.265625q0.453125 -0.28125 0.453125 -0.796875q0 -0.421875 -0.359375 -0.6875q-0.34375 -0.265625 -1.109375 -0.453125q-0.984375 -0.21875 -1.78125 -0.46875q-0.796875 -0.25 -1.328125 -0.8125q-0.53125 -0.5625 -0.53125 -1.4375q0 -1.15625 0.921875 -1.859375q0.9375 -0.71875 2.296875 -0.71875zm7.5214844 2.390625q1.375 0 2.203125 0.953125q0.828125 0.9375 0.828125 2.421875l-0.015625 0.3125l-4.484375 0q0.046875 0.796875 0.421875 1.1875q0.390625 0.390625 1.09375 0.390625q0.46875 0 0.859375 -0.234375q0.390625 -0.25 0.5 -0.578125l1.5 0q-0.34375 1.046875 -1.0625 1.578125q-0.71875 0.515625 -1.84375 0.515625q-1.4375 0 -2.3125 -0.90625q-0.859375 -0.90625 -0.859375 -2.359375q0 -1.390625 0.890625 -2.328125q0.890625 -0.953125 2.28125 -0.953125zm-1.46875 2.609375l2.78125 0q-0.125 -0.6875 -0.453125 -1.0q-0.3125 -0.328125 -0.921875 -0.328125q-0.609375 0 -0.984375 0.359375q-0.359375 0.34375 -0.421875 0.96875zm9.109375 -2.609375q0.109375 0 0.203125 0.015625q0.09375 0.015625 0.171875 0.046875l0 1.578125q-0.140625 -0.03125 -0.28125 -0.03125q-0.140625 -0.015625 -0.328125 -0.015625q-0.859375 0 -1.28125 0.53125q-0.40625 0.515625 -0.40625 1.40625l0 2.84375l-1.6875 0l0 -6.203125l1.609375 0l0 1.15625l0.03125 0q0.265625 -0.609375 0.796875 -0.96875q0.546875 -0.359375 1.171875 -0.359375zm2.3945312 0.171875l1.3125 4.234375l0.03125 0l1.296875 -4.234375l1.703125 0l-2.109375 6.203125l-1.890625 0l-2.125 -6.203125l1.78125 0zm7.9121094 -0.171875q1.375 0 2.203125 0.953125q0.828125 0.9375 0.828125 2.421875l-0.015625 0.3125l-4.484375 0q0.046875 0.796875 0.421875 1.1875q0.390625 0.390625 1.09375 0.390625q0.46875 0 0.859375 -0.234375q0.390625 -0.25 0.5 -0.578125l1.5 0q-0.34375 1.046875 -1.0625 1.578125q-0.71875 0.515625 -1.84375 0.515625q-1.4375 0 -2.3125 -0.90625q-0.859375 -0.90625 -0.859375 -2.359375q0 -1.390625 0.890625 -2.328125q0.890625 -0.953125 2.28125 -0.953125zm-1.46875 2.609375l2.78125 0q-0.125 -0.6875 -0.453125 -1.0q-0.3125 -0.328125 -0.921875 -0.328125q-0.609375 0 -0.984375 0.359375q-0.359375 0.34375 -0.421875 0.96875zm9.109375 -2.609375q0.109375 0 0.203125 0.015625q0.09375 0.015625 0.171875 0.046875l0 1.578125q-0.140625 -0.03125 -0.28125 -0.03125q-0.140625 -0.015625 -0.328125 -0.015625q-0.859375 0 -1.28125 0.53125q-0.40625 0.515625 -0.40625 1.40625l0 2.84375l-1.6875 0l0 -6.203125l1.609375 0l0 1.15625l0.03125 0q0.265625 -0.609375 0.796875 -0.96875q0.546875 -0.359375 1.171875 -0.359375z" fill-rule="nonzero"/><path fill="#000000" d="m79.10167 329.7496q-0.640625 1.1875 -0.984375 2.578125q-0.328125 1.390625 -0.328125 2.859375q0 1.46875 0.3125 2.84375q0.3125 1.359375 0.984375 2.671875l-1.421875 0q-0.765625 -1.28125 -1.171875 -2.671875q-0.40625 -1.390625 -0.40625 -2.734375q0 -1.390625 0.40625 -2.90625q0.40625 -1.515625 1.171875 -2.640625l1.4375 0zm6.7539062 0.203125l0 1.578125l-4.125 0l0 1.984375l3.578125 0l0 1.453125l-3.578125 0l0 3.546875l-1.890625 0l0 -8.5625l6.015625 0zm3.421875 2.1875q1.46875 0 2.34375 0.90625q0.875 0.890625 0.875 2.375q0 1.484375 -0.890625 2.375q-0.875 0.890625 -2.328125 0.890625q-1.4375 0 -2.328125 -0.890625q-0.875 -0.90625 -0.875 -2.375q0 -1.46875 0.859375 -2.375q0.875 -0.90625 2.34375 -0.90625zm-1.5 3.28125q0 0.984375 0.40625 1.484375q0.40625 0.5 1.09375 0.5q0.734375 0 1.125 -0.515625q0.390625 -0.53125 0.390625 -1.46875q0 -0.921875 -0.390625 -1.453125q-0.375 -0.546875 -1.125 -0.546875q-0.6875 0 -1.09375 0.5q-0.40625 0.5 -0.40625 1.5zm7.580078 -5.46875l0 8.5625l-1.703125 0l0 -8.5625l1.703125 0zm3.09375 0l0 8.5625l-1.703125 0l0 -8.5625l1.703125 0zm4.34375 2.1875q1.46875 0 2.34375 0.90625q0.875 0.890625 0.875 2.375q0 1.484375 -0.890625 2.375q-0.875 0.890625 -2.328125 0.890625q-1.4375 0 -2.328125 -0.890625q-0.875 -0.90625 -0.875 -2.375q0 -1.46875 0.859375 -2.375q0.875 -0.90625 2.34375 -0.90625zm-1.5 3.28125q0 0.984375 0.40625 1.484375q0.40625 0.5 1.09375 0.5q0.734375 0 1.125 -0.515625q0.390625 -0.53125 0.390625 -1.46875q0 -0.921875 -0.390625 -1.453125q-0.375 -0.546875 -1.125 -0.546875q-0.6875 0 -1.09375 0.5q-0.40625 0.5 -0.40625 1.5zm7.048828 -3.109375l1.140625 4.203125l0.015625 0l1.03125 -4.203125l1.65625 0l1.0625 4.203125l0.015625 0l1.15625 -4.203125l1.75 0l-1.96875 6.203125l-1.75 0l-1.09375 -4.171875l-0.03125 0l-1.0625 4.171875l-1.75 0l-1.96875 -6.203125l1.796875 0zm11.408203 -0.171875q1.375 0 2.203125 0.953125q0.828125 0.9375 0.828125 2.421875l-0.015625 0.3125l-4.484375 0q0.046875 0.796875 0.421875 1.1875q0.390625 0.390625 1.09375 0.390625q0.46875 0 0.859375 -0.234375q0.390625 -0.25 0.5 -0.578125l1.5 0q-0.34375 1.046875 -1.0625 1.578125q-0.71875 0.515625 -1.84375 0.515625q-1.4375 0 -2.3125 -0.90625q-0.859375 -0.90625 -0.859375 -2.359375q0 -1.390625 0.890625 -2.328125q0.890625 -0.953125 2.28125 -0.953125zm-1.46875 2.609375l2.78125 0q-0.125 -0.6875 -0.453125 -1.0q-0.3125 -0.328125 -0.921875 -0.328125q-0.609375 0 -0.984375 0.359375q-0.359375 0.34375 -0.421875 0.96875zm9.109375 -2.609375q0.109375 0 0.203125 0.015625q0.09375 0.015625 0.171875 0.046875l0 1.578125q-0.140625 -0.03125 -0.28125 -0.03125q-0.140625 -0.015625 -0.328125 -0.015625q-0.859375 0 -1.28125 0.53125q-0.40625 0.515625 -0.40625 1.40625l0 2.84375l-1.6875 0l0 -6.203125l1.609375 0l0 1.15625l0.03125 0q0.265625 -0.609375 0.796875 -0.96875q0.546875 -0.359375 1.171875 -0.359375zm1.7480469 -2.390625q0.78125 1.265625 1.1875 2.65625q0.40625 1.390625 0.40625 2.75q0 1.375 -0.421875 2.90625q-0.40625 1.515625 -1.171875 2.640625l-1.421875 0q0.65625 -1.25 0.96875 -2.609375q0.328125 -1.375 0.328125 -2.8125q0 -1.5 -0.328125 -2.875q-0.3125 -1.390625 -0.96875 -2.65625l1.421875 0z" fill-rule="nonzero"/><path fill="#000000" fill-opacity="0.0" d="m197.4742 271.82138l180.22047 0.62991333" fill-rule="evenodd"/><path stroke="#e03875" stroke-width="2.0" stroke-miterlimit="400.0" stroke-linecap="butt" d="m209.47412 271.8633l168.22055 0.5879822" fill-rule="evenodd"/><path fill="#e03875" stroke="#e03875" stroke-width="2.0" stroke-linecap="butt" d="m209.48567 268.55988l-9.087677 3.2717285l9.06459 3.3351746z" fill-rule="evenodd"/><path fill="#000000" fill-opacity="0.0" d="m213.87375 234.59166l163.84253 0l0 34.204727l-163.84253 0z" fill-rule="evenodd"/><path fill="#000000" d="m268.98642 239.54916q1.03125 0 1.734375 0.671875q0.71875 0.65625 0.71875 1.6875q0 0.8125 -0.34375 1.34375q-0.328125 0.53125 -1.015625 0.796875l0 0.03125q0.609375 0.15625 0.921875 0.71875q0.328125 0.5625 0.359375 1.71875q0.03125 1.171875 0.328125 1.59375l-1.875 0q-0.171875 -0.421875 -0.234375 -1.34375q-0.078125 -1.265625 -0.421875 -1.625q-0.328125 -0.375 -1.03125 -0.375l-1.921875 0l0 3.34375l-1.890625 0l0 -8.5625l4.671875 0zm-0.6875 3.875q0.59375 0 0.921875 -0.28125q0.34375 -0.296875 0.34375 -0.953125q0 -0.609375 -0.328125 -0.890625q-0.3125 -0.296875 -0.9375 -0.296875l-2.09375 0l0 2.421875l2.09375 0zm7.3691406 -1.6875q1.375 0 2.203125 0.953125q0.828125 0.9375 0.828125 2.421875l-0.015625 0.3125l-4.484375 0q0.046875 0.796875 0.421875 1.1875q0.390625 0.390625 1.09375 0.390625q0.46875 0 0.859375 -0.234375q0.390625 -0.25 0.5 -0.578125l1.5 0q-0.34375 1.046875 -1.0625 1.578125q-0.71875 0.515625 -1.84375 0.515625q-1.4375 0 -2.3125 -0.90625q-0.859375 -0.90625 -0.859375 -2.359375q0 -1.390625 0.890625 -2.328125q0.890625 -0.953125 2.28125 -0.953125zm-1.46875 2.609375l2.78125 0q-0.125 -0.6875 -0.453125 -1.0q-0.3125 -0.328125 -0.921875 -0.328125q-0.609375 0 -0.984375 0.359375q-0.359375 0.34375 -0.421875 0.96875zm8.984375 -2.609375q1.328125 0 2.078125 0.921875q0.75 0.921875 0.75 2.421875q0 1.375 -0.75 2.296875q-0.734375 0.90625 -1.984375 0.90625q-0.5625 0 -1.0625 -0.234375q-0.484375 -0.25 -0.796875 -0.703125l-0.03125 0l0 2.953125l-1.6875 0l0 -8.390625l1.609375 0l0 0.78125l0.03125 0q0.296875 -0.484375 0.765625 -0.71875q0.484375 -0.234375 1.078125 -0.234375zm-1.84375 3.296875q0 0.890625 0.375 1.4375q0.375 0.53125 1.109375 0.53125q0.703125 0 1.078125 -0.515625q0.390625 -0.515625 0.390625 -1.453125q0 -0.890625 -0.375 -1.453125q-0.375 -0.5625 -1.125 -0.5625q-0.703125 0 -1.078125 0.53125q-0.375 0.53125 -0.375 1.484375zm7.439453 -5.484375l0 8.5625l-1.703125 0l0 -8.5625l1.703125 0zm3.09375 0l0 1.390625l-1.703125 0l0 -1.390625l1.703125 0zm0 2.359375l0 6.203125l-1.703125 0l0 -6.203125l1.703125 0zm4.3125 -0.171875q1.203125 0 2.015625 0.625q0.828125 0.625 0.90625 1.734375l-1.671875 0q-0.078125 -0.53125 -0.40625 -0.796875q-0.3125 -0.28125 -0.859375 -0.28125q-0.6875 0 -1.078125 0.5625q-0.375 0.5625 -0.375 1.453125q0 0.890625 0.375 1.4375q0.375 0.53125 1.046875 0.53125q0.5625 0 0.90625 -0.328125q0.359375 -0.328125 0.453125 -0.9375l1.640625 0q-0.171875 1.21875 -0.96875 1.890625q-0.78125 0.65625 -2.015625 0.65625q-1.390625 0 -2.265625 -0.890625q-0.875 -0.890625 -0.875 -2.296875q0 -1.5 0.859375 -2.421875q0.859375 -0.9375 2.3125 -0.9375zm6.765625 0q1.375 0 2.046875 0.453125q0.671875 0.453125 0.671875 1.28125l0 3.328125q0 0.375 0.046875 0.75q0.046875 0.375 0.171875 0.5625l-1.734375 0q-0.046875 -0.140625 -0.078125 -0.28125q-0.03125 -0.15625 -0.046875 -0.3125q-0.359375 0.375 -0.890625 0.578125q-0.515625 0.1875 -1.1875 0.1875q-0.96875 0 -1.546875 -0.484375q-0.5625 -0.484375 -0.5625 -1.375q0 -0.875 0.53125 -1.328125q0.546875 -0.46875 1.96875 -0.625q0.984375 -0.09375 1.296875 -0.234375q0.328125 -0.15625 0.328125 -0.53125q0 -0.40625 -0.25 -0.609375q-0.234375 -0.21875 -0.84375 -0.21875q-0.53125 0 -0.8125 0.234375q-0.28125 0.21875 -0.328125 0.703125l-1.703125 0q0.0625 -1.015625 0.828125 -1.546875q0.78125 -0.53125 2.09375 -0.53125zm-1.40625 4.609375q0 0.375 0.25 0.59375q0.25 0.203125 0.796875 0.203125q0.671875 0 1.015625 -0.359375q0.359375 -0.359375 0.359375 -1.046875l0 -0.65625q-0.15625 0.125 -0.40625 0.1875q-0.25 0.046875 -0.890625 0.140625q-0.59375 0.078125 -0.859375 0.3125q-0.265625 0.21875 -0.265625 0.625zm7.609375 -6.296875l0 1.859375l1.25 0l0 1.140625l-1.25 0l0 3.109375q0 0.375 0.140625 0.53125q0.140625 0.15625 0.578125 0.15625q0.140625 0 0.265625 -0.015625q0.140625 -0.015625 0.265625 -0.03125l0 1.328125q-0.21875 0.03125 -0.484375 0.046875q-0.25 0.015625 -0.5 0.015625q-1.109375 0 -1.546875 -0.375q-0.421875 -0.390625 -0.421875 -1.0625l0 -3.703125l-1.03125 0l0 -1.140625l1.03125 0l0 -1.859375l1.703125 0zm3.8183594 -0.5l0 1.390625l-1.703125 0l0 -1.390625l1.703125 0zm0 2.359375l0 6.203125l-1.703125 0l0 -6.203125l1.703125 0zm4.34375 -0.171875q1.46875 0 2.34375 0.90625q0.875 0.890625 0.875 2.375q0 1.484375 -0.890625 2.375q-0.875 0.890625 -2.328125 0.890625q-1.4375 0 -2.328125 -0.890625q-0.875 -0.90625 -0.875 -2.375q0 -1.46875 0.859375 -2.375q0.875 -0.90625 2.34375 -0.90625zm-1.5 3.28125q0 0.984375 0.40625 1.484375q0.40625 0.5 1.09375 0.5q0.734375 0 1.125 -0.515625q0.390625 -0.53125 0.390625 -1.46875q0 -0.921875 -0.390625 -1.453125q-0.375 -0.546875 -1.125 -0.546875q-0.6875 0 -1.09375 0.5q-0.40625 0.5 -0.40625 1.5zm9.376953 -3.28125q1.1875 0 1.71875 0.609375q0.546875 0.59375 0.546875 1.890625l0 3.875l-1.703125 0l0 -3.5625q0 -0.71875 -0.25 -1.09375q-0.25 -0.375 -0.84375 -0.375q-0.703125 0 -1.015625 0.421875q-0.3125 0.421875 -0.3125 1.296875l0 3.3125l-1.6875 0l0 -6.203125l1.609375 0l0 0.859375l0.03125 0q0.3125 -0.5 0.8125 -0.765625q0.5 -0.265625 1.09375 -0.265625z" fill-rule="nonzero"/><path fill="#000000" fill-opacity="0.0" d="m205.67413 224.48973l180.22046 0.6299286" fill-rule="evenodd"/><path stroke="#e03875" stroke-width="2.0" stroke-miterlimit="400.0" stroke-linecap="butt" d="m205.67413 224.48973l168.22055 0.5879822" fill-rule="evenodd"/><path fill="#e03875" stroke="#e03875" stroke-width="2.0" stroke-linecap="butt" d="m373.88312 228.38115l9.0877075 -3.2717133l-9.064606 -3.3351746z" fill-rule="evenodd"/><path fill="#000000" fill-opacity="0.0" d="m213.87375 275.35327l163.84253 0l0 34.204742l-163.84253 0z" fill-rule="evenodd"/><path fill="#000000" d="m275.45712 280.3108l0 1.578125l-2.5625 0l0 6.984375l-1.890625 0l0 -6.984375l-2.5625 0l0 -1.578125l7.015625 0zm4.4726562 -0.203125q1.453125 0 2.484375 0.828125q1.03125 0.8125 1.203125 2.25l-1.8125 0q-0.125 -0.671875 -0.671875 -1.078125q-0.546875 -0.421875 -1.203125 -0.421875q-1.109375 0 -1.71875 0.8125q-0.609375 0.796875 -0.609375 2.125q0 1.265625 0.59375 2.0625q0.609375 0.796875 1.734375 0.796875q0.8125 0 1.3125 -0.5q0.515625 -0.5 0.625 -1.40625l1.828125 0q-0.15625 1.625 -1.1875 2.5625q-1.015625 0.9375 -2.578125 0.9375q-1.234375 0 -2.203125 -0.5625q-0.96875 -0.5625 -1.5 -1.59375q-0.515625 -1.03125 -0.515625 -2.296875q0 -1.96875 1.15625 -3.234375q1.15625 -1.28125 3.0625 -1.28125zm8.972656 0.203125q1.34375 0 2.125 0.75q0.78125 0.75 0.78125 2.0q0 1.234375 -0.78125 1.984375q-0.78125 0.75 -2.125 0.75l-2.03125 0l0 3.078125l-1.890625 0l0 -8.5625l3.921875 0zm-0.515625 4.03125q0.8125 0 1.203125 -0.296875q0.390625 -0.3125 0.390625 -0.984375q0 -0.65625 -0.390625 -0.96875q-0.375 -0.328125 -1.203125 -0.328125l-1.515625 0l0 2.578125l1.515625 0zm8.347656 -4.234375l-3.34375 8.96875l-1.375 0l3.359375 -8.96875l1.359375 0zm3.234375 0.203125q1.296875 0 2.046875 0.703125q0.75 0.703125 0.75 1.546875q0 0.609375 -0.3125 1.078125q-0.296875 0.46875 -0.90625 0.6875l0 0.015625q0.78125 0.1875 1.171875 0.734375q0.390625 0.546875 0.390625 1.328125q0 1.203125 -0.90625 1.921875q-0.90625 0.71875 -2.234375 0.71875q-1.390625 0 -2.296875 -0.703125q-0.890625 -0.703125 -0.890625 -1.9375q0 -0.796875 0.40625 -1.328125q0.421875 -0.546875 1.171875 -0.734375l0 -0.015625q-0.59375 -0.171875 -0.921875 -0.625q-0.3125 -0.46875 -0.3125 -1.109375q0 -1.015625 0.828125 -1.640625q0.84375 -0.640625 2.015625 -0.640625zm-1.296875 2.4375q0 0.484375 0.359375 0.796875q0.359375 0.3125 0.921875 0.3125q0.578125 0 0.921875 -0.296875q0.34375 -0.296875 0.34375 -0.8125q0 -0.515625 -0.328125 -0.828125q-0.3125 -0.328125 -0.9375 -0.328125q-0.578125 0 -0.9375 0.328125q-0.34375 0.328125 -0.34375 0.828125zm-0.1875 3.578125q0 0.609375 0.421875 1.03125q0.4375 0.40625 1.0625 0.40625q0.625 0 1.03125 -0.40625q0.40625 -0.40625 0.40625 -1.015625q0 -0.578125 -0.421875 -0.953125q-0.40625 -0.390625 -1.03125 -0.390625q-0.609375 0 -1.046875 0.359375q-0.421875 0.34375 -0.421875 0.96875zm8.111328 -6.015625q1.140625 0 1.984375 0.65625q0.84375 0.65625 0.84375 1.671875q0 0.609375 -0.3125 1.078125q-0.296875 0.453125 -0.875 0.625l0 0.03125q0.703125 0.15625 1.09375 0.6875q0.40625 0.515625 0.40625 1.21875q0 1.234375 -0.90625 2.0q-0.90625 0.765625 -2.21875 0.765625q-1.421875 0 -2.28125 -0.796875q-0.84375 -0.8125 -0.84375 -2.171875l0 -0.09375l1.625 0q0.03125 0.78125 0.421875 1.21875q0.390625 0.4375 1.046875 0.4375q0.609375 0 0.984375 -0.375q0.390625 -0.390625 0.390625 -0.953125q0 -0.625 -0.375 -0.921875q-0.375 -0.3125 -1.390625 -0.3125l-0.1875 0l0 -1.203125l0.296875 0q0.71875 0 1.109375 -0.265625q0.390625 -0.28125 0.390625 -0.78125q0 -0.5 -0.34375 -0.8125q-0.328125 -0.3125 -0.84375 -0.3125q-0.578125 0 -0.9375 0.390625q-0.34375 0.375 -0.359375 1.109375l-1.625 0q0.046875 -1.3125 0.84375 -2.09375q0.796875 -0.796875 2.0625 -0.796875zm6.689453 0q1.5 0 2.296875 1.09375q0.796875 1.09375 0.796875 3.234375q0 2.15625 -0.796875 3.28125q-0.78125 1.125 -2.296875 1.125q-1.5 0 -2.296875 -1.109375q-0.78125 -1.125 -0.78125 -3.296875q0 -2.125 0.78125 -3.21875q0.78125 -1.109375 2.296875 -1.109375zm-1.375 4.34375q0 1.296875 0.171875 1.890625q0.1875 0.578125 0.484375 0.84375q0.296875 0.25 0.71875 0.25q0.671875 0 1.03125 -0.65625q0.359375 -0.671875 0.359375 -2.34375q0 -1.609375 -0.359375 -2.265625q-0.359375 -0.671875 -1.046875 -0.671875q-0.640625 0 -1.0 0.640625q-0.359375 0.640625 -0.359375 2.3125zm8.048828 -4.34375q1.5 0 2.296875 1.09375q0.796875 1.09375 0.796875 3.234375q0 2.15625 -0.796875 3.28125q-0.78125 1.125 -2.296875 1.125q-1.5 0 -2.296875 -1.109375q-0.78125 -1.125 -0.78125 -3.296875q0 -2.125 0.78125 -3.21875q0.78125 -1.109375 2.296875 -1.109375zm-1.375 4.34375q0 1.296875 0.171875 1.890625q0.1875 0.578125 0.484375 0.84375q0.296875 0.25 0.71875 0.25q0.671875 0 1.03125 -0.65625q0.359375 -0.671875 0.359375 -2.34375q0 -1.609375 -0.359375 -2.265625q-0.359375 -0.671875 -1.046875 -0.671875q-0.640625 0 -1.0 0.640625q-0.359375 0.640625 -0.359375 2.3125z" fill-rule="nonzero"/><path fill="#dc477d" d="m410.22897 171.80498l0 0c0 -2.140213 1.7349854 -3.8751984 3.875183 -3.8751984l131.77719 0c1.027771 0 2.0134277 0.40827942 2.7401733 1.135025c0.7267456 0.7267456 1.1350098 1.7124176 1.1350098 2.7401733l0 131.74568c0 2.1401978 -1.7349854 3.875183 -3.875183 3.875183l-131.77719 0c-2.1401978 0 -3.875183 -1.7349854 -3.875183 -3.875183z" fill-rule="evenodd"/><path fill="#ffffff" d="m480.32278 276.7004c-21.49179 0.017822266 -38.92862 -17.445496 -38.946167 -39.004776c-0.01751709 -21.559433 17.39087 -39.050903 38.88266 -39.068512c9.776459 -0.007949829 19.197723 3.6757202 26.390045 10.3185425l0 0l-9.234924 9.691437l0 0c-10.479095 -9.499252 -26.650635 -8.678162 -36.12021 1.8338928c-9.469482 10.511993 -8.6510315 26.73442 1.828125 36.23369c9.737335 8.826843 24.554749 8.826843 34.292084 0l0 0l9.234924 9.691437l0 0c-7.1712036 6.6343994 -16.571411 10.313568 -26.326538 10.304291z" fill-rule="evenodd"/><path fill="#ffffff" d="m511.63623 257.17496c-1.7615662 0 -3.1895752 -1.4324493 -3.1895752 -3.1995544c0 -1.7671814 1.428009 -3.199646 3.1895752 -3.199646c1.7617188 0 3.1895752 1.4324646 3.1895752 3.199646c-0.004272461 1.7654724 -1.4299316 3.1956787 -3.1895752 3.1995544z" fill-rule="evenodd"/><path fill="#ffffff" d="m480.07416 246.12247c-4.653015 0 -8.425049 -3.783905 -8.425049 -8.451538c0 -4.6676483 3.7720337 -8.451553 8.425049 -8.451553c4.6530457 0 8.425049 3.783905 8.425049 8.451553c-0.00390625 4.6660004 -3.7736206 8.447556 -8.425049 8.451538z" fill-rule="evenodd"/><path fill="#ffffff" d="m515.2876 246.24358c-1.7617188 0 -3.1895752 -1.4324646 -3.1895752 -3.1995544c0 -1.7671814 1.4278564 -3.199646 3.1895752 -3.199646c1.7617188 0 3.1895752 1.4324646 3.1895752 3.199646c-0.004272461 1.7654572 -1.4299927 3.1956635 -3.1895752 3.1995544z" fill-rule="evenodd"/><path fill="#ffffff" d="m505.8111 245.88016c-1.7615967 0 -3.1896057 -1.4324646 -3.1896057 -3.1995544c0 -1.7671814 1.428009 -3.199646 3.1896057 -3.199646c1.7615662 0 3.1895752 1.4324646 3.1895752 3.199646c0 1.7670898 -1.428009 3.1995544 -3.1895752 3.1995544z" fill-rule="evenodd"/><path fill="#ffffff" d="m515.2876 235.49031c-1.7617188 0 -3.1895752 -1.4324646 -3.1895752 -3.1995697c0 -1.7671814 1.4278564 -3.199646 3.1895752 -3.199646c1.7617188 0 3.1895752 1.4324646 3.1895752 3.199646c-0.004272461 1.7654724 -1.4299927 3.1956635 -3.1895752 3.1995697z" fill-rule="evenodd"/><path fill="#ffffff" d="m505.8111 235.85379c-1.7615967 0 -3.1896057 -1.4325409 -3.1896057 -3.1995697c0 -1.7671814 1.4281006 -3.199646 3.1896057 -3.199646c1.7615662 0 3.1895752 1.4325409 3.1895752 3.199646c0 0.0023345947 0 0.0047454834 0 0.007095337c-0.00390625 1.7643738 -1.4307556 3.1924744 -3.1895752 3.1924744z" fill-rule="evenodd"/><path fill="#ffffff" d="m511.82086 224.72997c-1.7614746 0.003982544 -3.1927795 -1.4253693 -3.1966858 -3.1924744c-0.0038757324 -1.7670135 1.420929 -3.202835 3.182495 -3.206726c1.7617493 -0.00390625 3.1924133 1.4254456 3.1966858 3.1924744c0 0.0023345947 0 0.0048217773 0 0.007171631c0 1.7642975 -1.423584 3.1956635 -3.182495 3.1995544z" fill-rule="evenodd"/><path fill="#000000" fill-opacity="0.0" d="m398.07074 310.23444l163.84253 0l0 64.409424l-163.84253 0z" fill-rule="evenodd"/><path fill="#000000" d="m444.3543 314.9888q1.453125 0 2.484375 0.828125q1.03125 0.8125 1.203125 2.25l-1.8125 0q-0.125 -0.671875 -0.671875 -1.078125q-0.546875 -0.421875 -1.203125 -0.421875q-1.109375 0 -1.71875 0.8125q-0.609375 0.796875 -0.609375 2.125q0 1.265625 0.59375 2.0625q0.609375 0.796875 1.734375 0.796875q0.8125 0 1.3125 -0.5q0.515625 -0.5 0.625 -1.40625l1.828125 0q-0.15625 1.625 -1.1875 2.5625q-1.015625 0.9375 -2.578125 0.9375q-1.234375 0 -2.203125 -0.5625q-0.96875 -0.5625 -1.5 -1.59375q-0.515625 -1.03125 -0.515625 -2.296875q0 -1.96875 1.15625 -3.234375q1.15625 -1.28125 3.0625 -1.28125zm7.8789062 2.390625q1.46875 0 2.34375 0.90625q0.875 0.890625 0.875 2.375q0 1.484375 -0.890625 2.375q-0.875 0.890625 -2.328125 0.890625q-1.4375 0 -2.328125 -0.890625q-0.875 -0.90625 -0.875 -2.375q0 -1.46875 0.859375 -2.375q0.875 -0.90625 2.34375 -0.90625zm-1.5 3.28125q0 0.984375 0.40625 1.484375q0.40625 0.5 1.09375 0.5q0.734375 0 1.125 -0.515625q0.390625 -0.53125 0.390625 -1.46875q0 -0.921875 -0.390625 -1.453125q-0.375 -0.546875 -1.125 -0.546875q-0.6875 0 -1.09375 0.5q-0.40625 0.5 -0.40625 1.5zm9.376953 -3.28125q1.1875 0 1.71875 0.609375q0.546875 0.59375 0.546875 1.890625l0 3.875l-1.703125 0l0 -3.5625q0 -0.71875 -0.25 -1.09375q-0.25 -0.375 -0.84375 -0.375q-0.703125 0 -1.015625 0.421875q-0.3125 0.421875 -0.3125 1.296875l0 3.3125l-1.6875 0l0 -6.203125l1.609375 0l0 0.859375l0.03125 0q0.3125 -0.5 0.8125 -0.765625q0.5 -0.265625 1.09375 -0.265625zm6.0976562 0q1.265625 0 1.953125 0.5q0.703125 0.5 0.796875 1.484375l-1.625 0q-0.046875 -0.4375 -0.34375 -0.640625q-0.28125 -0.203125 -0.828125 -0.203125q-0.484375 0 -0.71875 0.15625q-0.21875 0.140625 -0.21875 0.421875q0 0.28125 0.296875 0.46875q0.296875 0.1875 1.1875 0.359375q1.421875 0.265625 1.90625 0.703125q0.5 0.4375 0.5 1.140625q0 1.046875 -0.78125 1.609375q-0.765625 0.546875 -2.046875 0.546875q-1.296875 0 -2.078125 -0.546875q-0.78125 -0.546875 -0.84375 -1.640625l1.625 0q0 0.484375 0.375 0.765625q0.375 0.28125 0.9375 0.28125q0.5 0 0.796875 -0.21875q0.3125 -0.21875 0.3125 -0.578125q0 -0.328125 -0.40625 -0.53125q-0.390625 -0.203125 -1.46875 -0.421875q-1.078125 -0.21875 -1.546875 -0.609375q-0.46875 -0.390625 -0.46875 -1.0625q0 -0.984375 0.6875 -1.484375q0.703125 -0.5 2.0 -0.5zm5.6015625 0.171875l0 3.546875q0 0.703125 0.25 1.09375q0.25 0.390625 0.859375 0.390625q0.703125 0 1.0 -0.421875q0.3125 -0.4375 0.3125 -1.296875l0 -3.3125l1.703125 0l0 6.203125l-1.625 0l0 -0.859375l-0.03125 0q-0.328125 0.515625 -0.84375 0.78125q-0.5 0.25 -1.0625 0.25q-1.15625 0 -1.703125 -0.59375q-0.546875 -0.59375 -0.546875 -1.90625l0 -3.875l1.6875 0zm7.1757812 -2.359375l0 8.5625l-1.703125 0l0 -8.5625l1.703125 0zm7.8027344 -0.203125q1.546875 0 2.484375 0.71875q0.9375 0.71875 0.9375 2.03125l-1.8125 0q-0.046875 -0.640625 -0.453125 -0.96875q-0.390625 -0.328125 -1.234375 -0.328125q-0.578125 0 -0.953125 0.265625q-0.359375 0.25 -0.359375 0.71875q0 0.3125 0.15625 0.46875q0.15625 0.15625 0.625 0.34375q0.46875 0.171875 2.0625 0.546875q1.0625 0.25 1.65625 0.875q0.609375 0.609375 0.609375 1.546875q0 1.25 -0.9375 2.0q-0.9375 0.75 -2.625 0.75q-1.609375 0 -2.640625 -0.796875q-1.015625 -0.796875 -1.015625 -2.203125l0 -0.046875l1.828125 0q0 0.796875 0.515625 1.1875q0.53125 0.390625 1.375 0.390625q0.765625 0 1.21875 -0.265625q0.453125 -0.28125 0.453125 -0.796875q0 -0.421875 -0.359375 -0.6875q-0.34375 -0.265625 -1.109375 -0.453125q-0.984375 -0.21875 -1.78125 -0.46875q-0.796875 -0.25 -1.328125 -0.8125q-0.53125 -0.5625 -0.53125 -1.4375q0 -1.15625 0.921875 -1.859375q0.9375 -0.71875 2.296875 -0.71875zm7.5214844 2.390625q1.375 0 2.203125 0.953125q0.828125 0.9375 0.828125 2.421875l-0.015625 0.3125l-4.484375 0q0.046875 0.796875 0.421875 1.1875q0.390625 0.390625 1.09375 0.390625q0.46875 0 0.859375 -0.234375q0.390625 -0.25 0.5 -0.578125l1.5 0q-0.34375 1.046875 -1.0625 1.578125q-0.71875 0.515625 -1.84375 0.515625q-1.4375 0 -2.3125 -0.90625q-0.859375 -0.90625 -0.859375 -2.359375q0 -1.390625 0.890625 -2.328125q0.890625 -0.953125 2.28125 -0.953125zm-1.46875 2.609375l2.78125 0q-0.125 -0.6875 -0.453125 -1.0q-0.3125 -0.328125 -0.921875 -0.328125q-0.609375 0 -0.984375 0.359375q-0.359375 0.34375 -0.421875 0.96875zm9.109375 -2.609375q0.109375 0 0.203125 0.015625q0.09375 0.015625 0.171875 0.046875l0 1.578125q-0.140625 -0.03125 -0.28125 -0.03125q-0.140625 -0.015625 -0.328125 -0.015625q-0.859375 0 -1.28125 0.53125q-0.40625 0.515625 -0.40625 1.40625l0 2.84375l-1.6875 0l0 -6.203125l1.609375 0l0 1.15625l0.03125 0q0.265625 -0.609375 0.796875 -0.96875q0.546875 -0.359375 1.171875 -0.359375zm2.3945312 0.171875l1.3125 4.234375l0.03125 0l1.296875 -4.234375l1.703125 0l-2.109375 6.203125l-1.890625 0l-2.125 -6.203125l1.78125 0zm7.9121094 -0.171875q1.375 0 2.203125 0.953125q0.828125 0.9375 0.828125 2.421875l-0.015625 0.3125l-4.484375 0q0.046875 0.796875 0.421875 1.1875q0.390625 0.390625 1.09375 0.390625q0.46875 0 0.859375 -0.234375q0.390625 -0.25 0.5 -0.578125l1.5 0q-0.34375 1.046875 -1.0625 1.578125q-0.71875 0.515625 -1.84375 0.515625q-1.4375 0 -2.3125 -0.90625q-0.859375 -0.90625 -0.859375 -2.359375q0 -1.390625 0.890625 -2.328125q0.890625 -0.953125 2.28125 -0.953125zm-1.46875 2.609375l2.78125 0q-0.125 -0.6875 -0.453125 -1.0q-0.3125 -0.328125 -0.921875 -0.328125q-0.609375 0 -0.984375 0.359375q-0.359375 0.34375 -0.421875 0.96875zm9.109375 -2.609375q0.109375 0 0.203125 0.015625q0.09375 0.015625 0.171875 0.046875l0 1.578125q-0.140625 -0.03125 -0.28125 -0.03125q-0.140625 -0.015625 -0.328125 -0.015625q-0.859375 0 -1.28125 0.53125q-0.40625 0.515625 -0.40625 1.40625l0 2.84375l-1.6875 0l0 -6.203125l1.609375 0l0 1.15625l0.03125 0q0.265625 -0.609375 0.796875 -0.96875q0.546875 -0.359375 1.171875 -0.359375z" fill-rule="nonzero"/><path fill="#000000" d="m460.29767 328.9888q-0.640625 1.1875 -0.984375 2.578125q-0.328125 1.390625 -0.328125 2.859375q0 1.46875 0.3125 2.84375q0.3125 1.359375 0.984375 2.671875l-1.421875 0q-0.765625 -1.28125 -1.171875 -2.671875q-0.40625 -1.390625 -0.40625 -2.734375q0 -1.390625 0.40625 -2.90625q0.40625 -1.515625 1.171875 -2.640625l1.4375 0zm2.6289062 0.203125l0 6.984375l4.171875 0l0 1.578125l-6.0625 0l0 -8.5625l1.890625 0zm7.6933594 2.1875q1.375 0 2.203125 0.953125q0.828125 0.9375 0.828125 2.421875l-0.015625 0.3125l-4.484375 0q0.046875 0.796875 0.421875 1.1875q0.390625 0.390625 1.09375 0.390625q0.46875 0 0.859375 -0.234375q0.390625 -0.25 0.5 -0.578125l1.5 0q-0.34375 1.046875 -1.0625 1.578125q-0.71875 0.515625 -1.84375 0.515625q-1.4375 0 -2.3125 -0.90625q-0.859375 -0.90625 -0.859375 -2.359375q0 -1.390625 0.890625 -2.328125q0.890625 -0.953125 2.28125 -0.953125zm-1.46875 2.609375l2.78125 0q-0.125 -0.6875 -0.453125 -1.0q-0.3125 -0.328125 -0.921875 -0.328125q-0.609375 0 -0.984375 0.359375q-0.359375 0.34375 -0.421875 0.96875zm8.34375 -2.609375q1.375 0 2.046875 0.453125q0.671875 0.453125 0.671875 1.28125l0 3.328125q0 0.375 0.046875 0.75q0.046875 0.375 0.171875 0.5625l-1.734375 0q-0.046875 -0.140625 -0.078125 -0.28125q-0.03125 -0.15625 -0.046875 -0.3125q-0.359375 0.375 -0.890625 0.578125q-0.515625 0.1875 -1.1875 0.1875q-0.96875 0 -1.546875 -0.484375q-0.5625 -0.484375 -0.5625 -1.375q0 -0.875 0.53125 -1.328125q0.546875 -0.46875 1.96875 -0.625q0.984375 -0.09375 1.296875 -0.234375q0.328125 -0.15625 0.328125 -0.53125q0 -0.40625 -0.25 -0.609375q-0.234375 -0.21875 -0.84375 -0.21875q-0.53125 0 -0.8125 0.234375q-0.28125 0.21875 -0.328125 0.703125l-1.703125 0q0.0625 -1.015625 0.828125 -1.546875q0.78125 -0.53125 2.09375 -0.53125zm-1.40625 4.609375q0 0.375 0.25 0.59375q0.25 0.203125 0.796875 0.203125q0.671875 0 1.015625 -0.359375q0.359375 -0.359375 0.359375 -1.046875l0 -0.65625q-0.15625 0.125 -0.40625 0.1875q-0.25 0.046875 -0.890625 0.140625q-0.59375 0.078125 -0.859375 0.3125q-0.265625 0.21875 -0.265625 0.625zm11.5 -6.796875l0 8.5625l-1.625 0l0 -0.796875l-0.03125 0q-0.265625 0.484375 -0.75 0.734375q-0.484375 0.234375 -1.125 0.234375q-1.265625 0 -2.03125 -0.9375q-0.75 -0.9375 -0.75 -2.390625q0 -1.390625 0.734375 -2.296875q0.75 -0.921875 2.015625 -0.921875q0.578125 0 1.046875 0.234375q0.484375 0.234375 0.78125 0.6875l0.03125 0l0 -3.109375l1.703125 0zm-4.609375 5.453125q0 0.859375 0.390625 1.4375q0.40625 0.5625 1.109375 0.5625q0.703125 0 1.078125 -0.515625q0.375 -0.53125 0.375 -1.5q0 -0.90625 -0.375 -1.4375q-0.359375 -0.53125 -1.09375 -0.53125q-0.703125 0 -1.09375 0.53125q-0.390625 0.53125 -0.390625 1.453125zm8.751953 -3.265625q1.375 0 2.203125 0.953125q0.828125 0.9375 0.828125 2.421875l-0.015625 0.3125l-4.484375 0q0.046875 0.796875 0.421875 1.1875q0.390625 0.390625 1.09375 0.390625q0.46875 0 0.859375 -0.234375q0.390625 -0.25 0.5 -0.578125l1.5 0q-0.34375 1.046875 -1.0625 1.578125q-0.71875 0.515625 -1.84375 0.515625q-1.4375 0 -2.3125 -0.90625q-0.859375 -0.90625 -0.859375 -2.359375q0 -1.390625 0.890625 -2.328125q0.890625 -0.953125 2.28125 -0.953125zm-1.46875 2.609375l2.78125 0q-0.125 -0.6875 -0.453125 -1.0q-0.3125 -0.328125 -0.921875 -0.328125q-0.609375 0 -0.984375 0.359375q-0.359375 0.34375 -0.421875 0.96875zm9.109375 -2.609375q0.109375 0 0.203125 0.015625q0.09375 0.015625 0.171875 0.046875l0 1.578125q-0.140625 -0.03125 -0.28125 -0.03125q-0.140625 -0.015625 -0.328125 -0.015625q-0.859375 0 -1.28125 0.53125q-0.40625 0.515625 -0.40625 1.40625l0 2.84375l-1.6875 0l0 -6.203125l1.609375 0l0 1.15625l0.03125 0q0.265625 -0.609375 0.796875 -0.96875q0.546875 -0.359375 1.171875 -0.359375zm1.7480469 -2.390625q0.78125 1.265625 1.1875 2.65625q0.40625 1.390625 0.40625 2.75q0 1.375 -0.421875 2.90625q-0.40625 1.515625 -1.171875 2.640625l-1.421875 0q0.65625 -1.25 0.96875 -2.609375q0.328125 -1.375 0.328125 -2.8125q0 -1.5 -0.328125 -2.875q-0.3125 -1.390625 -0.96875 -2.65625l1.421875 0z" fill-rule="nonzero"/><path fill="#000000" fill-opacity="0.0" d="m578.2034 277.1993l180.22046 0.62991333" fill-rule="evenodd"/><path stroke="#e03875" stroke-width="2.0" stroke-miterlimit="400.0" stroke-linecap="butt" d="m578.2034 277.19928l168.22052 0.5880127" fill-rule="evenodd"/><path fill="#e03875" stroke="#e03875" stroke-width="2.0" stroke-linecap="butt" d="m746.4124 281.0907l9.0877075 -3.271698l-9.064636 -3.3351746z" fill-rule="evenodd"/><path fill="#000000" fill-opacity="0.0" d="m588.4536 239.96959l163.84247 0l0 34.204727l-163.84247 0z" fill-rule="evenodd"/><path fill="#000000" d="m643.5662 244.92708q1.03125 0 1.734375 0.671875q0.71875 0.65625 0.71875 1.6875q0 0.8125 -0.34375 1.34375q-0.328125 0.53125 -1.015625 0.796875l0 0.03125q0.609375 0.15625 0.921875 0.71875q0.328125 0.5625 0.359375 1.71875q0.03125 1.171875 0.328125 1.59375l-1.875 0q-0.171875 -0.421875 -0.234375 -1.34375q-0.078125 -1.265625 -0.421875 -1.625q-0.328125 -0.375 -1.03125 -0.375l-1.921875 0l0 3.34375l-1.890625 0l0 -8.5625l4.671875 0zm-0.6875 3.875q0.59375 0 0.921875 -0.28125q0.34375 -0.296875 0.34375 -0.953125q0 -0.609375 -0.328125 -0.890625q-0.3125 -0.296875 -0.9375 -0.296875l-2.09375 0l0 2.421875l2.09375 0zm7.3691406 -1.6875q1.375 0 2.203125 0.953125q0.828125 0.9375 0.828125 2.421875l-0.015625 0.3125l-4.484375 0q0.046875 0.796875 0.421875 1.1875q0.390625 0.390625 1.09375 0.390625q0.46875 0 0.859375 -0.234375q0.390625 -0.25 0.5 -0.578125l1.5 0q-0.34375 1.046875 -1.0625 1.578125q-0.71875 0.515625 -1.84375 0.515625q-1.4375 0 -2.3125 -0.90625q-0.859375 -0.90625 -0.859375 -2.359375q0 -1.390625 0.890625 -2.328125q0.890625 -0.953125 2.28125 -0.953125zm-1.46875 2.609375l2.78125 0q-0.125 -0.6875 -0.453125 -1.0q-0.3125 -0.328125 -0.921875 -0.328125q-0.609375 0 -0.984375 0.359375q-0.359375 0.34375 -0.421875 0.96875zm8.984375 -2.609375q1.328125 0 2.078125 0.921875q0.75 0.921875 0.75 2.421875q0 1.375 -0.75 2.296875q-0.734375 0.90625 -1.984375 0.90625q-0.5625 0 -1.0625 -0.234375q-0.484375 -0.25 -0.796875 -0.703125l-0.03125 0l0 2.953125l-1.6875 0l0 -8.390625l1.609375 0l0 0.78125l0.03125 0q0.296875 -0.484375 0.765625 -0.71875q0.484375 -0.234375 1.078125 -0.234375zm-1.84375 3.296875q0 0.890625 0.375 1.4375q0.375 0.53125 1.109375 0.53125q0.703125 0 1.078125 -0.515625q0.390625 -0.515625 0.390625 -1.453125q0 -0.890625 -0.375 -1.453125q-0.375 -0.5625 -1.125 -0.5625q-0.703125 0 -1.078125 0.53125q-0.375 0.53125 -0.375 1.484375zm7.439453 -5.484375l0 8.5625l-1.703125 0l0 -8.5625l1.703125 0zm3.09375 0l0 1.390625l-1.703125 0l0 -1.390625l1.703125 0zm0 2.359375l0 6.203125l-1.703125 0l0 -6.203125l1.703125 0zm4.3125 -0.171875q1.203125 0 2.015625 0.625q0.828125 0.625 0.90625 1.734375l-1.671875 0q-0.078125 -0.53125 -0.40625 -0.796875q-0.3125 -0.28125 -0.859375 -0.28125q-0.6875 0 -1.078125 0.5625q-0.375 0.5625 -0.375 1.453125q0 0.890625 0.375 1.4375q0.375 0.53125 1.046875 0.53125q0.5625 0 0.90625 -0.328125q0.359375 -0.328125 0.453125 -0.9375l1.640625 0q-0.171875 1.21875 -0.96875 1.890625q-0.78125 0.65625 -2.015625 0.65625q-1.390625 0 -2.265625 -0.890625q-0.875 -0.890625 -0.875 -2.296875q0 -1.5 0.859375 -2.421875q0.859375 -0.9375 2.3125 -0.9375zm6.765625 0q1.375 0 2.046875 0.453125q0.671875 0.453125 0.671875 1.28125l0 3.328125q0 0.375 0.046875 0.75q0.046875 0.375 0.171875 0.5625l-1.734375 0q-0.046875 -0.140625 -0.078125 -0.28125q-0.03125 -0.15625 -0.046875 -0.3125q-0.359375 0.375 -0.890625 0.578125q-0.515625 0.1875 -1.1875 0.1875q-0.96875 0 -1.546875 -0.484375q-0.5625 -0.484375 -0.5625 -1.375q0 -0.875 0.53125 -1.328125q0.546875 -0.46875 1.96875 -0.625q0.984375 -0.09375 1.296875 -0.234375q0.328125 -0.15625 0.328125 -0.53125q0 -0.40625 -0.25 -0.609375q-0.234375 -0.21875 -0.84375 -0.21875q-0.53125 0 -0.8125 0.234375q-0.28125 0.21875 -0.328125 0.703125l-1.703125 0q0.0625 -1.015625 0.828125 -1.546875q0.78125 -0.53125 2.09375 -0.53125zm-1.40625 4.609375q0 0.375 0.25 0.59375q0.25 0.203125 0.796875 0.203125q0.671875 0 1.015625 -0.359375q0.359375 -0.359375 0.359375 -1.046875l0 -0.65625q-0.15625 0.125 -0.40625 0.1875q-0.25 0.046875 -0.890625 0.140625q-0.59375 0.078125 -0.859375 0.3125q-0.265625 0.21875 -0.265625 0.625zm7.609375 -6.296875l0 1.859375l1.25 0l0 1.140625l-1.25 0l0 3.109375q0 0.375 0.140625 0.53125q0.140625 0.15625 0.578125 0.15625q0.140625 0 0.265625 -0.015625q0.140625 -0.015625 0.265625 -0.03125l0 1.328125q-0.21875 0.03125 -0.484375 0.046875q-0.25 0.015625 -0.5 0.015625q-1.109375 0 -1.546875 -0.375q-0.421875 -0.390625 -0.421875 -1.0625l0 -3.703125l-1.03125 0l0 -1.140625l1.03125 0l0 -1.859375l1.703125 0zm3.8183594 -0.5l0 1.390625l-1.703125 0l0 -1.390625l1.703125 0zm0 2.359375l0 6.203125l-1.703125 0l0 -6.203125l1.703125 0zm4.34375 -0.171875q1.46875 0 2.34375 0.90625q0.875 0.890625 0.875 2.375q0 1.484375 -0.890625 2.375q-0.875 0.890625 -2.328125 0.890625q-1.4375 0 -2.328125 -0.890625q-0.875 -0.90625 -0.875 -2.375q0 -1.46875 0.859375 -2.375q0.875 -0.90625 2.34375 -0.90625zm-1.5 3.28125q0 0.984375 0.40625 1.484375q0.40625 0.5 1.09375 0.5q0.734375 0 1.125 -0.515625q0.390625 -0.53125 0.390625 -1.46875q0 -0.921875 -0.390625 -1.453125q-0.375 -0.546875 -1.125 -0.546875q-0.6875 0 -1.09375 0.5q-0.40625 0.5 -0.40625 1.5zm9.376953 -3.28125q1.1875 0 1.71875 0.609375q0.546875 0.59375 0.546875 1.890625l0 3.875l-1.703125 0l0 -3.5625q0 -0.71875 -0.25 -1.09375q-0.25 -0.375 -0.84375 -0.375q-0.703125 0 -1.015625 0.421875q-0.3125 0.421875 -0.3125 1.296875l0 3.3125l-1.6875 0l0 -6.203125l1.609375 0l0 0.859375l0.03125 0q0.3125 -0.5 0.8125 -0.765625q0.5 -0.265625 1.09375 -0.265625z" fill-rule="nonzero"/><path fill="#000000" fill-opacity="0.0" d="m594.60297 280.7312l163.84253 0l0 34.204742l-163.84253 0z" fill-rule="evenodd"/><path fill="#000000" d="m656.18634 285.6887l0 1.578125l-2.5625 0l0 6.984375l-1.890625 0l0 -6.984375l-2.5625 0l0 -1.578125l7.015625 0zm4.4726562 -0.203125q1.453125 0 2.484375 0.828125q1.03125 0.8125 1.203125 2.25l-1.8125 0q-0.125 -0.671875 -0.671875 -1.078125q-0.546875 -0.421875 -1.203125 -0.421875q-1.109375 0 -1.71875 0.8125q-0.609375 0.796875 -0.609375 2.125q0 1.265625 0.59375 2.0625q0.609375 0.796875 1.734375 0.796875q0.8125 0 1.3125 -0.5q0.515625 -0.5 0.625 -1.40625l1.828125 0q-0.15625 1.625 -1.1875 2.5625q-1.015625 0.9375 -2.578125 0.9375q-1.234375 0 -2.203125 -0.5625q-0.96875 -0.5625 -1.5 -1.59375q-0.515625 -1.03125 -0.515625 -2.296875q0 -1.96875 1.15625 -3.234375q1.15625 -1.28125 3.0625 -1.28125zm8.972656 0.203125q1.34375 0 2.125 0.75q0.78125 0.75 0.78125 2.0q0 1.234375 -0.78125 1.984375q-0.78125 0.75 -2.125 0.75l-2.03125 0l0 3.078125l-1.890625 0l0 -8.5625l3.921875 0zm-0.515625 4.03125q0.8125 0 1.203125 -0.296875q0.390625 -0.3125 0.390625 -0.984375q0 -0.65625 -0.390625 -0.96875q-0.375 -0.328125 -1.203125 -0.328125l-1.515625 0l0 2.578125l1.515625 0zm8.347656 -4.234375l-3.34375 8.96875l-1.375 0l3.359375 -8.96875l1.359375 0zm3.234375 0.203125q1.296875 0 2.046875 0.703125q0.75 0.703125 0.75 1.546875q0 0.609375 -0.3125 1.078125q-0.296875 0.46875 -0.90625 0.6875l0 0.015625q0.78125 0.1875 1.171875 0.734375q0.390625 0.546875 0.390625 1.328125q0 1.203125 -0.90625 1.921875q-0.90625 0.71875 -2.234375 0.71875q-1.390625 0 -2.296875 -0.703125q-0.890625 -0.703125 -0.890625 -1.9375q0 -0.796875 0.40625 -1.328125q0.421875 -0.546875 1.171875 -0.734375l0 -0.015625q-0.59375 -0.171875 -0.921875 -0.625q-0.3125 -0.46875 -0.3125 -1.109375q0 -1.015625 0.828125 -1.640625q0.84375 -0.640625 2.015625 -0.640625zm-1.296875 2.4375q0 0.484375 0.359375 0.796875q0.359375 0.3125 0.921875 0.3125q0.578125 0 0.921875 -0.296875q0.34375 -0.296875 0.34375 -0.8125q0 -0.515625 -0.328125 -0.828125q-0.3125 -0.328125 -0.9375 -0.328125q-0.578125 0 -0.9375 0.328125q-0.34375 0.328125 -0.34375 0.828125zm-0.1875 3.578125q0 0.609375 0.421875 1.03125q0.4375 0.40625 1.0625 0.40625q0.625 0 1.03125 -0.40625q0.40625 -0.40625 0.40625 -1.015625q0 -0.578125 -0.421875 -0.953125q-0.40625 -0.390625 -1.03125 -0.390625q-0.609375 0 -1.046875 0.359375q-0.421875 0.34375 -0.421875 0.96875zm8.111328 -6.015625q1.140625 0 1.984375 0.65625q0.84375 0.65625 0.84375 1.671875q0 0.609375 -0.3125 1.078125q-0.296875 0.453125 -0.875 0.625l0 0.03125q0.703125 0.15625 1.09375 0.6875q0.40625 0.515625 0.40625 1.21875q0 1.234375 -0.90625 2.0q-0.90625 0.765625 -2.21875 0.765625q-1.421875 0 -2.28125 -0.796875q-0.84375 -0.8125 -0.84375 -2.171875l0 -0.09375l1.625 0q0.03125 0.78125 0.421875 1.21875q0.390625 0.4375 1.046875 0.4375q0.609375 0 0.984375 -0.375q0.390625 -0.390625 0.390625 -0.953125q0 -0.625 -0.375 -0.921875q-0.375 -0.3125 -1.390625 -0.3125l-0.1875 0l0 -1.203125l0.296875 0q0.71875 0 1.109375 -0.265625q0.390625 -0.28125 0.390625 -0.78125q0 -0.5 -0.34375 -0.8125q-0.328125 -0.3125 -0.84375 -0.3125q-0.578125 0 -0.9375 0.390625q-0.34375 0.375 -0.359375 1.109375l-1.625 0q0.046875 -1.3125 0.84375 -2.09375q0.796875 -0.796875 2.0625 -0.796875zm6.689453 0q1.5 0 2.296875 1.09375q0.796875 1.09375 0.796875 3.234375q0 2.15625 -0.796875 3.28125q-0.78125 1.125 -2.296875 1.125q-1.5 0 -2.296875 -1.109375q-0.78125 -1.125 -0.78125 -3.296875q0 -2.125 0.78125 -3.21875q0.78125 -1.109375 2.296875 -1.109375zm-1.375 4.34375q0 1.296875 0.171875 1.890625q0.1875 0.578125 0.484375 0.84375q0.296875 0.25 0.71875 0.25q0.671875 0 1.03125 -0.65625q0.359375 -0.671875 0.359375 -2.34375q0 -1.609375 -0.359375 -2.265625q-0.359375 -0.671875 -1.046875 -0.671875q-0.640625 0 -1.0 0.640625q-0.359375 0.640625 -0.359375 2.3125zm8.048828 -4.34375q1.5 0 2.296875 1.09375q0.796875 1.09375 0.796875 3.234375q0 2.15625 -0.796875 3.28125q-0.78125 1.125 -2.296875 1.125q-1.5 0 -2.296875 -1.109375q-0.78125 -1.125 -0.78125 -3.296875q0 -2.125 0.78125 -3.21875q0.78125 -1.109375 2.296875 -1.109375zm-1.375 4.34375q0 1.296875 0.171875 1.890625q0.1875 0.578125 0.484375 0.84375q0.296875 0.25 0.71875 0.25q0.671875 0 1.03125 -0.65625q0.359375 -0.671875 0.359375 -2.34375q0 -1.609375 -0.359375 -2.265625q-0.359375 -0.671875 -1.046875 -0.671875q-0.640625 0 -1.0 0.640625q-0.359375 0.640625 -0.359375 2.3125z" fill-rule="nonzero"/><path fill="#000000" fill-opacity="0.0" d="m588.4536 166.15756l163.84247 0l0 64.031494l-163.84247 0z" fill-rule="evenodd"/><path fill="#000000" d="m619.2137 171.11507l0 6.984375l4.171875 0l0 1.578125l-6.0625 0l0 -8.5625l1.890625 0zm7.6933594 2.1875q1.375 0 2.203125 0.953125q0.828125 0.9375 0.828125 2.421875l-0.015625 0.3125l-4.484375 0q0.046875 0.796875 0.421875 1.1875q0.390625 0.390625 1.09375 0.390625q0.46875 0 0.859375 -0.234375q0.390625 -0.25 0.5 -0.578125l1.5 0q-0.34375 1.046875 -1.0625 1.578125q-0.71875 0.515625 -1.84375 0.515625q-1.4375 0 -2.3125 -0.90625q-0.859375 -0.90625 -0.859375 -2.359375q0 -1.390625 0.890625 -2.328125q0.890625 -0.953125 2.28125 -0.953125zm-1.46875 2.609375l2.78125 0q-0.125 -0.6875 -0.453125 -1.0q-0.3125 -0.328125 -0.921875 -0.328125q-0.609375 0 -0.984375 0.359375q-0.359375 0.34375 -0.421875 0.96875zm8.34375 -2.609375q1.375 0 2.046875 0.453125q0.671875 0.453125 0.671875 1.28125l0 3.328125q0 0.375 0.046875 0.75q0.046875 0.375 0.171875 0.5625l-1.734375 0q-0.046875 -0.140625 -0.078125 -0.28125q-0.03125 -0.15625 -0.046875 -0.3125q-0.359375 0.375 -0.890625 0.578125q-0.515625 0.1875 -1.1875 0.1875q-0.96875 0 -1.546875 -0.484375q-0.5625 -0.484375 -0.5625 -1.375q0 -0.875 0.53125 -1.328125q0.546875 -0.46875 1.96875 -0.625q0.984375 -0.09375 1.296875 -0.234375q0.328125 -0.15625 0.328125 -0.53125q0 -0.40625 -0.25 -0.609375q-0.234375 -0.21875 -0.84375 -0.21875q-0.53125 0 -0.8125 0.234375q-0.28125 0.21875 -0.328125 0.703125l-1.703125 0q0.0625 -1.015625 0.828125 -1.546875q0.78125 -0.53125 2.09375 -0.53125zm-1.40625 4.609375q0 0.375 0.25 0.59375q0.25 0.203125 0.796875 0.203125q0.671875 0 1.015625 -0.359375q0.359375 -0.359375 0.359375 -1.046875l0 -0.65625q-0.15625 0.125 -0.40625 0.1875q-0.25 0.046875 -0.890625 0.140625q-0.59375 0.078125 -0.859375 0.3125q-0.265625 0.21875 -0.265625 0.625zm11.5 -6.796875l0 8.5625l-1.625 0l0 -0.796875l-0.03125 0q-0.265625 0.484375 -0.75 0.734375q-0.484375 0.234375 -1.125 0.234375q-1.265625 0 -2.03125 -0.9375q-0.75 -0.9375 -0.75 -2.390625q0 -1.390625 0.734375 -2.296875q0.75 -0.921875 2.015625 -0.921875q0.578125 0 1.046875 0.234375q0.484375 0.234375 0.78125 0.6875l0.03125 0l0 -3.109375l1.703125 0zm-4.609375 5.453125q0 0.859375 0.390625 1.4375q0.40625 0.5625 1.109375 0.5625q0.703125 0 1.078125 -0.515625q0.375 -0.53125 0.375 -1.5q0 -0.90625 -0.375 -1.4375q-0.359375 -0.53125 -1.09375 -0.53125q-0.703125 0 -1.09375 0.53125q-0.390625 0.53125 -0.390625 1.453125zm8.751953 -3.265625q1.375 0 2.203125 0.953125q0.828125 0.9375 0.828125 2.421875l-0.015625 0.3125l-4.484375 0q0.046875 0.796875 0.421875 1.1875q0.390625 0.390625 1.09375 0.390625q0.46875 0 0.859375 -0.234375q0.390625 -0.25 0.5 -0.578125l1.5 0q-0.34375 1.046875 -1.0625 1.578125q-0.71875 0.515625 -1.84375 0.515625q-1.4375 0 -2.3125 -0.90625q-0.859375 -0.90625 -0.859375 -2.359375q0 -1.390625 0.890625 -2.328125q0.890625 -0.953125 2.28125 -0.953125zm-1.46875 2.609375l2.78125 0q-0.125 -0.6875 -0.453125 -1.0q-0.3125 -0.328125 -0.921875 -0.328125q-0.609375 0 -0.984375 0.359375q-0.359375 0.34375 -0.421875 0.96875zm9.109375 -2.609375q0.109375 0 0.203125 0.015625q0.09375 0.015625 0.171875 0.046875l0 1.578125q-0.140625 -0.03125 -0.28125 -0.03125q-0.140625 -0.015625 -0.328125 -0.015625q-0.859375 0 -1.28125 0.53125q-0.40625 0.515625 -0.40625 1.40625l0 2.84375l-1.6875 0l0 -6.203125l1.609375 0l0 1.15625l0.03125 0q0.265625 -0.609375 0.796875 -0.96875q0.546875 -0.359375 1.171875 -0.359375zm10.582031 -2.1875l0 1.578125l-4.125 0l0 1.984375l3.578125 0l0 1.453125l-3.578125 0l0 3.546875l-1.890625 0l0 -8.5625l6.015625 0zm3.421875 2.1875q1.46875 0 2.34375 0.90625q0.875 0.890625 0.875 2.375q0 1.484375 -0.890625 2.375q-0.875 0.890625 -2.328125 0.890625q-1.4375 0 -2.328125 -0.890625q-0.875 -0.90625 -0.875 -2.375q0 -1.46875 0.859375 -2.375q0.875 -0.90625 2.34375 -0.90625zm-1.5 3.28125q0 0.984375 0.40625 1.484375q0.40625 0.5 1.09375 0.5q0.734375 0 1.125 -0.515625q0.390625 -0.53125 0.390625 -1.46875q0 -0.921875 -0.390625 -1.453125q-0.375 -0.546875 -1.125 -0.546875q-0.6875 0 -1.09375 0.5q-0.40625 0.5 -0.40625 1.5zm9.439453 -3.28125q0.109375 0 0.203125 0.015625q0.09375 0.015625 0.171875 0.046875l0 1.578125q-0.140625 -0.03125 -0.28125 -0.03125q-0.140625 -0.015625 -0.328125 -0.015625q-0.859375 0 -1.28125 0.53125q-0.40625 0.515625 -0.40625 1.40625l0 2.84375l-1.6875 0l0 -6.203125l1.609375 0l0 1.15625l0.03125 0q0.265625 -0.609375 0.796875 -0.96875q0.546875 -0.359375 1.171875 -0.359375zm2.4257812 0.171875l1.140625 4.203125l0.015625 0l1.03125 -4.203125l1.65625 0l1.0625 4.203125l0.015625 0l1.15625 -4.203125l1.75 0l-1.96875 6.203125l-1.75 0l-1.09375 -4.171875l-0.03125 0l-1.0625 4.171875l-1.75 0l-1.96875 -6.203125l1.796875 0zm11.392578 -0.171875q1.375 0 2.046875 0.453125q0.671875 0.453125 0.671875 1.28125l0 3.328125q0 0.375 0.046875 0.75q0.046875 0.375 0.171875 0.5625l-1.734375 0q-0.046875 -0.140625 -0.078125 -0.28125q-0.03125 -0.15625 -0.046875 -0.3125q-0.359375 0.375 -0.890625 0.578125q-0.515625 0.1875 -1.1875 0.1875q-0.96875 0 -1.546875 -0.484375q-0.5625 -0.484375 -0.5625 -1.375q0 -0.875 0.53125 -1.328125q0.546875 -0.46875 1.96875 -0.625q0.984375 -0.09375 1.296875 -0.234375q0.328125 -0.15625 0.328125 -0.53125q0 -0.40625 -0.25 -0.609375q-0.234375 -0.21875 -0.84375 -0.21875q-0.53125 0 -0.8125 0.234375q-0.28125 0.21875 -0.328125 0.703125l-1.703125 0q0.0625 -1.015625 0.828125 -1.546875q0.78125 -0.53125 2.09375 -0.53125zm-1.40625 4.609375q0 0.375 0.25 0.59375q0.25 0.203125 0.796875 0.203125q0.671875 0 1.015625 -0.359375q0.359375 -0.359375 0.359375 -1.046875l0 -0.65625q-0.15625 0.125 -0.40625 0.1875q-0.25 0.046875 -0.890625 0.140625q-0.59375 0.078125 -0.859375 0.3125q-0.265625 0.21875 -0.265625 0.625zm9.0625 -4.609375q0.109375 0 0.203125 0.015625q0.09375 0.015625 0.171875 0.046875l0 1.578125q-0.140625 -0.03125 -0.28125 -0.03125q-0.140625 -0.015625 -0.328125 -0.015625q-0.859375 0 -1.28125 0.53125q-0.40625 0.515625 -0.40625 1.40625l0 2.84375l-1.6875 0l0 -6.203125l1.609375 0l0 1.15625l0.03125 0q0.265625 -0.609375 0.796875 -0.96875q0.546875 -0.359375 1.171875 -0.359375zm7.013672 -2.1875l0 8.5625l-1.625 0l0 -0.796875l-0.03125 0q-0.265625 0.484375 -0.75 0.734375q-0.484375 0.234375 -1.125 0.234375q-1.265625 0 -2.03125 -0.9375q-0.75 -0.9375 -0.75 -2.390625q0 -1.390625 0.734375 -2.296875q0.75 -0.921875 2.015625 -0.921875q0.578125 0 1.046875 0.234375q0.484375 0.234375 0.78125 0.6875l0.03125 0l0 -3.109375l1.703125 0zm-4.609375 5.453125q0 0.859375 0.390625 1.4375q0.40625 0.5625 1.109375 0.5625q0.703125 0 1.078125 -0.515625q0.375 -0.53125 0.375 -1.5q0 -0.90625 -0.375 -1.4375q-0.359375 -0.53125 -1.09375 -0.53125q-0.703125 0 -1.09375 0.53125q-0.390625 0.53125 -0.390625 1.453125zm7.642578 -5.453125l0 1.390625l-1.703125 0l0 -1.390625l1.703125 0zm0 2.359375l0 6.203125l-1.703125 0l0 -6.203125l1.703125 0zm4.890625 -0.171875q1.1875 0 1.71875 0.609375q0.546875 0.59375 0.546875 1.890625l0 3.875l-1.703125 0l0 -3.5625q0 -0.71875 -0.25 -1.09375q-0.25 -0.375 -0.84375 -0.375q-0.703125 0 -1.015625 0.421875q-0.3125 0.421875 -0.3125 1.296875l0 3.3125l-1.6875 0l0 -6.203125l1.609375 0l0 0.859375l0.03125 0q0.3125 -0.5 0.8125 -0.765625q0.5 -0.265625 1.09375 -0.265625zm6.0352173 0q0.671875 0 1.109375 0.265625q0.453125 0.25 0.734375 0.734375l0.03125 0l0 -0.828125l1.609375 0l0 5.859375q0 1.25 -0.796875 1.96875q-0.796875 0.71875 -2.40625 0.71875q-1.09375 0 -1.890625 -0.53125q-0.78125 -0.515625 -0.859375 -1.453125l1.6875 0q0.125 0.453125 0.453125 0.65625q0.328125 0.203125 0.828125 0.203125q0.65625 0 1.015625 -0.40625q0.359375 -0.390625 0.359375 -1.09375l0 -0.859375l-0.03125 0q-0.25 0.453125 -0.75 0.703125q-0.484375 0.25 -1.109375 0.25q-1.25 0 -1.953125 -0.828125q-0.703125 -0.828125 -0.703125 -2.28125q0 -1.3125 0.734375 -2.1875q0.734375 -0.890625 1.9375 -0.890625zm-0.96875 3.046875q0 0.875 0.359375 1.375q0.375 0.484375 1.03125 0.484375q0.671875 0 1.0625 -0.484375q0.390625 -0.5 0.390625 -1.234375q0 -0.90625 -0.375 -1.40625q-0.375 -0.5 -1.09375 -0.5q-0.625 0 -1.0 0.484375q-0.375 0.484375 -0.375 1.28125z" fill-rule="nonzero"/><path fill="#000000" fill-opacity="0.0" d="m578.2034 229.66077l180.22046 0.6299286" fill-rule="evenodd"/><path stroke="#e03875" stroke-width="2.0" stroke-miterlimit="400.0" stroke-linecap="butt" d="m590.2033 229.70271l168.22058 0.58799744" fill-rule="evenodd"/><path fill="#e03875" stroke="#e03875" stroke-width="2.0" stroke-linecap="butt" d="m590.2149 226.39928l-9.0877075 3.2717285l9.064575 3.3351593z" fill-rule="evenodd"/><path fill="#dc477d" d="m786.891 176.1453l0 0c0 -2.1402283 1.7350464 -3.8752136 3.8752441 -3.8752136l131.77716 0c1.027771 0 2.0134277 0.40827942 2.7401733 1.135025c0.7267456 0.7267456 1.1350098 1.7124176 1.1350098 2.7401886l0 131.74567c0 2.1401978 -1.7349854 3.875183 -3.875183 3.875183l-131.77716 0c-2.1401978 0 -3.8752441 -1.7349854 -3.8752441 -3.875183z" fill-rule="evenodd"/><path fill="#ffffff" d="m856.98486 281.0407c-21.491821 0.017852783 -38.92865 -17.445496 -38.946167 -39.004776c-0.017578125 -21.559433 17.39087 -39.050903 38.88263 -39.068512c9.776489 -0.007949829 19.197693 3.6757202 26.390015 10.318558l0 0l-9.234863 9.691437l0 0c-10.479126 -9.499268 -26.650635 -8.678177 -36.12024 1.8338776c-9.469482 10.511993 -8.651062 26.73442 1.828125 36.23369c9.737366 8.826843 24.554749 8.826843 34.292114 0l0 0l9.234863 9.691437l0 0c-7.1712036 6.6343994 -16.571411 10.313568 -26.326477 10.304291z" fill-rule="evenodd"/><path fill="#ffffff" d="m888.2983 261.5153c-1.7615356 0 -3.1895752 -1.4324646 -3.1895752 -3.199585c0 -1.7671814 1.4280396 -3.199646 3.1895752 -3.199646c1.7617188 0 3.1895752 1.4324646 3.1895752 3.199646c-0.004272461 1.7654724 -1.4299316 3.1956787 -3.1895752 3.199585z" fill-rule="evenodd"/><path fill="#ffffff" d="m856.7362 250.46277c-4.653015 0 -8.425049 -3.783905 -8.425049 -8.451538c0 -4.6676483 3.7720337 -8.451553 8.425049 -8.451553c4.653076 0 8.425049 3.783905 8.425049 8.451553c-0.00390625 4.6660004 -3.7736206 8.447571 -8.425049 8.451538z" fill-rule="evenodd"/><path fill="#ffffff" d="m891.94965 250.58388c-1.7617188 0 -3.1895752 -1.4324646 -3.1895752 -3.1995544c0 -1.7671814 1.4278564 -3.199646 3.1895752 -3.199646c1.7617188 0 3.1895752 1.4324646 3.1895752 3.199646c-0.004272461 1.7654572 -1.4299316 3.1956635 -3.1895752 3.1995544z" fill-rule="evenodd"/><path fill="#ffffff" d="m882.47314 250.22046c-1.7615967 0 -3.1895752 -1.4324493 -3.1895752 -3.1995544c0 -1.7671814 1.4279785 -3.199646 3.1895752 -3.199646c1.7615356 0 3.1895752 1.4324646 3.1895752 3.199646c0 1.7671051 -1.4280396 3.1995544 -3.1895752 3.1995544z" fill-rule="evenodd"/><path fill="#ffffff" d="m891.94965 239.83061c-1.7617188 0 -3.1895752 -1.4324646 -3.1895752 -3.1995697c0 -1.7671814 1.4278564 -3.199646 3.1895752 -3.199646c1.7617188 0 3.1895752 1.4324646 3.1895752 3.199646c-0.004272461 1.7654724 -1.4299316 3.1956787 -3.1895752 3.1995697z" fill-rule="evenodd"/><path fill="#ffffff" d="m882.47314 240.19409c-1.7615967 0 -3.1895752 -1.4325409 -3.1895752 -3.1995697c0 -1.7671814 1.4281006 -3.199646 3.1895752 -3.199646c1.7615356 0 3.1895752 1.4325409 3.1895752 3.199646c0 0.0023345947 0 0.004760742 0 0.007095337c-0.00390625 1.7643738 -1.4307251 3.1924744 -3.1895752 3.1924744z" fill-rule="evenodd"/><path fill="#ffffff" d="m888.4829 229.07027c-1.7614746 0.003982544 -3.192749 -1.4253693 -3.1966553 -3.1924744c-0.00390625 -1.7670135 1.4208984 -3.202835 3.182495 -3.206726c1.7617188 -0.00390625 3.1923828 1.4254456 3.1966553 3.1924744c0 0.0023345947 0 0.0048217773 0 0.007171631c0 1.7642975 -1.423584 3.1956635 -3.182495 3.1995544z" fill-rule="evenodd"/><path fill="#000000" fill-opacity="0.0" d="m774.7328 314.57474l163.84253 0l0 64.409424l-163.84253 0z" fill-rule="evenodd"/><path fill="#000000" d="m821.01636 319.3291q1.453125 0 2.484375 0.828125q1.03125 0.8125 1.203125 2.25l-1.8125 0q-0.125 -0.671875 -0.671875 -1.078125q-0.546875 -0.421875 -1.203125 -0.421875q-1.109375 0 -1.71875 0.8125q-0.609375 0.796875 -0.609375 2.125q0 1.265625 0.59375 2.0625q0.609375 0.796875 1.734375 0.796875q0.8125 0 1.3125 -0.5q0.515625 -0.5 0.625 -1.40625l1.828125 0q-0.15625 1.625 -1.1875 2.5625q-1.015625 0.9375 -2.578125 0.9375q-1.234375 0 -2.203125 -0.5625q-0.96875 -0.5625 -1.5 -1.59375q-0.515625 -1.03125 -0.515625 -2.296875q0 -1.96875 1.15625 -3.234375q1.15625 -1.28125 3.0625 -1.28125zm7.8789062 2.390625q1.46875 0 2.34375 0.90625q0.875 0.890625 0.875 2.375q0 1.484375 -0.890625 2.375q-0.875 0.890625 -2.328125 0.890625q-1.4375 0 -2.328125 -0.890625q-0.875 -0.90625 -0.875 -2.375q0 -1.46875 0.859375 -2.375q0.875 -0.90625 2.34375 -0.90625zm-1.5 3.28125q0 0.984375 0.40625 1.484375q0.40625 0.5 1.09375 0.5q0.734375 0 1.125 -0.515625q0.390625 -0.53125 0.390625 -1.46875q0 -0.921875 -0.390625 -1.453125q-0.375 -0.546875 -1.125 -0.546875q-0.6875 0 -1.09375 0.5q-0.40625 0.5 -0.40625 1.5zm9.376953 -3.28125q1.1875 0 1.71875 0.609375q0.546875 0.59375 0.546875 1.890625l0 3.875l-1.703125 0l0 -3.5625q0 -0.71875 -0.25 -1.09375q-0.25 -0.375 -0.84375 -0.375q-0.703125 0 -1.015625 0.421875q-0.3125 0.421875 -0.3125 1.296875l0 3.3125l-1.6875 0l0 -6.203125l1.609375 0l0 0.859375l0.03125 0q0.3125 -0.5 0.8125 -0.765625q0.5 -0.265625 1.09375 -0.265625zm6.0976562 0q1.265625 0 1.953125 0.5q0.703125 0.5 0.796875 1.484375l-1.625 0q-0.046875 -0.4375 -0.34375 -0.640625q-0.28125 -0.203125 -0.828125 -0.203125q-0.484375 0 -0.71875 0.15625q-0.21875 0.140625 -0.21875 0.421875q0 0.28125 0.296875 0.46875q0.296875 0.1875 1.1875 0.359375q1.421875 0.265625 1.90625 0.703125q0.5 0.4375 0.5 1.140625q0 1.046875 -0.78125 1.609375q-0.765625 0.546875 -2.046875 0.546875q-1.296875 0 -2.078125 -0.546875q-0.78125 -0.546875 -0.84375 -1.640625l1.625 0q0 0.484375 0.375 0.765625q0.375 0.28125 0.9375 0.28125q0.5 0 0.796875 -0.21875q0.3125 -0.21875 0.3125 -0.578125q0 -0.328125 -0.40625 -0.53125q-0.390625 -0.203125 -1.46875 -0.421875q-1.078125 -0.21875 -1.546875 -0.609375q-0.46875 -0.390625 -0.46875 -1.0625q0 -0.984375 0.6875 -1.484375q0.703125 -0.5 2.0 -0.5zm5.6015625 0.171875l0 3.546875q0 0.703125 0.25 1.09375q0.25 0.390625 0.859375 0.390625q0.703125 0 1.0 -0.421875q0.3125 -0.4375 0.3125 -1.296875l0 -3.3125l1.703125 0l0 6.203125l-1.625 0l0 -0.859375l-0.03125 0q-0.328125 0.515625 -0.84375 0.78125q-0.5 0.25 -1.0625 0.25q-1.15625 0 -1.703125 -0.59375q-0.546875 -0.59375 -0.546875 -1.90625l0 -3.875l1.6875 0zm7.1757812 -2.359375l0 8.5625l-1.703125 0l0 -8.5625l1.703125 0zm7.8027344 -0.203125q1.546875 0 2.484375 0.71875q0.9375 0.71875 0.9375 2.03125l-1.8125 0q-0.046875 -0.640625 -0.453125 -0.96875q-0.390625 -0.328125 -1.234375 -0.328125q-0.578125 0 -0.953125 0.265625q-0.359375 0.25 -0.359375 0.71875q0 0.3125 0.15625 0.46875q0.15625 0.15625 0.625 0.34375q0.46875 0.171875 2.0625 0.546875q1.0625 0.25 1.65625 0.875q0.609375 0.609375 0.609375 1.546875q0 1.25 -0.9375 2.0q-0.9375 0.75 -2.625 0.75q-1.609375 0 -2.640625 -0.796875q-1.015625 -0.796875 -1.015625 -2.203125l0 -0.046875l1.828125 0q0 0.796875 0.515625 1.1875q0.53125 0.390625 1.375 0.390625q0.765625 0 1.21875 -0.265625q0.453125 -0.28125 0.453125 -0.796875q0 -0.421875 -0.359375 -0.6875q-0.34375 -0.265625 -1.109375 -0.453125q-0.984375 -0.21875 -1.78125 -0.46875q-0.796875 -0.25 -1.328125 -0.8125q-0.53125 -0.5625 -0.53125 -1.4375q0 -1.15625 0.921875 -1.859375q0.9375 -0.71875 2.296875 -0.71875zm7.5214844 2.390625q1.375 0 2.203125 0.953125q0.828125 0.9375 0.828125 2.421875l-0.015625 0.3125l-4.484375 0q0.046875 0.796875 0.421875 1.1875q0.390625 0.390625 1.09375 0.390625q0.46875 0 0.859375 -0.234375q0.390625 -0.25 0.5 -0.578125l1.5 0q-0.34375 1.046875 -1.0625 1.578125q-0.71875 0.515625 -1.84375 0.515625q-1.4375 0 -2.3125 -0.90625q-0.859375 -0.90625 -0.859375 -2.359375q0 -1.390625 0.890625 -2.328125q0.890625 -0.953125 2.28125 -0.953125zm-1.46875 2.609375l2.78125 0q-0.125 -0.6875 -0.453125 -1.0q-0.3125 -0.328125 -0.921875 -0.328125q-0.609375 0 -0.984375 0.359375q-0.359375 0.34375 -0.421875 0.96875zm9.109375 -2.609375q0.109375 0 0.203125 0.015625q0.09375 0.015625 0.171875 0.046875l0 1.578125q-0.140625 -0.03125 -0.28125 -0.03125q-0.140625 -0.015625 -0.328125 -0.015625q-0.859375 0 -1.28125 0.53125q-0.40625 0.515625 -0.40625 1.40625l0 2.84375l-1.6875 0l0 -6.203125l1.609375 0l0 1.15625l0.03125 0q0.265625 -0.609375 0.796875 -0.96875q0.546875 -0.359375 1.171875 -0.359375zm2.3945312 0.171875l1.3125 4.234375l0.03125 0l1.296875 -4.234375l1.703125 0l-2.109375 6.203125l-1.890625 0l-2.125 -6.203125l1.78125 0zm7.9121094 -0.171875q1.375 0 2.203125 0.953125q0.828125 0.9375 0.828125 2.421875l-0.015625 0.3125l-4.484375 0q0.046875 0.796875 0.421875 1.1875q0.390625 0.390625 1.09375 0.390625q0.46875 0 0.859375 -0.234375q0.390625 -0.25 0.5 -0.578125l1.5 0q-0.34375 1.046875 -1.0625 1.578125q-0.71875 0.515625 -1.84375 0.515625q-1.4375 0 -2.3125 -0.90625q-0.859375 -0.90625 -0.859375 -2.359375q0 -1.390625 0.890625 -2.328125q0.890625 -0.953125 2.28125 -0.953125zm-1.46875 2.609375l2.78125 0q-0.125 -0.6875 -0.453125 -1.0q-0.3125 -0.328125 -0.921875 -0.328125q-0.609375 0 -0.984375 0.359375q-0.359375 0.34375 -0.421875 0.96875zm9.109375 -2.609375q0.109375 0 0.203125 0.015625q0.09375 0.015625 0.171875 0.046875l0 1.578125q-0.140625 -0.03125 -0.28125 -0.03125q-0.140625 -0.015625 -0.328125 -0.015625q-0.859375 0 -1.28125 0.53125q-0.40625 0.515625 -0.40625 1.40625l0 2.84375l-1.6875 0l0 -6.203125l1.609375 0l0 1.15625l0.03125 0q0.265625 -0.609375 0.796875 -0.96875q0.546875 -0.359375 1.171875 -0.359375z" fill-rule="nonzero"/><path fill="#000000" d="m832.3513 333.3291q-0.640625 1.1875 -0.984375 2.578125q-0.328125 1.390625 -0.328125 2.859375q0 1.46875 0.3125 2.84375q0.3125 1.359375 0.984375 2.671875l-1.421875 0q-0.765625 -1.28125 -1.171875 -2.671875q-0.40625 -1.390625 -0.40625 -2.734375q0 -1.390625 0.40625 -2.90625q0.40625 -1.515625 1.171875 -2.640625l1.4375 0zm6.7539062 0.203125l0 1.578125l-4.125 0l0 1.984375l3.578125 0l0 1.453125l-3.578125 0l0 3.546875l-1.890625 0l0 -8.5625l6.015625 0zm3.421875 2.1875q1.46875 0 2.34375 0.90625q0.875 0.890625 0.875 2.375q0 1.484375 -0.890625 2.375q-0.875 0.890625 -2.328125 0.890625q-1.4375 0 -2.328125 -0.890625q-0.875 -0.90625 -0.875 -2.375q0 -1.46875 0.859375 -2.375q0.875 -0.90625 2.34375 -0.90625zm-1.5 3.28125q0 0.984375 0.40625 1.484375q0.40625 0.5 1.09375 0.5q0.734375 0 1.125 -0.515625q0.390625 -0.53125 0.390625 -1.46875q0 -0.921875 -0.390625 -1.453125q-0.375 -0.546875 -1.125 -0.546875q-0.6875 0 -1.09375 0.5q-0.40625 0.5 -0.40625 1.5zm7.580078 -5.46875l0 8.5625l-1.703125 0l0 -8.5625l1.703125 0zm3.09375 0l0 8.5625l-1.703125 0l0 -8.5625l1.703125 0zm4.34375 2.1875q1.46875 0 2.34375 0.90625q0.875 0.890625 0.875 2.375q0 1.484375 -0.890625 2.375q-0.875 0.890625 -2.328125 0.890625q-1.4375 0 -2.328125 -0.890625q-0.875 -0.90625 -0.875 -2.375q0 -1.46875 0.859375 -2.375q0.875 -0.90625 2.34375 -0.90625zm-1.5 3.28125q0 0.984375 0.40625 1.484375q0.40625 0.5 1.09375 0.5q0.734375 0 1.125 -0.515625q0.390625 -0.53125 0.390625 -1.46875q0 -0.921875 -0.390625 -1.453125q-0.375 -0.546875 -1.125 -0.546875q-0.6875 0 -1.09375 0.5q-0.40625 0.5 -0.40625 1.5zm7.048828 -3.109375l1.140625 4.203125l0.015625 0l1.03125 -4.203125l1.65625 0l1.0625 4.203125l0.015625 0l1.15625 -4.203125l1.75 0l-1.96875 6.203125l-1.75 0l-1.09375 -4.171875l-0.03125 0l-1.0625 4.171875l-1.75 0l-1.96875 -6.203125l1.796875 0zm11.408203 -0.171875q1.375 0 2.203125 0.953125q0.828125 0.9375 0.828125 2.421875l-0.015625 0.3125l-4.484375 0q0.046875 0.796875 0.421875 1.1875q0.390625 0.390625 1.09375 0.390625q0.46875 0 0.859375 -0.234375q0.390625 -0.25 0.5 -0.578125l1.5 0q-0.34375 1.046875 -1.0625 1.578125q-0.71875 0.515625 -1.84375 0.515625q-1.4375 0 -2.3125 -0.90625q-0.859375 -0.90625 -0.859375 -2.359375q0 -1.390625 0.890625 -2.328125q0.890625 -0.953125 2.28125 -0.953125zm-1.46875 2.609375l2.78125 0q-0.125 -0.6875 -0.453125 -1.0q-0.3125 -0.328125 -0.921875 -0.328125q-0.609375 0 -0.984375 0.359375q-0.359375 0.34375 -0.421875 0.96875zm9.109375 -2.609375q0.109375 0 0.203125 0.015625q0.09375 0.015625 0.171875 0.046875l0 1.578125q-0.140625 -0.03125 -0.28125 -0.03125q-0.140625 -0.015625 -0.328125 -0.015625q-0.859375 0 -1.28125 0.53125q-0.40625 0.515625 -0.40625 1.40625l0 2.84375l-1.6875 0l0 -6.203125l1.609375 0l0 1.15625l0.03125 0q0.265625 -0.609375 0.796875 -0.96875q0.546875 -0.359375 1.171875 -0.359375zm1.7480469 -2.390625q0.78125 1.265625 1.1875 2.65625q0.40625 1.390625 0.40625 2.75q0 1.375 -0.421875 2.90625q-0.40625 1.515625 -1.171875 2.640625l-1.421875 0q0.65625 -1.25 0.96875 -2.609375q0.328125 -1.375 0.328125 -2.8125q0 -1.5 -0.328125 -2.875q-0.3125 -1.390625 -0.96875 -2.65625l1.421875 0z" fill-rule="nonzero"/></g></svg>