<?xml version="1.0" encoding="UTF-8"?>
<svg width="262px" height="153px" viewBox="0 0 262 153" version="1.1" xmlns="http://www.w3.org/2000/svg" xmlns:xlink="http://www.w3.org/1999/xlink">
    <!-- Generator: Sketch 58 (84663) - https://sketch.com -->
    <title>Consul Stack</title>
    <desc>Created with Sketch.</desc>
    <defs>
        <linearGradient x1="5.84301534%" y1="40.5603513%" x2="94.330705%" y2="59.1543948%" id="linearGradient-1">
            <stop stop-color="#ED3E72" offset="0%"></stop>
            <stop stop-color="#9E177E" stop-opacity="0.8" offset="100%"></stop>
        </linearGradient>
    </defs>
    <g id="Page-1" stroke="none" stroke-width="1" fill="none" fill-rule="evenodd">
        <g id="Consul-Stack">
            <polygon id="Path" fill="#F2F2F3" fill-rule="nonzero" points="196.19 38.613 130.976 76.5954 196.19 114.567 261.415 76.5954"></polygon>
            <path d="M180.026,67.2899 L174.02,80.1543 L174.18,80.1543 L190.178,89.4811 L212.309,85.9969 L212.384,85.9969 L218.358,73.1325 L202.296,63.72 L180.026,67.2899 Z M203.965,73.9687 L202.583,77.2705 L198.384,77.8494 L195.429,78.3211 L200.744,81.4408 L199.203,85.4609 L188.477,79.2109 L189.54,76.1127 L196.981,74.8799 L191.666,71.7495 L193.26,67.7723 L198.862,70.9884 L203.965,73.9687 Z" id="Shape" fill="#000000" fill-rule="nonzero" opacity="0.16"></path>
            <polygon id="Path" fill="#F2F2F3" fill-rule="nonzero" points="65.7477 38.613 0.52255 76.5954 65.7477 114.567 130.973 76.5954"></polygon>
            <path d="M66.1399,70.9883 L53.8624,72.9072 L62.7809,78.0959 L75.0159,76.177 L66.1399,70.9883 Z M79.4486,68.4476 L70.4238,63.1946 L67.1392,70.3236 L76.164,75.5766 L79.4486,68.4476 Z M39.8734,75.062 L48.7813,80.2507 L61.027,78.3425 L52.151,73.1324 L39.8734,75.062 Z M76.3659,76.9381 L64.1096,78.8034 L73.0175,83.9921 L85.2632,82.0839 L76.3659,76.9381 Z" id="Shape" fill="#000000" opacity="0.16"></path>
            <polygon id="Path" fill="#F2F2F3" fill-rule="nonzero" points="130.971 0.64124 65.7455 38.6128 130.971 76.5952 196.185 38.6128"></polygon>
            <path d="M106.064,39.6634 L146.128,47.4786 L132.809,24.0974 L106.064,39.6634 Z M126.335,34.1102 L127.887,33.2097 L129.439,34.1102 L127.887,35.0108 L126.335,34.1102 Z M129.45,39.524 L127.898,40.4246 L126.356,39.524 L127.898,38.6128 L129.45,39.524 Z M127.122,38.1626 L125.58,39.0631 L124.029,38.1626 L125.58,37.262 L127.122,38.1626 Z M124.805,36.8118 L123.253,37.7123 L121.701,36.8118 L123.253,35.9113 L124.805,36.8118 Z M134.106,39.524 L132.554,40.4246 L131.002,39.524 L132.554,38.6128 L134.106,39.524 Z M131.778,38.1626 L130.226,39.0631 L128.674,38.1626 L130.226,37.262 L131.778,38.1626 Z M129.45,36.8118 L127.887,37.7552 L126.346,36.8547 L127.887,35.9542 L129.45,36.8118 Z M127.122,35.461 L125.58,36.3615 L124.029,35.461 L125.58,34.5498 L127.122,35.461 Z M128.663,35.461 L130.215,34.5605 L131.767,35.461 L130.215,36.3723 L128.663,35.461 Z M132.554,37.7123 L131.002,36.8118 L132.554,35.9113 L134.106,36.8118 L132.554,37.7123 Z" id="Shape" fill="#000000" fill-rule="nonzero" opacity="0.16"></path>
            <polygon id="Path" fill="#DBDBDC" fill-rule="nonzero" points="130.971 76.5947 65.7455 114.566 130.971 152.549 196.185 114.566"></polygon>
            <polygon id="Path" fill="url(#linearGradient-1)" fill-rule="nonzero" points="130.971 58.5663 65.7455 96.5379 130.971 134.52 196.185 96.5379"></polygon>
            <path d="M145.155,103.803 C137.331,108.348 124.618,108.348 116.805,103.803 C108.992,99.257 108.981,91.8389 116.805,87.2934 C120.901,85.061 125.479,83.8792 130.135,83.8522 L130.135,83.8522 L130.305,87.8509 C127.286,87.8804 124.321,88.6494 121.663,90.0914 C116.528,93.0824 116.528,97.9495 121.663,100.94 C126.797,103.931 135.152,103.931 140.286,100.94 C142.603,99.59 143.964,97.8101 144.124,95.9019 L151.001,95.9984 C150.788,98.968 148.716,101.723 145.155,103.803 Z" id="Path" fill="#FFFFFF" fill-rule="nonzero"></path>
            <path d="M149.468,93.03 C149.107,93.2145 148.708,93.3107 148.304,93.3107 C147.899,93.3107 147.501,93.2145 147.14,93.03 C147.002,92.9797 146.883,92.8879 146.799,92.7671 C146.715,92.6462 146.67,92.5022 146.67,92.3546 C146.67,92.207 146.715,92.0629 146.799,91.9421 C146.883,91.8212 147.002,91.7294 147.14,91.6792 C147.501,91.4946 147.899,91.3984 148.304,91.3984 C148.708,91.3984 149.107,91.4946 149.468,91.6792 C149.605,91.7294 149.724,91.8212 149.808,91.9421 C149.893,92.0629 149.938,92.207 149.938,92.3546 C149.938,92.5022 149.893,92.6462 149.808,92.7671 C149.724,92.8879 149.605,92.9797 149.468,93.03 L149.468,93.03 Z" id="Path" fill="#FFFFFF" fill-rule="nonzero"></path>
            <path d="M133.95,97.3821 C132.999,97.8681 131.949,98.121 130.883,98.121 C129.817,98.121 128.767,97.8681 127.816,97.3821 C126.126,96.3958 126.126,94.7985 127.816,93.8122 C128.767,93.3262 129.817,93.073 130.883,93.073 C131.949,93.073 132.999,93.3262 133.95,93.8122 C135.65,94.7985 135.65,96.3958 133.95,97.3821 Z" id="Path" fill="#FFFFFF" fill-rule="nonzero"></path>
            <path d="M146.832,89.9423 C146.471,90.1269 146.073,90.2231 145.668,90.2231 C145.264,90.2231 144.865,90.1269 144.504,89.9423 C144.367,89.8921 144.248,89.8003 144.164,89.6794 C144.079,89.5586 144.034,89.4146 144.034,89.2669 C144.034,89.1193 144.079,88.9753 144.164,88.8544 C144.248,88.7336 144.367,88.6418 144.504,88.5916 C144.865,88.407 145.264,88.3108 145.668,88.3108 C146.073,88.3108 146.471,88.407 146.832,88.5916 C146.97,88.6418 147.089,88.7336 147.173,88.8544 C147.257,88.9753 147.302,89.1193 147.302,89.2669 C147.302,89.4146 147.257,89.5586 147.173,89.6794 C147.089,89.8003 146.97,89.8921 146.832,89.9423 L146.832,89.9423 Z" id="Path" fill="#FFFFFF" fill-rule="nonzero"></path>
            <path d="M143.24,91.8721 C142.882,92.0574 142.485,92.1541 142.082,92.1541 C141.679,92.1541 141.282,92.0574 140.923,91.8721 C140.785,91.8219 140.666,91.7301 140.582,91.6092 C140.498,91.4884 140.453,91.3444 140.453,91.1967 C140.453,91.0491 140.498,90.9051 140.582,90.7842 C140.666,90.6634 140.785,90.5716 140.923,90.5214 C141.282,90.336 141.679,90.2394 142.082,90.2394 C142.485,90.2394 142.882,90.336 143.24,90.5214 C143.383,90.5663 143.508,90.6561 143.596,90.7776 C143.685,90.8991 143.733,91.0459 143.733,91.1967 C143.733,91.3476 143.685,91.4944 143.596,91.6159 C143.508,91.7374 143.383,91.8272 143.24,91.8721 Z" id="Path" fill="#FFFFFF" fill-rule="nonzero"></path>
            <path d="M142.923,87.67 C142.565,87.8553 142.168,87.952 141.765,87.952 C141.362,87.952 140.965,87.8553 140.606,87.67 C140.468,87.6197 140.349,87.5279 140.265,87.4071 C140.181,87.2863 140.136,87.1422 140.136,86.9946 C140.136,86.847 140.181,86.7029 140.265,86.5821 C140.349,86.4612 140.468,86.3695 140.606,86.3192 C140.965,86.1339 141.362,86.0372 141.765,86.0372 C142.168,86.0372 142.565,86.1339 142.923,86.3192 C143.572,86.6837 143.572,87.2948 142.923,87.67 Z" id="Path" fill="#FFFFFF" fill-rule="nonzero"></path>
            <path d="M139.582,89.7599 C139.22,89.9396 138.821,90.0331 138.418,90.0331 C138.014,90.0331 137.616,89.9396 137.254,89.7599 C137.112,89.7119 136.99,89.6204 136.903,89.4983 C136.816,89.3762 136.769,89.2296 136.769,89.0792 C136.769,88.9288 136.816,88.7822 136.903,88.6601 C136.99,88.5379 137.112,88.4464 137.254,88.3984 C137.616,88.2187 138.014,88.1252 138.418,88.1252 C138.821,88.1252 139.22,88.2187 139.582,88.3984 C139.723,88.4464 139.846,88.5379 139.933,88.6601 C140.02,88.7822 140.067,88.9288 140.067,89.0792 C140.067,89.2296 140.02,89.3762 139.933,89.4983 C139.846,89.6204 139.723,89.7119 139.582,89.7599 L139.582,89.7599 Z" id="Path" fill="#FFFFFF" fill-rule="nonzero"></path>
            <path d="M137.751,86.1254 C137.39,86.31 136.992,86.4062 136.587,86.4062 C136.183,86.4062 135.784,86.31 135.423,86.1254 C135.285,86.0752 135.166,85.9834 135.082,85.8626 C134.998,85.7417 134.953,85.5977 134.953,85.4501 C134.953,85.3024 134.998,85.1584 135.082,85.0375 C135.166,84.9167 135.285,84.8249 135.423,84.7747 C135.784,84.5901 136.183,84.4939 136.587,84.4939 C136.992,84.4939 137.39,84.5901 137.751,84.7747 C137.889,84.8249 138.008,84.9167 138.092,85.0375 C138.176,85.1584 138.221,85.3024 138.221,85.4501 C138.221,85.5977 138.176,85.7417 138.092,85.8626 C138.008,85.9834 137.889,86.0752 137.751,86.1254 Z" id="Path" fill="#FFFFFF" fill-rule="nonzero"></path>
        </g>
    </g>
</svg>