<svg width="80" height="80" viewBox="0 0 80 80" fill="none" xmlns="http://www.w3.org/2000/svg">
<rect width="80" height="80" fill="white"/>
<path d="M73.5 31H32.5C31.6716 31 31 31.6716 31 32.5V73.5C31 74.3284 31.6716 75 32.5 75H73.5C74.3284 75 75 74.3284 75 73.5V32.5C75 31.6716 74.3284 31 73.5 31Z" fill="url(#paint0_linear)" fill-opacity="0.25"/>
<path d="M63.5 21H22.5C21.6716 21 21 21.6716 21 22.5V63.5C21 64.3284 21.6716 65 22.5 65H63.5C64.3284 65 65 64.3284 65 63.5V22.5C65 21.6716 64.3284 21 63.5 21Z" fill="url(#paint1_linear)" fill-opacity="0.75"/>
<path d="M47.5 5H6.5C5.67157 5 5 5.67157 5 6.5V47.5C5 48.3284 5.67157 49 6.5 49H47.5C48.3284 49 49 48.3284 49 47.5V6.5C49 5.67157 48.3284 5 47.5 5Z" fill="url(#paint2_linear)"/>
<path fill-rule="evenodd" clip-rule="evenodd" d="M18.75 17C17.2312 17 16 18.2312 16 19.75V31.0004C16 31.0004 16 31.0003 16 31.0004V34.25C16 35.7688 17.2312 37 18.75 37H35.25C36.7688 37 38 35.7688 38 34.25V19.75C38 18.2312 36.7688 17 35.25 17H18.75ZM17.5 31.3529V34.25C17.5 34.9404 18.0596 35.5 18.75 35.5H23L23 34.75C23 34.3358 23.3358 34 23.75 34C24.1642 34 24.5 34.3358 24.5 34.75V35.5H29.5V34.75C29.5 34.3358 29.8358 34 30.25 34C30.6642 34 31 34.3358 31 34.75V35.5H35.25C35.9404 35.5 36.5 34.9404 36.5 34.25V19.75C36.5 19.0596 35.9404 18.5 35.25 18.5H18.75C18.0596 18.5 17.5 19.0596 17.5 19.75V29.4058L23.5067 24.4347C23.5472 24.3995 23.591 24.3689 23.6374 24.3433C23.7145 24.3007 23.7971 24.2728 23.8812 24.2594C24.004 24.2396 24.1326 24.2501 24.2555 24.2947C24.2874 24.3063 24.3187 24.32 24.349 24.3359L29.9208 27.1219L33.55 24.4C33.8814 24.1514 34.3515 24.2186 34.6 24.55C34.8486 24.8813 34.7814 25.3514 34.45 25.6L30.4626 28.5905C30.3495 28.679 30.2131 28.733 30.0711 28.7467C29.9623 28.7571 29.8501 28.7439 29.7425 28.7044C29.7113 28.6931 29.6807 28.6796 29.651 28.664L24.1017 25.8894L17.5 31.3529Z" fill="white"/>
<defs>
<linearGradient id="paint0_linear" x1="75" y1="31" x2="24" y2="82.5" gradientUnits="userSpaceOnUse">
<stop offset="0.130208" stop-color="#D1EBFF"/>
<stop offset="1" stop-color="#DC477D"/>
</linearGradient>
<linearGradient id="paint1_linear" x1="65" y1="21" x2="8.5" y2="77.5" gradientUnits="userSpaceOnUse">
<stop offset="0.130208" stop-color="#D1EBFF"/>
<stop offset="1" stop-color="#DC477D"/>
</linearGradient>
<linearGradient id="paint2_linear" x1="24.2" y1="49" x2="44.047" y2="5.903" gradientUnits="userSpaceOnUse">
<stop stop-color="#DC477D"/>
<stop offset="0.359" stop-color="#DC477D" stop-opacity="0.96"/>
<stop offset="0.703" stop-color="#DC477D" stop-opacity="0.88"/>
<stop offset="1" stop-color="#DC477D" stop-opacity="0.7"/>
</linearGradient>
</defs>
</svg>
