<svg width="81" height="80" viewBox="0 0 81 80" fill="none" xmlns="http://www.w3.org/2000/svg">
<g clip-path="url(#clip0)">
<path d="M0.955078 0H80.9551V80H0.955078V0Z" fill="white"/>
<path d="M48.4551 5H7.45508C6.62665 5 5.95508 5.67157 5.95508 6.5V47.5C5.95508 48.3284 6.62665 49 7.45508 49H48.4551C49.2835 49 49.9551 48.3284 49.9551 47.5V6.5C49.9551 5.67157 49.2835 5 48.4551 5Z" fill="white" fill-opacity="0.8"/>
<path d="M48.4551 5H7.45508C6.62665 5 5.95508 5.67157 5.95508 6.5V47.5C5.95508 48.3284 6.62665 49 7.45508 49H48.4551C49.2835 49 49.9551 48.3284 49.9551 47.5V6.5C49.9551 5.67157 49.2835 5 48.4551 5Z" fill="url(#paint0_linear)" fill-opacity="0.3"/>
<path d="M58.4551 15H17.4551C16.6267 15 15.9551 15.6716 15.9551 16.5V57.5C15.9551 58.3284 16.6267 59 17.4551 59H58.4551C59.2835 59 59.9551 58.3284 59.9551 57.5V16.5C59.9551 15.6716 59.2835 15 58.4551 15Z" fill="white" fill-opacity="0.8"/>
<path d="M58.4551 15H17.4551C16.6267 15 15.9551 15.6716 15.9551 16.5V57.5C15.9551 58.3284 16.6267 59 17.4551 59H58.4551C59.2835 59 59.9551 58.3284 59.9551 57.5V16.5C59.9551 15.6716 59.2835 15 58.4551 15Z" fill="url(#paint1_linear)" fill-opacity="0.6"/>
<path d="M68.4551 25H27.4551C26.6267 25 25.9551 25.6716 25.9551 26.5V67.5C25.9551 68.3284 26.6267 69 27.4551 69H68.4551C69.2835 69 69.9551 68.3284 69.9551 67.5V26.5C69.9551 25.6716 69.2835 25 68.4551 25Z" fill="url(#paint2_linear)"/>
<path d="M49.2051 52C47.5475 52 45.9578 51.3415 44.7857 50.1694C43.6136 48.9973 42.9551 47.4076 42.9551 45.75C42.9551 44.0924 43.6136 42.5027 44.7857 41.3306C45.9578 40.1585 47.5475 39.5 49.2051 39.5C50.8627 39.5 52.4524 40.1585 53.6245 41.3306C54.7966 42.5027 55.4551 44.0924 55.4551 45.75C55.4551 47.4076 54.7966 48.9973 53.6245 50.1694C52.4524 51.3415 50.8627 52 49.2051 52V52Z" stroke="white" stroke-width="2" stroke-linecap="round" stroke-linejoin="round"/>
<path d="M40.4551 54.5L44.7891 50.166" stroke="white" stroke-width="2" stroke-linecap="round" stroke-linejoin="round"/>
<path d="M61.9551 63C63.0596 63 63.9551 62.1046 63.9551 61C63.9551 59.8954 63.0596 59 61.9551 59C60.8505 59 59.9551 59.8954 59.9551 61C59.9551 62.1046 60.8505 63 61.9551 63Z" fill="white"/>
</g>
<defs>
<linearGradient id="paint0_linear" x1="49.9551" y1="5" x2="2.04308" y2="44.221" gradientUnits="userSpaceOnUse">
<stop stop-color="#DC477D"/>
<stop offset="0.583" stop-color="#D4BCD9"/>
<stop offset="0.938" stop-color="#D1EBFF"/>
</linearGradient>
<linearGradient id="paint1_linear" x1="59.9551" y1="15" x2="12.0431" y2="54.221" gradientUnits="userSpaceOnUse">
<stop stop-color="#DC477D"/>
<stop offset="0.583" stop-color="#D4BCD9"/>
<stop offset="0.938" stop-color="#D1EBFF"/>
</linearGradient>
<linearGradient id="paint2_linear" x1="45.1551" y1="69" x2="65.0021" y2="25.903" gradientUnits="userSpaceOnUse">
<stop stop-color="#DC477D"/>
<stop offset="0.359" stop-color="#DC477D" stop-opacity="0.96"/>
<stop offset="0.703" stop-color="#DC477D" stop-opacity="0.88"/>
<stop offset="1" stop-color="#DC477D" stop-opacity="0.7"/>
</linearGradient>
<clipPath id="clip0">
<rect width="80" height="80" fill="white" transform="translate(0.955078)"/>
</clipPath>
</defs>
</svg>
