<svg width="80" height="80" viewBox="0 0 80 80" fill="none" xmlns="http://www.w3.org/2000/svg">
<rect width="80" height="80" fill="white"/>
<rect x="5" y="5" width="44" height="44" rx="1.5" fill="white" fill-opacity="0.8"/>
<rect x="5" y="5" width="44" height="44" rx="1.5" fill="url(#paint0_linear)" fill-opacity="0.3"/>
<rect x="15" y="15" width="44" height="44" rx="1.5" fill="white" fill-opacity="0.8"/>
<rect x="15" y="15" width="44" height="44" rx="1.5" fill="url(#paint1_linear)" fill-opacity="0.6"/>
<rect x="25" y="25" width="44" height="44" rx="1.5" fill="url(#paint2_linear)"/>
<path fill-rule="evenodd" clip-rule="evenodd" d="M48.25 52C44.7982 52 42 49.2018 42 45.75C42 42.2982 44.7982 39.5 48.25 39.5C51.7018 39.5 54.5 42.2982 54.5 45.75C54.5 49.2018 51.7018 52 48.25 52Z" stroke="white" stroke-width="2" stroke-linecap="round" stroke-linejoin="round"/>
<path d="M39.5007 54.4993L43.834 50.166" stroke="white" stroke-width="2" stroke-linecap="round" stroke-linejoin="round"/>
<circle cx="61" cy="61" r="2" fill="white"/>
<defs>
<linearGradient id="paint0_linear" x1="49" y1="5" x2="1.08771" y2="44.2207" gradientUnits="userSpaceOnUse">
<stop stop-color="#DC477D"/>
<stop offset="0.583333" stop-color="#D4BCD9"/>
<stop offset="0.9375" stop-color="#D1EBFF"/>
</linearGradient>
<linearGradient id="paint1_linear" x1="59" y1="15" x2="11.0877" y2="54.2207" gradientUnits="userSpaceOnUse">
<stop stop-color="#DC477D"/>
<stop offset="0.583333" stop-color="#D4BCD9"/>
<stop offset="0.9375" stop-color="#D1EBFF"/>
</linearGradient>
<linearGradient id="paint2_linear" x1="44.2" y1="69" x2="64.0472" y2="25.9033" gradientUnits="userSpaceOnUse">
<stop stop-color="#DC477D"/>
<stop offset="0.359375" stop-color="#DC477D" stop-opacity="0.96"/>
<stop offset="0.703125" stop-color="#DC477D" stop-opacity="0.88"/>
<stop offset="1" stop-color="#DC477D" stop-opacity="0.7"/>
</linearGradient>
</defs>
</svg>
