<svg width="80" height="80" viewBox="0 0 80 80" fill="none" xmlns="http://www.w3.org/2000/svg">
<rect width="80" height="80" fill="white"/>
<rect x="7" y="7" width="40" height="40" rx="1.5" fill="white" fill-opacity="0.8"/>
<rect x="7" y="7" width="40" height="40" rx="1.5" fill="url(#paint0_linear)" fill-opacity="0.6"/>
<rect x="33" y="33" width="40" height="40" fill="#D1EBFF"/>
<path d="M20.3084 54.1923C21.5889 52.2776 21.8492 49.9396 20.9792 47.8392C20.1091 45.7387 18.2446 44.2039 16.0125 43.8212C15.6687 43.7329 15.4017 43.459 15.3313 43.1036C15.0987 41.0852 15.0819 39.0515 15.2811 37.0026C15.2884 36.9282 15.3 36.8539 15.3249 36.7834C15.4322 36.4802 15.6566 36.2096 15.9157 36.1711C18.2037 35.7617 20.0295 34.2364 20.9119 32.1022C21.7942 29.968 21.5142 27.6231 20.2508 25.6856C20.0493 25.3845 20.11 24.9749 20.3179 24.735C21.576 23.1372 23.0197 21.6164 24.7304 20.3695C25.0309 20.1681 25.4131 20.1636 25.7185 20.3447C27.6325 21.6282 29.9686 21.891 32.0663 21.0221C34.1639 20.1533 35.6955 18.2884 36.0758 16.0546C36.1637 15.7106 36.4371 15.4435 36.792 15.3734C38.8083 15.1424 40.8399 15.1276 42.8871 15.3289C42.9616 15.3362 43.0359 15.3479 43.1065 15.373C43.4094 15.4807 43.6799 15.7056 43.7186 15.9649C44.1298 18.2554 45.6553 20.0844 47.7884 20.9696C49.9214 21.8548 52.2638 21.5767 54.1983 20.3139C54.4989 20.1125 54.9082 20.1737 55.1481 20.3819C56.7456 21.6428 58.2663 23.0892 59.5136 24.8027C59.7151 25.1038 59.72 25.4863 59.5393 25.7918C58.3627 27.5865 58.123 29.9928 58.993 32.0933C59.8631 34.1938 61.7276 35.7285 63.9597 36.1113C64.3035 36.1996 64.5705 36.4735 64.6409 36.8288C64.8736 38.8473 64.8903 40.881 64.6911 42.9299C64.6838 43.0043 64.6722 43.0786 64.6473 43.1491C64.5401 43.4522 64.3156 43.7229 64.0565 43.7614C61.7685 44.1708 59.9427 45.6961 59.0604 47.8303C58.178 49.9645 58.4581 52.3094 59.7214 54.2469C59.9229 54.548 59.8622 54.9576 59.6544 55.1975C58.3962 56.7953 56.9526 58.3161 55.2419 59.563C54.9747 59.742 54.5914 59.7869 54.341 59.6485C54.279 59.6142 54.2239 59.5682 54.1637 59.5307C52.2909 58.3627 49.9321 58.148 47.8676 59.0031C45.7699 59.872 44.2384 61.7368 43.8581 63.9707C43.7702 64.3147 43.4968 64.5818 43.1419 64.6519C41.1256 64.8828 39.0939 64.8977 37.0468 64.6964C36.9723 64.689 36.8979 64.6773 36.8274 64.6523C36.5245 64.5446 36.254 64.3197 36.2153 64.0604C35.8313 61.8355 34.2786 59.9409 32.1455 59.0557C30.4762 58.3629 28.631 58.3582 26.9922 59.037C26.5989 59.1999 26.1672 59.4556 25.7355 59.7113C25.435 59.9127 25.0256 59.8516 24.7202 59.6705C23.1228 58.4096 21.602 56.9632 20.3547 55.2497C20.1597 54.9459 20.1277 54.4978 20.3084 54.1923Z" fill="url(#paint1_linear)"/>
<path d="M49.166 33.334V38.334H44.166" stroke="white" stroke-width="1.75" stroke-linecap="round" stroke-linejoin="round"/>
<path d="M30.834 46.666V41.666H35.834" stroke="white" stroke-width="1.75" stroke-linecap="round" stroke-linejoin="round"/>
<path d="M32.9258 37.5001C33.7848 35.0725 35.8293 33.2553 38.341 32.687C40.8527 32.1187 43.4803 32.8787 45.3008 34.7001L49.1674 38.3335" stroke="white" stroke-width="1.75" stroke-linecap="round" stroke-linejoin="round"/>
<path d="M30.834 41.666L34.7007 45.2993C36.5211 47.1207 39.1487 47.8808 41.6604 47.3125C44.1721 46.7442 46.2166 44.927 47.0756 42.4993" stroke="white" stroke-width="1.75" stroke-linecap="round" stroke-linejoin="round"/>
<defs>
<linearGradient id="paint0_linear" x1="47" y1="7" x2="3.44337" y2="42.6552" gradientUnits="userSpaceOnUse">
<stop stop-color="#DC477D"/>
<stop offset="0.583333" stop-color="#D4BCD9"/>
<stop offset="0.9375" stop-color="#D1EBFF"/>
</linearGradient>
<linearGradient id="paint1_linear" x1="46.3591" y1="63.3389" x2="48.3688" y2="11.6235" gradientUnits="userSpaceOnUse">
<stop stop-color="#DC477D"/>
<stop offset="0.359375" stop-color="#DC477D" stop-opacity="0.96"/>
<stop offset="0.703125" stop-color="#DC477D" stop-opacity="0.88"/>
<stop offset="1" stop-color="#DC477D" stop-opacity="0.7"/>
</linearGradient>
</defs>
</svg>
