<svg width="80" height="80" viewBox="0 0 80 80" fill="none" xmlns="http://www.w3.org/2000/svg">
<rect width="80" height="80" fill="white"/>
<circle cx="49" cy="27" r="18" fill="#D1EBFF"/>
<rect x="4" y="19" width="40" height="40" rx="1.5" fill="url(#paint0_linear)" fill-opacity="0.75"/>
<path fill-rule="evenodd" clip-rule="evenodd" d="M76.1667 49C76.1667 61.1503 66.3169 71 54.1667 71H30.3333C20.2081 71 12 62.7919 12 52.6667C12 42.5414 20.2081 34.3333 30.3333 34.3333C32.2177 34.3333 34.0357 34.6176 35.7467 35.1457C36.3745 35.3394 37.063 35.1463 37.4918 34.6485C41.5263 29.9651 47.5002 27 54.1667 27C66.3169 27 76.1667 36.8497 76.1667 49Z" fill="url(#paint1_linear)"/>
<path fill-rule="evenodd" clip-rule="evenodd" d="M40 54C38.3431 54 37 55.3431 37 57C37 58.6569 38.3431 60 40 60C41.6569 60 43 58.6569 43 57C43 55.3431 41.6569 54 40 54Z" stroke="white" stroke-width="1.75" stroke-linecap="round" stroke-linejoin="round"/>
<path fill-rule="evenodd" clip-rule="evenodd" d="M52 47C50.3431 47 49 48.3431 49 50C49 51.6569 50.3431 53 52 53C53.6569 53 55 51.6569 55 50C55 48.3431 53.6569 47 52 47Z" stroke="white" stroke-width="1.75" stroke-linecap="round" stroke-linejoin="round"/>
<path fill-rule="evenodd" clip-rule="evenodd" d="M40 40C38.3431 40 37 41.3431 37 43C37 44.6569 38.3431 46 40 46C41.6569 46 43 44.6569 43 43C43 41.3431 41.6569 40 40 40Z" stroke="white" stroke-width="1.75" stroke-linecap="round" stroke-linejoin="round"/>
<path d="M49.4102 48.4902L42.5802 44.5102" stroke="white" stroke-width="1.75" stroke-linecap="round" stroke-linejoin="round"/>
<path d="M42.5902 55.4902L49.4102 51.5102" stroke="white" stroke-width="1.75" stroke-linecap="round" stroke-linejoin="round"/>
<line x1="40.125" y1="46" x2="40.125" y2="54" stroke="white" stroke-width="1.75"/>
<defs>
<linearGradient id="paint0_linear" x1="4" y1="59" x2="42.3223" y2="24.7806" gradientUnits="userSpaceOnUse">
<stop stop-color="#D1EBFF"/>
<stop offset="1" stop-color="#DC477D"/>
</linearGradient>
<linearGradient id="paint1_linear" x1="40" y1="71" x2="57" y2="27" gradientUnits="userSpaceOnUse">
<stop stop-color="#DC477D"/>
<stop offset="0.359375" stop-color="#DC477D" stop-opacity="0.96"/>
<stop offset="0.703125" stop-color="#DC477D" stop-opacity="0.85"/>
<stop offset="1" stop-color="#DC477D" stop-opacity="0.6"/>
</linearGradient>
</defs>
</svg>
