<svg width="71" height="71" viewBox="0 0 71 71" fill="none" xmlns="http://www.w3.org/2000/svg">
<g clip-path="url(#clip0)">
<path d="M50.16 0H20C8.9543 0 0 8.9543 0 20V50.16C0 61.2057 8.9543 70.16 20 70.16H50.16C61.2057 70.16 70.16 61.2057 70.16 50.16V20C70.16 8.9543 61.2057 0 50.16 0Z" fill="url(#paint0_linear)"/>
<path d="M44.8072 31.82H42.7472C42.1372 29.4497 40.8744 27.298 39.1023 25.6098C37.3302 23.9215 35.1199 22.7643 32.7228 22.2698C30.3257 21.7752 27.838 21.9632 25.5424 22.8123C23.2468 23.6614 21.2356 25.1375 19.7372 27.0729C18.2389 29.0083 17.3137 31.3252 17.0668 33.7603C16.8198 36.1954 17.261 38.6509 18.3403 40.8477C19.4196 43.0444 21.0936 44.8943 23.1719 46.187C25.2503 47.4796 27.6497 48.1632 30.0972 48.16H44.8072C46.9741 48.16 49.0521 47.2992 50.5843 45.7671C52.1165 44.2349 52.9772 42.1568 52.9772 39.99C52.9772 37.8232 52.1165 35.7451 50.5843 34.2129C49.0521 32.6808 46.9741 31.82 44.8072 31.82V31.82Z" stroke="white" stroke-width="2" stroke-linecap="round" stroke-linejoin="round"/>
</g>
<defs>
<linearGradient id="paint0_linear" x1="0" y1="35.08" x2="70.16" y2="35.08" gradientUnits="userSpaceOnUse">
<stop stop-color="#dc477d"/>
<stop offset="1" stop-color="#dc477d"/>
</linearGradient>
<clipPath id="clip0">
<rect width="70.16" height="70.16" fill="white"/>
</clipPath>
</defs>
</svg>
