<svg width="70" height="70" viewBox="0 0 70 70" fill="none" xmlns="http://www.w3.org/2000/svg">
<rect width="70" height="70" rx="2" fill="#ffe9f1"/>
<path d="M34.54 49.18C34.3996 49.1786 34.2607 49.1515 34.13 49.1C33.9957 49.0439 33.8735 48.9624 33.77 48.86L29.4 44.53C29.247 44.3795 29.1423 44.1869 29.0993 43.9766C29.0562 43.7664 29.0768 43.5481 29.1584 43.3496C29.2399 43.1511 29.3787 42.9814 29.5571 42.8621C29.7356 42.7429 29.9455 42.6795 30.16 42.68C30.4476 42.6777 30.7243 42.7892 30.93 42.99L33.42 45.48V34.73H22.7L25.1901 37.21C25.3918 37.4159 25.5065 37.6917 25.51 37.98C25.5078 38.1945 25.4423 38.4036 25.3218 38.5811C25.2012 38.7585 25.031 38.8964 24.8324 38.9776C24.6338 39.0587 24.4157 39.0795 24.2054 39.0372C23.9951 38.9949 23.8019 38.8916 23.65 38.74L19.32 34.41C19.2176 34.3066 19.1361 34.1843 19.08 34.05C18.9733 33.7871 18.9733 33.4929 19.08 33.23C19.1361 33.0957 19.2176 32.9734 19.32 32.87L23.65 28.54C23.8019 28.3884 23.9951 28.2851 24.2054 28.2428C24.4157 28.2005 24.6338 28.2213 24.8324 28.3024C25.031 28.3836 25.2012 28.5215 25.3218 28.699C25.4423 28.8764 25.5078 29.0855 25.51 29.3C25.5086 29.5887 25.3936 29.8653 25.1901 30.07L22.7 32.56H33.4601V22.08C33.4601 21.9382 33.488 21.7977 33.5423 21.6667C33.5965 21.5357 33.6761 21.4166 33.7764 21.3163C33.8767 21.216 33.9957 21.1365 34.1268 21.0822C34.2578 21.0279 34.3982 21 34.54 21C34.6819 21 34.8223 21.0279 34.9533 21.0822C35.0844 21.1365 35.2034 21.216 35.3037 21.3163C35.404 21.4166 35.4836 21.5357 35.5378 21.6667C35.5921 21.7977 35.6201 21.9382 35.6201 22.08V32.56H46.4L43.91 30.07C43.7091 29.8661 43.5965 29.5913 43.5965 29.305C43.5965 29.0187 43.7091 28.7439 43.91 28.54C44.1144 28.336 44.3913 28.2215 44.68 28.2215C44.9688 28.2215 45.2457 28.336 45.45 28.54L49.7801 32.87C49.8825 32.9734 49.964 33.0957 50.02 33.23C50.0745 33.3598 50.1026 33.4992 50.1026 33.64C50.1026 33.7808 50.0745 33.9202 50.02 34.05C49.964 34.1843 49.8825 34.3066 49.7801 34.41L45.4 38.74C45.2507 38.8812 45.0642 38.9768 44.8624 39.0157C44.6606 39.0546 44.4519 39.0351 44.2608 38.9595C44.0697 38.8839 43.9042 38.7553 43.7836 38.5889C43.663 38.4225 43.5924 38.2251 43.58 38.02C43.5799 37.7329 43.691 37.4569 43.8901 37.25L46.4 34.73H35.6201V45.48L38.11 43.02C38.317 42.821 38.593 42.7099 38.88 42.71C39.0946 42.7095 39.3045 42.7729 39.483 42.8921C39.6614 43.0114 39.8002 43.1811 39.8817 43.3796C39.9633 43.5781 39.9838 43.7964 39.9408 44.0066C39.8978 44.2169 39.7931 44.4095 39.6401 44.56L35.31 48.89C35.2066 48.9924 35.0844 49.0739 34.95 49.13C34.8175 49.1713 34.6786 49.1882 34.54 49.18Z" fill="black"/>
</svg>
