<svg width="70" height="70" viewBox="0 0 70 70" fill="none" xmlns="http://www.w3.org/2000/svg">
<rect width="70" height="70" rx="2" fill="#ffe9f1"/>
<path d="M51.1065 24.6026C51.0211 24.2186 50.8487 23.8593 50.6025 23.5524C50.3563 23.2455 50.0429 22.9993 49.6865 22.8326L35.9265 16.2626C35.5276 16.0725 35.088 15.9832 34.6465 16.0026V16.0026C34.299 16.0204 33.9587 16.1089 33.6465 16.2626L19.8765 22.8326C19.5231 23.0035 19.2123 23.2511 18.9666 23.5573C18.721 23.8634 18.5467 24.2206 18.4565 24.6026L15.0665 39.3726C14.9883 39.7124 14.979 40.0645 15.0391 40.408C15.0992 40.7515 15.2275 41.0795 15.4165 41.3726L15.5665 41.5826L25.0965 53.4226C25.3412 53.7325 25.6526 53.9833 26.0075 54.1564C26.3624 54.3295 26.7517 54.4205 27.1465 54.4226H42.4265C42.8228 54.4206 43.2136 54.3297 43.5701 54.1566C43.9266 53.9835 44.2398 53.7327 44.4865 53.4226L54.0065 41.5826C54.2512 41.2758 54.4233 40.9177 54.5099 40.5349C54.5965 40.1522 54.5954 39.7548 54.5065 39.3726" fill="black"/>
<path d="M34.7865 21.0327C34.5574 21.0456 34.3427 21.1485 34.1892 21.3189C34.0356 21.4893 33.9555 21.7135 33.9665 21.9427V21.9427C33.9614 22.0159 33.9614 22.0894 33.9665 22.1627C33.987 22.4247 34.0237 22.6852 34.0765 22.9427C34.1575 23.4349 34.1877 23.9342 34.1665 24.4327C34.115 24.5969 34.022 24.745 33.8965 24.8627V25.2127C33.3946 25.2509 32.8965 25.3278 32.4065 25.4427C30.3463 25.9046 28.4722 26.9741 27.0265 28.5127L26.7265 28.3027C26.5661 28.3493 26.3938 28.3313 26.2465 28.2527C25.8442 27.957 25.4724 27.622 25.1365 27.2527C24.9637 27.0496 24.7801 26.856 24.5865 26.6727L24.4065 26.5327C24.2441 26.4017 24.0448 26.3248 23.8365 26.3127C23.7113 26.3052 23.5862 26.3276 23.4715 26.378C23.3567 26.4284 23.2556 26.5055 23.1765 26.6027C23.0452 26.7923 22.9928 27.0255 23.0301 27.2531C23.0674 27.4807 23.1916 27.6849 23.3765 27.8227V27.8227L23.5565 27.9627C23.7751 28.1092 24.0021 28.2428 24.2365 28.3627C24.6683 28.6119 25.0766 28.8997 25.4565 29.2227C25.5567 29.3638 25.6156 29.53 25.6265 29.7027L25.8865 29.9327C24.4357 32.1202 23.838 34.7639 24.2065 37.3627L23.8665 37.4627C23.7765 37.5827 23.6465 37.7727 23.5065 37.8227C23.0251 37.9487 22.5329 38.0291 22.0365 38.0627C21.772 38.0715 21.5083 38.0949 21.2465 38.1327H21.0265C20.9104 38.1454 20.7983 38.1824 20.6975 38.2414C20.5967 38.3003 20.5095 38.3799 20.4416 38.4748C20.3736 38.5698 20.3265 38.678 20.3032 38.7925C20.28 38.9069 20.2811 39.0249 20.3066 39.1389C20.3321 39.2528 20.3813 39.3601 20.4511 39.4538C20.5209 39.5474 20.6096 39.6252 20.7115 39.6822C20.8135 39.7392 20.9263 39.774 21.0426 39.7845C21.1589 39.7949 21.276 39.7806 21.3865 39.7427V39.7427L21.5965 39.6927C21.8501 39.619 22.0976 39.5254 22.3365 39.4127C22.806 39.2429 23.292 39.1222 23.7865 39.0527C23.9553 39.0592 24.1187 39.1148 24.2565 39.2127L24.6165 39.1527C25.4227 41.643 27.1123 43.7522 29.3665 45.0827L29.2165 45.4427C29.2909 45.5874 29.3188 45.7515 29.2965 45.9127C29.0872 46.381 28.8362 46.8294 28.5465 47.2527C28.3838 47.4616 28.2368 47.6822 28.1065 47.9127L27.9965 48.1327C27.8921 48.3351 27.8702 48.5701 27.9355 48.7883C28.0007 49.0065 28.1481 49.1909 28.3465 49.3027C28.4521 49.3469 28.5655 49.3699 28.6801 49.3702C28.7947 49.3705 28.9082 49.3482 29.0141 49.3045C29.12 49.2609 29.2163 49.1967 29.2973 49.1157C29.3784 49.0348 29.4427 48.9386 29.4865 48.8327C29.5238 48.7647 29.5572 48.6946 29.5865 48.6227C29.6831 48.3783 29.7633 48.1278 29.8265 47.8727C29.9682 47.3514 30.1837 46.853 30.4665 46.3927C30.5523 46.2995 30.6636 46.2335 30.7865 46.2027L30.9765 45.8727C32.9502 46.6312 35.1052 46.7843 37.1665 46.3127C37.6457 46.2059 38.1169 46.0655 38.5765 45.8927C38.5765 45.9827 38.7265 46.1627 38.7565 46.2027C38.9245 46.2327 39.0747 46.3257 39.1765 46.4627C39.4275 46.9036 39.632 47.3694 39.7865 47.8527C39.8665 48.1127 39.9165 48.3427 40.0265 48.6127L40.1265 48.8227C40.1651 48.9326 40.2263 49.0331 40.3063 49.1178C40.3863 49.2024 40.4833 49.2693 40.5908 49.314C40.6983 49.3587 40.8141 49.3803 40.9305 49.3774C41.047 49.3745 41.1615 49.3471 41.2666 49.297C41.3718 49.2468 41.4652 49.1752 41.5408 49.0866C41.6164 48.998 41.6726 48.8945 41.7056 48.7828C41.7386 48.6711 41.7477 48.5537 41.7323 48.4383C41.717 48.3228 41.6775 48.2119 41.6165 48.1127L41.5165 47.8927C41.3793 47.6674 41.2291 47.4503 41.0665 47.2427C40.7832 46.8295 40.5389 46.3909 40.3365 45.9327C40.2953 45.7665 40.3204 45.5908 40.4065 45.4427C40.3514 45.3365 40.3045 45.2261 40.2665 45.1127C42.5359 43.7674 44.2278 41.6303 45.0165 39.1127L45.3665 39.1727C45.4282 39.1155 45.5006 39.071 45.5795 39.0419C45.6585 39.0127 45.7424 38.9994 45.8265 39.0027C46.3186 39.0973 46.8007 39.2379 47.2665 39.4227C47.5068 39.5347 47.754 39.6316 48.0065 39.7127H48.2165C48.3276 39.7881 48.4555 39.8354 48.589 39.8506C48.7224 39.8657 48.8576 39.8483 48.9829 39.7996C49.1081 39.751 49.2197 39.6727 49.308 39.5715C49.3963 39.4702 49.4587 39.3491 49.4899 39.2184C49.521 39.0877 49.52 38.9514 49.4869 38.8212C49.4537 38.691 49.3895 38.5708 49.2997 38.4709C49.2098 38.371 49.0971 38.2944 48.9711 38.2477C48.8451 38.201 48.7097 38.1855 48.5765 38.2027H48.3365C48.0746 38.1649 47.8109 38.1415 47.5465 38.1327C47.05 38.0991 46.5578 38.0187 46.0765 37.8927C45.9236 37.8108 45.7984 37.6855 45.7165 37.5327L45.3865 37.4427C45.5587 36.1594 45.5011 34.8558 45.2165 33.5927C44.9224 32.3179 44.397 31.1079 43.6665 30.0227L43.9665 29.7627C43.9594 29.6799 43.969 29.5965 43.9947 29.5175C44.0205 29.4384 44.0619 29.3654 44.1165 29.3027C44.4913 28.9734 44.9003 28.6851 45.3365 28.4427C45.5765 28.3027 45.7865 28.2127 46.0265 28.0427C46.0265 28.0427 46.1465 27.9327 46.2065 27.8927C46.2998 27.827 46.3792 27.7434 46.4399 27.6467C46.5006 27.55 46.5414 27.4422 46.56 27.3296C46.5787 27.217 46.5747 27.1018 46.5483 26.9907C46.5219 26.8796 46.4737 26.7749 46.4065 26.6827C46.3311 26.5965 46.2394 26.526 46.1367 26.4753C46.034 26.4246 45.9223 26.3947 45.8081 26.3873C45.6938 26.3799 45.5792 26.3951 45.4708 26.432C45.3624 26.469 45.2624 26.527 45.1765 26.6027L44.9965 26.7527C44.8061 26.9326 44.6258 27.1228 44.4565 27.3227C44.1203 27.6918 43.7485 28.0267 43.3465 28.3227C43.1878 28.386 43.0145 28.4033 42.8465 28.3727L42.5265 28.6027C40.7409 26.6739 38.3117 25.4646 35.6965 25.2027C35.6965 25.0927 35.6965 24.8927 35.6965 24.8327C35.6263 24.7859 35.5663 24.7255 35.5199 24.6551C35.4735 24.5846 35.4417 24.5056 35.4265 24.4227C35.4053 23.9242 35.4354 23.4249 35.5165 22.9327C35.5692 22.6752 35.6059 22.4147 35.6265 22.1527C35.6315 22.0728 35.6315 21.9926 35.6265 21.9127C35.6374 21.6835 35.5573 21.4593 35.4038 21.2889C35.2502 21.1185 35.0355 21.0156 34.8065 21.0027L34.7865 21.0327ZM33.7865 27.4127L33.5365 31.7427C33.5263 31.9302 33.4453 32.1069 33.3097 32.2369C33.1742 32.3668 32.9943 32.4404 32.8065 32.4427C32.6517 32.4441 32.5007 32.395 32.3765 32.3027V32.3027L28.7865 29.7927C29.9148 28.684 31.332 27.9148 32.8765 27.5727C33.1665 27.5027 33.4665 27.4527 33.7865 27.4127V27.4127ZM35.8465 27.4127C37.7083 27.6472 39.4427 28.4828 40.7865 29.7927L37.2665 32.2927C37.1924 32.3502 37.1077 32.3925 37.0173 32.4171C36.9268 32.4417 36.8323 32.4481 36.7394 32.4361C36.6464 32.424 36.5567 32.3936 36.4756 32.3467C36.3944 32.2998 36.3233 32.2372 36.2665 32.1627C36.1703 32.043 36.1143 31.896 36.1065 31.7427L35.8465 27.4127ZM27.5365 31.4127L30.7865 34.3027C30.9265 34.4262 31.0139 34.5987 31.0307 34.7848C31.0474 34.9708 30.9922 35.1561 30.8765 35.3027C30.7812 35.4241 30.647 35.5088 30.4965 35.5427V35.5427L26.3465 36.7427C26.1422 34.868 26.5679 32.9786 27.5565 31.3727L27.5365 31.4127ZM42.0765 31.4127C42.5669 32.2133 42.9249 33.0879 43.1365 34.0027C43.3445 34.907 43.4052 35.839 43.3165 36.7627L39.1465 35.5627C38.9648 35.5154 38.8087 35.3991 38.7116 35.2384C38.6145 35.0778 38.5839 34.8855 38.6265 34.7027C38.6389 34.5564 38.6946 34.4172 38.7865 34.3027V34.3027L42.0065 31.4227L42.0765 31.4127ZM34.1565 34.5227H35.4765L36.2965 35.5227L36.0065 36.8127L34.7865 37.4127L33.5965 36.8427L33.2965 35.5527L34.1565 34.5227ZM38.3965 38.0527C38.4527 38.0424 38.5103 38.0424 38.5665 38.0527V38.0527L42.8565 38.7727C42.2246 40.5566 41.0135 42.0774 39.4165 43.0927L37.7565 39.0927C37.6818 38.92 37.6776 38.725 37.7449 38.5493C37.8122 38.3736 37.9456 38.2313 38.1165 38.1527C38.2007 38.1109 38.2926 38.0871 38.3865 38.0827L38.3965 38.0527ZM31.1965 38.0527C31.3592 38.0588 31.5155 38.1177 31.6418 38.2206C31.7681 38.3234 31.8575 38.4646 31.8965 38.6227C31.9413 38.7693 31.9413 38.926 31.8965 39.0727V39.0727L30.2465 43.0727C28.6539 42.0652 27.4379 40.561 26.7865 38.7927L31.0365 38.0727H31.1765L31.1965 38.0527ZM34.7865 39.8127C34.904 39.8057 35.0212 39.8299 35.1265 39.8827C35.2673 39.9472 35.3832 40.0561 35.4565 40.1927V40.1927L37.5565 43.9827C37.2812 44.0758 37.0007 44.1526 36.7165 44.2127C35.1743 44.5671 33.5639 44.4839 32.0665 43.9727L34.1465 40.2027C34.2071 40.0852 34.2988 39.9866 34.4117 39.9179C34.5246 39.8491 34.6543 39.8127 34.7865 39.8127V39.8127Z" fill="url(#paint0_linear)"/>
<defs>
<linearGradient id="paint0_linear" x1="589.899" y1="985.752" x2="1438.03" y2="985.752" gradientUnits="userSpaceOnUse">
<stop stop-color="#ffe9f1"/>
<stop offset="1"/>
</linearGradient>
</defs>
</svg>
