<svg width="70" height="70" viewBox="0 0 70 70" fill="none" xmlns="http://www.w3.org/2000/svg">
<rect width="70" height="70" rx="2" fill="#ffe9f1"/>
<path d="M34.58 50.16C43.1846 50.16 50.16 43.1846 50.16 34.58C50.16 25.9754 43.1846 19 34.58 19C25.9754 19 19 25.9754 19 34.58C19 43.1846 25.9754 50.16 34.58 50.16Z" stroke="black" stroke-width="2" stroke-linecap="round" stroke-linejoin="round"/>
<path d="M19 34.58H50.17H19ZM34.59 19C38.4853 23.2673 40.6991 28.8035 40.82 34.58C40.6991 40.3565 38.4853 45.8927 34.59 50.16C30.6879 45.8962 28.4701 40.3586 28.35 34.58C28.4701 28.8014 30.6879 23.2638 34.59 19Z" stroke="black" stroke-width="2" stroke-linecap="round" stroke-linejoin="round"/>
</svg>
