<svg width="70" height="70" viewBox="0 0 70 70" fill="none" xmlns="http://www.w3.org/2000/svg">
<rect width="70" height="70" rx="2" fill="#ffe9f1"/>
<path d="M50.9252 23.66C53.8689 23.66 56.2552 21.2737 56.2552 18.33C56.2552 15.3863 53.8689 13 50.9252 13C47.9815 13 45.5952 15.3863 45.5952 18.33C45.5952 21.2737 47.9815 23.66 50.9252 23.66Z" stroke="black" stroke-width="2" stroke-linecap="round" stroke-linejoin="round"/>
<path d="M50.9252 57.5201C53.8689 57.5201 56.2552 55.1338 56.2552 52.1901C56.2552 49.2464 53.8689 46.8601 50.9252 46.8601C47.9815 46.8601 45.5952 49.2464 45.5952 52.1901C45.5952 55.1338 47.9815 57.5201 50.9252 57.5201Z" stroke="black" stroke-width="2" stroke-linecap="round" stroke-linejoin="round"/>
<path d="M21.7453 36.5201C23.0431 36.5201 24.0953 35.4679 24.0953 34.1701C24.0953 32.8722 23.0431 31.8201 21.7453 31.8201C20.4474 31.8201 19.3953 32.8722 19.3953 34.1701C19.3953 35.4679 20.4474 36.5201 21.7453 36.5201Z" stroke="black" stroke-width="1.5" stroke-linecap="round" stroke-linejoin="round"/>
<path d="M27.5252 36.51C27.422 36.7457 27.3916 37.0068 27.438 37.2598C27.4843 37.5128 27.6052 37.7462 27.7852 37.93H27.8352C27.9806 38.0749 28.096 38.2472 28.1748 38.4368C28.2535 38.6264 28.294 38.8297 28.294 39.035C28.294 39.2403 28.2535 39.4436 28.1748 39.6333C28.096 39.8229 27.9806 39.9951 27.8352 40.14V40.14C27.691 40.2867 27.519 40.4031 27.3292 40.4826C27.1395 40.5621 26.9359 40.6031 26.7302 40.6031C26.5245 40.6031 26.3209 40.5621 26.1312 40.4826C25.9414 40.4031 25.7694 40.2867 25.6252 40.14V40.14C25.4398 39.9592 25.2047 39.8378 24.9499 39.7915C24.6952 39.7452 24.4323 39.776 24.1952 39.88C23.9644 39.9794 23.7676 40.1439 23.629 40.3536C23.4905 40.5632 23.4162 40.8087 23.4152 41.06V41.19C23.4325 41.4061 23.4048 41.6233 23.334 41.8282C23.2632 42.033 23.1508 42.2209 23.0038 42.3802C22.8568 42.5394 22.6784 42.6665 22.4798 42.7534C22.2813 42.8403 22.0669 42.8852 21.8502 42.8852C21.6335 42.8852 21.4191 42.8403 21.2206 42.7534C21.022 42.6665 20.8436 42.5394 20.6966 42.3802C20.5496 42.2209 20.4372 42.033 20.3664 41.8282C20.2955 41.6233 20.2679 41.4061 20.2852 41.19V41.12C20.2685 40.8599 20.1769 40.6102 20.0214 40.401C19.8659 40.1918 19.6532 40.0321 19.409 39.9412C19.1647 39.8503 18.8994 39.832 18.6449 39.8886C18.3905 39.9451 18.1579 40.0741 17.9752 40.26H17.9252C17.7799 40.4085 17.6065 40.5264 17.415 40.607C17.2235 40.6875 17.0179 40.729 16.8102 40.729C16.6025 40.729 16.3969 40.6875 16.2054 40.607C16.0139 40.5264 15.8405 40.4085 15.6952 40.26C15.5486 40.1158 15.4321 39.9438 15.3526 39.7541C15.2731 39.5643 15.2322 39.3607 15.2322 39.155C15.2322 38.9493 15.2731 38.7457 15.3526 38.556C15.4321 38.3663 15.5486 38.1943 15.6952 38.05V38.05C15.876 37.8647 15.9974 37.6295 16.0437 37.3747C16.09 37.12 16.0592 36.8572 15.9552 36.62C15.8559 36.3892 15.6913 36.1924 15.4816 36.0539C15.272 35.9153 15.0265 35.841 14.7752 35.84H14.6952C14.4792 35.8573 14.2619 35.8297 14.0571 35.7589C13.8522 35.688 13.6643 35.5756 13.505 35.4286C13.3458 35.2816 13.2187 35.1032 13.1318 34.9047C13.0449 34.7061 13 34.4917 13 34.275C13 34.0583 13.0449 33.8439 13.1318 33.6454C13.2187 33.4468 13.3458 33.2685 13.505 33.1214C13.6643 32.9744 13.8522 32.862 14.0571 32.7912C14.2619 32.7204 14.4792 32.6927 14.6952 32.71H14.7652C15.0241 32.707 15.2758 32.6249 15.4867 32.4747C15.6976 32.3246 15.8576 32.1136 15.9452 31.87C16.0608 31.6293 16.0989 31.3585 16.0541 31.0952C16.0093 30.8319 15.8839 30.589 15.6952 30.4V30.35C15.5498 30.2051 15.4344 30.0329 15.3556 29.8433C15.2769 29.6536 15.2364 29.4503 15.2364 29.245C15.2364 29.0397 15.2769 28.8364 15.3556 28.6468C15.4344 28.4572 15.5498 28.2849 15.6952 28.14V28.14C15.9896 27.8457 16.3889 27.6803 16.8052 27.6803C17.2215 27.6803 17.6208 27.8457 17.9152 28.14V28.14C18.1006 28.3208 18.3357 28.4422 18.5905 28.4885C18.8452 28.5349 19.1081 28.504 19.3452 28.4H19.4052C19.628 28.302 19.8186 28.143 19.9548 27.9412C20.0911 27.7395 20.1675 27.5033 20.1752 27.26V27.13C20.1579 26.914 20.1855 26.6967 20.2564 26.4919C20.3272 26.287 20.4396 26.0991 20.5866 25.9398C20.7336 25.7806 20.912 25.6535 21.1106 25.5666C21.3091 25.4797 21.5235 25.4348 21.7402 25.4348C21.9569 25.4348 22.1713 25.4797 22.3698 25.5666C22.5684 25.6535 22.7468 25.7806 22.8938 25.9398C23.0408 26.0991 23.1532 26.287 23.224 26.4919C23.2949 26.6967 23.3225 26.914 23.3052 27.13V27.2C23.3087 27.4533 23.3861 27.7 23.5279 27.9099C23.6698 28.1198 23.8698 28.2837 24.1035 28.3814C24.3372 28.4791 24.5944 28.5065 24.8434 28.46C25.0924 28.4136 25.3224 28.2954 25.5052 28.12L25.5552 28.07C25.7001 27.9246 25.8723 27.8092 26.062 27.7304C26.2516 27.6517 26.4549 27.6112 26.6602 27.6112C26.8655 27.6112 27.0688 27.6517 27.2584 27.7304C27.4481 27.8092 27.6203 27.9246 27.7652 28.07V28.07C28.0595 28.3644 28.2249 28.7637 28.2249 29.18C28.2249 29.5963 28.0595 29.9956 27.7652 30.29V30.29C27.5844 30.4754 27.463 30.7105 27.4167 30.9653C27.3704 31.2201 27.4012 31.4829 27.5052 31.72V31.78C27.6045 32.0108 27.7691 32.2076 27.9788 32.3462C28.1884 32.4847 28.4339 32.5591 28.6852 32.56H28.8152C29.0312 32.5427 29.2485 32.5704 29.4533 32.6412C29.6582 32.712 29.8461 32.8244 30.0054 32.9714C30.1646 33.1185 30.2917 33.2968 30.3786 33.4954C30.4655 33.6939 30.5104 33.9083 30.5104 34.125C30.5104 34.3417 30.4655 34.5561 30.3786 34.7547C30.2917 34.9532 30.1646 35.1316 30.0054 35.2786C29.8461 35.4256 29.6582 35.538 29.4533 35.6089C29.2485 35.6797 29.0312 35.7073 28.8152 35.69H28.6952C28.4411 35.6962 28.1945 35.7774 27.9863 35.9232C27.7782 36.0691 27.6177 36.2733 27.5252 36.51Z" stroke="black" stroke-width="1.5" stroke-linecap="round" stroke-linejoin="round"/>
<path d="M36.2554 29.54C37.0838 29.54 37.7554 28.8685 37.7554 28.04C37.7554 27.2116 37.0838 26.54 36.2554 26.54C35.4269 26.54 34.7554 27.2116 34.7554 28.04C34.7554 28.8685 35.4269 29.54 36.2554 29.54Z" fill="black"/>
<path d="M36.2554 42.54C37.0838 42.54 37.7554 41.8685 37.7554 41.04C37.7554 40.2116 37.0838 39.54 36.2554 39.54C35.4269 39.54 34.7554 40.2116 34.7554 41.04C34.7554 41.8685 35.4269 42.54 36.2554 42.54Z" fill="black"/>
<path d="M41.2554 25.54C42.0838 25.54 42.7554 24.8685 42.7554 24.04C42.7554 23.2116 42.0838 22.54 41.2554 22.54C40.4269 22.54 39.7554 23.2116 39.7554 24.04C39.7554 24.8685 40.4269 25.54 41.2554 25.54Z" fill="black"/>
<path d="M41.2554 46.54C42.0838 46.54 42.7554 45.8685 42.7554 45.04C42.7554 44.2116 42.0838 43.54 41.2554 43.54C40.4269 43.54 39.7554 44.2116 39.7554 45.04C39.7554 45.8685 40.4269 46.54 41.2554 46.54Z" fill="black"/>
</svg>
