<svg id="Layer_1" data-name="Layer 1" xmlns="http://www.w3.org/2000/svg" xmlns:xlink="http://www.w3.org/1999/xlink" viewBox="0 0 70.16 70.16"><defs><style>.cls-1{fill:url(#linear-gradient);}.cls-2,.cls-3{fill:none;stroke:#fff;stroke-linecap:round;stroke-linejoin:round;}.cls-2{stroke-width:2px;}.cls-3{stroke-width:1.5px;}.cls-4{fill:#fff;}</style><linearGradient id="linear-gradient" y1="35.08" x2="70.16" y2="35.08" gradientUnits="userSpaceOnUse"><stop offset="0" stop-color="var(--consul, #dc477d)"/><stop offset="1" stop-color="var(--consul, #dc477d)"/></linearGradient></defs><rect class="cls-1" width="70.16" height="70.16" rx="20"/><circle class="cls-2" cx="51.23" cy="18.07" r="5.33"/><circle class="cls-2" cx="51.23" cy="51.93" r="5.33"/><circle class="cls-3" cx="22.05" cy="33.91" r="2.35"/><path class="cls-3" d="M27.83,36.25a1.29,1.29,0,0,0,.26,1.42l.05,0a1.56,1.56,0,0,1,0,2.21h0a1.55,1.55,0,0,1-2.21,0h0l0,0a1.3,1.3,0,0,0-1.43-.26,1.29,1.29,0,0,0-.78,1.18v.13a1.57,1.57,0,1,1-3.13,0v-.07A1.35,1.35,0,0,0,18.28,40l-.05,0A1.56,1.56,0,0,1,16,40h0a1.55,1.55,0,0,1,0-2.21h0l0,0a1.3,1.3,0,0,0,.26-1.43,1.29,1.29,0,0,0-1.18-.78H15a1.57,1.57,0,1,1,0-3.13h.07a1.27,1.27,0,0,0,1.18-.84A1.29,1.29,0,0,0,16,30.14L16,30.09a1.56,1.56,0,0,1,0-2.21h0a1.57,1.57,0,0,1,2.22,0h0l0,0a1.3,1.3,0,0,0,1.43.26h.06A1.29,1.29,0,0,0,20.48,27v-.13a1.57,1.57,0,1,1,3.13,0v.07a1.3,1.3,0,0,0,2.2.92l.05-.05a1.56,1.56,0,0,1,2.21,0h0a1.57,1.57,0,0,1,0,2.22h0l0,0a1.3,1.3,0,0,0-.26,1.43v.06a1.29,1.29,0,0,0,1.18.78h.13a1.57,1.57,0,1,1,0,3.13H29A1.29,1.29,0,0,0,27.83,36.25Z"/><circle class="cls-4" cx="36.56" cy="27.78" r="1.5"/><circle class="cls-4" cx="36.56" cy="40.78" r="1.5"/><circle class="cls-4" cx="41.56" cy="23.78" r="1.5"/><circle class="cls-4" cx="41.56" cy="44.78" r="1.5"/></svg>