<svg id="Layer_1" data-name="Layer 1" xmlns="http://www.w3.org/2000/svg" xmlns:xlink="http://www.w3.org/1999/xlink" viewBox="0 0 70.16 70.16"><defs><style>.cls-1{fill:url(#linear-gradient);}.cls-2{fill:#fff;}.cls-3{fill:url(#linear-gradient-2);}</style><linearGradient id="linear-gradient" x1="-1.21" y1="18.16" x2="71.37" y2="52" gradientUnits="userSpaceOnUse"><stop offset="0" stop-color="var(--consul, #dc477d)"/><stop offset="1" stop-color="var(--consul, #dc477d)"/></linearGradient><linearGradient id="linear-gradient-2" x1="19.49" y1="34" x2="48.51" y2="34" xlink:href="#linear-gradient"/></defs><rect class="cls-1" width="70.16" height="70.16" rx="20"/><g id="layer1"><path id="path3055" class="cls-2" d="M50.32,23.4a2.57,2.57,0,0,0-1.42-1.77L35.14,15.06a2.7,2.7,0,0,0-1.28-.26h0a2.56,2.56,0,0,0-1,.26L19.09,21.63a2.64,2.64,0,0,0-1.42,1.77L14.28,38.17a2.61,2.61,0,0,0,.35,2l.15.21,9.53,11.84a2.63,2.63,0,0,0,2.05,1H41.64a2.65,2.65,0,0,0,2.06-1l9.52-11.84a2.6,2.6,0,0,0,.5-2.21"/><path id="path3059" class="cls-3" d="M34,19.83a.87.87,0,0,0-.82.91v0a1.61,1.61,0,0,0,0,.22,6.37,6.37,0,0,0,.11.78,7.27,7.27,0,0,1,.09,1.49,1,1,0,0,1-.27.43l0,.35a9.78,9.78,0,0,0-1.49.23,10.55,10.55,0,0,0-5.38,3.07l-.3-.21a.64.64,0,0,1-.48-.05,7.52,7.52,0,0,1-1.11-1,7.44,7.44,0,0,0-.55-.58l-.18-.14a1,1,0,0,0-.57-.22.79.79,0,0,0-.66.29.89.89,0,0,0,.2,1.22h0l.18.14a6.71,6.71,0,0,0,.68.4,8.25,8.25,0,0,1,1.22.86.93.93,0,0,1,.17.48l.26.23a10.72,10.72,0,0,0-1.68,7.43l-.34.1c-.09.12-.22.31-.36.36a7.91,7.91,0,0,1-1.47.24,7.23,7.23,0,0,0-.79.07l-.22,0h0a.83.83,0,1,0,.36,1.61h0l.21-.05a5,5,0,0,0,.74-.28A7.22,7.22,0,0,1,23,37.85a.87.87,0,0,1,.47.16l.36-.06a10.72,10.72,0,0,0,4.75,5.93l-.15.36a.79.79,0,0,1,.08.47,8.54,8.54,0,0,1-.75,1.34,5.41,5.41,0,0,0-.44.66l-.11.22a.88.88,0,0,0,.35,1.17.87.87,0,0,0,1.14-.47h0a2,2,0,0,0,.1-.21,5.9,5.9,0,0,0,.24-.75,5.67,5.67,0,0,1,.64-1.48A.65.65,0,0,1,30,45l.19-.33a10.64,10.64,0,0,0,6.19.44,10.48,10.48,0,0,0,1.41-.42c0,.09.15.27.18.31a.67.67,0,0,1,.42.26A7.3,7.3,0,0,1,39,46.65c.08.26.13.49.24.76l.1.21a.83.83,0,1,0,1.49-.71l-.1-.22a6.72,6.72,0,0,0-.45-.65,8.12,8.12,0,0,1-.73-1.31.66.66,0,0,1,.07-.49,2.32,2.32,0,0,1-.14-.33,10.69,10.69,0,0,0,4.75-6l.35.06a.64.64,0,0,1,.46-.17,8,8,0,0,1,1.44.42,6.34,6.34,0,0,0,.74.29l.21,0h0A.83.83,0,1,0,47.79,37l-.24,0a7.23,7.23,0,0,0-.79-.07,7.91,7.91,0,0,1-1.47-.24.88.88,0,0,1-.36-.36l-.33-.09a10.91,10.91,0,0,0-.17-3.85,10.7,10.7,0,0,0-1.55-3.57l.3-.26a.62.62,0,0,1,.15-.46,7,7,0,0,1,1.22-.86c.24-.14.45-.23.69-.4,0,0,.12-.11.18-.15a.86.86,0,0,0,.2-1.21.87.87,0,0,0-1.23-.08l-.18.15a7.08,7.08,0,0,0-.54.57,7.58,7.58,0,0,1-1.11,1,.91.91,0,0,1-.5.05l-.32.23A10.77,10.77,0,0,0,34.91,24c0-.11,0-.31,0-.37a.63.63,0,0,1-.27-.41,7.27,7.27,0,0,1,.09-1.49,6.37,6.37,0,0,0,.11-.78,1.92,1.92,0,0,0,0-.24.87.87,0,0,0-.82-.91Zm-1,6.38-.25,4.33h0a.74.74,0,0,1-.73.7.71.71,0,0,1-.43-.14h0L28,28.59a8.44,8.44,0,0,1,4.09-2.22C32.38,26.3,32.68,26.25,33,26.21Zm2.06,0A8.62,8.62,0,0,1,40,28.59l-3.52,2.5h0a.71.71,0,0,1-1-.13.73.73,0,0,1-.16-.42h0Zm-8.31,4L30,33.1v0a.73.73,0,0,1,.09,1,.67.67,0,0,1-.38.24v0l-4.15,1.2a8.49,8.49,0,0,1,1.21-5.37Zm14.54,0a8.72,8.72,0,0,1,1.06,2.59,8.63,8.63,0,0,1,.18,2.76l-4.17-1.2v0a.72.72,0,0,1-.52-.86A.74.74,0,0,1,38,33.1h0l3.22-2.88Zm-7.92,3.11h1.32l.82,1-.29,1.29L34,36.21l-1.19-.57-.3-1.29Zm4.24,3.53a.47.47,0,0,1,.17,0h0l4.29.72a8.47,8.47,0,0,1-3.44,4.32l-1.66-4h0a.72.72,0,0,1,.36-.94.68.68,0,0,1,.27-.07Zm-7.2,0a.75.75,0,0,1,.7.57.77.77,0,0,1,0,.45h0l-1.65,4A8.57,8.57,0,0,1,26,37.59l4.25-.72h0l.14,0ZM34,38.61a.67.67,0,0,1,.34.07.71.71,0,0,1,.33.31h0l2.1,3.79a7.39,7.39,0,0,1-.84.23,8.5,8.5,0,0,1-4.65-.24L33.36,39h0A.72.72,0,0,1,34,38.61Z"/></g></svg>