<svg id="Layer_1" data-name="Layer 1" xmlns="http://www.w3.org/2000/svg" xmlns:xlink="http://www.w3.org/1999/xlink" viewBox="0 0 70.16 70.16"><defs><style>.cls-1{fill:url(#linear-gradient);}.cls-2{fill:#fff;}</style><linearGradient id="linear-gradient" y1="35.08" x2="70.16" y2="35.08" gradientUnits="userSpaceOnUse"><stop offset="0" stop-color="var(--consul, #dc477d)"/><stop offset="1" stop-color="var(--consul, #dc477d)"/></linearGradient></defs><rect class="cls-1" width="70.16" height="70.16" rx="20"/><path class="cls-2" d="M35.14,50.16a1.15,1.15,0,0,1-.41-.08,1.13,1.13,0,0,1-.36-.24L30,45.51a1.08,1.08,0,0,1,.76-1.85,1.09,1.09,0,0,1,.77.31l2.49,2.49V35.71H23.3l2.49,2.48a1.12,1.12,0,0,1,.32.77,1.09,1.09,0,0,1-1.86.76l-4.33-4.33a1.13,1.13,0,0,1-.24-.36,1.09,1.09,0,0,1,0-.82,1.13,1.13,0,0,1,.24-.36l4.33-4.33a1.09,1.09,0,0,1,1.86.76,1.1,1.1,0,0,1-.32.77L23.3,33.54H34.06V23.06a1.08,1.08,0,1,1,2.16,0V33.54H47l-2.49-2.49a1.09,1.09,0,0,1,0-1.53,1.09,1.09,0,0,1,1.54,0l4.33,4.33a1.13,1.13,0,0,1,.24.36,1.06,1.06,0,0,1,0,.82,1.13,1.13,0,0,1-.24.36L46,39.72A1.08,1.08,0,0,1,44.18,39a1.11,1.11,0,0,1,.31-.77L47,35.71H36.22V46.46L38.71,44a1.11,1.11,0,0,1,.77-.31,1.08,1.08,0,0,1,.76,1.85l-4.33,4.33a1.13,1.13,0,0,1-.36.24A1.15,1.15,0,0,1,35.14,50.16Z"/></svg>