<svg width="71" height="71" viewBox="0 0 71 71" fill="none" xmlns="http://www.w3.org/2000/svg">
<path d="M50.16 0H20C8.9543 0 0 8.9543 0 20V50.16C0 61.2057 8.9543 70.16 20 70.16H50.16C61.2057 70.16 70.16 61.2057 70.16 50.16V20C70.16 8.9543 61.2057 0 50.16 0Z" fill="url(#paint0_linear)"/>
<path d="M35.59 50.16C44.1946 50.16 51.17 43.1846 51.17 34.58C51.17 25.9754 44.1946 19 35.59 19C26.9854 19 20.01 25.9754 20.01 34.58C20.01 43.1846 26.9854 50.16 35.59 50.16Z" stroke="white" stroke-width="2" stroke-linecap="round" stroke-linejoin="round"/>
<path d="M20 34.58H51.17H20ZM35.59 19C39.4853 23.2673 41.6991 28.8035 41.82 34.58C41.6991 40.3565 39.4853 45.8927 35.59 50.16C31.6879 45.8962 29.4701 40.3586 29.35 34.58C29.4701 28.8014 31.6879 23.2638 35.59 19V19Z" stroke="white" stroke-width="2" stroke-linecap="round" stroke-linejoin="round"/>
<defs>
<linearGradient id="paint0_linear" x1="0" y1="35.08" x2="70.16" y2="35.08" gradientUnits="userSpaceOnUse">
<stop stop-color="#dc477d"/>
<stop offset="1" stop-color="#dc477d"/>
</linearGradient>
</defs>
</svg>
